<?xml version="1.0" encoding="UTF-8" standalone="no"?>
<svg
   xmlns:dc="http://purl.org/dc/elements/1.1/"
   xmlns:cc="http://creativecommons.org/ns#"
   xmlns:rdf="http://www.w3.org/1999/02/22-rdf-syntax-ns#"
   xmlns:svg="http://www.w3.org/2000/svg"
   xmlns="http://www.w3.org/2000/svg"
   xmlns:xlink="http://www.w3.org/1999/xlink"
   xmlns:sodipodi="http://sodipodi.sourceforge.net/DTD/sodipodi-0.dtd"
   xmlns:inkscape="http://www.inkscape.org/namespaces/inkscape"
   id="svg1"
   width="24"
   height="24"
   version="1.1"
   sodipodi:docname="align-vertical-baseline.svg"
   viewBox="0 0 24 24">
  <metadata
     id="metadata50">
    <rdf:RDF>
      <cc:Work
         rdf:about="">
        <dc:format>image/svg+xml</dc:format>
        <dc:type
           rdf:resource="http://purl.org/dc/dcmitype/StillImage" />
      </cc:Work>
    </rdf:RDF>
  </metadata>
  <sodipodi:namedview
     pagecolor="#ffffff"
     bordercolor="#666666"
     borderopacity="1"
     objecttolerance="10"
     gridtolerance="10"
     guidetolerance="10"
     inkscape:pageopacity="0"
     inkscape:pageshadow="2"
     inkscape:window-width="640"
     inkscape:window-height="480"
     id="namedview48"
     showgrid="false" />
  <defs
     id="defs3">
    <linearGradient
       gradientTransform="matrix(1.499909,0,0,1.047619,1061.767,-755.9044)"
       gradientUnits="userSpaceOnUse"
       id="linearGradient13057"
       inkscape:collect="always"
       x1="187.5"
       x2="187.5"
       xlink:href="#linearGradient12319"
       y1="491.49991"
       y2="470.49991" />
    <linearGradient
       gradientTransform="translate(95.99999,-8)"
       gradientUnits="userSpaceOnUse"
       id="linearGradient13059"
       inkscape:collect="always"
       x1="145"
       x2="167"
       xlink:href="#linearGradient12306"
       y1="1352.5"
       y2="1352.5" />
    <radialGradient
       cx="83.242722"
       cy="228"
       fx="83.242722"
       fy="228"
       gradientTransform="translate(-1624,-1183.999)"
       gradientUnits="userSpaceOnUse"
       id="radialGradient13055"
       inkscape:collect="always"
       r="8"
       xlink:href="#linearGradient10735" />
    <linearGradient
       id="linearGradient10735">
      <stop
         id="stop10737"
         offset="0"
         style="stop-color:#c0c0c0;stop-opacity:0;" />
      <stop
         id="stop10739"
         offset="1"
         style="stop-color:#c0c0c0;stop-opacity:0;" />
    </linearGradient>
    <linearGradient
       gradientTransform="matrix(1.498293,0,0,1.397782,548.7676,204.9645)"
       gradientUnits="userSpaceOnUse"
       id="linearGradient13724"
       inkscape:collect="always"
       x1="1469"
       x2="1482"
       xlink:href="#linearGradient11207"
       y1="34.499969"
       y2="34.499969" />
    <linearGradient
       id="linearGradient12319">
      <stop
         id="stop12321"
         offset="0"
         style="stop-color:#ce5c00;stop-opacity:0;" />
      <stop
         id="stop12329"
         offset="0.09044679"
         style="stop-color:#ce5c00;stop-opacity:1;" />
      <stop
         id="stop12327"
         offset="0.90803826"
         style="stop-color:#ce5c00;stop-opacity:1;" />
      <stop
         id="stop12323"
         offset="1"
         style="stop-color:#ce5c00;stop-opacity:0;" />
    </linearGradient>
    <linearGradient
       id="linearGradient11207">
      <stop
         id="stop11209"
         offset="0"
         style="stop-color:#d3d7cf;stop-opacity:1;" />
      <stop
         id="stop11211"
         offset="1"
         style="stop-color:#d3d7cf;stop-opacity:1;" />
    </linearGradient>
    <linearGradient
       id="linearGradient12306">
      <stop
         id="stop12308"
         offset="0"
         style="stop-color:#fcaf3e;stop-opacity:0;" />
      <stop
         id="stop12317"
         offset="0.08843765"
         style="stop-color:#fcaf3e;stop-opacity:1;" />
      <stop
         id="stop12315"
         offset="0.90803868"
         style="stop-color:#fcaf3e;stop-opacity:1;" />
      <stop
         id="stop12310"
         offset="1"
         style="stop-color:#fcaf3e;stop-opacity:0;" />
    </linearGradient>
    <linearGradient
       inkscape:collect="always"
       xlink:href="#linearGradient11207"
       id="linearGradient52"
       gradientUnits="userSpaceOnUse"
       gradientTransform="matrix(1.498293,0,0,1.397782,548.7676,204.9645)"
       x1="1469"
       y1="34.499969"
       x2="1482"
       y2="34.499969" />
  </defs>
  <g
     id="al_baselines_hor"
     transform="translate(-240,-1328)">
    <rect
       height="24"
       id="rect13044"
       style="display:inline;overflow:visible;visibility:visible;fill:url(#radialGradient13055);fill-opacity:1;fill-rule:nonzero;stroke:none;stroke-width:1;stroke-linecap:round;stroke-linejoin:miter;stroke-miterlimit:4;stroke-dasharray:none;stroke-dashoffset:0;stroke-opacity:1;marker:none;marker-start:none;marker-mid:none;marker-end:none;enable-background:accumulate"
       transform="scale(-1)"
       width="24"
       x="-264"
       y="-1352" />
    <rect
       height="21.99999"
       id="rect13047"
       style="fill:url(#linearGradient13057);fill-opacity:1;stroke:none;stroke-width:1.00000095;stroke-linecap:round;stroke-linejoin:round;stroke-miterlimit:4;stroke-dasharray:none;stroke-dashoffset:0;stroke-opacity:1"
       transform="rotate(90)"
       width="3"
       x="1343"
       y="-263" />
    <path
       d="m 241.5,1344.5 h 21"
       id="path13049"
       inkscape:connector-curvature="0"
       sodipodi:nodetypes="cc"
       style="display:inline;overflow:visible;visibility:visible;fill:#fcaf3e;fill-opacity:1;fill-rule:evenodd;stroke:url(#linearGradient13059);stroke-width:1;stroke-linecap:square;stroke-linejoin:round;stroke-miterlimit:4;stroke-dasharray:none;stroke-dashoffset:0;stroke-opacity:1;marker:none;marker-start:none;marker-mid:none;marker-end:none;enable-background:accumulate" />
    <path
       d="m 252,1342 c -0.586,0 -1.172,0 -1.758,0 -0.233,-0.681 -0.4659,-1.363 -0.6989,-2.044 -1.0664,0 -2.1329,0 -3.1994,0 -0.2202,0.681 -0.4404,1.363 -0.6606,2.044 -0.5715,0 -1.1429,0 -1.7144,0 1.0392,-3 2.0784,-6 3.1175,-9 0.5697,0 1.1393,0 1.7089,0 1.0683,3 2.1366,6 3.2049,9 z m -2.9756,-3.561 c -0.3676,-1.113 -0.7352,-2.226 -1.1028,-3.339 -0.3604,1.113 -0.7207,2.226 -1.0811,3.339 0.728,0 1.456,0 2.1839,0 z"
       id="path13051"
       inkscape:connector-curvature="0"
       style="font-style:normal;font-weight:bold;font-size:16px;font-family:Arial;fill:#2e3436;fill-opacity:1;stroke:none;stroke-width:1px;stroke-linecap:butt;stroke-linejoin:miter;stroke-opacity:1" />
    <path
       d="m 255,1333 c 1.2314,0 2.4629,0 3.6943,0 0.5133,0.019 1.0413,0.014 1.5317,0.2 0.7754,0.296 1.3656,1.129 1.3628,2.025 0.0261,0.838 -0.4598,1.657 -1.1739,1.989 0.5416,0.161 1.0481,0.521 1.324,1.059 0.3836,0.727 0.3221,1.656 -0.0384,2.379 -0.2769,0.587 -0.7895,1.038 -1.3842,1.195 -0.5025,0.142 -1.0274,0.114 -1.5418,0.136 -1.1765,0.022 -2.3533,0.01 -3.53,0.012 -0.0815,0 -0.163,0 -0.2445,0 0,-2.999 0,-5.999 0,-8.999 z m 1.6872,1.498 c 0,0.694 0,1.388 0,2.081 0.746,0 1.4926,0.014 2.2382,-0.022 0.3699,-0.016 0.7709,-0.196 0.9347,-0.576 0.1319,-0.325 0.1204,-0.728 -0.0537,-1.033 -0.186,-0.322 -0.5598,-0.43 -0.8924,-0.433 -0.7419,-0.026 -1.4846,-0.014 -2.2268,-0.017 z m 0,3.579 c 0,0.802 0,1.604 0,2.406 0.7504,0 1.501,0.01 2.2513,-0.011 0.3432,-0.01 0.7197,-0.043 0.9866,-0.304 0.3193,-0.284 0.3829,-0.78 0.2953,-1.194 -0.0809,-0.404 -0.4059,-0.711 -0.7736,-0.798 -0.5288,-0.112 -1.0715,-0.095 -1.6079,-0.099 -0.3839,0 -0.7678,0 -1.1517,0 z"
       id="path13053"
       inkscape:connector-curvature="0"
       style="font-style:normal;font-weight:bold;font-size:16px;font-family:Arial;fill:#2e3436;fill-opacity:1;stroke:none;stroke-width:1px;stroke-linecap:butt;stroke-linejoin:miter;stroke-opacity:1" />
    <g
       id="use13061"
       inkscape:label="#g14209"
       transform="translate(-1036,1139)">
      <path
         d="m 1277.5,203.5 h 4 v 4 h -4 z"
         id="path20341"
         inkscape:connector-curvature="0"
         style="display:inline;overflow:visible;visibility:visible;opacity:1;fill:url(#linearGradient52);fill-opacity:1;fill-rule:evenodd;stroke:#888a85;stroke-width:1;stroke-linecap:butt;stroke-linejoin:round;stroke-miterlimit:0;stroke-dasharray:none;stroke-dashoffset:0;stroke-opacity:1;marker:none;marker-start:none;marker-mid:none;marker-end:none;enable-background:accumulate" />
      <path
         d="m 1278.5,204.5 h 2 v 2 h -2 z"
         id="path20343"
         inkscape:connector-curvature="0"
         style="fill:none;fill-opacity:1;stroke:#ffffff;stroke-width:0.9999997;stroke-linecap:round;stroke-linejoin:miter;stroke-miterlimit:4;stroke-opacity:1" />
    </g>
    <g
       id="use13063"
       inkscape:label="#g14209"
       transform="translate(-1025,1139)">
      <path
         d="m 1277.5,203.5 h 4 v 4 h -4 z"
         id="path41"
         inkscape:connector-curvature="0"
         style="display:inline;overflow:visible;visibility:visible;opacity:1;fill:url(#linearGradient13724);fill-opacity:1;fill-rule:evenodd;stroke:#888a85;stroke-width:1;stroke-linecap:butt;stroke-linejoin:round;stroke-miterlimit:0;stroke-dasharray:none;stroke-dashoffset:0;stroke-opacity:1;marker:none;marker-start:none;marker-mid:none;marker-end:none;enable-background:accumulate" />
      <path
         d="m 1278.5,204.5 h 2 v 2 h -2 z"
         id="path43"
         inkscape:connector-curvature="0"
         style="fill:none;fill-opacity:1;stroke:#ffffff;stroke-width:0.9999997;stroke-linecap:round;stroke-linejoin:miter;stroke-miterlimit:4;stroke-opacity:1" />
    </g>
  </g>
</svg>
