<?xml version="1.0" encoding="UTF-8" standalone="no"?>
<svg
   xmlns:dc="http://purl.org/dc/elements/1.1/"
   xmlns:cc="http://creativecommons.org/ns#"
   xmlns:rdf="http://www.w3.org/1999/02/22-rdf-syntax-ns#"
   xmlns:svg="http://www.w3.org/2000/svg"
   xmlns="http://www.w3.org/2000/svg"
   xmlns:xlink="http://www.w3.org/1999/xlink"
   xmlns:sodipodi="http://sodipodi.sourceforge.net/DTD/sodipodi-0.dtd"
   xmlns:inkscape="http://www.inkscape.org/namespaces/inkscape"
   id="svg1"
   width="16"
   height="16.000088"
   version="1.1"
   sodipodi:docname="dialog-object-properties.svg"
   viewBox="0 0 16 16.000088">
  <metadata
     id="metadata26">
    <rdf:RDF>
      <cc:Work
         rdf:about="">
        <dc:format>image/svg+xml</dc:format>
        <dc:type
           rdf:resource="http://purl.org/dc/dcmitype/StillImage" />
      </cc:Work>
    </rdf:RDF>
  </metadata>
  <sodipodi:namedview
     pagecolor="#ffffff"
     bordercolor="#666666"
     borderopacity="1"
     objecttolerance="10"
     gridtolerance="10"
     guidetolerance="10"
     inkscape:pageopacity="0"
     inkscape:pageshadow="2"
     inkscape:window-width="640"
     inkscape:window-height="480"
     id="namedview24"
     showgrid="false" />
  <defs
     id="defs3">
    <radialGradient
       cx="391"
       cy="279"
       fx="391"
       fy="279"
       gradientTransform="translate(528,249)"
       gradientUnits="userSpaceOnUse"
       id="radialGradient11885"
       inkscape:collect="always"
       r="8"
       xlink:href="#linearGradient10735" />
    <linearGradient
       id="linearGradient10735">
      <stop
         id="stop10737"
         offset="0"
         style="stop-color:#c0c0c0;stop-opacity:0;" />
      <stop
         id="stop10739"
         offset="1"
         style="stop-color:#c0c0c0;stop-opacity:0;" />
    </linearGradient>
  </defs>
  <g
     id="dialog_item_properties"
     transform="translate(-510,-175.99996)">
    <rect
       height="16"
       id="rect11883"
       style="display:inline;overflow:visible;visibility:visible;opacity:1;fill:url(#radialGradient11885);fill-opacity:1;fill-rule:evenodd;stroke:none;stroke-width:0.86788619;stroke-linecap:square;stroke-linejoin:round;stroke-miterlimit:0;stroke-dasharray:none;stroke-dashoffset:0;stroke-opacity:1;marker:none;marker-start:none;marker-mid:none;marker-end:none;enable-background:accumulate"
       width="16"
       x="510"
       y="176" />
    <rect
       height="8.9929667"
       id="rect11003"
       style="display:inline;fill:#edd400;fill-opacity:1;fill-rule:evenodd;stroke:#c4a000;stroke-width:1.0000006;stroke-linecap:butt;stroke-linejoin:round;stroke-miterlimit:0;stroke-dasharray:none;stroke-dashoffset:0;stroke-opacity:1;marker:none;marker-start:none;marker-mid:none;marker-end:none"
       width="8.9967346"
       x="510.5"
       y="181.5" />
    <rect
       height="6.985559"
       id="rect11009"
       style="display:inline;fill:none;fill-opacity:1;fill-rule:evenodd;stroke:#fce94f;stroke-width:1.0000006;stroke-linecap:round;stroke-linejoin:round;stroke-miterlimit:0;stroke-dasharray:none;stroke-dashoffset:0;stroke-opacity:1;marker:none;marker-start:none;marker-mid:none;marker-end:none"
       width="6.994853"
       x="511.49991"
       y="182.5145" />
    <path
       d="m 523.4948,186.5 c 1.5,0 2,1 2,2 v 2.5 l -1,0.5 h -1 v -2 h -4 v 2 h -1 l -1,-0.5 v -2.5 c 0,-1 0.5,-2 2,-2 v -5 c -1.5,0 -2,-1 -2,-2 V 177 l 1,-0.5 h 1 v 2 h 4 v -2 h 1 l 1,0.5 v 2.5 c 0,0.5 -0.5,2 -2,2 z"
       id="path11012"
       inkscape:connector-curvature="0"
       sodipodi:nodetypes="cccccccccccccsccccccccscc"
       style="display:inline;overflow:visible;visibility:visible;opacity:1;fill:#dfdfdb;fill-opacity:1;fill-rule:evenodd;stroke:#888a85;stroke-width:1.0000875;stroke-linecap:square;stroke-linejoin:round;stroke-miterlimit:0;stroke-dasharray:none;stroke-dashoffset:0;stroke-opacity:1;marker:none;marker-start:none;marker-mid:none;marker-end:none;enable-background:accumulate" />
    <path
       d="m 518.6875,177.2187 -0.4688,0.2188 V 179.5 c 0,0.3789 0.1112,0.7021 0.2813,0.9062 0.1701,0.2042 0.4115,0.375 1,0.375 0.3951,0.004 0.7144,0.3237 0.7187,0.7188 v 5 c -0.004,0.3951 -0.3236,0.7144 -0.7187,0.7187 -0.5885,0 -0.8299,0.1709 -1,0.375 -0.1701,0.2042 -0.2813,0.5274 -0.2813,0.9063 v 2.0625 l 0.4688,0.2187 h 0.0937 V 189.5 c 0.004,-0.3951 0.3237,-0.7144 0.7188,-0.7188 h 4 c 0.3951,0.004 0.7144,0.3237 0.7187,0.7188 v 1.2812 h 0.0938 l 0.4687,-0.2187 V 188.5 c 0,-0.3789 -0.1111,-0.7021 -0.2812,-0.9063 -0.1701,-0.2041 -0.4115,-0.375 -1,-0.375 -0.3951,-0.004 -0.7144,-0.3236 -0.7188,-0.7187 v -5 c 0.004,-0.3951 0.3237,-0.7144 0.7188,-0.7188 0.5078,0 0.7552,-0.2322 0.9687,-0.5312 0.2136,-0.299 0.3125,-0.7422 0.3125,-0.75 v -2.0625 l -0.4687,-0.2188 h -0.0938 V 178.5 c -0.004,0.3951 -0.3236,0.7144 -0.7187,0.7187 h -4 c -0.3951,-0.004 -0.7144,-0.3236 -0.7188,-0.7187 v -1.2813 z"
       id="path11880"
       inkscape:connector-curvature="0"
       style="display:inline;overflow:visible;visibility:visible;fill:none;fill-opacity:1;fill-rule:evenodd;stroke:#ffffff;stroke-width:0.5;stroke-linecap:square;stroke-linejoin:round;stroke-miterlimit:0;stroke-dashoffset:0;stroke-opacity:1;marker:none;marker-start:none;marker-mid:none;marker-end:none;enable-background:accumulate" />
  </g>
</svg>
