<?xml version="1.0" encoding="UTF-8" standalone="no"?>
<svg
   xmlns:dc="http://purl.org/dc/elements/1.1/"
   xmlns:cc="http://creativecommons.org/ns#"
   xmlns:rdf="http://www.w3.org/1999/02/22-rdf-syntax-ns#"
   xmlns:svg="http://www.w3.org/2000/svg"
   xmlns="http://www.w3.org/2000/svg"
   xmlns:xlink="http://www.w3.org/1999/xlink"
   xmlns:sodipodi="http://sodipodi.sourceforge.net/DTD/sodipodi-0.dtd"
   xmlns:inkscape="http://www.inkscape.org/namespaces/inkscape"
   inkscape:version="1.0alpha2 (6b3f07e86c, 2019-08-28, custom)"
   sodipodi:docname="dialog-selectors.svg"
   version="1.1"
   height="16.001566"
   width="16.000858"
   id="svg1">
  <style
     id="style4923"></style>
  <metadata
     id="metadata3345">
    <rdf:RDF>
      <cc:Work
         rdf:about="">
        <dc:format>image/svg+xml</dc:format>
        <dc:type
           rdf:resource="http://purl.org/dc/dcmitype/StillImage" />
        <dc:title></dc:title>
      </cc:Work>
    </rdf:RDF>
  </metadata>
  <sodipodi:namedview
     inkscape:current-layer="dialog-xml-editor"
     inkscape:window-maximized="1"
     inkscape:window-y="27"
     inkscape:window-x="0"
     inkscape:window-height="1376"
     inkscape:window-width="2560"
     inkscape:cy="6.3247212"
     inkscape:cx="13.818616"
     inkscape:zoom="32.59056"
     showgrid="true"
     id="base">
    <inkscape:grid
       empspacing="5"
       empopacity="0.38"
       opacity="0.15"
       empcolor="#3f3fff"
       color="#3f3fff"
       spacingy="1pt"
       spacingx="1pt"
       originy="0pt"
       originx="0pt"
       type="xygrid"
       id="GridFromPre046Settings" />
  </sodipodi:namedview>
  <defs
     id="defs3">
    <linearGradient
       y2="350.1636"
       y1="343.258"
       xlink:href="#linearGradient1887"
       x2="130.3522"
       x1="121.1177"
       inkscape:collect="always"
       id="linearGradient5684"
       gradientUnits="userSpaceOnUse" />
    <linearGradient
       id="linearGradient1887">
      <stop
         style="stop-color:#fffdf8;stop-opacity:1"
         offset="0"
         id="stop1888" />
      <stop
         style="stop-color:#cdccc7;stop-opacity:1"
         offset="1"
         id="stop1889" />
    </linearGradient>
    <linearGradient
       id="linearGradient5704">
      <stop
         style="stop-color:#5a5a5a;stop-opacity:1"
         offset="0"
         id="stop5706" />
      <stop
         style="stop-color:#000000;stop-opacity:1"
         offset="1"
         id="stop5708" />
    </linearGradient>
    <linearGradient
       id="linearGradient5740">
      <stop
         style="stop-color:#ffffff;stop-opacity:1"
         offset="0"
         id="stop5742" />
      <stop
         style="stop-color:#98b6d3;stop-opacity:1"
         offset="1"
         id="stop5744" />
    </linearGradient>
    <linearGradient
       y2="46.339"
       y1="46.33899"
       xlink:href="#linearGradient5740"
       x2="414.2602"
       x1="404.6787"
       inkscape:collect="always"
       id="linearGradient5686"
       gradientUnits="userSpaceOnUse"
       gradientTransform="matrix(1.001797,0,0,0.906445,-290.1978,295.2598)" />
    <linearGradient
       gradientTransform="translate(-162.16667,-210.6)"
       gradientUnits="userSpaceOnUse"
       id="linearGradient5696-3"
       inkscape:collect="always"
       x1="160"
       x2="175.2934"
       xlink:href="#linearGradient5704"
       y1="213"
       y2="213.07851" />
  </defs>
  <g
     transform="translate(-54.999196,-189.99763)"
     inkscape:label="#xml_editor"
     id="dialog-xml-editor">
    <g
       transform="matrix(1,0,0,0.996869,-60.05772,-144.2098)"
       id="g5620">
      <rect
         y="338.8083"
         x="115.5577"
         width="14.99917"
         style="color:#000000;fill:url(#linearGradient5684);fill-rule:evenodd;stroke:#000000;stroke-width:1.0015693;stroke-linecap:round;stroke-linejoin:round"
         id="rect5622"
         height="11.99987" />
      <rect
         y="335.7579"
         x="115.5588"
         width="14.99819"
         style="color:#000000;fill:url(#linearGradient5686);fill-rule:evenodd;stroke:#000000;stroke-width:1.0015692;stroke-linecap:round;stroke-linejoin:round"
         id="rect5624"
         height="3.011261" />
      <g
         style="color:#000000;font-size:11.1186px;line-height:1;font-family:Lato;-inkscape-font-specification:Lato;font-variation-settings:normal;text-decoration:none;text-decoration-line:none;text-decoration-color:#000000;letter-spacing:0px;word-spacing:0px;writing-mode:lr-tb;overflow:visible;opacity:1;vector-effect:none;fill:#1a1a1a;fill-opacity:1;stroke:url(#linearGradient5696);stroke-width:1px;stroke-linecap:butt;stroke-linejoin:miter;stroke-miterlimit:4;stroke-dasharray:none;stroke-dashoffset:0;stroke-opacity:1;paint-order:stroke markers fill;stop-color:#000000;stop-opacity:1"
         id="text4986"
         transform="matrix(1.1220439,0,0,0.89402995,114.9747,335.25712)"
         aria-label="{ }">
        <path
           inkscape:connector-curvature="0"
           id="path5021"
           style="font-variation-settings:normal;vector-effect:none;fill:#1a1a1a;fill-opacity:1;stroke:url(#linearGradient5696);stroke-width:1px;stroke-linecap:butt;stroke-linejoin:miter;stroke-miterlimit:4;stroke-dasharray:none;stroke-dashoffset:0;stroke-opacity:1;stop-color:#000000;stop-opacity:1"
           d="m 5.0818471,6.0673442 q -0.4336254,0 -0.6782346,0.2835243 -0.2446092,0.277965 -0.2446092,0.7560648 0,0.3113208 0.038915,0.6004044 0.038915,0.2890836 0.088949,0.5670486 0.050034,0.2724057 0.088949,0.5448114 0.038915,0.2724057 0.038915,0.5503707 0,0.2056941 -0.061152,0.389151 -0.061152,0.1778976 -0.1778976,0.3224396 -0.111186,0.144542 -0.2668464,0.250168 -0.1501011,0.100068 -0.333558,0.150101 0.1834569,0.05003 0.333558,0.150101 0.1556604,0.100068 0.2668464,0.24461 0.1167453,0.144541 0.1778976,0.327998 0.061152,0.177898 0.061152,0.383592 0,0.277965 -0.038915,0.550371 -0.038915,0.272405 -0.088949,0.55037 -0.050034,0.272406 -0.088949,0.56149 -0.038915,0.289083 -0.038915,0.600404 0,0.483659 0.2446092,0.761624 0.2446092,0.277965 0.6782346,0.277965 h 0.111186 q 0.066712,0 0.1445418,0.05003 0.07783,0.05003 0.07783,0.16122 v 0.444744 h -0.300202 q -0.4503033,0 -0.7949799,-0.133424 Q 3.9811057,15.28466 3.7476151,15.051169 3.5196838,14.817678 3.4029385,14.495239 3.2917525,14.1728 3.2917525,13.789208 q 0,-0.289084 0.044474,-0.561489 0.044474,-0.277965 0.094508,-0.550371 0.050034,-0.277965 0.094508,-0.550371 0.044474,-0.272406 0.044474,-0.550371 0,-0.350235 -0.1945755,-0.572607 -0.1945755,-0.227932 -0.5614893,-0.227932 v -0.594845 q 0.3669138,0 0.5614893,-0.2223718 0.1945755,-0.222372 0.1945755,-0.5781672 0,-0.277965 -0.044474,-0.5503707 Q 3.4807687,8.5579106 3.430735,8.2855049 3.3807013,8.0130992 3.3362269,7.7351342 3.2917525,7.4571692 3.2917525,7.1680856 q 0,-0.3835917 0.111186,-0.7060311 Q 3.5196838,6.1396151 3.7476151,5.9061245 3.9811057,5.6726339 4.320223,5.54477 4.6648996,5.4169061 5.1152029,5.4169061 h 0.3002022 v 0.4391847 q 0,0.111186 -0.07783,0.1612197 -0.07783,0.050034 -0.1445418,0.050034 z" />
        <path
           inkscape:connector-curvature="0"
           id="path5023"
           style="font-variation-settings:normal;vector-effect:none;fill:#1a1a1a;fill-opacity:1;stroke:url(#linearGradient5696);stroke-width:1px;stroke-linecap:butt;stroke-linejoin:miter;stroke-miterlimit:4;stroke-dasharray:none;stroke-dashoffset:0;stroke-opacity:1;stop-color:#000000;stop-opacity:1"
           d="m 11.593351,10.776071 q -0.366914,0 -0.561489,0.227932 -0.194576,0.222372 -0.194576,0.572607 0,0.277965 0.04447,0.550371 0.04447,0.272406 0.09451,0.550371 0.05003,0.272406 0.09451,0.550371 0.04447,0.272405 0.04447,0.561489 0,0.383592 -0.116745,0.706031 -0.111186,0.322439 -0.344677,0.55593 -0.227931,0.233491 -0.572608,0.361354 -0.3391169,0.133424 -0.7894202,0.133424 H 8.9915986 v -0.444744 q 0,-0.111186 0.07783,-0.16122 0.083389,-0.05003 0.1445418,-0.05003 h 0.111186 q 0.4336254,0 0.6782346,-0.277965 0.244609,-0.277965 0.244609,-0.761624 0,-0.311321 -0.03891,-0.600404 -0.03891,-0.289084 -0.08895,-0.56149 -0.05003,-0.277965 -0.08895,-0.55037 -0.038915,-0.272406 -0.038915,-0.550371 0,-0.205694 0.061152,-0.383592 0.06115,-0.183457 0.172338,-0.327998 0.116745,-0.144542 0.266847,-0.24461 0.15566,-0.100067 0.339117,-0.150101 -0.183457,-0.05003 -0.339117,-0.150101 Q 10.34251,10.225705 10.225765,10.081163 10.114579,9.936621 10.053427,9.7587234 9.992275,9.5752665 9.992275,9.3695724 q 0,-0.277965 0.038915,-0.5503707 Q 10.0701,8.546796 10.12014,8.2743903 10.17017,7.9964253 10.20909,7.7073417 10.248,7.4182541 10.248,7.1069333 10.248,6.6288335 10.003391,6.3508685 9.758782,6.0673442 9.3251566,6.0673442 h -0.111186 q -0.061152,0 -0.1445418,-0.050034 -0.07783,-0.050034 -0.07783,-0.1612197 V 5.4169061 H 9.291801 q 0.4503033,0 0.78942,0.1278639 0.344677,0.1278639 0.572608,0.3613545 0.233491,0.2334906 0.344677,0.55593 0.116745,0.3224394 0.116745,0.7060311 0,0.2890836 -0.04447,0.5670486 -0.04448,0.277965 -0.09451,0.5503707 -0.05003,0.2724057 -0.09451,0.5448114 -0.04447,0.2724057 -0.04447,0.5503707 0,0.3557952 0.194576,0.5781672 0.194575,0.2223718 0.561489,0.2223718 z" />
      </g>
    </g>
  </g>
</svg>
