<?xml version="1.0" encoding="UTF-8" standalone="no"?>
<svg
   xmlns:dc="http://purl.org/dc/elements/1.1/"
   xmlns:cc="http://creativecommons.org/ns#"
   xmlns:rdf="http://www.w3.org/1999/02/22-rdf-syntax-ns#"
   xmlns:svg="http://www.w3.org/2000/svg"
   xmlns="http://www.w3.org/2000/svg"
   xmlns:sodipodi="http://sodipodi.sourceforge.net/DTD/sodipodi-0.dtd"
   xmlns:inkscape="http://www.inkscape.org/namespaces/inkscape"
   id="svg1"
   width="14.99297"
   height="13.281"
   version="1.1"
   sodipodi:docname="draw-geometry-circle-from-radius.svg"
   inkscape:version="0.92.2 (5c3e80d, 2017-08-06)">
  <metadata
     id="metadata4089">
    <rdf:RDF>
      <cc:Work
         rdf:about="">
        <dc:format>image/svg+xml</dc:format>
        <dc:type
           rdf:resource="http://purl.org/dc/dcmitype/StillImage" />
        <dc:title></dc:title>
      </cc:Work>
    </rdf:RDF>
  </metadata>
  <sodipodi:namedview
     pagecolor="#ffffff"
     bordercolor="#666666"
     borderopacity="1"
     objecttolerance="10"
     gridtolerance="10"
     guidetolerance="10"
     inkscape:pageopacity="0"
     inkscape:pageshadow="2"
     inkscape:window-width="640"
     inkscape:window-height="480"
     id="namedview4087"
     showgrid="false"
     inkscape:zoom="17.769746"
     inkscape:cx="7.4964852"
     inkscape:cy="6.6405001"
     inkscape:window-x="0"
     inkscape:window-y="27"
     inkscape:window-maximized="0"
     inkscape:current-layer="svg1" />
  <defs
     id="defs3" />
  <g
     id="circle_3pts-5"
     transform="translate(-1397.007,-1386.795)">
    <path
       d="m 1409.78,1393.436 c 0,0.804 -0.16,1.607 -0.468,2.35 -0.307,0.742 -0.762,1.424 -1.331,1.992 -0.568,0.568 -1.249,1.023 -1.992,1.331 -0.742,0.308 -1.545,0.467 -2.348,0.467 -0.804,0 -1.607,-0.16 -2.348,-0.467 -0.742,-0.308 -1.423,-0.763 -1.99,-1.331 -0.568,-0.569 -1.022,-1.25 -1.329,-1.992 -0.308,-0.743 -0.467,-1.546 -0.467,-2.35 0,-0.804 0.159,-1.607 0.467,-2.35 0.307,-0.742 0.761,-1.424 1.329,-1.992 0.567,-0.568 1.248,-1.023 1.99,-1.331 0.741,-0.308 1.544,-0.468 2.348,-0.468 0.803,0 1.606,0.16 2.348,0.468 0.743,0.307 1.424,0.762 1.992,1.331 0.569,0.568 1.024,1.249 1.331,1.992 0.308,0.743 0.468,1.546 0.468,2.35"
       id="path13476"
       inkscape:connector-curvature="0"
       inkscape:label="circle_with_radius"
       style="display:inline;fill:none;stroke:#5a5a5a;stroke-width:1;stroke-linecap:square;stroke-linejoin:bevel;stroke-miterlimit:4.26999998;stroke-dasharray:none;stroke-dashoffset:23.20000076;stroke-opacity:1" />
    <path
       d="m 1403.417,1393.612 5.417,-3.388"
       id="path13478"
       inkscape:connector-curvature="0"
       sodipodi:nodetypes="cc"
       style="display:inline;fill:none;stroke:#5a5a5a;stroke-width:1;stroke-linecap:round;stroke-linejoin:round;stroke-miterlimit:0;stroke-dasharray:none;stroke-opacity:1" />
    <g
       id="g13626"
       transform="translate(46,-17)">
      <g
         id="g13628"
         inkscape:label="#g14209"
         transform="rotate(90,716,847)">
        <path
           d="m 1277.5,203.5 h 4 v 4 h -4 z"
           id="path13630"
           inkscape:connector-curvature="0"
           style="display:inline;overflow:visible;visibility:visible;opacity:1;fill:#729fcf;fill-opacity:1;fill-rule:evenodd;stroke:#204a87;stroke-width:1;stroke-linecap:butt;stroke-linejoin:round;stroke-miterlimit:0;stroke-dasharray:none;stroke-dashoffset:0;stroke-opacity:1;marker:none;marker-start:none;marker-mid:none;marker-end:none;enable-background:accumulate" />
        <path
           d="m 1278.5,204.5 h 2 v 2 h -2 z"
           id="path13633"
           inkscape:connector-curvature="0"
           style="fill:none;fill-opacity:1;stroke:#ffffff;stroke-width:0.9999997;stroke-linecap:round;stroke-linejoin:miter;stroke-miterlimit:4;stroke-opacity:1" />
      </g>
    </g>
    <g
       id="g13639"
       transform="translate(51.99997,-20.875)">
      <g
         id="g13641"
         inkscape:label="#g14209"
         transform="rotate(90,716,847)">
        <path
           d="m 1277.5,203.5 h 4 v 4 h -4 z"
           id="path13643"
           inkscape:connector-curvature="0"
           style="display:inline;overflow:visible;visibility:visible;opacity:1;fill:#729fcf;fill-opacity:1;fill-rule:evenodd;stroke:#204a87;stroke-width:1;stroke-linecap:butt;stroke-linejoin:round;stroke-miterlimit:0;stroke-dasharray:none;stroke-dashoffset:0;stroke-opacity:1;marker:none;marker-start:none;marker-mid:none;marker-end:none;enable-background:accumulate" />
        <path
           d="m 1278.5,204.5 h 2 v 2 h -2 z"
           id="path13645"
           inkscape:connector-curvature="0"
           style="fill:none;fill-opacity:1;stroke:#ffffff;stroke-width:0.9999997;stroke-linecap:round;stroke-linejoin:miter;stroke-miterlimit:4;stroke-opacity:1" />
      </g>
    </g>
  </g>
</svg>
