<?xml version="1.0" encoding="UTF-8" standalone="no"?>
<svg
   xmlns:dc="http://purl.org/dc/elements/1.1/"
   xmlns:cc="http://creativecommons.org/ns#"
   xmlns:rdf="http://www.w3.org/1999/02/22-rdf-syntax-ns#"
   xmlns:svg="http://www.w3.org/2000/svg"
   xmlns="http://www.w3.org/2000/svg"
   xmlns:xlink="http://www.w3.org/1999/xlink"
   xmlns:sodipodi="http://sodipodi.sourceforge.net/DTD/sodipodi-0.dtd"
   xmlns:inkscape="http://www.inkscape.org/namespaces/inkscape"
   id="svg1"
   width="19.114639"
   height="16.928883"
   version="1.1"
   sodipodi:docname="inkscape-logo.svg"
   viewBox="0 0 19.114639 16.928883">
  <metadata
     id="metadata44">
    <rdf:RDF>
      <cc:Work
         rdf:about="">
        <dc:format>image/svg+xml</dc:format>
        <dc:type
           rdf:resource="http://purl.org/dc/dcmitype/StillImage" />
      </cc:Work>
    </rdf:RDF>
  </metadata>
  <sodipodi:namedview
     pagecolor="#ffffff"
     bordercolor="#666666"
     borderopacity="1"
     objecttolerance="10"
     gridtolerance="10"
     guidetolerance="10"
     inkscape:pageopacity="0"
     inkscape:pageshadow="2"
     inkscape:window-width="640"
     inkscape:window-height="480"
     id="namedview42"
     showgrid="false" />
  <defs
     id="defs3">
    <linearGradient
       gradientUnits="userSpaceOnUse"
       id="linearGradient3739"
       inkscape:collect="always"
       x1="60"
       x2="90"
       xlink:href="#WhiteTransparent"
       y1="20"
       y2="50" />
    <linearGradient
       gradientUnits="userSpaceOnUse"
       id="linearGradient3735"
       inkscape:collect="always"
       x1="33"
       x2="58"
       xlink:href="#WhiteTransparent"
       y1="35"
       y2="60" />
    <linearGradient
       gradientUnits="userSpaceOnUse"
       id="linearGradient3731"
       inkscape:collect="always"
       x1="0"
       x2="0"
       xlink:href="#WhiteTransparent"
       y1="128"
       y2="76" />
    <linearGradient
       gradientUnits="userSpaceOnUse"
       id="BlackTransparent">
      <stop
         id="stop12"
         offset="0"
         style="stop-color:black;stop-opacity:1" />
      <stop
         id="stop14"
         offset="1"
         style="stop-color:black;stop-opacity:0" />
    </linearGradient>
    <linearGradient
       gradientUnits="userSpaceOnUse"
       id="linearGradient3391">
      <stop
         id="stop3393"
         offset="0"
         style="stop-color:white;stop-opacity:1" />
      <stop
         id="stop3395"
         offset="1"
         style="stop-color:white;stop-opacity:0" />
    </linearGradient>
    <filter
       filterUnits="userSpaceOnUse"
       id="ShadowBlur"
       x="0"
       y="0">
      <feGaussianBlur
         id="feGaussianBlur24"
         in="SourceAlpha"
         result="blur"
         stdDeviation="3" />
    </filter>
    <linearGradient
       gradientUnits="userSpaceOnUse"
       id="linearGradient3733"
       inkscape:collect="always"
       x1="80"
       x2="60"
       xlink:href="#linearGradient3391"
       y1="20"
       y2="40" />
    <linearGradient
       gradientUnits="userSpaceOnUse"
       id="linearGradient3737"
       inkscape:collect="always"
       x1="0"
       x2="0"
       xlink:href="#BlackTransparent"
       y1="128"
       y2="64" />
    <linearGradient
       gradientUnits="userSpaceOnUse"
       id="WhiteTransparent">
      <stop
         id="stop7"
         offset="0"
         style="stop-color:white;stop-opacity:1" />
      <stop
         id="stop9"
         offset="1"
         style="stop-color:white;stop-opacity:0" />
    </linearGradient>
  </defs>
  <g
     id="inkscape_options"
     transform="matrix(0.5315629,0,0,0.5315629,0.16589212,-7.1325535)">
    <g
       id="g28"
       transform="matrix(0.267301,0,0,0.267301,-0.3120837,13.41808)">
      <path
         class="base-shadow"
         d="m 8,62.9 c -2.5,9.4 15.4,11.1 24.3,14.7 2.2,1 1.2,-3.2 0.1,-4.2 C 25.2,69.8 10.2,69 8,62.9 Z m 111.6,1 c -2.7,8.9 -25,13.1 -33,17.8 -2.1,1.2 -3.2,6.3 0.4,4.3 9.6,-5.3 35.8,-10.7 32.6,-22.1 z M 44.3,75.7 C 41,75.7 39,77.3 44.9,79.4 52.6,80 63.7,83 66,84 69.8,77.5 45,75.7 44.3,75.7 Z m -21.1,8.5 c -1.4,-1.2 -2.9,1 -0.9,2.8 3.5,3.8 22.6,7.9 26.3,11.5 1.8,0.9 1.2,-2.5 0.1,-3.6 C 45.3,91.5 28.2,87.6 23.2,84.2 Z m 78.5,9.7 c 0.2,3.5 15.8,7.6 15.2,0.1 -0.2,-2.6 -15.4,-2.7 -15.2,-0.1 z m -6.1,-0.2 c -3.4,7.1 -11.3,2.5 -19.8,11.1 -2.3,1.7 -1.3,6.2 1,3.8 8.7,-8.2 16.4,-3.7 19.4,-12.6 0.2,-1 0,-1.6 -0.6,-2.3 z M 31.5,106 c 4.5,5 9.8,1.8 11.5,-5.7 -0.4,-1.7 -16.8,0.1 -11.5,5.7 z m 67.2,-5.8 c -5.4,4.4 3.3,9.4 6,5.8 3.6,-4.7 -3.4,-3.4 -6,-5.8 z M 43.5,105 c -0.9,1.2 -0.8,3 0.3,4.2 3.6,3.6 12,0.1 13.5,8.6 1.1,6.1 15.2,3.5 22,-1.4 1.5,-1.6 1.6,-5.4 -0.3,-4.4 -29.8,13.4 -10.8,-3.8 -35.5,-7 z"
         id="path30"
         inkscape:connector-curvature="0"
         style="opacity:1;fill:#000000;filter:url(#ShadowBlur)" />
      <path
         class="outline-big"
         id="use32"
         style="opacity:0.1;fill:none;stroke:none"
         width="128"
         height="128"
         x="0"
         y="0"
         d="M 54.1,12.5 12.9,54.7 C -2.7,70.3 23,69 32.3,74.9 36.6,77.7 18.5,81.3 22.2,85 25.8,88.7 43.9,92.1 47.5,95.7 51.1,99.4 40.2,103.3 43.8,107 47.3,110.7 55.7,107.2 57.2,115.6 58.3,121.8 72.6,118.7 79,113.4 83,110 72.1,110 75.7,106.3 84.7,97.2 92.7,102.2 96,93.8 97.8,89.3 82.4,86.1 86.5,83.2 96.3,76.3 132.3,72.8 115.7,56.2 L 73,12.5 C 67.7,7.5 59,7.5 54.1,12.5 Z M 44.2,77.2 C 45.1,77.2 75,81.2 63.5,84.3 59.1,85.5 38.9,77.2 44.2,77.2 Z M 101.4,93.8 C 101.4,95.9 117.7,97.1 116.8,93.3 115.5,86.9 103.2,87.4 101.4,93.8 Z M 31.9,104.9 C 35.6,108.1 41.2,104.2 43,99.7 39.4,95 26.1,100 31.9,104.9 Z M 99.4,98.2 C 94.8,102.4 100.2,106.8 104.7,103.9 105.9,103.1 104.6,99.2 99.4,98.2 Z"
         inkscape:connector-curvature="0" />
      <path
         class="outline-small"
         id="use34"
         style="opacity:0.2;fill:none;stroke:none"
         width="128"
         height="128"
         x="0"
         y="0"
         d="M 54.1,12.5 12.9,54.7 C -2.7,70.3 23,69 32.3,74.9 36.6,77.7 18.5,81.3 22.2,85 25.8,88.7 43.9,92.1 47.5,95.7 51.1,99.4 40.2,103.3 43.8,107 47.3,110.7 55.7,107.2 57.2,115.6 58.3,121.8 72.6,118.7 79,113.4 83,110 72.1,110 75.7,106.3 84.7,97.2 92.7,102.2 96,93.8 97.8,89.3 82.4,86.1 86.5,83.2 96.3,76.3 132.3,72.8 115.7,56.2 L 73,12.5 C 67.7,7.5 59,7.5 54.1,12.5 Z M 44.2,77.2 C 45.1,77.2 75,81.2 63.5,84.3 59.1,85.5 38.9,77.2 44.2,77.2 Z M 101.4,93.8 C 101.4,95.9 117.7,97.1 116.8,93.3 115.5,86.9 103.2,87.4 101.4,93.8 Z M 31.9,104.9 C 35.6,108.1 41.2,104.2 43,99.7 39.4,95 26.1,100 31.9,104.9 Z M 99.4,98.2 C 94.8,102.4 100.2,106.8 104.7,103.9 105.9,103.1 104.6,99.2 99.4,98.2 Z"
         inkscape:connector-curvature="0" />
      <path
         class="black"
         id="use36"
         width="128"
         height="128"
         x="0"
         y="0"
         d="M 54.1,12.5 12.9,54.7 C -2.7,70.3 23,69 32.3,74.9 36.6,77.7 18.5,81.3 22.2,85 25.8,88.7 43.9,92.1 47.5,95.7 51.1,99.4 40.2,103.3 43.8,107 47.3,110.7 55.7,107.2 57.2,115.6 58.3,121.8 72.6,118.7 79,113.4 83,110 72.1,110 75.7,106.3 84.7,97.2 92.7,102.2 96,93.8 97.8,89.3 82.4,86.1 86.5,83.2 96.3,76.3 132.3,72.8 115.7,56.2 L 73,12.5 C 67.7,7.5 59,7.5 54.1,12.5 Z M 44.2,77.2 C 45.1,77.2 75,81.2 63.5,84.3 59.1,85.5 38.9,77.2 44.2,77.2 Z M 101.4,93.8 C 101.4,95.9 117.7,97.1 116.8,93.3 115.5,86.9 103.2,87.4 101.4,93.8 Z M 31.9,104.9 C 35.6,108.1 41.2,104.2 43,99.7 39.4,95 26.1,100 31.9,104.9 Z M 99.4,98.2 C 94.8,102.4 100.2,106.8 104.7,103.9 105.9,103.1 104.6,99.2 99.4,98.2 Z"
         inkscape:connector-curvature="0" />
      <path
         class="stroke-highlight"
         id="use38"
         width="128"
         height="128"
         style="opacity:0.2;fill:none;stroke:none"
         x="0"
         y="0"
         d="M 54.1,12.5 12.9,54.7 C -2.7,70.3 23,69 32.3,74.9 36.6,77.7 18.5,81.3 22.2,85 25.8,88.7 43.9,92.1 47.5,95.7 51.1,99.4 40.2,103.3 43.8,107 47.3,110.7 55.7,107.2 57.2,115.6 58.3,121.8 72.6,118.7 79,113.4 83,110 72.1,110 75.7,106.3 84.7,97.2 92.7,102.2 96,93.8 97.8,89.3 82.4,86.1 86.5,83.2 96.3,76.3 132.3,72.8 115.7,56.2 L 73,12.5 C 67.7,7.5 59,7.5 54.1,12.5 Z M 44.2,77.2 C 45.1,77.2 75,81.2 63.5,84.3 59.1,85.5 38.9,77.2 44.2,77.2 Z M 101.4,93.8 C 101.4,95.9 117.7,97.1 116.8,93.3 115.5,86.9 103.2,87.4 101.4,93.8 Z M 31.9,104.9 C 35.6,108.1 41.2,104.2 43,99.7 39.4,95 26.1,100 31.9,104.9 Z M 99.4,98.2 C 94.8,102.4 100.2,106.8 104.7,103.9 105.9,103.1 104.6,99.2 99.4,98.2 Z"
         inkscape:connector-curvature="0" />
      <path
         class="specularity"
         id="use40"
         style="opacity:0.5;fill:url(#linearGradient3731)"
         width="128"
         height="128"
         x="0"
         y="0"
         d="M 54.1,12.5 12.9,54.7 C -2.7,70.3 23,69 32.3,74.9 36.6,77.7 18.5,81.3 22.2,85 25.8,88.7 43.9,92.1 47.5,95.7 51.1,99.4 40.2,103.3 43.8,107 47.3,110.7 55.7,107.2 57.2,115.6 58.3,121.8 72.6,118.7 79,113.4 83,110 72.1,110 75.7,106.3 84.7,97.2 92.7,102.2 96,93.8 97.8,89.3 82.4,86.1 86.5,83.2 96.3,76.3 132.3,72.8 115.7,56.2 L 73,12.5 C 67.7,7.5 59,7.5 54.1,12.5 Z M 44.2,77.2 C 45.1,77.2 75,81.2 63.5,84.3 59.1,85.5 38.9,77.2 44.2,77.2 Z M 101.4,93.8 C 101.4,95.9 117.7,97.1 116.8,93.3 115.5,86.9 103.2,87.4 101.4,93.8 Z M 31.9,104.9 C 35.6,108.1 41.2,104.2 43,99.7 39.4,95 26.1,100 31.9,104.9 Z M 99.4,98.2 C 94.8,102.4 100.2,106.8 104.7,103.9 105.9,103.1 104.6,99.2 99.4,98.2 Z"
         inkscape:connector-curvature="0" />
      <path
         class="low-specularity"
         id="use42"
         width="128"
         height="128"
         style="opacity:0.25;fill:url(#linearGradient3733);fill-opacity:1"
         x="0"
         y="0"
         d="M 54.1,12.5 12.9,54.7 C -2.7,70.3 23,69 32.3,74.9 36.6,77.7 18.5,81.3 22.2,85 25.8,88.7 43.9,92.1 47.5,95.7 51.1,99.4 40.2,103.3 43.8,107 47.3,110.7 55.7,107.2 57.2,115.6 58.3,121.8 72.6,118.7 79,113.4 83,110 72.1,110 75.7,106.3 84.7,97.2 92.7,102.2 96,93.8 97.8,89.3 82.4,86.1 86.5,83.2 96.3,76.3 132.3,72.8 115.7,56.2 L 73,12.5 C 67.7,7.5 59,7.5 54.1,12.5 Z M 44.2,77.2 C 45.1,77.2 75,81.2 63.5,84.3 59.1,85.5 38.9,77.2 44.2,77.2 Z M 101.4,93.8 C 101.4,95.9 117.7,97.1 116.8,93.3 115.5,86.9 103.2,87.4 101.4,93.8 Z M 31.9,104.9 C 35.6,108.1 41.2,104.2 43,99.7 39.4,95 26.1,100 31.9,104.9 Z M 99.4,98.2 C 94.8,102.4 100.2,106.8 104.7,103.9 105.9,103.1 104.6,99.2 99.4,98.2 Z"
         inkscape:connector-curvature="0" />
      <path
         class="specularity"
         d="m 16.8,56.9 c -11.1,11 8.4,7.9 23.4,13.8 l 31,-54.5 c -4.7,-4.8 -10.7,-4.4 -15,0 z"
         id="path44"
         inkscape:connector-curvature="0"
         style="opacity:0.5;fill:url(#linearGradient3735)" />
      <path
         class="shade"
         d="m 8.9,61.7 c -2.6,9.4 13.4,9.2 22.3,12.7 1.5,-0.9 2.3,-2 1.2,-3 C 25.2,67.8 11,67.8 8.9,61.7 Z m 111.1,1 c -2.7,8.9 -25.5,12.3 -33.4,17 -1.1,1.1 -0.4,2.1 0.9,3.1 9.8,-4.9 35.7,-8.7 32.5,-20.1 z m -75.7,11 c -3.2,0 -5.2,1.6 0.6,3.7 7.7,0.6 18.8,3.7 21.2,4.7 3.7,-6.6 -21,-8.4 -21.8,-8.4 z m -21.1,8.5 c -1.3,0.9 -2,1.9 -0.9,2.9 3.5,3.7 21.5,7.1 25.2,10.7 0.9,-1.2 1.2,-2.4 0.1,-3.6 -3.4,-3.4 -19.4,-6.6 -24.4,-10 z m 79.8,9.1 c -0.7,0.8 -1.3,1.7 -1.5,2.7 0,2.1 15.4,3.4 15.4,-0.6 -0.3,-0.7 -0.6,-1.4 -1.2,-2.1 -2.8,1.6 -9.7,1.2 -12.7,0 z m -7.4,0.4 c -3.4,7.1 -11.3,2.5 -19.8,11.1 -1.4,1.5 -0.6,2.3 0.7,3 8.7,-8.2 16.7,-2.9 19.7,-11.8 0.2,-0.9 0,-1.6 -0.6,-2.3 z m -54,7 c -2.4,3.2 -6.6,5.3 -9.6,2.7 -0.3,-0.2 -0.5,-0.5 -0.7,-0.8 -1.1,1.4 -1.1,2.9 0.7,4.5 3.6,3.1 9.3,-0.8 11,-5.2 -0.3,-0.5 -0.9,-0.9 -1.4,-1.2 z m 56.7,1 c -2.3,3.7 2.3,6.7 6.4,4.4 0.6,-0.7 0.5,-2.1 -0.6,-3.5 -2.4,1.2 -4.7,0.5 -5.8,-0.9 z m -54.4,3.9 c -0.9,1.1 -1.2,2.4 -0.1,3.6 3.6,3.6 12,0.1 13.5,8.6 1.1,6.1 14.7,2.9 21.5,-2 1.5,-1.64 0.8,-2.7 -0.5,-3.5 -7.1,4.8 -20,7.7 -21,1.9 -1.5,-8.5 -9.8,-5.1 -13.4,-8.6 z"
         id="path46"
         inkscape:connector-curvature="0"
         style="fill:url(#linearGradient3737)" />
      <path
         class="full-specularity"
         d="m 70.5,15.5 16.3,16.6 c 1.5,1.5 1.5,4.6 0.6,5.5 L 79.3,31 77.7,40.7 71,37.1 60.1,44 56.5,29.5 50.7,42.1 36.2,42 c -2.8,0 -2.4,-2.9 0.5,-5.8 5.7,-6.3 16.8,-17 20.3,-20.7 3.6,-3.7 9.9,-3.6 13.5,0 z"
         id="icecap"
         inkscape:connector-curvature="0"
         style="opacity:1;fill:url(#linearGradient3739)" />
    </g>
  </g>
</svg>
