<?xml version="1.0" encoding="UTF-8" standalone="no"?>
<svg
   xmlns:dc="http://purl.org/dc/elements/1.1/"
   xmlns:cc="http://creativecommons.org/ns#"
   xmlns:rdf="http://www.w3.org/1999/02/22-rdf-syntax-ns#"
   xmlns:svg="http://www.w3.org/2000/svg"
   xmlns="http://www.w3.org/2000/svg"
   xmlns:sodipodi="http://sodipodi.sourceforge.net/DTD/sodipodi-0.dtd"
   xmlns:inkscape="http://www.inkscape.org/namespaces/inkscape"
   id="svg1"
   width="12.264631"
   height="12.390329"
   version="1.1"
   sodipodi:docname="object-tweak-duplicate.svg"
   viewBox="0 0 12.264631 12.390329">
  <metadata
     id="metadata28">
    <rdf:RDF>
      <cc:Work
         rdf:about="">
        <dc:format>image/svg+xml</dc:format>
        <dc:type
           rdf:resource="http://purl.org/dc/dcmitype/StillImage" />
      </cc:Work>
    </rdf:RDF>
  </metadata>
  <sodipodi:namedview
     pagecolor="#ffffff"
     bordercolor="#666666"
     borderopacity="1"
     objecttolerance="10"
     gridtolerance="10"
     guidetolerance="10"
     inkscape:pageopacity="0"
     inkscape:pageshadow="2"
     inkscape:window-width="640"
     inkscape:window-height="480"
     id="namedview26"
     showgrid="false" />
  <defs
     id="defs3" />
  <g
     id="tweak_moreless_mode"
     transform="translate(-1605.8991,-275.33609)">
    <path
       d="m 1609.5,275.5 c -10e-4,0.0316 0,0.0619 0,0.0937 0,1.4492 1.176,2.625 2.625,2.625 1.449,0 2.625,-1.1758 2.625,-2.625 0,-0.0315 10e-4,-0.0624 0,-0.0937 z"
       id="path14354"
       inkscape:connector-curvature="0"
       style="display:inline;visibility:visible;fill:#729fcf;fill-opacity:1;fill-rule:nonzero;stroke:#ffffff;stroke-width:0.32743299;marker:none" />
    <circle
       cx="375.09409"
       cy="137.9821"
       id="path14356"
       inkscape:tile-x0="373.9822"
       inkscape:tile-y0="136.8702"
       r="1.111868"
       style="display:inline;visibility:visible;fill:#3465a4;fill-opacity:1;fill-rule:nonzero;stroke:#ffffff;stroke-width:0.138679;marker:none"
       transform="matrix(2.176368,0,0,2.176368,795.7684,-18.64623)" />
    <path
       d="m 1612.125,285.0937 c -1.397,0 -2.542,1.0925 -2.625,2.4688 h 5.219 c -0.083,-1.3763 -1.197,-2.4688 -2.594,-2.4688 z"
       id="path14358"
       inkscape:connector-curvature="0"
       style="display:inline;visibility:visible;fill:#729fcf;fill-opacity:1;fill-rule:nonzero;stroke:#ffffff;stroke-width:0.32782969;marker:none" />
    <path
       d="m 1618,279.0625 c -1.375,0.0829 -2.469,1.1984 -2.469,2.5937 0,1.3954 1.094,2.5109 2.469,2.5938 z"
       id="path14360"
       inkscape:connector-curvature="0"
       style="display:inline;visibility:visible;fill:#729fcf;fill-opacity:1;fill-rule:nonzero;stroke:#ffffff;stroke-width:0.32743299;marker:none" />
    <path
       d="m 1606.063,279.0312 v 5.25 c 1.45,0 2.625,-1.1741 2.625,-2.625 0,-1.4508 -1.175,-2.625 -2.625,-2.625 z"
       id="path14362"
       inkscape:connector-curvature="0"
       style="display:inline;visibility:visible;fill:#729fcf;fill-opacity:1;fill-rule:nonzero;stroke:#ffffff;stroke-width:0.32782969;marker:none" />
    <path
       d="m 1615.531,275.5 c -10e-4,0.0313 0,0.0622 0,0.0937 0,1.3954 1.094,2.511 2.469,2.5938 V 275.5 Z"
       id="path14364"
       inkscape:connector-curvature="0"
       style="display:inline;visibility:visible;fill:#729fcf;fill-opacity:1;fill-rule:nonzero;stroke:#ffffff;stroke-width:0.32743299;marker:none" />
    <path
       d="m 1606.063,275.5 v 2.7187 c 1.45,0 2.625,-1.1741 2.625,-2.625 0,-0.0315 10e-4,-0.0624 0,-0.0937 z"
       id="path14366"
       inkscape:connector-curvature="0"
       style="display:inline;visibility:visible;fill:#729fcf;fill-opacity:1;fill-rule:nonzero;stroke:#ffffff;stroke-width:0.32782969;marker:none" />
    <path
       d="m 1618,285.125 c -1.318,0.0817 -2.358,1.1171 -2.437,2.4375 H 1618 Z"
       id="path14368"
       inkscape:connector-curvature="0"
       style="display:inline;visibility:visible;fill:#729fcf;fill-opacity:1;fill-rule:nonzero;stroke:#ffffff;stroke-width:0.32743299;marker:none" />
    <path
       d="m 1606.063,285.0937 v 2.4688 h 2.593 c -0.083,-1.3763 -1.196,-2.4688 -2.593,-2.4688 z"
       id="path14370"
       inkscape:connector-curvature="0"
       style="display:inline;visibility:visible;fill:#729fcf;fill-opacity:1;fill-rule:nonzero;stroke:#ffffff;stroke-width:0.32782969;marker:none" />
    <circle
       cx="375.09409"
       cy="137.9821"
       id="path14372"
       inkscape:tile-x0="373.9822"
       inkscape:tile-y0="136.8702"
       r="1.111868"
       style="display:inline;visibility:visible;fill:#204a87;fill-opacity:1;fill-rule:nonzero;stroke:#ffffff;stroke-width:0.138679;marker:none"
       transform="matrix(2.176368,0,0,2.176368,796.3676,-18.17013)" />
    <circle
       cx="375.09409"
       cy="137.9821"
       id="path14374"
       inkscape:tile-x0="373.9822"
       inkscape:tile-y0="136.8702"
       r="1.111868"
       style="display:inline;visibility:visible;fill:#204a87;fill-opacity:1;fill-rule:nonzero;stroke:#ffffff;stroke-width:0.138679;marker:none"
       transform="matrix(2.176368,0,0,2.176368,796.9816,-17.61753)" />
  </g>
</svg>
