<?xml version="1.0" encoding="UTF-8" standalone="no"?>
<svg
   xmlns:dc="http://purl.org/dc/elements/1.1/"
   xmlns:cc="http://creativecommons.org/ns#"
   xmlns:rdf="http://www.w3.org/1999/02/22-rdf-syntax-ns#"
   xmlns:svg="http://www.w3.org/2000/svg"
   xmlns="http://www.w3.org/2000/svg"
   xmlns:xlink="http://www.w3.org/1999/xlink"
   xmlns:sodipodi="http://sodipodi.sourceforge.net/DTD/sodipodi-0.dtd"
   xmlns:inkscape="http://www.inkscape.org/namespaces/inkscape"
   id="svg1"
   width="22.0002"
   height="22.000191"
   version="1.1"
   sodipodi:docname="paint-unknown.svg"
   viewBox="0 0 22.0002 22.000191">
  <metadata
     id="metadata25">
    <rdf:RDF>
      <cc:Work
         rdf:about="">
        <dc:format>image/svg+xml</dc:format>
        <dc:type
           rdf:resource="http://purl.org/dc/dcmitype/StillImage" />
      </cc:Work>
    </rdf:RDF>
  </metadata>
  <sodipodi:namedview
     pagecolor="#ffffff"
     bordercolor="#666666"
     borderopacity="1"
     objecttolerance="10"
     gridtolerance="10"
     guidetolerance="10"
     inkscape:pageopacity="0"
     inkscape:pageshadow="2"
     inkscape:window-width="640"
     inkscape:window-height="480"
     id="namedview23"
     showgrid="false" />
  <defs
     id="defs3">
    <linearGradient
       id="linearGradient9117"
       inkscape:collect="always">
      <stop
         id="stop9119"
         offset="0"
         style="stop-color:white;stop-opacity:1;" />
      <stop
         id="stop9121"
         offset="1"
         style="stop-color:white;stop-opacity:0;" />
    </linearGradient>
    <linearGradient
       gradientTransform="translate(-0.9996,0.999997)"
       gradientUnits="userSpaceOnUse"
       id="linearGradient19919"
       inkscape:collect="always"
       x1="932.37518"
       x2="930.88928"
       xlink:href="#linearGradient9117"
       y1="19.796499"
       y2="25.341721" />
  </defs>
  <g
     id="fill_unset"
     inkscape:transform-center-x="-1.325825"
     inkscape:transform-center-y="1.149048"
     style="display:inline"
     transform="translate(-917.89137,-19.216202)">
    <g
       id="g19767"
       style="fill:#000000;fill-opacity:0"
       transform="matrix(0.880008,0,0,0.880008,392.6367,5.466042)">
      <rect
         height="24.99999"
         id="rect19769"
         style="fill:#000000;fill-opacity:0;fill-rule:evenodd;stroke-width:0.0520834"
         width="25"
         x="596.87488"
         y="15.62504" />
    </g>
    <path
       d="m 929.3619,21.21639 c 1.6431,2e-5 3.0998,0.39781 4.3702,1.19337 1.4398,0.91162 2.1597,2.13814 2.1597,3.67956 0,1.29283 -0.4404,2.31216 -1.3212,3.05801 l -2.4138,1.46685 c -0.7961,0.51382 -1.1942,1.23481 -1.1942,2.16298 h -4.5989 v -0.64641 c 0,-1.37568 0.3727,-2.41988 1.118,-3.13259 0.2032,-0.19889 0.8893,-0.60497 2.0581,-1.21824 0.7452,-0.34805 1.1179,-0.82871 1.1179,-1.44199 0,-0.43092 -0.1778,-0.77899 -0.5336,-1.04419 -0.3387,-0.26518 -0.7453,-0.39778 -1.2196,-0.39779 -0.5251,10e-6 -0.957,0.15747 -1.2958,0.47237 -0.3388,0.29836 -0.5082,0.71272 -0.5082,1.2431 l 0.0255,0.37292 h -5.2342 c 0,-0.99446 0.2033,-1.85634 0.6098,-2.58563 0.3896,-0.74584 0.974,-1.37568 1.7532,-1.8895 1.2874,-0.86187 2.9897,-1.2928 5.1071,-1.29282 m -3.2777,13.25138 h 5.1833 v 4.74862 h -5.1833 v -4.74862"
       id="path19771"
       inkscape:connector-curvature="0"
       style="font-style:normal;font-variant:normal;font-weight:normal;font-stretch:normal;font-size:24px;line-height:100%;font-family:Hegel-Black;writing-mode:lr-tb;text-anchor:start;fill:#2e3436;fill-opacity:1;stroke:none;stroke-width:1px;stroke-linecap:butt;stroke-linejoin:miter;stroke-opacity:1" />
    <path
       d="m 929.2607,22.71639 c 1.291,2e-5 2.4356,0.33151 3.4338,0.99447 1.1313,0.75969 1.6969,1.78179 1.6969,3.0663 0,1.07736 -0.346,1.9268 -1.0381,2.54834 l -1.8966,1.22238 c -0.6255,0.42818 -0.9383,1.02901 -0.9383,1.80248 h -3.6135 v -0.53867 c 0,-1.1464 0.2928,-2.01657 0.8785,-2.6105 0.1596,-0.16573 0.6987,-0.50413 1.617,-1.01519 0.5856,-0.29004 0.8785,-0.6906 0.8785,-1.20166 0,-0.3591 -0.1398,-0.64916 -0.4193,-0.87016 -0.2662,-0.22098 -0.5856,-0.33148 -0.9583,-0.33149 -0.4126,10e-6 -0.7519,0.13122 -1.0181,0.39364 -0.2662,0.24863 -0.3993,0.59394 -0.3993,1.03591 l 0.02,0.31078 h -4.1126 c 0,-0.82872 0.1597,-1.54695 0.4791,-2.1547 0.3061,-0.62153 0.7653,-1.14639 1.3775,-1.57458 1.0115,-0.71822 2.3491,-1.07733 4.0128,-1.07735 m -2.5754,11.04281 h 4.0727 v 3.95718 h -4.0727 V 33.7592"
       id="path19773"
       inkscape:connector-curvature="0"
       style="font-style:normal;font-variant:normal;font-weight:normal;font-stretch:normal;font-size:24px;line-height:100%;font-family:Hegel-Black;writing-mode:lr-tb;text-anchor:start;fill:none;fill-opacity:1;stroke:url(#linearGradient19919);stroke-width:0.9999997px;stroke-linecap:butt;stroke-linejoin:miter;stroke-opacity:1" />
  </g>
</svg>
