<?xml version="1.0" encoding="UTF-8" standalone="no"?>
<svg
   xmlns:dc="http://purl.org/dc/elements/1.1/"
   xmlns:cc="http://creativecommons.org/ns#"
   xmlns:rdf="http://www.w3.org/1999/02/22-rdf-syntax-ns#"
   xmlns:svg="http://www.w3.org/2000/svg"
   xmlns="http://www.w3.org/2000/svg"
   xmlns:sodipodi="http://sodipodi.sourceforge.net/DTD/sodipodi-0.dtd"
   xmlns:inkscape="http://www.inkscape.org/namespaces/inkscape"
   id="svg1"
   width="16.000021"
   height="15.99997"
   version="1.1"
   sodipodi:docname="path-cut.svg"
   viewBox="0 0 16.000021 15.99997">
  <metadata
     id="metadata20">
    <rdf:RDF>
      <cc:Work
         rdf:about="">
        <dc:format>image/svg+xml</dc:format>
        <dc:type
           rdf:resource="http://purl.org/dc/dcmitype/StillImage" />
      </cc:Work>
    </rdf:RDF>
  </metadata>
  <sodipodi:namedview
     pagecolor="#ffffff"
     bordercolor="#666666"
     borderopacity="1"
     objecttolerance="10"
     gridtolerance="10"
     guidetolerance="10"
     inkscape:pageopacity="0"
     inkscape:pageshadow="2"
     inkscape:window-width="640"
     inkscape:window-height="480"
     id="namedview18"
     showgrid="false" />
  <defs
     id="defs3" />
  <g
     id="cut_path"
     transform="translate(-624,-320.00003)">
    <rect
       height="8"
       id="rect10852"
       style="display:inline;overflow:visible;visibility:visible;opacity:1;fill:none;fill-opacity:1;fill-rule:evenodd;stroke:#ffffff;stroke-width:0.99999988;stroke-linecap:butt;stroke-linejoin:round;stroke-miterlimit:0;stroke-dasharray:none;stroke-dashoffset:0;stroke-opacity:0.34705882;marker:none;marker-start:none;marker-mid:none;marker-end:none;enable-background:accumulate"
       width="8"
       x="625.5"
       y="326.5" />
    <path
       d="m 632.3581,320.2298 c -0.5448,0.1539 -1.046,0.357 -1.5122,0.6458 l 0.6468,0.8068 c 0.3211,-0.1829 0.6542,-0.3208 1.0196,-0.4323 z m 1.5055,-0.2274 0.1542,1.0203 c 0.3821,-10e-4 0.741,0.0319 1.1018,0.1119 l 0.3797,-0.9618 c -0.5308,-0.1383 -1.0697,-0.1843 -1.6357,-0.1704 z m -4.1655,1.8467 c -0.3771,0.3909 -0.7386,0.7865 -0.9989,1.2641 l 0.9667,0.3758 c 0.1853,-0.3099 0.3915,-0.5976 0.6397,-0.862 z m 7.1854,-1.0853 -0.3505,0.9226 c 0.3152,0.1793 0.5972,0.3932 0.8658,0.6346 l 0.8125,-0.6446 c -0.3898,-0.3794 -0.8521,-0.6506 -1.3278,-0.9126 z m -8.7024,3.7844 c -0.1296,0.5143 -0.1926,1.0425 -0.1794,1.5925 l 0.9581,-0.1447 c 0.002,-0.3758 0.0305,-0.7389 0.1144,-1.0957 z m 10.9492,-1.6539 -0.7493,0.6002 c 0.1856,0.3161 0.3204,0.6546 0.4331,1.013 l 0.958,-0.1447 c -0.1498,-0.5293 -0.3662,-1.0153 -0.6418,-1.4685 z m -10.9024,4.7429 c 0.1498,0.5293 0.3662,1.0153 0.6418,1.4685 l 0.7493,-0.6002 c -0.1856,-0.3162 -0.3204,-0.6546 -0.4331,-1.013 z m 10.8123,-1.6332 c -0.002,0.3758 -0.0305,0.7389 -0.1144,1.0957 l 0.8931,0.3521 c 0.1296,-0.5143 0.1926,-1.0425 0.1794,-1.5925 z m -8.4389,3.675 -0.8126,0.6446 c 0.3898,0.3794 0.8521,0.6506 1.3278,0.9126 l 0.3506,-0.9226 c -0.3153,-0.1793 -0.5973,-0.3933 -0.8658,-0.6346 z m 7.7328,-1.168 c -0.1853,0.3099 -0.3915,0.5976 -0.6397,0.862 l 0.6075,0.7779 c 0.3772,-0.3909 0.7386,-0.7865 0.9989,-1.2641 z m -5.4537,2.3544 -0.3797,0.9618 c 0.5308,0.1383 1.0697,0.1843 1.6357,0.1704 l -0.1542,-1.0203 c -0.3821,10e-4 -0.7411,-0.0319 -1.1018,-0.1119 z m 3.6269,-0.5478 c -0.3211,0.1829 -0.6542,0.3207 -1.0196,0.4323 l 0.1542,1.0204 c 0.5448,-0.154 1.046,-0.3571 1.5122,-0.6459 z"
       id="path10841"
       inkscape:connector-curvature="0"
       style="display:inline;overflow:visible;visibility:visible;fill:#ef2929;fill-opacity:1;fill-rule:evenodd;stroke:none;stroke-width:1.12409961;stroke-linecap:butt;stroke-linejoin:round;stroke-miterlimit:0;stroke-dasharray:none;stroke-dashoffset:0;stroke-opacity:1;marker:none;enable-background:accumulate" />
    <path
       d="M 627.0254,325.5 H 624.5 v 10 h 10 v -2.5158 M 630.0303,325.5 H 634.5 v 4.5139"
       id="path18081"
       inkscape:connector-curvature="0"
       sodipodi:nodetypes="cccccccc"
       style="display:inline;fill:none;fill-opacity:1;fill-rule:evenodd;stroke:#204a87;stroke-width:0.99999988;stroke-linecap:butt;stroke-linejoin:round;stroke-miterlimit:0;stroke-dasharray:none;stroke-dashoffset:0;stroke-opacity:1;marker:none;marker-start:none;marker-mid:none;marker-end:none" />
  </g>
</svg>
