<?xml version="1.0" encoding="UTF-8" standalone="no"?>
<svg
   xmlns:dc="http://purl.org/dc/elements/1.1/"
   xmlns:cc="http://creativecommons.org/ns#"
   xmlns:rdf="http://www.w3.org/1999/02/22-rdf-syntax-ns#"
   xmlns:svg="http://www.w3.org/2000/svg"
   xmlns="http://www.w3.org/2000/svg"
   xmlns:sodipodi="http://sodipodi.sourceforge.net/DTD/sodipodi-0.dtd"
   xmlns:inkscape="http://www.inkscape.org/namespaces/inkscape"
   id="svg1"
   width="16"
   height="16"
   version="1.1"
   sodipodi:docname="path-tweak-attract.svg"
   viewBox="0 0 16 16">
  <metadata
     id="metadata22">
    <rdf:RDF>
      <cc:Work
         rdf:about="">
        <dc:format>image/svg+xml</dc:format>
        <dc:type
           rdf:resource="http://purl.org/dc/dcmitype/StillImage" />
      </cc:Work>
    </rdf:RDF>
  </metadata>
  <sodipodi:namedview
     pagecolor="#ffffff"
     bordercolor="#666666"
     borderopacity="1"
     objecttolerance="10"
     gridtolerance="10"
     guidetolerance="10"
     inkscape:pageopacity="0"
     inkscape:pageshadow="2"
     inkscape:window-width="640"
     inkscape:window-height="480"
     id="namedview20"
     showgrid="false" />
  <defs
     id="defs3" />
  <g
     id="tweak_attract_mode"
     transform="translate(-1344,-272)">
    <rect
       height="16"
       id="rect9564"
       style="display:inline;fill:none;fill-opacity:0.16788318;fill-rule:evenodd;stroke:none;stroke-width:1;stroke-linecap:round;stroke-linejoin:round;stroke-miterlimit:0;stroke-dasharray:none;stroke-dashoffset:0;stroke-opacity:1;marker:none;marker-start:none;marker-mid:none;marker-end:none"
       width="16"
       x="1344"
       y="272" />
    <path
       d="m 1344.307,282.7078 c 3.327,0.0293 2.782,-2.5458 7.742,-2.5134 4.961,0.0323 3.438,2.5872 7.644,2.5134 v 2.9852 c -3.785,0 -4.587,-3.9321 -7.65,-3.9349 -3.403,-0.003 -4.04,3.9349 -7.736,3.9349 z"
       id="path9566"
       inkscape:connector-curvature="0"
       sodipodi:nodetypes="czccscc"
       style="display:inline;overflow:visible;visibility:visible;fill:#729fcf;fill-opacity:1;fill-rule:nonzero;stroke:none;stroke-width:1;stroke-linecap:butt;stroke-linejoin:miter;stroke-miterlimit:4;stroke-dasharray:none;stroke-dashoffset:0;stroke-opacity:1;marker:none;marker-start:none;marker-mid:none;marker-end:none;enable-background:accumulate" />
    <path
       d="m 1344.307,276.2922 c 3.327,-0.0293 2.782,2.5458 7.742,2.5134 4.961,-0.0324 3.438,-2.5872 7.644,-2.5134 v -2.9852 c -3.785,0 -4.587,3.6398 -7.65,3.6425 -3.403,0.003 -4.04,-3.6425 -7.736,-3.6425 z"
       id="path9570"
       inkscape:connector-curvature="0"
       sodipodi:nodetypes="czccscc"
       style="display:inline;overflow:visible;visibility:visible;fill:#729fcf;fill-opacity:1;fill-rule:nonzero;stroke:none;stroke-width:1;stroke-linecap:butt;stroke-linejoin:miter;stroke-miterlimit:4;stroke-dasharray:none;stroke-dashoffset:0;stroke-opacity:1;marker:none;marker-start:none;marker-mid:none;marker-end:none;enable-background:accumulate" />
    <path
       d="m 1359.693,285.693 c -3.785,0 -4.587,-3.8737 -7.65,-3.8764 -3.403,-0.003 -4.04,3.8764 -7.736,3.8764 m 0,-2.9852 c 3.327,0.0293 2.782,-2.5458 7.742,-2.5134 4.961,0.0323 3.438,2.5872 7.644,2.5134 m 0,-9.4008 c -3.785,0 -4.587,3.7567 -7.65,3.7595 -3.403,0.003 -4.04,-3.7595 -7.736,-3.7595 m 0,2.9852 c 3.327,-0.0293 2.782,2.5458 7.742,2.5134 4.961,-0.0323 3.438,-2.5872 7.644,-2.5134"
       id="path9568"
       inkscape:connector-curvature="0"
       style="display:inline;overflow:visible;visibility:visible;fill:none;fill-opacity:1;fill-rule:nonzero;stroke:#204a87;stroke-width:0.61400002;stroke-linecap:round;stroke-linejoin:miter;stroke-miterlimit:4;stroke-dasharray:none;stroke-dashoffset:0;stroke-opacity:1;marker:none;marker-start:none;marker-mid:none;marker-end:none;enable-background:accumulate" />
    <path
       d="m 1359.693,284.693 c -3.785,0 -4.587,-3.8737 -7.65,-3.8764 -3.403,-0.003 -4.04,3.8764 -7.736,3.8764 m 0,-0.9852 c 3.327,0.0293 2.782,-2.5458 7.742,-2.5134 4.961,0.0323 3.438,2.5872 7.644,2.5134 m 0,-9.4008 c -3.785,0 -4.587,3.7567 -7.65,3.7595 -3.403,0.003 -4.04,-3.7595 -7.736,-3.7595 m 0,0.9852 c 3.327,-0.0293 2.782,2.5458 7.742,2.5134 4.961,-0.0323 3.438,-2.5872 7.644,-2.5134"
       id="path12576"
       inkscape:connector-curvature="0"
       sodipodi:nodetypes="csccsccsccsc"
       style="display:inline;overflow:visible;visibility:visible;fill:none;fill-opacity:1;fill-rule:nonzero;stroke:#ffffff;stroke-width:0.5;stroke-linecap:round;stroke-linejoin:miter;stroke-miterlimit:4;stroke-dasharray:none;stroke-dashoffset:0;stroke-opacity:0.50196078;marker:none;marker-start:none;marker-mid:none;marker-end:none;enable-background:accumulate" />
  </g>
</svg>
