<?xml version="1.0" encoding="UTF-8" standalone="no"?>
<svg
   xmlns:dc="http://purl.org/dc/elements/1.1/"
   xmlns:cc="http://creativecommons.org/ns#"
   xmlns:rdf="http://www.w3.org/1999/02/22-rdf-syntax-ns#"
   xmlns:svg="http://www.w3.org/2000/svg"
   xmlns="http://www.w3.org/2000/svg"
   xmlns:xlink="http://www.w3.org/1999/xlink"
   xmlns:sodipodi="http://sodipodi.sourceforge.net/DTD/sodipodi-0.dtd"
   xmlns:inkscape="http://www.inkscape.org/namespaces/inkscape"
   id="svg1"
   width="24"
   height="24"
   version="1.1"
   sodipodi:docname="tool-tweak.svg"
   viewBox="0 0 24 24">
  <metadata
     id="metadata41">
    <rdf:RDF>
      <cc:Work
         rdf:about="">
        <dc:format>image/svg+xml</dc:format>
        <dc:type
           rdf:resource="http://purl.org/dc/dcmitype/StillImage" />
      </cc:Work>
    </rdf:RDF>
  </metadata>
  <sodipodi:namedview
     pagecolor="#ffffff"
     bordercolor="#666666"
     borderopacity="1"
     objecttolerance="10"
     gridtolerance="10"
     guidetolerance="10"
     inkscape:pageopacity="0"
     inkscape:pageshadow="2"
     inkscape:window-width="640"
     inkscape:window-height="480"
     id="namedview39"
     showgrid="false" />
  <defs
     id="defs3">
    <linearGradient
       id="linearGradient12362"
       inkscape:collect="always">
      <stop
         id="stop12364"
         offset="0"
         style="stop-color:#ead7ce;stop-opacity:1;" />
      <stop
         id="stop12366"
         offset="1"
         style="stop-color:#ead7ce;stop-opacity:0;" />
    </linearGradient>
    <linearGradient
       gradientTransform="matrix(1.131257,0,0,1.140013,-156.2898,-36.82365)"
       gradientUnits="userSpaceOnUse"
       id="linearGradient12532"
       inkscape:collect="always"
       x1="1210.978"
       x2="1212.9139"
       xlink:href="#linearGradient12352"
       y1="256.69321"
       y2="253.56821" />
    <linearGradient
       id="linearGradient12352">
      <stop
         id="stop12354"
         offset="0"
         style="stop-color:#8a4a01;stop-opacity:1;" />
      <stop
         id="stop12356"
         offset="1"
         style="stop-color:#8f5902;stop-opacity:0;" />
    </linearGradient>
    <linearGradient
       gradientTransform="matrix(1.131257,0,0,1.140013,-156.2898,-36.82365)"
       gradientUnits="userSpaceOnUse"
       id="linearGradient12530"
       inkscape:collect="always"
       x1="1210.978"
       x2="1212.9139"
       xlink:href="#linearGradient12362"
       y1="256.69321"
       y2="253.56821" />
  </defs>
  <g
     id="draw_tweak"
     transform="translate(-1200,-248)">
    <path
       d="m 1222.999,263.6207 c 0.1,4.1032 -7.494,6.323 -12.006,6.323 -4.368,0 -10.134,0.754 -9.99,-3.2561 0.15,-4.191 2.917,-5.4075 6.817,-5.7468 3.951,-0.3438 15.179,-0.4033 15.179,2.6799 z"
       id="path12481"
       inkscape:connector-curvature="0"
       sodipodi:nodetypes="csssc"
       style="display:inline;overflow:visible;visibility:visible;opacity:1;fill:#000000;fill-opacity:0.04117653;fill-rule:evenodd;stroke:none;stroke-width:1;stroke-linecap:round;stroke-linejoin:round;stroke-miterlimit:4;stroke-dashoffset:0;stroke-opacity:1;marker:none;marker-start:none;marker-mid:none;marker-end:none;enable-background:accumulate" />
    <path
       d="m 1220.931,263.9687 c 0.084,3.4414 -6.279,5.3032 -10.059,5.3032 -3.659,0 -8.49,0.6324 -8.37,-2.7309 0.126,-3.5151 2.444,-4.5354 5.711,-4.8199 3.311,-0.2884 12.718,-0.3383 12.718,2.2476 z"
       id="path12483"
       inkscape:connector-curvature="0"
       sodipodi:nodetypes="csssc"
       style="display:inline;overflow:visible;visibility:visible;opacity:1;fill:#000000;fill-opacity:0.11176471;fill-rule:evenodd;stroke:none;stroke-width:1;stroke-linecap:round;stroke-linejoin:round;stroke-miterlimit:4;stroke-dashoffset:0;stroke-opacity:1;marker:none;marker-start:none;marker-mid:none;marker-end:none;enable-background:accumulate" />
    <path
       d="m 1219.443,264.4241 c 0,1.0457 -6.991,4.2341 -10.422,4.2341 -3.321,0 -5.729,-0.1485 -5.62,-2.497 0.114,-2.4545 2.218,-3.167 5.184,-3.3657 3.005,-0.2013 10.858,-0.1771 10.858,1.6286 z"
       id="path12370"
       inkscape:connector-curvature="0"
       sodipodi:nodetypes="csssc"
       style="display:inline;overflow:visible;visibility:visible;opacity:1;fill:#000000;fill-opacity:0.16470588;fill-rule:evenodd;stroke:none;stroke-width:1;stroke-linecap:round;stroke-linejoin:round;stroke-miterlimit:4;stroke-dashoffset:0;stroke-opacity:1;marker:none;marker-start:none;marker-mid:none;marker-end:none;enable-background:accumulate" />
    <path
       d="m 1219.999,254.2245 c -1.9,1.713 -2.799,2.3176 -3.299,3.6275 -0.5,1.3099 -0.1,3.9298 -0.1,4.5344 0,0.6045 -0.5,1.713 -1.2,2.4183 -0.7,0.7053 -1.3,2.4183 -3.1,2.4183 -1.8,0 -4,0.2016 -4.899,-0.403 -0.8,1.2092 -1.6,2.6198 -2.5,2.6198 -0.9,0 -2.046,0.1871 -2.1,-0.8564 -0.104,-2.0233 1.8,-1.3604 2.1,-2.9726 0.14,-0.7543 -1.6,-2.4183 -1.9,-4.1313 -0.3,-1.713 -0.271,-2.7084 0.429,-3.4138 0.7,-0.7053 2.517,-3.1827 3.417,-3.3842 0.9,-0.2015 2.265,-0.1792 3.265,-0.8845 1,-0.7054 2.288,-2.2931 2.288,-2.2931"
       id="path12305"
       inkscape:connector-curvature="0"
       sodipodi:nodetypes="csssscsssssssc"
       style="display:inline;overflow:visible;visibility:visible;opacity:1;fill:url(#linearGradient12530);fill-opacity:1;fill-rule:evenodd;stroke:url(#linearGradient12532);stroke-width:1;stroke-linecap:round;stroke-linejoin:round;stroke-miterlimit:4;stroke-dasharray:none;stroke-dashoffset:0;stroke-opacity:1;marker:none;marker-start:none;marker-mid:none;marker-end:none;enable-background:accumulate" />
    <path
       d="m 1219.354,253.9866 c -1.732,1.3538 -2.899,2.4582 -3.146,3.4201 -0.247,0.9619 0.071,5.13 -0.212,6.0207 -0.283,0.8906 -1.732,2.6719 -2.369,2.8856 -0.636,0.2138 -4.808,0.2138 -4.666,0.1425 0.141,-0.0712 2.333,-0.57 3.464,-1.3537 1.132,-0.7838 1.768,-1.0332 2.121,-3.1351 0.354,-2.1019 0.495,-3.135 0.248,-4.0613 -0.248,-0.9262 -0.142,-0.9619 -1.237,-2.1375 -1.096,-1.1756 -2.228,-1.5319 -2.016,-1.8882 0.213,-0.3562 0.177,0 1.309,0.7126 1.131,0.7125 1.838,1.3893 3.075,0.8193 1.237,-0.57 3.535,-1.4606 3.429,-1.425 z"
       id="path12327"
       inkscape:connector-curvature="0"
       style="display:inline;overflow:visible;visibility:visible;opacity:1;fill:#dabdac;fill-opacity:1;fill-rule:evenodd;stroke:none;stroke-width:1;stroke-linecap:round;stroke-linejoin:round;stroke-miterlimit:4;stroke-dasharray:none;stroke-dashoffset:0;stroke-opacity:1;marker:none;marker-start:none;marker-mid:none;marker-end:none;enable-background:accumulate" />
    <path
       d="m 1209.35,264.9949 c -0.919,0.0712 -1.344,0.4275 -1.344,0.4275 0,0 -0.141,0.9263 0.283,0.9975 0.424,0.0712 1.131,0 1.343,-0.3563 0.213,-0.3562 -0.282,-0.9975 -0.282,-1.0687 z"
       id="path12329"
       inkscape:connector-curvature="0"
       style="display:inline;overflow:visible;visibility:visible;opacity:1;fill:#ac6036;fill-opacity:1;fill-rule:evenodd;stroke:none;stroke-width:1;stroke-linecap:round;stroke-linejoin:round;stroke-miterlimit:4;stroke-dasharray:none;stroke-dashoffset:0;stroke-opacity:1;marker:none;marker-start:none;marker-mid:none;marker-end:none;enable-background:accumulate" />
    <ellipse
       cx="1187.74"
       cy="254.66161"
       id="path12333"
       rx="0.72920388"
       ry="0.6408155"
       style="display:inline;overflow:visible;visibility:visible;opacity:1;fill:#f6eeea;fill-opacity:1;fill-rule:evenodd;stroke:none;stroke-width:1;stroke-linecap:round;stroke-linejoin:round;stroke-miterlimit:4;stroke-dasharray:none;stroke-dashoffset:0;stroke-opacity:1;marker:none;marker-start:none;marker-mid:none;marker-end:none;enable-background:accumulate"
       transform="matrix(1.103811,-0.5561777,0.4186871,0.8438557,-210.2145,702.3399)" />
    <ellipse
       cx="1187.74"
       cy="254.66161"
       id="path12335"
       rx="0.72920388"
       ry="0.6408155"
       style="display:inline;overflow:visible;visibility:visible;opacity:1;fill:#f6eeea;fill-opacity:1;fill-rule:evenodd;stroke:none;stroke-width:1;stroke-linecap:round;stroke-linejoin:round;stroke-miterlimit:4;stroke-dasharray:none;stroke-dashoffset:0;stroke-opacity:1;marker:none;marker-start:none;marker-mid:none;marker-end:none;enable-background:accumulate"
       transform="matrix(1.103811,-0.5561777,0.4186871,0.8438557,-209.0833,703.4799)" />
    <ellipse
       cx="1187.74"
       cy="254.66161"
       id="path12338"
       rx="0.72920388"
       ry="0.6408155"
       style="display:inline;overflow:visible;visibility:visible;opacity:1;fill:#f6eeea;fill-opacity:1;fill-rule:evenodd;stroke:none;stroke-width:1;stroke-linecap:round;stroke-linejoin:round;stroke-miterlimit:4;stroke-dasharray:none;stroke-dashoffset:0;stroke-opacity:1;marker:none;marker-start:none;marker-mid:none;marker-end:none;enable-background:accumulate"
       transform="matrix(1.103811,-0.5561777,0.4186871,0.8438557,-207.952,704.6199)" />
    <path
       d="m 1209.3,260.2703 c -0.15,0.8565 -3.999,5.9451 -5.399,7.3054 -0.469,0.456 -0.087,1.5986 0.6,0.9069 1.45,-1.4611 4.249,-4.5848 5.799,-7.5069 0.316,-0.5961 -0.45,-1.1084 -1,-0.7054 z"
       id="path12340"
       inkscape:connector-curvature="0"
       sodipodi:nodetypes="csssc"
       style="display:inline;overflow:visible;visibility:visible;opacity:1;fill:#f6eeea;fill-opacity:1;fill-rule:evenodd;stroke:none;stroke-width:1;stroke-linecap:round;stroke-linejoin:round;stroke-miterlimit:4;stroke-dasharray:none;stroke-dashoffset:0;stroke-opacity:1;marker:none;marker-start:none;marker-mid:none;marker-end:none;enable-background:accumulate" />
    <path
       d="m 1205.251,265.2078 3.899,-5.0886 c 0,0 -0.1,-1.3099 -0.85,-0.5542 -0.749,0.7557 -2.299,2.2672 -2.449,2.8214 -0.15,0.5542 -0.55,2.8718 -0.6,2.8214 z"
       id="path12342"
       inkscape:connector-curvature="0"
       style="display:inline;overflow:visible;visibility:visible;opacity:1;fill:#b78469;fill-opacity:1;fill-rule:evenodd;stroke:none;stroke-width:1;stroke-linecap:round;stroke-linejoin:round;stroke-miterlimit:4;stroke-dasharray:none;stroke-dashoffset:0;stroke-opacity:1;marker:none;marker-start:none;marker-mid:none;marker-end:none;enable-background:accumulate" />
    <path
       d="m 1208.1,258.8597 c -1.049,0.9068 -2.349,2.0152 -2.799,2.7206 -0.45,0.7053 -1.1,2.3679 -1.1,2.3679 0,0 0.1,-2.6198 0.6,-3.2748 0.5,-0.655 2.05,-2.2168 2.5,-2.2168 0.45,0 0.849,0.4031 0.799,0.4031 z"
       id="path12344"
       inkscape:connector-curvature="0"
       style="display:inline;overflow:visible;visibility:visible;opacity:1;fill:#b78469;fill-opacity:1;fill-rule:evenodd;stroke:none;stroke-width:1;stroke-linecap:round;stroke-linejoin:round;stroke-miterlimit:4;stroke-dasharray:none;stroke-dashoffset:0;stroke-opacity:1;marker:none;marker-start:none;marker-mid:none;marker-end:none;enable-background:accumulate" />
    <path
       d="m 1207.328,257.2978 c -1.05,0.9069 -2.35,2.0153 -2.8,2.7206 -0.45,0.7054 -1.1,2.368 -1.1,2.368 0,0 0.1,-2.6199 0.6,-3.2748 0.5,-0.655 2.05,-2.2169 2.5,-2.2169 0.45,0 0.85,0.4031 0.8,0.4031 z"
       id="path12346"
       inkscape:connector-curvature="0"
       style="display:inline;overflow:visible;visibility:visible;opacity:1;fill:#b78469;fill-opacity:1;fill-rule:evenodd;stroke:none;stroke-width:1;stroke-linecap:round;stroke-linejoin:round;stroke-miterlimit:4;stroke-dasharray:none;stroke-dashoffset:0;stroke-opacity:1;marker:none;marker-start:none;marker-mid:none;marker-end:none;enable-background:accumulate" />
    <path
       d="m 1207.158,266.4912 c 0,0 3.959,-4.2038 4.383,-4.3463 0.425,-0.1425 1.556,-0.4275 1.556,0.4275 0,0.855 -0.212,1.8525 -0.919,1.9237 -0.707,0.0713 -2.051,-0.285 -2.475,-0.1424 -0.424,0.1424 -2.474,2.0662 -2.545,2.1375 z"
       id="path12348"
       inkscape:connector-curvature="0"
       style="display:inline;overflow:visible;visibility:visible;opacity:1;fill:#8f5902;fill-opacity:1;fill-rule:evenodd;stroke:none;stroke-width:1;stroke-linecap:round;stroke-linejoin:round;stroke-miterlimit:4;stroke-dasharray:none;stroke-dashoffset:0;stroke-opacity:1;marker:none;marker-start:none;marker-mid:none;marker-end:none;enable-background:accumulate" />
    <path
       d="m 1207.511,255.1623 3.465,3.2775 c 0,0 1.838,-0.1425 2.262,-0.57 0.425,-0.4275 -1.838,-3.3488 -2.262,-3.4913 -0.424,-0.1425 -2.616,0.9263 -3.465,0.7838 z"
       id="path12350"
       inkscape:connector-curvature="0"
       style="display:inline;overflow:visible;visibility:visible;opacity:1;fill:#e5cec1;fill-opacity:1;fill-rule:evenodd;stroke:none;stroke-width:1;stroke-linecap:round;stroke-linejoin:round;stroke-miterlimit:4;stroke-dasharray:none;stroke-dashoffset:0;stroke-opacity:1;marker:none;marker-start:none;marker-mid:none;marker-end:none;enable-background:accumulate" />
    <rect
       height="24"
       id="rect12491"
       style="display:inline;opacity:1;fill:none;fill-opacity:0.37226281;fill-rule:evenodd;stroke:none;stroke-width:1;stroke-linecap:round;stroke-linejoin:round;stroke-miterlimit:0;stroke-dasharray:none;stroke-dashoffset:0;stroke-opacity:1;marker:none;marker-start:none;marker-mid:none;marker-end:none"
       width="24"
       x="1200"
       y="248" />
  </g>
</svg>
