<?xml version="1.0" encoding="UTF-8" standalone="no"?>
<svg
   xmlns:dc="http://purl.org/dc/elements/1.1/"
   xmlns:cc="http://creativecommons.org/ns#"
   xmlns:rdf="http://www.w3.org/1999/02/22-rdf-syntax-ns#"
   xmlns:svg="http://www.w3.org/2000/svg"
   xmlns="http://www.w3.org/2000/svg"
   xmlns:xlink="http://www.w3.org/1999/xlink"
   xmlns:sodipodi="http://sodipodi.sourceforge.net/DTD/sodipodi-0.dtd"
   xmlns:inkscape="http://www.inkscape.org/namespaces/inkscape"
   id="svg1"
   width="26.4"
   height="26.4"
   version="1.1"
   sodipodi:docname="xml-text-new.svg"
   viewBox="0 0 26.4 26.4">
  <metadata
     id="metadata38">
    <rdf:RDF>
      <cc:Work
         rdf:about="">
        <dc:format>image/svg+xml</dc:format>
        <dc:type
           rdf:resource="http://purl.org/dc/dcmitype/StillImage" />
      </cc:Work>
    </rdf:RDF>
  </metadata>
  <sodipodi:namedview
     pagecolor="#ffffff"
     bordercolor="#666666"
     borderopacity="1"
     objecttolerance="10"
     gridtolerance="10"
     guidetolerance="10"
     inkscape:pageopacity="0"
     inkscape:pageshadow="2"
     inkscape:window-width="640"
     inkscape:window-height="480"
     id="namedview36"
     showgrid="false" />
  <defs
     id="defs3">
    <filter
       id="filter16974"
       inkscape:collect="always">
      <feGaussianBlur
         id="feGaussianBlur16976"
         inkscape:collect="always"
         stdDeviation="0.44" />
    </filter>
    <linearGradient
       id="linearGradient10735">
      <stop
         id="stop10737"
         offset="0"
         style="stop-color:#c0c0c0;stop-opacity:0;" />
      <stop
         id="stop10739"
         offset="1"
         style="stop-color:#c0c0c0;stop-opacity:0;" />
    </linearGradient>
    <linearGradient
       gradientTransform="matrix(0.9074918,0,0,0.907606,-455.68,1084.522)"
       gradientUnits="userSpaceOnUse"
       id="linearGradient13914"
       inkscape:collect="always"
       x1="900.00671"
       x2="900.00671"
       xlink:href="#linearGradient6581"
       y1="5"
       y2="28" />
    <radialGradient
       cx="-142.0072"
       cy="453"
       fx="-142.0072"
       fy="453"
       gradientTransform="translate(-31,252)"
       gradientUnits="userSpaceOnUse"
       id="radialGradient12910"
       inkscape:collect="always"
       r="8"
       xlink:href="#linearGradient10735" />
    <linearGradient
       id="linearGradient6581">
      <stop
         id="stop6583"
         offset="0"
         style="stop-color:#eeeeec;stop-opacity:1;" />
      <stop
         id="stop6585"
         offset="1.0000000"
         style="stop-color:#e0e0de;stop-opacity:1.0000000;" />
    </linearGradient>
  </defs>
  <g
     id="add_xml_text_node"
     transform="translate(-358.8,-1086.8)">
    <rect
       height="24"
       id="rect12908"
       style="display:inline;overflow:visible;visibility:visible;fill:url(#radialGradient12910);fill-opacity:1;fill-rule:nonzero;stroke:none;stroke-width:1;stroke-linecap:round;stroke-linejoin:miter;stroke-miterlimit:4;stroke-dasharray:none;stroke-dashoffset:0;stroke-opacity:1;marker:none;marker-start:none;marker-mid:none;marker-end:none;enable-background:accumulate"
       width="24"
       x="408"
       y="1088" />
    <g
       id="use12784">
      <rect
         height="22"
         id="rect12766"
         style="display:inline;overflow:visible;visibility:visible;fill:#000000;fill-opacity:0.15686269;fill-rule:evenodd;stroke:none;stroke-width:1;stroke-linecap:butt;stroke-linejoin:round;stroke-miterlimit:0;stroke-dasharray:none;stroke-dashoffset:0;stroke-opacity:1;marker:none;marker-start:none;marker-mid:none;marker-end:none;filter:url(#filter16974);enable-background:accumulate"
         width="22"
         x="361"
         y="1089" />
      <rect
         height="20"
         id="rect11220"
         style="display:inline;overflow:visible;visibility:visible;fill:url(#linearGradient13914);fill-opacity:1;fill-rule:evenodd;stroke:#888a85;stroke-width:1.00000095;stroke-linecap:butt;stroke-linejoin:round;stroke-miterlimit:4;stroke-dasharray:none;stroke-dashoffset:0;stroke-opacity:1;marker:none;marker-start:none;marker-mid:none;marker-end:none;enable-background:accumulate"
         width="20"
         x="361.5"
         y="1089.5" />
      <rect
         height="18"
         id="rect12117"
         style="display:inline;overflow:visible;visibility:visible;opacity:1;fill:none;fill-opacity:1;fill-rule:evenodd;stroke:#ffffff;stroke-width:1;stroke-linecap:square;stroke-linejoin:round;stroke-miterlimit:4;stroke-dasharray:none;stroke-dashoffset:0;stroke-opacity:1;marker:none;marker-start:none;marker-mid:none;marker-end:none;enable-background:accumulate"
         width="18"
         x="362.5"
         y="1090.5" />
    </g>
    <path
       d="m 379.4902,1094.445 c -0.0328,-0.975 -0.5328,-0.975 -1.0328,-0.975 -0.452,0 -1.5,0 -2,0 -0.5,0 -1,0 -1,2 0,2 0.5,2 1,2 0.5,0 2,0 3,-0.01 m -13,-4.002 c -0.008,2.017 0,3.009 0,3.509 0,0.515 0.5,0.504 1,0.508 m 2,-7.008 c 0,3.5 0,5 0,6 0,0.5 0,1 0.5,1 0.8428,0 2,0 2.5,0 0.5,0 1,0 1,-2 0,-2 -0.5,-2 -1,-2 -0.5,0 -1,0 -3,0 m -3,0 c -0.5,0 -3,0 -3,0 -0.5,0 -1,0 -1,2 0,2 0.4885,2.018 1,2 0.4884,-0.018 2,0 3,0.01"
       id="path11257"
       inkscape:connector-curvature="0"
       style="fill:none;fill-opacity:0.75;fill-rule:evenodd;stroke:#000000;stroke-width:1;stroke-linecap:square;stroke-linejoin:miter;stroke-miterlimit:4;stroke-dasharray:none;stroke-opacity:1" />
    <g
       id="use11263"
       transform="translate(-540.0179,1082.984)">
      <path
         d="m 906.5,24.5 -3,-3 3,-3 m 3,6 3,-3 -3,-3"
         id="path5418"
         inkscape:connector-curvature="0"
         style="fill:none;fill-opacity:0.75;fill-rule:evenodd;stroke:#000000;stroke-width:1px;stroke-linecap:square;stroke-linejoin:miter;stroke-opacity:1" />
    </g>
    <g
       id="g12862"
       transform="translate(-61,1)">
      <path
         d="m 434.5,1103.5 v 3 h 3 v 2.969 h 3.0312 V 1106.5 H 443.5 v -3 h -2.9375 l -0.0313,-3 -3.0468,-0.016 0.0156,2.985 z"
         id="path12835"
         inkscape:connector-curvature="0"
         sodipodi:nodetypes="ccccccccccccc"
         style="fill:#729fcf;fill-opacity:1;stroke:#204a87;stroke-width:1.0000006;stroke-linecap:round;stroke-linejoin:miter;stroke-miterlimit:4;stroke-dasharray:none;stroke-opacity:1" />
      <path
         d="m 435.5312,1105.969 -0.0312,-1.438 3,-0.047 0.0312,-2.953 L 440,1101.5"
         id="path12839"
         inkscape:connector-curvature="0"
         sodipodi:nodetypes="ccccc"
         style="fill:none;fill-opacity:0.75;fill-rule:evenodd;stroke:#aac5e2;stroke-width:1.00000024px;stroke-linecap:butt;stroke-linejoin:miter;stroke-opacity:1" />
    </g>
  </g>
</svg>
