<?xml version="1.0" encoding="UTF-8" standalone="no"?>
<svg
   xmlns:dc="http://purl.org/dc/elements/1.1/"
   xmlns:cc="http://creativecommons.org/ns#"
   xmlns:rdf="http://www.w3.org/1999/02/22-rdf-syntax-ns#"
   xmlns:svg="http://www.w3.org/2000/svg"
   xmlns="http://www.w3.org/2000/svg"
   xmlns:sodipodi="http://sodipodi.sourceforge.net/DTD/sodipodi-0.dtd"
   xmlns:inkscape="http://www.inkscape.org/namespaces/inkscape"
   inkscape:version="1.0alpha2 (e9bc48ab64, 2019-07-09)"
   sodipodi:docname="align-vertical-top-symbolic.svg"
   viewBox="0 0 16 16"
   height="16"
   width="16"
   id="svg1"
   version="1.1">

 
  
<metadata
     id="metadata1280">
    <rdf:RDF>
      <cc:Work
         rdf:about="">
        <dc:format>image/svg+xml</dc:format>
        <dc:type
           rdf:resource="http://purl.org/dc/dcmitype/StillImage" />
      </cc:Work>
    </rdf:RDF>
  </metadata>
  <defs
     id="defs1278" />
  <sodipodi:namedview
     inkscape:snap-global="false"
     inkscape:current-layer="svg1"
     inkscape:window-maximized="1"
     inkscape:window-y="27"
     inkscape:window-x="0"
     inkscape:window-height="704"
     inkscape:window-width="1360"
     inkscape:cy="8"
     inkscape:cx="8"
     inkscape:zoom="31.5625"
     showgrid="true"
     id="namedview"
     guidetolerance="10"
     gridtolerance="10"
     objecttolerance="10">
    <inkscape:grid
       id="grid"
       type="xygrid" />
  </sodipodi:namedview>
  <g
     id="align-vertical-top"
     inkscape:label="00270"
     transform="matrix(0.666667,0,0,0.666667,-721.33333,-421.57479)">
    <path
       transform="matrix(0,-1,-1,0,0,0)"
       style="opacity:0;fill:none"
       d="m -656.36218,-1106 h 24 v 24 h -24 z"
       id="rect22175"
       inkscape:connector-curvature="0" />
    <path
       
       style="opacity:1;stroke-width:1.22474"
       d="m 1106,636.22552 v -1.5 h -24 v 1.5 z"
       id="rect22177"
       inkscape:connector-curvature="0" />
    <path
       transform="matrix(0,-1,-1,0,0,0)"
       style="opacity:1"
       d="m -653.36218,-1095 h 16 v 5 h -16 z"
       id="rect22179"
       inkscape:connector-curvature="0" />
    <path
       transform="matrix(0,-1,-1,0,0,0)"
       style="opacity:1"
       d="m -647.36218,-1100 h 10 v 3 h -10 z"
       id="rect22181"
       inkscape:connector-curvature="0" />
    <path
       transform="matrix(0,-1,-1,0,0,0)"
       style="opacity:1"
       d="m -651.36218,-1106 h 14 v 4 h -14 z"
       id="rect22183"
       inkscape:connector-curvature="0" />
    <path
       
       id="path22185"
       style="opacity:1;"
       d="M 2 3.3339844 L 0 5.3339844 L 1.3339844 5.3339844 L 1.3339844 11.333984 L 2.6679688 11.333984 L 2.6679688 5.3339844 L 4 5.3339844 L 2 3.3339844 z "
       transform="matrix(1.4999993,0,0,1.4999993,1081.9995,632.36187)" />
  </g>
</svg>
