<?xml version="1.0" encoding="UTF-8" standalone="no"?>
<svg
   xmlns:dc="http://purl.org/dc/elements/1.1/"
   xmlns:cc="http://creativecommons.org/ns#"
   xmlns:rdf="http://www.w3.org/1999/02/22-rdf-syntax-ns#"
   xmlns:svg="http://www.w3.org/2000/svg"
   xmlns="http://www.w3.org/2000/svg"
   xmlns:sodipodi="http://sodipodi.sourceforge.net/DTD/sodipodi-0.dtd"
   xmlns:inkscape="http://www.inkscape.org/namespaces/inkscape"
   inkscape:version="1.0alpha2 (e9298ea62f, 2019-07-05, custom)"
   sodipodi:docname="align-vertical-bottom-symbolic.svg"
   viewBox="0 0 16 16"
   height="16"
   width="16"
   id="svg1"
   version="1.1">

 
  
<metadata
     id="metadata969">
    <rdf:RDF>
      <cc:Work
         rdf:about="">
        <dc:format>image/svg+xml</dc:format>
        <dc:type
           rdf:resource="http://purl.org/dc/dcmitype/StillImage" />
      </cc:Work>
    </rdf:RDF>
  </metadata>
  <defs
     id="defs967" />
  <sodipodi:namedview
     inkscape:snap-global="false"
     inkscape:current-layer="svg1"
     inkscape:window-maximized="1"
     inkscape:window-y="27"
     inkscape:window-x="0"
     inkscape:window-height="704"
     inkscape:window-width="1360"
     inkscape:cy="8"
     inkscape:cx="8"
     inkscape:zoom="31.5625"
     showgrid="true"
     id="namedview"
     guidetolerance="10"
     gridtolerance="10"
     objecttolerance="10">
    <inkscape:grid
       id="grid"
       type="xygrid" />
  </sodipodi:namedview>
  <g
     id="align-vertical-bottom"
     inkscape:label="00274"
     transform="matrix(0.666667,0,0,0.666667,-772,-421.57455)">
    <g
       transform="matrix(1,0,0,-1,76,1288.724)"
       id="g22358"
       inkscape:label="#al_top_in">
      <path
         transform="matrix(0,-1,-1,0,0,0)"
         style="opacity:0;fill:none"
         d="m -656.36218,-1106 h 24 v 24 h -24 z"
         id="rect22360"
         inkscape:connector-curvature="0" />
      <path
         
         style="opacity:1;stroke-width:1.22474"
         d="m 1106,636.36218 v -1.5 h -24 v 1.5 z"
         id="rect22362"
         inkscape:connector-curvature="0" />
      <path
         transform="matrix(0,-1,-1,0,0,0)"
         style="opacity:1"
         d="m -653.36218,-1095 h 16 v 5 h -16 z"
         id="rect22364"
         inkscape:connector-curvature="0" />
      <path
         transform="matrix(0,-1,-1,0,0,0)"
         style="opacity:1"
         d="m -647.36218,-1100 h 10 v 3 h -10 z"
         id="rect22366"
         inkscape:connector-curvature="0" />
      <path
         transform="matrix(0,-1,-1,0,0,0)"
         style="opacity:1"
         d="m -651.36218,-1106 h 14 v 4 h -14 z"
         id="rect22368"
         inkscape:connector-curvature="0" />
      <path
         
         transform="matrix(1.4999993,0,0,-1.4999993,1081.9994,656.36249)"
         d="M 1.3339844 4.6660156 L 1.3339844 10.666016 L 0 10.666016 L 2 12.666016 L 4 10.666016 L 2.6679688 10.666016 L 2.6679688 4.6660156 L 1.3339844 4.6660156 z "
         style="opacity:1;stroke-width:0.666667"
         id="path22370" />
    </g>
  </g>
</svg>
