<?xml version="1.0" encoding="UTF-8" standalone="no"?>
<svg
   xmlns:dc="http://purl.org/dc/elements/1.1/"
   xmlns:cc="http://creativecommons.org/ns#"
   xmlns:rdf="http://www.w3.org/1999/02/22-rdf-syntax-ns#"
   xmlns:svg="http://www.w3.org/2000/svg"
   xmlns="http://www.w3.org/2000/svg"
   xmlns:sodipodi="http://sodipodi.sourceforge.net/DTD/sodipodi-0.dtd"
   xmlns:inkscape="http://www.inkscape.org/namespaces/inkscape"
   version="1.1"
   id="svg1"
   width="16"
   height="16"
   viewBox="0 0 16 16"
   sodipodi:docname="align-vertical-center-symbolic.svg"
   inkscape:version="1.0alpha2 (e9298ea62f, 2019-07-05, custom)">

 
  
<metadata
     id="metadata1125">
    <rdf:RDF>
      <cc:Work
         rdf:about="">
        <dc:format>image/svg+xml</dc:format>
        <dc:type
           rdf:resource="http://purl.org/dc/dcmitype/StillImage" />
      </cc:Work>
    </rdf:RDF>
  </metadata>
  <defs
     id="defs1123" />
  <sodipodi:namedview
     objecttolerance="10"
     gridtolerance="10"
     guidetolerance="10"
     id="namedview"
     showgrid="true"
     inkscape:zoom="31.5625"
     inkscape:cx="8"
     inkscape:cy="8"
     inkscape:window-width="1360"
     inkscape:window-height="704"
     inkscape:window-x="0"
     inkscape:window-y="27"
     inkscape:window-maximized="1"
     inkscape:current-layer="svg1"
     inkscape:snap-global="false">
    <inkscape:grid
       type="xygrid"
       id="grid" />
  </sodipodi:namedview>
  <g
     transform="matrix(0.666667,0,0,0.666667,-746.66667,-421.57479)"
     inkscape:label="00272"
     id="align-vertical-center">
    <path
       inkscape:connector-curvature="0"
       id="rect22291"
       d="m -656.36218,-1144 h 24 v 24 h -24 z"
       style="opacity:0;fill:none"
       transform="matrix(0,-1,-1,0,0,0)" />
    <path
       inkscape:connector-curvature="0"
       id="rect22293"
       d="m 1144,645.11186 v -1.5 h -24 v 1.5 z"
       style="opacity:1;stroke-width:1.22474"
        />
    <path
       id="path4284"
       d="m 1133,646.3622 h -5 v 7 h 5 z"
       style="opacity:1" />
    <path
       inkscape:connector-curvature="0"
       id="path22295"
       d="m 1133,635.36189 h -5 v 7 h 5 z"
       style="opacity:1" />
    <path
       id="path4288"
       d="m 1138,646.3622 h -3 v 4 h 3 z"
       style="opacity:1" />
    <path
       inkscape:connector-curvature="0"
       id="path22297"
       d="m 1138,638.36189 h -3 v 4 h 3 z"
       style="opacity:1" />
    <path
       id="path4292"
       d="m 1144,646.3622 h -4 v 6 h 4 z"
       style="opacity:1" />
    <path
       inkscape:connector-curvature="0"
       id="path22299"
       d="m 1144,636.36189 h -4 v 6 h 4 z"
       style="opacity:1" />
    <path
       
       transform="matrix(1.4999993,0,0,1.4999993,1119.9994,632.36187)"
       d="M 2 9.3339844 L 0 11.333984 L 1.3339844 11.333984 L 1.3339844 16 L 2.6679688 16 L 2.6679688 11.333984 L 4 11.333984 L 2 9.3339844 z "
       style="opacity:1;stroke-width:0.666667"
       id="path22301" />
    <path
       
       transform="matrix(1.4999993,0,0,1.4999993,1119.9994,632.36187)"
       d="M 1.3339844 0 L 1.3339844 4.6660156 L 0 4.6660156 L 2 6.6660156 L 4 4.6660156 L 2.6679688 4.6660156 L 2.6679688 0 L 1.3339844 0 z "
       style="opacity:1;stroke-width:0.666667"
       id="path22305" />
  </g>
</svg>
