<?xml version="1.0" encoding="UTF-8" standalone="no"?>
<svg
   xmlns:dc="http://purl.org/dc/elements/1.1/"
   xmlns:cc="http://creativecommons.org/ns#"
   xmlns:rdf="http://www.w3.org/1999/02/22-rdf-syntax-ns#"
   xmlns:svg="http://www.w3.org/2000/svg"
   xmlns="http://www.w3.org/2000/svg"
   xmlns:sodipodi="http://sodipodi.sourceforge.net/DTD/sodipodi-0.dtd"
   xmlns:inkscape="http://www.inkscape.org/namespaces/inkscape"
   version="1.1"
   id="svg1"
   width="16"
   height="16"
   viewBox="0 0 16 16"
   sodipodi:docname="align-vertical-baseline-symbolic.svg"
   inkscape:version="1.0alpha2 (e9298ea62f, 2019-07-05, custom)">


  
<metadata
     id="metadata893">
    <rdf:RDF>
      <cc:Work
         rdf:about="">
        <dc:format>image/svg+xml</dc:format>
        <dc:type
           rdf:resource="http://purl.org/dc/dcmitype/StillImage" />
      </cc:Work>
    </rdf:RDF>
  </metadata>
  <defs
     id="defs891" />
  <sodipodi:namedview
     objecttolerance="10"
     gridtolerance="10"
     guidetolerance="10"
     id="namedview"
     showgrid="true"
     inkscape:zoom="31.5625"
     inkscape:cx="8"
     inkscape:cy="8"
     inkscape:window-width="1360"
     inkscape:window-height="704"
     inkscape:window-x="0"
     inkscape:window-y="27"
     inkscape:window-maximized="1"
     inkscape:current-layer="svg1"
     inkscape:snap-global="false">
    <inkscape:grid
       type="xygrid"
       id="grid" />
  </sodipodi:namedview>
  <g
     transform="matrix(0.666667,0,0,0.666667,-721.33333,-446.90812)"
     inkscape:label="00278"
     id="align-vertical-baseline">
    <path
       inkscape:connector-curvature="0"
       id="rect17564"
       d="m 1106,684.36218 v 1.5 h -24 v -1.5 z"
       style="opacity:1;stroke-width:1.22474"
        />
    <path
       inkscape:connector-curvature="0"
       id="rect17558"
       d="m 670.36218,-1106 h 24 v 24 h -24 z"
       style="opacity:0;fill:none"
       transform="rotate(90)" />
    <path
       inkscape:connector-curvature="0"
       style="opacity:1"
       d="m 1087.164,675.769 c 0.779,-0.6756 2.102,-0.4334 2.693,0.3478 0.975,1.1832 1.257,2.6967 1.616,4.1129 0.266,1.2078 0.459,1.9013 0.527,3.1325 0.788,-1.557 1.671,-2.6963 1.687,-4.4496 0.022,-0.8862 -0.512,-1.6374 -0.869,-2.4211 -0.295,-0.6568 0.517,-1.3403 1.212,-1.1296 0.853,0.1654 0.995,1.1039 0.97,1.7768 -0.09,2.0013 -0.912,3.9664 -1.744,5.7954 -1.18,2.4154 -2.868,4.6554 -5.076,6.3549 -0.869,0.6228 -3.065,1.3451 -4.15,0.97 -2,-0.9931 -2,-2.9794 0,-2.9794 0.719,-0.3234 2.54,1.2413 3.276,1.2167 1.215,-0.009 2.081,-1.0492 2.409,-2.0401 0.333,-1.3108 0.021,-2.6651 -0.185,-3.9721 -0.335,-1.699 -0.713,-3.4324 -1.596,-4.9694 -0.181,-0.597 -1.598,-0.9518 -0.77,-1.7457 z"
       id="path17560" />
    <path
       inkscape:connector-curvature="0"
       id="path17562"
       d="m 1100.349,680.7426 c -0.552,0 -0.969,0.086 -1.25,0.2581 -0.276,0.172 -0.415,0.4255 -0.415,0.7606 0,0.3078 0.111,0.55 0.333,0.7266 0.227,0.172 0.541,0.258 0.94,0.258 0.498,0 0.918,-0.1629 1.258,-0.4889 0.341,-0.3305 0.511,-0.7425 0.511,-1.2359 v -0.2785 h -1.377 m 3.651,-0.9408 v 4.5604 l -2.274,0.024 v -1.3483 c -0.355,0.4618 -0.755,0.7991 -1.199,1.0119 -0.444,0.2082 -0.984,0.3123 -1.621,0.3123 -0.858,0 -1.556,-0.2286 -2.094,-0.6858 -0.532,-0.4618 -0.799,-1.0594 -0.799,-1.7928 0,-0.8919 0.333,-1.5461 0.999,-1.9626 0.671,-0.4165 1.722,-0.6248 3.152,-0.6248 h 1.562 v -0.1901 c 0,-0.3848 -0.166,-0.6655 -0.496,-0.8421 -0.331,-0.1811 -0.846,-0.2716 -1.547,-0.2716 -0.567,0 -1.095,0.052 -1.583,0.1562 -0.488,0.1041 -0.681,0.005 -1.1,0.2136 v -1.8539 l 3.164,-0.1321 c 1.495,0 2.176,0.2476 2.837,0.7908 0.666,0.5388 0.999,1.4171 0.999,2.6349"
       style="opacity:1" />
  </g>
</svg>
