<?xml version="1.0" encoding="UTF-8" standalone="no"?>
<svg
   xmlns:dc="http://purl.org/dc/elements/1.1/"
   xmlns:cc="http://creativecommons.org/ns#"
   xmlns:rdf="http://www.w3.org/1999/02/22-rdf-syntax-ns#"
   xmlns:svg="http://www.w3.org/2000/svg"
   xmlns="http://www.w3.org/2000/svg"
   xmlns:sodipodi="http://sodipodi.sourceforge.net/DTD/sodipodi-0.dtd"
   xmlns:inkscape="http://www.inkscape.org/namespaces/inkscape"
   version="1.1"
   id="svg1"
   width="16"
   height="16"
   viewBox="0 0 16 16"
   sodipodi:docname="align-horizontal-center-symbolic.svg"
   inkscape:version="1.0alpha2 (e9298ea62f, 2019-07-05, custom)">



<metadata
     id="metadata199">
    <rdf:RDF>
      <cc:Work
         rdf:about="">
        <dc:format>image/svg+xml</dc:format>
        <dc:type
           rdf:resource="http://purl.org/dc/dcmitype/StillImage" />
      </cc:Work>
    </rdf:RDF>
  </metadata>
  <defs
     id="defs197" />
  <sodipodi:namedview
     objecttolerance="10"
     gridtolerance="10"
     guidetolerance="10"
     id="namedview"
     showgrid="true"
     inkscape:zoom="31.5625"
     inkscape:cx="8"
     inkscape:cy="8"
     inkscape:window-width="1360"
     inkscape:window-height="704"
     inkscape:window-x="0"
     inkscape:window-y="27"
     inkscape:window-maximized="1"
     inkscape:current-layer="svg1"
     inkscape:snap-global="false">
    <inkscape:grid
       type="xygrid"
       id="grid" />
  </sodipodi:namedview>
  <g
     transform="matrix(0.666667,0,0,0.666666,-746.66667,-396.90779)"
     inkscape:label="00271"
     id="align-horizontal-center">
    <path
       inkscape:connector-curvature="0"
       id="rect22217"
       d="m -1144,595.36218 h 24 v 24 h -24 z"
       style="opacity:0;fill:none"
       transform="scale(-1,1)" />
    <path
       inkscape:connector-curvature="0"
       id="rect22219"
       d="m 1132.7494,595.36218 h -1.5 v 24 h 1.5 z"
       style="opacity:1;"
        />
    <path
       d="m 1123.9994,607.3622 v 4 h 6 v -4 z m 9.95,0 v 4 h 6 v -4 z m -7.95,-5 v 3 h 4 v -3 z m 7.95,0 v 3 h 4 v -3 z m -10.95,-7 v 5 h 7 v -5 z m 10.95,0 v 5 h 7 v -5 z"
       style="opacity:1"
       id="rect22225" />
    <path
       
       transform="matrix(1.4999993,0,0,1.5000015,1119.9994,595.36228)"
       d="M 4.6660156 12 L 4.6660156 13.333984 L 0 13.333984 L 0 14.666016 L 4.6660156 14.666016 L 4.6660156 16 L 6.6660156 14 L 4.6660156 12 z M 11.333984 12 L 9.3339844 14 L 11.333984 16 L 11.333984 14.666016 L 16 14.666016 L 16 13.333984 L 11.333984 13.333984 L 11.333984 12 z "
       style="opacity:1;"
       id="path22227" />
  </g>
</svg>
