<?xml version='1.0' encoding='UTF-8'?>
<!-- Created with Inkscape (http://www.inkscape.org/) and export_objects.py -->
<svg xmlns:cc="http://creativecommons.org/ns#" xmlns:dc="http://purl.org/dc/elements/1.1/" xmlns:inkscape="http://www.inkscape.org/namespaces/inkscape" xmlns:rdf="http://www.w3.org/1999/02/22-rdf-syntax-ns#" xmlns:sodipodi="http://sodipodi.sourceforge.net/DTD/sodipodi-0.dtd" xmlns:xlink="http://www.w3.org/1999/xlink" xmlns="http://www.w3.org/2000/svg" version="1.1" id="svg1" width="16" height="16" viewBox="0 0 16 16" sodipodi:docname="distribute-unclump-symbolic.svg">
<sodipodi:namedview objecttolerance="10" gridtolerance="10" guidetolerance="10" id="namedview" showgrid="true" inkscape:zoom="0.6002936" inkscape:cx="732.67439" inkscape:cy="-567.94603" inkscape:window-width="1920" inkscape:window-height="1016" inkscape:window-x="0" inkscape:window-y="27" inkscape:window-maximized="1" inkscape:current-layer="layer1">
    <inkscape:grid type="xygrid" id="grid"/>
  </sodipodi:namedview>
  <g transform="matrix(0.666667,0,0,0.666667,-721.33333,-548.90812)" inkscape:label="00290" id="distribute-unclump">
      <path inkscape:connector-curvature="0" id="rect19054" d="m 1082,823.36218 h 24 v 24 h -24 z" style="opacity:0;fill:none"/>
      <path inkscape:connector-curvature="0" id="rect19056" d="m 1083,833.36218 h 6 v 4.94183 h -6 z" style="opacity:1"/>
      <path inkscape:connector-curvature="0" id="rect19058" d="m 1098,826.36078 h 5.9987 v 4.94182 H 1098 Z" style="opacity:1"/>
      <path inkscape:connector-curvature="0" id="rect19061" d="m 1098,840.42181 h 5.9987 v 4.94182 H 1098 Z" style="opacity:1"/>
      <path inkscape:connector-curvature="0" id="rect19286" d="m 1101,833.36218 c 0.554,0 1,0.446 1,1 v 3 c 0,0.554 -0.446,1 -1,1 -0.554,0 -1,-0.446 -1,-1 v -3 c 0,-0.554 0.446,-1 1,-1 z" style="opacity:1"/>
      <path inkscape:connector-curvature="0" id="rect19288" d="m 1129.5055,-761.72668 c 0.48,0 0.8665,0.43545 0.8665,0.97636 v 4.27142 c 0,0.5409 -0.3865,0.97636 -0.8665,0.97636 -0.48,0 -0.8665,-0.43546 -0.8665,-0.97636 v -4.27142 c 0,-0.54091 0.3865,-0.97636 0.8665,-0.97636 z" style="opacity:1" transform="matrix(0.3292633,0.9442382,-0.9505411,0.3105989,0,0)"/>
      <path inkscape:connector-curvature="0" id="rect19292" d="m -459.91212,-1312.2939 c 0.48002,0 0.86647,0.4354 0.86647,0.9763 v 4.2714 c 0,0.5409 -0.38645,0.9764 -0.86647,0.9764 -0.48003,0 -0.86647,-0.4355 -0.86647,-0.9764 v -4.2714 c 0,-0.5409 0.38644,-0.9763 0.86647,-0.9763 z" style="opacity:1" transform="matrix(0.3292633,-0.9442382,-0.9505411,-0.3105989,0,0)"/>
    </g>
    </svg>
