<?xml version="1.0" encoding="UTF-8" standalone="no"?>
<svg
   xmlns:dc="http://purl.org/dc/elements/1.1/"
   xmlns:cc="http://creativecommons.org/ns#"
   xmlns:rdf="http://www.w3.org/1999/02/22-rdf-syntax-ns#"
   xmlns:svg="http://www.w3.org/2000/svg"
   xmlns="http://www.w3.org/2000/svg"
   xmlns:sodipodi="http://sodipodi.sourceforge.net/DTD/sodipodi-0.dtd"
   xmlns:inkscape="http://www.inkscape.org/namespaces/inkscape"
   version="1.1"
   id="svg1"
   width="16"
   height="16"
   viewBox="0 0 16 16"
   sodipodi:docname="distribute-horizontal-baseline-symbolic.svg"
   inkscape:version="1.0alpha2 (e9bc48ab64, 2019-07-09)">


  
<metadata
     id="metadata2306">
    <rdf:RDF>
      <cc:Work
         rdf:about="">
        <dc:format>image/svg+xml</dc:format>
        <dc:type
           rdf:resource="http://purl.org/dc/dcmitype/StillImage" />
      </cc:Work>
    </rdf:RDF>
  </metadata>
  <defs
     id="defs2304" />
  <sodipodi:namedview
     objecttolerance="10"
     gridtolerance="10"
     guidetolerance="10"
     id="namedview"
     showgrid="true"
     inkscape:zoom="31.5625"
     inkscape:cx="8"
     inkscape:cy="8"
     inkscape:window-width="1360"
     inkscape:window-height="704"
     inkscape:window-x="0"
     inkscape:window-y="27"
     inkscape:window-maximized="1"
     inkscape:current-layer="svg1">
    <inkscape:grid
       type="xygrid"
       id="grid" />
  </sodipodi:namedview>
  <g
     transform="matrix(0.666667,0,0,0.666667,-696,-523.57479)"
     inkscape:label="00287"
     id="distribute-horizontal-baseline">
    <path
       inkscape:connector-curvature="0"
       id="rect18981"
       d="m 1056.46,785.36218 h 1.5 v 24 h -1.5 z"
       style="opacity:1;stroke-width:1.22474"
        />
    <path
       inkscape:connector-curvature="0"
       id="rect18969"
       d="m 1043.9995,785.36218 h 1.5 v 24 h -1.5 z"
       style="opacity:1;stroke-width:1.22474"
        />
    <path
       inkscape:connector-curvature="0"
       id="rect18962"
       d="m 785.36218,-1068 h 24 v 24 h -24 z"
       style="opacity:0;fill:none"
       transform="rotate(90)" />
    <path
       inkscape:connector-curvature="0"
       style="opacity:1;stroke-width:0.947936"
       d="m 1057.3974,794.59328 c 0.7384,-0.64043 1.9935,-0.41084 2.5528,0.32969 0.9252,1.1216 1.1925,2.5563 1.5328,3.89877 0.2521,1.14491 0.4351,1.80231 0.4986,2.9694 0.7479,-1.47593 1.584,-2.55591 1.6001,-4.21793 0.021,-0.84006 -0.4863,-1.55215 -0.8247,-2.29505 -0.2787,-0.6226 0.4901,-1.27052 1.1499,-1.07079 0.8076,0.15679 0.9422,1.04643 0.9185,1.6843 -0.085,1.8971 -0.8645,3.75989 -1.6532,5.49366 -1.1176,2.28965 -2.7187,4.41302 -4.8117,6.02404 -0.8228,0.59037 -2.9054,1.27507 -3.933,0.9195 -1.8959,-0.9414 -1.8959,-2.82428 0,-2.82428 0.6806,-0.30656 2.4068,1.17667 3.1045,1.15335 1.1517,-0.009 1.9726,-0.99457 2.2836,-1.93388 0.3156,-1.24256 0.02,-2.52635 -0.1754,-3.7653 -0.3176,-1.61054 -0.6749,-3.25369 -1.5129,-4.71067 -0.1716,-0.56592 -1.5139,-0.90224 -0.7299,-1.65481 z"
       id="path18964" />
    <path
       inkscape:connector-curvature="0"
       id="path18967"
       d="m 1049.3783,798.7995 c -0.552,0 -0.969,0.0871 -1.25,0.2614 -0.276,0.1743 -0.415,0.4312 -0.415,0.7705 0,0.3119 0.111,0.5573 0.333,0.7361 0.227,0.1743 0.541,0.2614 0.94,0.2614 0.498,0 0.918,-0.1651 1.258,-0.4953 0.341,-0.3348 0.511,-0.7521 0.511,-1.252 v -0.2821 h -1.377 m 3.651,-1.4373 v 5 h -2 v -1.142 c -0.355,0.4678 -0.755,0.8095 -1.199,1.025 -0.444,0.211 -0.984,0.3165 -1.62,0.3165 -0.859,0 -1.831,-0.3271 -2.369,-0.7903 -0.532,-0.4678 -0.799,-1.0732 -0.799,-1.8161 0,-0.9035 0.333,-1.5662 0.999,-1.9882 0.671,-0.4219 1.722,-0.6329 3.152,-0.6329 h 1.562 v -0.1926 c 0,-0.3898 -0.166,-0.6742 -0.496,-0.8531 -0.331,-0.1834 -0.846,-0.2751 -1.547,-0.2751 -0.567,0 -1.095,0.0527 -1.583,0.1582 -0.488,0.1055 -0.942,0.2637 -1.362,0.4747 v -1.8781 c 0.568,-0.1284 1.137,-0.2247 1.71,-0.2889 0.572,-0.0688 1.144,-0.1032 1.716,-0.1032 1.495,0 1.998,0.0822 2.659,0.6325 0.666,0.5458 1.177,1.1199 1.177,2.3536"
       style="opacity:1" />
    <path
       inkscape:connector-curvature="0"
       id="path18995"
       d="m 1048.4615,791.3622 -3,-3 3,-3 v 2 h 5 v -2 l 3,3 -3,3 v -2 h -5 z"
       style="opacity:1"
        />
  </g>
</svg>
