<?xml version="1.0" encoding="UTF-8" standalone="no"?>
<svg
   xmlns:dc="http://purl.org/dc/elements/1.1/"
   xmlns:cc="http://creativecommons.org/ns#"
   xmlns:rdf="http://www.w3.org/1999/02/22-rdf-syntax-ns#"
   xmlns:svg="http://www.w3.org/2000/svg"
   xmlns="http://www.w3.org/2000/svg"
   xmlns:sodipodi="http://sodipodi.sourceforge.net/DTD/sodipodi-0.dtd"
   xmlns:inkscape="http://www.inkscape.org/namespaces/inkscape"
   inkscape:version="1.0alpha2 (e9bc48ab64, 2019-07-09)"
   sodipodi:docname="distribute-vertical-node-symbolic.svg"
   viewBox="0 0 16 16"
   height="16"
   width="16"
   id="svg1"
   version="1.1">


  
<metadata
     id="metadata1348">
    <rdf:RDF>
      <cc:Work
         rdf:about="">
        <dc:format>image/svg+xml</dc:format>
        <dc:type
           rdf:resource="http://purl.org/dc/dcmitype/StillImage" />
      </cc:Work>
    </rdf:RDF>
  </metadata>
  <defs
     id="defs1346" />
  <sodipodi:namedview
     inkscape:current-layer="svg1"
     inkscape:window-maximized="1"
     inkscape:window-y="27"
     inkscape:window-x="0"
     inkscape:window-height="704"
     inkscape:window-width="1360"
     inkscape:cy="8"
     inkscape:cx="8"
     inkscape:zoom="31.5625"
     showgrid="true"
     id="namedview"
     guidetolerance="10"
     gridtolerance="10"
     objecttolerance="10">
    <inkscape:grid
       id="grid"
       type="xygrid" />
  </sodipodi:namedview>
  <g
     id="distribute-vertical-node"
     inkscape:label="00296"
     transform="matrix(0.666667,0,0,0.66653,-746.66667,-574.12056)">
    <g
       transform="translate(76)"
       id="g19713"
       inkscape:label="#node_valign">
      <path
         style="opacity:1"
         d="m 1055.0059,861.36328 v 0.5 22.99414 0.5 h 1 v -0.5 -22.99414 -0.5 z"
         id="path19715"
         inkscape:connector-curvature="0" />
      <path
         style="opacity:1;stroke-linecap:round"
         d="m 1044.4941,861.35742 a 0.49987859,0.49987859 0 0 0 -0.3632,0.83008 c 0.9066,1.05826 2.5515,1.56921 4.4804,1.98242 1.929,0.41321 4.1641,0.68588 6.2403,1.0332 2.0762,0.34733 3.9964,0.78069 5.2285,1.43165 0.616,0.32547 1.0485,0.69562 1.2851,1.10351 0.2367,0.40789 0.3117,0.86435 0.1524,1.50195 -0.085,0.34012 -0.3248,0.62343 -0.7871,0.89649 -0.4629,0.27339 -1.1314,0.50623 -1.9297,0.69922 -1.5966,0.38597 -3.7026,0.62227 -5.8125,0.96875 -2.1099,0.34647 -4.2277,0.79859 -5.9063,1.68359 -1.6786,0.885 -2.9334,2.28462 -3.0703,4.33789 -0.054,0.81523 0.2477,1.54082 0.7832,2.07617 0.5355,0.53536 1.2745,0.90598 2.1524,1.19727 1.7557,0.58258 4.0988,0.84426 6.6289,1.06445 5.06,0.44038 10.8809,0.76524 13.6465,2.60938 a 0.49996377,0.49996377 0 1 0 0.5546,-0.83203 c -3.2314,-2.15487 -9.0885,-2.33597 -14.1152,-2.77344 -2.5133,-0.21874 -4.815,-0.49021 -6.3984,-1.01563 -0.7917,-0.2627 -1.3946,-0.58995 -1.7617,-0.95703 -0.3672,-0.36708 -0.5294,-0.74631 -0.4922,-1.30273 0.113,-1.69588 1.0453,-2.735 2.5371,-3.52149 1.4917,-0.78648 3.5279,-1.23922 5.6035,-1.58007 2.0756,-0.34086 4.1859,-0.57367 5.8848,-0.98438 0.8494,-0.20535 1.5981,-0.45322 2.2031,-0.81055 0.605,-0.35732 1.0852,-0.85457 1.25,-1.51367 0.2092,-0.83737 0.1083,-1.61498 -0.2578,-2.24609 -0.3662,-0.63111 -0.9631,-1.10566 -1.6836,-1.48633 -1.4411,-0.76134 -3.425,-1.17889 -5.5313,-1.53125 -2.1063,-0.35236 -4.3331,-0.62843 -6.1953,-1.02734 -1.8622,-0.39891 -3.3374,-0.96296 -3.9297,-1.6543 a 0.49987859,0.49987859 0 0 0 -0.3965,-0.17969 z"
         id="path19717"
         inkscape:connector-curvature="0" />
      <path
         style="opacity:1"
         d="m 1053,862.36218 h 5 v 4.99999 h -5 z"
         id="rect19719"
         inkscape:connector-curvature="0" />
      <path
         style="opacity:1"
         d="m 1053,870.36218 h 5 v 4.99999 h -5 z"
         id="rect19721"
         inkscape:connector-curvature="0" />
      <path
         style="opacity:1"
         d="m 1053,879.36218 h 5 v 4.99999 h -5 z"
         id="rect19723"
         inkscape:connector-curvature="0" />
      <path
         style="opacity:0;fill:none"
         d="m 1044,861.36218 h 24 v 24 h -24 z"
         id="rect19725"
         inkscape:connector-curvature="0" />
    </g>
    <path
       
       style="opacity:1;stroke-width:1.22487"
       d="m 1134,864.02104 h 10 v 1.50031 h -10 z"
       id="rect19727"
       inkscape:connector-curvature="0" />
    <path
       
       style="opacity:1;stroke-width:1.22487"
       d="m 1134,872.11011 h 10 v 1.50031 h -10 z"
       id="rect19729"
       inkscape:connector-curvature="0" />
    <path
       
       style="opacity:1;stroke-width:1.22487"
       d="m 1134,881.12129 h 10 v 1.50031 h -10 z"
       id="rect19731"
       inkscape:connector-curvature="0" />
    <path
       
       inkscape:connector-curvature="0"
       style="opacity:1;stroke-width:0.968991"
       d="m 1139.968,875.54825 1.4845,-1.93798 1.4225,1.93798 h -0.938 v 3.87597 h 0.969 l -1.4535,1.93798 -1.4535,-1.93798 h 0.969 v -3.87597 z"
       id="path5344" />
    <path
       
       id="path19903"
       d="m 1139.968,867.39386 1.4845,-1.93798 1.4225,1.93798 h -0.938 v 2.90698 h 0.969 l -1.4535,1.93798 -1.4535,-1.93798 h 0.969 v -2.90698 z"
       style="opacity:1;stroke-width:0.968991"
       inkscape:connector-curvature="0" />
  </g>
</svg>
