<?xml version="1.0" encoding="UTF-8" standalone="no"?>
<svg
   xmlns:dc="http://purl.org/dc/elements/1.1/"
   xmlns:cc="http://creativecommons.org/ns#"
   xmlns:rdf="http://www.w3.org/1999/02/22-rdf-syntax-ns#"
   xmlns:svg="http://www.w3.org/2000/svg"
   xmlns="http://www.w3.org/2000/svg"
   xmlns:xlink="http://www.w3.org/1999/xlink"
   xmlns:sodipodi="http://sodipodi.sourceforge.net/DTD/sodipodi-0.dtd"
   xmlns:inkscape="http://www.inkscape.org/namespaces/inkscape"
   inkscape:version="1.0alpha2 (e9bc48ab64, 2019-07-09)"
   sodipodi:docname="distribute-vertical-gaps-symbolic.svg"
   viewBox="0 0 16 16"
   height="16"
   width="16"
   id="svg1"
   version="1.1">

  
  
<metadata
     id="metadata1253">
    <rdf:RDF>
      <cc:Work
         rdf:about="">
        <dc:format>image/svg+xml</dc:format>
        <dc:type
           rdf:resource="http://purl.org/dc/dcmitype/StillImage" />
      </cc:Work>
    </rdf:RDF>
  </metadata>
  <defs
     id="defs1251" />
  <sodipodi:namedview
     inkscape:snap-global="false"
     inkscape:current-layer="svg1"
     inkscape:window-maximized="1"
     inkscape:window-y="27"
     inkscape:window-x="0"
     inkscape:window-height="704"
     inkscape:window-width="1360"
     inkscape:cy="7.6667529"
     inkscape:cx="7.7595508"
     inkscape:zoom="15.78125"
     showgrid="true"
     id="namedview"
     guidetolerance="10"
     gridtolerance="10"
     objecttolerance="10">
    <inkscape:grid
       id="grid"
       type="xygrid" />
  </sodipodi:namedview>
  <g
     id="distribute-vertical-gaps"
     inkscape:label="00286"
     transform="matrix(0.666655,0,0,0.666667,-772.65285,-497.57467)">
    <g
       transform="rotate(-90,1190,739.362)"
       id="g18927"
       inkscape:label="#distribute_hdist">
      <use
         height="1250"
         width="1250"
         transform="matrix(1,0,0,0.7500174,124,177.0778)"
         id="use18929"
         y="0"
         x="0"
         xlink:href="#path5265" />
      <path
         style="opacity:0;fill:none"
         d="m 1159,708.36218 h 24 v 24 h -24 z"
         id="rect18937"
         inkscape:connector-curvature="0" />
      <use
         xlink:href="#path5265"
         x="0"
         y="0"
         id="use18941"
         transform="matrix(1,0,0,0.7500174,127,177.0778)"
         width="1250"
         height="1250" />
    </g>
  </g>
  <path
     style="opacity:1;stroke-width:0.647442"
     d="M 16.018806,16.020082 H 6.0813328 v -1.890934 h 9.9374732 z"
     id="rect18780"
     inkscape:connector-curvature="0" />
  <path
     inkscape:connector-curvature="0"
     id="path307"
     d="M 2.660386,11.92848 1.422761,13.166081 0.18512936,11.92848 H 1.0102216 l 6.4e-4,-0.864734 H 0.18576935 L 1.4234077,9.8260788 2.6610327,11.063746 H 1.8359404 l -6.466e-4,0.864734 z"
     style="opacity:1;stroke-width:0.412548"
     
     sodipodi:nodetypes="ccccccccccc" />
  <path
     sodipodi:nodetypes="ccccccccccc"
     
     style="opacity:1;stroke-width:0.412548"
     d="M 2.6500529,4.7303429 1.4124279,5.9679439 0.17479621,4.7303429 H 0.99988843 L 1.0005284,3.8656089 H 0.1754362 l 1.2376383,-1.237667 1.237625,1.237667 H 1.8256073 l -6.467e-4,0.864734 z"
     id="path964"
     inkscape:connector-curvature="0" />
  <path
     
     id="path18778"
     d="m 0.02037224,14.173148 h 0.61538923 l 14.76894153,0 h 0.615389 V 13.173147 H 15.404703 0.63576147 0.02037224 Z"
     style="opacity:1;stroke-width:0.816486"
     inkscape:connector-curvature="0" />
  <path
     inkscape:connector-curvature="0"
     style="opacity:1;stroke-width:0.816486"
     d="M 0.01917893,9.8895455 H 0.63456816 15.40351 16.018899 V 8.889545 H 15.40351 l -14.76894184,0 H 0.01917893 Z"
     id="path817"
      />
  <path
     
     id="path962"
     d="m 0.01917893,6.975144 h 0.61538923 l 14.76894184,0 h 0.615389 V 5.9751439 H 15.40351 l -14.76894184,0 H 0.01917893 Z"
     style="opacity:1;stroke-width:0.816486"
     inkscape:connector-curvature="0" />
  <path
     inkscape:connector-curvature="0"
     style="opacity:1;stroke-width:0.816486"
     d="m 0.01917893,2.6632089 h 0.61538923 l 14.76894184,0 h 0.615389 V 1.6632079 H 15.40351 l -14.76894184,0 H 0.01917893 Z"
     id="path966"
      />
  <path
     style="opacity:1;stroke-width:0.860539"
     d="m 4.8452411,9.0804118 0,-2.3904679 11.1748509,0 v 2.3904679 z"
     id="rect18782"
     inkscape:connector-curvature="0" />
  <rect
     transform="rotate(-90)"
     id="rect968"
     width="1.9018716"
     height="6.3902216"
     x="-1.8834486"
     y="6.0311351"
     style="opacity:1;stroke-width:1.06089" />
</svg>
