<?xml version="1.0" encoding="UTF-8" standalone="no"?>
<svg
   xmlns:dc="http://purl.org/dc/elements/1.1/"
   xmlns:cc="http://creativecommons.org/ns#"
   xmlns:rdf="http://www.w3.org/1999/02/22-rdf-syntax-ns#"
   xmlns:svg="http://www.w3.org/2000/svg"
   xmlns="http://www.w3.org/2000/svg"
   xmlns:sodipodi="http://sodipodi.sourceforge.net/DTD/sodipodi-0.dtd"
   xmlns:inkscape="http://www.inkscape.org/namespaces/inkscape"
   version="1.1"
   id="svg1"
   width="16"
   height="16"
   viewBox="0 0 16 16"
   sodipodi:docname="distribute-vertical-baseline-symbolic.svg"
   inkscape:version="1.0alpha2 (e9bc48ab64, 2019-07-09)">

  
<metadata
     id="metadata3192">
    <rdf:RDF>
      <cc:Work
         rdf:about="">
        <dc:format>image/svg+xml</dc:format>
        <dc:type
           rdf:resource="http://purl.org/dc/dcmitype/StillImage" />
      </cc:Work>
    </rdf:RDF>
  </metadata>
  <defs
     id="defs3190" />
  <sodipodi:namedview
     objecttolerance="10"
     gridtolerance="10"
     guidetolerance="10"
     id="namedview"
     showgrid="true"
     inkscape:zoom="31.5625"
     inkscape:cx="8"
     inkscape:cy="8"
     inkscape:window-width="1360"
     inkscape:window-height="704"
     inkscape:window-x="0"
     inkscape:window-y="27"
     inkscape:window-maximized="1"
     inkscape:current-layer="svg1">
    <inkscape:grid
       type="xygrid"
       id="grid" />
  </sodipodi:namedview>
  <g
     transform="matrix(0.666667,0,0,0.666667,-721.33333,-523.57479)"
     inkscape:label="00288"
     id="distribute-vertical-baseline">
    <path
       inkscape:connector-curvature="0"
       id="rect19009"
       d="m 1106,804.2552 v 1.5 h -24 v -1.5 z"
       style="opacity:1;stroke-width:1.22474"
        />
    <path
       inkscape:connector-curvature="0"
       id="rect19011"
       d="m 1106,793.25764 v 1.5 h -24 v -1.5 z"
       style="opacity:1;stroke-width:1.22474"
        />
    <path
       inkscape:connector-curvature="0"
       id="rect19003"
       d="m 785.36218,-1106 h 24 v 24 h -24 z"
       style="opacity:0;fill:none"
       transform="rotate(90)" />
    <path
       id="path19005"
       d="m 1097.164,795.7771 c 0.779,-0.6285 2.102,-0.4032 2.693,0.3236 0.975,1.1007 1.257,2.5087 1.616,3.8262 0.266,1.1236 0.459,1.7687 0.527,2.9141 0.788,-1.4484 1.671,-2.5083 1.687,-4.1394 0.022,-0.8244 -0.512,-1.5233 -0.869,-2.2523 -0.295,-0.6111 0.517,-1.247 1.212,-1.0509 0.853,0.1539 0.995,1.0269 0.97,1.6529 -0.09,1.8618 -0.912,3.6899 -1.744,5.3915 -1.18,2.247 -2.868,4.3308 -5.076,5.9119 -0.869,0.5794 -3.065,1.2514 -4.15,0.9024 -2,-0.9239 -2,-2.7717 0,-2.7717 0.719,-0.3009 2.54,1.1548 3.276,1.1318 1.215,-0.008 2.081,-0.976 2.409,-1.8978 0.333,-1.2195 0.021,-2.4794 -0.185,-3.6953 -0.335,-1.5805 -0.713,-3.1931 -1.596,-4.623 -0.181,-0.5553 -1.598,-0.8854 -0.77,-1.624 z"
       style="opacity:1"
       inkscape:connector-curvature="0" />
    <path
       style="opacity:1"
       d="m 1101.349,789.7995 c -0.552,0 -0.969,0.0871 -1.25,0.2614 -0.276,0.1743 -0.415,0.4312 -0.415,0.7705 0,0.3119 0.111,0.5573 0.333,0.7361 0.227,0.1743 0.541,0.2614 0.94,0.2614 0.498,0 0.918,-0.1651 1.258,-0.4953 0.341,-0.3348 0.511,-0.7521 0.511,-1.252 v -0.2821 h -1.377 m 3.651,-1.4373 v 5 h -2 v -1.142 c -0.355,0.4678 -0.755,0.8095 -1.199,1.025 -0.444,0.211 -0.984,0.3165 -1.62,0.3165 -0.859,0 -1.831,-0.3271 -2.369,-0.7903 -0.532,-0.4678 -0.799,-1.0732 -0.799,-1.8161 0,-0.9035 0.333,-1.5662 0.999,-1.9882 0.671,-0.4219 1.722,-0.6329 3.152,-0.6329 h 1.562 v -0.1926 c 0,-0.3898 -0.166,-0.6742 -0.496,-0.8531 -0.331,-0.1834 -0.846,-0.2751 -1.547,-0.2751 -0.567,0 -1.095,0.0527 -1.583,0.1582 -0.488,0.1055 -0.942,0.2637 -1.362,0.4747 v -1.8781 c 0.568,-0.1284 1.137,-0.2247 1.71,-0.2889 0.572,-0.0688 1.144,-0.1032 1.716,-0.1032 1.495,0 1.998,0.0822 2.659,0.6325 0.666,0.5458 1.177,1.1199 1.177,2.3536"
       id="path19007"
       inkscape:connector-curvature="0" />
    <path
       style="opacity:1;stroke-width:0.833151"
       d="m 1084.5006,797.36179 2.4995,-2.49946 2.4994,2.49946 h -1.6663 v 4.16575 h 1.6663 l -2.4994,2.49945 -2.4995,-2.49945 h 1.6663 v -4.16575 z"
       id="path19013"
       inkscape:connector-curvature="0"
        />
  </g>
</svg>
