<?xml version="1.0" encoding="UTF-8" standalone="no"?>
<svg
   xmlns:dc="http://purl.org/dc/elements/1.1/"
   xmlns:cc="http://creativecommons.org/ns#"
   xmlns:rdf="http://www.w3.org/1999/02/22-rdf-syntax-ns#"
   xmlns:svg="http://www.w3.org/2000/svg"
   xmlns="http://www.w3.org/2000/svg"
   xmlns:sodipodi="http://sodipodi.sourceforge.net/DTD/sodipodi-0.dtd"
   xmlns:inkscape="http://www.inkscape.org/namespaces/inkscape"
   version="1.1"
   id="svg1"
   width="16"
   height="16"
   viewBox="0 0 16 16"
   sodipodi:docname="distribute-horizontal-node-symbolic.svg"
   inkscape:version="1.0alpha2 (e9bc48ab64, 2019-07-09)">

  
<metadata
     id="metadata2876">
    <rdf:RDF>
      <cc:Work
         rdf:about="">
        <dc:format>image/svg+xml</dc:format>
        <dc:type
           rdf:resource="http://purl.org/dc/dcmitype/StillImage" />
      </cc:Work>
    </rdf:RDF>
  </metadata>
  <defs
     id="defs2874" />
  <sodipodi:namedview
     inkscape:snap-global="false"
     objecttolerance="10"
     gridtolerance="10"
     guidetolerance="10"
     id="namedview"
     showgrid="true"
     inkscape:zoom="31.5625"
     inkscape:cx="8"
     inkscape:cy="8"
     inkscape:window-width="1360"
     inkscape:window-height="704"
     inkscape:window-x="0"
     inkscape:window-y="27"
     inkscape:window-maximized="1"
     inkscape:current-layer="svg1">
    <inkscape:grid
       type="xygrid"
       id="grid" />
  </sodipodi:namedview>
  <g
     transform="matrix(0.66653,0,0,0.666667,-770.50586,-574.24147)"
     inkscape:label="00297"
     id="distribute-horizontal-node">
    <g
       id="g19929"
       transform="rotate(-90,1168,873.3622)">
      <g
         inkscape:label="#node_valign"
         id="g19905"
         transform="translate(112)">
        <path
           inkscape:connector-curvature="0"
           id="path19907"
           d="m 1055.0059,861.36328 v 0.5 22.99414 0.5 h 1 v -0.5 -22.99414 -0.5 z"
           style="opacity:1" />
        <path
           inkscape:connector-curvature="0"
           id="path19909"
           d="m 1044.4941,861.35742 a 0.49987859,0.49987859 0 0 0 -0.3632,0.83008 c 0.9066,1.05826 2.5515,1.56921 4.4804,1.98242 1.929,0.41321 4.1641,0.68588 6.2403,1.0332 2.0762,0.34733 3.9964,0.78069 5.2285,1.43165 0.616,0.32547 1.0485,0.69562 1.2851,1.10351 0.2367,0.40789 0.3117,0.86435 0.1524,1.50195 -0.085,0.34012 -0.3248,0.62343 -0.7871,0.89649 -0.4629,0.27339 -1.1314,0.50623 -1.9297,0.69922 -1.5966,0.38597 -3.7026,0.62227 -5.8125,0.96875 -2.1099,0.34647 -4.2277,0.79859 -5.9063,1.68359 -1.6786,0.885 -2.9334,2.28462 -3.0703,4.33789 -0.054,0.81519 0.2478,1.54084 0.7832,2.07617 0.5354,0.53534 1.2748,0.90597 2.1524,1.19727 a 0.49987859,0.49987859 0 0 0 0,0.002 c 1.7561,0.58257 4.0996,0.84228 6.6289,1.0625 2.5303,0.22013 5.2432,0.39232 7.6777,0.75586 a 0.49987859,0.49987859 0 1 0 0.1465,-0.98828 c -2.4955,-0.37266 -5.2246,-0.545 -7.7383,-0.76367 -2.5127,-0.21878 -4.8165,-0.49019 -6.4004,-1.01563 -0.7914,-0.2627 -1.3926,-0.58994 -1.7597,-0.95703 -0.3667,-0.36661 -0.5286,-0.74741 -0.4922,-1.30273 v -0.002 c 0.1137,-1.69463 1.0459,-2.73337 2.5371,-3.51953 1.4917,-0.78648 3.5279,-1.23922 5.6035,-1.58007 2.0756,-0.34086 4.1859,-0.57367 5.8848,-0.98438 0.8494,-0.20535 1.5981,-0.45322 2.2031,-0.81055 0.605,-0.35732 1.0852,-0.85457 1.25,-1.51367 0.2092,-0.83737 0.1083,-1.61498 -0.2578,-2.24609 -0.3662,-0.63111 -0.9631,-1.10566 -1.6836,-1.48633 -1.4411,-0.76134 -3.425,-1.17889 -5.5313,-1.53125 -2.1063,-0.35236 -4.3331,-0.62843 -6.1953,-1.02734 -1.8622,-0.39891 -3.3374,-0.96296 -3.9297,-1.6543 a 0.49987859,0.49987859 0 0 0 -0.3965,-0.17969 z"
           style="opacity:1;stroke-linecap:round" />
        <path
           inkscape:connector-curvature="0"
           id="rect19911"
           d="m 1053,862.36218 h 5 v 4.99999 h -5 z"
           style="opacity:1" />
        <path
           inkscape:connector-curvature="0"
           id="rect19913"
           d="m 1053,870.36218 h 5 v 4.99999 h -5 z"
           style="opacity:1" />
        <path
           inkscape:connector-curvature="0"
           id="rect19915"
           d="m 1053,879.36218 h 5 v 4.99999 h -5 z"
           style="opacity:1" />
        <path
           inkscape:connector-curvature="0"
           id="rect19917"
           d="m 1044,861.36218 h 24 v 24 h -24 z"
           style="opacity:0;fill:none" />
      </g>
      <path
         inkscape:connector-curvature="0"
         id="rect19919"
         d="m 1169.9591,864.25944 h 10 v 1.50031 h -10 z"
         style="opacity:1;stroke-width:1.22487"
          />
      <path
         inkscape:connector-curvature="0"
         id="rect19921"
         d="m 1170,872.36218 h 10 v 1.50031 h -10 z"
         style="opacity:1;stroke-width:1.22487"
          />
      <path
         inkscape:connector-curvature="0"
         id="rect19923"
         d="m 1170,881.36218 h 10 v 1.50031 h -10 z"
         style="opacity:1;stroke-width:1.22487"
          />
      <path
         sodipodi:nodetypes="ccccccccccc"
         id="path19925"
         d="m 1175.968,875.96017 1.532,-2 1.468,2 H 1178 v 3.40203 h 1 l -1.5,2 -1.5,-2 h 1 v -3.40203 z"
         style="opacity:1"
         inkscape:connector-curvature="0"
          />
      <path
         sodipodi:nodetypes="ccccccccccc"
         inkscape:connector-curvature="0"
         style="opacity:1"
         d="m 1175.968,867.87585 1.532,-2 1.468,2 H 1178 v 2.48635 h 1 l -1.5,2 -1.5,-2 h 1 v -2.48635 z"
         id="path19927"
          />
    </g>
  </g>
</svg>
