<?xml version='1.0' encoding='UTF-8'?>
<!-- Created with Inkscape (http://www.inkscape.org/) and export_objects.py -->
<svg xmlns:cc="http://creativecommons.org/ns#" xmlns:dc="http://purl.org/dc/elements/1.1/" xmlns:inkscape="http://www.inkscape.org/namespaces/inkscape" xmlns:rdf="http://www.w3.org/1999/02/22-rdf-syntax-ns#" xmlns:sodipodi="http://sodipodi.sourceforge.net/DTD/sodipodi-0.dtd" xmlns:xlink="http://www.w3.org/1999/xlink" xmlns="http://www.w3.org/2000/svg" version="1.1" id="svg1" width="16" height="16" viewBox="0 0 16 16" sodipodi:docname="document-import-ocal-symbolic.svg">
<sodipodi:namedview objecttolerance="10" gridtolerance="10" guidetolerance="10" id="namedview" showgrid="true" inkscape:zoom="0.6002936" inkscape:cx="732.67439" inkscape:cy="-567.94603" inkscape:window-width="1920" inkscape:window-height="1016" inkscape:window-x="0" inkscape:window-y="27" inkscape:window-maximized="1" inkscape:current-layer="layer1">
    <inkscape:grid type="xygrid" id="grid"/>
  </sodipodi:namedview>
  <g id="document-import-ocal" inkscape:label="00007">
      <path inkscape:connector-curvature="0" id="rect36698" d="M 0,0 H 16 V 16 H 0 Z" style="opacity:0;fill:none"/>
      <g id="g36700" transform="matrix(0.0516129,0,0,0.0516129,-2.732087,-2.70722)">
        <path inkscape:connector-curvature="0" id="rect36702" d="M 52.934181,72.452408 H 362.93418 V 362.45241 H 52.934181 Z" style="opacity:0;fill:none"/>
        <g id="g36704">
          <path inkscape:connector-curvature="0" d="m 71.46756,319.058 c 2.16608,0 4.11753,0.361 5.85433,1.083 1.75628,0.7221 3.23938,1.7466 4.4493,3.0736 1.22938,1.327 2.16608,2.9369 2.81008,4.8298 0.66346,1.8734 0.99521,3.9712 0.99524,6.2934 -3e-5,2.3417 -0.33178,4.4493 -0.99524,6.3227 -0.644,1.8734 -1.5807,3.4736 -2.81008,4.8005 -1.20992,1.327 -2.69302,2.3515 -4.4493,3.0736 -1.7368,0.7025 -3.68825,1.0537 -5.85433,1.0537 -2.16612,0 -4.12732,-0.3512 -5.88361,-1.0537 -1.7368,-0.7221 -3.21989,-1.7466 -4.4493,-3.0736 -1.22941,-1.327 -2.17586,-2.9271 -2.83935,-4.8005 -0.66349,-1.8734 -0.99524,-3.981 -0.99524,-6.3227 0,-2.3222 0.33175,-4.42 0.99524,-6.2934 0.66349,-1.8929 1.60994,-3.5028 2.83935,-4.8298 1.22941,-1.327 2.7125,-2.3515 4.4493,-3.0736 1.75629,-0.722 3.71749,-1.083 5.88361,-1.083 m 0,26.4616 c 2.92714,0 5.11276,-0.9758 6.55686,-2.9272 1.44404,-1.971 2.16607,-4.7127 2.1661,-8.2253 -3e-5,-3.5321 -0.72206,-6.2837 -2.1661,-8.2547 -1.4441,-1.9709 -3.62972,-2.9564 -6.55686,-2.9564 -1.48312,0 -2.77107,0.2537 -3.86387,0.7611 -1.09281,0.5074 -2.00999,1.2392 -2.75154,2.1953 -0.72203,0.9563 -1.26844,2.1369 -1.63921,3.5419 -0.35127,1.3856 -0.5269,2.9565 -0.52689,4.7128 -1e-5,1.7563 0.17562,3.3272 0.52689,4.7127 0.37077,1.3855 0.91718,2.5564 1.63921,3.5126 0.74155,0.9367 1.65873,1.6587 2.75154,2.1661 1.0928,0.5074 2.38075,0.7611 3.86387,0.7611" id="path36706"/>
          <path inkscape:connector-curvature="0" d="m 93.13468,359.2187 v -39.6924 h 3.1028 c 0.74154,0 1.20989,0.3611 1.40504,1.0831 l 0.43907,3.5126 c 1.26844,-1.5416 2.71251,-2.7808 4.33221,-3.7175 1.6392,-0.9367 3.5223,-1.405 5.6494,-1.4051 1.6978,1e-4 3.2394,0.3318 4.625,0.9953 1.3855,0.644 2.5661,1.6099 3.5418,2.8979 0.9757,1.2684 1.727,2.8491 2.254,4.742 0.5268,1.8929 0.7903,4.0688 0.7903,6.5276 0,2.1856 -0.2928,4.2249 -0.8782,6.1177 -0.5854,1.8734 -1.4245,3.5029 -2.5173,4.8884 -1.0929,1.366 -2.4393,2.4491 -4.0395,3.2492 -1.5807,0.7805 -3.3663,1.1708 -5.3567,1.1708 -1.8344,0 -3.4053,-0.3024 -4.7128,-0.9074 -1.2879,-0.6049 -2.42953,-1.4636 -3.42476,-2.5759 v 13.1137 h -5.21036 m 13.20152,-36.0041 c -1.6978,0 -3.1906,0.3903 -4.4786,1.1708 -1.2684,0.7806 -2.43928,1.8832 -3.51256,3.3077 v 14.3431 c 0.9562,1.288 2.00026,2.1954 3.13206,2.7223 1.1514,0.5269 2.4295,0.7903 3.8346,0.7903 2.7515,0 4.8688,-0.9854 6.352,-2.9564 1.483,-1.9709 2.2246,-4.781 2.2246,-8.4302 0,-1.932 -0.1757,-3.5907 -0.5269,-4.9762 -0.3318,-1.3855 -0.8196,-2.5174 -1.4636,-3.3955 -0.644,-0.8977 -1.4343,-1.5514 -2.371,-1.9612 -0.9367,-0.4098 -2.0002,-0.6147 -3.1906,-0.6147" id="path36708"/>
          <path inkscape:connector-curvature="0" d="m 138.4268,319.058 c 1.7758,0 3.415,0.3025 4.9176,0.9074 1.5026,0.5855 2.8003,1.4441 3.8932,2.5759 1.0928,1.1124 1.9416,2.4979 2.5466,4.1566 0.6244,1.6392 0.9367,3.5126 0.9367,5.6201 0,0.8197 -0.088,1.3661 -0.2634,1.6393 -0.1757,0.2732 -0.5074,0.4098 -0.9953,0.4098 h -19.7291 c 0.039,1.8734 0.2927,3.5028 0.7611,4.8883 0.4683,1.3856 1.1123,2.5467 1.9319,3.4834 0.8196,0.9171 1.7953,1.6099 2.9272,2.0783 1.1318,0.4488 2.4002,0.6732 3.8053,0.6732 1.3074,0 2.4295,-0.1464 3.3662,-0.4391 0.9562,-0.3122 1.7758,-0.6439 2.4589,-0.9952 0.6829,-0.3513 1.2489,-0.6733 1.6977,-0.966 0.4683,-0.3122 0.8684,-0.4683 1.2001,-0.4683 0.4294,0 0.7611,0.1659 0.9953,0.4976 l 1.4636,1.9027 c -0.644,0.7805 -1.4148,1.4635 -2.3125,2.049 -0.8977,0.5659 -1.8637,1.0342 -2.8979,1.405 -1.0148,0.3708 -2.0685,0.644 -3.1613,0.8196 -1.0928,0.1952 -2.1759,0.2927 -3.2492,0.2927 -2.049,0 -3.9419,-0.3415 -5.6787,-1.0245 -1.7173,-0.7025 -3.2101,-1.7172 -4.4785,-3.0442 -1.249,-1.3465 -2.2247,-3.0052 -2.9272,-4.9762 -0.7025,-1.971 -1.0538,-4.2346 -1.0538,-6.791 0,-2.0686 0.3122,-4.0005 0.9367,-5.7958 0.644,-1.7953 1.5611,-3.3467 2.7515,-4.6542 1.1904,-1.327 2.6442,-2.3613 4.3615,-3.1028 1.7173,-0.7611 3.6492,-1.1416 5.7958,-1.1416 m 0.1171,3.8346 c -2.5174,0 -4.4981,0.7318 -5.9422,2.1953 -1.444,1.4441 -2.3417,3.4541 -2.693,6.03 h 16.1287 c 0,-1.2099 -0.1659,-2.3124 -0.4976,-3.3077 -0.3317,-1.0147 -0.8196,-1.8831 -1.4636,-2.6052 -0.644,-0.7415 -1.4343,-1.3074 -2.371,-1.6977 -0.9172,-0.4098 -1.9709,-0.6147 -3.1613,-0.6147" id="path36710"/>
          <path inkscape:connector-curvature="0" d="m 158.6422,349.1785 v -29.6522 h 3.1028 c 0.7416,0 1.2099,0.3611 1.4051,1.0831 l 0.4098,3.2199 c 1.2879,-1.4246 2.7222,-2.5759 4.3029,-3.4541 1.6002,-0.8781 3.4443,-1.3172 5.5324,-1.3172 1.6196,0 3.0442,0.2732 4.2736,0.8196 1.2489,0.5269 2.2832,1.288 3.1028,2.2832 0.8391,0.9757 1.4733,2.1563 1.9027,3.5418 0.4293,1.3856 0.6439,2.9175 0.644,4.5957 v 18.8802 h -5.2104 v -18.8802 c 0,-2.2441 -0.5172,-3.9809 -1.5514,-5.2104 -1.0148,-1.2489 -2.5759,-1.8733 -4.6835,-1.8733 -1.5416,0 -2.9857,0.3708 -4.3322,1.1123 -1.327,0.7415 -2.5564,1.7465 -3.6882,3.015 v 21.8366 h -5.2104" id="path36712"/>
          <path inkscape:connector-curvature="0" d="m 212.5375,324.7952 c -0.1562,0.2147 -0.3123,0.3806 -0.4684,0.4976 -0.1561,0.1171 -0.3805,0.1757 -0.6732,0.1757 -0.2928,0 -0.6147,-0.1171 -0.966,-0.3513 -0.3318,-0.2537 -0.7611,-0.5269 -1.2879,-0.8196 -0.527,-0.2927 -1.1709,-0.5561 -1.932,-0.7903 -0.7415,-0.2537 -1.6587,-0.3805 -2.7515,-0.3806 -1.4441,10e-5 -2.7223,0.2635 -3.8346,0.7904 -1.1123,0.5074 -2.049,1.2489 -2.8101,2.2246 -0.7415,0.9758 -1.3075,2.1564 -1.6977,3.5419 -0.3708,1.3855 -0.5562,2.9369 -0.5562,4.6542 0,1.7953 0.2049,3.3955 0.6147,4.8005 0.4098,1.3856 0.9855,2.5564 1.727,3.5126 0.7416,0.9367 1.6392,1.6588 2.693,2.1661 1.0733,0.4879 2.2734,0.7318 3.6004,0.7318 1.2685,0 2.3125,-0.1463 3.1321,-0.439 0.8196,-0.3123 1.5026,-0.6538 2.049,-1.0245 0.5464,-0.3708 0.9952,-0.7026 1.3465,-0.9953 0.3513,-0.3122 0.7025,-0.4683 1.0538,-0.4683 0.4488,0 0.7806,0.1658 0.9952,0.4976 l 1.4636,1.9026 c -1.2879,1.5807 -2.8979,2.7418 -4.8298,3.4834 -1.9319,0.722 -3.9712,1.083 -6.1178,1.083 -1.8539,0 -3.5809,-0.3415 -5.1811,-1.0245 -1.5806,-0.683 -2.9564,-1.6685 -4.1273,-2.9564 -1.1708,-1.3075 -2.0978,-2.9077 -2.7808,-4.8006 -0.6635,-1.8929 -0.9952,-4.0492 -0.9952,-6.469 0,-2.2051 0.3025,-4.2444 0.9074,-6.1178 0.6245,-1.8734 1.5221,-3.4833 2.693,-4.8298 1.1904,-1.366 2.654,-2.4295 4.3908,-3.1906 1.7367,-0.7611 3.7272,-1.1416 5.9714,-1.1416 2.0685,0 3.9028,0.3415 5.5031,1.0245 1.6001,0.6635 3.0149,1.6099 4.2443,2.8393 l -1.3757,1.8734" id="path36714"/>
          <path inkscape:connector-curvature="0" d="m 226.6296,306.0613 v 43.1172 h -5.2103 v -43.1172 h 5.2103" id="path36716"/>
          <path inkscape:connector-curvature="0" d="m 242.8037,319.5263 v 29.6522 h -5.2103 v -29.6522 h 5.2103 m 1.1709,-9.3084 c 0,0.5074 -0.1073,0.9855 -0.322,1.4343 -0.1951,0.4294 -0.4683,0.8197 -0.8196,1.1709 -0.3317,0.3318 -0.722,0.5952 -1.1708,0.7903 -0.4489,0.1952 -0.927,0.2928 -1.4344,0.2928 -0.5073,0 -0.9854,-0.098 -1.4343,-0.2928 -0.4293,-0.1951 -0.8196,-0.4585 -1.1708,-0.7903 -0.3318,-0.3512 -0.5952,-0.7415 -0.7904,-1.1709 -0.1951,-0.4488 -0.2927,-0.9269 -0.2927,-1.4343 0,-0.5073 0.098,-0.9854 0.2927,-1.4343 0.1952,-0.4683 0.4586,-0.8683 0.7904,-1.2001 0.3512,-0.3512 0.7415,-0.6244 1.1708,-0.8196 0.4489,-0.1951 0.927,-0.2927 1.4343,-0.2927 0.5074,0 0.9855,0.098 1.4344,0.2927 0.4488,0.1952 0.8391,0.4684 1.1708,0.8196 0.3513,0.3318 0.6245,0.7318 0.8196,1.2001 0.2147,0.4489 0.322,0.927 0.322,1.4343" id="path36718"/>
          <path inkscape:connector-curvature="0" d="m 253.1821,359.2187 v -39.6924 h 3.1028 c 0.7415,0 1.2098,0.3611 1.405,1.0831 l 0.4391,3.5126 c 1.2684,-1.5416 2.7125,-2.7808 4.3322,-3.7175 1.6392,-0.9367 3.5223,-1.405 5.6494,-1.4051 1.6978,1e-4 3.2394,0.3318 4.6249,0.9953 1.3855,0.644 2.5662,1.6099 3.5419,2.8979 0.9757,1.2684 1.727,2.8491 2.2539,4.742 0.5269,1.8929 0.7903,4.0688 0.7904,6.5276 -1e-4,2.1856 -0.2928,4.2249 -0.8782,6.1177 -0.5854,1.8734 -1.4246,3.5029 -2.5173,4.8884 -1.0929,1.366 -2.4394,2.4491 -4.0395,3.2492 -1.5807,0.7805 -3.3663,1.1708 -5.3568,1.1708 -1.8343,0 -3.4052,-0.3024 -4.7127,-0.9074 -1.288,-0.6049 -2.4296,-1.4636 -3.4248,-2.5759 v 13.1137 h -5.2103 m 13.2015,-36.0041 c -1.6978,0 -3.1906,0.3903 -4.4786,1.1708 -1.2684,0.7806 -2.4393,1.8832 -3.5126,3.3077 v 14.3431 c 0.9562,1.288 2.0002,2.1954 3.1321,2.7223 1.1513,0.5269 2.4295,0.7903 3.8346,0.7903 2.7515,0 4.8688,-0.9854 6.3519,-2.9564 1.4831,-1.9709 2.2247,-4.781 2.2247,-8.4302 0,-1.932 -0.1757,-3.5907 -0.5269,-4.9762 -0.3318,-1.3855 -0.8196,-2.5174 -1.4636,-3.3955 -0.644,-0.8977 -1.4343,-1.5514 -2.371,-1.9612 -0.9367,-0.4098 -2.0002,-0.6147 -3.1906,-0.6147" id="path36720"/>
          <path inkscape:connector-curvature="0" d="m 308.5144,349.1785 h -2.3125 c -0.5074,0 -0.9172,-0.078 -1.2294,-0.2341 -0.3122,-0.1562 -0.5172,-0.4879 -0.6147,-0.9953 l -0.5854,-2.7515 c -0.7806,0.7025 -1.5417,1.3367 -2.2832,1.9026 -0.7416,0.5465 -1.5222,1.0148 -2.3418,1.4051 -0.8196,0.3708 -1.6977,0.6537 -2.6344,0.8488 -0.9172,0.1952 -1.9417,0.2928 -3.0735,0.2928 -1.1514,0 -2.2345,-0.1561 -3.2492,-0.4684 -0.9952,-0.3317 -1.8636,-0.8196 -2.6052,-1.4636 -0.7415,-0.6439 -1.3367,-1.4538 -1.7855,-2.4295 -0.4294,-0.9952 -0.644,-2.1661 -0.644,-3.5126 0,-1.1709 0.322,-2.2929 0.966,-3.3663 0.6439,-1.0928 1.6782,-2.0587 3.1027,-2.8979 1.4441,-0.839 3.3272,-1.5221 5.6495,-2.049 2.3222,-0.5464 5.1615,-0.8586 8.518,-0.9367 v -2.3124 c 0,-2.3027 -0.4976,-4.0395 -1.4928,-5.2104 -0.9758,-1.1903 -2.4296,-1.7855 -4.3615,-1.7856 -1.2685,1e-4 -2.3417,0.1659 -3.2199,0.4977 -0.8586,0.3122 -1.6099,0.6732 -2.2539,1.083 -0.6245,0.3903 -1.1709,0.7513 -1.6392,1.0831 -0.4489,0.3122 -0.8977,0.4683 -1.3465,0.4683 -0.3513,0 -0.6635,-0.088 -0.9367,-0.2634 -0.2537,-0.1952 -0.4586,-0.4293 -0.6147,-0.7026 l -0.9367,-1.6684 c 1.6392,-1.5807 3.4052,-2.7613 5.2982,-3.5419 1.8929,-0.7806 3.9906,-1.1708 6.2934,-1.1709 1.6587,1e-4 3.132,0.2733 4.42,0.8196 1.2879,0.5465 2.371,1.3075 3.2492,2.2832 0.8781,0.9758 1.5416,2.1564 1.9904,3.5419 0.4488,1.3855 0.6733,2.9077 0.6733,4.5664 v 18.968 m -13.5235,-3.1906 c 0.9171,0 1.7563,-0.088 2.5173,-0.2634 0.7611,-0.1952 1.4734,-0.4586 2.1369,-0.7904 0.6829,-0.3512 1.3269,-0.7708 1.9319,-1.2587 0.6244,-0.4878 1.2294,-1.044 1.8148,-1.6684 v -6.1764 c -2.4003,0.078 -4.4395,0.2733 -6.1177,0.5855 -1.6783,0.2927 -3.0443,0.683 -4.0981,1.1708 -1.0538,0.4879 -1.8246,1.0636 -2.3124,1.7271 -0.4684,0.6635 -0.7026,1.405 -0.7026,2.2246 0,0.7806 0.1269,1.4539 0.3806,2.0198 0.2536,0.5659 0.5952,1.0342 1.0245,1.405 0.4293,0.3513 0.9367,0.6147 1.5221,0.7903 0.5854,0.1562 1.2197,0.2342 1.9027,0.2342" id="path36722"/>
          <path inkscape:connector-curvature="0" d="m 317.6605,349.1785 v -29.6522 h 2.9857 c 0.566,0 0.9563,0.1074 1.1709,0.322 0.2147,0.2147 0.361,0.5855 0.4391,1.1123 l 0.3512,4.6249 c 1.0148,-2.0685 2.2637,-3.6784 3.7468,-4.8298 1.5026,-1.1708 3.2589,-1.7562 5.2689,-1.7563 0.8196,1e-4 1.5612,0.098 2.2247,0.2927 0.6634,0.1757 1.2782,0.4294 1.8441,0.7611 l -0.6733,3.8931 c -0.1366,0.4879 -0.4391,0.7318 -0.9074,0.7318 -0.2732,0 -0.6928,-0.088 -1.2587,-0.2634 -0.5659,-0.1951 -1.3562,-0.2927 -2.371,-0.2927 -1.8148,0 -3.337,0.5269 -4.5664,1.5806 -1.2099,1.0538 -2.2246,2.5857 -3.0442,4.5957 v 18.8802 h -5.2104" id="path36724"/>
          <path inkscape:connector-curvature="0" d="m 351.3967,349.6469 c -2.3417,0 -4.1468,-0.6538 -5.4152,-1.9612 -1.2489,-1.3075 -1.8734,-3.1906 -1.8734,-5.6495 v -18.1484 h -3.5711 c -0.3123,0 -0.5757,-0.088 -0.7904,-0.2634 -0.2146,-0.1952 -0.322,-0.4879 -0.322,-0.8782 v -2.0783 l 4.8591,-0.6147 1.2002,-9.162 c 0.039,-0.2927 0.1658,-0.5269 0.3805,-0.7025 0.2147,-0.1951 0.4879,-0.2927 0.8196,-0.2928 h 2.6345 v 10.2159 h 8.4888 v 3.776 h -8.4888 v 17.7972 c 0,1.2489 0.3024,2.1759 0.9074,2.7808 0.6049,0.6049 1.3855,0.9074 2.3417,0.9074 0.5464,0 1.0148,-0.068 1.4051,-0.2049 0.4098,-0.1561 0.761,-0.322 1.0537,-0.4976 0.2927,-0.1756 0.5367,-0.3317 0.7318,-0.4684 0.2147,-0.1561 0.4,-0.2341 0.5562,-0.2341 0.2732,0 0.5171,0.1659 0.7318,0.4976 l 1.5221,2.4881 c -0.8977,0.8391 -1.9807,1.5026 -3.2492,1.9905 -1.2684,0.4683 -2.5759,0.7025 -3.9224,0.7025" id="path36726"/>
        </g>
        <path style="opacity:1" d="m 98.91514,75.68813 c -16.44957,-0.14125 -33.33875,7.08437 -38.2833,20.5713 -7.34821,16.27277 4.44382,35.28397 24.57962,41.14267 0.0643,0.017 0.15755,-0.016 0.21694,0 21.9585,7.9366 49.2877,11.8121 73.0865,36.4357 l 8.9183,9.2396 -8.0482,8.1937 c -23.8677,24.5816 -51.1055,28.3635 -73.08656,36.2613 -0.048,0.024 -0.16106,-0.024 -0.21697,0 -20.08023,5.8018 -31.72655,24.7212 -24.57956,40.9683 0.025,0.048 -0.025,0.1237 0,0.1742 6.10887,16.4418 30.1016,23.7208 49.37689,19.351 0.064,-0.012 0.152,0.012 0.2169,0 19.7409,-3.4414 35.904,-19.5033 31.3228,-35.7383 -2.2602,-8.0101 -5.1525,-11.7296 -7.8306,-13.9467 -1.3392,-1.1085 -2.5077,-1.8009 -3.2628,-2.4406 -0.755,-0.6397 -3.932,-2.4204 -3.932,-2.4204 1.9658,-1.4308 3.1141,-2.1077 4.8017,-3.1582 2.5214,-1.6431 6.9262,-3.6619 12.6161,-6.1017 11.2801,-4.8369 27.8928,-11.6662 46.9841,-22.6634 34.5292,19.6275 79.3941,45.0469 104.1915,59.0987 24.7974,14.0519 50.1775,6.9647 60.6878,0.5227 L 223.6884,183.1203 357.4356,104.2999 c -20.7303,-12.78477 -44.3864,-7.37089 -60.144,0.3268 -35.0332,19.8694 -70.1778,39.6441 -105.2791,59.4473 -16.0058,-8.7485 -33.1811,-16.7697 -48.071,-23.1863 -5.6952,-2.4537 -10.0897,-4.4507 -12.6161,-6.1017 -1.2633,-0.8255 -4.4591,-2.615 -4.4591,-2.615 2.9215,-1.7028 6.0172,-4.8406 8.2659,-7.2348 2.2489,-2.3942 4.8956,-5.9398 6.417,-12.1162 4.0224,-16.33059 -11.5896,-32.4356 -31.3229,-35.91266 -3.8138,-0.84394 -7.9348,-0.96797 -11.31064,-1.22028 z m -2.17507,13.77231 c 7.34253,-0.34487 14.92053,1.66319 19.79423,5.57867 7.3015,5.86589 8.6922,13.94569 5.873,20.57129 -2.8193,6.6258 -9.5767,11.5234 -19.1417,11.506 h -0.217 c -8.76711,0.4062 -17.31734,-3.6434 -22.4045,-9.5883 -5.08701,-5.9449 -6.53717,-13.3385 -1.52254,-19.69966 v -0.17448 c 3.46452,-5.27748 10.28137,-7.84907 17.61903,-8.19363 z m 5.65543,148.35766 c 0.6504,-0.012 1.3216,-0.024 1.7401,0 9.5665,-5e-4 16.339,4.8824 19.1417,11.5059 2.8029,6.6235 1.4453,14.7181 -5.873,20.5714 -4.879,3.9022 -12.6658,6.0977 -20.01167,5.7529 -7.34599,-0.3448 -13.95071,-3.0829 -17.40159,-8.368 l -0.21695,-0.1742 c -4.83904,-6.169 -3.43406,-13.1483 1.30513,-19.0023 4.73908,-5.854 12.86737,-10.1629 21.31688,-10.2857 z" id="path36728" inkscape:connector-curvature="0"/>
      </g>
    </g>
    </svg>
