<?xml version='1.0' encoding='UTF-8'?>
<!-- Created with Inkscape (http://www.inkscape.org/) and export_objects.py -->
<svg xmlns:cc="http://creativecommons.org/ns#" xmlns:dc="http://purl.org/dc/elements/1.1/" xmlns:inkscape="http://www.inkscape.org/namespaces/inkscape" xmlns:rdf="http://www.w3.org/1999/02/22-rdf-syntax-ns#" xmlns:sodipodi="http://sodipodi.sourceforge.net/DTD/sodipodi-0.dtd" xmlns:xlink="http://www.w3.org/1999/xlink" xmlns="http://www.w3.org/2000/svg" version="1.1" id="svg1" width="16" height="16" viewBox="0 0 16 16" sodipodi:docname="exchange-positions-zorder-symbolic.svg">
<sodipodi:namedview objecttolerance="10" gridtolerance="10" guidetolerance="10" id="namedview" showgrid="true" inkscape:zoom="0.6002936" inkscape:cx="732.67439" inkscape:cy="-567.94603" inkscape:window-width="1920" inkscape:window-height="1016" inkscape:window-x="0" inkscape:window-y="27" inkscape:window-maximized="1" inkscape:current-layer="layer1">
    <inkscape:grid type="xygrid" id="grid"/>
  </sodipodi:namedview>
  <g transform="scale(0.666667)" id="exchange-positions-zorder" inkscape:label="00361">
      <title id="title40837">exchange-positions-zorder</title>
      <path inkscape:connector-curvature="0" id="rect40839" d="M 0,0 H 24 V 24 H 0 Z" style="opacity:0;fill:none"/>
      <path inkscape:connector-curvature="0" id="path40841" d="m 2.5,16 -2,2 H 2 v 6 h 1 v -6 h 1.5 z" style="opacity:1"/>
      <path inkscape:connector-curvature="0" id="path40843" d="m 5,16 v 6 H 3.5 l 2,2 2,-2 H 6 v -6 z" style="opacity:1"/>
      <path inkscape:connector-curvature="0" id="rect40849" d="m 5,0 h 7 c 0.554,0 1,0.446 1,1 v 7 c 0,0.554 -0.446,1 -1,1 H 5 C 4.446,9 4,8.554 4,8 V 1 C 4,0.446 4.446,0 5,0 Z" style="opacity:1"/>
      <path inkscape:connector-curvature="0" id="rect40851" d="m 15,10 h 7 c 0.554,0 1,0.446 1,1 v 7 c 0,0.554 -0.446,1 -1,1 h -7 c -0.554,0 -1,-0.446 -1,-1 v -7 c 0,-0.554 0.446,-1 1,-1 z" style="opacity:1"/>
      <path id="path40863-8" d="m 14,3 v 1 h 3 a 1,1 0 0 1 1,1 V 6 H 16 L 18.5,9 21,6 H 19 V 5 A 2,2 0 0 0 17,3 Z" style="opacity:1" inkscape:connector-curvature="0"/>
      <path inkscape:connector-curvature="0" style="opacity:1" d="M 13,16 V 15 H 10 A 1,1 0 0 1 9,14 v -1 h 2 L 8.5,10 6,13 h 2 v 1 a 2,2 0 0 0 2,2 z" id="path40889-5"/>
    </g>
    </svg>
