<?xml version='1.0' encoding='UTF-8'?>
<!-- Created with Inkscape (http://www.inkscape.org/) and export_objects.py -->
<svg xmlns:cc="http://creativecommons.org/ns#" xmlns:dc="http://purl.org/dc/elements/1.1/" xmlns:inkscape="http://www.inkscape.org/namespaces/inkscape" xmlns:rdf="http://www.w3.org/1999/02/22-rdf-syntax-ns#" xmlns:sodipodi="http://sodipodi.sourceforge.net/DTD/sodipodi-0.dtd" xmlns:xlink="http://www.w3.org/1999/xlink" xmlns="http://www.w3.org/2000/svg" version="1.1" id="svg1" width="16" height="16" viewBox="0 0 16 16" sodipodi:docname="symbols-symbolic.svg">
<sodipodi:namedview objecttolerance="10" gridtolerance="10" guidetolerance="10" id="namedview" showgrid="true" inkscape:zoom="0.6002936" inkscape:cx="732.67439" inkscape:cy="-567.94603" inkscape:window-width="1920" inkscape:window-height="1016" inkscape:window-x="0" inkscape:window-y="27" inkscape:window-maximized="1" inkscape:current-layer="layer1">
    <inkscape:grid type="xygrid" id="grid"/>
  </sodipodi:namedview>
  <g transform="matrix(1,0,0,0.999973,0,4.3e-4)" id="symbols" inkscape:label="00072">
      <path inkscape:connector-curvature="0" style="opacity:1" d="M 8.0312,4.254784e-4 C 5.9057,0.019425 3.7732,0.3619158 1.625,0.9691994 2.5509,3.398935 1.691,7.35043 2.2187,10.50015 2.7383,13.60316 5.6383,14.67123 8.0312,16 10.8942,14.67694 13.4674,13.10087 13.8124,10.50015 14.2313,7.344229 13.3448,4.246612 14.375,0.9691994 12.2768,0.2846178 10.1567,-0.018774 8.0312,4.254784e-4 Z m 0,2.6249305216 C 8.864,3.295038 9.5828,4.111516 10,5.46908 9.0819,6.147861 8.4753,7.376428 8.3124,8.625195 h 0.625 c 0.058,-0.269892 0.1209,-0.573085 0.25,-0.874976 1.1946,-2.790726 4.6339,-0.230494 2.7813,1.187567 -0.056,-1.267666 -0.959,-1.706053 -1.75,-0.531285 -0.049,0.073 -0.086,0.148796 -0.125,0.218694 h 0.5313 a 0.3927608,0.4062895 0 0 1 0,0.812579 H 9.8437 C 9.8577,10.00836 10.3029,10.37515 10.75,10.37515 10.249,11.70841 8.8807,11.07853 8.8437,9.437774 H 8.2812 C 8.3072,10.38265 8.6055,11.26783 9.25,11.84391 8.9492,12.42579 8.7402,13.09978 8.0312,13.34387 7.4755,13.14168 7.033,12.56579 6.8124,11.84391 7.4565,11.24703 7.739,10.36675 7.75,9.437774 H 7.1562 C 7.1192,11.07853 5.7509,11.70841 5.25,10.37515 c 0.4473,0 0.8922,-0.36679 0.9062,-0.937376 H 5.375 a 0.3927608,0.4062895 0 1 1 0,-0.812579 H 5.9062 C 5.8672,8.555197 5.8302,8.479499 5.7812,8.406501 4.9904,7.231733 4.0872,7.67012 4.0312,8.937786 2.1786,7.519725 5.618,4.959493 6.8124,7.750219 6.9417,8.05211 7.0045,8.355303 7.0624,8.625195 h 0.625 C 7.5044,7.408428 6.8829,6.20186 6.0312,5.46908 c 0.3537,-1.103371 0.9775,-2.086244 2,-2.843724 z" id="symbol-shield"/>
      <path inkscape:connector-curvature="0" id="rect48467" d="M 0,0 H 16 V 16 H 0 Z" style="opacity:0;fill:none"/>
    </g>
    </svg>
