<?xml version='1.0' encoding='UTF-8'?>
<!-- Created with Inkscape (http://www.inkscape.org/) and export_objects.py -->
<svg xmlns:cc="http://creativecommons.org/ns#" xmlns:dc="http://purl.org/dc/elements/1.1/" xmlns:inkscape="http://www.inkscape.org/namespaces/inkscape" xmlns:rdf="http://www.w3.org/1999/02/22-rdf-syntax-ns#" xmlns:sodipodi="http://sodipodi.sourceforge.net/DTD/sodipodi-0.dtd" xmlns:xlink="http://www.w3.org/1999/xlink" xmlns="http://www.w3.org/2000/svg" version="1.1" id="svg1" width="16" height="16" viewBox="0 0 16 16" sodipodi:docname="symbol-smaller-symbolic.svg">
<sodipodi:namedview objecttolerance="10" gridtolerance="10" guidetolerance="10" id="namedview" showgrid="true" inkscape:zoom="0.6002936" inkscape:cx="732.67439" inkscape:cy="-567.94603" inkscape:window-width="1920" inkscape:window-height="1016" inkscape:window-x="0" inkscape:window-y="27" inkscape:window-maximized="1" inkscape:current-layer="layer1">
    <inkscape:grid type="xygrid" id="grid"/>
  </sodipodi:namedview>
  <g id="symbol-smaller" inkscape:label="00345">
      <title id="title48483">symbol-smaller</title>
      <path inkscape:connector-curvature="0" id="rect48485" d="M 0,0 H 16 V 16 H 0 Z" style="opacity:0;fill:none"/>
      <path inkscape:connector-curvature="0" id="circle48487" d="m 7.3535156,1.03125 0.050781,1 L 8,2.0019531 8.3515625,2.0175781 8.4023438,1.0195312 8.0253906,1 H 8 7.9746094 Z m 1.8886719,1.0996094 0.5527344,0.1425781 0.3574221,0.1308594 0.34375,-0.9394531 -0.390625,-0.1425782 -0.02344,-0.00781 -0.02539,-0.00586 -0.5644535,-0.1464844 z m -3.2988281,-0.8222656 -0.025391,0.00586 -0.023438,0.00781 -0.5957031,0.21875 -0.023437,0.00781 -0.023437,0.011719 -0.021484,0.00977 0.3300781,0.6894531 0.082031,0.2207032 0.021484,-0.00781 0.5429687,-0.1992187 0.3125,-0.082031 -0.2480468,-0.96875 z m 5.0234376,1.4804687 0.384765,0.234375 0.402344,0.3007813 0.597656,-0.8007813 -0.417968,-0.3144531 -0.01953,-0.013672 -0.01953,-0.011719 -0.408203,-0.2480469 z m -6.8613282,-0.6054687 -0.019531,0.011719 -0.019531,0.013672 -0.5,0.375 -0.019531,0.013672 -0.017578,0.017578 L 3.423829,2.7109378 4.095704,3.4492191 4.179688,3.3730471 4.648438,3.0234377 4.8242188,2.9160156 4.3046875,2.0625 Z m 8.3046872,1.7597656 0.216797,0.2363281 0.349609,0.4667969 0.01367,0.019531 0.195313,-0.1464844 0.644531,-0.3925781 -0.01367,-0.021484 -0.01172,-0.019531 -0.01367,-0.019531 -0.375,-0.5 -0.01367,-0.019531 -0.01758,-0.017578 -0.234375,-0.2597657 z m -9.7949216,-0.4140625 -0.017578,0.017578 -0.013672,0.019531 -0.375,0.5 -0.013672,0.019531 -0.011719,0.019531 -0.140625,0.2324218 0.8535156,0.5175782 0.125,-0.2070313 0.3496094,-0.4667969 0.054687,-0.058594 -0.7402343,-0.671875 z M 13.4375,5.4765625 l 0.08789,0.1835937 0.201171,0.546875 0.0293,0.1113282 0.96875,-0.2480469 -0.0332,-0.1269531 -0.0059,-0.025391 -0.0078,-0.023438 -0.21875,-0.5957031 -0.0078,-0.023437 -0.01172,-0.023437 -0.101562,-0.2089843 z m -12.1152344,0.4179687 -0.00781,0.023438 -0.00586,0.025391 -0.09375,0.3632812 0.96875,0.25 0.089844,-0.3515625 0.203125,-0.5507812 -0.9394531,-0.34375 z M 13.947266,7.2480469 13.966797,7.3789062 13.998047,8 l -0.03125,0.6230469 -0.04492,0.296875 0.988281,0.1503906 0.05078,-0.3300781 0.0039,-0.025391 v -0.02539 L 15,8.0253906 14.5,8 15,7.9746094 14.964844,7.3105469 v -0.025391 l -0.0039,-0.025391 -0.02539,-0.1621094 z M 1,7.9746094 V 8 8.0253906 L 1.0214844,8.4394531 2.0195312,8.3886719 2.0019531,8 l 0.027344,-0.5585938 -1,-0.050781 z m 0.171875,1.5527344 0.1367188,0.5292972 0.00586,0.02539 0.00781,0.02344 0.15625,0.425781 L 2.4179688,10.1875 2.2734375,9.7949219 2.140625,9.2792969 Z m 12.355469,0.8105472 -0.164063,0.33789 0.902344,0.433594 0.173828,-0.361328 0.01172,-0.02344 0.0078,-0.02344 0.205078,-0.560547 -0.939453,-0.34375 z m -11.5722659,1.179687 0.2285157,0.376953 0.011719,0.01953 0.013672,0.01953 0.3359375,0.449218 L 3.3457035,11.7832 3.0234379,11.351559 2.8085942,10.998044 Z m 10.6718749,0.302734 -0.330078,0.363282 0.738281,0.671875 0.34961,-0.384766 0.01758,-0.01758 0.01367,-0.01953 0.287109,-0.384766 -0.800781,-0.597656 z m -9.330078,1.355469 0.2324219,0.208985 0.017578,0.01758 0.019531,0.01367 0.5,0.375 0.019531,0.01367 0.019531,0.01172 0.054687,0.0332 0.5195313,-0.853515 -0.03125,-0.01953 -0.46875,-0.349609 -0.2089844,-0.191406 z m 8.054687,-0.199219 -0.486328,0.296876 h -0.002 l -0.02539,0.01562 0.154297,0.253907 0.304687,0.632812 0.01758,-0.0098 0.02344,-0.0098 0.01953,-0.01367 0.537109,-0.326172 0.01953,-0.01172 0.01953,-0.01367 0.28125,-0.210938 -0.597656,-0.800781 z m -6.273437,1.378907 0.1738281,0.08398 0.023437,0.01172 0.023437,0.0078 0.5957031,0.21875 0.023438,0.0078 0.025391,0.0059 0.1621094,0.04297 0.25,-0.96875 -0.1484376,-0.03906 -0.5449218,-0.199218 -0.1503906,-0.07422 z m 4.7167969,-0.628907 -0.5898438,0.150391 -0.080078,0.01367 0.1503906,0.988281 0.109375,-0.01758 0.025391,-0.002 0.023438,-0.0078 0.6230473,-0.160156 0.02539,-0.0059 0.02344,-0.0078 0.230469,-0.08594 -0.3437506,-0.9375 z m -2.6601563,1.214844 0.125,0.01953 0.025391,0.0039 h 0.025391 L 7.9746094,15 H 8 8.0253906 L 8.2324219,14.988281 8.1816406,13.990234 8,13.998047 l -0.6210938,-0.03125 -0.09375,-0.01367 z" style="opacity:1;stroke-linecap:butt"/>
      <path inkscape:connector-curvature="0" id="circle48489" d="M 8,3 C 5.2444986,3 3,5.2444986 3,8 c 0,2.755501 2.2444986,5 5,5 2.755501,0 5,-2.244499 5,-5 C 13,5.2444986 10.755501,3 8,3 Z m 0,1 c 2.215061,0 4,1.7849387 4,4 0,2.215061 -1.784939,4 -4,4 C 5.7849387,12 4,10.215061 4,8 4,5.7849387 5.7849387,4 8,4 Z" style="opacity:1;stroke-linecap:butt"/>
      <path inkscape:connector-curvature="0" id="circle48491" d="M 12.5,8 A 4.5,4.5 0 0 1 8,12.5 4.5,4.5 0 0 1 3.5,8 4.5,4.5 0 0 1 8,3.5 4.5,4.5 0 0 1 12.5,8 Z" style="opacity:0.35"/>
    </g>
    </svg>
