<?xml version='1.0' encoding='UTF-8'?>
<!-- Created with Inkscape (http://www.inkscape.org/) and export_objects.py -->
<svg xmlns:cc="http://creativecommons.org/ns#" xmlns:dc="http://purl.org/dc/elements/1.1/" xmlns:inkscape="http://www.inkscape.org/namespaces/inkscape" xmlns:rdf="http://www.w3.org/1999/02/22-rdf-syntax-ns#" xmlns:sodipodi="http://sodipodi.sourceforge.net/DTD/sodipodi-0.dtd" xmlns:xlink="http://www.w3.org/1999/xlink" xmlns="http://www.w3.org/2000/svg" version="1.1" id="svg1" width="16" height="16" viewBox="0 0 16 16" sodipodi:docname="symbol-add-symbolic.svg">
<sodipodi:namedview objecttolerance="10" gridtolerance="10" guidetolerance="10" id="namedview" showgrid="true" inkscape:zoom="0.6002936" inkscape:cx="732.67439" inkscape:cy="-567.94603" inkscape:window-width="1920" inkscape:window-height="1016" inkscape:window-x="0" inkscape:window-y="27" inkscape:window-maximized="1" inkscape:current-layer="layer1">
    <inkscape:grid type="xygrid" id="grid"/>
  </sodipodi:namedview>
  <g id="symbol-add" inkscape:label="00340">
      <title id="title48587">object-symbol</title>
      <g id="object-symbol">
        <path inkscape:connector-curvature="0" id="rect48591" d="M 0,0 H 16 V 16 H 0 Z" style="opacity:0;fill:none"/>
        <path inkscape:connector-curvature="0" id="circle48593" d="M 14.5,10 A 4.5,4.5 0 0 1 10,14.5 4.5,4.5 0 0 1 5.5,10 4.5,4.5 0 0 1 10,5.5 4.5,4.5 0 0 1 14.5,10 Z" style="opacity:0.5"/>
        <path inkscape:connector-curvature="0" id="circle48595" d="m 10,5 c -2.7555014,0 -5,2.2444986 -5,5 0,2.755501 2.2444986,5 5,5 2.755501,0 5,-2.244499 5,-5 0,-2.7555014 -2.244499,-5 -5,-5 z m 0,1 c 2.215061,0 4,1.7849387 4,4 0,2.215061 -1.784939,4 -4,4 C 7.7849387,14 6,12.215061 6,10 6,7.7849387 7.7849387,6 10,6 Z" style="opacity:1;stroke-linecap:butt"/>
        <path inkscape:connector-curvature="0" id="path48597" d="M 9,2 V 9 H 2 v 2 h 9 V 2 Z" style="opacity:1;stroke-linecap:butt"/>
        <path d="m 7,3 h 6 L 10,0 Z" id="path48599" inkscape:connector-curvature="0" style="opacity:1"/>
      </g>
    </g>
    </svg>
