<?xml version='1.0' encoding='UTF-8'?>
<!-- Created with Inkscape (http://www.inkscape.org/) and export_objects.py -->
<svg xmlns:cc="http://creativecommons.org/ns#" xmlns:dc="http://purl.org/dc/elements/1.1/" xmlns:inkscape="http://www.inkscape.org/namespaces/inkscape" xmlns:rdf="http://www.w3.org/1999/02/22-rdf-syntax-ns#" xmlns:sodipodi="http://sodipodi.sourceforge.net/DTD/sodipodi-0.dtd" xmlns:xlink="http://www.w3.org/1999/xlink" xmlns="http://www.w3.org/2000/svg" version="1.1" id="svg1" width="16" height="16" viewBox="0 0 16 16" sodipodi:docname="symbol-remove-symbolic.svg">
<sodipodi:namedview objecttolerance="10" gridtolerance="10" guidetolerance="10" id="namedview" showgrid="true" inkscape:zoom="0.6002936" inkscape:cx="732.67439" inkscape:cy="-567.94603" inkscape:window-width="1920" inkscape:window-height="1016" inkscape:window-x="0" inkscape:window-y="27" inkscape:window-maximized="1" inkscape:current-layer="layer1">
    <inkscape:grid type="xygrid" id="grid"/>
  </sodipodi:namedview>
  <g id="symbol-remove" inkscape:label="00341">
      <title id="title48573">object-unsymbol</title>
      <g id="object-unsymbol">
        <path inkscape:connector-curvature="0" id="rect48577" d="M 0,0 H 16 V 16 H 0 Z" style="opacity:0;fill:none"/>
        <path inkscape:connector-curvature="0" id="circle48579" d="M 9.0429688,5.09375 8.9921878,5.09961 8.9453128,5.113282 8.6933597,5.191407 8.9902347,6.1464852 9.1875,6.0859375 9.8769531,6.015625 9.7753906,5.0195312 Z m 1.7363282,0.9042969 -0.02149,0.070312 0.01367,0.00391 v 0.00781 l 0.03711,0.00391 0.794922,0.2480468 0.105468,-0.3378906 0.306641,-0.5664062 -0.02539,-0.013672 -0.04297,-0.023437 -0.04687,-0.013672 -0.845703,-0.2636719 -0.04688,-0.013672 -0.05078,-0.00586 -0.08594,-0.00781 z M 7.2460938,5.828125 7.203125,5.8515625 7.1660156,5.8828125 6.7734375,6.2070312 7.4101562,6.9785156 7.7695312,6.6816406 8.1542969,6.4746094 7.6777344,5.5957031 Z M 12.320312,6.7558594 12.826172,7.171875 12.984375,7.3652344 13.755859,6.7285156 13.568359,6.5 13.537109,6.4628906 13.5,6.4316406 12.957031,5.984375 Z M 5.8828125,7.1660156 5.8515625,7.203125 5.828125,7.2460938 5.4550781,7.9335938 6.3339844,8.4101562 6.6816406,7.7695312 6.7929688,7.6347656 6.0214844,6.9980469 Z m 7.6152345,0.9375 0.183594,0.3359375 0.154297,0.4941407 0.955078,-0.2949219 -0.167969,-0.5390625 -0.01367,-0.046875 -0.02344,-0.042969 L 14.376953,7.625 Z M 5.0019531,9.9492188 4.9980469,10 l 0.00391,0.05078 0.011719,0.115235 0.9960937,-0.09961 L 6.0039062,10 6.0859375,9.171875 5.0917969,9.0703125 Z M 13.978516,9.8183594 13.996094,10 l -0.08203,0.810547 -0.0098,0.0332 0.0078,0.002 -0.002,0.01172 0.05664,0.0059 0.892578,0.277344 0.02734,-0.08594 0.01367,-0.04688 0.0059,-0.05078 0.0918,-0.90625 L 14.5,10 14.998047,9.9492188 14.974609,9.71875 Z M 5.1738281,11.25 l 0.203125,0.650391 0.013672,0.04687 0.023437,0.04297 0.1523437,0.28125 L 6.4453121,11.794919 6.318359,11.560544 6.1289058,10.955075 Z m 8.1445309,0.980469 -0.185547,0.224609 0.771485,0.636719 0.212891,-0.257813 0.03125,-0.03711 0.02344,-0.04297 0.316406,-0.583984 -0.878906,-0.476563 z M 6.1699219,13.181641 6.4316406,13.5 l 0.03125,0.03711 0.037109,0.03125 0.453125,0.373047 0.6367188,-0.771484 -0.4160157,-0.34375 -0.2324219,-0.28125 z m 6.0605471,0.136718 -0.486328,0.263672 0.476562,0.878907 0.533203,-0.289063 0.04297,-0.02344 0.03711,-0.03125 0.302735,-0.25 L 12.5,13.095703 Z m -4.3496096,1.197266 0.1289062,0.07031 0.042969,0.02344 0.046875,0.01367 0.8164062,0.253906 0.296875,-0.955078 -0.7714844,-0.240234 -0.082031,-0.04492 z m 2.9296876,-0.601563 -0.802735,0.08203 0.09961,0.996094 0.849609,-0.08594 0.05078,-0.0059 0.04688,-0.01367 0.140624,-0.04492 -0.296874,-0.955078 z" style="opacity:1;stroke-linecap:butt"/>
        <path inkscape:connector-curvature="0" id="path48581" d="M 9,2 V 9 H 2 v 2 h 9 V 2 Z" style="opacity:1;stroke-linecap:butt"/>
        <path d="M 3,13 V 7 l -3,3 z" id="path48583" inkscape:connector-curvature="0" style="opacity:1"/>
      </g>
    </g>
    </svg>
