<?xml version='1.0' encoding='UTF-8'?>
<!-- Created with Inkscape (http://www.inkscape.org/) and export_objects.py -->
<svg xmlns:cc="http://creativecommons.org/ns#" xmlns:dc="http://purl.org/dc/elements/1.1/" xmlns:inkscape="http://www.inkscape.org/namespaces/inkscape" xmlns:rdf="http://www.w3.org/1999/02/22-rdf-syntax-ns#" xmlns:sodipodi="http://sodipodi.sourceforge.net/DTD/sodipodi-0.dtd" xmlns:xlink="http://www.w3.org/1999/xlink" xmlns="http://www.w3.org/2000/svg" version="1.1" id="svg1" width="16" height="16" viewBox="0 0 16 16" sodipodi:docname="xml-node-delete-symbolic.svg">
<sodipodi:namedview objecttolerance="10" gridtolerance="10" guidetolerance="10" id="namedview" showgrid="true" inkscape:zoom="0.6002936" inkscape:cx="732.67439" inkscape:cy="-567.94603" inkscape:window-width="1920" inkscape:window-height="1016" inkscape:window-x="0" inkscape:window-y="27" inkscape:window-maximized="1" inkscape:current-layer="layer1">
    <inkscape:grid type="xygrid" id="grid"/>
  </sodipodi:namedview>
  <g transform="matrix(0.666667,0,0,0.666667,-746.66667,-371.57479)" inkscape:label="00264" id="xml-node-delete">
      <path inkscape:connector-curvature="0" id="rect21582" d="m 1120,557.36218 h 24 v 24 h -24 z" style="opacity:0;fill:none"/>
      <path inkscape:connector-curvature="0" id="rect21584" d="m 1120,557.36218 h 1 v 24 h -1 z" style="opacity:1"/>
      <path inkscape:connector-curvature="0" id="rect21586" d="m 1120,557.36218 h 24 v 1 h -24 z" style="opacity:1"/>
      <path inkscape:connector-curvature="0" id="rect21588" d="m 1120,580.36218 h 24 v 1 h -24 z" style="opacity:1"/>
      <path inkscape:connector-curvature="0" id="rect21590" d="m 1143,557.36218 h 1 v 24 h -1 z" style="opacity:1"/>
      <path style="opacity:1" d="m 1130,563.3622 -0.01,5.016 1.005,-0.016 v -5 z" id="path21592" inkscape:connector-curvature="0"/>
      <path style="opacity:1" d="m 1135.467,563.3749 c -0.736,-0.0777 -1.477,0.2152 -1.995,0.4886 l 0.405,0.8855 c 0.407,-0.2151 1.054,-0.4413 1.474,-0.397 0.21,0.0222 0.367,0.1011 0.463,0.2138 0.096,0.1126 0.173,0.2952 0.173,0.7023 l 0.013,3.0941 h 1 v -2.8269 c 0,-0.57 0,-1.2662 -0.521,-1.6413 -0.28,-0.3301 -0.643,-0.4802 -1.012,-0.5191 z" id="path21594" inkscape:connector-curvature="0"/>
      <path style="opacity:1" d="m 1137.972,559.3753 v 6.0655 l 0.028,0.9214 c -0.088,2.5026 1.447,1.9411 3.001,2 v -1.037 l -1.001,0.037 c -0.033,-0.0435 -1.044,0.3977 -1,-1 l 0.033,-6.9869 h -1.059 z" id="path21596" inkscape:connector-curvature="0"/>
      <path style="opacity:1" d="m 1132.643,563.3749 c -0.683,-0.0777 -1.37,0.2152 -1.85,0.4886 l 0.375,0.8855 c 0.378,-0.2151 0.978,-0.4413 1.368,-0.397 0.194,0.0222 0.34,0.1011 0.429,0.2138 0.089,0.1126 0.016,0.5628 0.035,0.9695 v 2.8269 h 1 v -2.8269 c 0,-0.57 0.156,-1.3546 -0.419,-1.6413 -0.26,-0.3301 -0.597,-0.4802 -0.938,-0.5191 z" id="path21598" inkscape:connector-curvature="0"/>
      <path style="opacity:1" d="m 1124.604,563.3622 -0.604,0.6044 4.396,4.3956 0.604,-0.6044 z" id="path21600" inkscape:connector-curvature="0"/>
      <path style="opacity:1" d="m 1128.396,563.3622 -4.396,4.3923 0.605,0.604 4.395,-4.3924 z" id="path21602" inkscape:connector-curvature="0"/>
      <g transform="matrix(1.146412,0,0,0.920121,87.01395,555.0575)" id="g21604">
        <path inkscape:connector-curvature="0" id="path21606" d="m 906.5,17.78125 -0.3438,0.375 -3,3 -0.375,0.34375 0.375,0.34375 3,3 0.3438,0.375 0.7187,-0.71875 -0.375,-0.34375 -2.6562,-2.65625 2.6562,-2.65625 0.375,-0.34375 z m 3,0 -0.7188,0.71875 0.375,0.34375 2.6563,2.65625 -2.6563,2.65625 -0.375,0.34375 0.7188,0.71875 0.3437,-0.375 3,-3 0.375,-0.34375 -0.375,-0.34375 -3,-3 z" style="opacity:1"/>
      </g>
      <path style="opacity:1" d="m 1136,60 v 8 h 7 v -8 z m 1,2 h 2 l 1,1.25 1,-1.25 h 2 l -2,2.5 2,2.5 h -2 l -1,-1.25 -1,1.25 h -2 l 2,-2.5 z" transform="translate(0,512.3622)" id="path21608" inkscape:connector-curvature="0"/>
    </g>
    </svg>
