<?xml version='1.0' encoding='UTF-8'?>
<!-- Created with Inkscape (http://www.inkscape.org/) and export_objects.py -->
<svg xmlns:cc="http://creativecommons.org/ns#" xmlns:dc="http://purl.org/dc/elements/1.1/" xmlns:inkscape="http://www.inkscape.org/namespaces/inkscape" xmlns:rdf="http://www.w3.org/1999/02/22-rdf-syntax-ns#" xmlns:sodipodi="http://sodipodi.sourceforge.net/DTD/sodipodi-0.dtd" xmlns:xlink="http://www.w3.org/1999/xlink" xmlns="http://www.w3.org/2000/svg" version="1.1" id="svg1" width="16" height="16" viewBox="0 0 16 16" sodipodi:docname="xml-text-new-symbolic.svg">
<sodipodi:namedview objecttolerance="10" gridtolerance="10" guidetolerance="10" id="namedview" showgrid="true" inkscape:zoom="0.6002936" inkscape:cx="732.67439" inkscape:cy="-567.94603" inkscape:window-width="1920" inkscape:window-height="1016" inkscape:window-x="0" inkscape:window-y="27" inkscape:window-maximized="1" inkscape:current-layer="layer1">
    <inkscape:grid type="xygrid" id="grid"/>
  </sodipodi:namedview>
  <g transform="matrix(0.666667,0,0,0.666667,-721.33333,-371.57479)" inkscape:label="00263" id="xml-text-new">
      <path inkscape:connector-curvature="0" id="rect17753" d="m 1082,557.36218 h 24 v 24 h -24 z" style="opacity:0;fill:none"/>
      <path inkscape:connector-curvature="0" id="rect17755" d="m 1082,557.36218 h 1 v 24 h -1 z" style="opacity:1"/>
      <path inkscape:connector-curvature="0" id="rect17759" d="m 1082,557.36218 h 24 v 1 h -24 z" style="opacity:1"/>
      <path inkscape:connector-curvature="0" id="rect17763" d="m 1082,580.36218 h 24 v 1 h -24 z" style="opacity:1"/>
      <path inkscape:connector-curvature="0" id="rect17765" d="m 1105,557.36218 h 1 v 24 h -1 z" style="opacity:1"/>
      <path inkscape:connector-curvature="0" id="path17784" d="m 1097,572.3622 v 8 h 8 v -8 z m 3,1 h 2 v 2 h 2 v 2 h -2 v 2 h -2 v -2 h -2 v -2 h 2 z" style="opacity:1"/>
      <path style="opacity:1" d="m 1100,563.3622 c -1.108,0 -2,0.7433 -2,1.6666 v 1.6667 c 0,0.9233 0.892,1.6667 2,1.6667 1.108,0 2,-0.7434 2,-1.6667 h -1 c 0,0.4617 -0.446,0.8333 -1,0.8333 -0.554,0 -1,-0.3716 -1,-0.8333 v -1.6667 c 0,-0.4616 0.446,-0.8333 1,-0.8333 0.554,0 1,0.3717 1,0.8333 h 1 c 0,-0.9233 -0.892,-1.6666 -2,-1.6666 z" id="rect21555" inkscape:connector-curvature="0"/>
      <path style="opacity:1" d="m 1088,563.3622 c -1.108,0 -2,0.7329 -2,1.6562 v 1.6875 c 0,0.9234 0.892,1.6563 2,1.6563 0.364,0 0.706,-0.0796 1,-0.2188 v 0.2188 h 1 v -1.6563 -1.6875 -1.6562 h -1 v 0.2187 c -0.294,-0.1391 -0.636,-0.2187 -1,-0.2187 z m 0,0.8437 c 0.554,0 1,0.3509 1,0.8125 v 1.6875 c 0,0.4617 -0.446,0.8125 -1,0.8125 -0.554,0 -1,-0.3508 -1,-0.8125 v -1.6875 c 0,-0.4616 0.446,-0.8125 1,-0.8125 z" id="path21565" inkscape:connector-curvature="0"/>
      <path id="path21572" d="m 1094,563.3622 c 1.108,0 2,0.7329 2,1.6562 v 1.6875 c 0,0.9234 -0.892,1.6563 -2,1.6563 -0.364,0 -0.706,-0.0796 -1,-0.2188 v 0.2188 h -1 v -1.6563 -1.6875 -4.6562 h 1 v 3.2187 c 0.294,-0.1391 0.636,-0.2187 1,-0.2187 z m 0,0.8437 c -0.554,0 -1,0.3509 -1,0.8125 v 1.6875 c 0,0.4617 0.446,0.8125 1,0.8125 0.554,0 1,-0.3508 1,-0.8125 v -1.6875 c 0,-0.4616 -0.446,-0.8125 -1,-0.8125 z" style="opacity:1" inkscape:connector-curvature="0"/>
      <g transform="matrix(1.146412,0,0,0.920121,49.13317,555.0236)" id="g21578">
        <path inkscape:connector-curvature="0" id="path21580" d="m 906.5,17.78125 -0.3438,0.375 -3,3 -0.375,0.34375 0.375,0.34375 3,3 0.3438,0.375 0.7187,-0.71875 -0.375,-0.34375 -2.6562,-2.65625 2.6562,-2.65625 0.375,-0.34375 z m 3,0 -0.7188,0.71875 0.375,0.34375 2.6563,2.65625 -2.6563,2.65625 -0.375,0.34375 0.7188,0.71875 0.3437,-0.375 3,-3 0.375,-0.34375 -0.375,-0.34375 -3,-3 z" style="opacity:1"/>
      </g>
    </g>
    </svg>
