<?xml version="1.0" encoding="UTF-8" standalone="no"?>
<svg
    xmlns="http://www.w3.org/2000/svg"
    xmlns:xlink="http://www.w3.org/1999/xlink"
    xmlns:inkscape="http://www.inkscape.org/namespaces/inkscape"
    width="475"
    height="475"
    id="InkscapeHatches"
    inkscape:version="1.0alpha2">
  <title>Hatches</title>
  <defs>
    <hatch inkscape:collect="always"
		id="hatch1" hatchUnits="userSpaceOnUse" pitch="15">
     <hatchpath stroke="#000000" offset="5" stroke-width="2" />
    </hatch>
    <hatch inkscape:collect="always"
		id="hatch2" hatchUnits="userSpaceOnUse" pitch="15">
     <hatchpath stroke="#000000" offset="15" />
    </hatch>
    <hatch inkscape:collect="always"
		id="hatch3" hatchUnits="userSpaceOnUse" pitch="15">
     <hatchpath stroke="#000000" offset="5" d="M 0,0 5,10" />
    </hatch>
    <hatch inkscape:collect="always"
		id="hatch4" hatchUnits="userSpaceOnUse" pitch="15">
     <hatchpath stroke="#000000" offset="5" d="L 0,0 5,10" />
    </hatch>
    <hatch inkscape:collect="always"
		id="hatch5" hatchUnits="userSpaceOnUse" pitch="15">
     <hatchpath stroke="#000000" offset="5" d="M 0,0 5,10 10,5" />
    </hatch>
    <hatch inkscape:collect="always"
		id="hatch6" hatchUnits="userSpaceOnUse" pitch="15">
     <hatchpath stroke="#000000" offset="5" d="M 0,0 5,10 M 5,20" />
    </hatch>
    <hatch inkscape:collect="always"
		id="hatch7" hatchUnits="userSpaceOnUse" pitch="15">
     <hatchpath stroke="#000000" offset="5" d="L 0,0 5,10 0,20" />
    </hatch>
    <hatch inkscape:collect="always"
		id="hatch8" hatchUnits="userSpaceOnUse" pitch="15" rotate="30">
     <hatchpath stroke="#000000" offset="10" d="L 0,0 5,10 0,20" />
    </hatch>
    <hatch inkscape:collect="always"
		id="hatch9" hatchUnits="userSpaceOnUse" pitch="15" rotate="45">
     <hatchpath stroke="#000000" offset="10" d="L 0,0 5,10 0,20" />
    </hatch>
    <hatch inkscape:collect="always"
		id="hatch10" hatchUnits="userSpaceOnUse" pitch="15" x="-5" y="-10" rotate="30">
     <hatchpath stroke="#000000" offset="10" d="L 0,0 5,10 0,20" />
    </hatch>
    <hatch inkscape:collect="always"
		id="hatch11" hatchUnits="userSpaceOnUse" pitch="15" rotate="30" x="-5" y="-10"
      hatchTransform="matrix(0.96592583,-0.25881905,0.25881905,0.96592583,-8.4757068,43.273395)">
     <hatchpath stroke="#000000" offset="10" d="L 0,0 5,10 0,20" />
    </hatch>
    <hatch inkscape:collect="always"
		id="hatch12" hatchUnits="userSpaceOnUse" pitch="15">
     <hatchpath stroke="#000000" offset="5" />
     <hatchpath stroke="#a080ff" offset="10" />
    </hatch>
    <hatch inkscape:collect="always"
		id="hatch13" hatchUnits="userSpaceOnUse" pitch="15">
     <hatchpath stroke="#000000" offset="5" />
     <hatchpath stroke="#000000" offset="10" d="L 0,0 5,10" />
    </hatch>
    <hatch inkscape:collect="always"
		id="hatch14" hatchUnits="userSpaceOnUse" pitch="15">
     <hatchpath stroke="#000000" offset="5" d="L 0,0 5,17" />
     <hatchpath stroke="#000000" offset="10" d="L 0,0 5,10" />
    </hatch>
    <hatch inkscape:collect="always"
		id="hatch15" hatchUnits="userSpaceOnUse" pitch="15">
     <hatchpath stroke="#000000" offset="5" stroke-width="5" stroke-dasharray="10 4 2 4" />
    </hatch>
  </defs>
  <g>
    <rect fill="#FFFFFF" width="100" height="100" x="15" y="15" />
    <rect class="preview" fill="url(#hatch1)" width="100" height="100" x="15" y="15" />
  </g>
  <g>
    <rect fill="#FFFFFF" width="100" height="100" x="130" y="15" />
    <rect class="preview" fill="url(#hatch2)" width="100" height="100" x="130" y="15" />
  </g>
  <g>
    <rect fill="#FFFFFF" width="100" height="100" x="245" y="15" />
    <rect class="preview" fill="url(#hatch3)" width="100" height="100" x="245" y="15" />
  </g>
  <g>
    <rect fill="#FFFFFF" width="100" height="100" x="360" y="15" />
    <rect class="preview" fill="url(#hatch4)" width="100" height="100" x="360" y="15" />
  </g>
  <g>
    <rect fill="#FFFFFF" width="100" height="100" x="15" y="130" />
    <rect class="preview" fill="url(#hatch5)" width="100" height="100" x="15" y="130" />
  </g>
  <g>
    <rect fill="#FFFFFF" width="100" height="100" x="130" y="130" />
    <rect class="preview" fill="url(#hatch6)" width="100" height="100" x="130" y="130" />
  </g>
  <g>
    <rect fill="#FFFFFF" width="100" height="100" x="130" y="130" />
    <rect class="preview" fill="url(#hatch7)" width="100" height="100" x="130" y="130" />
  </g>
  <g>
    <rect fill="#FFFFFF" width="100" height="100" x="360" y="130" />
    <rect class="preview" fill="url(#hatch8)" width="100" height="100" x="360" y="130" />
  </g>
  <g>
    <rect fill="#FFFFFF" width="100" height="100" x="15" y="245" />
    <rect class="preview" fill="url(#hatch9)" width="100" height="100" x="15" y="245" />
  </g>
  <g>
    <rect fill="#FFFFFF" width="100" height="100" x="130" y="245" />
    <rect class="preview" fill="url(#hatch10)" width="100" height="100" x="130" y="245" />
  </g>
  <g>
    <rect fill="#FFFFFF" width="100" height="100" x="245" y="245" />
    <rect class="preview" fill="url(#hatch11)" width="100" height="100" x="245" y="245" />
  </g>
  <g>
    <rect fill="#FFFFFF" width="100" height="100" x="360" y="245" />
    <rect class="preview" fill="url(#hatch12)" width="100" height="100" x="360" y="245" />
  </g>
  <g>
    <rect fill="#FFFFFF" width="100" height="100" x="15" y="360" />
    <rect class="preview" fill="url(#hatch13)" width="100" height="100" x="15" y="360" />
  </g>
  <g>
    <rect fill="#FFFFFF" width="100" height="100" x="130" y="360" />
    <rect class="preview" fill="url(#hatch14)" width="100" height="100" x="130" y="360" />
  </g>
  <g>
    <rect fill="#FFFFFF" width="100" height="100" x="245" y="360" />
    <rect class="preview" fill="url(#hatch15)" width="100" height="100" x="245" y="360" />
  </g>

  <script type="text/javascript" xlink:href="hatch.js"></script>
</svg>
