<svg width="100" height="100" version="1.1" xmlns="http://www.w3.org/2000/svg">
 <path d="m84.5 51.5-12.6 0.504c-8.9e-4 -0.00454-0.00106-0.00914-0.00195-0.0137-0.00104 0.00426-9.21e-4 0.0094-0.00195 0.0137l-15.5 0.623c-0.0092-0.0168-0.016-0.0361-0.0254-0.0527-0.00207 0.0177-0.0019 0.037-0.00391 0.0547l-1.95 0.0781c-0.0314-0.0743-0.0854-0.127-0.186-0.133v0.141l-7.76 0.311c-0.0111-0.0184-0.02-0.0426-0.0312-0.0605 0.00141 0.0201 0.00632 0.0423 0.00781 0.0625l-26.5 1.06-3.74 6.81 2.86 1.36 1.02 1.43 0.887 0.271 1.56 0.41 0.273-0.479 0.953-0.135h2.72l1.29 0.0684 1.22-0.682 0.48 0.525 0.609 0.223 0.887-0.203 1.02-0.205 0.406 0.381 1.3-0.176 1.84-0.273 0.953-0.271 1.02 0.0684 1.09 0.137 0.682 0.0664 0.408-0.477 0.691 0.537 2.1-0.537 1.36 0.273 1.16-0.137 1.8-0.184 0.24-0.361 3.4 0.408 2.18-0.816 1.09 0.408 2.45-0.613h4.46l0.445-0.34 1.02-0.205 0.953 0.137 1.29-0.34 1.34 0.107c0.00197 0.0173 0.00182 0.0397 0.00391 0.0566 0.0223-0.0242 0.0276-0.032 0.0469-0.0527l1.13 0.0918 1.36 0.205 0.387-0.439 2.95 0.234 0.748 0.156 0.584-0.195 1.39-0.369 2.04 0.477 0.848 0.283 1.4-0.623 0.547 0.232 0.543-0.369 5.88 0.369 0.656-0.0957-1.7-9.74zm-69.2 0.297c-0.493-0.0229-0.788 1.14-0.584 1.17 0.186-0.398 0.398-0.77 0.584-1.17zm1.75 0.584c-0.342 0.826-0.871 1.47-1.17 2.34 0.626 0.12 0.267-0.702 0.779-0.195-5e-3 -0.727 0.76-1.69 0.391-2.14zm-0.779 0.193c-0.547 1.33-1.42 2.35-1.95 3.7 1.01-0.744 1.76-2.78 1.95-3.7zm-0.465 0.148c-0.126-0.05-0.42 0.311-0.119 0.631 0.211-0.423 0.195-0.601 0.119-0.631zm-1.87 0.0469c-0.0439 0.426-0.88 1.05-0.391 1.36-0.0281-0.498 0.863-1.06 0.391-1.36zm71.3 0.232c-0.059-0.034-0.0993 0.0425-0.0879 0.352 1.16 2.15 1.33 5.28 2.72 7.2-0.562-2.55-1.39-4.84-2.34-7.01-0.052-0.124-0.202-0.49-0.301-0.547zm-67.6 0.742c-0.835 1.07 0.486 0.719 0 0zm1.27 0.121c-0.0209-0.00292-0.052 0.0184-0.0977 0.0723-0.281 0.726-0.26 0.492-0.584 0 0.151 0.515-0.72 1.51-0.195 1.17 0.0412-0.218 0.215-0.302 0.389-0.389 0.116 0.397-0.365 1.07 0 0.584 0.226-0.169 0.635-1.42 0.488-1.44zm-1.46 1.05c-0.513-0.0589-0.639 0.268-0.584 0.777 0.513 0.0589 0.639-0.268 0.584-0.777zm-2.21 1.29c-0.0245 2.56e-4 -0.0629 0.0204-0.121 0.0664-0.041 0.367-0.782 1.01-0.391 1.17 0.113-0.242 0.683-1.24 0.512-1.24z" fill="#f6e7a1"/>
 <path d="m78.9 35.6c-0.411-0.056-0.94 0.163-1.36 0.195-6.84 0.524-14.7 0.699-22.8 1.17-14 0.812-28.8 1.07-41.1 2.14-0.0167 2.54 0.323 3.93 0.195 6.81 0.657 0.901 1.29 1.83 1.56 3.12-1.3 2.27-2.86 4.28-4.28 6.43 0.811 1.33 1.81 2.47 2.73 3.7 1.55-0.0584 1.65 1.33 2.53 1.95 0.809-0.614 1.24-2.09 1.56-2.73 0.662-1.32 1.18-2.69 1.95-3.7-0.412 1.49-0.95 2.35-1.56 3.5-0.827 1.57-2.33 3.59-0.777 4.48 1.15-0.244 1.44 0.493 2.53 1.17 0.109-1.58 1.13-3.28 0.973-4.48-0.574 1.18-0.783 2.72-1.75 3.51 0.872-2.47 1.2-4.42 2.14-6.62 0.211 0.499-0.592 0.93 0 1.17 0.302-0.866 0.392-1.95 1.17-2.34-0.356 3.75-1.28 5.82-2.34 8.96 0.762-0.193 1.13 0.43 1.56 0 0.146-3.74 0.93-6.28 1.56-9.15 0.23 0.381-0.181 1.8-0.195 2.92-0.0045 0.355 0.196 2.8 0 1.17-0.128-1.07-0.163 0.525-0.193 0.779-0.191 1.6-0.63 2.93-0.779 4.48 0.613 0.0939 0.441-0.597 1.17-0.389 0.122-0.592-0.248-1.68 0.195-1.95 0.155 0.754-0.497 2.31 0.779 1.95-0.972-0.939-0.114-2.68-0.584-3.89-0.0436 0.151-0.00608 0.385-0.195 0.391 0.321-1.38-0.0526-3.73 0.584-5.26 0.333 2.26 0.298 5.71 0 7.98 0.701-0.117 0.574 0.594 1.17 0.584 0.371-3.13 0.502-6.51 1.56-8.96 0.322 2.8-1.19 5.9-0.777 9.15 0.757 0.269 2.74 0.24 2.91-0.908 0.00126-0.0852 0.00253-0.171 0.00781-0.26 0.00732 0.0922 4e-3 0.179-0.00781 0.26-0.00558 0.376 0.0493 0.69 0.396 0.713-0.031-1.27 0.26-2.85-0.777-3.12-0.156 0.805 0.706 0.592 0.584 1.36-0.307-0.0176-0.152-0.496-0.584-0.389-0.121 0.529 0.247 1.55-0.195 1.75-0.0605-1.89 0.0118-0.482-0.584 0 0.434-2.81 0.119-6.37 0.973-8.76 0.328 1.95-0.583 4.53 0.195 5.65 0.129-1.95-0.258-4.41 0.195-6.04 0.401 1.03 0.248 2.61 0.584 3.7 0.264-0.948-0.134-2.05 0.389-2.34-0.0319 1.71 0.101 2.41 0.195 3.7 0.153 0.804 0.492-1.81 0.195-2.14 0.878 0.472 0.0244-2.25 0.973-2.34-0.123 1.96-0.463 4.41-0.584 7.59-0.57 0.284-0.947 1.4 0.195 1.36 0.348-3.29 0.287-6.98 1.36-9.54-0.148 3.42-0.457 6.68-1.17 9.54 0.55-0.161 0.506 0.275 0.975 0.195 0.284-0.874-0.131-1.64 0-2.34 0.0441-0.235 0.375-0.192 0.389-0.391-5e-3 0.0753-0.367-0.157-0.389-0.389-0.109-1.19 0.556-1.5 0.584-1.75-0.00214-0.257-0.342-0.179-0.391-0.391 0.956 0.0474-0.0676-1.88 0.584-2.14 0.0329 0.291-0.069 0.719 0.195 0.779 0.397-1.03-0.163-3.02 0.584-3.7 0.076 3.4-0.482 6.49-0.391 9.35-0.257-0.00262-0.177-0.342-0.389-0.391-0.141 0.443-0.175 0.995-0.391 1.36 1.01-0.384 1.56 0.0746 2.53-0.389 0.428-0.553-0.352-1.79-0.389-2.14-0.0591-0.572 0.192-7 0.389-7.01 0.133-0.00477-0.293 2.11 0.195 0.973 0.19-0.442-0.276-1.71 0.195-1.56 0.0429 1.99 0.383 4.16 0.584 5.45 0.197 1.26-0.156 2.78 0.584 3.89 0.0956-0.874-0.0993-1.46-0.195-2.14 0.356 0.0765 0.25 0.258 0.389-0.195 0.494-1.61 0.319-5.87 1.17-7.01 0.0164 2.03-0.489 3.53-0.391 5.64 0.597-0.931 0.19-4.27 0.975-5.26-0.291 2.21 0.367 4.42-0.195 6.23-0.0303 0.0968-0.303-0.37-0.389 0.195-0.163 1.08-0.417 2.54 0.193 2.92 0.53 0.0403 0.365-0.779 0.391-1.17 0.165-2.55 0.42-5.85 1.17-8.18 0.153 2.03-0.506 3.51 0.193 4.87 0.131-2.22-0.28-4.04 0.391-5.45 0.0396 0.368-0.131 1.92 0.195 1.36 0.106-0.283-0.229-1.01 0.193-0.975 0.774 0.411 0.36 2.06-0.193 2.34 0.487-0.0243 0.608-0.373 0.777 0.193 0.109 0.63 0.654 1.26 0.779 2.14 0.218 1.53-0.458 3.66 0.195 4.67 0.116-1.28 0.28-4.49 0.344-6.29-0.053 0.155-0.0894-2.05 0.24-2.08 0.00405-4.77e-4 -0.0488 0.938 0.193 0.777 0.0276-0.751-0.151-1.71 0.391-1.95-0.261 3.24-0.207 6.8-0.975 9.54 0.403-0.116 1.28 0.242 1.36-0.193-0.706-0.975 0.362-2.88-0.195-3.7-0.138 0.705-0.0731 1.61-0.389 2.14 0.24-2.62 0.0955-5.62 0.779-7.79 0.55 0.195 0.488 0.284 0.779 0.389-0.127 3.18 0.0117 6.63-0.779 9.15 1.49 0.29 0.922-1.21 0.973-1.95 0.152-2.23 0.239-5.84 0.779-8.18 0.361 3.38 1.31 6.03 0.779 9.73 1.01-0.558 2.32 0.301 3.7 0.195 1.09-0.0834 1.92-1.06 2.73-0.584 0.111-0.342-0.237-1.15 0.193-1.17 0.424 0.407-0.097 0.557 0 1.17 2.81-0.0119 3.95-0.632 7.21-0.584v-3.51c-0.118-1.01-0.281 0.393-0.195 0.779v1.95c-0.613-0.631-0.145 0.507-0.584 0.584-0.0713-0.523 0.178-2.37-0.195-1.95 0.0272 0.806-0.0531 1.5-0.389 1.95 0.227-3.42 0.271-5.83 1.17-8.57 0.256 0.603-0.577 1.08 0 1.36 0.108-0.347 0.0996-0.808 0.389-0.973 0.214 0.992-0.53 1.73 0.195 2.14 0.127-1.04-0.257-2.59 0.193-3.31 0.162 1.71 0.488 4.13 0.586 6.23 0.0503 1.09-0.572 3.31 0.779 3.12-0.0305-0.866-1.06-1.45-0.391-3.12 0.107 0.283-0.227 1.01 0.195 0.973 0.361-1.5-0.488-2.84-0.584-4.09-0.0388-0.503-0.321-1.56 0.389-1.95-0.109 1.79 0.751 4.14 0.973 6.23 0.452-2.14 0.324-4.87 0.975-6.81 0.167 3.03-0.492 4.41-0.391 7.59-0.766-0.312-0.0675 0.84-0.584 0.777-0.0946-0.23-0.207-0.441-0.389-0.584-0.186 1.97 2.86 1.09 3.31 0.584 0.715 0.577 1.15 0.235 2.34 0.195-0.245-3.96-1.14-5.75-0.779-8.96 0.0117 1.61 0.384 2.86 0.779 4.09-0.0255 0.256-0.0307 1.41 0.193 0.779 0.0245-1.34 0.0891-2.64 0.391-3.7-0.0593 3.12-0.362 5.63-0.391 7.4 1.35 0.649 2.3 0.498 3.51 0.389-0.487-1.91 0.135-4.77 0.389-6.04 0.247-1.23-0.171-2.63 0.584-3.51 0.546 1.55 0.854 3.89 0.975 5.84 0.0355 0.57 0.703 1.52-0.195 1.75-0.081-1.19-0.141-2.91-0.584-4.48 0.2 2.39-0.0405 3.13 0 5.84-0.342-0.28-0.443-0.179-0.389 0.389 0.444 0.619 1.03-0.252 1.56-0.195 0.0956-0.614-0.351-0.686-0.195-1.36 0.316 0.0553 0.305 0.286 0.391-0.195 0.429-2.41-0.329-5.39 0.779-6.62 0.0953 3.83-0.0694 5.11-0.391 8.57 0.783-0.134 1.11 0.187 1.75 0.195 0.431-1.83-0.61-5.63 0-8.18 0.164 0.745 0.255 1.56 0.195 2.53 1.13-0.587-0.379-2.77 0.584-3.31 0.208 3.28-0.0247 6.02-0.389 8.96 0.665-0.0493 0.935-0.494 1.75-0.391-0.324-2.96-0.751-6.09-0.195-8.96 0.349 2.38 1.64 4.85 1.17 7.4-0.286-1.92-0.636-3.78-1.17-5.45 0.308 2.47 0.384 4.63 0.391 7.01 2.58-0.19 4.01 0.398 6.42 0-0.0322-2.86-1.44-5.51-0.584-7.59 0.631 3.03 0.974 4.95 0.779 7.59 1.03-0.0217 1.65-0.39 3.12-0.389-0.406-3.49-2.4-7.07-3.5-10.5 0.471-0.373 1.56-0.123 2.34-0.195 1.74-3.19 0.693-6.95-1.56-9.73-1.31-1.62-5.37-4.62-7.2-4.87zm0.973 0.779c-2.09 0.742-4.43 0.482-6.62 0.584-14.6 0.679-30.9 1.71-45 2.34 10.3-0.00382 20.6-0.925 31-1.36 3.42-0.144 6.89-0.506 10.1-0.389 3.75 0.136-1.31 0.358-1.95 0.389-11.3 0.535-24.1 1.06-35.2 1.56 16.2-0.105 33.1-1.36 48.9-2.14-0.555 0.774-1.59 0.333-2.34 0.391-11.8 0.904-24.2 1.08-35 1.75 13.2 0.0322 25.6-1.19 38.9-1.56-11.2 1.06-23.3 1.14-34.7 1.95 10.8-0.0257 22.1-1.08 33.7-1.36 0.348-0.0551 0.398 0.185 0.193 0.195-1.72-0.00667-2.6 0.106-4.48 0.195 1.9 0.601 4.1-0.178 6.23 0-16.1 1.32-32.5 1.51-48.1 2.72 14.9-0.175 30.6-1.86 45.2-2.14 0.594-0.0114 3.23-0.102 2.34 0.193-15.8 0.773-33 1.47-49.3 2.53 15.5-0.627 29.6-1.22 43.8-1.95 2.27-0.117 4.7-0.654 6.62-0.389 0.334 0.0462 0.411 0.107 0.195 0.195-22.8 1.21-44.8 2.25-67.8 3.31 4.55-0.786 9.43-0.404 14.4-0.973-4.56-0.207-10.1 0.295-14.8 0.584 2.02-0.708 4.94-0.516 7.59-0.584-0.819-0.569-2.47-0.268-3.89-0.195-1.45 0.0739-2.99 0.154-4.09 0.391 0.245-0.759 1.26-0.339 1.75-0.391 7.91-0.827 18.6-0.949 27.5-1.36 9.98-0.464 20.2-1.26 30.2-1.56-16.5 0.356-34.8 1.36-51.2 2.14-0.945 0.0448-2.58 0.597-3.31 0 0.011 0.00882 0.202-0.119-0.193-0.195-1.49-0.286-3.36 0.235-4.87 0.389-0.151-0.753 0.972-0.359 1.17-0.389 7.4-1.14 17.9-0.654 26.5-1.36-0.956-0.526-2.2-0.253-3.31-0.195-8.28 0.434-16.8 0.947-24.3 1.17 2.49-0.689 6.09-0.273 8.76-0.779-1.32-0.218-4.18 0.0249-6.23 0.193 0.562-0.759 1.75-0.343 2.53-0.389 2.34-0.136 5.07-0.341 7.4-0.389-4.46-0.394-8.38 0.32-12.9 0.389 1.47-0.409 2.58-0.499 4.09-0.584 19.9-1.12 40.7-1.51 60.5-2.92zm0.195 0.584c-2.41 0.769-6.07 0.294-8.76 0.779 0.216-0.752 1.79-0.304 2.92-0.391 1.41-0.108 4.16-0.291 5.84-0.389zm-2.92 1.95c-0.861 0.288-1.4-0.265-1.75 0.389 0.63-0.0839 1.68 0.257 1.75-0.389zm-45.2 0.584c-0.723 0.315-1.91 0.16-2.92 0.193-0.331-0.0436-0.482 0.22 0 0.195 0.883-0.22 2.67 0.465 2.92-0.389zm-4.22 0.223c-0.195 0.00524-0.442 0.0981-0.643 0.166h-1.56c-2.37 0.198 1.66 0.235 2.53 0.195 0.00703-0.284-0.135-0.367-0.33-0.361zm19.6 0.125c-0.673-0.00186 0.00284 0.561 0.377 0.041-0.156-0.0281-0.281-0.0408-0.377-0.041zm-0.598 0.041c-7.59 0.391-15.8 0.914-23.6 1.17-0.49 0.016-1.46-0.355-1.75 0.389 5.72-0.283 12.1-0.709 17.5-0.973 2.68-0.13 5.34 0.151 7.79-0.584zm-29.4 0.154c0.318 0.0103 0.294 0.0844-0.605 0.234-0.471 0.0784-0.476 0.266-1.36 0.195-0.0435-0.286 1.44-0.447 1.97-0.43zm66.6 0.408c0.246 0.0191 0.534 0.0775 0.705 0.0215-0.0243 0.43-0.827 0.0835-1.17 0.195 0.0122-0.215 0.219-0.236 0.465-0.217zm-0.854 0.0215c-3.08 0.722-6.23 0.25-9.35 0.779 2.61 0.466 5.3-0.486 8.76-0.195 1.79 0.15-0.0346 0.166-0.391 0.195-7.82 0.652-18.1 0.974-26.5 1.36-12.3 0.572-26.2 0.999-37.6 1.95 16.3-0.727 33.8-1.47 50.8-2.34 3.53-0.179 10.7-1.06 15.8-0.777 2.54 0.14-2.54 0.306-3.7 0.389-20.3 1.45-41.7 1.64-62.5 3.12 0.73 0.54 2.84-0.0633 3.31 0.195-2.28 0.719-3.56 0.183-4.87-1.17 5.37-0.75 10.9-0.938 16.4-1.17 16.5-0.697 33-1.52 49.8-2.34zm1.15 0.367c0.28 0.0203 0.599 0.0814 0.801 0.0234-0.0841 0.435-0.96 0.0775-1.36 0.193 0.0419-0.218 0.283-0.237 0.562-0.217zm-10.7 0.412c-14.7 0.589-27.4 1.3-42.8 1.95-4.36 0.184-8.77 0.295-13.2 0.973 18.2-1.04 37.3-1.57 56.1-2.92zm-38.7 0.193c-3.72 0.333-7.5 0.398-10.9 0.584 2.48 0.442 6.41-0.0578 8.76-0.193 0.819-0.0474 2.08 0.366 2.53-0.391h-0.391zm-15.4 0.00195c-0.568 0.859-2.75 0.11-3.7 0.584 0.201-0.453 2.6-0.385 3.7-0.584zm64.4 0.566c1.14 0.0312 1.69 0.179 0.0918 0.211-1.57 0.0315-4.85 0.365-6.04 0.195 1.26-0.43 3.34-0.0328 4.67-0.389 0.45-0.0242 0.893-0.028 1.27-0.0176zm-51.5 0.211c-2.45 0.0491 0.0431 0.467 1.17 0-0.443 0.0072-0.703-0.0093-1.17 0zm53.7 0.195c-21.5 1.66-43.8 2.03-66.6 3.7 0.766-0.827 2.46-0.5 4.09-0.584 20.1-1.03 40.5-2.13 62.5-3.12zm-13.2 0.195c0.158-0.0076 4.42 0.0822 4.67 0-1.61 0.535-5.47 0.107-7.2 0.193-11.7 0.583-26.9 1.4-40.3 2.14-2.02 0.112-6.48 0.578-7.01 0.195 0.0527 0.0381 4.46-0.316 6.04-0.391 6.14-0.29 12.6-0.649 18.9-0.973 9.15-0.47 17.1-0.797 24.9-1.17zm12.9 0.287c0.248-0.017 0.429 0.0328 0.387 0.297-19.4 0.681-38.6 2.08-58.4 2.92-2.18 0.0918-4.11 0.111-6.23 0.389-0.454 0.0596-0.909 0.322-1.36 0 0.238-0.406 0.949-0.356 1.36-0.389 9.57-0.75 20.2-1.02 29.8-1.56 10.2-0.563 20.6-1.03 31.2-1.56 0.273-0.0138 1.4 0.0067 2.53 0 0.219-0.00143 0.533-0.0846 0.781-0.102zm1.36 0.49c-10 0.993-20.6 1.22-30.8 1.75-9.64 0.505-19.5 0.99-28.8 1.56-0.104-0.771 0.952-0.368 1.17-0.389 8.21-0.77 18.4-0.994 27.1-1.36 10.5-0.446 21-1.14 31.3-1.56zm-0.162 0.574c0.358 9.23e-4 0.673 0.167 0.746 0.789-0.149 0.823-1.14 0.346-1.56 0.389-3.91 0.393-9.9 0.556-14.6 0.779-16.4 0.779-34.7 2.11-50.4 2.34 0.285-1.26 2.49-0.874 3.7-0.973 8.83-0.723 18.9-0.919 28.4-1.36 7.84-0.365 15.7-0.993 24.1-1.36 2.9-0.128 5.88 0.0632 8.57-0.389 0.247-0.0416 0.648-0.206 1.01-0.205zm-3.34 0.594c-0.305 0.815 1.19 0.213 0.391 0-0.0412 0.235-0.217 0.12-0.391 0zm2.14 0c-0.291 0.0331-0.719-0.069-0.779 0.195 0.291-0.0334 0.719 0.069 0.779-0.195zm-58.8 1.75c-0.446 0.765-1.63 0.328-2.53 0.389-0.969 0.066-1.84 0.343-2.73 0.195-1.45-0.15 1.47-0.353 1.95-0.391 0.855-0.0665 2.52-0.0499 3.31-0.193zm60 0.348c0.205 8.05e-4 0.455 0.0127 0.752 0.041-1.47 0.505-2.19-0.0466-0.752-0.041zm-3.85 0.211c0.575 0.0234 1.19 0.0887 1.68 0.0254-0.654 0.45-2.14 0.067-3.12 0.193 0.327-0.225 0.863-0.242 1.44-0.219zm-2.72 0.182c0.188 8.7e-5 0.42 0.00994 0.699 0.0371-1.22 0.509-2.02-0.0377-0.699-0.0371zm-2.05 0.0137c0.346 0.0217 0.732 0.0837 0.996 0.0234-0.208 0.442-1.22 0.075-1.75 0.195 0.104-0.221 0.41-0.24 0.756-0.219zm6.95 0.18c0.605 0.0175 1.17 0.0805 1.64 0.234-2.31 0.0217-4.55 0.118-6.62 0.389 0.622-0.51 2.06-0.534 3.12-0.584 0.616-0.0293 1.26-0.0566 1.86-0.0391zm-10.1 0.0332c0.472-0.00705 0.951-0.0057 1.44 0.00586-2.42 0.249-8.48 0.82-11.1 0.389 3.44 0.0938 6.36-0.345 9.66-0.395zm11.6 0.348c0.0603-0.00636 0.115 0.00558 0.156 0.0469 0.134 0.134-0.768 0.537-0.584 0.195 0.0216-0.0399 0.247-0.223 0.428-0.242zm-8.21 0.0469c0.515-0.0102 1.06 0.0076 1.56 0-1.29 0.461-4.48 0.0586-1.56 0zm7.4 0c0.396 0.72-1.49 0.341-2.34 0.391-1.54 0.0903-3.9 0.385-5.84 0.389h-1.36c-0.849 0.00429-0.0334-0.336 0.389-0.195h1.36c2.39-0.396 5.43-0.153 7.79-0.584zm-24.1 0.188c0.666-0.0157 1.4 0.0365 2.05 0.00781 2.52 0.0686-0.542 0.303-1.56 0.195-0.691 0.117-0.98 0.215-2.14 0.193 0.383-0.298 0.983-0.381 1.65-0.396zm10.6 0.00781c-0.664 0.755-2 0.339-3.12 0.391-0.959 0.0446-2.16 0.369-3.12 0.193 2.25 0.663 7.04-0.279 9.54 0-3.35 0.35-6.93 0.469-10.5 0.584 0.801 0.562 3.53 0.0739 5.06 0 5.06-0.243 11.1-0.328 16.2-0.777-1.05 0.752-2.37 0.339-3.5 0.389-15 0.659-28.2 1.64-43.6 2.34-6.1 0.277-12.9 0.347-17.9 0.973-0.421-0.299-0.997-2.28-0.195-2.53-0.716 0.466 1.17 0.791-0.193 0.777 1.19 0.855 6.22-0.584 7.98 0-0.553-0.184-1.05 0.453-2.92 0.195-1.4 0.357-3.49 0.0133-4.87 0.389 14.6-0.151 29.5-1.48 44.8-1.95-0.832-0.667-4.3 0.156-5.45-0.193 3.21-0.449 7.82-0.311 11.9-0.779zm1.75 0c0.609-0.0098 1.17 0.0074 1.75 0-1.47 0.466-5.05 0.0529-1.75 0zm-15.5 0.146c0.533 0 1.07 0.0806 1.27 0.242-1.05-0.124-1.94 0.216-2.53 0 0.2-0.162 0.733-0.242 1.27-0.242zm-2.71 0.197c0.352-0.00562 0.703 0.00566 1.06 0.0449-3.07 0.511-8.85 0.362-12.1 0.779 2.24-0.724 5.1-0.462 7.79-0.584 1.11-0.0506 2.17-0.223 3.23-0.24zm2.69 0.412c0.51 0.0231 1.06 0.0862 1.48 0.0234-0.525 0.449-1.88 0.0678-2.72 0.193 0.262-0.224 0.732-0.24 1.24-0.217zm-1.44 0.0234c-0.187 0.396-0.748 0.42-1.36 0.389 0.23-0.354 1.02-0.152 1.36-0.389zm-2.47 0.115c0.257-0.0032 0.5 0.0189 0.721 0.0801-0.318-0.0882-1.42 0.159-1.95 0.193-5.7 0.379-12.3 0.975-18.9 0.975-1.77 0 0.453-0.189 0.584-0.195 0.204-0.00953 0.914 0.14 1.17-0.195 4.42-0.0906 10.9-0.347 16-0.584 0.738-0.0341 1.62-0.264 2.39-0.273zm-32.8 0.0137c0.34 0.03 0.424 0.179-0.375 0.26-0.343 0.0348-0.416 0.194-0.779 0.195 0.219-0.396 0.815-0.485 1.15-0.455zm22.4 0.0664c-0.632 0.167-5.16 0.677-6.23 0.193 2.29 0.151 4-0.286 6.23-0.193zm43.2 0.17c0.359 0.00626 0.0638 0.412-0.197 0.414-10.8 1.26-22.4 1.32-33.5 1.95-10.6 0.6-23.1 1.32-32.5 1.36 0.362-0.769 1.36-0.333 1.95-0.389 8.74-0.831 20.5-1.02 30.6-1.56 11-0.588 22.1-0.89 32.3-1.56 0.451-0.0293 0.463-0.287 1.17-0.195 0.08-0.0177 0.146-0.0243 0.197-0.0234zm-22.8 0.0234c-13.7 0.661-27.8 1.54-40.5 2.14-1.18 0.0565-2.63-0.367-3.11 0.389 12.8-0.768 28-1.25 41.1-2.14 0.742-0.0503 1.91 0.379 2.53-0.391zm-31.5 0.162c0.344-0.0091 0.67-2.82e-4 0.973 0.0332-0.834 0.514-2.73 0.512-4.28 0.584-1.88 0.0872-2.52 0.326-3.5 0 1.19 0.394 4.41-0.554 6.81-0.617zm2.51 0.00977c0.542 0.0232 1.12 0.0865 1.58 0.0234-0.589 0.449-2.01 0.0692-2.92 0.195 0.294-0.225 0.797-0.242 1.34-0.219zm-10.7 0.502c0.399-0.0211 0.74 0.0018 0.943 0.105-0.243-0.0584-3.59 0.696-4.09 0.195 0.214 0.214 1.95-0.237 3.15-0.301zm8.54 0.105c-0.775 0.782-2.9 0.218-4.28 0.389 1.14-0.413 3.05-0.0624 4.28-0.389zm-15 0.584c0.43 0.0241 0.0813 0.826 0.193 1.17-0.375-0.0791-0.152-0.755-0.777-0.584-0.142-0.64 0.386-0.298 0.389 0 0.228-0.0312 0.165-0.355 0.195-0.584zm0.664 1.27c0.322 0.0442 1.2 0.44 1.09 0.676-0.593 0.00882-0.757-0.411-1.17-0.584-0.0724-0.0824-0.0271-0.107 0.0801-0.0918zm-4.17 0.0918c-0.187 0.398-0.398 0.77-0.584 1.17-0.204-0.0298 0.0914-1.19 0.584-1.17zm56.7 0.193c0.592 2.99-0.396 6.09-0.389 9.15-1.23-0.33-0.278-1.72-0.195-2.73 0.183-2.23 0.136-4.58 0.584-6.43zm-54.9 0.391c0.37 0.446-0.396 1.41-0.391 2.14-0.512-0.506-0.154 0.315-0.779 0.195 0.299-0.869 0.827-1.51 1.17-2.34zm-0.779 0.193c-0.19 0.915-0.937 2.96-1.95 3.7 0.528-1.35 1.4-2.36 1.95-3.7zm38 0c0.43 0.0243 0.0831 0.827 0.195 1.17 0.203 2.01-0.387 4.24-0.391 6.62-0.24 0.0851-0.399 0.249-0.389 0.584-0.567-2.26 0.468-4.59 0.584-6.81v-1.56zm2.14 0c1.14 2.04 1.23 5.13 1.75 7.79 0.966-2.29 0.603-4.98 1.36-7.21 0.399 2.61-0.524 5.58-0.975 7.98-0.301-0.469-0.408-0.831-0.389 0.195-0.978-1.75-0.915-4.54-1.36-6.81-0.165 2.17 0.356 4.41 0.389 7.21-0.565-1.28 0.0139-0.138-0.777 0.193 0.0648-3.42-0.308-6.71 0-9.35zm-40.6 0.148c0.0756 0.03 0.0914 0.208-0.119 0.631-0.3-0.32-0.00686-0.681 0.119-0.631zm-1.87 0.0469c0.473 0.299-0.419 0.865-0.391 1.36-0.489-0.315 0.347-0.937 0.391-1.36zm56.3 0c0.958 1.9 0.462 5.25 0.584 7.98-0.466-1.56-0.72-4.9-0.584-7.98zm-29.2 0.195c0.261 0.128 0.362 0.417 0.389 0.779-0.586 0.196-0.345-0.434-0.389-0.779zm5.45 0c0.855 1.37 1.25 4.18 1.17 5.84 0.705-0.497 0.459-1.91 0.584-2.92 0.0922-0.739 0.207-1.43 0.389-1.95 0.568 2.38-0.791 5.36-0.389 7.59-0.62-1-0.133 0.546-0.584 0.779-0.977-0.454-0.148-1.37-0.195-2.14-0.137-2.22-0.812-4.91-0.973-7.2zm3.89 0c0.529 3.03-0.0947 5.54-0.584 7.98-0.421-2.5 0.585-5.26 0.584-7.98zm0.586 0c0.0518 0.802 0.45 0.271 0.434 0.0684-0.0111-0.0131-0.0379-0.0667-0.0449-0.0684 0.0303 0.00731 0.0422 0.0341 0.0449 0.0684 0.128 0.151 0.478 0.913 0.344 0.127 0.746 1.59 1.1 3.58 1.17 5.84 0.693-0.559 0.315 2.03 0.195 2.92-0.79-2.32-0.884-5-1.36-7.98-0.709 2.29 0.473 5.69-0.193 8.18-0.33 0.682-0.502-0.381-0.391-0.779-0.551-0.0319 0.162 1.2-0.389 1.17-1.07-0.886-0.108-2.18 0-3.31 0.185-1.94 0.0807-4.14 0.195-6.23zm4.67 0c0.32 1.91 0.709 5.21 0.584 7.79-0.011 0.225 0.0668 1.62-0.195 0.779v-1.17c-0.117-0.466-0.278-0.889-0.193-1.56-0.32 0.718-0.246 1.83-0.391 2.73-0.062 0.95-0.308-0.188-0.195-0.584 0.192-3.33 0.231-5.21 0.391-7.98zm10.7 0c0.328 0.924 0.416 3.92 0.389 5.84-0.331 0.0715-0.367-0.151-0.389-0.389-0.412 0.325-0.121 1.15-0.195 1.75-0.113 0.915 0.0233 0.718-0.391 1.17-0.227-1.85 0.225-5.5 0.586-8.37zm3.11 0c0.531 0.215 0.146 1.27 0.195 1.95 0.157 2.13 0.226 3.96-0.195 6.04-0.737-2.5 0.186-5.14 0-7.98zm15.9 0.0371c0.0984 0.0567 0.249 0.423 0.301 0.547 0.943 2.17 1.77 4.45 2.34 7.01-1.39-1.92-1.56-5.06-2.72-7.2-0.0114-0.309 0.0289-0.386 0.0879-0.352zm-0.992 0.0234c0.0777-0.0047 0.165 0.325 0.125 0.523-0.0744 0.371-0.248-0.125-0.195-0.391 0.0186-0.0926 0.0444-0.131 0.0703-0.133zm-19.3 0.135c0.439 0.145 0.0752 1.09 0.193 1.56 0.435-0.0837 0.0795-0.96 0.195-1.36 0.587 1.7-0.126 5.55-0.389 7.59-0.604-0.366 0.193-1.55-0.195-1.75-0.536 0.242 0.246 1.8-0.779 1.56 0.385-2.47 0.617-5.09 0.975-7.59zm-9.93 0.193c0.315 3.2-0.183 6.07-0.779 8.96-0.48-1.91 0.625-5.97 0.779-8.96zm12.1 0.195c0.357 0.888 0.353 4.16 0.584 6.04-0.107 0.432 0.373 0.277 0.391 0.584 0.145 0.882-0.536-0.298-0.391 0.584-0.0362 0.166 0.0766 0.184 0.195 0.195-0.334 0.569-0.483-0.666-0.389-1.17-0.581 0.133 0.334 1.76-0.779 1.36 1.03-2.03-0.268-5.19 0.389-7.59zm14.2 0c0.426 0.163 0.0859 2.77 0.195 3.89-0.426-0.163-0.0866-2.77-0.195-3.89zm2.14 0c0.307 1.41 0.818 4.47 0.584 6.81-0.49-2.05-0.685-4.73-0.584-6.81zm-65.8 0.195c0.486 0.719-0.835 1.07 0 0zm58.6 0c0.461 1.7 0.122 4.27 0 6.04-0.662-2.05-0.158-3.48 0-6.04zm5.65 0c0.843-0.00953 0.422 0.921 0.584 1.56 0.452 1.77 0.994 3.94 0.973 5.06-0.0205 1.13 0.0162-0.569-0.582-0.975v-1.36c-0.43 0.0243-0.0831 0.825-0.195 1.17v1.17c-0.319-1.69-0.394-3.63-0.389-5.65-0.498-0.0851-0.114-0.185-0.391-0.973zm-63 0.121c0.146 0.0205-0.262 1.27-0.488 1.44-0.365 0.489 0.116-0.187 0-0.584-0.173 0.0865-0.347 0.17-0.389 0.389-0.525 0.34 0.346-0.653 0.195-1.17 0.324 0.492 0.303 0.726 0.584 0 0.0457-0.0538 0.0767-0.0752 0.0977-0.0723zm30.3 0.0723c0.479 2.26-0.0221 6.24-0.389 8.37-0.676-2.82 0.412-5.56 0.389-8.37zm-4.74 0.0156c-0.0307-0.0235-0.0729 0.0222-0.129 0.18-0.0257 0.256-0.029 1.41 0.195 0.779 0.0191-0.192 0.0258-0.889-0.0664-0.959zm36.5 0.18c0.292 0.754 0.144 2.35 0 3.5-0.0806 0.647-0.0137 1.64-0.584 1.75 0.335-1.61 0.268-3.63 0.584-5.26zm-46.3 0.195c0.226-0.0317 0.346 0.0415 0.389 0.193-0.128 2.2 0.079 4.87-0.193 6.81-0.0989 0.707-0.352 1.57-0.779 1.95-0.129-3.31 0.533-5.83 0.584-8.96zm-6.81 0.389c0.661 1.07-0.717 3.58 0.195 4.28-0.512 0.0558-0.182 0.0788-0.391 1.17-0.201 1.05-0.864 2.23-0.777 3.31-0.439-0.368-0.253-1.53-0.195-2.14 0.197-2.11 0.925-4.68 1.17-6.62zm-10.3 0.195c0.0548 0.509-0.0709 0.836-0.584 0.777-0.0548-0.509 0.0709-0.836 0.584-0.777zm64.6 0.434c0.0921 0.12 0.0495 0.909 0.0508 1.12-0.268 0.62-0.193-0.687-0.195-0.973 0.0671-0.155 0.114-0.19 0.145-0.15zm-21.8 0.0664c-0.0764-0.111-0.101 0.675-0.0996 0.668-0.118 0.601-0.189 2.05 0 2.92 0.0567-1.17 0.281-2.42 0.193-3.12-0.0377-0.299-0.0683-0.436-0.0938-0.473zm10.9 0.0977c0.0922 0.0705 0.0855 0.767 0.0664 0.959-0.224 0.63-0.221-0.523-0.195-0.779 0.056-0.157 0.0982-0.203 0.129-0.18zm-10.1 0.375c-0.88 0.141-0.061 0.961 0 0zm-45.8 0.322c0.171-0.00179-0.398 0.995-0.512 1.24-0.391-0.157 0.35-0.803 0.391-1.17 0.0582-0.0461 0.0966-0.0662 0.121-0.0664zm57.6 0.104c-0.0266-0.0184-0.0563 0.021-0.0879 0.158-0.171 0.741 0.105 0.975 0.195 0.584 0.0232-0.102-0.0276-0.687-0.107-0.742zm-31.7 0.193c-0.0266-0.0184-0.0563 0.0229-0.0879 0.16-0.171 0.741 0.103 0.975 0.193 0.584 0.0234-0.102-0.0257-0.689-0.105-0.744zm40.8 0.354c0.45 0.653 0.069 2.14 0.195 3.12-0.701-0.332-0.425-2.48-0.195-3.12zm-35.8 0.258c-0.0259 0.00159-0.0517 0.0402-0.0703 0.133-0.0529 0.265 0.121 0.759 0.195 0.389 0.0399-0.199-0.0473-0.526-0.125-0.521zm-5.13 0.717c0.238 0.577-0.2 1.24 0.389 1.75-0.00691-0.707 0.11-1.54-0.389-1.75zm40.2 0.0957c0.193-0.0244 0.0431 1.29 0.0898 1.66-0.346 0.519-0.141-1.14-0.193-1.56 0.0431-0.0649 0.076-0.0961 0.104-0.0996zm-56.5 0.285c0.0922 0.0214 0.133 0.608 0.0859 0.787 0.741 0.313 0.33 2.17 0.389 3.5-0.263-0.473-0.389-0.12-0.584-0.389 0.273-0.306 0.525-0.62 0.391-1.75-0.422-0.0329-0.0888 0.69-0.195 0.973-0.409 0.142-0.0983-2.1-0.195-2.92 0.0408-0.155 0.0786-0.21 0.109-0.203zm36.5 0.00781c0.05 1.12-0.147 2.48 0.193 3.31-0.245-0.0427-0.397-0.303-0.389 0.195 1.31-0.13 0.192-3.43 0.195-3.51zm11.1 0v3.31c0.722-0.341 0.518-2.93 0-3.31zm-26.3 0.195c0.403 1.87-1.12 3.65 0 4.67 0.883-0.412 0.16-4.14 0-4.67zm27.6 0.404c0.0922 0.0704 0.0854 0.767 0.0664 0.959-0.224 0.63-0.222-0.524-0.195-0.779 0.056-0.158 0.0982-0.203 0.129-0.18zm-21.6 0.225c0.0921 0.12 0.0515 0.909 0.0527 1.12-0.268 0.62-0.193-0.687-0.195-0.973 0.0671-0.155 0.112-0.19 0.143-0.15zm-12.4 0.15c-0.192 1.5-0.0842 3.29-0.584 4.48 0.55-0.02 0.825-0.732 1.36-0.193 0.0415-1.87-0.0725-2.95-0.193-4.28h-0.584zm-4.09 0.193c0.121 1.47-0.151 3.33 0.584 3.89-0.254-0.969-0.313-3.53-0.584-3.89zm40 0.0352c0.0799 0.0553 0.129 0.643 0.105 0.744-0.0906 0.391-0.365 0.157-0.193-0.584 0.0316-0.137 0.0613-0.179 0.0879-0.16zm-37.9 0.744c0.0941 0.992-1.07 2.99 0 3.12-0.0255-0.362 0.162-3.34 0-3.12zm-7.59 0.584c-0.591 0.656 0.72 0.59 0 0zm11.3 0c-0.183 0.424-0.563 2.43 0.195 2.53 0.474-0.613 0.0678-2.01-0.195-2.53zm-2.79 0.0156c0.0923 0.0705 0.0857 0.767 0.0664 0.959-0.224 0.63-0.221-0.523-0.195-0.779 0.0561-0.157 0.0981-0.203 0.129-0.18zm-15.4 0.0625c0.186-0.073 0.0589 1.16 0.0938 1.48-0.326 0.561-0.153-0.995-0.193-1.36 0.0408-0.0701 0.073-0.107 0.0996-0.117zm23 0.193c0.186-0.0729 0.0591 1.16 0.0938 1.48-0.326 0.561-0.155-0.995-0.195-1.36 0.0408-0.0701 0.075-0.107 0.102-0.117zm5.94 0.312c0.434 0.588 0.153 0.87-0.391 0.391 0.0486-0.211 0.388-0.133 0.391-0.391zm-17.4 1.01c0.0799 0.0552 0.131 0.64 0.107 0.742-0.0903 0.391-0.367 0.157-0.195-0.584 0.0316-0.137 0.0613-0.177 0.0879-0.158zm-13.3 0.221c0.0775-0.00467 0.165 0.323 0.125 0.521-0.0741 0.37-0.247-0.124-0.193-0.389 0.0185-0.0926 0.0425-0.131 0.0684-0.133z"/>
 <path d="m79.9 36.4c-19.9 1.41-40.7 1.8-60.5 2.92-1.51 0.0851-2.62 0.175-4.09 0.584 4.47-0.0684 8.39-0.783 12.8-0.389-2.32 0.0481-5.06 0.252-7.4 0.389-0.777 0.0455-1.97-0.37-2.53 0.389 2.05-0.168 4.91-0.411 6.23-0.193-2.67 0.506-6.27 0.091-8.76 0.779 7.5-0.223 16.1-0.736 24.3-1.17 1.11-0.0582 2.35-0.33 3.31 0.195-8.59 0.709-19.1 0.225-26.5 1.36-0.195 0.0303-1.32-0.364-1.17 0.389 1.5-0.153 3.37-0.675 4.87-0.389 0.396 0.076 0.204 0.202 0.193 0.193 0.731 0.597 2.37 0.0448 3.31 0 16.4-0.78 34.7-1.78 51.2-2.14-9.95 0.303-20.2 1.09-30.2 1.56-8.88 0.413-19.5 0.534-27.5 1.36-0.489 0.0512-1.51-0.369-1.75 0.391 1.1-0.236 2.64-0.317 4.09-0.391 1.43-0.0727 3.07-0.374 3.89 0.195-2.66 0.0679-5.57-0.123-7.59 0.584 4.71-0.289 10.2-0.791 14.8-0.584-4.98 0.568-9.86 0.187-14.4 0.973 23-1.06 45-2.1 67.8-3.31 0.215-0.0882 0.139-0.149-0.195-0.195-1.92-0.266-4.35 0.272-6.62 0.389-14.2 0.73-28.3 1.32-43.8 1.95 16.3-1.06 33.4-1.76 49.3-2.53 0.888-0.295-1.74-0.205-2.34-0.193-14.6 0.28-30.3 1.97-45.2 2.14 15.6-1.21 31.9-1.41 48.1-2.72-2.13-0.178-4.33 0.601-6.23 0 1.88-0.0894 2.76-0.202 4.48-0.195 0.205-0.0107 0.152-0.25-0.195-0.195-11.6 0.285-22.9 1.34-33.7 1.36 11.3-0.811 23.4-0.889 34.7-1.95-13.4 0.373-25.8 1.59-38.9 1.56 10.8-0.671 23.3-0.848 35-1.75 0.75-0.0577 1.78 0.383 2.34-0.391-15.8 0.781-32.7 2.04-48.9 2.14 11.1-0.495 23.9-1.02 35.2-1.56 0.642-0.0303 5.7-0.253 1.95-0.389-3.24-0.117-6.7 0.245-10.1 0.389-10.4 0.438-20.7 1.36-31 1.36 14-0.623 30.4-1.66 45-2.34 2.19-0.102 4.53 0.158 6.62-0.584zm0.195 0.584c-1.68 0.0977-4.43 0.28-5.84 0.389-1.13 0.087-2.71-0.362-2.92 0.391 2.69-0.485 6.35-0.0107 8.76-0.779zm-2.92 1.95c-0.0684 0.646-1.12 0.305-1.75 0.389 0.347-0.653 0.891-0.1 1.75-0.389zm-45.2 0.584c-0.249 0.854-2.04 0.169-2.92 0.389-0.482 0.0245-0.331-0.239 0-0.195 1.01-0.0329 2.2 0.122 2.92-0.193zm-4.22 0.223c0.195-0.00524 0.339 0.0777 0.332 0.361-0.869 0.0396-4.9 0.00322-2.53-0.195h1.56c0.2-0.0679 0.448-0.161 0.643-0.166zm19.6 0.125c0.0961 2.66e-4 0.221 0.0129 0.377 0.041-0.374 0.52-1.05-0.0429-0.377-0.041zm-0.598 0.041c-2.45 0.735-5.11 0.454-7.79 0.584-5.46 0.264-11.8 0.69-17.5 0.973 0.288-0.744 1.26-0.373 1.75-0.389 7.78-0.254 16-0.777 23.6-1.17zm-29.4 0.154c-0.531-0.0172-2.01 0.144-1.97 0.43 0.887 0.071 0.892-0.117 1.36-0.195 0.9-0.15 0.924-0.224 0.605-0.234zm66.6 0.408c-0.246-0.0191-0.453 0.00183-0.465 0.217 0.342-0.112 1.15 0.235 1.17-0.195-0.171 0.0559-0.459-0.00239-0.705-0.0215zm-0.854 0.0215c-16.9 0.814-33.3 1.64-49.8 2.34-5.47 0.23-11 0.418-16.4 1.17 1.31 1.35 2.59 1.89 4.87 1.17-0.467-0.259-2.58 0.347-3.31-0.193 20.8-1.48 42.2-1.67 62.5-3.12 1.16-0.0825 6.24-0.251 3.7-0.391-5.06-0.279-12.2 0.6-15.8 0.779-17.1 0.867-34.5 1.61-50.8 2.34 11.4-0.948 25.3-1.37 37.6-1.95 8.37-0.389 18.7-0.712 26.5-1.36 0.356-0.0298 2.17-0.0454 0.389-0.195-3.46-0.29-6.15 0.662-8.76 0.195 3.12-0.529 6.26-0.0572 9.35-0.779zm1.15 0.367c-0.28-0.0203-0.521-9.15e-4 -0.562 0.217 0.403-0.116 1.28 0.242 1.36-0.193-0.202 0.0578-0.521-0.00318-0.801-0.0234zm-10.7 0.412c-18.8 1.35-37.8 1.88-56.1 2.92 4.47-0.677 8.87-0.789 13.2-0.973 15.4-0.65 28.1-1.36 42.8-1.95zm-54.1 0.193c-1.1 0.199-3.5 0.132-3.7 0.584 0.954-0.474 3.13 0.275 3.7-0.584zm15.4 0.00195h0.391c-0.454 0.757-1.71 0.341-2.53 0.389-2.35 0.136-6.28 0.637-8.76 0.195 3.4-0.186 7.18-0.251 10.9-0.584zm49 0.566c-0.379-0.0104-0.822-0.00661-1.27 0.0176-1.33 0.356-3.41-0.0413-4.67 0.389 1.19 0.17 4.47-0.164 6.04-0.195 1.6-0.032 1.04-0.18-0.0918-0.211zm-51.5 0.211c0.465-0.0093 0.725 0.0072 1.17 0-1.12 0.467-3.62 0.0491-1.17 0zm53.7 0.195c-22 0.986-42.4 2.08-62.5 3.12-1.63 0.0839-3.32-0.243-4.09 0.584 22.8-1.67 45.1-2.04 66.6-3.7zm-13.2 0.195c-7.79 0.371-15.8 0.698-24.9 1.17-6.32 0.324-12.7 0.682-18.9 0.973-1.57 0.0744-5.98 0.429-6.04 0.391 0.527 0.382 4.99-0.0833 7.01-0.195 13.4-0.743 28.6-1.56 40.3-2.14 1.74-0.086 5.59 0.342 7.2-0.193-0.248 0.0822-4.51-0.0076-4.67 0zm12.9 0.287c-0.248 0.017-0.562 0.1-0.781 0.102-1.14 0.0067-2.26-0.0138-2.53 0-10.5 0.531-21 0.993-31.2 1.56-9.62 0.532-20.2 0.809-29.8 1.56-0.412 0.0324-1.13-0.0174-1.36 0.389 0.452 0.322 0.909 0.0596 1.36 0 2.12-0.278 4.05-0.297 6.23-0.389 19.9-0.837 39.1-2.24 58.4-2.92 0.0428-0.264-0.139-0.314-0.387-0.297zm1.36 0.49c-10.3 0.415-20.8 1.11-31.3 1.56-8.69 0.37-18.9 0.594-27.1 1.36-0.216 0.0203-1.27-0.383-1.17 0.389 9.29-0.567 19.2-1.05 28.8-1.56 10.1-0.531 20.7-0.761 30.8-1.75zm-0.162 0.574c-0.358-9.23e-4 -0.76 0.163-1.01 0.205-2.69 0.452-5.67 0.263-8.56 0.391-8.43 0.37-16.3 0.997-24.1 1.36-9.55 0.444-19.6 0.641-28.4 1.36-1.21 0.0989-3.41-0.292-3.7 0.973 15.7-0.222 34.1-1.56 50.4-2.34 4.7-0.224 10.7-0.384 14.6-0.777 0.42-0.0424 1.41 0.433 1.56-0.391-0.0733-0.622-0.388-0.788-0.746-0.789zm-3.34 0.594c0.174 0.12 0.349 0.235 0.391 0 0.799 0.213-0.696 0.815-0.391 0zm2.14 0c-0.0598 0.264-0.488 0.162-0.779 0.195 0.0601-0.264 0.488-0.162 0.779-0.195zm-58.8 1.75c-0.784 0.143-2.45 0.127-3.31 0.193-0.481 0.0374-3.4 0.241-1.95 0.391 0.885 0.148 1.76-0.129 2.73-0.195 0.898-0.0612 2.08 0.376 2.53-0.389zm60 0.348c-1.44-0.00563-0.719 0.546 0.752 0.041-0.297-0.0283-0.547-0.0402-0.752-0.041zm-3.85 0.211c-0.575-0.0234-1.11-0.00623-1.44 0.219 0.977-0.126 2.46 0.257 3.12-0.193-0.489 0.0632-1.1-0.00204-1.68-0.0254zm-2.72 0.182c-1.32-6.1e-4 -0.521 0.546 0.699 0.0371-0.279-0.0272-0.511-0.037-0.699-0.0371zm-2.05 0.0156c-0.346-0.0217-0.652-0.00413-0.756 0.217 0.528-0.121 1.55 0.246 1.75-0.195-0.264 0.0602-0.652 1.73e-4 -0.998-0.0215zm6.95 0.178c-0.605-0.0175-1.25 0.00975-1.86 0.0391-1.06 0.0503-2.49 0.0733-3.11 0.584 2.07-0.271 4.3-0.367 6.62-0.389-0.469-0.154-1.04-0.217-1.64-0.234zm-10.1 0.0332c-3.3 0.0494-6.21 0.488-9.66 0.395 2.62 0.431 8.68-0.14 11.1-0.389-0.49-0.0116-0.97-0.0129-1.44-0.00586zm11.6 0.348c-0.181 0.019-0.406 0.202-0.428 0.242-0.184 0.342 0.718-0.0609 0.584-0.195-0.0413-0.0413-0.096-0.0532-0.156-0.0469zm-8.21 0.0469c-2.93 0.0586 0.269 0.461 1.56 0-0.498 0.0076-1.04-0.0102-1.56 0zm7.4 0c-2.36 0.431-5.39 0.188-7.79 0.584h-1.36c-0.422-0.141-1.24 0.2-0.389 0.195h1.36c1.94-0.00381 4.3-0.299 5.84-0.389 0.846-0.0496 2.73 0.329 2.34-0.391zm-24.1 0.188c-0.666 0.0157-1.27 0.0986-1.65 0.396 1.16 0.0212 1.45-0.0766 2.14-0.193 1.01 0.108 4.07-0.127 1.56-0.195-0.653 0.0287-1.39-0.0235-2.05-0.00781zm10.6 0.00781c-4.05 0.468-8.67 0.331-11.9 0.779 1.15 0.35 4.62-0.473 5.45 0.193-15.3 0.466-30.2 1.8-44.8 1.95 1.38-0.375 3.47-0.0314 4.87-0.389 1.87 0.258 2.37-0.379 2.92-0.195-1.76-0.584-6.79 0.855-7.98 0 1.36 0.0138-0.521-0.313 0.195-0.779-0.802 0.251-0.228 2.23 0.193 2.53 5.02-0.625 11.8-0.696 17.9-0.973 15.4-0.699 28.6-1.68 43.6-2.34 1.13-0.0498 2.45 0.362 3.5-0.391-5.1 0.45-11.1 0.536-16.2 0.779-1.53 0.0739-4.26 0.562-5.06 0 3.58-0.115 7.16-0.234 10.5-0.584-2.5-0.279-7.29 0.663-9.54 0 0.957 0.176 2.16-0.151 3.12-0.195 1.11-0.0517 2.45 0.367 3.11-0.389zm1.75 0c-3.3 0.0529 0.287 0.466 1.75 0-0.579 0.0074-1.14-0.0098-1.75 0zm-15.5 0.146c-0.533 0-1.07 0.0806-1.27 0.242 0.591 0.216 1.48-0.124 2.53 0-0.2-0.162-0.733-0.242-1.27-0.242zm-2.71 0.197c-1.06 0.0169-2.11 0.19-3.23 0.24-2.68 0.122-5.55-0.14-7.79 0.584 3.22-0.417 9-0.268 12.1-0.779-0.353-0.0393-0.705-0.0505-1.06-0.0449zm2.69 0.412c-0.51-0.0231-0.978-0.00747-1.24 0.217 0.848-0.126 2.2 0.255 2.72-0.193-0.424 0.0628-0.974-3.49e-4 -1.48-0.0234zm-1.44 0.0234c-0.347 0.236-1.13 0.0348-1.36 0.389 0.615 0.0312 1.18 0.00767 1.36-0.389zm-2.47 0.115c-0.77 0.00955-1.65 0.239-2.39 0.273-5.1 0.237-11.5 0.493-16 0.584-0.254 0.336-0.964 0.186-1.17 0.195-0.131 0.00596-2.35 0.195-0.584 0.195 6.63 0 13.2-0.596 18.9-0.975 0.526-0.0348 1.63-0.282 1.95-0.193-0.221-0.0612-0.466-0.0833-0.723-0.0801zm-32.8 0.0137c-0.34-0.03-0.935 0.0593-1.15 0.455 0.363-0.00143 0.436-0.161 0.779-0.195 0.799-0.081 0.715-0.23 0.375-0.26zm22.4 0.0645c-2.23-0.0922-3.94 0.347-6.23 0.195 1.07 0.484 5.6-0.0285 6.23-0.195zm43.2 0.172c-0.0514-8.94e-4 -0.115 0.00571-0.195 0.0234-0.705-0.0915-0.717 0.166-1.17 0.195-10.2 0.667-21.3 0.969-32.3 1.56-10.1 0.54-21.8 0.728-30.6 1.56-0.587 0.056-1.59-0.38-1.95 0.389 9.42-0.0427 21.9-0.763 32.5-1.36 11.1-0.626 22.7-0.69 33.5-1.95 0.261-0.00209 0.555-0.408 0.195-0.414zm-22.8 0.0234c-0.624 0.77-1.79 0.34-2.53 0.391-13.1 0.889-28.3 1.37-41.1 2.14 0.483-0.755 1.93-0.332 3.12-0.389 12.7-0.606 26.8-1.48 40.5-2.14zm-31.5 0.162c-2.41 0.0637-5.63 1.01-6.81 0.617 0.981 0.326 1.63 0.0872 3.5 0 1.55-0.0725 3.45-0.0697 4.28-0.584-0.303-0.0335-0.629-0.0423-0.973-0.0332zm2.51 0.00977c-0.542-0.0232-1.05-0.00587-1.34 0.219 0.912-0.126 2.33 0.254 2.92-0.195-0.456 0.063-1.04-2.01e-4 -1.58-0.0234zm-10.7 0.502c-1.2 0.0633-2.93 0.515-3.15 0.301 0.501 0.501 3.85-0.254 4.09-0.195-0.204-0.104-0.544-0.127-0.943-0.105zm8.54 0.105c-1.23 0.326-3.14-0.0239-4.28 0.389 1.39-0.171 3.51 0.394 4.28-0.389zm-15 0.584c-0.0303 0.229 0.033 0.553-0.195 0.584-0.00238-0.298-0.53-0.64-0.389 0 0.625-0.171 0.402 0.505 0.777 0.584-0.112-0.342 0.237-1.14-0.193-1.17zm0.664 1.27c-0.107-0.0147-0.152 0.00946-0.0801 0.0918 0.411 0.173 0.575 0.593 1.17 0.584 0.108-0.236-0.766-0.632-1.09-0.676zm21.5 1.26c0.0441 0.345-0.197 0.975 0.389 0.779-0.0267-0.363-0.128-0.651-0.389-0.779zm43.3 0.0625c-0.0259 0.00159-0.0517 0.0402-0.0703 0.133-0.0527 0.265 0.121 0.759 0.195 0.389 0.04-0.199-0.0473-0.526-0.125-0.521z" fill="#cbc1b6"/>
</svg>
