<?xml version="1.0" encoding="UTF-8" standalone="no"?>
<svg
   xmlns:dc="http://purl.org/dc/elements/1.1/"
   xmlns:cc="http://creativecommons.org/ns#"
   xmlns:rdf="http://www.w3.org/1999/02/22-rdf-syntax-ns#"
   xmlns:svg="http://www.w3.org/2000/svg"
   xmlns="http://www.w3.org/2000/svg"
   xmlns:xlink="http://www.w3.org/1999/xlink"
   xmlns:sodipodi="http://sodipodi.sourceforge.net/DTD/sodipodi-0.dtd"
   xmlns:inkscape="http://www.inkscape.org/namespaces/inkscape"
   id="svg1"
   width="16"
   height="16"
   version="1.1"
   sodipodi:docname="inkscape-symbolic.svg"
   inkscape:version="1.0alpha2 (e9298ea62f, 2019-07-05, custom)">
  <metadata
     id="metadata182">
    <rdf:RDF>
      <cc:Work
         rdf:about="">
        <dc:format>image/svg+xml</dc:format>
        <dc:type
           rdf:resource="http://purl.org/dc/dcmitype/StillImage" />
        <dc:title></dc:title>
      </cc:Work>
    </rdf:RDF>
  </metadata>
  <sodipodi:namedview
     id="base"
     showgrid="true"
     inkscape:pagecheckerboard="true"
     inkscape:snap-global="false"
     inkscape:zoom="8.8324837"
     inkscape:cx="-21.731958"
     inkscape:cy="20.882237"
     inkscape:window-width="1360"
     inkscape:window-height="704"
     inkscape:window-x="0"
     inkscape:window-y="27"
     inkscape:window-maximized="1"
     inkscape:current-layer="inkscape-logo">
    <inkscape:grid
       id="GridFromPre046Settings"
       type="xygrid"
       originx="0pt"
       originy="0pt"
       spacingx="1pt"
       spacingy="1pt"
       color="#3f3fff"
       empcolor="#3f3fff"
       opacity="0.15"
       empopacity="0.38"
       empspacing="5" />
  </sodipodi:namedview>
  <defs
     id="defs3">
    <linearGradient
       gradientUnits="userSpaceOnUse"
       id="BlackTransparent">
      <stop
         id="stop12"
         offset="0"
         style="stop-color:black;stop-opacity:1" />
      <stop
         id="stop14"
         offset="1"
         style="stop-color:black;stop-opacity:0" />
    </linearGradient>
    <linearGradient
       gradientUnits="userSpaceOnUse"
       id="WhiteTransparent">
      <stop
         id="stop7"
         offset="0"
         style="stop-color:white;stop-opacity:1" />
      <stop
         id="stop9"
         offset="1"
         style="stop-color:white;stop-opacity:0" />
    </linearGradient>
    <linearGradient
       inkscape:collect="always"
       xlink:href="#linearGradient5785"
       id="linearGradient9175"
       gradientUnits="userSpaceOnUse"
       x1="82.118591"
       y1="20"
       x2="60"
       y2="40" />
    <linearGradient
       gradientUnits="userSpaceOnUse"
       id="linearGradient5785">
      <stop
         id="stop5787"
         offset="0"
         style="stop-color:#c0cdf9;stop-opacity:1" />
      <stop
         id="stop5789"
         offset="1"
         style="stop-color:#07092d;stop-opacity:0.28804347" />
    </linearGradient>
    <clipPath
       clipPathUnits="userSpaceOnUse"
       id="clipPath9086">
      <path
         inkscape:connector-curvature="0"
         d="m 54.100001,12.5 -41.2,42.2 c -15.6,15.6 10.1,14.3 19.4,20.2 4.3,2.8 -13.8,6.4 -10.1,10.1 3.6,3.7 21.7,7.1 25.3,10.7 3.6,3.7 -7.3,7.6 -3.7,11.3 3.5,3.7 11.9,0.2 13.4,8.6 1.1,6.2 15.4,3.1 21.8,-2.2 4,-3.4 -6.9,-3.4 -3.3,-7.1 9,-9.1 17,-4.1 20.3,-12.5 1.8,-4.5 -13.6,-7.7 -9.5,-10.6 C 96.300001,76.3 132.3,72.8 115.7,56.2 L 73.000001,12.5 c -5.3,-5 -14,-5 -18.9,0 z m -9.9,64.7 c 0.9,0 30.8,4 19.3,7.1 -4.4,1.2 -24.6,-7.1 -19.3,-7.1 z M 101.4,93.8 c 0,2.1 16.3,3.3 15.4,-0.5 -1.3,-6.4 -13.6,-5.9 -15.4,0.5 z m -69.499999,11.1 c 3.7,3.2 9.3,-0.7 11.1,-5.2 -3.6,-4.7 -16.9,0.3 -11.1,5.2 z m 67.5,-6.7 c -4.6,4.2 0.799999,8.6 5.299999,5.7 1.2,-0.8 -0.1,-4.7 -5.299999,-5.7 z"
         id="use9088"
         style="opacity:1;fill:#ffffff;fill-opacity:1" />
    </clipPath>
  </defs>
  <g
     id="inkscape-logo"
     label="#inkscape_options"
     transform="matrix(1.0329834,0,0,1.0338481,-0.31473882,-0.20784698)">
    <path
       id="use42"
       style="opacity:1;fill:#000000;fill-opacity:1;stroke:none;stroke-width:0.13205;stroke-opacity:1"
       d="M 6.7518419,1.1023692 1.3516805,6.7164257 c -2.04472154,2.0753388 1.3238253,1.9023939 2.5427943,2.6872972 0.5636092,0.372497 -1.8087921,0.8514211 -1.3238263,1.3436491 0.4718589,0.492227 2.8442602,0.944545 3.3161191,1.42347 0.4718589,0.492227 -0.9568247,1.011062 -0.4849658,1.503289 0.458751,0.492227 1.5597548,0.02661 1.7563634,1.144097 0.1441791,0.824814 2.0185067,0.412407 2.8573678,-0.292676 C 10.53982,14.073234 9.1111364,14.073234 9.5829943,13.581007 10.762643,12.370393 11.811218,13.035565 12.243755,11.918076 12.479684,11.31942 10.461177,10.89371 10.998571,10.507909 12.283076,9.5899709 17.001663,9.1243511 14.82587,6.9159779 L 9.2291006,1.1023692 c -0.6946814,-0.66517262 -1.8350059,-0.66517262 -2.4772587,0 z M 12.951542,11.918076 c 0,0.279372 2.136471,0.439014 2.018507,-0.06652 -0.170394,-0.85142 -1.782577,-0.784903 -2.018507,0.06652 z m -9.1094959,1.476683 c 0.4849658,0.42571 1.218969,-0.09312 1.4548984,-0.69178 -0.4718589,-0.625262 -2.2151154,0.03991 -1.4548984,0.69178 z m 8.8473529,-0.891332 c -0.602931,0.558745 0.104857,1.144098 0.694681,0.758298 0.157286,-0.106429 -0.01311,-0.625263 -0.694681,-0.758298 z"
       inkscape:connector-curvature="0" />
    <path
       inkscape:connector-curvature="0"
       d="M 6.6806634,0.72729095 0.98423807,6.6493461 C -1.1726608,8.8385418 2.3806918,8.6561088 3.6665354,9.4840739 4.2610652,9.8770065 1.7585095,10.382205 2.2700816,10.901438 c 0.4977459,0.519232 3.0003017,0.996365 3.4980476,1.501564 0.4977459,0.519232 -1.0093181,1.066531 -0.5115722,1.585763 0.4839197,0.519232 1.6453268,0.02807 1.8527209,1.206864 0.152089,0.870065 2.1292463,0.435033 3.0141281,-0.308732 C 10.676457,14.409764 9.1693929,14.409764 9.6671388,13.890532 10.911504,12.613501 12.017606,13.315166 12.473873,12.136369 12.722746,11.50487 10.593499,11.055804 11.160376,10.648838 12.515351,9.6805402 17.49281,9.1893745 15.197649,6.8598457 L 9.2938293,0.72729095 c -0.7327925,-0.7016653 -1.9356784,-0.7016653 -2.6131659,0 z M 5.3118621,9.8068399 c 0.1244365,0 4.2584927,0.5613321 2.6684711,0.9963651 C 7.3719771,10.971604 4.5790696,9.8068399 5.3118621,9.8068399 Z m 7.9086289,2.3295291 c 0,0.294699 2.253683,0.463099 2.129247,-0.07017 -0.179742,-0.898131 -1.880374,-0.827965 -2.129247,0.07017 z m -9.6092607,1.557697 c 0.5115722,0.449065 1.2858436,-0.09823 1.5347166,-0.729732 -0.4977459,-0.659566 -2.3366405,0.0421 -1.5347166,0.729732 z m 9.3327357,-0.940232 c -0.636009,0.589399 0.11061,1.206865 0.732793,0.799899 0.165915,-0.112267 -0.01383,-0.659566 -0.732793,-0.799899 z"
       id="use32"
       style="opacity:0.1;fill:none;stroke-width:0.13929406" />
    <path
       class="full-specularity"
       d="m 8.9014208,1.5014727 2.1364722,2.208373 c 0.196608,0.1995518 0.196608,0.6119589 0.07864,0.73169 L 10.054855,3.5635078 9.8451388,4.8539422 8.9669564,4.3750183 7.5382737,5.292957 7.0664148,3.363956 6.3061979,5.0401912 4.4056554,5.0268909 c -0.3670016,0 -0.3145729,-0.3857993 0.065535,-0.7715998 0.7471091,-0.8381175 2.2020075,-2.2615868 2.6607595,-2.7538146 0.4718589,-0.4922277 1.2976114,-0.4789243 1.7694703,0 z"
       id="icecap"
       inkscape:connector-curvature="0"
       style="opacity:1;fill:#ffffff;fill-opacity:1;stroke-width:0.13205" />
    <path
       style="opacity:1;fill:#ffffff;fill-opacity:0.983141;stroke:none;stroke-width:0.13205;stroke-opacity:1"
       d="m 5.4542305,9.7097019 c 0.1179642,0 4.0370134,0.5321381 2.5296873,0.9445461 C 7.4072016,10.813889 4.7595491,9.7097019 5.4542305,9.7097019 Z"
       id="path858"
       inkscape:connector-curvature="0" />
  </g>
</svg>
