<?xml version="1.0" encoding="UTF-8" standalone="no"?>
<svg
   xmlns:dc="http://purl.org/dc/elements/1.1/"
   xmlns:cc="http://creativecommons.org/ns#"
   xmlns:rdf="http://www.w3.org/1999/02/22-rdf-syntax-ns#"
   xmlns:svg="http://www.w3.org/2000/svg"
   xmlns="http://www.w3.org/2000/svg"
   xmlns:xlink="http://www.w3.org/1999/xlink"
   xmlns:sodipodi="http://sodipodi.sourceforge.net/DTD/sodipodi-0.dtd"
   xmlns:inkscape="http://www.inkscape.org/namespaces/inkscape"
   inkscape:version="1.0beta0 (1b5d333, 2019-09-08)"
   sodipodi:docname="align-horizontal-baseline-symbolic.svg"
   viewBox="0 0 16 16"
   height="16"
   width="16"
   id="svg1"
   version="1.1">
<style id="s0">
   .success { fill: #009909; }
   .warning { fill: #FF1990; }
   .error   { fill: #00AAFF; }
  </style>
  <style id="s2"> 
     @import '../../highlights.css'; 
  </style>
   
<metadata
     id="metadata895">
    <rdf:RDF>
      <cc:Work
         rdf:about="">
        <dc:format>image/svg+xml</dc:format>
        <dc:type
           rdf:resource="http://purl.org/dc/dcmitype/StillImage" />
      </cc:Work>
    </rdf:RDF>
  </metadata>
  <defs
     id="defs893" />
  <sodipodi:namedview
     inkscape:snap-global="false"
     inkscape:document-rotation="0"
     inkscape:current-layer="align-horizontal-baseline"
     inkscape:window-maximized="1"
     inkscape:window-y="-8"
     inkscape:window-x="54"
     inkscape:window-height="1177"
     inkscape:window-width="1858"
     inkscape:cy="15.763789"
     inkscape:cx="5.3143198"
     inkscape:zoom="22.4"
     showgrid="true"
     id="namedview"
     guidetolerance="10"
     gridtolerance="10"
     objecttolerance="10">
    <inkscape:grid
       id="grid"
       type="xygrid" />
  </sodipodi:namedview>
  <g
     id="align-horizontal-baseline"
     inkscape:label="00277"
     transform="matrix(0.666667,0,0,0.666666,-696.00001,-446.9076)">
    <g
       id="g22449"
       transform="matrix(-1,0,0,0.997921,1039.197,589.8441)"
       inkscape:label="#al_baselines_vert">
      <use
         xlink:href="#path5120"
         height="1250"
         width="1250"
         id="use22451"
         y="0"
         x="0"
         transform="matrix(-1,0,0,1.000085,-38.76176,-94.35424)" />
      <path
         transform="matrix(0,1,1,0,0,0)"
         style="opacity:0;fill:none"
         d="M 80.685799,-28.802999 H 104.7358 V -4.8029995 H 80.685799 Z"
         id="rect22453"
         inkscape:connector-curvature="0" />
      <path
         sodipodi:nodetypes="ccccccccccccccccc"
         id="path22455"
         d="m -12.100351,90.055107 c -0.753599,-0.655189 -2.034729,-0.420312 -2.606098,0.337304 -0.94396,1.147395 -1.216968,2.615178 -1.564299,3.988604 -0.257619,1.171297 -0.41943,2.36077 -0.484852,3.554781 -0.762891,-1.509938 -1.641816,-3.131752 -1.657784,-4.83207 -0.0211,-0.859425 0.495883,-1.587911 0.841182,-2.347928 0.285202,-0.637013 -0.500044,-1.299865 -1.173416,-1.095493 -0.824732,0.160437 -0.962155,1.070496 -0.938347,1.723061 0.08672,1.940837 0.8827,3.846554 1.688172,5.620325 1.141481,2.342412 2.775362,4.514669 4.912386,6.162889 0.840407,0.60398 2.965914,1.30444 4.0154571,0.94067 1.9355336,-0.96312 1.9355336,-2.88937 0,-2.88937 -0.9598841,-0.0647 -2.4572571,1.20381 -3.1696301,1.1799 -1.17574,-0.009 -2.013923,-1.01751 -2.331253,-1.97841 -0.322461,-1.271214 -0.02072,-2.584609 0.178456,-3.852083 0.324492,-1.647662 0.68963,-3.328702 1.54504,-4.819266 0.174972,-0.578909 1.545716,-0.922979 0.744986,-1.692914 z"
         style="opacity:1;"
         inkscape:connector-curvature="0" />
      <path
         style="opacity:1"
         d="m -16.150993,85.235778 c 0.534692,0 0.938106,0.08451 1.210214,0.253515 0.267356,0.169016 0.401028,0.418084 0.401028,0.747206 0,0.302443 -0.107413,0.540395 -0.322249,0.713849 -0.21961,0.169016 -0.52276,0.253525 -0.909461,0.253525 -0.482172,0 -0.887963,-0.160115 -1.217382,-0.480352 -0.3294,-0.324676 -0.494105,-0.729412 -0.494115,-1.21421 v -0.273533 h 1.331956 m -3.917099,-0.900652 v 4.263089 h 2.585143 v -1.107471 c 0.343737,0.453665 0.730437,0.785019 1.160091,0.994052 0.429674,0.204597 0.952434,0.306889 1.568279,0.306889 0.830682,0 1.506216,-0.224604 2.026579,-0.673823 0.5156,-0.453655 0.773401,-1.040747 0.773401,-1.761276 0,-0.876186 -0.32225,-1.518876 -0.966741,-1.928068 -0.649274,-0.409174 -1.666148,-0.61377 -3.050621,-0.613779 h -1.510988 v -0.186802 c 10e-6,-0.37804 0.159943,-0.653797 0.479796,-0.827268 0.319865,-0.177899 0.818751,-0.266854 1.49666,-0.266854 0.54902,0 1.059847,0.05115 1.532474,0.153445 0.472627,0.102303 0.911837,0.255748 1.317638,0.460334 v -1.821319 c -0.549019,-0.124535 -1.100425,-0.217935 -1.654216,-0.280212 -0.553782,-0.0667 -1.107572,-0.100058 -1.661364,-0.100068 -1.446527,9e-6 -2.489661,0.266872 -3.129389,0.80058 -0.644481,0.529281 -0.966732,1.392129 -0.966742,2.588544"
         id="path22457"
         inkscape:connector-curvature="0" />
    </g>
    <path
       class="success"
       style="opacity:1;fill-opacity:1"
       d="m 1048.4995,670.36207 h 1.5 v 24 h -1.5 z"
       id="rect22505"
       inkscape:connector-curvature="0" />
  </g>
</svg>
