<?xml version="1.0" encoding="UTF-8" standalone="no"?>
<svg
   xmlns:dc="http://purl.org/dc/elements/1.1/"
   xmlns:cc="http://creativecommons.org/ns#"
   xmlns:rdf="http://www.w3.org/1999/02/22-rdf-syntax-ns#"
   xmlns:svg="http://www.w3.org/2000/svg"
   xmlns="http://www.w3.org/2000/svg"
   xmlns:sodipodi="http://sodipodi.sourceforge.net/DTD/sodipodi-0.dtd"
   xmlns:inkscape="http://www.inkscape.org/namespaces/inkscape"
   version="1.1"
   id="svg1"
   width="16"
   height="16"
   viewBox="0 0 16 16"
   sodipodi:docname="bend-path-symbolic.svg"
   inkscape:version="1.1-dev (1fceb22ce1, 2019-12-30, custom)">
  <defs
     id="defs434" />
  <style
     id="s0">
.success { fill:#009909; }
.warning { fill:#FF1990; }
.error { fill:#00AAFF; }
</style>
  <style
     id="s2">
@import '../../highlights.css';
</style>
  <sodipodi:namedview
     objecttolerance="10"
     gridtolerance="10"
     guidetolerance="10"
     id="namedview"
     showgrid="true"
     inkscape:zoom="64"
     inkscape:cx="4.0048711"
     inkscape:cy="10.093361"
     inkscape:window-x="0"
     inkscape:window-y="27"
     inkscape:document-rotation="0"
     inkscape:window-width="2560"
     inkscape:window-height="1376"
     inkscape:window-maximized="1"
     inkscape:current-layer="layercompo">
    <inkscape:grid
       type="xygrid"
       id="grid" />
  </sodipodi:namedview>
  <metadata
     id="metadata1906">
    <rdf:RDF>
      <cc:Work
         rdf:about="">
        <dc:format>image/svg+xml</dc:format>
        <dc:type
           rdf:resource="http://purl.org/dc/dcmitype/StillImage" />
        <cc:license
           rdf:resource="http://creativecommons.org/publicdomain/zero/1.0/" />
        <dc:title></dc:title>
        <dc:date>13 Jan 2019</dc:date>
        <dc:creator>
          <cc:Agent>
            <dc:title>Ramón Miranda</dc:title>
          </cc:Agent>
        </dc:creator>
        <dc:rights>
          <cc:Agent>
            <dc:title>see the license tab</dc:title>
          </cc:Agent>
        </dc:rights>
        <dc:subject>
          <rdf:Bag>
            <rdf:li>icon ui</rdf:li>
          </rdf:Bag>
        </dc:subject>
        <dc:description>This is a contribution with Inkscape Project from
Ramon Miranda www.ramonmiranda.com (design and SVG file)
Jabiertxo (SVG stuff to integrate them in UI)</dc:description>
        <dc:publisher>
          <cc:Agent>
            <dc:title />
          </cc:Agent>
        </dc:publisher>
        <dc:identifier />
        <dc:source />
        <dc:relation />
        <dc:language>-</dc:language>
        <dc:coverage />
        <dc:contributor>
          <cc:Agent>
            <dc:title>Ramon Miranda
Jabier Arraiza</dc:title>
          </cc:Agent>
        </dc:contributor>
      </cc:Work>
      <cc:License
         rdf:about="http://creativecommons.org/publicdomain/zero/1.0/">
        <cc:permits
           rdf:resource="http://creativecommons.org/ns#Reproduction" />
        <cc:permits
           rdf:resource="http://creativecommons.org/ns#Distribution" />
        <cc:permits
           rdf:resource="http://creativecommons.org/ns#DerivativeWorks" />
      </cc:License>
    </rdf:RDF>
  </metadata>
  <g
     inkscape:groupmode="layer"
     id="layercompo"
     inkscape:label="bend-path">
    <path
       id="rect22048"
       d="M 0,0 H 16 V 16 H 0 Z"
       style="opacity:0;fill:none" />
    <path
       id="path438"
       style="opacity:1"
       d="m 3.1585219,10.126428 0.00378,0.0057 0.00332,0.0052 c 0.1394215,0.191356 0.3262909,0.280454 0.5011452,0.325578 0.174842,0.04513 0.3422895,0.05612 0.4703838,0.08944 0.1280945,0.03332 0.2088501,0.07537 0.2697379,0.196862 0.060888,0.12149 0.095066,0.34321 0.053949,0.725926 l -0.00899,0.09133 0.085655,0.03407 c 0.3750617,0.147274 0.7575109,0.480274 1.1073453,0.686648 0.1749171,0.103193 0.3474454,0.180234 0.5276445,0.162791 0.1281865,-0.0124 0.2207223,-0.145058 0.314695,-0.266426 0.08815,0.05808 0.1433708,0.122626 0.1590035,0.243236 0.018753,0.144693 -4.846e-4,0.326424 0.023187,0.500673 0.011872,0.08712 0.035956,0.176878 0.093227,0.254122 0.057261,0.07724 0.1494524,0.135353 0.2612213,0.159004 0.2235329,0.0473 0.5300553,-0.0089 1.0316294,-0.18929 l 0.062938,-0.02367 0.014199,-0.06436 c 0.04597,-0.20524 0.1059005,-0.339034 0.1661002,-0.420225 0.060202,-0.08119 0.1165251,-0.114471 0.1878701,-0.13061 0.1426925,-0.03227 0.364716,0.03516 0.6241855,0.09843 h 0.00378 0.00194 c 0.2819856,0.05318 0.5579818,0.01666 0.7723026,-0.151905 0.2143208,-0.168569 0.3549408,-0.456013 0.4098138,-0.860321 h 0.002 v -0.002 c 0.03593,-0.316716 0.151748,-0.486635 0.296711,-0.597209 0.135513,-0.103371 0.304645,-0.146492 0.463288,-0.176987 0.298212,0.283937 0.563803,0.466157 0.804955,0.491682 0.263745,0.02792 0.486173,-0.103916 0.656363,-0.295293 0.315666,-0.354971 0.525139,-0.926528 0.783186,-1.3893885 0.118461,0.092917 0.237533,0.1872987 0.338357,0.2233637 0.137718,0.04926 0.275097,0.04168 0.379052,-0.02508 0.207903,-0.1335336 0.263601,-0.4043471 0.309488,-0.700846 0.0459,-0.2964964 0.06637,-0.6338795 0.110738,-0.9123762 0.03061,-0.1921101 0.08814,-0.2721388 0.141493,-0.3667487 7.26e-4,-2.423e-4 0.0025,2.424e-4 0.0033,0 0.112747,-0.044982 0.225237,-0.1473541 0.35066,-0.3094904 0.237597,-0.3071525 0.427397,-0.8428895 0.182663,-1.437656 0.362472,-0.158439 0.611118,-0.3646723 0.647373,-0.5957889 0.03998,-0.2548854 -0.115224,-0.4802451 -0.332678,-0.5792284 -0.09633,-0.070579 -0.205538,-0.1004388 -0.298604,-0.097011 -0.100283,0.00368 -0.187243,0.02638 -0.256015,0.034073 -0.06877,0.00768 -0.108818,0.0026 -0.144808,-0.021297 -0.03509,-0.023284 -0.0815,-0.081798 -0.12351,-0.2191014 2.43e-4,0.00887 0.002,0.017033 0.002,0.026026 l -0.0052,-0.034073 c 9.68e-4,0.00368 0.0022,0.00448 0.0033,0.00804 -0.0054,-0.169596 -0.04954,-0.3164487 -0.135816,-0.4301607 -0.09077,-0.119653 -0.222719,-0.1988217 -0.375741,-0.2451307 -0.297782,-0.090113 -0.692455,-0.068234 -1.158926,-0.010879 h -0.002 c -0.300775,-0.041707 -0.665222,0.039573 -1.021218,0.1717796 -0.356592,0.1324314 -0.700897,0.3173674 -0.944082,0.5096642 -0.121604,0.096146 -0.218023,0.1926528 -0.279204,0.2971844 -0.0612,0.104534 -0.08308,0.2448109 -0.009,0.3506582 0.07409,0.1058498 0.20036,0.1532927 0.373848,0.1802986 0.07668,0.011945 0.212683,-3.89e-5 0.312802,0.00194 -0.375483,0.2419664 -0.789246,0.485825 -1.026425,0.7103103 -0.07749,0.073341 -0.14019,0.1452558 -0.178878,0.2285677 -0.0387,0.083309 -0.0478,0.1898471 0,0.2773094 0.03583,0.065598 0.109641,0.1043089 0.182664,0.1448052 C 10.113878,6.8378036 9.8204733,6.8321394 9.661746,6.9108061 9.3813153,7.0498163 9.2140884,7.254889 9.100437,7.4545877 8.986783,7.6542865 8.9196345,7.8492217 8.8425278,7.98034 8.7654234,8.1114606 8.7042037,8.1757162 8.5458157,8.1843006 h -0.00378 -0.00521 C 8.1639625,8.2303262 8.0023277,8.1348877 7.8823548,7.9784477 7.7623844,7.8220101 7.7002513,7.5795493 7.6159292,7.3452732 7.5315997,7.1109947 7.4090392,6.8663995 7.1384461,6.7783484 6.9210383,6.7076068 6.5680687,6.8315144 6.1740138,6.9946126 6.1605423,6.9743087 6.1510203,6.9480395 6.1347359,6.9321476 6.1044908,6.9026075 6.0686413,6.8750783 6.0273138,6.8464953 5.8620131,6.7321605 5.5956213,6.592298 5.2815127,6.4101799 4.6673121,6.0540798 3.8978102,5.5326355 3.4681142,4.8594225 c 0.014925,-0.044647 0.029806,-0.088221 0.066252,-0.1164136 0.049313,-0.038151 0.1182549,-0.06451 0.1821907,-0.085653 0.03198,-0.010564 0.061864,-0.019795 0.091334,-0.030759 0.029477,-0.010976 0.065508,-0.00719 0.1074222,-0.08045 0.020958,-0.036632 0.018414,-0.1009748 0,-0.1339215 C 3.8968991,4.3792791 3.8776661,4.3653788 3.8599449,4.3530729 3.8268964,4.3301037 3.7886846,4.3141246 3.7397467,4.2939199 3.5275046,4.1890878 3.5087634,4.1625788 3.4539184,4.0814428 3.3990831,4.0003044 3.3165709,3.8579172 3.0583031,3.6162609 l -0.00146,-0.00194 -0.00378,-0.00194 C 2.7075407,3.3221704 2.429628,3.1603078 2.1804437,3.1046148 2.1181482,3.0906831 2.057481,3.0841896 1.9991978,3.0847469 l -9.93e-5,5.33e-5 c -0.174842,0.0017 -0.3297436,0.0649 -0.4538209,0.1698897 C 1.2143904,3.5346597 1.0472119,4.0581247 0.80657336,4.5768796 v 0.00332 l -0.001937,0.00194 c -0.1507335,0.3698892 -0.19298904,0.6117854 -0.17509587,0.79786 0.0178813,0.1860748 0.0999909,0.3043855 0.15190445,0.3970352 0.0519064,0.092652 0.0848626,0.1595487 0.0643601,0.3236864 -0.020522,0.1641325 -0.1080589,0.4228994 -0.32889028,0.840442 l -0.0179777,0.035966 0.005213,0.037383 c 0.0467666,0.3360311 0.0920782,0.5078106 0.17556661,0.6222907 0.0417399,0.057242 0.10159037,0.097864 0.15711117,0.112629 0.0555304,0.014756 0.10019185,0.011024 0.13439639,0.010879 0.0683871,-2.423e-4 0.0927146,-0.00901 0.16420797,0.062465 0.071502,0.071471 0.1774322,0.244067 0.2971845,0.5995759 l 0.00194,0.00853 0.00521,0.00899 c 0.304933,0.5640804 0.6012453,0.6974809 0.8622146,0.8191523 0.0056,0.0026 0.207382,0.1081296 0.212955,0.1107196 0.1889991,0.1146933 0.3866795,0.3004312 0.6435856,0.7566843 z M 1.652707,8.3253188 C 1.5315445,7.9724195 1.4227365,7.7682966 1.3072509,7.6528666 1.1884798,7.5341392 1.0473647,7.5167547 0.96936873,7.5170504 0.93037667,7.5171982 0.9066762,7.5175349 0.89791243,7.5151138 0.88914029,7.5126957 0.88974743,7.514387 0.87472488,7.4938167 0.84613462,7.454612 0.79296388,7.298654 0.74931998,7.0073402 0.95272574,6.6138546 1.0604071,6.3339721 1.0857823,6.1309273 1.1125409,5.9167445 1.0529591,5.7664562 0.99255837,5.6586487 0.93216491,5.5508413 0.88328264,5.4846038 0.8709379,5.3562573 0.85867805,5.228628 0.88593574,5.0253507 1.0266293,4.6786007 l 0.00194,-0.00378 C 1.2747112,4.143651 1.462717,3.640868 1.70102,3.4392334 1.7906434,3.3634035 1.879695,3.3223255 1.997732,3.3242395 l -9.35e-5,1.46e-5 c 0.039348,7.269e-4 0.081923,0.0061 0.1287172,0.016573 0.1866658,0.041722 0.4412338,0.1809236 0.7694655,0.4561905 9.692e-4,7.269e-4 4.847e-4,7.269e-4 0.00145,0.00145 0.2356039,0.2217836 0.2923145,0.3228771 0.3558675,0.4169103 0.053689,0.079426 0.1630061,0.1576103 0.3165872,0.2451307 -0.059727,0.022606 -0.1205882,0.04221 -0.1840855,0.091332 -0.087472,0.067665 -0.1658555,0.176543 -0.1821907,0.3198994 l -0.00567,0.041172 0.021758,0.035964 C 3.6840509,5.7136871 4.5222448,6.2497441 5.1597611,6.6193615 5.478512,6.804169 5.750251,6.948497 5.8894715,7.0447884 c 0.031585,0.021855 0.053154,0.041499 0.068144,0.055368 l 0.062467,0.1736742 c 0.00964,-0.00218 0.017784,-0.00836 0.026972,-0.010879 0.5416777,-0.2721571 0.8518782,-0.307677 1.0179129,-0.2536484 0.1660422,0.054028 0.2437619,0.2015522 0.3217917,0.41833 0.078023,0.2167802 0.1395088,0.4832932 0.3038112,0.6975342 0.1635974,0.2133252 0.446654,0.3483588 0.8730983,0.2971845 C 8.7973914,8.4067771 8.9559369,8.2654099 9.0520442,8.1019846 9.1492052,7.9367519 9.2123148,7.7483753 9.3113707,7.5743377 9.4104168,7.4003 9.5376076,7.2418198 9.7689785,7.127141 10.000352,7.0124623 10.341939,6.9422172 10.863548,6.9733419 l 0.02697,-0.2413438 c -0.173388,-0.028675 -0.301407,-0.062986 -0.384731,-0.098431 -0.08333,-0.035445 -0.116341,-0.06993 -0.124933,-0.085655 -0.0086,-0.015725 -0.01211,-0.021855 0.0052,-0.059153 0.01732,-0.037291 0.06215,-0.094028 0.127298,-0.1556914 0.260594,-0.2466402 0.843221,-0.5742565 1.314146,-0.9048045 l 0.366787,-0.259327 -0.447197,0.039278 c -0.292224,0.025031 -0.506848,0.02028 -0.649265,-0.00194 -0.142416,-0.02217 -0.201673,-0.065007 -0.212477,-0.080448 -0.0108,-0.015434 -0.01613,-0.026822 0.01941,-0.087547 0.03555,-0.060723 0.114536,-0.1441074 0.221943,-0.2290401 0.214825,-0.1698655 0.542093,-0.3500113 0.876413,-0.474171 0.334321,-0.1241597 0.678841,-0.1909374 0.906697,-0.1590035 l 0.01609,0.00194 0.01609,-0.00194 c 0.472266,-0.059771 0.852256,-0.068437 1.089362,0.00332 0.118543,0.035876 0.198228,0.088296 0.252229,0.1594785 0.05401,0.07118 0.08653,0.1675733 0.08754,0.3109078 v 0.016573 l 0.0052,0.016088 c 0.05184,0.175787 0.124564,0.293904 0.225727,0.3610719 0.101173,0.067168 0.213745,0.069438 0.305704,0.059153 0.09195,-0.010269 0.172921,-0.02978 0.238032,-0.032179 0.06512,-0.00242 0.107155,0.00451 0.157111,0.046374 l 0.0142,0.012308 0.01609,0.00756 c 0.131188,0.05547 0.219599,0.1858252 0.196862,0.3307856 -0.02275,0.1449578 -0.162398,0.3376083 -0.572129,0.4793753 l -0.128717,0.044484 0.06057,0.1235104 c 0.268669,0.5424049 0.07024,0.9997948 -0.142913,1.2753427 -0.07132,0.092189 -0.116659,0.1173246 -0.166575,0.155689 l -0.05915,-0.068144 c -0.01146,0.00708 -0.0069,0.029504 -0.01752,0.037385 l -0.01088,-0.012308 c -0.06101,0.073305 -0.09801,0.1118465 -0.112629,0.1930745 -0.0037,0.020304 -0.0077,0.047177 0.0052,0.08045 -0.06141,0.1318112 -0.155132,0.2309906 -0.182193,0.4008196 -0.04723,0.2964311 -0.06797,0.6325155 -0.111206,0.9119037 -0.04324,0.2793908 -0.124434,0.4860989 -0.200174,0.5347462 -0.03787,0.024323 -0.07833,0.033964 -0.167995,0.00194 -0.08966,-0.032072 -0.217003,-0.1138187 -0.379052,-0.2593266 l -0.109317,-0.098431 -0.07714,0.1272972 c -0.307508,0.510974 -0.535989,1.1463866 -0.817323,1.4627416 -0.140669,0.158175 -0.272674,0.233467 -0.448618,0.214842 -0.175943,-0.01863 -0.418563,-0.148023 -0.733498,-0.467072 l -0.04496,-0.04448 -0.06436,0.01088 c -0.18141,0.03239 -0.404514,0.08724 -0.599103,0.235664 -0.194587,0.14843 -0.349544,0.393251 -0.391356,0.761894 v -0.0033 C 10.009484,11.931343 9.8888716,12.14916 9.738634,12.26733 9.5883892,12.3855 9.395889,12.417191 9.1608279,12.37286 8.9170467,12.31277 8.675388,12.221495 8.4330072,12.27632 8.3106187,12.30401 8.1938127,12.377294 8.1041165,12.498264 8.0282385,12.600598 7.9756562,12.755829 7.92855,12.931265 c -0.4417549,0.15257 -0.7288842,0.198393 -0.854643,0.171779 -0.066172,-0.01401 -0.094126,-0.03618 -0.1164136,-0.06625 -0.022291,-0.03007 -0.03946,-0.07688 -0.04827,-0.141493 -0.017614,-0.129233 7.269e-4,-0.313716 -0.023188,-0.498781 -0.023987,-0.185061 -0.1127307,-0.390085 -0.3345701,-0.485054 l -0.1093168,-0.04637 -0.049687,0.109315 c -0.082474,0.181925 -0.1553885,0.225696 -0.2437109,0.234243 -0.088324,0.0086 -0.2230265,-0.03744 -0.380947,-0.130608 -0.2965608,-0.174924 -0.6694468,-0.480958 -1.0727961,-0.660125 0.026885,-0.342245 0.014247,-0.60699 -0.071458,-0.777982 -0.094952,-0.189452 -0.263632,-0.27958 -0.4259016,-0.321792 -0.1622599,-0.04221 -0.3263831,-0.05228 -0.4703839,-0.08944 -0.1417985,-0.0366 -0.2611122,-0.09333 -0.3620169,-0.228567 0.00146,0.0024 0.00288,0.0042 0.00426,0.0066 l -0.00899,-0.01231 c 0.00146,0.0022 0.00317,0.0036 0.00472,0.0057 C 3.0801674,9.4959264 2.8240222,9.2739974 2.5986817,9.1411589 2.3306642,9.0163038 1.9359041,8.8492007 1.652707,8.3253188 Z" />
    <path
       id="path444"
       style="opacity:1"
       d="M 2.7401348,7.0878099 H 3.4679529 V 7.8137358 H 2.7401361 Z m 9.8459152,0 h 0.727818 V 7.8137358 H 12.586051 Z M 1.1789675,12.197691 c 0.2055379,0 0.3629641,0.1579 0.3629641,0.363436 0,0.205535 -0.1574262,0.362964 -0.3629641,0.362964 -0.20554046,0 -0.36296419,-0.157429 -0.36296419,-0.362964 0,-0.205536 0.15742373,-0.363436 0.36296419,-0.363436 z M 2.9072249,8.2988195 H 3.7807981 C 5.4931467,9.2571316 6.4532615,9.5111568 7.8784515,9.5329896 9.2798607,9.5544562 10.226393,9.2660042 12.103403,8.2699529 v 0.028866 h 1.695564 V 6.6032544 H 12.103403 V 6.8445981 7.5374004 C 10.05234,8.648746 9.196452,8.9051674 7.8893353,8.8851445 6.5914304,8.8652524 5.7288717,8.6658008 3.9525776,7.6557063 V 6.6032544 H 2.2551203 V 6.8445981 8.2988195 H 2.6729779 L 2.4022951,9.0384688 v 0 L 1.4104305,11.74959 c -0.074124,-0.0214 -0.1507196,-0.03644 -0.2314073,-0.03644 -0.46561079,0 -0.84801878,0.382409 -0.84801878,0.848019 0,0.465611 0.38240799,0.847547 0.84801878,0.847547 0.4656107,0 0.8475463,-0.381936 0.8475463,-0.847547 0,-0.307269 -0.1680022,-0.57577 -0.4150204,-0.724505 L 2.556809,9.2554513 Z"
       class="error" />
  </g>
</svg>
