<?xml version="1.0" encoding="UTF-8" standalone="no"?>
<svg
   xmlns:dc="http://purl.org/dc/elements/1.1/"
   xmlns:cc="http://creativecommons.org/ns#"
   xmlns:rdf="http://www.w3.org/1999/02/22-rdf-syntax-ns#"
   xmlns:svg="http://www.w3.org/2000/svg"
   xmlns="http://www.w3.org/2000/svg"
   xmlns:sodipodi="http://sodipodi.sourceforge.net/DTD/sodipodi-0.dtd"
   xmlns:inkscape="http://www.inkscape.org/namespaces/inkscape"
   inkscape:version="1.1-dev (6039630, 2019-12-20)"
   sodipodi:docname="bitmap-trace-symbolic.svg"
   viewBox="0 0 16 16"
   height="16"
   width="16"
   id="svg1"
   version="1.1">
  <metadata
     id="metadata3887">
    <rdf:RDF>
      <cc:Work
         rdf:about="">
        <dc:format>image/svg+xml</dc:format>
        <dc:type
           rdf:resource="http://purl.org/dc/dcmitype/StillImage" />
      </cc:Work>
    </rdf:RDF>
  </metadata>
  <defs
     id="defs3885" />
  <style
     id="s0">
.success { fill:#009909; }
.warning { fill:#FF1990; }
.error { fill:#00AAFF; }
</style>
  <style
     id="s2">
@import '../../highlights.css';
</style>
  <sodipodi:namedview
     inkscape:document-rotation="0"
     inkscape:current-layer="bitmap-trace"
     inkscape:window-maximized="1"
     inkscape:window-y="-6"
     inkscape:window-x="65"
     inkscape:window-height="890"
     inkscape:window-width="1296"
     inkscape:cy="8"
     inkscape:cx="8"
     inkscape:zoom="41.125"
     showgrid="true"
     id="namedview"
     guidetolerance="10"
     gridtolerance="10"
     objecttolerance="10">
    <inkscape:grid
       id="grid"
       type="xygrid" />
  </sodipodi:namedview>
  <g
     id="bitmap-trace"
     inkscape:label="00075"
     transform="translate(-165,-567.36218)">
    <path
       style="opacity:0;fill:none"
       d="m 165,567.36218 h 16 v 16 h -16 z"
       id="rect22966"
       inkscape:connector-curvature="0" />
    <path
       class="success"
       inkscape:connector-curvature="0"
       id="path22987"
       d="m 170.5,567.3622 c -3.0376,0 -5.5,2.4624 -5.5,5.5 0,3.0375 2.4624,5.5 5.5,5.5 3.0375,0 5.5,-2.4625 5.5,-5.5 0,-3.0376 -2.4625,-5.5 -5.5,-5.5 z m 0,2 c 1.9329,0 3.5,1.567 3.5,3.5 0,1.933 -1.5671,3.5 -3.5,3.5 -1.933,0 -3.5,-1.567 -3.5,-3.5 0,-1.933 1.567,-3.5 3.5,-3.5 z"
       style="opacity:1" />
    <path
       class="success"
       inkscape:connector-curvature="0"
       id="rect22991"
       d="m 176.9687,572.3622 c 0.013,0.1677 0.0313,0.3289 0.0313,0.5 0,0.5173 -0.0733,1.0175 -0.1875,1.5 H 179 v 7 h -7 v -2.1875 c -0.4825,0.1142 -0.9826,0.1875 -1.5,0.1875 -0.1711,0 -0.3323,-0.0183 -0.5,-0.0313 v 4.0312 h 2 9 v -2 -7 -2 h -2 -2.0313 z"
       style="opacity:1" />
  </g>
</svg>
