<?xml version="1.0" encoding="UTF-8" standalone="no"?>
<svg
   xmlns:dc="http://purl.org/dc/elements/1.1/"
   xmlns:cc="http://creativecommons.org/ns#"
   xmlns:rdf="http://www.w3.org/1999/02/22-rdf-syntax-ns#"
   xmlns:svg="http://www.w3.org/2000/svg"
   xmlns="http://www.w3.org/2000/svg"
   xmlns:sodipodi="http://sodipodi.sourceforge.net/DTD/sodipodi-0.dtd"
   xmlns:inkscape="http://www.inkscape.org/namespaces/inkscape"
   inkscape:version="1.1-dev (1fceb22, 2019-12-30)"
   sodipodi:docname="bool-op-symbolic.svg"
   viewBox="0 0 16 16"
   height="16"
   width="16"
   id="svg1"
   version="1.1">
  <style
     id="s0">
.success { fill:#009909; }
.warning { fill:#FF1990; }
.error { fill:#00AAFF; }
</style>
  <style
     id="s2">
@import '../../highlights.css';
</style>
  <defs
     id="defs1804" />
  <sodipodi:namedview
     inkscape:current-layer="layercompo"
     inkscape:window-maximized="1"
     inkscape:window-height="1177"
     inkscape:window-width="1858"
     inkscape:document-rotation="0"
     inkscape:window-y="-8"
     inkscape:window-x="54"
     inkscape:cy="8.0248779"
     inkscape:cx="-1.4108221"
     inkscape:zoom="21.625"
     showgrid="true"
     id="namedview"
     guidetolerance="10"
     gridtolerance="10"
     objecttolerance="10">
    <inkscape:grid
       id="grid"
       type="xygrid" />
  </sodipodi:namedview>
  <metadata
     id="metadata1906">
    <rdf:RDF>
      <cc:Work
         rdf:about="">
        <dc:format>image/svg+xml</dc:format>
        <dc:type
           rdf:resource="http://purl.org/dc/dcmitype/StillImage" />
        <cc:license
           rdf:resource="http://creativecommons.org/publicdomain/zero/1.0/" />
        <dc:title />
        <dc:date>13 Jan 2019</dc:date>
        <dc:creator>
          <cc:Agent>
            <dc:title>Ramón Miranda</dc:title>
          </cc:Agent>
        </dc:creator>
        <dc:rights>
          <cc:Agent>
            <dc:title>see the license tab</dc:title>
          </cc:Agent>
        </dc:rights>
        <dc:subject>
          <rdf:Bag>
            <rdf:li>icon ui</rdf:li>
          </rdf:Bag>
        </dc:subject>
        <dc:description>This is a contribution with Inkscape Project from
Ramon Miranda www.ramonmiranda.com (design and SVG file)
Jabiertxo (SVG stuff to integrate them in UI)</dc:description>
        <dc:publisher>
          <cc:Agent>
            <dc:title />
          </cc:Agent>
        </dc:publisher>
        <dc:identifier />
        <dc:source />
        <dc:relation />
        <dc:language>-</dc:language>
        <dc:coverage />
        <dc:contributor>
          <cc:Agent>
            <dc:title>Ramon Miranda
Jabier Arraiza</dc:title>
          </cc:Agent>
        </dc:contributor>
      </cc:Work>
      <cc:License
         rdf:about="http://creativecommons.org/publicdomain/zero/1.0/">
        <cc:permits
           rdf:resource="http://creativecommons.org/ns#Reproduction" />
        <cc:permits
           rdf:resource="http://creativecommons.org/ns#Distribution" />
        <cc:permits
           rdf:resource="http://creativecommons.org/ns#DerivativeWorks" />
      </cc:License>
    </rdf:RDF>
  </metadata>
  <g
     inkscape:label="bool-op"
     id="layercompo"
     inkscape:groupmode="layer">
    <ellipse
       class="error"
       ry="4.2543354"
       rx="3.4104047"
       cy="8.0462427"
       cx="7.8497109"
       id="path539"
       style="stroke-width:0.985381;opacity:0" />
    <path
       style="opacity:0;fill:none"
       d="M 0,0 H 16 V 16 H 0 Z"
       id="rect22048"
       inkscape:connector-curvature="0" />
    <path
       inkscape:connector-curvature="0"
       id="path517"
       d="M 5.223795,2.9615883 A 5.0379708,5.0379708 0 0 0 0.18640928,8.0010259 5.0379708,5.0379708 0 0 0 5.223795,13.038411 5.0379708,5.0379708 0 0 0 8.0020518,12.201241 5.0379708,5.0379708 0 0 1 7.9322875,12.158151 5.0379708,5.0379708 0 0 1 7.5301174,11.854472 5.0379708,5.0379708 0 0 1 7.1628294,11.509755 5.0379708,5.0379708 0 0 1 6.8304235,11.132207 5.0379708,5.0379708 0 0 1 6.5370035,10.721829 5.0379708,5.0379708 0 0 1 6.2866731,10.284777 5.0379708,5.0379708 0 0 1 6.0814843,9.8251545 5.0379708,5.0379708 0 0 1 5.921437,9.3470646 5.0379708,5.0379708 0 0 1 5.810635,8.8566633 5.0379708,5.0379708 0 0 1 5.7511303,8.3560027 5.0379708,5.0379708 0 0 1 5.738819,8.0010259 5.0379708,5.0379708 0 0 1 5.7634416,7.4983133 5.0379708,5.0379708 0 0 1 5.8393615,6.9997044 5.0379708,5.0379708 0 0 1 5.9624748,6.5113551 5.0379708,5.0379708 0 0 1 6.1348334,6.0394207 5.0379708,5.0379708 0 0 1 6.3543855,5.5859534 5.0379708,5.0379708 0 0 1 6.6170272,5.1550569 5.0379708,5.0379708 0 0 1 6.9227585,4.7549387 5.0379708,5.0379708 0 0 1 7.2654238,4.3855988 5.0379708,5.0379708 0 0 1 7.6450232,4.0531929 5.0379708,5.0379708 0 0 1 7.9999998,3.7987587 5.0379708,5.0379708 0 0 0 5.223795,2.9615883 Z"
       style="opacity:1" />
    <path
       inkscape:connector-curvature="0"
       id="path1798"
       d="M 10.776205,2.9615883 A 5.0379708,5.0379708 0 0 0 7.9999998,3.7987587 5.0379708,5.0379708 0 0 1 10.263232,8.0010259 5.0379708,5.0379708 0 0 1 8.0020518,12.201241 5.0379708,5.0379708 0 0 0 10.776205,13.038411 5.0379708,5.0379708 0 0 0 15.813591,8.0010259 5.0379708,5.0379708 0 0 0 10.776205,2.9615883 Z"
       style="opacity:1" />
  </g>
</svg>
