<?xml version="1.0" encoding="UTF-8" standalone="no"?>
<svg
   xmlns:dc="http://purl.org/dc/elements/1.1/"
   xmlns:cc="http://creativecommons.org/ns#"
   xmlns:rdf="http://www.w3.org/1999/02/22-rdf-syntax-ns#"
   xmlns:svg="http://www.w3.org/2000/svg"
   xmlns="http://www.w3.org/2000/svg"
   xmlns:sodipodi="http://sodipodi.sourceforge.net/DTD/sodipodi-0.dtd"
   xmlns:inkscape="http://www.inkscape.org/namespaces/inkscape"
   version="1.1"
   id="svg1"
   width="16"
   height="16"
   viewBox="0 0 16 16"
   sodipodi:docname="color-gradient-symbolic.svg"
   inkscape:version="1.0alpha2 (119fb3b5e8, 2019-06-21, custom)">
<style id="s0">
   .success { fill: #009909; }
   .warning { fill: #FF1990; }
   .error   { fill: #00AAFF; }
  </style>
  <style id="s2"> 
     @import '../../highlights.css'; 
  </style>
  
<metadata
     id="metadata852">
    <rdf:RDF>
      <cc:Work
         rdf:about="">
        <dc:format>image/svg+xml</dc:format>
        <dc:type
           rdf:resource="http://purl.org/dc/dcmitype/StillImage" />
        <dc:title />
      </cc:Work>
    </rdf:RDF>
  </metadata>
  <defs
     id="defs850">
    <clipPath
       id="clipPath4797"
       clipPathUnits="userSpaceOnUse">
      <path
         d="m 926.04,649.9 v 23.26 H 949.3 V 649.9 Z m 14.26513,12.68467 c 0.99812,-0.64743 2.21205,-0.84975 3.33156,-0.60696 0.0135,0 0.027,0 0.0405,0.0135 0.82277,0.16187 1.59159,0.56651 2.22554,1.20046 0.17535,0.17533 0.35069,0.37767 0.48557,0.57998 0.0135,0.0135 0.027,0.027 0.027,0.0405 0.51255,0.74185 0.7958,1.61858 0.7958,2.53577 0,0.48557 -0.0809,0.94417 -0.2158,1.38928 -0.0135,0.027 -0.027,0.0539 -0.027,0.0809 -0.2293,0.63394 -0.57999,1.21393 -1.06556,1.6995 -0.48557,0.48557 -1.06556,0.84975 -1.6995,1.06556 -0.027,0.0135 -0.0675,0.027 -0.0944,0.027 -0.43162,0.14838 -0.90371,0.21581 -1.37579,0.21581 -0.93068,0 -1.80741,-0.26977 -2.54926,-0.78231 -0.0135,-0.0135 -0.027,-0.0405 -0.027,-0.0405 -0.21581,-0.13488 -0.40465,-0.29672 -0.59348,-0.48556 -0.60697,-0.62045 -1.0251,-1.38928 -1.21393,-2.22554 v -0.027 c -0.0674,-0.29674 -0.0944,-0.60696 -0.0944,-0.91719 0,-0.86324 0.24279,-1.68602 0.71487,-2.40089 -2.35593,-2.35592 -1.36642,-1.12478 -3.72235,-3.48071 -0.60697,0.39116 -1.29486,0.62046 -2.03671,0.67441 -0.027,0.0135 -0.0405,0.0135 -0.0674,0.0135 -0.10791,0.0135 -0.31023,0.0135 -0.31023,0.0135 -1.133,0 -2.19856,-0.41813 -3.02134,-1.18695 -0.0135,0 -0.0135,-0.0135 -0.027,-0.027 -0.0405,-0.027 -0.0675,-0.0539 -0.10791,-0.0944 -0.83626,-0.83626 -1.28137,-1.90182 -1.30835,-2.99436 -0.0135,-0.0135 -0.0135,-0.0405 0,-0.0539 -0.0405,-1.18696 0.39116,-2.37391 1.29486,-3.27762 0.86324,-0.86324 2.06369,-1.29486 3.25064,-1.28137 h 0.0539 c 1.11952,0.0405 2.21206,0.4586 3.03483,1.28137 0.0405,0.0405 0.0674,0.0674 0.0944,0.10791 0.0135,0.0135 0.027,0.0135 0.027,0.027 0.76882,0.82278 1.18695,1.90183 1.18695,3.02134 0,0.10791 0,0.21581 -0.0135,0.32372 0,0.0135 0,0.0405 -0.0135,0.0539 -0.054,0.74185 -0.28325,1.42974 -0.6879,2.03671 z"
         class="error"
         id="path4799"
         inkscape:connector-curvature="0"
         sodipodi:nodetypes="ccccccccsccsccsccscccccsccccsccsccsccsccscccc" />
    </clipPath>
  </defs>
  <sodipodi:namedview
     inkscape:snap-others="false"
     inkscape:snap-global="true"
     objecttolerance="10"
     gridtolerance="10"
     guidetolerance="10"
     id="namedview"
     showgrid="true"
     inkscape:zoom="22.4"
     inkscape:cx="-0.14620562"
     inkscape:cy="11.420108"
     inkscape:window-width="1920"
     inkscape:window-height="1016"
     inkscape:window-x="0"
     inkscape:window-y="27"
     inkscape:window-maximized="1"
     inkscape:current-layer="svg1"
     inkscape:document-rotation="0">
    <inkscape:grid
       type="xygrid"
       id="grid" />
  </sodipodi:namedview>
    <g id="g0" inkscape:label="color-gradient" >
    <path
       inkscape:connector-curvature="0"
       style="opacity:0"
       d="M 0,0 H 16 V 16 H 0 Z"
       id="background" />
    <!--Add this to all icons at dirst place and do not change the id or style-->
    <path
       sodipodi:nodetypes="ccccccccsccsccsccscccccsccccsccsccsccsccscccc"
       inkscape:connector-curvature="0"
       id="bg"
       class="error"
       d="M 2.72231,2.72231 V 13.25053 H 13.25052 V 2.72231 Z M 9.17916,8.4638 c 0.45178,-0.29305 1.00124,-0.38463 1.50797,-0.27473 0.006,0 0.0122,0 0.0183,0.006 0.37241,0.0733 0.72041,0.25642 1.00735,0.54336 0.0794,0.0794 0.15873,0.17094 0.21979,0.26252 0.006,0.006 0.0122,0.0122 0.0122,0.0183 0.23199,0.33579 0.3602,0.73262 0.3602,1.14777 0,0.21979 -0.0366,0.42736 -0.0977,0.62883 -0.006,0.0122 -0.0122,0.0244 -0.0122,0.0366 -0.10379,0.28694 -0.26252,0.54947 -0.48231,0.76925 -0.21978,0.21978 -0.48231,0.38462 -0.76925,0.48231 -0.0122,0.006 -0.0305,0.0122 -0.0427,0.0122 -0.19536,0.0672 -0.40904,0.0977 -0.62272,0.0977 -0.42126,0 -0.81809,-0.1221 -1.15388,-0.3541 -0.006,-0.006 -0.0122,-0.0183 -0.0122,-0.0183 C 9.01431,11.76041 8.92885,11.6872 8.84338,11.60172 8.56865,11.32089 8.37939,10.97289 8.29392,10.59437 v -0.0122 c -0.0305,-0.13431 -0.0427,-0.27473 -0.0427,-0.41515 0,-0.39073 0.1099,-0.76314 0.32357,-1.08671 C 7.50843,8.01394 7.95631,8.57119 6.88994,7.50483 6.61521,7.68188 6.30385,7.78567 5.96806,7.81009 c -0.0122,0.006 -0.0183,0.006 -0.0305,0.006 -0.0488,0.006 -0.14042,0.006 -0.14042,0.006 -0.51283,0 -0.99513,-0.18926 -1.36755,-0.53725 -0.006,0 -0.006,-0.006 -0.0122,-0.0122 C 4.39909,7.26044 4.38689,7.24824 4.36859,7.22994 3.99007,6.85141 3.7886,6.36911 3.77639,5.87459 c -0.006,-0.006 -0.006,-0.0183 0,-0.0244 C 3.75809,5.31294 3.95344,4.77569 4.36248,4.36664 4.75321,3.97591 5.29657,3.78054 5.83382,3.78665 h 0.0244 c 0.50673,0.0183 1.00125,0.20758 1.37366,0.57999 0.0183,0.0183 0.0305,0.0305 0.0427,0.0488 0.006,0.006 0.0122,0.006 0.0122,0.0122 0.34799,0.37242 0.53725,0.86083 0.53725,1.36756 0,0.0488 0,0.0977 -0.006,0.14652 0,0.006 0,0.0183 -0.006,0.0244 C 7.78763,6.3019 7.68382,6.61326 7.50066,6.888 Z" />
    <path
       
       id="path4577"
       d="M 14.40926,0.94799557 H 1.5907302 c -0.3530527,0 -0.642737,0.28968433 -0.642737,0.64273703 V 14.413789 c 0,0.353052 0.2896843,0.63821 0.642737,0.63821 H 14.40926 c 0.353053,0 0.642737,-0.285158 0.642737,-0.63821 V 1.5907326 c 0,-0.3530527 -0.289684,-0.64273703 -0.642737,-0.64273703 z M 13.999904,14.004524 H 2.0000858 V 1.9999976 H 13.999904 Z"
       inkscape:connector-curvature="0"
       sodipodi:nodetypes="sssssssssccccc" />
    <path
       id="start"
       d="m 6.777585,5.7730641 a 1,1 0 0 1 -1,1 1,1 0 0 1 -1,-1 1,1 0 0 1 1,-1 1,1 0 0 1 1,1"
       class="error" />
    <path
       
       id="end"
       d="m 11.222409,10.222404 a 1,1 0 0 1 -1,1 1,1 0 0 1 -0.9999998,-1 1,1 0 0 1 0.9999998,-1.0000005 1,1 0 0 1 1,1.0000005" />
    <g
       inkscape:label="new gradeint"
       id="g4791"
       transform="matrix(0.4526317,0,0,0.4526317,-416.43275,-291.44303)"
       clip-path="url(#clipPath4797)">
      <rect
         
         transform="rotate(45)"
         style="opacity:0;"
         id="rect4807"
         width="5.0813942"
         height="37.68837"
         x="1113.2285"
         y="-215.56923" />
      <rect
         
         transform="rotate(45)"
         style="opacity:0.14"
         id="rect4809"
         width="5.0813942"
         height="37.68837"
         x="1118.3229"
         y="-215.56923" />
      <rect
                  transform="rotate(45)"
         style="opacity:0.24"
         id="rect4811"
         width="5.0813942"
         height="37.68837"
         x="1123.4172"
         y="-215.56923" />
      <rect
         
         transform="rotate(45)"
         style="opacity:0.36"
         id="rect4813"
         width="5.0813942"
         height="37.68837"
         x="1128.5116"
         y="-215.56923" />
      <rect
         
         transform="rotate(45)"
         style="opacity:0.537906"
         id="rect4815"
         width="5.0813942"
         height="37.68837"
         x="1133.606"
         y="-215.56923" />
      <rect
         
         transform="rotate(45)"
         style="opacity:0.703971"
         id="rect4817"
         width="5.0813942"
         height="37.68837"
         x="1138.7003"
         y="-215.56923" />
      <rect
         
         transform="rotate(45)"
         y="-215.76451"
         x="1142.8401"
         height="37.68837"
         width="5.1918592"
         id="rect4803"
         style="fill-opacity:1" />
    </g>
  </g>
</svg>
