<?xml version="1.0" encoding="UTF-8" standalone="no"?>
<svg
   xmlns:dc="http://purl.org/dc/elements/1.1/"
   xmlns:cc="http://creativecommons.org/ns#"
   xmlns:rdf="http://www.w3.org/1999/02/22-rdf-syntax-ns#"
   xmlns:svg="http://www.w3.org/2000/svg"
   xmlns="http://www.w3.org/2000/svg"
   xmlns:sodipodi="http://sodipodi.sourceforge.net/DTD/sodipodi-0.dtd"
   xmlns:inkscape="http://www.inkscape.org/namespaces/inkscape"
   inkscape:version="1.1-dev (1fceb22, 2019-12-30)"
   sodipodi:docname="connector-avoid-symbolic.svg"
   viewBox="0 0 16 16"
   height="16"
   width="16"
   id="svg1"
   version="1.1">
  <metadata
     id="metadata5591">
    <rdf:RDF>
      <cc:Work
         rdf:about="">
        <dc:format>image/svg+xml</dc:format>
        <dc:type
           rdf:resource="http://purl.org/dc/dcmitype/StillImage" />
      </cc:Work>
    </rdf:RDF>
  </metadata>
  <defs
     id="defs5589" />
  <style
     id="s0">
.success { fill:#009909; }
.warning { fill:#FF1990; }
.error { fill:#00AAFF; }
</style>
  <style
     id="s2">
@import '../../highlights.css';
</style>
  <sodipodi:namedview
     inkscape:document-rotation="0"
     inkscape:current-layer="svg1"
     inkscape:window-maximized="1"
     inkscape:window-y="-8"
     inkscape:window-x="54"
     inkscape:window-height="1177"
     inkscape:window-width="1858"
     inkscape:cy="9.0099338"
     inkscape:cx="5.3741576"
     inkscape:zoom="42.558989"
     showgrid="true"
     id="namedview"
     guidetolerance="10"
     gridtolerance="10"
     objecttolerance="10">
    <inkscape:grid
       id="grid"
       type="xygrid" />
  </sodipodi:namedview>
  <g
     inkscape:label="00192"
     id="connector-avoid"
     transform="translate(-409,-867.36218)">
    <path
       style="opacity:0;fill:none"
       d="m 409,867.36218 h 16 v 16 h -16 z"
       id="rect16120"
       inkscape:connector-curvature="0" />
    <path
       class="success"
       sodipodi:nodetypes="ccccccc"
       id="rect16135"
       transform="translate(0,512.3622)"
       d="m 414,357 v 1 h 8 v 9.99998 h 1 V 357 Z"
       style="opacity:1"
       inkscape:connector-curvature="0" />
    <path
       style="opacity:1"
       d="m 410,868.36218 h 4 c 0.554,0 1,0.446 1,1 v 1 c 0,0.554 -0.446,1 -1,1 h -4 c -0.554,0 -1,-0.446 -1,-1 v -1 c 0,-0.554 0.446,-1 1,-1 z"
       id="rect16122"
       inkscape:connector-curvature="0" />
    <path
       style="opacity:1"
       d="m 420,879.36218 h 4 c 0.554,0 1,0.446 1,1 v 1 c 0,0.554 -0.446,1 -1,1 h -4 c -0.554,0 -1,-0.446 -1,-1 v -1 c 0,-0.554 0.446,-1 1,-1 z"
       id="rect16124"
       inkscape:connector-curvature="0" />
    <path
       style="opacity:0.5"
       d="m 411,873.3622 v 4 h 9 v -4 z m 1,1 h 7 v 2 h -7 z"
       id="path16128"
       inkscape:connector-curvature="0" />
  </g>
</svg>
