<?xml version="1.0" encoding="UTF-8" standalone="no"?>
<svg
   xmlns:dc="http://purl.org/dc/elements/1.1/"
   xmlns:cc="http://creativecommons.org/ns#"
   xmlns:rdf="http://www.w3.org/1999/02/22-rdf-syntax-ns#"
   xmlns:svg="http://www.w3.org/2000/svg"
   xmlns="http://www.w3.org/2000/svg"
   xmlns:sodipodi="http://sodipodi.sourceforge.net/DTD/sodipodi-0.dtd"
   xmlns:inkscape="http://www.inkscape.org/namespaces/inkscape"
   version="1.1"
   id="svg1"
   width="16"
   height="16"
   viewBox="0 0 16 16"
   sodipodi:docname="connector-orthogonal-symbolic.svg"
   inkscape:version="1.1-dev (1fceb22, 2019-12-30)">
  <metadata
     id="metadata8499">
    <rdf:RDF>
      <cc:Work
         rdf:about="">
        <dc:format>image/svg+xml</dc:format>
        <dc:type
           rdf:resource="http://purl.org/dc/dcmitype/StillImage" />
      </cc:Work>
    </rdf:RDF>
  </metadata>
  <defs
     id="defs8497" />
  <style
     id="s0">
.success { fill:#009909; }
.warning { fill:#FF1990; }
.error { fill:#00AAFF; }
</style>
  <style
     id="s2">
@import '../../highlights.css';
</style>
  <sodipodi:namedview
     objecttolerance="10"
     gridtolerance="10"
     guidetolerance="10"
     id="namedview"
     showgrid="true"
     inkscape:zoom="21.279495"
     inkscape:cx="3.1735186"
     inkscape:cy="8.0977049"
     inkscape:window-width="1858"
     inkscape:window-height="1177"
     inkscape:window-x="54"
     inkscape:window-y="-8"
     inkscape:window-maximized="1"
     inkscape:current-layer="svg1"
     inkscape:document-rotation="0"
     inkscape:object-paths="true"
     inkscape:snap-intersection-paths="true"
     inkscape:snap-smooth-nodes="true"
     inkscape:snap-midpoints="true">
    <inkscape:grid
       type="xygrid"
       id="grid" />
  </sodipodi:namedview>
  <g
     transform="translate(-439,-867.36218)"
     id="connector-orthogonal"
     inkscape:label="00193">
    <path
       inkscape:connector-curvature="0"
       id="rect16168"
       d="m 439,867.36218 h 16 v 16 h -16 z"
       style="opacity:0;fill:none" />
    <path
       inkscape:connector-curvature="0"
       id="rect16170"
       d="M -456.98964,866.36218 H -454 c 0.554,0 1,0.446 1,1 v 5 c 0,0.554 -0.446,1 -1,1 h -2.98964 c -0.554,0 -1,-0.446 -1,-1 v -5 c 0,-0.554 0.446,-1 1,-1 z"
       style="opacity:0.5"
       transform="scale(-1,1)"
       sodipodi:nodetypes="sssssssss" />
    <path
       inkscape:connector-curvature="0"
       id="rect16172"
       d="m -440,877.33518 h 3.03663 c 0.554,0 1,0.446 1,1 v 5.027 c 0,0.554 -0.446,1 -1,1 H -440 c -0.554,0 -1,-0.446 -1,-1 v -5.027 c 0,-0.554 0.446,-1 1,-1 z"
       style="opacity:0.5"
       transform="scale(-1,1)"
       sodipodi:nodetypes="sssssssss" />
    <path
       inkscape:connector-curvature="0"
       style="opacity:1"
       d="m 446,357 v 11 h -4 v 1 h 5 v -1 -10 h 5 v -1 z"
       transform="translate(0,512.3622)"
       id="rect16183"
       sodipodi:nodetypes="cccccccccc" />
  </g>
</svg>
