<?xml version="1.0" encoding="UTF-8" standalone="no"?>
<svg
   xmlns:dc="http://purl.org/dc/elements/1.1/"
   xmlns:cc="http://creativecommons.org/ns#"
   xmlns:rdf="http://www.w3.org/1999/02/22-rdf-syntax-ns#"
   xmlns:svg="http://www.w3.org/2000/svg"
   xmlns="http://www.w3.org/2000/svg"
   xmlns:sodipodi="http://sodipodi.sourceforge.net/DTD/sodipodi-0.dtd"
   xmlns:inkscape="http://www.inkscape.org/namespaces/inkscape"
   version="1.1"
   id="svg1"
   width="16"
   height="16"
   viewBox="0 0 16 16"
   sodipodi:docname="construct-grid-symbolic.svg"
   inkscape:version="1.0beta2 (5cb4cc3, 2019-12-30)">
  <defs
     id="defs1630" />
  <style
     id="s0">
.success { fill:#009909; }
.warning { fill:#FF1990; }
.error { fill:#00AAFF; }
</style>
  <style
     id="s2">
@import '../../highlights.css';
</style>
  <sodipodi:namedview
     objecttolerance="10"
     gridtolerance="10"
     guidetolerance="10"
     id="namedview"
     showgrid="true"
     inkscape:zoom="38.41879"
     inkscape:cx="1.3722516"
     inkscape:cy="9.4416236"
     inkscape:window-x="54"
     inkscape:window-y="-8"
     inkscape:document-rotation="0"
     inkscape:window-width="1858"
     inkscape:window-height="1177"
     inkscape:window-maximized="1"
     inkscape:current-layer="layercompo">
    <inkscape:grid
       spacingy="0.75"
       spacingx="0.75"
       dotted="false"
       empspacing="5"
       type="xygrid"
       id="grid" />
  </sodipodi:namedview>
  <metadata
     id="metadata1906">
    <rdf:RDF>
      <cc:Work
         rdf:about="">
        <dc:format>image/svg+xml</dc:format>
        <dc:type
           rdf:resource="http://purl.org/dc/dcmitype/StillImage" />
        <cc:license
           rdf:resource="http://creativecommons.org/publicdomain/zero/1.0/" />
        <dc:title></dc:title>
        <dc:date>13 Jan 2019</dc:date>
        <dc:creator>
          <cc:Agent>
            <dc:title>Ramón Miranda</dc:title>
          </cc:Agent>
        </dc:creator>
        <dc:rights>
          <cc:Agent>
            <dc:title>see the license tab</dc:title>
          </cc:Agent>
        </dc:rights>
        <dc:subject>
          <rdf:Bag>
            <rdf:li>icon ui</rdf:li>
          </rdf:Bag>
        </dc:subject>
        <dc:description>This is a contribution with Inkscape Project from
Ramon Miranda www.ramonmiranda.com (design and SVG file)
Jabiertxo (SVG stuff to integrate them in UI)</dc:description>
        <dc:publisher>
          <cc:Agent>
            <dc:title />
          </cc:Agent>
        </dc:publisher>
        <dc:identifier />
        <dc:source />
        <dc:relation />
        <dc:language>-</dc:language>
        <dc:coverage />
        <dc:contributor>
          <cc:Agent>
            <dc:title>Ramon Miranda
Jabier Arraiza</dc:title>
          </cc:Agent>
        </dc:contributor>
      </cc:Work>
      <cc:License
         rdf:about="http://creativecommons.org/publicdomain/zero/1.0/">
        <cc:permits
           rdf:resource="http://creativecommons.org/ns#Reproduction" />
        <cc:permits
           rdf:resource="http://creativecommons.org/ns#Distribution" />
        <cc:permits
           rdf:resource="http://creativecommons.org/ns#DerivativeWorks" />
      </cc:License>
    </rdf:RDF>
  </metadata>
  <g
     inkscape:groupmode="layer"
     id="layercompo"
     inkscape:label="construct-grid">
    <path
       inkscape:connector-curvature="0"
       id="rect22048"
       d="M 0,0 H 16 V 16 H 0 Z"
       style="display:inline;opacity:0;fill:none" />
    <path
       inkscape:connector-curvature="0"
       id="path9609"
       d="M 9.3149457,2.5509512 V 3.0885849 H 10.138198 V 2.5509512 Z m 1.3608853,0 v 0.5376337 h 1.075267 V 2.5509512 Z m 1.611326,0 v 0.5376337 h 1.075267 V 2.5509512 Z m 1.613425,0 V 3.0885849 H 14.73171 V 2.5509512 Z m 0.56126,0.591182 V 4.2174004 H 15 V 3.1421332 Z M 8.2407268,3.8089333 V 4.2174004 H 8.7788874 V 3.8089333 Z m 0,0.9466385 V 5.8308391 H 8.7788874 V 4.7555718 Z m 6.2211152,0 V 5.8308391 H 15 V 4.7555718 Z m -6.2211152,1.612901 v 1.075778 h 0.5381606 v -1.075778 z m 6.2211152,0 v 1.075778 H 15 V 6.3684728 Z M 8.2407268,7.9818844 V 8.3352441 H 7.4489779 v 0.5376337 h 0.7917489 v 0.1848116 h 0.5381606 v -1.075805 z m 6.2211152,0 v 0.3533597 h -0.56126 v 0.5376337 h 0.56126 V 9.0576894 H 15 V 7.9818844 Z M 3.4366771,8.3352441 V 8.8728778 H 3.6865934 V 8.3352441 Z m 0.7859747,0 V 8.8728778 H 5.2979192 V 8.3352441 Z m 1.6134251,0 V 8.8728778 H 6.9113443 V 8.3352441 Z m 3.2263261,0 v 0.5376337 h 1.075795 V 8.3352441 Z m 1.613428,0 v 0.5376337 h 1.075267 V 8.3352441 Z m 1.611326,0 v 0.5376337 h 1.075267 V 8.3352441 Z M 2.0201388,9.5953231 V 10.669005 H 2.5577724 V 9.5953231 Z m 6.220588,0 V 10.669005 H 8.7788874 V 9.5953231 Z m 6.2211152,0 V 10.669005 H 15 V 9.5953231 Z M 2.0201388,11.206638 v 1.075267 h 0.5376336 v -1.075267 z m 6.220588,0 v 1.075267 h 0.5381606 v -1.075267 z m 6.2211152,0 v 1.075267 H 15 V 11.206638 Z M 2.0201388,12.820066 v 1.075267 h 0.5376336 v -1.075267 z m 6.220588,0 v 1.075267 h 0.5381606 v -1.075267 z m 6.2211152,0 v 1.075267 H 15 v -1.075267 z m -11.8505158,1.29788 v 0.537634 h 1.0752672 v -0.537634 z m 1.6113256,0 v 0.537634 h 1.0752674 v -0.537634 z m 1.6134251,0 v 0.537634 h 1.0752674 v -0.537634 z m 1.612901,0 v 0.537634 h 1.0757916 v -0.537634 z m 1.6134251,0 v 0.537634 h 1.075795 v -0.537634 z m 1.613428,0 v 0.537634 h 1.075267 v -0.537634 z m 1.611326,0 v 0.537634 h 1.075267 v -0.537634 z m 1.613425,0 v 0.537634 h 0.831128 v -0.537634 z"
       class="error" />
    <path
       style="opacity:1"
       d="m 1.7339967,1.3444206 c -0.2931985,0 -0.5376336,0.2444352 -0.5376336,0.5376337 v 1.6591106 c 0,0.2931985 0.2444351,0.5376337 0.5376336,0.5376337 h 0.047777 V 6.8289022 H 1.5376341 c -0.2931985,0 -0.5376337,0.2449728 -0.5376337,0.5381713 v 1.658573 c 0,0.2931984 0.2444352,0.5376335 0.5376337,0.5376335 h 1.6312773 c 0.2931958,0 0.5376336,-0.2444351 0.5376336,-0.5376335 v -1.658573 c 0,-0.2931985 -0.2444378,-0.5381713 -0.5376336,-0.5381713 H 2.5892751 V 4.0787986 h 0.7738968 c 0.2931984,0 0.5381604,-0.2444352 0.5381604,-0.5376337 V 3.122187 h 2.9764099 v 0.4189779 c 0,0.2931716 0.2444459,0.5376067 0.5376336,0.5376337 h 1.6312773 c 0.2931985,0 0.5376337,-0.2444352 0.5376337,-0.5376337 V 1.8820543 c 0,-0.2931985 -0.2444352,-0.5376337 -0.5376337,-0.5376337 H 7.4153758 c -0.2931877,0 -0.5376336,0.2444352 -0.5376336,0.5376337 V 2.3146881 H 3.9013323 V 1.8820543 c 0,-0.2931985 -0.244962,-0.5376337 -0.5381604,-0.5376337 z m 0,0.5376337 H 3.3631719 V 3.5411649 H 1.7339967 Z m 5.6813791,0 H 9.0466531 V 3.5411649 H 7.4153758 Z M 1.5376341,7.3670735 h 1.6312773 v 1.658573 H 1.5376341 Z"
       id="path1713"
       inkscape:connector-curvature="0" />
  </g>
</svg>
