<?xml version="1.0" encoding="UTF-8" standalone="no"?>
<svg
   xmlns:dc="http://purl.org/dc/elements/1.1/"
   xmlns:cc="http://creativecommons.org/ns#"
   xmlns:rdf="http://www.w3.org/1999/02/22-rdf-syntax-ns#"
   xmlns:svg="http://www.w3.org/2000/svg"
   xmlns="http://www.w3.org/2000/svg"
   xmlns:sodipodi="http://sodipodi.sourceforge.net/DTD/sodipodi-0.dtd"
   xmlns:inkscape="http://www.inkscape.org/namespaces/inkscape"
   version="1.1"
   id="svg1"
   width="16"
   height="16"
   viewBox="0 0 16 16"
   sodipodi:docname="dialog-path-effects-symbolic.svg"
   inkscape:version="1.1-dev (3d47766, 2020-01-22)">
  <metadata
     id="metadata2046">
    <rdf:RDF>
      <cc:Work
         rdf:about="">
        <dc:format>image/svg+xml</dc:format>
        <dc:type
           rdf:resource="http://purl.org/dc/dcmitype/StillImage" />
      </cc:Work>
    </rdf:RDF>
  </metadata>
  <defs
     id="defs2044" />
  <style
     id="s0">
.success { fill:#009909; }
.warning { fill:#FF1990; }
.error { fill:#00AAFF; }
</style>
  <style
     id="s2">
@import '../../highlights.css';
</style>
  <sodipodi:namedview
     objecttolerance="10"
     gridtolerance="10"
     guidetolerance="10"
     id="namedview"
     showgrid="false"
     inkscape:zoom="29.079766"
     inkscape:cx="7.5757514"
     inkscape:cy="8.0906486"
     inkscape:window-width="1296"
     inkscape:window-height="890"
     inkscape:window-x="65"
     inkscape:window-y="-6"
     inkscape:window-maximized="1"
     inkscape:current-layer="dialog-path-effects"
     inkscape:document-rotation="0"
     inkscape:snap-global="true">
    <inkscape:grid
       type="xygrid"
       id="grid" />
  </sodipodi:namedview>
  <g
     transform="translate(-165,-887.36218)"
     id="dialog-path-effects"
     inkscape:label="00389">
    <path
       inkscape:connector-curvature="0"
       id="rect6476"
       d="m 165,887.36218 h 16 v 16 h -16 z"
       style="opacity:0;fill:none" />
    <path
       inkscape:connector-curvature="0"
       id="path3123"
       style="opacity:1"
       d="m 178.4301,889.3087 c -5.5785,1.0362 -10.5734,4.7355 -11.4063,11.4375 a 0.50389111,0.50389111 0 1 0 1,0.125 c 0.7787,-6.2666 5.3216,-9.5832 10.5938,-10.5625 a 0.50871314,0.50871314 0 1 0 -0.1875,-1 z" />
    <path
       inkscape:connector-curvature="0"
       id="circle3125"
       d="m 180.0625,889.86218 a 1.5,1.5 0 0 1 -1.5,1.5 1.5,1.5 0 0 1 -1.5,-1.5 1.5,1.5 0 0 1 1.5,-1.5 1.5,1.5 0 0 1 1.5,1.5 z"
       style="opacity:1" />
    <path
       inkscape:connector-curvature="0"
       id="circle3127"
       d="m 169.0625,900.86218 a 1.5,1.5 0 0 1 -1.5,1.5 1.5,1.5 0 0 1 -1.5,-1.5 1.5,1.5 0 0 1 1.5,-1.5 1.5,1.5 0 0 1 1.5,1.5 z"
       style="opacity:1" />
    <path
       
       inkscape:connector-curvature="0"
       d="m 173.70115,888.56074 c -1.26292,0.77427 -1.65782,2.42655 -0.88392,3.68938 0.77428,1.26294 2.42488,1.65886 3.6878,0.88458 0.18597,-0.11401 0.34755,-0.25165 0.49497,-0.39967 -1.0924,0.25137 -2.26834,-0.19102 -2.88655,-1.19941 -0.66096,-1.07807 -0.46131,-2.4342 0.39461,-3.29119 -0.2772,0.0633 -0.55144,0.15937 -0.80728,0.31622 z"
       style="opacity:1;stroke-width:1.74614"
       id="path2615" />
    <path
       
       id="path2612"
       style="opacity:1;stroke-width:2.77394"
       d="m 167.25276,891.9842 c -1.18955,2.03055 -0.50547,4.64115 1.52394,5.83101 2.03057,1.18956 4.63962,0.50814 5.82915,-1.52242 0.17518,-0.299 0.29848,-0.61284 0.39415,-0.93061 -1.34222,1.17023 -3.32104,1.43107 -4.94234,0.48129 -1.73335,-1.01544 -2.46925,-3.06491 -1.91186,-4.90657 -0.34096,0.29628 -0.65323,0.63625 -0.89419,1.0476 z"
       inkscape:connector-curvature="0" />
  </g>
</svg>
