<?xml version="1.0" encoding="UTF-8" standalone="no"?>
<svg
   xmlns:dc="http://purl.org/dc/elements/1.1/"
   xmlns:cc="http://creativecommons.org/ns#"
   xmlns:rdf="http://www.w3.org/1999/02/22-rdf-syntax-ns#"
   xmlns:svg="http://www.w3.org/2000/svg"
   xmlns="http://www.w3.org/2000/svg"
   xmlns:sodipodi="http://sodipodi.sourceforge.net/DTD/sodipodi-0.dtd"
   xmlns:inkscape="http://www.inkscape.org/namespaces/inkscape"
   inkscape:version="1.1-dev (edc2aa6, 2019-12-29)"
   sodipodi:docname="dialog-memory-symbolic.svg"
   viewBox="0 0 16 16"
   height="16"
   width="16"
   id="svg1"
   version="1.1">
  <metadata
     id="metadata3321">
    <rdf:RDF>
      <cc:Work
         rdf:about="">
        <dc:format>image/svg+xml</dc:format>
        <dc:type
           rdf:resource="http://purl.org/dc/dcmitype/StillImage" />
      </cc:Work>
    </rdf:RDF>
  </metadata>
  <defs
     id="defs3319" />
  <style
     id="s0">
.success { fill:#009909; }
.warning { fill:#FF1990; }
.error { fill:#00AAFF; }
</style>
  <style
     id="s2">
@import '../../highlights.css';
</style>
  <sodipodi:namedview
     inkscape:document-rotation="0"
     inkscape:current-layer="g22488"
     inkscape:window-maximized="1"
     inkscape:window-y="-8"
     inkscape:window-x="54"
     inkscape:window-height="1177"
     inkscape:window-width="1858"
     inkscape:cy="8"
     inkscape:cx="8"
     inkscape:zoom="60.1875"
     showgrid="true"
     id="namedview"
     guidetolerance="10"
     gridtolerance="10"
     objecttolerance="10">
    <inkscape:grid
       id="grid"
       type="xygrid" />
  </sodipodi:namedview>
  <g
     id="dialog-memory"
     inkscape:label="00102"
     transform="translate(-225,-587.3622)">
    <path
       transform="translate(110,607.3622)"
       style="opacity:0;fill:none"
       d="m 115,-20 h 16 v 16 h -16 z"
       id="rect22433"
       inkscape:connector-curvature="0" />
    <g
       inkscape:label="preferences-environment"
       id="g22488"
       transform="translate(110,607.3622)">
      <path
         style="opacity:0.5"
         transform="scale(-1)"
         d="m -120.5,17 c 0.277,0 0.5,0.446 0.5,1 0,0.554 -0.223,1 -0.5,1 -0.277,0 -0.5,-0.446 -0.5,-1 0,-0.554 0.223,-1 0.5,-1 z"
         id="rect22439"
         inkscape:connector-curvature="0" />
      <path
         style="opacity:0.5"
         transform="scale(-1)"
         d="m -122.5,17 c 0.277,0 0.5,0.446 0.5,1 0,0.554 -0.223,1 -0.5,1 -0.277,0 -0.5,-0.446 -0.5,-1 0,-0.554 0.223,-1 0.5,-1 z"
         id="rect22441"
         inkscape:connector-curvature="0" />
      <path
         style="opacity:0.5"
         transform="scale(-1)"
         d="m -124.5,17 c 0.277,0 0.5,0.446 0.5,1 0,0.554 -0.223,1 -0.5,1 -0.277,0 -0.5,-0.446 -0.5,-1 0,-0.554 0.223,-1 0.5,-1 z"
         id="rect22443"
         inkscape:connector-curvature="0" />
      <path
         style="opacity:0.5"
         transform="scale(-1)"
         d="m -126.5,17 c 0.277,0 0.5,0.446 0.5,1 0,0.554 -0.223,1 -0.5,1 -0.277,0 -0.5,-0.446 -0.5,-1 0,-0.554 0.223,-1 0.5,-1 z"
         id="rect22445"
         inkscape:connector-curvature="0" />
      <path
         style="opacity:0.5"
         transform="scale(-1)"
         d="m -120.5,4 c 0.277,0 0.5,0.446 0.5,1 0,0.554 -0.223,1 -0.5,1 -0.277,0 -0.5,-0.446 -0.5,-1 0,-0.554 0.223,-1 0.5,-1 z"
         id="rect22461"
         inkscape:connector-curvature="0" />
      <path
         style="opacity:0.5"
         transform="scale(-1)"
         d="m -122.5,4 c 0.277,0 0.5,0.446 0.5,1 0,0.554 -0.223,1 -0.5,1 -0.277,0 -0.5,-0.446 -0.5,-1 0,-0.554 0.223,-1 0.5,-1 z"
         id="rect22463"
         inkscape:connector-curvature="0" />
      <path
         style="opacity:0.5"
         transform="scale(-1)"
         d="m -124.5,4 c 0.277,0 0.5,0.446 0.5,1 0,0.554 -0.223,1 -0.5,1 -0.277,0 -0.5,-0.446 -0.5,-1 0,-0.554 0.223,-1 0.5,-1 z"
         id="rect22465"
         inkscape:connector-curvature="0" />
      <path
         style="opacity:0.5"
         transform="scale(-1)"
         d="m -126.5,4 c 0.277,0 0.5,0.446 0.5,1 0,0.554 -0.223,1 -0.5,1 -0.277,0 -0.5,-0.446 -0.5,-1 0,-0.554 0.223,-1 0.5,-1 z"
         id="rect22467"
         inkscape:connector-curvature="0" />
      <path
         style="opacity:0.5"
         d="m 117,-15 c 0.554,0 1,0.223 1,0.5 0,0.277 -0.446,0.5 -1,0.5 -0.554,0 -1,-0.223 -1,-0.5 0,-0.277 0.446,-0.5 1,-0.5 z"
         id="rect22469"
         inkscape:connector-curvature="0" />
      <path
         style="opacity:0.5"
         d="m 117,-13 c 0.554,0 1,0.223 1,0.5 0,0.277 -0.446,0.5 -1,0.5 -0.554,0 -1,-0.223 -1,-0.5 0,-0.277 0.446,-0.5 1,-0.5 z"
         id="rect22471"
         inkscape:connector-curvature="0" />
      <path
         style="opacity:0.5"
         d="m 117,-11 c 0.554,0 1,0.223 1,0.5 0,0.277 -0.446,0.5 -1,0.5 -0.554,0 -1,-0.223 -1,-0.5 0,-0.277 0.446,-0.5 1,-0.5 z"
         id="rect22473"
         inkscape:connector-curvature="0" />
      <path
         style="opacity:0.5"
         d="m 117,-9 c 0.554,0 1,0.223 1,0.5 0,0.277 -0.446,0.5 -1,0.5 -0.554,0 -1,-0.223 -1,-0.5 0,-0.277 0.446,-0.5 1,-0.5 z"
         id="rect22475"
         inkscape:connector-curvature="0" />
      <path
         style="opacity:0.5"
         d="m 130,-15 c 0.554,0 1,0.223 1,0.5 0,0.277 -0.446,0.5 -1,0.5 -0.554,0 -1,-0.223 -1,-0.5 0,-0.277 0.446,-0.5 1,-0.5 z"
         id="rect22477"
         inkscape:connector-curvature="0" />
      <path
         style="opacity:0.5"
         d="m 130,-13 c 0.554,0 1,0.223 1,0.5 0,0.277 -0.446,0.5 -1,0.5 -0.554,0 -1,-0.223 -1,-0.5 0,-0.277 0.446,-0.5 1,-0.5 z"
         id="rect22479"
         inkscape:connector-curvature="0" />
      <path
         style="opacity:0.5"
         d="m 130,-11 c 0.554,0 1,0.223 1,0.5 0,0.277 -0.446,0.5 -1,0.5 -0.554,0 -1,-0.223 -1,-0.5 0,-0.277 0.446,-0.5 1,-0.5 z"
         id="rect22481"
         inkscape:connector-curvature="0" />
      <path
         style="opacity:0.5"
         d="m 130,-9 c 0.554,0 1,0.223 1,0.5 0,0.277 -0.446,0.5 -1,0.5 -0.554,0 -1,-0.223 -1,-0.5 0,-0.277 0.446,-0.5 1,-0.5 z"
         id="rect22483"
         inkscape:connector-curvature="0" />
    </g>
    <path
       inkscape:connector-curvature="0"
       id="rect40967"
       d="m 229,591.3622 v 9 h 9 v -9 z m 1,1 h 7 v 7 h -7 z"
       style="opacity:1" />
  </g>
</svg>
