<?xml version="1.0" encoding="UTF-8" standalone="no"?>
<svg
   xmlns:dc="http://purl.org/dc/elements/1.1/"
   xmlns:cc="http://creativecommons.org/ns#"
   xmlns:rdf="http://www.w3.org/1999/02/22-rdf-syntax-ns#"
   xmlns:svg="http://www.w3.org/2000/svg"
   xmlns="http://www.w3.org/2000/svg"
   xmlns:sodipodi="http://sodipodi.sourceforge.net/DTD/sodipodi-0.dtd"
   xmlns:inkscape="http://www.inkscape.org/namespaces/inkscape"
   inkscape:version="1.1-dev (6039630, 2019-12-20)"
   sodipodi:docname="dialog-templates-symbolic.svg"
   viewBox="0 0 16 16"
   height="16"
   width="16"
   id="svg1"
   version="1.1">
  <metadata
     id="metadata6160">
    <rdf:RDF>
      <cc:Work
         rdf:about="">
        <dc:format>image/svg+xml</dc:format>
        <dc:type
           rdf:resource="http://purl.org/dc/dcmitype/StillImage" />
      </cc:Work>
    </rdf:RDF>
  </metadata>
  <defs
     id="defs6158" />
  <style
     id="s0">
.success { fill:#009909; }
.warning { fill:#FF1990; }
.error { fill:#00AAFF; }
</style>
  <style
     id="s2">
@import '../../highlights.css';
</style>
  <sodipodi:namedview
     inkscape:document-rotation="0"
     inkscape:current-layer="svg1"
     inkscape:window-maximized="1"
     inkscape:window-y="-6"
     inkscape:window-x="65"
     inkscape:window-height="890"
     inkscape:window-width="1296"
     inkscape:cy="8"
     inkscape:cx="8"
     inkscape:zoom="41.125"
     showgrid="true"
     id="namedview"
     guidetolerance="10"
     gridtolerance="10"
     objecttolerance="10">
    <inkscape:grid
       id="grid"
       type="xygrid" />
  </sodipodi:namedview>
  <g
     inkscape:label="00008"
     id="dialog-templates">
    <title
       id="title33388">folder-templates</title>
    <path
       style="opacity:0;fill:none"
       d="M 0,0 H 16 V 16 H 0 Z"
       id="folder-templates"
       inkscape:connector-curvature="0" />
    <path
       style="opacity:1"
       d="m 3,9 h 1 v 1 H 3 Z"
       id="rect33392"
       inkscape:connector-curvature="0" />
    <path
       style="opacity:1"
       d="m 2,10 h 1 v 1 H 2 Z"
       id="rect33394"
       inkscape:connector-curvature="0" />
    <path
       style="opacity:1"
       d="m 3,11 h 1 v 1 H 3 Z"
       id="rect33396"
       inkscape:connector-curvature="0" />
    <path
       style="opacity:1"
       d="m 2,12 h 1 v 1 H 2 Z"
       id="rect33398"
       inkscape:connector-curvature="0" />
    <path
       style="opacity:1"
       d="m 3,13 h 1 v 1 H 3 Z"
       id="rect33400"
       inkscape:connector-curvature="0" />
    <path
       style="opacity:1"
       d="m 2,14 h 1 v 1 H 2 Z"
       id="rect33402"
       inkscape:connector-curvature="0" />
    <path
       style="opacity:1"
       d="m 4,14 h 1 v 1 H 4 Z"
       id="rect33404"
       inkscape:connector-curvature="0" />
    <path
       style="opacity:1"
       d="m 6,14 h 1 v 1 H 6 Z"
       id="rect33406"
       inkscape:connector-curvature="0" />
    <path
       style="opacity:1"
       d="m 8,14 h 1 v 1 H 8 Z"
       id="rect33408"
       inkscape:connector-curvature="0" />
    <path
       style="opacity:1"
       d="m 10,14 h 1 v 1 h -1 z"
       id="rect33410"
       inkscape:connector-curvature="0" />
    <path
       style="opacity:1"
       d="m 3,15 h 1 v 1 H 3 Z"
       id="rect33412"
       inkscape:connector-curvature="0" />
    <path
       style="opacity:1"
       d="m 5,15 h 1 v 1 H 5 Z"
       id="rect33414"
       inkscape:connector-curvature="0" />
    <path
       style="opacity:1"
       d="m 7,15 h 1 v 1 H 7 Z"
       id="rect33416"
       inkscape:connector-curvature="0" />
    <path
       style="opacity:1"
       d="m 9,15 h 1 v 1 H 9 Z"
       id="rect33418"
       inkscape:connector-curvature="0" />
    <path
       style="opacity:1"
       d="m 11,15 h 1 v 1 h -1 z"
       id="rect33420"
       inkscape:connector-curvature="0" />
    <path
       style="opacity:1"
       d="m 12,14 h 1 v 1 h -1 z"
       id="rect33422"
       inkscape:connector-curvature="0" />
    <path
       id="path33424"
       d="m 2.8127,0.99988 c -0.4584,0.0875 -0.82072,0.5334 -0.8125,1 L 2,10 H 4 V 3 h 5 v 3 h 3 v 8 h 2 l 2e-4,-8.43762 C 14.0062,5.29832 13.9026,5.03341 13.71895,4.84363 l -3.5625,-3.5625 C 9.96667,1.09743 9.70176,0.99376 9.4377,0.99988 H 3.0002 c -0.0312,-0.002 -0.0625,-0.002 -0.0937,0 -0.0312,-0.002 -0.0625,-0.002 -0.0937,0 z"
       style="opacity:1"
       inkscape:connector-curvature="0" />
  </g>
</svg>
