<?xml version="1.0" encoding="UTF-8" standalone="no"?>
<svg
   xmlns:dc="http://purl.org/dc/elements/1.1/"
   xmlns:cc="http://creativecommons.org/ns#"
   xmlns:rdf="http://www.w3.org/1999/02/22-rdf-syntax-ns#"
   xmlns:svg="http://www.w3.org/2000/svg"
   xmlns="http://www.w3.org/2000/svg"
   xmlns:sodipodi="http://sodipodi.sourceforge.net/DTD/sodipodi-0.dtd"
   xmlns:inkscape="http://www.inkscape.org/namespaces/inkscape"
   inkscape:version="1.1-dev (6039630, 2019-12-20)"
   sodipodi:docname="dialog-icon-preview-symbolic.svg"
   viewBox="0 0 16 16"
   height="16"
   width="16"
   id="svg1"
   version="1.1">
  <metadata
     id="metadata6418">
    <rdf:RDF>
      <cc:Work
         rdf:about="">
        <dc:format>image/svg+xml</dc:format>
        <dc:type
           rdf:resource="http://purl.org/dc/dcmitype/StillImage" />
      </cc:Work>
    </rdf:RDF>
  </metadata>
  <defs
     id="defs6416" />
  <style
     id="s0">
.success { fill:#009909; }
.warning { fill:#FF1990; }
.error { fill:#00AAFF; }
</style>
  <style
     id="s2">
@import '../../highlights.css';
</style>
  <sodipodi:namedview
     inkscape:document-rotation="0"
     inkscape:current-layer="dialog-icon-preview"
     inkscape:window-maximized="1"
     inkscape:window-y="-6"
     inkscape:window-x="65"
     inkscape:window-height="890"
     inkscape:window-width="1296"
     inkscape:cy="8"
     inkscape:cx="8"
     inkscape:zoom="41.125"
     showgrid="true"
     id="namedview"
     guidetolerance="10"
     gridtolerance="10"
     objecttolerance="10">
    <inkscape:grid
       id="grid"
       type="xygrid" />
  </sodipodi:namedview>
  <g
     id="dialog-icon-preview"
     inkscape:label="00041"
     transform="translate(-74.997057,-887.36218)">
    <g
       transform="matrix(0.9985297,0,0,1,60.04264,280)"
       id="g17869">
      <path
         style="opacity:0;fill:none"
         d="m 14.97644,607.36218 h 16 v 16 h -16 z"
         id="rect17871"
         inkscape:connector-curvature="0" />
      <path
         inkscape:connector-curvature="0"
         id="path17873"
         d="m 17,609.3622 h 12 v 2 H 17 Z"
         style="opacity:1" />
      <path
         style="opacity:1"
         d="m 15,607.36218 h 1 v 16 h -1 z"
         id="rect17875"
         inkscape:connector-curvature="0" />
      <path
         style="opacity:1"
         d="m 15,607.36218 h 16 v 1 H 15 Z"
         id="rect17877"
         inkscape:connector-curvature="0" />
      <path
         style="opacity:1"
         d="m 30,607.36218 h 1 v 16 h -1 z"
         id="rect17879"
         inkscape:connector-curvature="0" />
      <path
         style="opacity:1"
         d="m 15,622.36218 h 16 v 1 H 15 Z"
         id="rect17881"
         inkscape:connector-curvature="0" />
    </g>
    <path
       class="error"
       id="path23473"
       transform="translate(0,512.3622)"
       d="m 83,381 c -3.31371,0 -4,2 -6,3.5 2,1.5 2.68629,3.5 6,3.5 3.31371,0 4,-2 6,-3.5 C 87,383 86.31371,381 83,381 Z m 0,1 c 1.65685,0 3,1.1193 3,2.5 0,1.3807 -1.34315,2.5 -3,2.5 -1.65685,0 -3,-1.1193 -3,-2.5 0,-1.3807 1.34315,-2.5 3,-2.5 z"
       style="opacity:1"
       inkscape:connector-curvature="0" />
    <path
       transform="matrix(1.21875,0,0,1.5,-18.125,319.3622)"
       style="opacity:1"
       d="m 84,385 a 1,1 0 0 1 -1,1 1,1 0 0 1 -1,-1 1,1 0 0 1 1,-1 1,1 0 0 1 1,1 z"
       id="path23477"
       inkscape:connector-curvature="0" />
  </g>
</svg>
