<?xml version="1.0" encoding="UTF-8" standalone="no"?>
<svg
   xmlns:dc="http://purl.org/dc/elements/1.1/"
   xmlns:cc="http://creativecommons.org/ns#"
   xmlns:rdf="http://www.w3.org/1999/02/22-rdf-syntax-ns#"
   xmlns:svg="http://www.w3.org/2000/svg"
   xmlns="http://www.w3.org/2000/svg"
   xmlns:sodipodi="http://sodipodi.sourceforge.net/DTD/sodipodi-0.dtd"
   xmlns:inkscape="http://www.inkscape.org/namespaces/inkscape"
   inkscape:version="1.1-dev (1fceb22, 2019-12-30)"
   sodipodi:docname="distribute-horizontal-baseline-symbolic.svg"
   viewBox="0 0 16 16"
   height="16"
   width="16"
   id="svg1"
   version="1.1">
  <style
     id="s0">
   .success { fill: #009909; }
   .warning { fill: #FF1990; }
   .error   { fill: #00AAFF; }
  </style>
  <style
     id="s2"> 
     @import '../../highlights.css'; 
  </style>
  <metadata
     id="metadata2306">
    <rdf:RDF>
      <cc:Work
         rdf:about="">
        <dc:format>image/svg+xml</dc:format>
        <dc:type
           rdf:resource="http://purl.org/dc/dcmitype/StillImage" />
      </cc:Work>
    </rdf:RDF>
  </metadata>
  <defs
     id="defs2304" />
  <sodipodi:namedview
     inkscape:document-rotation="0"
     inkscape:current-layer="distribute-horizontal-baseline"
     inkscape:window-maximized="1"
     inkscape:window-y="-8"
     inkscape:window-x="54"
     inkscape:window-height="1177"
     inkscape:window-width="1858"
     inkscape:cy="11.959412"
     inkscape:cx="5.0748052"
     inkscape:zoom="21.668998"
     showgrid="true"
     id="namedview"
     guidetolerance="10"
     gridtolerance="10"
     objecttolerance="10">
    <inkscape:grid
       id="grid"
       type="xygrid" />
  </sodipodi:namedview>
  <g
     id="distribute-horizontal-baseline"
     inkscape:label="00287"
     transform="matrix(0.666667,0,0,0.666667,-696,-523.57479)">
    <path
       transform="rotate(90)"
       style="opacity:0;fill:none"
       d="m 785.36218,-1068 h 24 v 24 h -24 z"
       id="rect18962"
       inkscape:connector-curvature="0" />
    <path
       sodipodi:nodetypes="csscsssscsssssscc"
       id="path18964"
       d="m 1057.3974,794.59328 c 0.7384,-0.64043 1.9743,-0.39595 2.5528,0.32969 0.9063,1.1369 1.2119,2.55152 1.5328,3.89877 0.2716,1.14044 0.4351,1.80231 0.4986,2.9694 0.7479,-1.47593 1.5755,-2.55601 1.6001,-4.21793 0.013,-0.84023 -0.4885,-1.55115 -0.8247,-2.29505 -0.2809,-0.6216 0.48,-1.23354 1.1499,-1.07079 0.7994,0.19423 0.9458,1.04658 0.9185,1.6843 -0.081,1.89726 -0.8645,3.75989 -1.6532,5.49366 -1.1176,2.28965 -2.7038,4.43259 -4.8117,6.02404 -0.8082,0.61019 -2.872,1.15757 -3.933,0.9195 -2.0817,-0.46709 -1.887,-2.64056 0,-2.82428 1.1573,-0.11267 2.4065,1.16555 3.1045,1.15335 1.1516,-0.0201 2.0105,-0.98286 2.2836,-1.93388 0.3539,-1.23221 0.047,-2.53088 -0.1754,-3.7653 -0.2909,-1.61558 -0.6749,-3.25369 -1.5129,-4.71067 -0.1716,-0.56592 -1.5139,-0.90224 -0.7299,-1.65481 z"
       style="opacity:1"
       inkscape:connector-curvature="0" />
    <path
       sodipodi:nodetypes="ccscscsccccccscscscssccsssc"
       style="opacity:1"
       d="m 1049.1105,798.7995 c -0.552,0 -0.969,0.0871 -1.25,0.2614 -0.276,0.1743 -0.415,0.4312 -0.415,0.7705 0,0.3119 0.111,0.5573 0.333,0.7361 0.227,0.1743 0.541,0.2614 0.94,0.2614 0.498,0 0.918,-0.1651 1.258,-0.4953 0.341,-0.3348 0.511,-0.7521 0.511,-1.252 v -0.2821 h -1.377 m 3.651,3.5627 h -2 v -1.142 c -0.355,0.4678 -0.755,0.8095 -1.199,1.025 -0.444,0.211 -0.984,0.3165 -1.62,0.3165 -0.859,0 -1.831,-0.3271 -2.369,-0.7903 -0.532,-0.4678 -0.799,-1.0732 -0.799,-1.8161 0,-0.9035 0.333,-1.5662 0.999,-1.9882 0.671,-0.4219 1.722,-0.6329 3.152,-0.6329 h 1.562 v -0.1926 c 0,-1.14386 -1.1485,-1.12707 -2.043,-1.1282 -1.1955,-0.002 -2.1409,0.20625 -2.945,0.6329 v -1.8781 c 0.568,-0.1284 1.0447,-0.24771 1.71,-0.2889 1.5672,-0.097 3.2043,-0.06 4.375,0.5293 0.7691,0.38718 1.177,1.1199 1.177,2.3536 z"
       id="path18967"
       inkscape:connector-curvature="0" />
    <path
       class="success"
       style="opacity:1;fill-opacity:1"
       d="m 1056.46,785.36218 h 1.5 v 24 h -1.5 z"
       id="rect18981"
       inkscape:connector-curvature="0" />
    <path
       class="success"
       style="opacity:1;fill-opacity:1"
       d="m 1043.9995,785.36218 h 1.5 v 24 h -1.5 z"
       id="rect18969"
       inkscape:connector-curvature="0" />
    <path
       sodipodi:nodetypes="ccccccccccccccc"
       inkscape:connector-curvature="0"
       id="path826"
       d="m 1049.4246,786.11179 -2.9795,3.00001 2.9795,2.99999 v -2.25 h 0.7617 1.1836 0.7617 v 2.25 l 2.9824,-2.99999 -2.9824,-3.00001 v 2.25 h -0.7617 -1.1836 -0.7617 z"
       style="opacity:0.5" />
  </g>
</svg>
