<?xml version="1.0" encoding="UTF-8" standalone="no"?>
<svg
   xmlns:dc="http://purl.org/dc/elements/1.1/"
   xmlns:cc="http://creativecommons.org/ns#"
   xmlns:rdf="http://www.w3.org/1999/02/22-rdf-syntax-ns#"
   xmlns:svg="http://www.w3.org/2000/svg"
   xmlns="http://www.w3.org/2000/svg"
   xmlns:sodipodi="http://sodipodi.sourceforge.net/DTD/sodipodi-0.dtd"
   xmlns:inkscape="http://www.inkscape.org/namespaces/inkscape"
   inkscape:version="1.1-dev (1fceb22, 2019-12-30)"
   sodipodi:docname="document-metadata-symbolic.svg"
   viewBox="0 0 16 16"
   height="16"
   width="16"
   id="svg1"
   version="1.1">
  <metadata
     id="metadata9129">
    <rdf:RDF>
      <cc:Work
         rdf:about="">
        <dc:format>image/svg+xml</dc:format>
        <dc:type
           rdf:resource="http://purl.org/dc/dcmitype/StillImage" />
      </cc:Work>
    </rdf:RDF>
  </metadata>
  <defs
     id="defs9127" />
  <style
     id="s0">
.success { fill:#009909; }
.warning { fill:#FF1990; }
.error { fill:#00AAFF; }
</style>
  <style
     id="s2">
@import '../../highlights.css';
</style>
  <sodipodi:namedview
     inkscape:document-rotation="0"
     inkscape:current-layer="svg1"
     inkscape:window-maximized="1"
     inkscape:window-y="-8"
     inkscape:window-x="54"
     inkscape:window-height="1177"
     inkscape:window-width="1858"
     inkscape:cy="8"
     inkscape:cx="7.0944964"
     inkscape:zoom="60.1875"
     showgrid="true"
     id="namedview"
     guidetolerance="10"
     gridtolerance="10"
     objecttolerance="10">
    <inkscape:grid
       id="grid"
       type="xygrid" />
  </sodipodi:namedview>
  <g
     id="document-metadata"
     inkscape:label="00005"
     transform="matrix(0.99853,0,0,0.999999,-14.95442,-607.36142)">
    <path
       style="opacity:0;fill:none"
       d="m 14.97644,607.36218 h 16 v 16 h -16 z"
       id="rect10285"
       inkscape:connector-curvature="0" />
    <path
       inkscape:connector-curvature="0"
       id="path10293"
       d="m 17.8125,613.3622 c -0.4584,0.0875 -0.8207,0.5334 -0.8125,1 v 1 8 h 2 v -8 h 5 v 3 h 3 v 5 h 2 v -5.4375 c 0.0061,-0.2641 -0.09754,-0.529 -0.28125,-0.7188 l -3.5625,-3.5625 c -0.18978,-0.1836 -0.45469,-0.2872 -0.71875,-0.2812 H 18 c -0.03123,-10e-4 -0.06252,-10e-4 -0.09375,0 -0.03123,-10e-4 -0.06252,-10e-4 -0.09375,0 z"
       style="opacity:1" />
    <path
       class="error"
       inkscape:connector-curvature="0"
       id="path10291"
       d="m 17,609.3622 h 12 v 2 H 17 Z"
       style="opacity:1" />
    <path
       style="opacity:1"
       d="m 15,607.36218 h 1 v 16 h -1 z"
       id="rect10298"
       inkscape:connector-curvature="0" />
    <path
       style="opacity:1"
       d="m 15,607.36218 h 16 v 1 H 15 Z"
       id="rect10300"
       inkscape:connector-curvature="0" />
    <path
       style="opacity:1"
       d="m 30,607.36218 h 1 v 16 h -1 z"
       id="rect10302"
       inkscape:connector-curvature="0" />
    <path
       style="opacity:1"
       d="m 15,622.36218 h 16 v 1 H 15 Z"
       id="rect10304"
       inkscape:connector-curvature="0" />
  </g>
</svg>
