<?xml version="1.0" encoding="UTF-8" standalone="no"?>
<svg
   xmlns:dc="http://purl.org/dc/elements/1.1/"
   xmlns:cc="http://creativecommons.org/ns#"
   xmlns:rdf="http://www.w3.org/1999/02/22-rdf-syntax-ns#"
   xmlns:svg="http://www.w3.org/2000/svg"
   xmlns="http://www.w3.org/2000/svg"
   xmlns:sodipodi="http://sodipodi.sourceforge.net/DTD/sodipodi-0.dtd"
   xmlns:inkscape="http://www.inkscape.org/namespaces/inkscape"
   version="1.1"
   id="svg1"
   width="16"
   height="16"
   viewBox="0 0 16 16"
   sodipodi:docname="document-import-symbolic.svg"
   inkscape:version="1.1-dev (6039630, 2019-12-20)">
  <style
     id="s0">
.success { fill:#009909; }
.warning { fill:#FF1990; }
.error { fill:#00AAFF; }
</style>
  <style
     id="s2">
@import '../../highlights.css';
</style>
  <metadata
     id="metadata1675">
    <rdf:RDF>
      <cc:Work
         rdf:about="">
        <dc:format>image/svg+xml</dc:format>
        <dc:type
           rdf:resource="http://purl.org/dc/dcmitype/StillImage" />
      </cc:Work>
    </rdf:RDF>
  </metadata>
  <defs
     id="defs1673" />
  <sodipodi:namedview
     objecttolerance="10"
     gridtolerance="10"
     guidetolerance="10"
     id="namedview"
     showgrid="true"
     inkscape:zoom="31.5625"
     inkscape:cx="8"
     inkscape:cy="8.4752475"
     inkscape:window-width="1296"
     inkscape:window-height="890"
     inkscape:window-x="65"
     inkscape:window-y="-6"
     inkscape:window-maximized="1"
     inkscape:current-layer="document-import"
     inkscape:document-rotation="0">
    <inkscape:grid
       type="xygrid"
       id="grid" />
  </sodipodi:namedview>
  <g
     transform="matrix(1,0,0,0.999954,-15,-547.33648)"
     inkscape:label="00002"
     id="document-import">
    <path
       inkscape:connector-curvature="0"
       id="rect29018"
       d="m 15,547.36218 h 16 v 16 H 15 Z"
       style="opacity:0;fill:none" />
    <path
       sodipodi:nodetypes="ccccccccccccccccccccccccc"
       inkscape:connector-curvature="0"
       transform="matrix(1,0,0,1.000046,15,547.36166)"
       d="M 3.8125,0 C 3.3541,0.086996 2.99178,0.53342146 3,1 V 2 5.9999986 H 5 V 2 h 5 v 3 h 3 v 8 H 5 V 10 H 3 v 3 1 c 5e-5,0.523576 0.47642,0.9999 1,1 h 10 c 0.52358,-10e-5 0.99995,-0.476424 1,-1 V 4.5625 C 15.006,4.2984121 14.9025,4.0335413 14.71875,3.84375 l -3.5625,-3.5625 C 10.96647,0.09755845 10.70156,-0.00609972 10.4375,0 H 4 C 3.9688,-9.99954e-4 3.93745,-9.99954e-4 3.90625,0 3.87505,-9.99954e-4 3.8437,-9.99954e-4 3.8125,0 Z"
       style="opacity:1;stroke-width:0.999977"
       id="path29020" />
    <path
       class="success"
       style="opacity:1"
       d="m 16,554.3622 h 6 v -2 l 3,3 -3,3 v -2 h -6 z"
       id="path4685"
       inkscape:connector-curvature="0" />
  </g>
</svg>
