<?xml version="1.0" encoding="UTF-8" standalone="no"?>
<svg
   xmlns:dc="http://purl.org/dc/elements/1.1/"
   xmlns:cc="http://creativecommons.org/ns#"
   xmlns:rdf="http://www.w3.org/1999/02/22-rdf-syntax-ns#"
   xmlns:svg="http://www.w3.org/2000/svg"
   xmlns="http://www.w3.org/2000/svg"
   xmlns:sodipodi="http://sodipodi.sourceforge.net/DTD/sodipodi-0.dtd"
   xmlns:inkscape="http://www.inkscape.org/namespaces/inkscape"
   inkscape:version="1.1-dev (1fceb22, 2019-12-30)"
   sodipodi:docname="document-cleanup-symbolic.svg"
   viewBox="0 0 16 16"
   height="16"
   width="16"
   id="svg1"
   version="1.1">
  <metadata
     id="metadata6578">
    <rdf:RDF>
      <cc:Work
         rdf:about="">
        <dc:format>image/svg+xml</dc:format>
        <dc:type
           rdf:resource="http://purl.org/dc/dcmitype/StillImage" />
      </cc:Work>
    </rdf:RDF>
  </metadata>
  <defs
     id="defs6576" />
  <style
     id="s0">
.success { fill:#009909; }
.warning { fill:#FF1990; }
.error { fill:#00AAFF; }
</style>
  <style
     id="s2">
@import '../../highlights.css';
</style>
  <sodipodi:namedview
     inkscape:document-rotation="0"
     inkscape:current-layer="svg1"
     inkscape:window-maximized="1"
     inkscape:window-y="-8"
     inkscape:window-x="54"
     inkscape:window-height="1177"
     inkscape:window-width="1858"
     inkscape:cy="16.771576"
     inkscape:cx="4.3099559"
     inkscape:zoom="42.558989"
     showgrid="true"
     id="namedview"
     guidetolerance="10"
     gridtolerance="10"
     objecttolerance="10">
    <inkscape:grid
       id="grid"
       type="xygrid" />
  </sodipodi:namedview>
  <g
     id="document-cleanup"
     inkscape:label="00004"
     transform="matrix(0.996901,0,0,1,-14.95351,-585.36218)">
    <path
       style="opacity:0;fill:none"
       d="m 15,585.36218 h 16 v 16 H 15 Z"
       id="rect29219"
       inkscape:connector-curvature="0" />
    <path
       sodipodi:nodetypes="ccsccsscccsscssscc"
       style="opacity:1"
       d="m 24.73364,588.1804 c 0,0 -0.01281,0.5466 -0.30325,1.0909 -0.29048,0.5442 -0.80193,1.0909 -2.12276,1.0909 -1.11665,0 -3.30763,0 -3.88162,0.1364 -0.63844,0.1516 -1.23862,0.4409 -1.6982,0.9545 C 16.26822,591.9667 16,592.7068 16,593.6349 c 0,0.7075 0.130178,1.27271 0.39423,1.7046 0.264008,0.43181 0.65516,0.709 1.03106,0.8522 0.75179,0.2866 1.53524,0.1705 1.97113,0.1705 v -1.0909 c -0.995867,0.15211 -1.640885,0.0909 -2.18341,-0.5455 -0.161977,-0.19 -0.2426,-0.5412 -0.2426,-1.0909 0,-0.7082 0.18237,-1.1273 0.45488,-1.4318 0.2725,-0.3046 0.648854,-0.54393 1.213,-0.6137 0.42427,-0.0525 2.48449,-0.1363 3.66934,-0.1363 1.59038,0 2.53454,-0.817 2.97186,-1.6364 0.43732,-0.8194 0.42455,-1.6363 0.42455,-1.6363 z"
       id="path11319"
       inkscape:connector-curvature="0" />
    <path
       transform="matrix(0.16,0,0,0.1538459,-23.79999,585.3622)"
       style="opacity:1"
       d="m 280,97.5 a 6.25,6.5 0 0 1 -6.25,6.5 6.25,6.5 0 0 1 -6.25,-6.5 6.25,6.5 0 0 1 6.25,-6.5 6.25,6.5 0 0 1 6.25,6.5 z"
       id="path11327"
       inkscape:connector-curvature="0" />
    <path
       sodipodi:nodetypes="sccss"
       inkscape:connector-curvature="0"
       id="rect11314"
       d="m 19,595.3622 c 4,-2 10,-1 10,-1 v 6.0003 c 0,0 0.01874,-0.0153 -11,-3e-4 -1.999998,0.003 -1,-4 1,-5 z"
       style="opacity:1" />
    <path
       transform="matrix(0.3895133,0,0,0.3813021,-78.01398,561.7065)"
       style="opacity:1"
       d="m 280,97.5 a 6.25,6.5 0 0 1 -6.25,6.5 6.25,6.5 0 0 1 -6.25,-6.5 6.25,6.5 0 0 1 6.25,-6.5 6.25,6.5 0 0 1 6.25,6.5 z"
       id="path11312"
       inkscape:connector-curvature="0" />
    <path
       style="opacity:1"
       d="m 21.293539,586.40131 h 7.850454 v 2.03429 h -7.850454 z"
       id="rect11317"
       inkscape:connector-curvature="0" />
  </g>
</svg>
