<?xml version="1.0" encoding="UTF-8" standalone="no"?>
<svg
   xmlns:dc="http://purl.org/dc/elements/1.1/"
   xmlns:cc="http://creativecommons.org/ns#"
   xmlns:rdf="http://www.w3.org/1999/02/22-rdf-syntax-ns#"
   xmlns:svg="http://www.w3.org/2000/svg"
   xmlns="http://www.w3.org/2000/svg"
   xmlns:sodipodi="http://sodipodi.sourceforge.net/DTD/sodipodi-0.dtd"
   xmlns:inkscape="http://www.inkscape.org/namespaces/inkscape"
   version="1.1"
   id="svg1"
   width="16"
   height="16"
   viewBox="0 0 16 16"
   sodipodi:docname="document-export-symbolic.svg"
   inkscape:version="1.1-dev (6039630, 2019-12-20)">
  <style
     id="s0">
.success { fill:#009909; }
.warning { fill:#FF1990; }
.error { fill:#00AAFF; }
</style>
  <style
     id="s2">
@import '../../highlights.css';
</style>
  <metadata
     id="metadata1609">
    <rdf:RDF>
      <cc:Work
         rdf:about="">
        <dc:format>image/svg+xml</dc:format>
        <dc:type
           rdf:resource="http://purl.org/dc/dcmitype/StillImage" />
      </cc:Work>
    </rdf:RDF>
  </metadata>
  <defs
     id="defs1607" />
  <sodipodi:namedview
     objecttolerance="10"
     gridtolerance="10"
     guidetolerance="10"
     id="namedview"
     showgrid="true"
     inkscape:zoom="31.5625"
     inkscape:cx="8"
     inkscape:cy="8"
     inkscape:window-width="1296"
     inkscape:window-height="890"
     inkscape:window-x="65"
     inkscape:window-y="-6"
     inkscape:window-maximized="1"
     inkscape:current-layer="svg1"
     inkscape:document-rotation="0">
    <inkscape:grid
       type="xygrid"
       id="grid" />
  </sodipodi:namedview>
  <g
     transform="matrix(0.999991,0,0,0.999961,-14.999734,-566.33915)"
     inkscape:label="00003"
     id="document-export">
    <path
       inkscape:connector-curvature="0"
       id="rect29077"
       d="m 15,566.36218 h 16 v 15.9999 H 15 Z"
       style="opacity:0;fill:none" />
    <path
       style="opacity:1"
       d="M 15.8125,54 C 15.3541,54.0875 14.99178,54.5334 15,55 v 1 11 1 c 5e-5,0.52358 0.47642,0.99995 1,1 h 10 c 0.52358,-5e-5 0.99995,-0.47642 1,-1 v -3 h -2 v 2 H 17 V 56 h 5 v 3 h 3 v 2 h 2 v -2.4375 c 0.0061,-0.26406 -0.09754,-0.52897 -0.28125,-0.71875 l -3.5625,-3.5625 C 22.96647,54.09755 22.70156,53.99388 22.4375,54 H 16 c -0.03123,-10e-4 -0.06252,-10e-4 -0.09375,0 -0.03123,-10e-4 -0.06252,-10e-4 -0.09375,0 z"
       transform="translate(0,512.3622)"
       id="path29073"
       inkscape:connector-curvature="0" />
    <path
       class="success"
       inkscape:connector-curvature="0"
       id="path29075"
       d="m 22,574.3622 h 6 v -2 l 3,3 -3,3 v -2 h -6 z"
       style="opacity:1" />
  </g>
</svg>
