<?xml version="1.0" encoding="UTF-8" standalone="no"?>
<svg
   xmlns:dc="http://purl.org/dc/elements/1.1/"
   xmlns:cc="http://creativecommons.org/ns#"
   xmlns:rdf="http://www.w3.org/1999/02/22-rdf-syntax-ns#"
   xmlns:svg="http://www.w3.org/2000/svg"
   xmlns="http://www.w3.org/2000/svg"
   xmlns:sodipodi="http://sodipodi.sourceforge.net/DTD/sodipodi-0.dtd"
   xmlns:inkscape="http://www.inkscape.org/namespaces/inkscape"
   version="1.1"
   id="svg1"
   width="16"
   height="16"
   viewBox="0 0 16 16"
   sodipodi:docname="document-new-symbolic.svg"
   inkscape:version="1.1-dev (6039630, 2019-12-20)">
  <style
     id="s0">
.success { fill:#009909; }
.warning { fill:#FF1990; }
.error { fill:#00AAFF; }
</style>
  <style
     id="s2">
@import '../../highlights.css';
</style>
  <metadata
     id="metadata1976">
    <rdf:RDF>
      <cc:Work
         rdf:about="">
        <dc:format>image/svg+xml</dc:format>
        <dc:type
           rdf:resource="http://purl.org/dc/dcmitype/StillImage" />
      </cc:Work>
    </rdf:RDF>
  </metadata>
  <defs
     id="defs1974" />
  <sodipodi:namedview
     objecttolerance="10"
     gridtolerance="10"
     guidetolerance="10"
     id="namedview"
     showgrid="true"
     inkscape:zoom="11.313709"
     inkscape:cx="-1.7460417"
     inkscape:cy="5.9285144"
     inkscape:window-width="1296"
     inkscape:window-height="890"
     inkscape:window-x="65"
     inkscape:window-y="-6"
     inkscape:window-maximized="1"
     inkscape:current-layer="document-new"
     inkscape:document-rotation="0">
    <inkscape:grid
       type="xygrid"
       id="grid" />
  </sodipodi:namedview>
  <g
     transform="matrix(0.996941,0,0,1,-284.12818,-1131.3621)"
     id="document-new"
     inkscape:label="00376">
    <path
       inkscape:connector-curvature="0"
       id="rect14038-2"
       d="m 285,1131.3621 h 16 v 16 h -16 z"
       style="opacity:0;fill:none" />
    <path
       sodipodi:nodetypes="zzzzzzzzzzz"
       class="success"
       style="opacity:1"
       d="m 299.9786,1137.342 c -0.34795,0.264 -1.48015,-0.941 -1.9127,-0.942 -0.43255,-0 -1.51505,1.1855 -1.867,0.927 -0.35195,-0.2585 0.44075,-1.6485 0.3088,-2.072 -0.13195,-0.4235 -1.487,-1.13 -1.3566,-1.554 0.1304,-0.424 1.5829,-0.065 1.9339,-0.323 0.351,-0.2575 0.54835,-1.876 0.9809,-1.878 0.43255,-0 0.5852,1.5995 0.9341,1.862 0.3489,0.2625 1.90295,-0.045 2.0399,0.379 0.13695,0.424 -1.29835,1.0665 -1.4337,1.489 -0.13535,0.4225 0.72035,1.848 0.3724,2.112 z"
       id="path8980"
       inkscape:connector-curvature="0" />
    <path
       sodipodi:nodetypes="sssssscccccsccccccc"
       style="opacity:1"
       d="m 285.8125,1134.362 c -0.48883,0 -0.8125,0.4909 -0.8125,1 v 11 c 0,0.524 0.4764,1 1,1 h 10 c 0.5236,0 1,-0.476 1,-1 v -7.437 c 0.01,-0.264 -0.098,-0.529 -0.2813,-0.719 l -3.5625,-3.563 c -0.1897,-0.183 -0.4547,-0.287 -0.7187,-0.281 H 286 Z m 1.1875,2 h 5 v 3 h 3 v 6 h -8 z"
       id="path1234-4"
       inkscape:connector-curvature="0" />
  </g>
</svg>
