<?xml version="1.0" encoding="UTF-8" standalone="no"?>
<svg
   xmlns:dc="http://purl.org/dc/elements/1.1/"
   xmlns:cc="http://creativecommons.org/ns#"
   xmlns:rdf="http://www.w3.org/1999/02/22-rdf-syntax-ns#"
   xmlns:svg="http://www.w3.org/2000/svg"
   xmlns="http://www.w3.org/2000/svg"
   xmlns:sodipodi="http://sodipodi.sourceforge.net/DTD/sodipodi-0.dtd"
   xmlns:inkscape="http://www.inkscape.org/namespaces/inkscape"
   version="1.1"
   id="svg1"
   width="16"
   height="16"
   viewBox="0 0 16 16"
   sodipodi:docname="document-save-symbolic.svg"
   inkscape:version="1.1-dev (6039630, 2019-12-20)">
  <style
     id="s0">
.success { fill:#009909; }
.warning { fill:#FF1990; }
.error { fill:#00AAFF; }
</style>
  <style
     id="s2">
@import '../../highlights.css';
</style>
  <metadata
     id="metadata1775">
    <rdf:RDF>
      <cc:Work
         rdf:about="">
        <dc:format>image/svg+xml</dc:format>
        <dc:type
           rdf:resource="http://purl.org/dc/dcmitype/StillImage" />
      </cc:Work>
    </rdf:RDF>
  </metadata>
  <defs
     id="defs1773" />
  <sodipodi:namedview
     objecttolerance="10"
     gridtolerance="10"
     guidetolerance="10"
     id="namedview"
     showgrid="true"
     inkscape:zoom="32"
     inkscape:cx="8.6714627"
     inkscape:cy="9.8815856"
     inkscape:window-width="1296"
     inkscape:window-height="890"
     inkscape:window-x="65"
     inkscape:window-y="-6"
     inkscape:window-maximized="1"
     inkscape:current-layer="svg1"
     inkscape:document-rotation="0">
    <inkscape:grid
       type="xygrid"
       id="grid" />
  </sodipodi:namedview>
  <g
     transform="translate(-349,-1131.3621)"
     id="document-save"
     inkscape:label="00372">
    <path
       inkscape:connector-curvature="0"
       id="rect9333"
       d="m 349,1131.3621 h 16 v 16 h -16 z"
       style="opacity:0;fill:none" />
    <path
       class="success"
       inkscape:connector-curvature="0"
       id="rect11650"
       d="m 356,1131.3621 h 2 v 5 h -2 z"
       style="opacity:1" />
    <path
       class="success"
       style="opacity:1"
       d="m 357,1140.362 -4.0231,-4 h 8 z"
       id="path11635"
       inkscape:connector-curvature="0" />
    <path
       
       inkscape:connector-curvature="0"
       id="path55558"
       d="m 353.0007,1139.362 v 1 l -1.5818,2.173 c -0.1871,0.358 -0.7437,0.494 -1.0966,0.267 -0.353,-0.226 -0.3216,-0.44 -0.3216,-0.44 l 1.6981,-2.685 c 0.079,-0.111 0.16,-0.315 0.3019,-0.315 l 1,10e-4 z"
       style="opacity:1" />
    <path
       
       style="opacity:1"
       d="m 361,1139.362 v 1 l 1.5817,2.173 c 0.1872,0.358 0.7438,0.494 1.0967,0.267 0.3529,-0.226 0.3216,-0.44 0.3216,-0.44 l -1.6981,-2.685 c -0.079,-0.111 -0.16,-0.315 -0.3019,-0.315 l -1,10e-4 z"
       inkscape:connector-curvature="0"
       id="path46358" />
    <path
       
       sodipodi:nodetypes="cccccccccssssssc"
       style="opacity:1"
       d="m 350,1142.362 v 5 h 14 v -5 z m 4.9991,2 v 0 h 4 v 0 c 0,-0.264 0.1293,-0.569 0.4375,-0.569 0.3082,0 0.58753,0.243 0.58545,0.6775 -0.002,0.4345 -0.38675,0.8895 -1.02295,0.8895 h -4 c -0.6362,0 -0.9896,-0.455 -0.9961,-0.866 -0.006,-0.411 0.1666,-0.627 0.49325,-0.6905 0.32665,-0.063 0.50885,0.2625 0.50285,0.5585 z"
       inkscape:connector-curvature="0"
       id="path12455" />
  </g>
</svg>
