<?xml version="1.0" encoding="UTF-8" standalone="no"?>
<svg
   xmlns:dc="http://purl.org/dc/elements/1.1/"
   xmlns:cc="http://creativecommons.org/ns#"
   xmlns:rdf="http://www.w3.org/1999/02/22-rdf-syntax-ns#"
   xmlns:svg="http://www.w3.org/2000/svg"
   xmlns="http://www.w3.org/2000/svg"
   xmlns:sodipodi="http://sodipodi.sourceforge.net/DTD/sodipodi-0.dtd"
   xmlns:inkscape="http://www.inkscape.org/namespaces/inkscape"
   inkscape:version="1.1-dev (1fceb22, 2019-12-30)"
   sodipodi:docname="draw-use-tilt-symbolic.svg"
   viewBox="0 0 16 16"
   height="16"
   width="16"
   id="svg1"
   version="1.1">
  <metadata
     id="metadata10843">
    <rdf:RDF>
      <cc:Work
         rdf:about="">
        <dc:format>image/svg+xml</dc:format>
        <dc:type
           rdf:resource="http://purl.org/dc/dcmitype/StillImage" />
      </cc:Work>
    </rdf:RDF>
  </metadata>
  <defs
     id="defs10841" />
  <style
     id="s0">
.success { fill:#009909; }
.warning { fill:#FF1990; }
.error { fill:#00AAFF; }
</style>
  <style
     id="s2">
@import '../../highlights.css';
</style>
  <sodipodi:namedview
     inkscape:document-rotation="0"
     inkscape:current-layer="svg1"
     inkscape:window-maximized="1"
     inkscape:window-y="-8"
     inkscape:window-x="54"
     inkscape:window-height="1177"
     inkscape:window-width="1858"
     inkscape:cy="8"
     inkscape:cx="8"
     inkscape:zoom="60.1875"
     showgrid="true"
     id="namedview"
     guidetolerance="10"
     gridtolerance="10"
     objecttolerance="10">
    <inkscape:grid
       id="grid"
       type="xygrid" />
  </sodipodi:namedview>
  <g
     id="draw-use-tilt"
     inkscape:label="00176"
     transform="translate(-348,-805.36218)">
    <path
       style="opacity:0;fill:none"
       d="m 348,805.36218 h 16 v 16 h -16 z"
       id="use_tilt"
       inkscape:connector-curvature="0" />
    <path
       style="opacity:1;stroke-linecap:round"
       d="m 354.74219,806.36133 a 0.68339565,0.68339565 0 0 0 -0.64258,0.42969 l -5.05078,12.625 a 0.68339565,0.68339565 0 0 0 0.63476,0.9375 h 12.625 a 0.68339565,0.68339565 0 0 0 0.6836,-0.6836 v -1.47851 a 0.683595,0.683595 0 1 0 -1.36719,0 v 0.79492 h -10.93164 l 4.35352,-10.88477 0.20117,0.14063 a 0.68339565,0.68339565 0 1 0 0.78515,-1.11719 l -0.90625,-0.63867 a 0.68339565,0.68339565 0 0 0 -0.38476,-0.125 z"
       id="path4036"
       inkscape:connector-curvature="0" />
    <path
       style="opacity:1;stroke-linecap:round"
       d="m 352.94922,813.63672 a 0.72535824,0.72535824 0 0 0 -0.043,1.44531 c 0.27079,0.0353 0.88507,0.37643 1.39453,0.99805 0.50946,0.62161 0.93806,1.48415 1.07031,2.43359 a 0.72535824,0.72535824 0 1 0 1.43555,-0.19922 c -0.17374,-1.24725 -0.71457,-2.33656 -1.38476,-3.15429 -0.6702,-0.81774 -1.44652,-1.40275 -2.32813,-1.51758 a 0.72535824,0.72535824 0 0 0 -0.14453,-0.006 z"
       id="path15733"
       inkscape:connector-curvature="0" />
  </g>
</svg>
