<?xml version="1.0" encoding="UTF-8" standalone="no"?>
<svg
   xmlns:dc="http://purl.org/dc/elements/1.1/"
   xmlns:cc="http://creativecommons.org/ns#"
   xmlns:rdf="http://www.w3.org/1999/02/22-rdf-syntax-ns#"
   xmlns:svg="http://www.w3.org/2000/svg"
   xmlns="http://www.w3.org/2000/svg"
   xmlns:sodipodi="http://sodipodi.sourceforge.net/DTD/sodipodi-0.dtd"
   xmlns:inkscape="http://www.inkscape.org/namespaces/inkscape"
   inkscape:version="1.0beta2 (7cf281c, 2019-12-21)"
   sodipodi:docname="draw-eraser-delete-objects-symbolic.svg"
   viewBox="0 0 16 16"
   height="16"
   width="16"
   id="svg1"
   version="1.1">
  <metadata
     id="metadata9394">
    <rdf:RDF>
      <cc:Work
         rdf:about="">
        <dc:format>image/svg+xml</dc:format>
        <dc:type
           rdf:resource="http://purl.org/dc/dcmitype/StillImage" />
      </cc:Work>
    </rdf:RDF>
  </metadata>
  <defs
     id="defs9392" />
  <style
     id="s0">
.success { fill:#009909; }
.warning { fill:#FF1990; }
.error { fill:#00AAFF; }
</style>
  <style
     id="s2">
@import '../../highlights.css';
</style>
  <sodipodi:namedview
     inkscape:document-rotation="0"
     inkscape:current-layer="svg1"
     inkscape:window-maximized="1"
     inkscape:window-y="-6"
     inkscape:window-x="65"
     inkscape:window-height="890"
     inkscape:window-width="1296"
     inkscape:cy="8.2269504"
     inkscape:cx="8"
     inkscape:zoom="41.125"
     showgrid="true"
     id="namedview"
     guidetolerance="10"
     gridtolerance="10"
     objecttolerance="10">
    <inkscape:grid
       id="grid"
       type="xygrid" />
  </sodipodi:namedview>
  <g
     id="draw-eraser-delete-objects"
     inkscape:label="00196"
     transform="matrix(1,0,0,0.999999,-347,-991.36094)">
    <path
       style="opacity:0;fill:none"
       d="m 347,991.36218 h 16 v 16.00002 h -16 z"
       id="rect16317"
       inkscape:connector-curvature="0" />
    <path
       class="warning"
       inkscape:connector-curvature="0"
       style="opacity:1"
       d="m 354,998.3622 c -0.554,0 -1,0.446 -1,1 v 6.9998 c 0,0.554 0.446,1 1,1 h 7 c 0.554,0 1,-0.446 1,-1 v -6.9998 c 0,-0.554 -0.446,-1 -1,-1 z m 1.9062,0.7187 1.7813,2.1561 1.7812,-2.1561 1.5313,1.2811 -2.0313,2.438 2.0313,2.468 -1.5313,1.282 -1.7812,-2.157 -1.7813,2.157 -1.5312,-1.282 2.0312,-2.468 -2.0312,-2.438 z"
       id="path16321" />
    <path
       sodipodi:nodetypes="cccccccccccccc"
       id="rect16326"
       transform="translate(0,512.3622)"
       d="m 347,479.99973 v 1 V 492 v 1 h 1 4 v -1 h -4 v -11.00027 h 11 V 485 h 1 v -5.00027 z"
       style="opacity:1"
       inkscape:connector-curvature="0" />
    <path
       sodipodi:nodetypes="ccccccccc"
       id="rect16402"
       transform="translate(0,512.3622)"
       d="M 349,481.99973 V 485 v 6 h 3 v -6 h 6 v -3.00027 h -6 z"
       style="opacity:0.5"
       inkscape:connector-curvature="0" />
  </g>
</svg>
