<?xml version="1.0" encoding="UTF-8" standalone="no"?>
<svg
   xmlns:dc="http://purl.org/dc/elements/1.1/"
   xmlns:cc="http://creativecommons.org/ns#"
   xmlns:rdf="http://www.w3.org/1999/02/22-rdf-syntax-ns#"
   xmlns:svg="http://www.w3.org/2000/svg"
   xmlns="http://www.w3.org/2000/svg"
   xmlns:sodipodi="http://sodipodi.sourceforge.net/DTD/sodipodi-0.dtd"
   xmlns:inkscape="http://www.inkscape.org/namespaces/inkscape"
   inkscape:version="1.0beta2 (7cf281c, 2019-12-21)"
   sodipodi:docname="draw-geometry-circle-from-three-points-symbolic.svg"
   viewBox="0 0 16 16"
   height="16"
   width="16"
   id="svg1"
   version="1.1">
  <metadata
     id="metadata13609">
    <rdf:RDF>
      <cc:Work
         rdf:about="">
        <dc:format>image/svg+xml</dc:format>
        <dc:type
           rdf:resource="http://purl.org/dc/dcmitype/StillImage" />
      </cc:Work>
    </rdf:RDF>
  </metadata>
  <defs
     id="defs13607" />
  <style
     id="s0">
.success { fill:#009909; }
.warning { fill:#FF1990; }
.error { fill:#00AAFF; }
</style>
  <style
     id="s2">
@import '../../highlights.css';
</style>
  <sodipodi:namedview
     inkscape:document-rotation="0"
     inkscape:current-layer="svg1"
     inkscape:window-maximized="1"
     inkscape:window-y="-6"
     inkscape:window-x="65"
     inkscape:window-height="890"
     inkscape:window-width="1296"
     inkscape:cy="8"
     inkscape:cx="8"
     inkscape:zoom="41.125"
     showgrid="true"
     id="namedview"
     guidetolerance="10"
     gridtolerance="10"
     objecttolerance="10">
    <inkscape:grid
       id="grid"
       type="xygrid" />
  </sodipodi:namedview>
  <g
     id="draw-geometry-circle-from-three-points"
     inkscape:label="00222"
     transform="translate(-528,-589.36218)">
    <path
       style="opacity:0;fill:none"
       d="m 528,589.36218 h 16 v 16 h -16 z"
       id="rect25473"
       inkscape:connector-curvature="0" />
    <path
       style="opacity:1"
       d="m 535.96875,590.36133 c -0.92203,0 -1.84169,0.18256 -2.69336,0.5332 -0.8517,0.35087 -1.63128,0.86912 -2.2832,1.51758 -0.652,0.64843 -1.17245,1.42394 -1.52539,2.27148 -0.35281,0.84747 -0.53516,1.76015 -0.53516,2.67774 0,0.91749 0.18233,1.83228 0.53516,2.67969 0.35294,0.84754 0.87339,1.62305 1.52539,2.27148 0.6519,0.64844 1.43142,1.16678 2.2832,1.51758 0.85173,0.35078 1.77142,0.53114 2.69336,0.53125 0.92194,0 1.84108,-0.18063 2.69336,-0.53125 0.85217,-0.35074 1.63243,-0.86919 2.28516,-1.51758 0.6527,-0.64837 1.17392,-1.42188 1.52734,-2.26953 0.28374,-0.68032 0.37204,-1.41873 0.42969,-2.15235 h 0.10547 v -0.52929 -0.52735 h -0.10547 c -0.0575,-0.73417 -0.14586,-1.47152 -0.42969,-2.15234 -0.35352,-0.84762 -0.87466,-1.62313 -1.52734,-2.27148 -0.65271,-0.64838 -1.43291,-1.16497 -2.28516,-1.51563 -0.85228,-0.35062 -1.77142,-0.5332 -2.69336,-0.5332 z m 0,1.05859 c 0.78266,0 1.56769,0.15555 2.29102,0.45313 0.72315,0.29754 1.3881,0.73943 1.9414,1.28906 0.55332,0.54965 0.9976,1.21016 1.29688,1.92773 0.29922,0.71776 0.45507,1.49485 0.45507,2.27149 0,0.77653 -0.15578,1.55584 -0.45507,2.27344 -0.29918,0.71755 -0.74358,1.3781 -1.29688,1.92773 -0.55328,0.54961 -1.21818,0.9914 -1.9414,1.28906 -0.72333,0.29758 -1.50836,0.45313 -2.29102,0.45313 -0.78266,-9e-5 -1.56835,-0.1555 -2.29102,-0.45313 -0.72262,-0.2976 -1.38695,-0.7395 -1.93945,-1.28906 -0.5526,-0.54957 -0.99607,-1.21008 -1.29492,-1.92773 -0.29878,-0.7176 -0.45508,-1.49694 -0.45508,-2.27344 0,-0.77661 0.15628,-1.55375 0.45508,-2.27149 0.29885,-0.71765 0.74232,-1.37816 1.29492,-1.92773 0.55248,-0.54954 1.21676,-0.99134 1.93945,-1.28906 0.72274,-0.29756 1.50845,-0.45313 2.29102,-0.45313 z"
       id="path2526"
       inkscape:connector-curvature="0" />
    <path
       class="success"
       style="opacity:1"
       d="m 534,589.36218 h 4 v 4 h -4 z"
       id="rect25475"
       inkscape:connector-curvature="0" />
    <path
       class="success"
       style="opacity:1"
       d="m 528,595.36218 h 4 v 4 h -4 z"
       id="rect25477"
       inkscape:connector-curvature="0" />
    <path
       class="success"
       style="opacity:1"
       d="m 540,595.36218 h 4 v 4 h -4 z"
       id="rect25479"
       inkscape:connector-curvature="0" />
  </g>
</svg>
