<?xml version="1.0" encoding="UTF-8" standalone="no"?>
<svg
   xmlns:dc="http://purl.org/dc/elements/1.1/"
   xmlns:cc="http://creativecommons.org/ns#"
   xmlns:rdf="http://www.w3.org/1999/02/22-rdf-syntax-ns#"
   xmlns:svg="http://www.w3.org/2000/svg"
   xmlns="http://www.w3.org/2000/svg"
   xmlns:sodipodi="http://sodipodi.sourceforge.net/DTD/sodipodi-0.dtd"
   xmlns:inkscape="http://www.inkscape.org/namespaces/inkscape"
   inkscape:version="1.0beta2 (7cf281c, 2019-12-21)"
   sodipodi:docname="draw-geometry-line-parallel-symbolic.svg"
   viewBox="0 0 16 16"
   height="16"
   width="16"
   id="svg1"
   version="1.1">
  <metadata
     id="metadata14760">
    <rdf:RDF>
      <cc:Work
         rdf:about="">
        <dc:format>image/svg+xml</dc:format>
        <dc:type
           rdf:resource="http://purl.org/dc/dcmitype/StillImage" />
      </cc:Work>
    </rdf:RDF>
  </metadata>
  <defs
     id="defs14758" />
  <style
     id="s0">
.success { fill:#009909; }
.warning { fill:#FF1990; }
.error { fill:#00AAFF; }
</style>
  <style
     id="s2">
@import '../../highlights.css';
</style>
  <sodipodi:namedview
     inkscape:document-rotation="0"
     inkscape:current-layer="svg1"
     inkscape:window-maximized="1"
     inkscape:window-y="-6"
     inkscape:window-x="65"
     inkscape:window-height="890"
     inkscape:window-width="1296"
     inkscape:cy="8"
     inkscape:cx="8"
     inkscape:zoom="41.125"
     showgrid="true"
     id="namedview"
     guidetolerance="10"
     gridtolerance="10"
     objecttolerance="10">
    <inkscape:grid
       id="grid"
       type="xygrid" />
  </sodipodi:namedview>
  <g
     id="draw-geometry-line-parallel"
     inkscape:label="00224"
     transform="translate(-589,-589.3622)">
    <path
       transform="translate(0,512.3622)"
       style="opacity:0;fill:none"
       d="m 589,77 h 16 v 16 h -16 z"
       id="rect13700"
       inkscape:connector-curvature="0" />
    <g
       id="g6231"
       transform="matrix(0.4616704,0.9537175,-0.9705043,0.4536848,373.1954,-93.53239)">
      <path
         style="opacity:1;stroke-linecap:round"
         d="m 687.16016,89.103516 a 0.50005,0.50005 0 0 0 -0.13282,0.01367 l -14.70703,3.267578 a 0.50016887,0.50016887 0 1 0 0.2168,0.976562 l 14.70703,-3.267578 a 0.50005,0.50005 0 0 0 -0.084,-0.990234 z"
         id="path4418-8-1-0-1-4-4"
         inkscape:connector-curvature="0" />
      <path
         style="opacity:1;stroke-linecap:round"
         d="m 687.95117,92.564453 a 0.50005,0.50005 0 0 0 -0.084,0.01172 l -14.70703,3.267578 a 0.50016778,0.50016778 0 1 0 0.21679,0.976562 l 14.70703,-3.267578 a 0.50005,0.50005 0 0 0 -0.13281,-0.988281 z"
         id="path4418-8-1-0-1-4-4-6"
         inkscape:connector-curvature="0" />
    </g>
  </g>
</svg>
