<?xml version="1.0" encoding="UTF-8" standalone="no"?>
<svg
   xmlns:dc="http://purl.org/dc/elements/1.1/"
   xmlns:cc="http://creativecommons.org/ns#"
   xmlns:rdf="http://www.w3.org/1999/02/22-rdf-syntax-ns#"
   xmlns:svg="http://www.w3.org/2000/svg"
   xmlns="http://www.w3.org/2000/svg"
   xmlns:sodipodi="http://sodipodi.sourceforge.net/DTD/sodipodi-0.dtd"
   xmlns:inkscape="http://www.inkscape.org/namespaces/inkscape"
   inkscape:version="1.0beta0 (1d85f8e, 2019-09-11)"
   sodipodi:docname="draw-path-symbolic.svg"
   viewBox="0 0 16 16"
   height="16"
   width="16"
   id="svg1"
   version="1.1">
<style id="s0">
   .success { fill: #009909; }
   .warning { fill: #FF1990; }
   .error   { fill: #00AAFF; }
  </style>
  <style id="s2"> 
     @import '../../highlights.css'; 
  </style>
  
  <metadata
     id="metadata2927">
    <rdf:RDF>
      <cc:Work
         rdf:about="">
        <dc:format>image/svg+xml</dc:format>
        <dc:type
           rdf:resource="http://purl.org/dc/dcmitype/StillImage" />
        <dc:title />
      </cc:Work>
    </rdf:RDF>
  </metadata>
  <defs
     id="defs2925">
    <inkscape:path-effect
       effect="join_type"
       id="path-effect2216"
       is_visible="true"
       linecap_type="butt"
       line_width="1.7"
       linejoin_type="extrp_arc"
       miter_limit="100"
       attempt_force_join="true" />
  </defs>
  <sodipodi:namedview
     inkscape:snap-global="true"
     inkscape:document-rotation="0"
     inkscape:current-layer="g0"
     inkscape:window-maximized="1"
     inkscape:window-y="-8"
     inkscape:window-x="54"
     inkscape:window-height="1177"
     inkscape:window-width="1858"
     inkscape:cy="8.4677457"
     inkscape:cx="4.8852383"
     inkscape:zoom="62.42869"
     showgrid="true"
     id="namedview"
     guidetolerance="10"
     gridtolerance="10"
     objecttolerance="10">
    <inkscape:grid
       id="grid"
       type="xygrid" />
  </sodipodi:namedview>
  <g
     id="g0"
     inkscape:label="draw-path">
    <path
       inkscape:connector-curvature="0"
       style="opacity:0"
       d="M 0,0 H 16 V 16 H 0 Z"
       id="background" />
    <path
       sodipodi:nodetypes="cc"
       transform="matrix(0.47265641,0,0,0.47265641,-435.19742,-104.40719)"
       inkscape:original-d="m 925.2,243.33 c -0.0507,-5.35146 5.04257,-19.00161 20.92914,-19.13681"
       inkscape:path-effect="#path-effect2216"
       style="opacity:0.6"
       class="st5"
       d="m 926.04996,243.32195 c -0.0458,-4.83308 4.65481,-18.14746 20.08641,-18.27879 l -0.0145,-1.69994 c -16.34154,0.13907 -21.82748,14.12499 -21.77187,19.99483 z"
       id="path1021"
       inkscape:connector-curvature="0" />
    <path
       style="fill-opacity:1;stroke-width:1.02509"
       inkscape:connector-curvature="0"
       class="success"
       d="m 0,9 h 4 v 4 H 0 Z"
       id="rect1023" />
    <path
       sodipodi:nodetypes="ccccc"
       style="fill-opacity:1;stroke-width:1.15169"
       inkscape:connector-curvature="0"
       class="success"
       d="m 1.5639419,2 h 0.8 v 11 h -0.8 z"
       id="rect946" />
    <path
       sodipodi:nodetypes="cccccccccccccccc"
       inkscape:connector-curvature="0"
       d="M 5.6986783,15.971348 13.178561,13.565393 14.545982,8.9992981 15.774274,7.7710084 15,5.7169706 12.93897,4.930587 11.710679,6.158877 7.1394668,7.5262997 4.733513,15.00618 8.6666,11.073094 8.9059415,9.2927744 11.473563,8.4620436 12.27953,9.2689379 11.412086,11.798918 9.631766,12.03826 Z"
       id="polygon1025"
        />
    <path
       style="fill-opacity:1"
       inkscape:connector-curvature="0"
       class="success"
       d="M 3.9078723,1.9670688 A 1.9439304,1.9439304 0 0 1 1.9639419,3.9109992 1.9439304,1.9439304 0 0 1 0.0200115,1.9670688 1.9439304,1.9439304 0 0 1 1.9639419,0.02313839 1.9439304,1.9439304 0 0 1 3.9078723,1.9670688"
       id="circle1027" />
  </g>
</svg>
