<?xml version="1.0" encoding="UTF-8" standalone="no"?>
<svg
   xmlns:dc="http://purl.org/dc/elements/1.1/"
   xmlns:cc="http://creativecommons.org/ns#"
   xmlns:rdf="http://www.w3.org/1999/02/22-rdf-syntax-ns#"
   xmlns:svg="http://www.w3.org/2000/svg"
   xmlns="http://www.w3.org/2000/svg"
   xmlns:sodipodi="http://sodipodi.sourceforge.net/DTD/sodipodi-0.dtd"
   xmlns:inkscape="http://www.inkscape.org/namespaces/inkscape"
   inkscape:version="1.0alpha2 (119fb3b5e8, 2019-06-21, custom)"
   sodipodi:docname="draw-polygon-star-symbolic.svg"
   viewBox="0 0 16 16"
   height="16"
   width="16"
   id="svg1"
   version="1.1">
<style id="s0">
   .success { fill: #009909; }
   .warning { fill: #FF1990; }
   .error   { fill: #00AAFF; }
  </style>
  <style id="s2"> 
     @import '../../highlights.css'; 
  </style>

     
<metadata
     id="metadata1213">
    <rdf:RDF>
      <cc:Work
         rdf:about="">
        <dc:format>image/svg+xml</dc:format>
        <dc:type
           rdf:resource="http://purl.org/dc/dcmitype/StillImage" />
        <dc:title />
      </cc:Work>
    </rdf:RDF>
  </metadata>
  <defs
     id="defs1211">
    <inkscape:path-effect
       effect="join_type"
       id="path-effect949"
       is_visible="true"
       linecap_type="round"
       line_width="3"
       linejoin_type="round"
       miter_limit="100"
       attempt_force_join="true" />
    <inkscape:path-effect
       attempt_force_join="true"
       miter_limit="100"
       linejoin_type="round"
       line_width="3"
       linecap_type="round"
       is_visible="true"
       id="path-effect1916"
       effect="join_type" />
  </defs>
  <sodipodi:namedview
     inkscape:document-rotation="0"
     inkscape:current-layer="svg1"
     inkscape:window-maximized="1"
     inkscape:window-y="27"
     inkscape:window-x="0"
     inkscape:window-height="1016"
     inkscape:window-width="1920"
     inkscape:cy="13.62994"
     inkscape:cx="9.8505052"
     inkscape:zoom="31.678384"
     showgrid="true"
     id="namedview"
     guidetolerance="10"
     gridtolerance="10"
     objecttolerance="10"
     inkscape:showpageshadow="true"
     inkscape:snap-global="false">
    <inkscape:grid
       id="grid"
       type="xygrid" />
  </sodipodi:namedview>
  <g
     id="g0"
     inkscape:label="draw-poligon-star">
    <path
       inkscape:connector-curvature="0"
       style="opacity:0"
       d="M 0,0 H 16 V 16 H 0 Z"
       id="background" />
    <path
       inkscape:label="poly"
       inkscape:connector-curvature="0"
       class="warning"
       d="M 9.0273366,7.7539255 10.156824,5.4662337 5.6340869,2.1734892 0.75240167,5.71989 2.6141424,11.458263 H 7.9600663 L 8.1132171,10.57286 5.7106623,8.232522 Z"
       style="opacity:0.4;"
       id="polygon1130" />
    <path
       
       inkscape:label="poly out"
       inkscape:connector-curvature="0"
       d="m 937.55,406.41 a 1.5,1.5 0 0 0 1.47805,-1.24434 l 0.32,-1.85 a 1.5,1.5 0 0 0 -0.43139,-1.33014 l -5.02,-4.89 a 1.5,1.5 0 0 0 -0.83243,2.5591 l 6.93,-1 a 1.5,1.5 0 0 0 1.13077,-0.82056 l 2.36,-4.78 a 1.5,1.5 0 0 0 -0.46213,-1.87672 l -9.45,-6.88 a 1.5,1.5 0 0 0 -1.76449,-9.1e-4 l -10.2,7.41 a 1.5,1.5 0 0 0 -0.54517,1.67647 l 3.89,11.99 A 1.5,1.5 0 0 0 926.38,406.41 Z m -13.63321,-13.9529 a 1.5,1.5 0 0 0 -0.54517,1.67647 l 10.2,-7.41 a 1.5,1.5 0 0 0 -1.76449,-9.1e-4 l 9.45,6.88 a 1.5,1.5 0 0 0 -0.46213,-1.87672 l -2.36,4.78 a 1.5,1.5 0 0 0 1.13077,-0.82056 l -6.93,1 a 1.5,1.5 0 0 0 -0.83243,2.5591 l 5.02,4.89 a 1.5,1.5 0 0 0 -0.43139,-1.33014 l -0.32,1.85 A 1.5,1.5 0 0 0 937.55,403.41 h -11.17 a 1.5,1.5 0 0 0 1.42679,1.0371 z"
       transform="matrix(0.47859658,0,0,0.47859658,-440.74817,-182.33028)"
       id="polygon1132"
       inkscape:path-effect="#path-effect949"
       inkscape:original-d="m 926.38,404.91 h 11.17 l 0.32,-1.85 -5.02,-4.89 6.93,-1 2.36,-4.78 -9.45,-6.88 -10.2,7.41 z" />
    <path
       inkscape:label="star"
       inkscape:connector-curvature="0"
       class="warning"
       d="m 5.7106623,8.232522 3.3166743,-0.4785965 1.4836494,-3.0055867 1.483649,3.0055867 3.316675,0.4785965 -2.397769,2.340338 0.564744,3.302316 -2.967299,-1.55544 -2.9672988,1.55544 0.5695299,-3.302316 z"
       style="opacity:0.2;"
       id="polygon1136" />
    <path
       
       inkscape:label="star out"
       inkscape:original-d="m 942.88,406.71 -6.2,3.25 1.19,-6.9 -5.02,-4.89 6.93,-1 3.1,-6.28 3.1,6.28 6.93,1 -5.01,4.89 1.18,6.9 z"
       inkscape:path-effect="#path-effect1916"
       inkscape:connector-curvature="0"
       d="m 935.98359,408.63146 a 1.5,1.5 0 0 0 2.17459,1.58347 l 1.19,-6.9 a 1.5,1.5 0 0 0 -0.43152,-1.32941 l -5.02,-4.89 a 1.5,1.5 0 0 0 -0.83243,2.5591 l 6.93,-1 a 1.5,1.5 0 0 0 1.13082,-0.82066 l 3.1,-6.28 a 1.5,1.5 0 0 0 -2.6901,0 l 3.1,6.28 a 1.5,1.5 0 0 0 1.13082,0.82066 l 6.93,1 a 1.5,1.5 0 0 0 -0.8335,-2.55806 l -5.01,4.89 a 1.5,1.5 0 0 0 -0.43081,1.32629 l 1.18,6.9 a 1.5,1.5 0 0 0 2.17495,-1.58139 l -6.2,-3.25 a 1.5,1.5 0 0 0 -1.39282,0 z m 12.4,2.65708 a 1.5,1.5 0 0 0 2.17495,-1.58139 l -1.18,-6.9 a 1.5,1.5 0 0 0 -0.43081,1.32629 l 5.01,-4.89 a 1.5,1.5 0 0 0 -0.8335,-2.55806 l -6.93,-1 a 1.5,1.5 0 0 0 1.13082,0.82066 l -3.1,-6.28 a 1.5,1.5 0 0 0 -2.6901,0 l -3.1,6.28 a 1.5,1.5 0 0 0 1.13082,-0.82066 l -6.93,1 a 1.5,1.5 0 0 0 -0.83243,2.5591 l 5.02,4.89 a 1.5,1.5 0 0 0 -0.43152,-1.32941 l -1.19,6.9 a 1.5,1.5 0 0 0 2.17459,1.58347 l 6.2,-3.25 a 1.5,1.5 0 0 0 -1.39282,0 z"
       transform="matrix(0.47859658,0,0,0.47859658,-440.74817,-182.33028)"
       id="polygon1138" />
  </g>
</svg>
