<?xml version="1.0" encoding="UTF-8" standalone="no"?>
<svg
   xmlns:dc="http://purl.org/dc/elements/1.1/"
   xmlns:cc="http://creativecommons.org/ns#"
   xmlns:rdf="http://www.w3.org/1999/02/22-rdf-syntax-ns#"
   xmlns:svg="http://www.w3.org/2000/svg"
   xmlns="http://www.w3.org/2000/svg"
   xmlns:sodipodi="http://sodipodi.sourceforge.net/DTD/sodipodi-0.dtd"
   xmlns:inkscape="http://www.inkscape.org/namespaces/inkscape"
   inkscape:version="1.0beta2 (7cf281c, 2019-12-21)"
   sodipodi:docname="draw-geometry-mirror-symbolic.svg"
   viewBox="0 0 16 16"
   height="16"
   width="16"
   id="svg1"
   version="1.1">
  <metadata
     id="metadata2881">
    <rdf:RDF>
      <cc:Work
         rdf:about="">
        <dc:format>image/svg+xml</dc:format>
        <dc:type
           rdf:resource="http://purl.org/dc/dcmitype/StillImage" />
      </cc:Work>
    </rdf:RDF>
  </metadata>
  <defs
     id="defs2879" />
  <style
     id="s0">
.success { fill:#009909; }
.warning { fill:#FF1990; }
.error { fill:#00AAFF; }
</style>
  <style
     id="s2">
@import '../../highlights.css';
</style>
  <sodipodi:namedview
     inkscape:document-rotation="0"
     inkscape:current-layer="svg1"
     inkscape:window-maximized="1"
     inkscape:window-y="-6"
     inkscape:window-x="65"
     inkscape:window-height="890"
     inkscape:window-width="1296"
     inkscape:cy="8"
     inkscape:cx="8"
     inkscape:zoom="41.125"
     showgrid="true"
     id="namedview"
     guidetolerance="10"
     gridtolerance="10"
     objecttolerance="10">
    <inkscape:grid
       id="grid"
       type="xygrid" />
  </sodipodi:namedview>
  <g
     id="draw-geometry-mirror"
     inkscape:label="00227"
     transform="matrix(0.99769,0,0,0.959973,-677.40752,-565.77071)">
    <path
       style="opacity:0;fill:none"
       d="m 679,589.36218 h 16 v 16 h -16 z"
       id="rect14666"
       inkscape:connector-curvature="0" />
    <path
       style="opacity:1;stroke-linecap:round"
       d="m 687.28906,589.36133 a 0.63558234,0.63558234 0 0 0 -0.61133,0.4375 c -0.39879,1.16928 -0.55254,2.06606 -0.46679,2.8164 0.0857,0.75035 0.47589,1.35557 1.00586,1.68946 1.05993,0.66777 2.40058,0.51628 3.60547,0.53906 0.60244,0.0114 1.16938,0.0488 1.61523,0.16406 0.44585,0.11524 0.74874,0.28784 0.95898,0.57031 0.42049,0.56496 0.58319,1.92612 -0.42773,4.82227 a 0.6359065,0.6359065 0 1 0 1.20117,0.41797 c 1.06288,-3.045 1.09346,-4.86152 0.2461,-6 -0.42369,-0.56924 -1.03728,-0.88002 -1.66016,-1.04102 -0.62288,-0.16099 -1.27614,-0.19114 -1.91016,-0.20312 -1.26803,-0.024 -2.46973,-0.0404 -2.95117,-0.34375 -0.24072,-0.15166 -0.37043,-0.30955 -0.42187,-0.75977 -0.0515,-0.45022 0.0417,-1.19082 0.40625,-2.25976 a 0.63558234,0.63558234 0 0 0 -0.58985,-0.84961 z"
       id="path4418-8-1-0-1-4-4-8"
       inkscape:connector-curvature="0" />
    <path
       style="opacity:1;stroke-linecap:round"
       d="m 681.47656,589.82617 a 0.63558234,0.63558234 0 0 0 -0.49804,1.03906 l 11.91601,14.92383 a 0.63582933,0.63582933 0 1 0 0.99414,-0.79297 l -11.91601,-14.92382 a 0.63558234,0.63558234 0 0 0 -0.4961,-0.2461 z"
       id="path4418-8-1-0-1-4-4-6-5"
       inkscape:connector-curvature="0" />
    <path
       style="opacity:1;stroke-linecap:round"
       d="m 679.55664,595.21875 a 0.6362298,0.6362298 0 1 0 0.11133,1.26758 c 1.15155,-0.10064 1.89927,-0.0145 2.30664,0.13672 0.40737,0.1512 0.48913,0.28369 0.55469,0.53515 0.13111,0.50292 -0.22634,1.68022 -0.56641,2.90821 -0.17003,0.61399 -0.3191,1.25144 -0.31445,1.89843 0.005,0.647 0.19111,1.33244 0.69336,1.86328 1.00449,1.06169 2.90337,1.41442 6.4375,1.08399 a 0.63558234,0.63558234 0 1 0 -0.11719,-1.26563 c -3.39502,0.31743 -4.8967,-0.16315 -5.39649,-0.6914 -0.24989,-0.26413 -0.34257,-0.56324 -0.3457,-0.99805 -0.003,-0.43481 0.10892,-0.97787 0.26758,-1.55078 0.31732,-1.14582 0.88336,-2.3695 0.57031,-3.57031 -0.15652,-0.60041 -0.6379,-1.14376 -1.33984,-1.4043 -0.70194,-0.26054 -1.60843,-0.32238 -2.86133,-0.21289 z"
       id="path4418-8-1-0-1-4-4-8-5"
       inkscape:connector-curvature="0" />
  </g>
</svg>
