<?xml version="1.0" encoding="UTF-8" standalone="no"?>
<svg
   xmlns:dc="http://purl.org/dc/elements/1.1/"
   xmlns:cc="http://creativecommons.org/ns#"
   xmlns:rdf="http://www.w3.org/1999/02/22-rdf-syntax-ns#"
   xmlns:svg="http://www.w3.org/2000/svg"
   xmlns="http://www.w3.org/2000/svg"
   xmlns:sodipodi="http://sodipodi.sourceforge.net/DTD/sodipodi-0.dtd"
   xmlns:inkscape="http://www.inkscape.org/namespaces/inkscape"
   inkscape:version="1.1-dev (6039630, 2019-12-20)"
   sodipodi:docname="edit-clone-unlink-symbolic.svg"
   viewBox="0 0 16 16"
   height="16"
   width="16"
   id="svg1"
   version="1.1">
  <metadata
     id="metadata3820">
    <rdf:RDF>
      <cc:Work
         rdf:about="">
        <dc:format>image/svg+xml</dc:format>
        <dc:type
           rdf:resource="http://purl.org/dc/dcmitype/StillImage" />
      </cc:Work>
    </rdf:RDF>
  </metadata>
  <defs
     id="defs3818" />
  <style
     id="s0">
.success { fill:#009909; }
.warning { fill:#FF1990; }
.error { fill:#00AAFF; }
</style>
  <style
     id="s2">
@import '../../highlights.css';
</style>
  <sodipodi:namedview
     inkscape:document-rotation="0"
     inkscape:current-layer="edit-clone-unlink"
     inkscape:window-maximized="1"
     inkscape:window-y="-6"
     inkscape:window-x="65"
     inkscape:window-height="890"
     inkscape:window-width="1296"
     inkscape:cy="10.279271"
     inkscape:cx="6.298633"
     inkscape:zoom="29.079766"
     showgrid="true"
     id="namedview"
     guidetolerance="10"
     gridtolerance="10"
     objecttolerance="10">
    <inkscape:grid
       id="grid"
       type="xygrid" />
  </sodipodi:namedview>
  <g
     id="edit-clone-unlink"
     inkscape:label="00014"
     transform="translate(-45,-627.3622)">
    <path
       style="opacity:0;fill:none"
       d="m 45,627.3622 v 16 h 16 v -16 z"
       id="path45871"
       inkscape:connector-curvature="0" />
    <path
       sodipodi:nodetypes="cccccssscssccccssccccssssccss"
       inkscape:connector-curvature="0"
       style="opacity:1;fill-rule:evenodd"
       d="m 60,632.3622 v 11 H 50 v -11 z m -3.381859,1.44144 h -0.105908 c -0.85142,0 -1.53125,0.7099 -1.53125,1.5625 v 1.99606 c 0,0 -1.870067,-0.0279 -2.480983,0 -0.403136,0.0184 -0.5,0.2494 -0.5,0.5625 v 0.3125 3.0937 h 5 v -3.0937 -0.3125 c 0,-0.3131 -0.22503,-0.5625 -0.5,-0.5625 H 56.03125 55 54 56.012233 v -1.99606 c 0,-0.3332 0.24258,-0.5312 0.5,-0.5312 h 0.105908 c 0.25742,0 0.414994,0.20236 0.46875,0.5312 v 0.4375 h 1.03125 v -0.4375 c 0,-0.8526 -0.64858,-1.5625 -1.5,-1.5625 z"
       id="path45877" />
    <path
       inkscape:connector-curvature="0"
       id="path45869"
       d="m 49,636.3622 v -1 -4 h 6 v 0 -4 H 45 v 9 z"
       style="opacity:1" />
  </g>
</svg>
