<?xml version="1.0" encoding="UTF-8" standalone="no"?>
<svg
   xmlns:dc="http://purl.org/dc/elements/1.1/"
   xmlns:cc="http://creativecommons.org/ns#"
   xmlns:rdf="http://www.w3.org/1999/02/22-rdf-syntax-ns#"
   xmlns:svg="http://www.w3.org/2000/svg"
   xmlns="http://www.w3.org/2000/svg"
   xmlns:sodipodi="http://sodipodi.sourceforge.net/DTD/sodipodi-0.dtd"
   xmlns:inkscape="http://www.inkscape.org/namespaces/inkscape"
   inkscape:version="1.1-dev (1fceb22, 2019-12-30)"
   sodipodi:docname="edit-delete-symbolic.svg"
   viewBox="0 0 16 16"
   height="16"
   width="16"
   id="svg1"
   version="1.1">
  <style
     id="s0">
.success { fill:#009909; }
.warning { fill:#FF1990; }
.error { fill:#00AAFF; }
</style>
  <style
     id="s2">
@import '../../highlights.css';
</style>
  <metadata
     id="metadata21">
    <rdf:RDF>
      <cc:Work
         rdf:about="">
        <dc:format>image/svg+xml</dc:format>
        <dc:type
           rdf:resource="http://purl.org/dc/dcmitype/StillImage" />
      </cc:Work>
    </rdf:RDF>
  </metadata>
  <defs
     id="defs19">
    <inkscape:path-effect
       update_on_knot_move="true"
       attempt_force_join="true"
       miter_limit="4"
       offset="0.22568149"
       unit="mm"
       linejoin_type="miter"
       is_visible="true"
       id="path-effect31"
       effect="offset" />
  </defs>
  <sodipodi:namedview
     inkscape:document-rotation="0"
     inkscape:current-layer="svg1"
     inkscape:window-maximized="1"
     inkscape:window-y="-8"
     inkscape:window-x="54"
     inkscape:window-height="1177"
     inkscape:window-width="1858"
     inkscape:cy="8"
     inkscape:cx="7.6831683"
     inkscape:zoom="31.5625"
     showgrid="true"
     id="namedview"
     guidetolerance="10"
     gridtolerance="10"
     objecttolerance="10">
    <inkscape:grid
       id="grid"
       type="xygrid" />
  </sodipodi:namedview>
  <g
     inkscape:label="00384"
     id="edit-delete">
    <title
       id="title34114">edit-delete</title>
    <path
       style="opacity:0;fill:none"
       d="M 0,0 H 16 V 16 H 0 Z"
       id="gtk-remove"
       inkscape:connector-curvature="0" />
    <path
       id="path34118"
       style="opacity:1;fill-rule:evenodd"
       d="M 8,1.03125 C 4.14673,1.03125 1.03125,4.14672 1.03125,8 c 0,3.85327 3.11548,6.96875 6.96875,6.96875 3.85327,0 6.96875,-3.11548 6.96875,-6.96875 C 14.96875,4.14672 11.85327,1.03125 8,1.03125 Z M 5,11 h 1 c 0.01037,0 0.02079,0 0.03125,0 0.254951,-0.0112 0.50987,-0.12858 0.6875,-0.3125 L 8,9.40625 9.3125,10.6875 C 9.578125,10.918 9.759172,10.993 10,11 h 1 V 10 C 11,9.71353 10.9657,9.44935 10.75,9.25 l -1.28125,-1.28125 1.25,-1.25 C 10.90694,6.53058 11,6.2653 11,6 V 5 H 10 C 9.734699,5.00001 9.469414,5.0931 9.28125,5.28125 L 8,6.5625 6.71875,5.28125 C 6.530586,5.09306 6.26529,5 6,5 H 5 V 6 C 5,6.26529 5.09306,6.53058 5.28125,6.71875 L 6.5625,7.96875 5.28125,9.25 C 5.070508,9.44463 4.97809,9.71925 5,10 Z" />
  </g>
</svg>
