<?xml version="1.0" encoding="UTF-8" standalone="no"?>
<svg
   xmlns:dc="http://purl.org/dc/elements/1.1/"
   xmlns:cc="http://creativecommons.org/ns#"
   xmlns:rdf="http://www.w3.org/1999/02/22-rdf-syntax-ns#"
   xmlns:svg="http://www.w3.org/2000/svg"
   xmlns="http://www.w3.org/2000/svg"
   xmlns:sodipodi="http://sodipodi.sourceforge.net/DTD/sodipodi-0.dtd"
   xmlns:inkscape="http://www.inkscape.org/namespaces/inkscape"
   version="1.1"
   id="svg1"
   width="16"
   height="16"
   viewBox="0 0 16 16"
   sodipodi:docname="edit-paste-style-symbolic.svg"
   inkscape:version="1.1-dev (3d47766, 2020-01-22)">
  <metadata
     id="metadata7580">
    <rdf:RDF>
      <cc:Work
         rdf:about="">
        <dc:format>image/svg+xml</dc:format>
        <dc:type
           rdf:resource="http://purl.org/dc/dcmitype/StillImage" />
      </cc:Work>
    </rdf:RDF>
  </metadata>
  <defs
     id="defs7578" />
  <style
     id="s0">
.success { fill:#009909; }
.warning { fill:#FF1990; }
.error { fill:#00AAFF; }
</style>
  <style
     id="s2">
@import '../../highlights.css';
</style>
  <sodipodi:namedview
     showguides="false"
     objecttolerance="10"
     gridtolerance="10"
     guidetolerance="10"
     id="namedview"
     showgrid="true"
     inkscape:zoom="41.125"
     inkscape:cx="7.9635258"
     inkscape:cy="8"
     inkscape:window-width="1296"
     inkscape:window-height="890"
     inkscape:window-x="65"
     inkscape:window-y="-6"
     inkscape:window-maximized="1"
     inkscape:current-layer="svg1"
     inkscape:document-rotation="0">
    <inkscape:grid
       type="xygrid"
       id="grid" />
  </sodipodi:namedview>
  <g
     transform="matrix(1,0,0,1.000004,-45.070339,-567.36441)"
     inkscape:label="00011"
     id="edit-paste-style">
    <path
       inkscape:connector-curvature="0"
       id="rect27708"
       d="m 45.070339,567.41998 h 16 v 15.93773 h -16 z"
       style="opacity:0;fill:none" />
    <path
       class="error"
       sodipodi:nodetypes="cccccc"
       inkscape:connector-curvature="0"
       id="path27712"
       d="m 49.070339,572.3427 v 8.01939 h 6 l 2,-1.99999 v -6.0194 z"
       style="opacity:1" />
  </g>
  <path
     
     inkscape:connector-curvature="0"
     id="rect27710"
     d="m 5.53033,3.9e-5 h 4.93934 C 10.763473,3.9e-5 11,0.23656995 11,0.53037112 V 2.4580488 C 11,2.75185 10.763473,2.988381 10.46967,2.988381 H 5.53033 C 5.236527,2.988381 5,2.75185 5,2.4580488 V 0.53037112 C 5,0.23656995 5.236527,3.9e-5 5.53033,3.9e-5 Z"
     style="opacity:1;stroke-width:1"
     sodipodi:nodetypes="sssssssss" />
  <path
     
     inkscape:connector-curvature="0"
     id="path27714"
     d="m 2,1.000003 c -0.648732,0 -1,0.4447918 -1,0.999994 v 13.470924 c 0,0.473192 0.318397,0.529002 0.523411,0.529002 l 12.945339,8e-5 C 14.76255,16.000003 15,15.701322 15,15.408621 V 1.5875654 C 15,1.2949642 14.770364,1.000003 14.339844,1.000003 H 12 v 1.011574 h 1.400982 C 13.799743,2.011577 14,2.3905086 14,2.7107298 V 14.412517 c 0,0.292701 -0.23745,0.527602 -0.53125,0.529202 -0.249948,10e-4 -10.697256,0.0623 -10.945339,0.0623 C 2.161855,15.004019 2,14.709818 2,14.474917 V 2.5215691 C 2,2.1534176 2.2792,1.992567 2.460911,1.992567 H 4 V 0.99646299"
     style="opacity:1;stroke-width:1"
     sodipodi:nodetypes="csssssssccsssssssscc" />
</svg>
