<?xml version="1.0" encoding="UTF-8" standalone="no"?>
<svg
   xmlns:dc="http://purl.org/dc/elements/1.1/"
   xmlns:cc="http://creativecommons.org/ns#"
   xmlns:rdf="http://www.w3.org/1999/02/22-rdf-syntax-ns#"
   xmlns:svg="http://www.w3.org/2000/svg"
   xmlns="http://www.w3.org/2000/svg"
   xmlns:sodipodi="http://sodipodi.sourceforge.net/DTD/sodipodi-0.dtd"
   xmlns:inkscape="http://www.inkscape.org/namespaces/inkscape"
   inkscape:version="1.1-dev (6039630, 2019-12-20)"
   sodipodi:docname="edit-clone-symbolic.svg"
   viewBox="0 0 16 16"
   height="16"
   width="16"
   id="svg1"
   version="1.1">
  <metadata
     id="metadata3245">
    <rdf:RDF>
      <cc:Work
         rdf:about="">
        <dc:format>image/svg+xml</dc:format>
        <dc:type
           rdf:resource="http://purl.org/dc/dcmitype/StillImage" />
      </cc:Work>
    </rdf:RDF>
  </metadata>
  <defs
     id="defs3243" />
  <style
     id="s0">
.success { fill:#009909; }
.warning { fill:#FF1990; }
.error { fill:#00AAFF; }
</style>
  <style
     id="s2">
@import '../../highlights.css';
</style>
  <sodipodi:namedview
     inkscape:document-rotation="0"
     inkscape:current-layer="svg1"
     inkscape:window-maximized="1"
     inkscape:window-y="-6"
     inkscape:window-x="65"
     inkscape:window-height="890"
     inkscape:window-width="1296"
     inkscape:cy="8"
     inkscape:cx="8"
     inkscape:zoom="41.125"
     showgrid="true"
     id="namedview"
     guidetolerance="10"
     gridtolerance="10"
     objecttolerance="10">
    <inkscape:grid
       id="grid"
       type="xygrid" />
  </sodipodi:namedview>
  <g
     id="edit-clone"
     inkscape:label="00013"
     transform="translate(-45,-607.3622)">
    <path
       id="path45837"
       d="m 45,607.3622 v 16 h 16 v -16 z"
       style="opacity:0;fill:none"
       inkscape:connector-curvature="0" />
    <path
       inkscape:connector-curvature="0"
       id="path27786"
       d="m 50,612.3622 v 11 h 10 v -11 z m 4.46875,2 h 1 c 0.85142,0 1.53125,0.7099 1.53125,1.5625 v 1.4375 h 0.46875 c 0.27497,0 0.5,0.2493 0.5,0.5625 v 0.3125 3.0937 H 52 v -3.0937 -0.3125 c 0,-0.3132 0.22503,-0.5625 0.5,-0.5625 h 0.46875 v -1.4375 c 0,-0.8526 0.64858,-1.5625 1.5,-1.5625 z m 0,1.0312 C 54.21133,615.3934 54,615.5915 54,615.9247 v 1.4375 h 1.96875 v -1.4375 c 0,-0.3332 -0.24258,-0.5313 -0.5,-0.5313 z"
       style="opacity:1" />
    <path
       style="opacity:1"
       d="m 49,616.3622 v -1 -4 h 6 v 0 -4 H 45 v 9 z"
       id="path27788"
       inkscape:connector-curvature="0" />
  </g>
</svg>
