<?xml version="1.0" encoding="UTF-8" standalone="no"?>
<svg
   xmlns:dc="http://purl.org/dc/elements/1.1/"
   xmlns:cc="http://creativecommons.org/ns#"
   xmlns:rdf="http://www.w3.org/1999/02/22-rdf-syntax-ns#"
   xmlns:svg="http://www.w3.org/2000/svg"
   xmlns="http://www.w3.org/2000/svg"
   xmlns:sodipodi="http://sodipodi.sourceforge.net/DTD/sodipodi-0.dtd"
   xmlns:inkscape="http://www.inkscape.org/namespaces/inkscape"
   inkscape:version="1.1-dev (1fceb22, 2019-12-30)"
   sodipodi:docname="edit-select-none-symbolic.svg"
   viewBox="0 0 16 16"
   height="16"
   width="16"
   id="svg1"
   version="1.1">
  <metadata
     id="metadata13494">
    <rdf:RDF>
      <cc:Work
         rdf:about="">
        <dc:format>image/svg+xml</dc:format>
        <dc:type
           rdf:resource="http://purl.org/dc/dcmitype/StillImage" />
      </cc:Work>
    </rdf:RDF>
  </metadata>
  <defs
     id="defs13492" />
  <style
     id="s0">
.success { fill:#009909; }
.warning { fill:#FF1990; }
.error { fill:#00AAFF; }
</style>
  <style
     id="s2">
@import '../../highlights.css';
</style>
  <sodipodi:namedview
     inkscape:document-rotation="0"
     inkscape:current-layer="svg1"
     inkscape:window-maximized="1"
     inkscape:window-y="-8"
     inkscape:window-x="54"
     inkscape:window-height="1177"
     inkscape:window-width="1858"
     inkscape:cy="8"
     inkscape:cx="8"
     inkscape:zoom="60.1875"
     showgrid="true"
     id="namedview"
     guidetolerance="10"
     gridtolerance="10"
     objecttolerance="10">
    <inkscape:grid
       id="grid"
       type="xygrid" />
  </sodipodi:namedview>
  <g
     id="edit-select-none"
     inkscape:label="00019"
     transform="translate(-45,-727.36218)">
    <path
       style="opacity:0;fill:none"
       d="m 45,727.36218 h 16 v 16 H 45 Z"
       id="rect55607"
       inkscape:connector-curvature="0" />
    <path
       style="opacity:0.5"
       d="m 45,727.36218 h 1 v 1 h -1 z"
       id="rect55609"
       inkscape:connector-curvature="0" />
    <path
       style="opacity:0.5"
       d="m 47,727.36218 h 1 v 1 h -1 z"
       id="rect55611"
       inkscape:connector-curvature="0" />
    <path
       style="opacity:0.5"
       d="m 49,727.36218 h 1 v 1 h -1 z"
       id="rect55613"
       inkscape:connector-curvature="0" />
    <path
       style="opacity:0.5"
       d="m 51,727.36218 h 1 v 1 h -1 z"
       id="rect55615"
       inkscape:connector-curvature="0" />
    <path
       style="opacity:0.5"
       d="m 53,727.36218 h 1 v 1 h -1 z"
       id="rect55617"
       inkscape:connector-curvature="0" />
    <path
       style="opacity:0.5"
       d="m 55,727.36218 h 1 v 1 h -1 z"
       id="rect55619"
       inkscape:connector-curvature="0" />
    <path
       style="opacity:0.5"
       d="m 57,727.36218 h 1 v 1 h -1 z"
       id="rect55621"
       inkscape:connector-curvature="0" />
    <path
       style="opacity:0.5"
       d="m 59,727.36218 h 1 v 1 h -1 z"
       id="rect55623"
       inkscape:connector-curvature="0" />
    <path
       style="opacity:0.5"
       d="m 45,729.36218 h 1 v 1 h -1 z"
       id="rect55625"
       inkscape:connector-curvature="0" />
    <path
       style="opacity:0.5"
       d="m 45,731.36218 h 1 v 1 h -1 z"
       id="rect55627"
       inkscape:connector-curvature="0" />
    <path
       style="opacity:0.5"
       d="m 45,733.36218 h 1 v 1 h -1 z"
       id="rect55629"
       inkscape:connector-curvature="0" />
    <path
       style="opacity:0.5"
       d="m 45,735.36218 h 1 v 1 h -1 z"
       id="rect55631"
       inkscape:connector-curvature="0" />
    <path
       style="opacity:0.5"
       d="m 45,737.36218 h 1 v 1 h -1 z"
       id="rect55633"
       inkscape:connector-curvature="0" />
    <path
       style="opacity:0.5"
       d="m 45,739.36218 h 1 v 1 h -1 z"
       id="rect55635"
       inkscape:connector-curvature="0" />
    <path
       style="opacity:0.5"
       d="m 45,741.36218 h 1 v 1 h -1 z"
       id="rect55637"
       inkscape:connector-curvature="0" />
    <path
       style="opacity:0.5"
       d="m 59,729.36218 h 1 v 1 h -1 z"
       id="rect55639"
       inkscape:connector-curvature="0" />
    <path
       style="opacity:0.5"
       d="m 59,731.36218 h 1 v 1 h -1 z"
       id="rect55641"
       inkscape:connector-curvature="0" />
    <path
       style="opacity:0.5"
       d="m 59,733.36218 h 1 v 1 h -1 z"
       id="rect55643"
       inkscape:connector-curvature="0" />
    <path
       style="opacity:0.5"
       d="m 59,735.36218 h 1 v 1 h -1 z"
       id="rect55645"
       inkscape:connector-curvature="0" />
    <path
       style="opacity:0.5"
       d="m 59,737.36218 h 1 v 1 h -1 z"
       id="rect55647"
       inkscape:connector-curvature="0" />
    <path
       style="opacity:0.5"
       d="m 59,739.36218 h 1 v 1 h -1 z"
       id="rect55649"
       inkscape:connector-curvature="0" />
    <path
       style="opacity:0.5"
       d="m 59,741.36218 h 1 v 1 h -1 z"
       id="rect55651"
       inkscape:connector-curvature="0" />
    <path
       style="opacity:0.5"
       d="m 47,741.36218 h 1 v 1 h -1 z"
       id="rect55653"
       inkscape:connector-curvature="0" />
    <path
       style="opacity:0.5"
       d="m 49,741.36218 h 1 v 1 h -1 z"
       id="rect55655"
       inkscape:connector-curvature="0" />
    <path
       style="opacity:0.5"
       d="m 51,741.36218 h 1 v 1 h -1 z"
       id="rect55657"
       inkscape:connector-curvature="0" />
    <path
       style="opacity:0.5"
       d="m 53,741.36218 h 1 v 1 h -1 z"
       id="rect55659"
       inkscape:connector-curvature="0" />
    <path
       style="opacity:0.5"
       d="m 55,741.36218 h 1 v 1 h -1 z"
       id="rect55661"
       inkscape:connector-curvature="0" />
    <path
       style="opacity:0.5"
       d="m 57,741.36218 h 1 v 1 h -1 z"
       id="rect55663"
       inkscape:connector-curvature="0" />
    <path
       style="opacity:0.5"
       d="m 47,735.3622 v 5 h 8 v -2.5 c -0.16677,0.019 -0.32822,0.062 -0.5,0.062 -1.77655,0 -3.29962,-1.0468 -4.03125,-2.5625 z"
       id="path55665"
       inkscape:connector-curvature="0" />
    <path
       style="opacity:0.5"
       d="m 57.999981,733.36218 a 3.5,3.500001 0 0 1 -3.5,3.5 3.5,3.500001 0 0 1 -3.5,-3.5 3.5,3.500001 0 0 1 3.5,-3.5 3.5,3.500001 0 0 1 3.5,3.5 z"
       id="path55667"
       inkscape:connector-curvature="0" />
  </g>
</svg>
