<?xml version="1.0" encoding="UTF-8" standalone="no"?>
<svg
   xmlns:dc="http://purl.org/dc/elements/1.1/"
   xmlns:cc="http://creativecommons.org/ns#"
   xmlns:rdf="http://www.w3.org/1999/02/22-rdf-syntax-ns#"
   xmlns:svg="http://www.w3.org/2000/svg"
   xmlns="http://www.w3.org/2000/svg"
   xmlns:sodipodi="http://sodipodi.sourceforge.net/DTD/sodipodi-0.dtd"
   xmlns:inkscape="http://www.inkscape.org/namespaces/inkscape"
   inkscape:version="1.1-dev (6039630, 2019-12-20)"
   sodipodi:docname="edit-select-all-symbolic.svg"
   viewBox="0 0 16 16"
   height="16"
   width="16"
   id="svg1"
   version="1.1">
  <metadata
     id="metadata8336">
    <rdf:RDF>
      <cc:Work
         rdf:about="">
        <dc:format>image/svg+xml</dc:format>
        <dc:type
           rdf:resource="http://purl.org/dc/dcmitype/StillImage" />
      </cc:Work>
    </rdf:RDF>
  </metadata>
  <defs
     id="defs8334" />
  <style
     id="s0">
.success { fill:#009909; }
.warning { fill:#FF1990; }
.error { fill:#00AAFF; }
</style>
  <style
     id="s2">
@import '../../highlights.css';
</style>
  <sodipodi:namedview
     inkscape:document-rotation="0"
     inkscape:current-layer="edit-select-all"
     inkscape:window-maximized="1"
     inkscape:window-y="-6"
     inkscape:window-x="65"
     inkscape:window-height="890"
     inkscape:window-width="1296"
     inkscape:cy="8"
     inkscape:cx="8"
     inkscape:zoom="41.125"
     showgrid="true"
     id="namedview"
     guidetolerance="10"
     gridtolerance="10"
     objecttolerance="10">
    <inkscape:grid
       id="grid"
       type="xygrid" />
  </sodipodi:namedview>
  <g
     id="edit-select-all"
     inkscape:label="00018"
     transform="translate(-45,-707.36218)">
    <path
       
       style="opacity:0"
       d="m 45,707.36218 h 16 v 16 H 45 Z"
       id="rect55443"
       inkscape:connector-curvature="0" />
    <path
       
       style="opacity:1"
       d="m 45,707.36218 h 1 v 1 h -1 z"
       id="rect55447"
       inkscape:connector-curvature="0" />
    <path
       
       style="opacity:1"
       d="m 47,707.36218 h 1 v 1 h -1 z"
       id="rect55449"
       inkscape:connector-curvature="0" />
    <path
       
       style="opacity:1"
       d="m 49,707.36218 h 1 v 1 h -1 z"
       id="rect55451"
       inkscape:connector-curvature="0" />
    <path
       
       style="opacity:1"
       d="m 51,707.36218 h 1 v 1 h -1 z"
       id="rect55453"
       inkscape:connector-curvature="0" />
    <path
       
       style="opacity:1"
       d="m 53,707.36218 h 1 v 1 h -1 z"
       id="rect55455"
       inkscape:connector-curvature="0" />
    <path
       
       style="opacity:1"
       d="m 55,707.36218 h 1 v 1 h -1 z"
       id="rect55457"
       inkscape:connector-curvature="0" />
    <path
       
       style="opacity:1"
       d="m 57,707.36218 h 1 v 1 h -1 z"
       id="rect55459"
       inkscape:connector-curvature="0" />
    <path
       
       style="opacity:1"
       d="m 59,707.36218 h 1 v 1 h -1 z"
       id="rect55461"
       inkscape:connector-curvature="0" />
    <path
       
       style="opacity:1"
       d="m 45,709.36218 h 1 v 1 h -1 z"
       id="rect55463"
       inkscape:connector-curvature="0" />
    <path
       
       style="opacity:1"
       d="m 45,711.36218 h 1 v 1 h -1 z"
       id="rect55465"
       inkscape:connector-curvature="0" />
    <path
       
       style="opacity:1"
       d="m 45,713.36218 h 1 v 1 h -1 z"
       id="rect55467"
       inkscape:connector-curvature="0" />
    <path
       
       style="opacity:1"
       d="m 45,715.36218 h 1 v 1 h -1 z"
       id="rect55469"
       inkscape:connector-curvature="0" />
    <path
       
       style="opacity:1"
       d="m 45,717.36218 h 1 v 1 h -1 z"
       id="rect55471"
       inkscape:connector-curvature="0" />
    <path
       
       style="opacity:1"
       d="m 45,719.36218 h 1 v 1 h -1 z"
       id="rect55473"
       inkscape:connector-curvature="0" />
    <path
       
       style="opacity:1"
       d="m 45,721.36218 h 1 v 1 h -1 z"
       id="rect55475"
       inkscape:connector-curvature="0" />
    <path
       
       style="opacity:1"
       d="m 59,709.36218 h 1 v 1 h -1 z"
       id="rect55481"
       inkscape:connector-curvature="0" />
    <path
       
       style="opacity:1"
       d="m 59,711.36218 h 1 v 1 h -1 z"
       id="rect55483"
       inkscape:connector-curvature="0" />
    <path
       
       style="opacity:1"
       d="m 59,713.36218 h 1 v 1 h -1 z"
       id="rect55485"
       inkscape:connector-curvature="0" />
    <path
       
       style="opacity:1"
       d="m 59,715.36218 h 1 v 1 h -1 z"
       id="rect55487"
       inkscape:connector-curvature="0" />
    <path
       
       style="opacity:1"
       d="m 59,717.36218 h 1 v 1 h -1 z"
       id="rect55489"
       inkscape:connector-curvature="0" />
    <path
       
       style="opacity:1"
       d="m 59,719.36218 h 1 v 1 h -1 z"
       id="rect55491"
       inkscape:connector-curvature="0" />
    <path
       
       style="opacity:1"
       d="m 59,721.36218 h 1 v 1 h -1 z"
       id="rect55493"
       inkscape:connector-curvature="0" />
    <path
       
       style="opacity:1"
       d="m 47,721.36218 h 1 v 1 h -1 z"
       id="rect55495"
       inkscape:connector-curvature="0" />
    <path
       
       style="opacity:1"
       d="m 49,721.36218 h 1 v 1 h -1 z"
       id="rect55497"
       inkscape:connector-curvature="0" />
    <path
       
       style="opacity:1"
       d="m 51,721.36218 h 1 v 1 h -1 z"
       id="rect55499"
       inkscape:connector-curvature="0" />
    <path
       
       style="opacity:1"
       d="m 53,721.36218 h 1 v 1 h -1 z"
       id="rect55501"
       inkscape:connector-curvature="0" />
    <path
       
       style="opacity:1"
       d="m 55,721.36218 h 1 v 1 h -1 z"
       id="rect55503"
       inkscape:connector-curvature="0" />
    <path
       
       style="opacity:1"
       d="m 57,721.36218 h 1 v 1 h -1 z"
       id="rect55505"
       inkscape:connector-curvature="0" />
    <path
       id="rect55539"
       transform="translate(0,512.3622)"
       d="m 47,203 v 5 h 8 v -2.5 c -0.16677,0.019 -0.32822,0.0625 -0.5,0.0625 -1.77655,0 -3.29962,-1.0468 -4.03125,-2.5625 z"
       style="opacity:1"
       inkscape:connector-curvature="0" />
    <path
       transform="matrix(1,0,0,1.166667,0.9999829,478.8622)"
       style="opacity:1"
       d="m 57,201 a 3.5,3 0 0 1 -3.5,3 3.5,3 0 0 1 -3.5,-3 3.5,3 0 0 1 3.5,-3 3.5,3 0 0 1 3.5,3 z"
       id="path55541"
       inkscape:connector-curvature="0" />
  </g>
</svg>
