<?xml version="1.0" encoding="UTF-8" standalone="no"?>
<svg
   xmlns:dc="http://purl.org/dc/elements/1.1/"
   xmlns:cc="http://creativecommons.org/ns#"
   xmlns:rdf="http://www.w3.org/1999/02/22-rdf-syntax-ns#"
   xmlns:svg="http://www.w3.org/2000/svg"
   xmlns="http://www.w3.org/2000/svg"
   xmlns:sodipodi="http://sodipodi.sourceforge.net/DTD/sodipodi-0.dtd"
   xmlns:inkscape="http://www.inkscape.org/namespaces/inkscape"
   inkscape:version="1.1-dev (6039630, 2019-12-20)"
   sodipodi:docname="edit-undo-history-symbolic.svg"
   viewBox="0 0 16 16"
   height="16"
   width="16"
   id="svg1"
   version="1.1">
  <metadata
     id="metadata10071">
    <rdf:RDF>
      <cc:Work
         rdf:about="">
        <dc:format>image/svg+xml</dc:format>
        <dc:type
           rdf:resource="http://purl.org/dc/dcmitype/StillImage" />
      </cc:Work>
    </rdf:RDF>
  </metadata>
  <defs
     id="defs10069" />
  <style
     id="s0">
.success { fill:#009909; }
.warning { fill:#FF1990; }
.error { fill:#00AAFF; }
</style>
  <style
     id="s2">
@import '../../highlights.css';
</style>
  <sodipodi:namedview
     inkscape:document-rotation="0"
     inkscape:current-layer="svg1"
     inkscape:window-maximized="1"
     inkscape:window-y="-6"
     inkscape:window-x="65"
     inkscape:window-height="890"
     inkscape:window-width="1296"
     inkscape:cy="8"
     inkscape:cx="8"
     inkscape:zoom="41.125"
     showgrid="true"
     id="namedview"
     guidetolerance="10"
     gridtolerance="10"
     objecttolerance="10">
    <inkscape:grid
       id="grid"
       type="xygrid" />
  </sodipodi:namedview>
  <g
     id="edit-undo-history"
     inkscape:label="00009"
     transform="matrix(1,0,0,0.999999,-45,-527.36152)">
    <path
       style="opacity:0;fill:none"
       d="m 45,527.36218 h 16 v 16 H 45 Z"
       id="rect16161"
       inkscape:connector-curvature="0" />
    <path
       id="path2640"
       transform="translate(0,512.3622)"
       d="M 49,20 45,25.46875 49,30 v -3 h 4 v 4 h 4 V 25.90625 C 56.67716,25.95999 56.33809,26 56,26 53.77918,26 51.84994,24.79337 50.8125,23 H 49 Z"
       style="opacity:1"
       inkscape:connector-curvature="0" />
    <path
       class="error"
       style="opacity:1"
       d="m 56,527.3622 c -2.76142,0 -5,2.2386 -5,5 0,2.7614 2.23858,5 5,5 2.76142,0 5,-2.2386 5,-5 0,-2.7614 -2.23858,-5 -5,-5 z m 1,1.9687 v 3.0313 1 h -1 -3 v -1 h 3 v -3 z"
       id="path16169"
       inkscape:connector-curvature="0" />
  </g>
</svg>
