<?xml version="1.0" encoding="UTF-8" standalone="no"?>
<svg
   xmlns:dc="http://purl.org/dc/elements/1.1/"
   xmlns:cc="http://creativecommons.org/ns#"
   xmlns:rdf="http://www.w3.org/1999/02/22-rdf-syntax-ns#"
   xmlns:svg="http://www.w3.org/2000/svg"
   xmlns="http://www.w3.org/2000/svg"
   xmlns:sodipodi="http://sodipodi.sourceforge.net/DTD/sodipodi-0.dtd"
   xmlns:inkscape="http://www.inkscape.org/namespaces/inkscape"
   version="1.1"
   id="svg1"
   width="16"
   height="16"
   viewBox="0 0 16 16"
   sodipodi:docname="edit-paste-in-place-symbolic.svg"
   inkscape:version="1.1-dev (3d47766, 2020-01-22)">
  <metadata
     id="metadata7004">
    <rdf:RDF>
      <cc:Work
         rdf:about="">
        <dc:format>image/svg+xml</dc:format>
        <dc:type
           rdf:resource="http://purl.org/dc/dcmitype/StillImage" />
      </cc:Work>
    </rdf:RDF>
  </metadata>
  <defs
     id="defs7002" />
  <style
     id="s0">
.success { fill:#009909; }
.warning { fill:#FF1990; }
.error { fill:#00AAFF; }
</style>
  <style
     id="s2">
@import '../../highlights.css';
</style>
  <sodipodi:namedview
     objecttolerance="10"
     gridtolerance="10"
     guidetolerance="10"
     id="namedview"
     showgrid="true"
     inkscape:zoom="90.509668"
     inkscape:cx="9.2831317"
     inkscape:cy="9.5340148"
     inkscape:window-width="1296"
     inkscape:window-height="890"
     inkscape:window-x="65"
     inkscape:window-y="-6"
     inkscape:window-maximized="1"
     inkscape:current-layer="svg1"
     inkscape:document-rotation="0">
    <inkscape:grid
       type="xygrid"
       id="grid" />
  </sodipodi:namedview>
  <g
     transform="matrix(1,0,0,0.999997,-45.070339,-547.42325)"
     inkscape:label="00010"
     id="edit-paste-in-place">
    <path
       inkscape:connector-curvature="0"
       id="rect14038"
       d="m 45.070339,547.48248 h 16 v 15.93773 h -16 z"
       style="opacity:0;fill:none" />
    <path
       sodipodi:nodetypes="cccccccccccccc"
       style="opacity:1"
       d="m 49.070339,552.42491 v 8.00002 h 6 l 2,-2 v -6.00002 z m 3,1 h 2 v 3.00001 h 2 l -3,3.00001 -3,-3.00001 h 2 z"
       id="path6973"
       inkscape:connector-curvature="0" />
  </g>
  <path
     inkscape:connector-curvature="0"
     id="path27714"
     d="m 2,1.000003 c -0.648731,0.001 -1,0.4447918 -1,0.999994 v 13.470924 c 0,0.473192 0.318397,0.529002 0.523411,0.529002 l 12.945339,8e-5 C 14.76255,16.000003 15,15.701322 15,15.408621 V 1.5875654 C 15,1.2949642 14.770364,1.000003 14.339844,1.000003 H 12 v 1.0115741 h 1.400982 C 13.799743,2.0115771 14,2.3905086 14,2.7107299 V 14.412517 c 0,0.292701 -0.23745,0.527602 -0.53125,0.529202 -0.249948,10e-4 -10.697256,0.0623 -10.945339,0.0623 C 2.161855,15.004019 2,14.709818 2,14.474917 V 2.5215691 C 2,2.1534176 2.2792,1.992567 2.460911,1.992567 H 4 V 0.996463 Z"
     style="opacity:1;fill:#000000;stroke-width:1"
     sodipodi:nodetypes="ssssssssccssssssssccs" />
  <path
     inkscape:connector-curvature="0"
     id="rect27710"
     d="m 5.53033,3.94e-5 h 4.93934 C 10.763473,3.94e-5 11,0.23657035 11,0.53037152 V 2.4580492 c 0,0.2938012 -0.236527,0.5303322 -0.53033,0.5303322 H 5.53033 C 5.236527,2.9883814 5,2.7518504 5,2.4580492 V 0.53037152 C 5,0.23657035 5.236527,3.94e-5 5.53033,3.94e-5 Z"
     style="opacity:1;fill:#000000;stroke-width:1"
     sodipodi:nodetypes="sssssssss" />
</svg>
