<?xml version="1.0" encoding="UTF-8" standalone="no"?>
<svg
   xmlns:dc="http://purl.org/dc/elements/1.1/"
   xmlns:cc="http://creativecommons.org/ns#"
   xmlns:rdf="http://www.w3.org/1999/02/22-rdf-syntax-ns#"
   xmlns:svg="http://www.w3.org/2000/svg"
   xmlns="http://www.w3.org/2000/svg"
   xmlns:sodipodi="http://sodipodi.sourceforge.net/DTD/sodipodi-0.dtd"
   xmlns:inkscape="http://www.inkscape.org/namespaces/inkscape"
   inkscape:version="1.1-dev (6039630, 2019-12-20)"
   sodipodi:docname="edit-cut-symbolic.svg"
   viewBox="0 0 16 16"
   height="16"
   width="16"
   id="svg1"
   version="1.1">
  <metadata
     id="metadata1005">
    <rdf:RDF>
      <cc:Work
         rdf:about="">
        <dc:format>image/svg+xml</dc:format>
        <dc:type
           rdf:resource="http://purl.org/dc/dcmitype/StillImage" />
      </cc:Work>
    </rdf:RDF>
  </metadata>
  <defs
     id="defs1003" />
  <style
     id="s0">
.success { fill:#009909; }
.warning { fill:#FF1990; }
.error { fill:#00AAFF; }
</style>
  <style
     id="s2">
@import '../../highlights.css';
</style>
  <sodipodi:namedview
     inkscape:document-rotation="0"
     inkscape:current-layer="edit-cut"
     inkscape:window-maximized="1"
     inkscape:window-y="-6"
     inkscape:window-x="65"
     inkscape:window-height="890"
     inkscape:window-width="1296"
     inkscape:cy="8"
     inkscape:cx="8"
     inkscape:zoom="41.125"
     showgrid="true"
     id="namedview"
     guidetolerance="10"
     gridtolerance="10"
     objecttolerance="10">
    <inkscape:grid
       id="grid"
       type="xygrid" />
  </sodipodi:namedview>
  <g
     inkscape:label="00377"
     id="edit-cut"
     transform="matrix(1,0,0,0.999994,-441,-1132.3549)">
    <path
       style="opacity:0;fill:none"
       d="m 441,1132.3621 h 16 v 16 h -16 z"
       id="gtk-edit"
       inkscape:connector-curvature="0" />
    <path
       id="path12477"
       d="m 444.3591,1132.362 c -1.0384,0.472 -1.3774,1.498 -0.7778,2.315 l 4.3289,6.201 -1.7101,2.016 1.3848,1.776 1.5766,-2.116 1.5461,2.116 1.3721,-1.701 -1.6668,-2.091 4.3289,-6.201 c 0.5995,-0.817 0.2606,-1.843 -0.7779,-2.315 l -4.8024,6.813 z"
       style="opacity:1"
       inkscape:connector-curvature="0" />
    <path
       inkscape:connector-curvature="0"
       id="path61250"
       d="m 453.5,1141.362 c -1.933,0 -3.5,1.567 -3.5,3.5 0,1.933 1.567,3.5 3.5,3.5 1.933,0 3.5,-1.567 3.5,-3.5 0,-1.933 -1.567,-3.5 -3.5,-3.5 z m 0,2 c 0.8284,0 1.5,0.672 1.5,1.5 0,0.829 -0.6716,1.5 -1.5,1.5 -0.8284,0 -1.5,-0.671 -1.5,-1.5 0,-0.828 0.6716,-1.5 1.5,-1.5 z"
       style="opacity:1" />
    <path
       inkscape:connector-curvature="0"
       style="opacity:1"
       d="m 444.5,1141.362 c -1.933,0 -3.5,1.567 -3.5,3.5 0,1.933 1.567,3.5 3.5,3.5 1.933,0 3.5,-1.567 3.5,-3.5 0,-1.933 -1.567,-3.5 -3.5,-3.5 z m 0,2 c 0.8284,0 1.5,0.672 1.5,1.5 0,0.829 -0.6716,1.5 -1.5,1.5 -0.8284,0 -1.5,-0.671 -1.5,-1.5 0,-0.828 0.6716,-1.5 1.5,-1.5 z"
       id="path61253" />
  </g>
</svg>
