<?xml version="1.0" encoding="UTF-8" standalone="no"?>
<svg
   xmlns:dc="http://purl.org/dc/elements/1.1/"
   xmlns:cc="http://creativecommons.org/ns#"
   xmlns:rdf="http://www.w3.org/1999/02/22-rdf-syntax-ns#"
   xmlns:svg="http://www.w3.org/2000/svg"
   xmlns="http://www.w3.org/2000/svg"
   xmlns:sodipodi="http://sodipodi.sourceforge.net/DTD/sodipodi-0.dtd"
   xmlns:inkscape="http://www.inkscape.org/namespaces/inkscape"
   version="1.1"
   id="svg1"
   width="16"
   height="16"
   viewBox="0 0 16 16"
   sodipodi:docname="ellipse-5pts-symbolic.svg"
   inkscape:version="1.1-dev (1fceb22ce1, 2019-12-30, custom)">
  <style
     id="s0">
.success { fill:#009909; }
.warning { fill:#FF1990; }
.error { fill:#00AAFF; }
</style>
  <style
     id="s2">
@import '../../highlights.css';
</style>
  <defs
     id="defs913">
    <inkscape:path-effect
       draw_ori_path="false"
       rot_axes="0"
       draw_perspective_axes="false"
       gen_perspective_frame="false"
       draw_axes="false"
       gen_isometric_frame="false"
       slice_arc="false"
       arc_other="false"
       gen_arc="false"
       method="steiner_ellipse"
       is_visible="true"
       id="path-effect1415"
       effect="pts2ellipse" />
  </defs>
  <sodipodi:namedview
     objecttolerance="10"
     gridtolerance="10"
     guidetolerance="10"
     id="namedview"
     showgrid="true"
     inkscape:zoom="54.332374"
     inkscape:cx="11.664649"
     inkscape:cy="6.8813643"
     inkscape:window-x="0"
     inkscape:window-y="27"
     inkscape:document-rotation="0"
     inkscape:window-width="2560"
     inkscape:window-height="1376"
     inkscape:window-maximized="1"
     inkscape:current-layer="layercompo"
     inkscape:snap-global="false">
    <inkscape:grid
       type="xygrid"
       id="grid" />
  </sodipodi:namedview>
  <metadata
     id="metadata1906">
    <rdf:RDF>
      <cc:Work
         rdf:about="">
        <dc:format>image/svg+xml</dc:format>
        <dc:type
           rdf:resource="http://purl.org/dc/dcmitype/StillImage" />
        <cc:license
           rdf:resource="http://creativecommons.org/publicdomain/zero/1.0/" />
        <dc:title></dc:title>
        <dc:date>13 Jan 2019</dc:date>
        <dc:creator>
          <cc:Agent>
            <dc:title>Ramón Miranda</dc:title>
          </cc:Agent>
        </dc:creator>
        <dc:rights>
          <cc:Agent>
            <dc:title>see the license tab</dc:title>
          </cc:Agent>
        </dc:rights>
        <dc:subject>
          <rdf:Bag>
            <rdf:li>icon ui</rdf:li>
          </rdf:Bag>
        </dc:subject>
        <dc:description>This is a contribution with Inkscape Project from
Ramon Miranda www.ramonmiranda.com (design and SVG file)
Jabiertxo (SVG stuff to integrate them in UI)</dc:description>
        <dc:publisher>
          <cc:Agent>
            <dc:title />
          </cc:Agent>
        </dc:publisher>
        <dc:identifier />
        <dc:source />
        <dc:relation />
        <dc:language>-</dc:language>
        <dc:coverage />
        <dc:contributor>
          <cc:Agent>
            <dc:title>Ramon Miranda
Jabier Arraiza</dc:title>
          </cc:Agent>
        </dc:contributor>
      </cc:Work>
      <cc:License
         rdf:about="http://creativecommons.org/publicdomain/zero/1.0/">
        <cc:permits
           rdf:resource="http://creativecommons.org/ns#Reproduction" />
        <cc:permits
           rdf:resource="http://creativecommons.org/ns#Distribution" />
        <cc:permits
           rdf:resource="http://creativecommons.org/ns#DerivativeWorks" />
      </cc:License>
    </rdf:RDF>
  </metadata>
  <g
     inkscape:groupmode="layer"
     id="layercompo"
     inkscape:label="ellipse-5pts">
    <path
       id="rect22048"
       d="M 0,0 H 16 V 16 H 0 Z"
       style="opacity:0;fill:none" />
    <path
       d="M 4.9648438,1.3359375 A 1.5,1.5 0 0 0 3.515625,2.4492188 C 2.9190471,2.5678906 2.4131187,2.8344305 2.0546875,3.2851562 1.3274199,4.1996924 1.4721129,5.5348008 2.1171875,6.8964844 a 1.5,1.5 0 0 0 -0.4121094,1.0332031 1.5,1.5 0 0 0 1.5,1.5 1.5,1.5 0 0 0 0.5644531,-0.1113281 c 0.54716,0.6197651 1.1688755,1.2295296 1.8847657,1.7988286 0.4886656,0.388602 0.9865705,0.723526 1.484375,1.03125 a 1.5,1.5 0 0 0 -0.029297,0.294921 1.5,1.5 0 0 0 1.5,1.5 1.5,1.5 0 0 0 1.1640625,-0.55664 c 0.2399086,0.07688 0.4837506,0.16373 0.7148436,0.216797 1.503121,0.345167 2.869171,0.188617 3.609375,-0.742188 0.487896,-0.613526 0.580852,-1.417749 0.398438,-2.291016 a 1.5,1.5 0 0 0 0.769531,-1.3105464 1.5,1.5 0 0 0 -1.5,-1.5 1.5,1.5 0 0 0 -0.556641,0.109375 C 12.684274,7.1260843 12.020742,6.3875896 11.242188,5.6835938 a 1.5,1.5 0 0 0 0.24414,-0.8183594 1.5,1.5 0 0 0 -1.4999999,-1.5 1.5,1.5 0 0 0 -1.1464843,0.5351562 C 8.0312228,3.4155971 7.2319678,3.0397874 6.4628906,2.7851562 A 1.5,1.5 0 0 0 4.9648438,1.3359375 Z m -1.4335938,1.9375 a 1.5,1.5 0 0 0 1.4335938,1.0625 1.5,1.5 0 0 0 1.3105468,-0.7714844 c 0.7096217,0.2420197 1.4633482,0.6006385 2.2304688,1.0664063 a 1.5,1.5 0 0 0 -0.019531,0.234375 1.5,1.5 0 0 0 1.5,1.5 1.5,1.5 0 0 0 0.6503906,-0.1484375 c 0.774926,0.6934154 1.429455,1.4202727 1.933593,2.1367187 a 1.5,1.5 0 0 0 -0.304687,0.90625 1.5,1.5 0 0 0 1.433594,1.4980464 c 0.132414,0.674422 0.06544,1.237769 -0.228516,1.607422 -0.45887,0.577027 -1.455934,0.768704 -2.804687,0.458985 -0.181584,-0.0417 -0.379512,-0.114453 -0.570313,-0.173828 -1.83e-4,-5.7e-5 1.83e-4,-0.0019 0,-0.002 a 1.5,1.5 0 0 0 0.01367,-0.205079 1.5,1.5 0 0 0 -1.4999997,-1.5 1.5,1.5 0 0 0 -1.1074219,0.490235 C 7.0503361,11.151778 6.5994809,10.844259 6.1542969,10.490234 5.4895555,9.9616113 4.9132036,9.3977331 4.40625,8.828125 a 1.5,1.5 0 0 0 0.2988281,-0.8984375 1.5,1.5 0 0 0 -1.5,-1.5 1.5,1.5 0 0 0 -0.3945312,0.052734 C 2.2703273,5.3032395 2.2384674,4.3380357 2.6796875,3.7832031 2.8719099,3.5414842 3.1639915,3.3716359 3.53125,3.2734375 Z"
       style="opacity:1"
       id="path2099" />
    <path
       class="error"
       d="M 3.9755303,7.9786682 A 0.80062765,0.80062765 0 0 1 3.1749027,8.7792959 0.80062765,0.80062765 0 0 1 2.374275,7.9786682 0.80062765,0.80062765 0 0 1 3.1749027,7.1780406 0.80062765,0.80062765 0 0 1 3.9755303,7.9786682 Z M 9.441884,12.506355 A 0.80062765,0.80062765 0 0 1 8.6412563,13.306983 0.80062765,0.80062765 0 0 1 7.8406287,12.506355 0.80062765,0.80062765 0 0 1 8.6412563,11.705728 0.80062765,0.80062765 0 0 1 9.441884,12.506355 M 14.632159,9.2854395 A 0.80062765,0.80062765 0 0 1 13.831532,10.086067 0.80062765,0.80062765 0 0 1 13.030904,9.2854395 0.80062765,0.80062765 0 0 1 13.831532,8.4848118 0.80062765,0.80062765 0 0 1 14.632159,9.2854395 M 10.822277,4.9049945 A 0.80062765,0.80062765 0 0 1 10.021649,5.7056221 0.80062765,0.80062765 0 0 1 9.2210217,4.9049945 0.80062765,0.80062765 0 0 1 10.021649,4.1043668 0.80062765,0.80062765 0 0 1 10.822277,4.9049945 M 5.7792429,2.8436084 A 0.80062765,0.80062765 0 0 1 4.9786153,3.644236 0.80062765,0.80062765 0 0 1 4.1779876,2.8436084 0.80062765,0.80062765 0 0 1 4.9786153,2.0429807 0.80062765,0.80062765 0 0 1 5.7792429,2.8436084"
       style=""
       id="path2969" />
  </g>
</svg>
