<?xml version="1.0" encoding="UTF-8" standalone="no"?>
<svg
   xmlns:dc="http://purl.org/dc/elements/1.1/"
   xmlns:cc="http://creativecommons.org/ns#"
   xmlns:rdf="http://www.w3.org/1999/02/22-rdf-syntax-ns#"
   xmlns:svg="http://www.w3.org/2000/svg"
   xmlns="http://www.w3.org/2000/svg"
   xmlns:sodipodi="http://sodipodi.sourceforge.net/DTD/sodipodi-0.dtd"
   xmlns:inkscape="http://www.inkscape.org/namespaces/inkscape"
   inkscape:version="1.1-dev (1fceb22, 2019-12-30)"
   sodipodi:docname="exchange-positions-symbolic.svg"
   viewBox="0 0 16 16"
   height="16"
   width="16"
   id="svg1"
   version="1.1">
  <metadata
     id="metadata17975">
    <rdf:RDF>
      <cc:Work
         rdf:about="">
        <dc:format>image/svg+xml</dc:format>
        <dc:type
           rdf:resource="http://purl.org/dc/dcmitype/StillImage" />
      </cc:Work>
    </rdf:RDF>
  </metadata>
  <defs
     id="defs17973" />
  <style
     id="s0">
.success { fill:#009909; }
.warning { fill:#FF1990; }
.error { fill:#00AAFF; }
</style>
  <style
     id="s2">
@import '../../highlights.css';
</style>
  <sodipodi:namedview
     inkscape:document-rotation="0"
     inkscape:current-layer="svg1"
     inkscape:window-maximized="1"
     inkscape:window-y="-8"
     inkscape:window-x="54"
     inkscape:window-height="1177"
     inkscape:window-width="1858"
     inkscape:cy="8"
     inkscape:cx="8"
     inkscape:zoom="60.1875"
     showgrid="true"
     id="namedview"
     guidetolerance="10"
     gridtolerance="10"
     objecttolerance="10">
    <inkscape:grid
       id="grid"
       type="xygrid" />
  </sodipodi:namedview>
  <g
     inkscape:label="00360"
     id="exchange-positions"
     transform="scale(0.666667)">
    <title
       id="title40855">exchange-positions</title>
    <path
       style="opacity:0;fill:none"
       d="M 0,0 H 24 V 24 H 0 Z"
       id="rect40857"
       inkscape:connector-curvature="0" />
    <path
       class="error"
       sodipodi:nodetypes="ccccccccc"
       style="opacity:1"
       inkscape:connector-curvature="0"
       id="path40859"
       d="m 3.0002235,15.00033 0.034875,8.015621 1.6171867,-1.828124 0.878962,2.812498 1.9687491,-0.914062 -1.5117743,-2.496148 2.2852114,0.03487 -5.2734349,-5.624997 z" />
    <path
       style="opacity:1"
       d="m 1244,314 v 1 h 3 a 1,1 0 0 1 1,1 v 1 h -2 l 2.5,3 2.5,-3 h -2 v -1 a 2,2 0 0 0 -2,-2 z"
       transform="translate(-1230,-311)"
       id="path40863"
       inkscape:connector-curvature="0" />
    <path
       style="opacity:1"
       d="m 5,0 h 7 c 0.554,0 1,0.446 1,1 v 7 c 0,0.554 -0.446,1 -1,1 H 5 C 4.446,9 4,8.554 4,8 V 1 C 4,0.446 4.446,0 5,0 Z"
       id="rect40865"
       inkscape:connector-curvature="0" />
    <path
       style="opacity:1"
       d="m 15,10 h 7 c 0.554,0 1,0.446 1,1 v 7 c 0,0.554 -0.446,1 -1,1 h -7 c -0.554,0 -1,-0.446 -1,-1 v -7 c 0,-0.554 0.446,-1 1,-1 z"
       id="rect40867"
       inkscape:connector-curvature="0" />
    <path
       id="path40889"
       d="M 13,16 V 15 H 10 A 1,1 0 0 1 9,14 v -1 h 2 L 8.5,10 6,13 h 2 v 1 a 2,2 0 0 0 2,2 z"
       style="opacity:1"
       inkscape:connector-curvature="0" />
  </g>
</svg>
