<?xml version="1.0" encoding="UTF-8" standalone="no"?>
<svg
   xmlns:dc="http://purl.org/dc/elements/1.1/"
   xmlns:cc="http://creativecommons.org/ns#"
   xmlns:rdf="http://www.w3.org/1999/02/22-rdf-syntax-ns#"
   xmlns:svg="http://www.w3.org/2000/svg"
   xmlns="http://www.w3.org/2000/svg"
   xmlns:sodipodi="http://sodipodi.sourceforge.net/DTD/sodipodi-0.dtd"
   xmlns:inkscape="http://www.inkscape.org/namespaces/inkscape"
   inkscape:version="1.1-dev (1fceb22, 2019-12-30)"
   sodipodi:docname="exchange-positions-clockwise-symbolic.svg"
   viewBox="0 0 16 16"
   height="16"
   width="16"
   id="svg1"
   version="1.1">
  <metadata
     id="metadata16424">
    <rdf:RDF>
      <cc:Work
         rdf:about="">
        <dc:format>image/svg+xml</dc:format>
        <dc:type
           rdf:resource="http://purl.org/dc/dcmitype/StillImage" />
      </cc:Work>
    </rdf:RDF>
  </metadata>
  <defs
     id="defs16422" />
  <style
     id="s0">
.success { fill:#009909; }
.warning { fill:#FF1990; }
.error { fill:#00AAFF; }
</style>
  <style
     id="s2">
@import '../../highlights.css';
</style>
  <sodipodi:namedview
     inkscape:document-rotation="0"
     inkscape:current-layer="svg1"
     inkscape:window-maximized="1"
     inkscape:window-y="-8"
     inkscape:window-x="54"
     inkscape:window-height="1177"
     inkscape:window-width="1858"
     inkscape:cy="1.5413762"
     inkscape:cx="-1.5074407"
     inkscape:zoom="30.09375"
     showgrid="true"
     id="namedview"
     guidetolerance="10"
     gridtolerance="10"
     objecttolerance="10">
    <inkscape:grid
       id="grid"
       type="xygrid" />
  </sodipodi:namedview>
  <g
     inkscape:label="00362"
     id="exchange-positions-clockwise"
     transform="matrix(0.665804,0,0,0.666667,0.020707,0)">
    <title
       id="title40821">exchange-positions-clockwise</title>
    <path
       style="opacity:0;fill:none"
       d="M 0,0 H 24 V 24 H 0 Z"
       id="rect40823"
       inkscape:connector-curvature="0" />
    <path
       class="error"
       style="opacity:1"
       inkscape:transform-center-y="-0.00045"
       inkscape:transform-center-x="0.0468"
       inkscape:connector-curvature="0"
       d="m 5.1875,23.9059 -1.0937,0.062 0.031,-1 0.8748,-0.031 z M 3.3428,22.8117 2.9365,23.718 1.9688,23.2185 2.5313,22.3747 Z m 3.2822,-0.562 0.6563,0.7812 -1.0295,0.5922 -0.375,-0.9375 z M 1.8745,21.8125 1.1245,22.4687 0.4686,21.5939 1.3437,21.0936 Z M 8.75,20.9059 v 2.8438 L 5.9063,20.9059 Z m -7.7812,-1.5002 0.094,0.9055 -0.9688,0.1563 -0.1251,-1.0928 z m 7.9687,0.6867 -1,-0.094 0.031,-0.9052 0.9689,-0.094 z M 8.7173,17.9354 7.7485,18.2167 7.3743,17.4997 8.1559,16.8749 Z M 6.5,15.4684 l 0.9055,0.6245 -0.625,0.75 -0.7492,-0.4682 z M 0.25,15.2497 3.0938,18.0934 H 0.25 Z m 3.25,0.9065 -0.844,0.375 -0.4688,-0.875 1,-0.4374 z M 5.4678,15.094 5.249,16.094 4.3745,16 4.2805,15.0312 Z"
       id="path40825" />
    <path
       style="opacity:1"
       d="m 5,0 h 7 c 0.554,0 1,0.446 1,1 v 7 c 0,0.554 -0.446,1 -1,1 H 5 C 4.446,9 4,8.554 4,8 V 1 C 4,0.446 4.446,0 5,0 Z"
       id="rect40831"
       inkscape:connector-curvature="0" />
    <path
       style="opacity:1"
       d="m 15,10 h 7 c 0.554,0 1,0.446 1,1 v 7 c 0,0.554 -0.446,1 -1,1 h -7 c -0.554,0 -1,-0.446 -1,-1 v -7 c 0,-0.554 0.446,-1 1,-1 z"
       id="rect40833"
       inkscape:connector-curvature="0" />
    <path
       
       inkscape:connector-curvature="0"
       style="opacity:1"
       d="m 13.969,3 v 1 h 3 a 1,1 0 0 1 1,1 v 1 h -2 l 2.5,3 2.5,-3 h -2 V 5 a 2,2 0 0 0 -2,-2 z"
       id="path40863-1" />
    <path
       
       id="path40889-9"
       d="m 12.969,16 v -1 h -3 a 1,1 0 0 1 -1,-1 v -1 h 2 l -2.5,-3 -2.5,3 h 2 v 1 a 2,2 0 0 0 2,2 z"
       style="opacity:1"
       inkscape:connector-curvature="0" />
  </g>
</svg>
