<?xml version="1.0" encoding="UTF-8" standalone="no"?>
<svg
   xmlns:dc="http://purl.org/dc/elements/1.1/"
   xmlns:cc="http://creativecommons.org/ns#"
   xmlns:rdf="http://www.w3.org/1999/02/22-rdf-syntax-ns#"
   xmlns:svg="http://www.w3.org/2000/svg"
   xmlns="http://www.w3.org/2000/svg"
   xmlns:sodipodi="http://sodipodi.sourceforge.net/DTD/sodipodi-0.dtd"
   xmlns:inkscape="http://www.inkscape.org/namespaces/inkscape"
   inkscape:version="1.1-dev (1fceb22ce1, 2019-12-30, custom)"
   sodipodi:docname="experimental-symbolic.svg"
   viewBox="0 0 16 16"
   height="16"
   width="16"
   id="svg1"
   version="1.1">
  <defs
     id="defs3268" />
  <style
     id="s0">
.success { fill:#009909; }
.warning { fill:#FF1990; }
.error { fill:#00AAFF; }
</style>
  <style
     id="s2">
@import '../../highlights.css';
</style>
  <sodipodi:namedview
     inkscape:current-layer="layercompo"
     inkscape:window-maximized="1"
     inkscape:window-height="1376"
     inkscape:window-width="2560"
     inkscape:document-rotation="0"
     inkscape:window-y="27"
     inkscape:window-x="0"
     inkscape:cy="8.2309491"
     inkscape:cx="10.54078"
     inkscape:zoom="54.332374"
     showgrid="true"
     id="namedview"
     guidetolerance="10"
     gridtolerance="10"
     objecttolerance="10">
    <inkscape:grid
       id="grid"
       type="xygrid" />
  </sodipodi:namedview>
  <metadata
     id="metadata1906">
    <rdf:RDF>
      <cc:Work
         rdf:about="">
        <dc:format>image/svg+xml</dc:format>
        <dc:type
           rdf:resource="http://purl.org/dc/dcmitype/StillImage" />
        <cc:license
           rdf:resource="http://creativecommons.org/publicdomain/zero/1.0/" />
        <dc:title></dc:title>
        <dc:date>13 Jan 2019</dc:date>
        <dc:creator>
          <cc:Agent>
            <dc:title>Ramón Miranda</dc:title>
          </cc:Agent>
        </dc:creator>
        <dc:rights>
          <cc:Agent>
            <dc:title>see the license tab</dc:title>
          </cc:Agent>
        </dc:rights>
        <dc:subject>
          <rdf:Bag>
            <rdf:li>icon ui</rdf:li>
          </rdf:Bag>
        </dc:subject>
        <dc:description>This is a contribution with Inkscape Project from
Ramon Miranda www.ramonmiranda.com (design and SVG file)
Jabiertxo (SVG stuff to integrate them in UI)</dc:description>
        <dc:publisher>
          <cc:Agent>
            <dc:title />
          </cc:Agent>
        </dc:publisher>
        <dc:identifier />
        <dc:source />
        <dc:relation />
        <dc:language>-</dc:language>
        <dc:coverage />
        <dc:contributor>
          <cc:Agent>
            <dc:title>Ramon Miranda
Jabier Arraiza</dc:title>
          </cc:Agent>
        </dc:contributor>
      </cc:Work>
      <cc:License
         rdf:about="http://creativecommons.org/publicdomain/zero/1.0/">
        <cc:permits
           rdf:resource="http://creativecommons.org/ns#Reproduction" />
        <cc:permits
           rdf:resource="http://creativecommons.org/ns#Distribution" />
        <cc:permits
           rdf:resource="http://creativecommons.org/ns#DerivativeWorks" />
      </cc:License>
    </rdf:RDF>
  </metadata>
  <g
     inkscape:label="experimental"
     id="layercompo"
     inkscape:groupmode="layer">
    <path
       style="opacity:0;fill:none"
       d="M 0,0 H 16 V 16 H 0 Z"
       id="rect22048" />
    <path
       d="M 10.056575,4.4028684 C 9.7660629,4.2193191 9.4407817,4.08667 9.1027973,3.9746373 L 8.5495834,4.7859408 A 4.9395721,4.9395721 0 0 0 2.5914544,6.5650853 4.9395721,4.9395721 0 0 0 3.8898584,13.429738 4.9395721,4.9395721 0 0 0 10.75451,12.131333 4.9395721,4.9395721 0 0 0 10.25241,5.9493601 L 10.806691,5.1364929 C 10.603533,4.8213448 10.347087,4.5864177 10.056575,4.4028684 Z M 4.5084694,5.6142863 C 4.7646089,5.85715 4.9319131,6.0112118 5.127561,6.2310879 5.224888,6.3416568 5.200206,6.4514131 5.1067289,6.5168775 4.647845,6.7157031 4.1269256,7.2149297 4.0065918,7.2872991 3.9130661,7.3527973 3.8055168,7.3579109 3.7640028,7.3005052 3.5805179,7.0942296 3.3932157,6.8166167 3.2715375,6.6189055 3.2161657,6.536148 3.2291428,6.4331426 3.3072191,6.3684316 3.5527204,6.0940376 4.0813532,5.7080592 4.2282925,5.6087315 c 0.078126,-0.064752 0.2235762,-0.052395 0.2801769,0.00555 z m -1.330247,1.3967072 a 0.25177074,0.41801359 34.289404 0 1 0.015632,0.010659 0.25177074,0.41801359 34.289404 0 1 -0.026597,0.4856723 0.25177074,0.41801359 34.289404 0 1 -0.4434752,0.203701 0.25177074,0.41801359 34.289404 0 1 0.027663,-0.4872363 0.25177074,0.41801359 34.289404 0 1 0.4267769,-0.2127963 z"
       style="opacity:1;"
       id="path3278" />
    <path
       class="error"
       id="path3276"
       d="m 13.006516,4.0899935 -0.14369,0.2913268 -0.32061,0.047025 0.232204,0.2270373 -0.0553,0.31954 0.287076,-0.1523327 0.287562,0.1525717 -0.05385,-0.3206819 0.232224,-0.2263771 -0.321743,-0.045349 z"
       style="opacity:1" />
    <path
       class="error"
       id="path3274"
       d="M 13.279269,3.2500419 C 12.597928,2.9513393 11.807188,2.9403132 11.118502,3.2216652 10.672939,3.4036929 10.292148,3.7119567 9.9969017,4.0873731 c 0.1753223,0.088668 0.3388903,0.1941088 0.4926233,0.3153013 0.229797,-0.2769923 0.517694,-0.5074672 0.84795,-0.6423876 0.537824,-0.2197198 1.176901,-0.2106687 1.708989,0.0226 z"
       style="opacity:1" />
    <path
       class="error"
       id="path3272"
       d="m 14.141831,3.2176071 -0.14369,0.2913268 -0.322174,0.045959 0.232204,0.2270372 -0.05423,0.317977 0.287574,-0.1497035 0.285997,0.1515053 -0.05385,-0.3206818 0.232224,-0.2263773 -0.320677,-0.046912 z"
       style="opacity:1" />
    <path
       class="error"
       id="path9609"
       d="m 12.865776,1.9421503 -0.14369,0.2913268 -0.320611,0.047025 0.23327,0.2254741 -0.0553,0.3195401 0.28601,-0.1507695 0.288627,0.1510084 -0.05648,-0.3201847 0.233787,-0.2253111 -0.32224,-0.047978 z"
       style="opacity:1" />
  </g>
</svg>
