<?xml version="1.0" encoding="UTF-8" standalone="no"?>
<svg
   xmlns:dc="http://purl.org/dc/elements/1.1/"
   xmlns:cc="http://creativecommons.org/ns#"
   xmlns:rdf="http://www.w3.org/1999/02/22-rdf-syntax-ns#"
   xmlns:svg="http://www.w3.org/2000/svg"
   xmlns="http://www.w3.org/2000/svg"
   xmlns:sodipodi="http://sodipodi.sourceforge.net/DTD/sodipodi-0.dtd"
   xmlns:inkscape="http://www.inkscape.org/namespaces/inkscape"
   version="1.1"
   id="svg1"
   width="16"
   height="16"
   viewBox="0 0 16 16"
   sodipodi:docname="feImage-icon-symbolic.svg"
   inkscape:version="1.1-dev (1fceb22, 2019-12-30)">
  <defs
     id="defs798" />
  <style
     id="s0">
.success { fill:#009909; }
.warning { fill:#FF1990; }
.error { fill:#00AAFF; }
</style>
  <style
     id="s2">
@import '../../highlights.css';
</style>
  <sodipodi:namedview
     objecttolerance="10"
     gridtolerance="10"
     guidetolerance="10"
     id="namedview"
     showgrid="true"
     inkscape:zoom="32"
     inkscape:cx="6.4675134"
     inkscape:cy="4.529832"
     inkscape:window-x="54"
     inkscape:window-y="-8"
     inkscape:document-rotation="0"
     inkscape:window-width="1858"
     inkscape:window-height="1177"
     inkscape:window-maximized="1"
     inkscape:current-layer="layer">
    <inkscape:grid
       type="xygrid"
       id="grid" />
  </sodipodi:namedview>
  <metadata
     id="metadata1906">
    <rdf:RDF>
      <cc:Work
         rdf:about="">
        <dc:format>image/svg+xml</dc:format>
        <dc:type
           rdf:resource="http://purl.org/dc/dcmitype/StillImage" />
        <cc:license
           rdf:resource="http://creativecommons.org/publicdomain/zero/1.0/" />
        <dc:title />
        <dc:date>13 Nov 2018</dc:date>
        <dc:creator>
          <cc:Agent>
            <dc:title>Ramón Miranda</dc:title>
          </cc:Agent>
        </dc:creator>
        <dc:rights>
          <cc:Agent>
            <dc:title>see the license tab</dc:title>
          </cc:Agent>
        </dc:rights>
        <dc:subject>
          <rdf:Bag>
            <rdf:li>icon ui</rdf:li>
          </rdf:Bag>
        </dc:subject>
        <dc:description>This is a little contribution with Inkscape Project
Ramon Miranda  www.ramonmiranda.com (design and SVG file)
Jabiertxo (SVG stuff to integrate them in UI)</dc:description>
        <dc:publisher>
          <cc:Agent>
            <dc:title />
          </cc:Agent>
        </dc:publisher>
        <dc:identifier />
        <dc:source />
        <dc:relation />
        <dc:language>-</dc:language>
        <dc:coverage />
        <dc:contributor>
          <cc:Agent>
            <dc:title>Ramon Miranda
Jabier Arraiza</dc:title>
          </cc:Agent>
        </dc:contributor>
      </cc:Work>
      <cc:License
         rdf:about="http://creativecommons.org/publicdomain/zero/1.0/">
        <cc:permits
           rdf:resource="http://creativecommons.org/ns#Reproduction" />
        <cc:permits
           rdf:resource="http://creativecommons.org/ns#Distribution" />
        <cc:permits
           rdf:resource="http://creativecommons.org/ns#DerivativeWorks" />
      </cc:License>
    </rdf:RDF>
  </metadata>
  <g
     inkscape:groupmode="layer"
     id="layer"
     inkscape:label="feImage">
    <path
       inkscape:connector-curvature="0"
       id="rect22048"
       d="M 0,0 H 16 V 16 H 0 Z"
       style="opacity:0;fill:none" />
    <path
       id="path7446"
       style="opacity:1;fill:#000000"
       d="M 0.41265165,12.856907 C 0.60276235,12.527626 5.6430462,4.2345067 5.7307187,4.0826535 5.8765401,3.8300834 6.1681566,3.873254 6.2936116,4.0558862 c 1.4591042,2.1241029 2.1322457,3.4661654 3.7712574,6.0992918 0.0078,-0.0079 0.320306,-0.507349 0.694496,-1.109805 0.374195,-0.6024553 0.707917,-1.1224316 0.731053,-1.1625041 0.246518,-0.4269817 0.495603,-0.2147222 0.599531,-0.088362 0.06522,0.079292 0.181353,0.1993768 1.64245,2.5459761 0.852344,1.368902 1.562279,2.527276 1.587858,2.568573 0.216522,0.349572 0.18621,0.63946 -0.316669,0.63946 H 0.8702922 c -0.42725018,0 -0.69955724,-0.272598 -0.45764055,-0.691609 z M 9.0093658,11.863473 C 9.2922872,11.408894 9.5215557,11.023048 9.5188609,11.006039 9.5133219,10.970963 6.9904603,6.8071138 6.9739306,6.8057322 L 6,8 5.088083,6.7699532 3.2929444,9.723906 c -0.9873187,1.624675 -1.7951322,2.95895 -1.7951322,2.965055 0,0.0062 1.5743589,0.0089 3.4985796,0.0061 l 3.498581,-0.0049 z m 5.1118112,0.780088 c -0.0036,-0.0092 -0.399881,-0.648815 -0.880504,-1.421577 L 12.366809,9.816954 11.534478,11 11.058332,10.242554 c -0.02243,0.02396 -1.494586,2.395722 -1.494586,2.407907 0,0.0053 1.026912,0.0097 2.28203,0.0097 1.255117,0 2.279043,-0.0075 2.275395,-0.01656 z"
       inkscape:connector-curvature="0"
       sodipodi:nodetypes="sssccsscssssccccccsccccscccsscc" />
    <circle
       class="error"
       r="1.9877652"
       cy="4.5572133"
       cx="12"
       id="path3550"
       style="stroke-width:0.377953;stroke-linecap:round;paint-order:markers fill stroke" />
  </g>
</svg>
