<?xml version="1.0" encoding="UTF-8" standalone="no"?>
<svg
   xmlns:dc="http://purl.org/dc/elements/1.1/"
   xmlns:cc="http://creativecommons.org/ns#"
   xmlns:rdf="http://www.w3.org/1999/02/22-rdf-syntax-ns#"
   xmlns:svg="http://www.w3.org/2000/svg"
   xmlns="http://www.w3.org/2000/svg"
   xmlns:sodipodi="http://sodipodi.sourceforge.net/DTD/sodipodi-0.dtd"
   xmlns:inkscape="http://www.inkscape.org/namespaces/inkscape"
   inkscape:version="1.1-dev (1fceb22ce1, 2019-12-30, custom)"
   sodipodi:docname="fill-between-many-symbolic.svg"
   viewBox="0 0 16 16"
   height="16"
   width="16"
   id="svg1"
   version="1.1">
  <defs
     id="defs3420" />
  <style
     id="s0">
.success { fill:#009909; }
.warning { fill:#FF1990; }
.error { fill:#00AAFF; }
</style>
  <style
     id="s2">
@import '../../highlights.css';
</style>
  <sodipodi:namedview
     inkscape:current-layer="layercompo"
     inkscape:window-maximized="1"
     inkscape:window-height="1376"
     inkscape:window-width="2560"
     inkscape:snap-global="false"
     inkscape:document-rotation="0"
     inkscape:window-y="27"
     inkscape:window-x="0"
     inkscape:cy="13.172122"
     inkscape:cx="-0.66298494"
     inkscape:zoom="19.209395"
     showgrid="true"
     id="namedview"
     guidetolerance="10"
     gridtolerance="10"
     objecttolerance="10">
    <inkscape:grid
       id="grid"
       type="xygrid" />
  </sodipodi:namedview>
  <metadata
     id="metadata1906">
    <rdf:RDF>
      <cc:Work
         rdf:about="">
        <dc:format>image/svg+xml</dc:format>
        <dc:type
           rdf:resource="http://purl.org/dc/dcmitype/StillImage" />
        <cc:license
           rdf:resource="http://creativecommons.org/publicdomain/zero/1.0/" />
        <dc:title></dc:title>
        <dc:date>13 Jan 2019</dc:date>
        <dc:creator>
          <cc:Agent>
            <dc:title>Ramón Miranda</dc:title>
          </cc:Agent>
        </dc:creator>
        <dc:rights>
          <cc:Agent>
            <dc:title>see the license tab</dc:title>
          </cc:Agent>
        </dc:rights>
        <dc:subject>
          <rdf:Bag>
            <rdf:li>icon ui</rdf:li>
          </rdf:Bag>
        </dc:subject>
        <dc:description>This is a contribution with Inkscape Project from
Ramon Miranda www.ramonmiranda.com (design and SVG file)
Jabiertxo (SVG stuff to integrate them in UI)</dc:description>
        <dc:publisher>
          <cc:Agent>
            <dc:title />
          </cc:Agent>
        </dc:publisher>
        <dc:identifier />
        <dc:source />
        <dc:relation />
        <dc:language>-</dc:language>
        <dc:coverage />
        <dc:contributor>
          <cc:Agent>
            <dc:title>Ramon Miranda
Jabier Arraiza</dc:title>
          </cc:Agent>
        </dc:contributor>
      </cc:Work>
      <cc:License
         rdf:about="http://creativecommons.org/publicdomain/zero/1.0/">
        <cc:permits
           rdf:resource="http://creativecommons.org/ns#Reproduction" />
        <cc:permits
           rdf:resource="http://creativecommons.org/ns#Distribution" />
        <cc:permits
           rdf:resource="http://creativecommons.org/ns#DerivativeWorks" />
      </cc:License>
    </rdf:RDF>
  </metadata>
  <g
     inkscape:label="fill-between-many"
     id="layercompo"
     inkscape:groupmode="layer">
    <path
       style=""
       class="error"
       d="m 2.431603,4.010846 2.026336,-2.735553 2.228969,0.540356 1.48598,1.722385 1.958792,1.823703 3.0395,0.6079 0.6079,-0.30395 0.33773,3.613632 -0.33773,2.701781 -0.67544,0.6079 -1.08071,0.3715 -1.48598,-0.40527 -1.5873,-0.0676 -1.080712,0.13509 -0.405267,0.77677 0.06754,0.87807 L 5.06584,13.36576 3.005732,12.28505 2.431603,10.93416 c 0,0 0.06754,-0.945623 0.202634,-1.249574 C 2.769326,9.380636 3.039504,8.232379 3.242137,7.928429 3.444771,7.624478 3.850038,6.61131 3.816266,6.239815 3.782494,5.868321 3.613632,5.024014 3.613632,5.024014 L 3.478543,4.618747 Z"
       id="path9619" />
    <path
       style="opacity:0;fill:none"
       d="M 0,0 H 16 V 16 H 0 Z"
       id="rect22048" />
    <path
       sodipodi:nodetypes="scccsccccscsccsccccccccccccccccccccccc"
       inkscape:connector-curvature="0"
       style="opacity:1"
       d="M 5.083984,0.9003906 C 4.817171,0.8792553 4.532592,0.8819459 4.228516,0.9101562 3.9095062,1.2806005 3.9069404,1.6085357 4.318359,1.880859 c 1.022633,-0.09487 1.61155,0.13112 2.125,0.517579 0.513451,0.386457 0.941381,0.97824 1.464844,1.613281 0.523463,0.63504 1.156763,1.309858 2.109377,1.755859 0.95261,0.446002 2.19942,0.650336 3.9082,0.445313 C 14.683043,5.3824478 13.884511,5.3246615 13.80859,5.244141 12.22962,5.43359 11.19474,5.24009 10.43164,4.882812 9.668537,4.525536 9.153593,3.98924 8.660156,3.390625 8.16672,2.79201 7.709107,2.127387 7.03125,1.617188 6.522857,1.234537 5.884424,0.9637966 5.083984,0.9003906 Z M 2.626953,3.652344 C 2.0868767,3.6735325 1.9768377,4.4267562 2.488281,4.601562 3.409666,4.932479 3.48837,5.247541 3.423828,5.873047 3.359286,6.498552 2.949158,7.392776 2.568359,8.333984 2.187469,9.275193 1.823877,10.29443 2.041016,11.31641 2.258246,12.33848 3.116708,13.22185 4.78125,13.76953 5.3997364,13.972655 5.7044244,13.044925 5.085938,12.8418 3.604972,12.3546 3.132906,11.76608 2.994141,11.11328 2.855467,10.46048 3.108085,9.602272 3.472656,8.701172 3.837319,7.800071 4.300392,6.884545 4.394531,5.972656 4.488578,5.06086 4.013219,4.110661 2.818359,3.681641 2.7571551,3.6591858 2.6920716,3.6492239 2.626953,3.652344 Z M 14.00391,8.828125 c -0.263638,0.0072 -0.473838,0.2225931 -0.47461,0.486328 0,1.841847 -0.38195,2.585097 -0.76368,2.851567 -0.38162,0.26655 -0.99727,0.20874 -1.75195,0.02148 -0.75468,-0.18717 -1.557626,-0.50849 -2.365232,-0.37305 -0.403758,0.06731 -0.816151,0.30663 -1.064454,0.71094 -0.248395,0.40431 -0.358185,0.92914 -0.371093,1.625 -0.01172,0.651041 0.964842,0.668621 0.976562,0.01758 0.011064,-0.59573 0.116288,-0.95143 0.226563,-1.13086 0.110182,-0.17943 0.199689,-0.2274 0.392578,-0.25977 0.385777,-0.06454 1.156164,0.15782 1.968746,0.35938 0.81259,0.20155 1.7591,0.37821 2.54688,-0.17188 0.78787,-0.55017 1.18164,-1.67604 1.18164,-3.650387 -7.93e-4,-0.2744161 -0.227646,-0.4942092 -0.50195,-0.486328 z"
       id="path9609" />
  </g>
</svg>
