<?xml version="1.0" encoding="UTF-8" standalone="no"?>
<svg
   xmlns:dc="http://purl.org/dc/elements/1.1/"
   xmlns:cc="http://creativecommons.org/ns#"
   xmlns:rdf="http://www.w3.org/1999/02/22-rdf-syntax-ns#"
   xmlns:svg="http://www.w3.org/2000/svg"
   xmlns="http://www.w3.org/2000/svg"
   xmlns:sodipodi="http://sodipodi.sourceforge.net/DTD/sodipodi-0.dtd"
   xmlns:inkscape="http://www.inkscape.org/namespaces/inkscape"
   inkscape:version="1.1-dev (1fceb22ce1, 2019-12-30, custom)"
   sodipodi:docname="gears-symbolic.svg"
   viewBox="0 0 16 16"
   height="16"
   width="16"
   id="svg1"
   version="1.1">
  <defs
     id="defs4424" />
  <style
     id="s0">
.success { fill:#009909; }
.warning { fill:#FF1990; }
.error { fill:#00AAFF; }
</style>
  <style
     id="s2">
@import '../../highlights.css';
</style>
  <sodipodi:namedview
     inkscape:current-layer="layercompo"
     inkscape:window-maximized="1"
     inkscape:window-height="1376"
     inkscape:window-width="2560"
     inkscape:document-rotation="0"
     inkscape:window-y="27"
     inkscape:window-x="0"
     inkscape:cy="8.9538646"
     inkscape:cx="5.9561449"
     inkscape:zoom="27.166187"
     showgrid="true"
     id="namedview"
     guidetolerance="10"
     gridtolerance="10"
     objecttolerance="10">
    <inkscape:grid
       id="grid"
       type="xygrid" />
  </sodipodi:namedview>
  <metadata
     id="metadata1906">
    <rdf:RDF>
      <cc:Work
         rdf:about="">
        <dc:format>image/svg+xml</dc:format>
        <dc:type
           rdf:resource="http://purl.org/dc/dcmitype/StillImage" />
        <cc:license
           rdf:resource="http://creativecommons.org/publicdomain/zero/1.0/" />
        <dc:title></dc:title>
        <dc:date>13 Jan 2019</dc:date>
        <dc:creator>
          <cc:Agent>
            <dc:title>Ramón Miranda</dc:title>
          </cc:Agent>
        </dc:creator>
        <dc:rights>
          <cc:Agent>
            <dc:title>see the license tab</dc:title>
          </cc:Agent>
        </dc:rights>
        <dc:subject>
          <rdf:Bag>
            <rdf:li>icon ui</rdf:li>
          </rdf:Bag>
        </dc:subject>
        <dc:description>This is a contribution with Inkscape Project from
Ramon Miranda www.ramonmiranda.com (design and SVG file)
Jabiertxo (SVG stuff to integrate them in UI)</dc:description>
        <dc:publisher>
          <cc:Agent>
            <dc:title />
          </cc:Agent>
        </dc:publisher>
        <dc:identifier />
        <dc:source />
        <dc:relation />
        <dc:language>-</dc:language>
        <dc:coverage />
        <dc:contributor>
          <cc:Agent>
            <dc:title>Ramon Miranda
Jabier Arraiza</dc:title>
          </cc:Agent>
        </dc:contributor>
      </cc:Work>
      <cc:License
         rdf:about="http://creativecommons.org/publicdomain/zero/1.0/">
        <cc:permits
           rdf:resource="http://creativecommons.org/ns#Reproduction" />
        <cc:permits
           rdf:resource="http://creativecommons.org/ns#Distribution" />
        <cc:permits
           rdf:resource="http://creativecommons.org/ns#DerivativeWorks" />
      </cc:License>
    </rdf:RDF>
  </metadata>
  <g
     inkscape:label="gears"
     id="layercompo"
     inkscape:groupmode="layer">
    <path
       style="opacity:0;fill:none"
       d="M 0,0 H 16 V 16 H 0 Z"
       id="rect22048" />
    <path
       class="error"
       d="M 4.7319007,5.6706525 C 4.6067777,5.6694925 4.4784345,5.6737225 4.3512585,5.6836475 4.224083,5.6945905 4.0978068,5.7111005 3.974572,5.7328535 L 3.8393972,6.9607542 C 3.6498305,7.0189799 3.4652503,7.0935974 3.2952971,7.1869907 L 2.3417094,6.4121307 C 2.1283389,6.563432 1.9465532,6.7437118 1.7670698,6.9319087 L 2.3807365,7.9889992 C 2.264194,8.1433005 2.1604942,8.3106969 2.0764485,8.486155 L 0.85477079,8.4233731 C 0.77158878,8.6677723 0.71627716,8.9209778 0.68113399,9.1823958 L 1.7930859,9.6716345 c -0.00231,0.097846 -0.0026,0.1905281 0.0051,0.2901475 l 0.00678,-5.792e-4 c 0.0088,0.083244 0.020388,0.1627432 0.03563,0.2449002 l -1.01692943,0.665134 c 0.0774666,0.252149 0.17321405,0.4925 0.29523843,0.719999 l 1.1956588,-0.26187 c 0.1116278,0.159326 0.240985,0.307453 0.3812098,0.440597 L 2.263088,12.913598 c 0.2078742,0.15629 0.4168661,0.304207 0.6521261,0.418536 l 0.8138873,-0.920783 c 0.1829439,0.06425 0.3775378,0.108238 0.5740748,0.134618 l 0.3342655,1.188874 c 0.1251085,0.0012 0.2523337,-0.002 0.37951,-0.01301 h 5.79e-4 c 0.127164,-0.01055 0.254028,-0.02745 0.3772483,-0.0492 l 0.1346126,-1.227897 c 0.1895639,-0.05824 0.3741353,-0.132884 0.5440972,-0.226237 l 0.9541524,0.77486 C 7.2410235,12.842052 7.4227975,12.661792 7.6022839,12.473576 L 6.9886172,11.416487 c 0.1165396,-0.154302 0.219666,-0.321698 0.3037231,-0.497156 l 1.2222426,0.06278 c 0.083171,-0.2444 0.137937,-0.497597 0.1730719,-0.759026 l -1.11139,-0.4892363 c 0.00231,-0.097836 0.00309,-0.1905514 -0.00565,-0.2901476 l -0.00623,5.791e-4 C 7.5553485,9.3610567 7.54388,9.2815482 7.5287501,9.199382 L 8.5451194,8.5342449 C 8.4677399,8.2820965 8.3719053,8.0417369 8.2498809,7.8142463 L 7.054784,8.0761161 C 6.943159,7.9167906 6.8132371,7.7680984 6.6730096,7.634954 L 7.1056869,6.4918951 C 6.8978214,6.3356014 6.6888411,6.187697 6.4535695,6.0733552 L 5.6396823,6.9941391 C 5.4567296,6.9297845 5.2621559,6.8859052 5.0656073,6.8595293 Z m -0.012446,2.3160984 c 0.8804826,0.016738 1.6229065,0.6978222 1.6967762,1.5944027 h 0.00116 C 6.4719003,10.519643 5.7695896,11.335476 4.8275129,11.413104 3.8711712,11.491905 3.0319455,10.780131 2.9531414,9.8237922 h -0.00174 C 2.897212,8.8855408 3.5999629,8.0700176 4.5418485,7.9924064 c 0.059769,-0.00493 0.1188971,-0.00678 0.1775954,-0.00565 z"
       style="opacity:1"
       id="path4430" />
    <path
       d="m 11.533704,1.9948729 v 5.792e-4 c -0.127758,-0.00327 -0.255065,5.791e-4 -0.380077,0.00903 l -0.263567,1.206973 c -0.194644,0.037869 -0.38673,0.093031 -0.56559,0.1679812 L 9.457983,2.5078631 C 9.2298381,2.6358095 9.0302169,2.7960734 8.831873,2.9642979 L 9.3307257,4.0802083 C 9.1985659,4.2213545 9.0776273,4.3766891 8.975535,4.5422956 L 7.76743,4.3511275 C 7.6589664,4.5853915 7.5771394,4.8312646 7.5146098,5.0875281 l 1.0536994,0.6040525 c -0.00897,0.071813 -0.013761,0.1422692 -0.018099,0.2137934 h -0.00623 c -2.896e-4,0.017955 0.00174,0.034512 0.00174,0.052032 -2.78e-4,0.00791 -0.00145,0.015174 -0.00174,0.023196 h 0.00289 c 0.00116,0.071608 0.00231,0.142093 0.00791,0.2143609 L 7.4739403,6.7492414 c 0.050456,0.2589218 0.1204525,0.5080441 0.2177517,0.747147 L 8.9077143,7.3623439 c 0.094235,0.170214 0.2071733,0.3313031 0.3325686,0.4784893 L 8.6899625,8.9318599 C 8.8801952,9.109209 9.0721278,9.2786064 9.2940148,9.4171371 L 10.200656,8.5874152 c 0.175151,0.083291 0.363881,0.1470444 0.556543,0.1939974 l 0.207006,1.2177192 c 0.124465,0.014455 0.251763,0.023862 0.379512,0.027133 v -5.79e-4 c 0.12775,0.0033 0.255065,-2.1e-5 0.380078,-0.009 l 0.264132,-1.2069737 c 0.194642,-0.037869 0.386164,-0.092487 0.565025,-0.1674136 l 0.866487,0.8710102 C 13.647584,9.3853663 13.847205,9.22567 14.045548,9.0574455 L 13.546696,7.9409301 c 0.132176,-0.1411432 0.253078,-0.2964806 0.355193,-0.4620873 l 1.208103,0.191171 c 0.10847,-0.2342638 0.190333,-0.4801371 0.25282,-0.7364005 l -1.0537,-0.6040526 c 0.0088,-0.071631 0.01416,-0.1418993 0.01867,-0.2132284 h 0.0062 c 2.91e-4,-0.017926 -0.0023,-0.034507 -0.0023,-0.052034 2.85e-4,-0.00794 0.002,-0.015174 0.0023,-0.023196 h -0.0029 c -0.0012,-0.071839 -0.0026,-0.1426625 -0.0085,-0.2149256 l 1.08092,-0.5537152 C 15.353135,5.0135398 15.28306,4.7638411 15.185729,4.5247499 L 13.969706,4.6593596 C 13.875468,4.4891457 13.762525,4.3280566 13.637137,4.1808702 L 14.187458,3.0892789 C 13.997237,2.9119268 13.805304,2.7430942 13.583409,2.6045664 L 12.676765,3.4337233 C 12.501626,3.3504335 12.312884,3.286734 12.120222,3.239726 L 11.913216,2.0220214 C 11.788752,2.0075665 11.661462,1.997928 11.533704,1.9948881 Z m -0.07465,3.1848469 c 0.463879,0.010885 0.830934,0.3843315 0.844426,0.8427296 -0.02656,0.4654378 -0.415532,0.830017 -0.885152,0.8189782 -0.463686,-0.010885 -0.830651,-0.3840305 -0.844426,-0.842165 0.02627,-0.4657276 0.415334,-0.8305875 0.885152,-0.8195428 z"
       style="opacity:1;"
       id="path9609" />
  </g>
</svg>
