<?xml version="1.0" encoding="UTF-8" standalone="no"?>
<svg
   xmlns:dc="http://purl.org/dc/elements/1.1/"
   xmlns:cc="http://creativecommons.org/ns#"
   xmlns:rdf="http://www.w3.org/1999/02/22-rdf-syntax-ns#"
   xmlns:svg="http://www.w3.org/2000/svg"
   xmlns="http://www.w3.org/2000/svg"
   xmlns:sodipodi="http://sodipodi.sourceforge.net/DTD/sodipodi-0.dtd"
   xmlns:inkscape="http://www.inkscape.org/namespaces/inkscape"
   inkscape:version="1.0beta2 (7cf281c, 2019-12-21)"
   sodipodi:docname="help-keyboard-shortcuts-symbolic.svg"
   viewBox="0 0 16 16"
   height="16"
   width="16"
   id="svg1"
   version="1.1">
  <metadata
     id="metadata8814">
    <rdf:RDF>
      <cc:Work
         rdf:about="">
        <dc:format>image/svg+xml</dc:format>
        <dc:type
           rdf:resource="http://purl.org/dc/dcmitype/StillImage" />
      </cc:Work>
    </rdf:RDF>
  </metadata>
  <defs
     id="defs8812" />
  <style
     id="s0">
.success { fill:#009909; }
.warning { fill:#FF1990; }
.error { fill:#00AAFF; }
</style>
  <style
     id="s2">
@import '../../highlights.css';
</style>
  <sodipodi:namedview
     inkscape:document-rotation="0"
     inkscape:current-layer="svg1"
     inkscape:window-maximized="1"
     inkscape:window-y="-6"
     inkscape:window-x="65"
     inkscape:window-height="890"
     inkscape:window-width="1296"
     inkscape:cy="8"
     inkscape:cx="8"
     inkscape:zoom="41.125"
     showgrid="true"
     id="namedview"
     guidetolerance="10"
     gridtolerance="10"
     objecttolerance="10">
    <inkscape:grid
       id="grid"
       type="xygrid" />
  </sodipodi:namedview>
  <g
     id="help-keyboard-shortcuts"
     inkscape:label="00099"
     transform="matrix(0.994528,0,0,1,-223.68125,-527.36218)">
    <path
       style="opacity:0;fill:none"
       d="m 225,527.36218 h 16 v 16 h -16 z"
       id="rect18842"
       inkscape:connector-curvature="0" />
    <g
       transform="matrix(-0.00733,-0.997771,0.9999731,-0.0073138,-315.6033,868.5894)"
       id="g12753">
      <path
         inkscape:connector-curvature="0"
         id="path3940-4"
         d="m 329.5002,548.0094 c -1.3604,0 -2.4945,-1.1249 -2.4945,-2.5094 0,-1.3845 1.1341,-2.5094 2.4945,-2.5094 1.3604,0 2.4945,1.1249 2.4945,2.5094 0,1.3845 -1.1341,2.5094 -2.4945,2.5094 z m 0,-1.4474 c 0.6121,0 1.077,-0.4741 1.077,-1.062 0,-0.5879 -0.4649,-1.062 -1.077,-1.062 -0.6121,0 -1.077,0.4741 -1.077,1.062 0,0.5879 0.4649,1.062 1.077,1.062 z"
         style="opacity:1" />
      <path
         inkscape:connector-curvature="0"
         id="path3942-0"
         d="m 335.4927,548.0109 c -1.3555,0 -2.4855,-1.1256 -2.4855,-2.5109 0,-1.3853 1.13,-2.5109 2.4855,-2.5109 1.3556,0 2.4856,1.1256 2.4856,2.5109 0,1.3853 -1.13,2.5109 -2.4856,2.5109 z m 0,-1.4482 c 0.6099,0 1.0731,-0.4744 1.0731,-1.0627 0,-0.5883 -0.4632,-1.0627 -1.0731,-1.0627 -0.6098,0 -1.0731,0.4744 -1.0731,1.0627 0,0.5883 0.4633,1.0627 1.0731,1.0627 z"
         style="opacity:1" />
      <path
         sodipodi:nodetypes="ccccccccccccc"
         inkscape:connector-curvature="0"
         style="opacity:1"
         d="m 329.1262,554 c -0.728,-0.3809 -0.9656,-1.2095 -0.5453,-1.8692 l 3.0347,-5.0061 -0.64032,-1.62401 0.41222,-1.43769 1.1053,1.7081 1.0838,-1.7081 0.40571,1.39327 -0.61241,1.66843 3.0347,5.0061 c 0.4203,0.6597 0.1827,1.4883 -0.5453,1.8692 l -3.3665,-5.5003 z"
         id="rect4875-9" />
    </g>
    <path
       transform="translate(0,512.3622)"
       style="opacity:1"
       d="m 235,20 h 2 v 1 h -2 z"
       id="rect24427"
       inkscape:connector-curvature="0" />
    <path
       style="opacity:1"
       d="m 238,532.36218 h 2 v 1 h -2 z"
       id="rect24429"
       inkscape:connector-curvature="0" />
    <path
       style="opacity:1"
       d="m 239,534.36218 h 1 v 2 h -1 z"
       id="rect24431"
       inkscape:connector-curvature="0" />
    <path
       style="opacity:1"
       d="m 239,537.36218 h 1 v 2 h -1 z"
       id="rect24433"
       inkscape:connector-curvature="0" />
    <path
       style="opacity:1"
       d="m 238,540.36218 h 2 v 1 h -2 z"
       id="rect24437"
       inkscape:connector-curvature="0" />
    <path
       style="opacity:1"
       d="m 235,540.36218 h 2 v 1 h -2 z"
       id="rect24439"
       inkscape:connector-curvature="0" />
    <path
       style="opacity:1"
       d="m 232,540.36218 h 2 v 1 h -2 z"
       id="rect24441"
       inkscape:connector-curvature="0" />
    <path
       style="opacity:1"
       d="m 229,540.36218 h 2 v 1 h -2 z"
       id="rect24443"
       inkscape:connector-curvature="0" />
    <path
       style="opacity:1"
       d="m 226,540.36218 h 2 v 1 h -2 z"
       id="rect24445"
       inkscape:connector-curvature="0" />
  </g>
</svg>
