<?xml version="1.0" encoding="UTF-8" standalone="no"?>
<svg
   xmlns:dc="http://purl.org/dc/elements/1.1/"
   xmlns:cc="http://creativecommons.org/ns#"
   xmlns:rdf="http://www.w3.org/1999/02/22-rdf-syntax-ns#"
   xmlns:svg="http://www.w3.org/2000/svg"
   xmlns="http://www.w3.org/2000/svg"
   xmlns:sodipodi="http://sodipodi.sourceforge.net/DTD/sodipodi-0.dtd"
   xmlns:inkscape="http://www.inkscape.org/namespaces/inkscape"
   inkscape:version="1.1-dev (6039630, 2019-12-20)"
   sodipodi:docname="image-missing-symbolic.svg"
   viewBox="0 0 16 16"
   height="16"
   width="16"
   id="svg1"
   version="1.1">
  <style
     id="s0">
.success { fill:#009909; }
.warning { fill:#FF1990; }
.error { fill:#00AAFF; }
</style>
  <style
     id="s2">
@import '../../highlights.css';
</style>
  <metadata
     id="metadata21">
    <rdf:RDF>
      <cc:Work
         rdf:about="">
        <dc:format>image/svg+xml</dc:format>
        <dc:type
           rdf:resource="http://purl.org/dc/dcmitype/StillImage" />
        <dc:title />
      </cc:Work>
    </rdf:RDF>
  </metadata>
  <defs
     id="defs19">
    <inkscape:path-effect
       update_on_knot_move="true"
       attempt_force_join="true"
       miter_limit="4"
       offset="0.22568149"
       unit="mm"
       linejoin_type="miter"
       is_visible="true"
       id="path-effect31"
       effect="offset" />
  </defs>
  <sodipodi:namedview
     inkscape:document-rotation="0"
     inkscape:current-layer="edit-delete"
     inkscape:window-maximized="1"
     inkscape:window-y="-6"
     inkscape:window-x="65"
     inkscape:window-height="890"
     inkscape:window-width="1296"
     inkscape:cy="7.0547384"
     inkscape:cx="2.69606"
     inkscape:zoom="20.5625"
     showgrid="true"
     id="namedview"
     guidetolerance="10"
     gridtolerance="10"
     objecttolerance="10"
     inkscape:snap-global="false">
    <inkscape:grid
       id="grid"
       type="xygrid" />
  </sodipodi:namedview>
  <g
     inkscape:label="00384"
     id="edit-delete">
    <title
       id="title34114">edit-delete</title>
    <path
       style="opacity:0;fill:none"
       d="M 0,0 H 16 V 16 H 0 Z"
       id="gtk-remove"
       inkscape:connector-curvature="0" />
    <path
       class="warning"
       sodipodi:nodetypes="ccccccccscccscccccscsccccc"
       inkscape:connector-curvature="0"
       id="path2716"
       style="opacity:1;fill-rule:evenodd"
       d="m 5,8.9570989 h 1 0.03125 c 0.254951,-0.0112 0.50987,-0.12858 0.6875,-0.3125 L 8,7.3633489 l 1.3125,1.28125 c 0.265625,0.2305 0.446672,0.3055 0.6875,0.3125 h 1 v -1 c 0,-0.28647 -0.0343,-0.55065 -0.25,-0.75 l -1.28125,-1.28125 1.25,-1.25 C 10.90694,4.4876789 11,4.2223989 11,3.9570989 v -1 h -1 c -0.265301,1e-5 -0.530586,0.0931 -0.71875,0.28125 L 8,4.5195989 6.71875,3.2383489 C 6.530586,3.0501589 6.26529,2.9570989 6,2.9570989 H 5 v 1 c 0,0.26529 0.09306,0.53058 0.28125,0.71875 l 1.28125,1.25 -1.28125,1.28125 c -0.210742,0.19463 -0.30316,0.46925 -0.28125,0.75 z" />
    <path
       sodipodi:nodetypes="cccccccccc"
       d="M 1.2447805,1.1214604 H 14.804126 V 10.957359 H 1.2447805 Z M 0,0 H 16 V 16 H 0 Z"
       style="opacity:1;fill-rule:evenodd"
       id="path2652"
       inkscape:connector-curvature="0" />
  </g>
</svg>
