<?xml version="1.0" encoding="UTF-8" standalone="no"?>
<svg
   xmlns:dc="http://purl.org/dc/elements/1.1/"
   xmlns:cc="http://creativecommons.org/ns#"
   xmlns:rdf="http://www.w3.org/1999/02/22-rdf-syntax-ns#"
   xmlns:svg="http://www.w3.org/2000/svg"
   xmlns="http://www.w3.org/2000/svg"
   xmlns:sodipodi="http://sodipodi.sourceforge.net/DTD/sodipodi-0.dtd"
   xmlns:inkscape="http://www.inkscape.org/namespaces/inkscape"
   version="1.1"
   id="svg1"
   width="16"
   height="16"
   viewBox="0 0 16 16"
   sodipodi:docname="inkscape-logo-symbolic.svg"
   inkscape:version="1.1-dev (3d47766, 2020-01-22)">
  <metadata
     id="metadata9781">
    <rdf:RDF>
      <cc:Work
         rdf:about="">
        <dc:format>image/svg+xml</dc:format>
        <dc:type
           rdf:resource="http://purl.org/dc/dcmitype/StillImage" />
      </cc:Work>
    </rdf:RDF>
  </metadata>
  <defs
     id="defs9779" />
  <style
     id="s0">
.success { fill:#009909; }
.warning { fill:#FF1990; }
.error { fill:#00AAFF; }
</style>
  <style
     id="s2">
@import '../../highlights.css';
</style>
  <sodipodi:namedview
     objecttolerance="10"
     gridtolerance="10"
     guidetolerance="10"
     id="namedview"
     showgrid="true"
     inkscape:zoom="10.28125"
     inkscape:cx="8.0116907"
     inkscape:cy="9.0862985"
     inkscape:window-width="1296"
     inkscape:window-height="890"
     inkscape:window-x="65"
     inkscape:window-y="-6"
     inkscape:window-maximized="1"
     inkscape:current-layer="svg1"
     inkscape:document-rotation="0">
    <inkscape:grid
       type="xygrid"
       id="grid" />
  </sodipodi:namedview>
  <g
     transform="translate(-225.09894,-567.37128)"
     inkscape:label="00101"
     id="inkscape-logo">
    <path
       inkscape:original-d="m 225.0988,567.37128 h 15.99999 v 16 H 225.0988 Z"
       inkscape:connector-curvature="0"
       id="rect13270-8"
       d="m 225.0988,567.37128 h 15.99999 v 16 H 225.0988 Z"
       style="opacity:0;fill:none" />
    <path
       inkscape:original-d="m 231.8473,567.9057 -5.74836,5.96615 c -0.51052,0.52987 -1,0.93297 -0.93651,1.76495 0.0711,0.93245 3.62695,0.0217 3.95847,1.7007 0.17938,0.9085 -2.0221,0.515 -2.0221,1.429 0,1.0722 3.25736,0.17914 3.9779,1.2006 0.55081,0.78085 -1.34808,0.82497 -0.911,1.5726 0.37551,0.64233 1.68138,0.23871 1.9051,1.1011 0.25558,0.98521 1.98766,0.87146 2.9175,0.09 0.56954,-0.47866 -0.8057,-0.7948 -0.288,-1.329 0.5178,-0.5343 3.24768,-0.43661 3.1099,-1.5961 -0.0912,-0.76774 -1.23969,-0.36979 -1.27578,-1.23606 -0.0306,-0.7353 0.85785,-0.86119 3.46918,-1.72474 1.46161,-0.59958 1.09534,-1.96968 0.556,-2.5264 l -6.2129,-6.4131 c -0.6594,-0.68065 -1.83078,-0.69365 -2.4994,3e-4 z m 4.95513,4.46558 -1.70349,1 -3,-2 -2.70744,0.92202 v 0 c 1.00516,-1.17546 1.99623,-2.16584 3.0252,-3.2142 0.55446,-0.56491 0.9298,-0.5396 1.45742,0.0454 z"
       style="opacity:1"
       d="m 231.8473,567.9057 -5.74836,5.96615 c -0.51052,0.52987 -1,0.93297 -0.93651,1.76495 0.0711,0.93245 3.62695,0.0217 3.95847,1.7007 0.17938,0.9085 -2.0221,0.515 -2.0221,1.429 0,1.0722 3.25736,0.17914 3.9779,1.2006 0.55081,0.78085 -1.34808,0.82497 -0.911,1.5726 0.37551,0.64233 1.68138,0.23871 1.9051,1.1011 0.25558,0.98521 1.98766,0.87146 2.9175,0.09 0.56954,-0.47866 -0.8057,-0.7948 -0.288,-1.329 0.5178,-0.5343 3.24768,-0.43661 3.1099,-1.5961 -0.0912,-0.76774 -1.23969,-0.36979 -1.27578,-1.23606 -0.0306,-0.7353 0.85785,-0.86119 3.46918,-1.72474 1.46161,-0.59958 1.09534,-1.96968 0.556,-2.5264 l -6.2129,-6.4131 c -0.6594,-0.68065 -1.83078,-0.69365 -2.4994,3e-4 z m 4.95513,4.46558 -1.70349,1 -3,-2 -2.70744,0.92202 v 0 c 1.00516,-1.17546 1.99623,-2.16584 3.0252,-3.2142 0.55446,-0.56491 0.9298,-0.5396 1.45742,0.0454 z"
       id="path13254-1"
       inkscape:connector-curvature="0"
       sodipodi:nodetypes="ssssssssssssccsscccccssc" />
    <path
       inkscape:original-d="m 239.47849,578.13684 c -0.51978,0.0759 -0.81052,0.39318 -0.9268,0.6815 0.7274,0.3049 1.96605,0.55229 1.9842,-0.072 0.0159,-0.54827 -0.63344,-0.67138 -1.0574,-0.6095 z"
       style="opacity:1"
       d="m 239.47849,578.13684 c -0.51978,0.0759 -0.81052,0.39318 -0.9268,0.6815 0.7274,0.3049 1.96605,0.55229 1.9842,-0.072 0.0159,-0.54827 -0.63344,-0.67138 -1.0574,-0.6095 z"
       id="path13250-6"
       inkscape:connector-curvature="0"
       sodipodi:nodetypes="scss" />
    <path
       inkscape:original-d="m 226.57805,581.59967 c 0.18588,0.27657 0.93373,0.21255 1.42921,-0.0464 0.42847,-0.22386 0.91875,-0.75621 0.83127,-0.81791 -0.52709,-0.37177 -1.20581,-0.41488 -1.73959,-0.24168 -0.53378,0.17319 -0.78978,0.70588 -0.52089,1.10597 z"
       style="opacity:1"
       d="m 226.57805,581.59967 c 0.18588,0.27657 0.93373,0.21255 1.42921,-0.0464 0.42847,-0.22386 0.91875,-0.75621 0.83127,-0.81791 -0.52709,-0.37177 -1.20581,-0.41488 -1.73959,-0.24168 -0.53378,0.17319 -0.78978,0.70588 -0.52089,1.10597 z"
       id="path13248-6"
       inkscape:connector-curvature="0"
       sodipodi:nodetypes="sssss" />
    <path
       inkscape:original-d="m 238.304,580.3713 c -0.3696,0.1525 -0.3652,0.6822 -0.07,0.911 0.2957,0.2288 0.6656,0.081 0.8134,-0.072 0.1479,-0.1525 0,-0.6868 -0.7438,-0.8393 z"
       style="opacity:0;fill:none"
       d="m 238.304,580.3713 c -0.3696,0.1525 -0.3652,0.6822 -0.07,0.911 0.2957,0.2288 0.6656,0.081 0.8134,-0.072 0.1479,-0.1525 0,-0.6868 -0.7438,-0.8393 z"
       id="path1217-0"
       inkscape:connector-curvature="0" />
  </g>
</svg>
