<?xml version="1.0" encoding="UTF-8" standalone="no"?>
<svg
   xmlns:dc="http://purl.org/dc/elements/1.1/"
   xmlns:cc="http://creativecommons.org/ns#"
   xmlns:rdf="http://www.w3.org/1999/02/22-rdf-syntax-ns#"
   xmlns:svg="http://www.w3.org/2000/svg"
   xmlns="http://www.w3.org/2000/svg"
   xmlns:sodipodi="http://sodipodi.sourceforge.net/DTD/sodipodi-0.dtd"
   xmlns:inkscape="http://www.inkscape.org/namespaces/inkscape"
   inkscape:version="1.1-dev (1fceb22ce1, 2019-12-30, custom)"
   sodipodi:docname="knot-symbolic.svg"
   viewBox="0 0 16 16"
   height="16"
   width="16"
   id="svg1"
   version="1.1">
  <defs
     id="defs5304" />
  <style
     id="s0">
.success { fill:#009909; }
.warning { fill:#FF1990; }
.error { fill:#00AAFF; }
</style>
  <style
     id="s2">
@import '../../highlights.css';
</style>
  <sodipodi:namedview
     inkscape:current-layer="svg1"
     inkscape:window-maximized="1"
     inkscape:window-height="1376"
     inkscape:window-width="2560"
     inkscape:snap-global="false"
     inkscape:document-rotation="0"
     inkscape:window-y="27"
     inkscape:window-x="0"
     inkscape:cy="8.9722699"
     inkscape:cx="5.9561449"
     inkscape:zoom="27.166187"
     showgrid="true"
     id="namedview"
     guidetolerance="10"
     gridtolerance="10"
     objecttolerance="10">
    <inkscape:grid
       id="grid"
       type="xygrid" />
  </sodipodi:namedview>
  <metadata
     id="metadata1906">
    <rdf:RDF>
      <cc:Work
         rdf:about="">
        <dc:format>image/svg+xml</dc:format>
        <dc:type
           rdf:resource="http://purl.org/dc/dcmitype/StillImage" />
        <cc:license
           rdf:resource="http://creativecommons.org/publicdomain/zero/1.0/" />
        <dc:title></dc:title>
        <dc:date>13 Jan 2019</dc:date>
        <dc:creator>
          <cc:Agent>
            <dc:title>Ramón Miranda</dc:title>
          </cc:Agent>
        </dc:creator>
        <dc:rights>
          <cc:Agent>
            <dc:title>see the license tab</dc:title>
          </cc:Agent>
        </dc:rights>
        <dc:subject>
          <rdf:Bag>
            <rdf:li>icon ui</rdf:li>
          </rdf:Bag>
        </dc:subject>
        <dc:description>This is a contribution with Inkscape Project from
Ramon Miranda www.ramonmiranda.com (design and SVG file)
Jabiertxo (SVG stuff to integrate them in UI)</dc:description>
        <dc:publisher>
          <cc:Agent>
            <dc:title />
          </cc:Agent>
        </dc:publisher>
        <dc:identifier />
        <dc:source />
        <dc:relation />
        <dc:language>-</dc:language>
        <dc:coverage />
        <dc:contributor>
          <cc:Agent>
            <dc:title>Ramon Miranda
Jabier Arraiza</dc:title>
          </cc:Agent>
        </dc:contributor>
      </cc:Work>
      <cc:License
         rdf:about="http://creativecommons.org/publicdomain/zero/1.0/">
        <cc:permits
           rdf:resource="http://creativecommons.org/ns#Reproduction" />
        <cc:permits
           rdf:resource="http://creativecommons.org/ns#Distribution" />
        <cc:permits
           rdf:resource="http://creativecommons.org/ns#DerivativeWorks" />
      </cc:License>
    </rdf:RDF>
  </metadata>
  <g
     inkscape:label="knot"
     id="layercompo"
     inkscape:groupmode="layer">
    <path
       style="opacity:0;fill:none"
       d="M 0,0 H 16 V 16 H 0 Z"
       id="rect22048" />
    <path
       style="opacity:1;"
       d="M 5.2537362,1.7156651 C 4.2291328,1.665498 3.2751975,1.935085 2.6050801,2.6052021 1.6562444,3.5540493 1.513194,5.0376636 1.9351562,6.5737621 2.357107,8.1098492 3.3440139,9.7572648 4.7945433,11.207794 c 0.3284882,0.328488 0.66621,0.632182 1.0115533,0.911731 L 6.1565845,12.403468 6.7244708,11.70248 6.373983,11.418537 C 6.0533657,11.159002 5.7374958,10.875217 5.4312006,10.568922 4.0786885,9.21641 3.1744771,7.6802093 2.8047264,6.3341824 2.4349757,4.988144 2.5978567,3.8901811 3.2439524,3.2440741 3.7002603,2.7877661 4.3654029,2.5749678 5.209373,2.6162986 l 0.4503111,0.02218 0.044408,-0.9006335 z m 6.3776368,0.039933 C 10.950306,1.6535948 10.196642,1.7242968 9.4285868,1.9352779 7.8924882,2.3572401 6.2450726,3.344147 4.7945433,4.7946765 4.4660552,5.1231646 4.1601462,5.4609093 3.8806096,5.8062184 L 3.5966664,6.1567177 4.2976426,6.7246041 4.5815858,6.3741047 C 4.8411326,6.0534988 5.1249168,5.7376178 5.4312006,5.4313338 6.7837127,4.0788102 8.3199136,3.1746102 9.6659517,2.8048595 11.011979,2.4351089 12.109942,2.5979785 12.756049,3.2440741 c 0.456308,0.4563194 0.671343,1.121462 0.630001,1.9654207 l -0.02215,0.4503225 0.898409,0.044363 0.02215,-0.4503111 C 14.334659,4.2292549 14.065038,3.2753307 13.394921,2.6052021 12.920497,2.1307899 12.312427,1.857591 11.631373,1.7555981 Z M 9.8434164,3.5967885 9.2755301,4.2977758 9.626018,4.581719 c 0.320606,0.2595129 0.636487,0.5433196 0.942783,0.8496148 1.352512,1.3525121 2.258938,2.888713 2.628688,4.2347399 0.369751,1.3460383 0.204655,2.4440013 -0.44144,3.0900963 -0.45632,0.45632 -1.121451,0.671344 -1.965421,0.630002 l -0.450311,-0.02218 -0.04441,0.900634 0.450322,0.01996 c 1.024604,0.05018 1.978527,-0.21942 2.648656,-0.889548 0.948836,-0.948836 1.091886,-2.430225 0.669924,-3.9663232 C 13.642859,7.8926214 12.658167,6.2452057 11.207639,4.7946765 10.879151,4.4661883 10.539213,4.1602794 10.19387,3.8807317 Z M 11.702358,9.2778666 11.418416,9.6261511 C 11.15888,9.9467574 10.875095,10.262627 10.568801,10.568922 9.2162768,11.921434 7.6800873,12.827872 6.3340489,13.197622 4.988022,13.567363 3.8900479,13.402277 3.2439524,12.75617 2.787633,12.299862 2.5748347,11.634731 2.6161766,10.790762 L 2.6383246,10.340439 1.737691,10.296069 1.715543,10.74638 c -0.050202,1.024626 0.2194085,1.978539 0.889537,2.648657 0.9488359,0.948847 2.4324504,1.091886 3.9685489,0.669935 1.5360984,-0.421963 3.1835027,-1.406655 4.6340431,-2.857185 0.328488,-0.328488 0.632171,-0.668424 0.911719,-1.013756 l 0.283944,-0.3504993 z"
       id="path9610" />
  </g>
  <path
     id="path5309"
     style="stroke:none;stroke-width:3.18531"
     d="M 6.4110324,2.1472419 A 0.6655941,0.6655941 0 0 1 5.7454383,2.812836 0.6655941,0.6655941 0 0 1 5.0798442,2.1472419 0.6655941,0.6655941 0 0 1 5.7454383,1.4816478 0.6655941,0.6655941 0 0 1 6.4110324,2.1472419 Z"
     class="error"
     inkscape:connector-curvature="0" />
  <path
     id="path5311"
     style="stroke:none;stroke-width:3.18531"
     d="M 4.7913719,6.3068245 A 0.6655941,0.6655941 0 0 1 4.1257778,6.9724186 0.6655941,0.6655941 0 0 1 3.4601837,6.3068245 0.6655941,0.6655941 0 0 1 4.1257778,5.6412304 0.6655941,0.6655941 0 0 1 4.7913719,6.3068245 Z"
     class="error"
     inkscape:connector-curvature="0" />
  <path
     id="path5313"
     style="stroke:none;stroke-width:3.18531"
     d="M 2.8036067,10.245544 A 0.6655941,0.6655941 0 0 1 2.1380126,10.911138 0.6655941,0.6655941 0 0 1 1.4724185,10.245544 0.6655941,0.6655941 0 0 1 2.1380126,9.5799503 0.6655941,0.6655941 0 0 1 2.8036067,10.245544 Z"
     class="error"
     inkscape:connector-curvature="0" />
  <path
     id="path5315"
     style="stroke:none;stroke-width:3.18531"
     d="M 7.1840522,12.049257 A 0.6655941,0.6655941 0 0 1 6.5184581,12.714851 0.6655941,0.6655941 0 0 1 5.852864,12.049257 0.6655941,0.6655941 0 0 1 6.5184581,11.383663 0.6655941,0.6655941 0 0 1 7.1840522,12.049257 Z"
     class="error"
     inkscape:connector-curvature="0" />
  <path
     id="path5317"
     style="stroke:none;stroke-width:3.18531"
     d="M 12.595191,9.582956 A 0.6655941,0.6655941 0 0 1 11.929597,10.24855 0.6655941,0.6655941 0 0 1 11.264002,9.582956 0.6655941,0.6655941 0 0 1 11.929597,8.9173619 0.6655941,0.6655941 0 0 1 12.595191,9.582956 Z"
     class="error"
     inkscape:connector-curvature="0" />
  <path
     id="path5319"
     style="stroke:none;stroke-width:3.18531"
     d="M 14.472524,5.4601838 A 0.6655941,0.6655941 0 0 1 13.80693,6.1257779 0.6655941,0.6655941 0 0 1 13.141336,5.4601838 0.6655941,0.6655941 0 0 1 13.80693,4.7945897 0.6655941,0.6655941 0 0 1 14.472524,5.4601838 Z"
     class="error"
     inkscape:connector-curvature="0" />
  <path
     id="path5321"
     style="stroke:none;stroke-width:3.18531"
     d="M 10.1657,3.9877652 A 0.6655941,0.6655941 0 0 1 9.5001058,4.6533593 0.6655941,0.6655941 0 0 1 8.8345117,3.9877652 0.6655941,0.6655941 0 0 1 9.5001058,3.3221711 0.6655941,0.6655941 0 0 1 10.1657,3.9877652 Z"
     class="error"
     inkscape:connector-curvature="0" />
  <path
     inkscape:connector-curvature="0"
     class="error"
     d="m 10.97553,13.705728 a 0.6655941,0.6655941 0 0 1 -0.665594,0.665594 0.6655941,0.6655941 0 0 1 -0.665594,-0.665594 0.6655941,0.6655941 0 0 1 0.665594,-0.665594 0.6655941,0.6655941 0 0 1 0.665594,0.665594 z"
     style="stroke:none;stroke-width:3.18531"
     id="path5306" />
</svg>
