<?xml version="1.0" encoding="UTF-8" standalone="no"?>
<svg
   xmlns:dc="http://purl.org/dc/elements/1.1/"
   xmlns:cc="http://creativecommons.org/ns#"
   xmlns:rdf="http://www.w3.org/1999/02/22-rdf-syntax-ns#"
   xmlns:svg="http://www.w3.org/2000/svg"
   xmlns="http://www.w3.org/2000/svg"
   xmlns:sodipodi="http://sodipodi.sourceforge.net/DTD/sodipodi-0.dtd"
   xmlns:inkscape="http://www.inkscape.org/namespaces/inkscape"
   inkscape:version="1.1-dev (1fceb22ce1, 2019-12-30, custom)"
   sodipodi:docname="lattice2-symbolic.svg"
   viewBox="0 0 16 16"
   height="16"
   width="16"
   id="svg1"
   version="1.1">
  <defs
     id="defs5399">
    <inkscape:path-effect
       only_selected="false"
       apply_with_weight="true"
       apply_no_weight="true"
       helper_size="0"
       steps="2"
       weight="33.333333"
       lpeversion="1"
       is_visible="true"
       id="path-effect6022"
       effect="bspline" />
    <inkscape:path-effect
       only_selected="false"
       apply_with_weight="true"
       apply_no_weight="true"
       helper_size="0"
       steps="2"
       weight="33.333333"
       lpeversion="1"
       is_visible="true"
       id="path-effect6018"
       effect="bspline" />
    <inkscape:path-effect
       only_selected="false"
       apply_with_weight="true"
       apply_no_weight="true"
       helper_size="0"
       steps="2"
       weight="33.333333"
       lpeversion="1"
       is_visible="true"
       id="path-effect6014"
       effect="bspline" />
    <inkscape:path-effect
       only_selected="false"
       apply_with_weight="true"
       apply_no_weight="true"
       helper_size="0"
       steps="2"
       weight="33.333333"
       lpeversion="1"
       is_visible="true"
       id="path-effect6010"
       effect="bspline" />
    <inkscape:path-effect
       only_selected="false"
       apply_with_weight="true"
       apply_no_weight="true"
       helper_size="0"
       steps="2"
       weight="33.333333"
       lpeversion="1"
       is_visible="true"
       id="path-effect5425"
       effect="bspline" />
  </defs>
  <style
     id="s0">
.success { fill:#009909; }
.warning { fill:#FF1990; }
.error { fill:#00AAFF; }
</style>
  <style
     id="s2">
@import '../../highlights.css';
</style>
  <sodipodi:namedview
     inkscape:current-layer="svg1"
     inkscape:window-maximized="1"
     inkscape:window-height="1376"
     inkscape:window-width="2560"
     inkscape:snap-global="false"
     inkscape:document-rotation="0"
     inkscape:window-y="27"
     inkscape:window-x="0"
     inkscape:cy="8.9538646"
     inkscape:cx="4.8150204"
     inkscape:zoom="27.166187"
     showgrid="true"
     id="namedview"
     guidetolerance="10"
     gridtolerance="10"
     objecttolerance="10">
    <inkscape:grid
       id="grid"
       type="xygrid" />
  </sodipodi:namedview>
  <metadata
     id="metadata1906">
    <rdf:RDF>
      <cc:Work
         rdf:about="">
        <dc:format>image/svg+xml</dc:format>
        <dc:type
           rdf:resource="http://purl.org/dc/dcmitype/StillImage" />
        <cc:license
           rdf:resource="http://creativecommons.org/publicdomain/zero/1.0/" />
        <dc:title></dc:title>
        <dc:date>13 Jan 2019</dc:date>
        <dc:creator>
          <cc:Agent>
            <dc:title>Ramón Miranda</dc:title>
          </cc:Agent>
        </dc:creator>
        <dc:rights>
          <cc:Agent>
            <dc:title>see the license tab</dc:title>
          </cc:Agent>
        </dc:rights>
        <dc:subject>
          <rdf:Bag>
            <rdf:li>icon ui</rdf:li>
          </rdf:Bag>
        </dc:subject>
        <dc:description>This is a contribution with Inkscape Project from
Ramon Miranda www.ramonmiranda.com (design and SVG file)
Jabiertxo (SVG stuff to integrate them in UI)</dc:description>
        <dc:publisher>
          <cc:Agent>
            <dc:title />
          </cc:Agent>
        </dc:publisher>
        <dc:identifier />
        <dc:source />
        <dc:relation />
        <dc:language>-</dc:language>
        <dc:coverage />
        <dc:contributor>
          <cc:Agent>
            <dc:title>Ramon Miranda
Jabier Arraiza</dc:title>
          </cc:Agent>
        </dc:contributor>
      </cc:Work>
      <cc:License
         rdf:about="http://creativecommons.org/publicdomain/zero/1.0/">
        <cc:permits
           rdf:resource="http://creativecommons.org/ns#Reproduction" />
        <cc:permits
           rdf:resource="http://creativecommons.org/ns#Distribution" />
        <cc:permits
           rdf:resource="http://creativecommons.org/ns#DerivativeWorks" />
      </cc:License>
    </rdf:RDF>
  </metadata>
  <g
     inkscape:label="latice2"
     id="layercompo"
     inkscape:groupmode="layer">
    <path
       style="opacity:0;fill:none"
       d="M 0,0 H 16 V 16 H 0 Z"
       id="rect22048" />
    <path
       style="opacity:1;"
       d="m 1.962394,3.281341 c -0.0014,-3.05e-4 -0.0028,-6.1e-4 -0.0042,-9.13e-4 -7.03e-4,-6.1e-4 -0.0014,-0.0012 -0.0021,-0.0019 -0.007,-0.0042 -0.01384,-0.0073 -0.02023,-0.009 -0.0021,-6.11e-4 -0.0042,-9.13e-4 -0.0063,-0.0012 -0.0042,-6.11e-4 -0.0078,-9.13e-4 -0.01131,-2.99e-4 -0.0035,0.0016 -0.0063,0.0035 -0.0089,0.0063 -0.0021,6.1e-4 -0.0035,0.0016 -0.0049,0.0027 -0.0028,0.0038 -0.0056,0.0088 -0.0063,0.01477 -1.4e-5,9.14e-4 -1.4e-5,0.0016 0,0.0024 -0.0014,0.0027 -0.0021,0.0059 -0.0021,0.0092 -1.75e-4,0.0027 -1.75e-4,0.0059 0,0.0089 0.0028,1.201878 2.45e-4,3.586184 2.45e-4,3.586184 -6.1e-4,0.0048 -6.1e-4,0.01021 0,0.0161 0.0035,1.200481 -2e-5,3.585227 -2e-5,3.585227 -6.12e-4,0.005 -6.12e-4,0.0105 0,0.0161 0.0028,1.19889 -2.25e-4,3.58574 -2.25e-4,3.58574 -9.2e-5,0.002 -9.2e-5,0.005 0,0.007 2.39e-4,0.006 7.03e-4,0.0108 0.0021,0.0161 6.04e-4,0.002 0.0014,0.005 0.0021,0.007 6.12e-4,0.002 0.0014,0.005 0.0021,0.007 -1.3e-5,7.1e-4 -1.3e-5,0.002 0,0.002 7.02e-4,0.002 0.0014,0.003 0.0021,0.005 0.0021,0.005 0.0056,0.01 0.0089,0.0137 0.0014,0.002 0.0028,0.004 0.0049,0.005 7.02e-4,6e-4 0.0014,0.002 0.0021,0.002 0.0056,0.005 0.01138,0.008 0.01791,0.0114 0.0042,0.003 0.0089,0.005 0.01369,0.007 0.0042,0.002 0.0088,0.002 0.01314,0.002 7.02e-4,2e-5 0.0014,2e-5 0.0021,0 0.0021,1.1e-4 0.0049,1.1e-4 0.0072,0 0.0082,0.003 0.01553,0 0.01553,0 1.286596,0.003 3.84968,-2.3e-4 3.84968,-2.3e-4 0.01286,0.003 0.02922,-10e-6 0.02922,-10e-6 1.287636,0.003 3.852539,-10e-6 3.852539,-10e-6 0.01286,0.004 0.02922,0 0.02922,0 1.286497,0.004 3.849487,2.5e-4 3.849487,2.5e-4 0.008,0.003 0.0155,0 0.0155,0 0.003,1.8e-4 0.006,1.8e-4 0.009,0 0.007,-0.002 0.0139,-0.004 0.0202,-0.007 0.002,-6.1e-4 0.005,-0.002 0.007,-0.002 0.002,-0.002 0.005,-0.003 0.007,-0.005 0.002,-0.002 0.005,-0.003 0.007,-0.005 0.005,-0.005 0.008,-0.0102 0.0114,-0.0161 0.003,-0.003 0.005,-0.006 0.007,-0.009 0.003,-0.007 0.006,-0.0132 0.007,-0.0202 0.002,-0.005 0.002,-0.009 0.003,-0.0137 1.9e-4,-0.003 2.2e-4,-0.006 7e-5,-0.009 0.007,-0.68603 0.0844,-1.35071 0.22308,-2.10298 0.12306,-0.66771 0.24454,-1.19153 0.24454,-1.19153 0.002,-0.005 0.003,-0.009 0.003,-0.0136 0.10275,-0.46533 0.23644,-1.076475 0.3268,-1.676554 0.0862,-0.572525 0.11302,-1.060378 0.11302,-1.060378 -0.058,0.02439 -0.18533,0.06247 -0.18533,0.06247 -0.034,0.518947 -0.10802,1.046051 -0.21767,1.633017 -0.0983,0.526135 -0.19016,0.940245 -0.19016,0.940245 -0.55682,-0.13318 -1.17691,-0.2621 -1.8536,-0.34921 -0.6153,-0.0792 -1.10262,-0.0974 -1.10262,-0.0974 0.006,0.0551 0.008,0.15562 0.008,0.15562 0.54866,0.0273 1.1434,0.0871 1.81994,0.20401 0.6103,0.10546 1.10012,0.22537 1.10012,0.22537 -0.11297,0.54817 -0.26136,1.24785 -0.35085,1.95525 -0.0847,0.66995 -0.0911,1.24896 -0.0911,1.24896 -0.71994,-0.005 -2.16802,-0.0169 -2.16802,-0.0169 0.007,0.0275 0.0115,0.0724 0.0115,0.0724 -0.0388,-0.0208 -0.12554,-0.073 -0.12554,-0.073 -0.48086,0.002 -1.450765,-0.004 -1.450765,-0.004 -0.0021,-0.28268 0.0028,-0.8387 0.0028,-0.8387 -0.04777,-0.0255 -0.151892,-0.0858 -0.151892,-0.0858 -0.0049,0.30421 -0.0042,0.92457 -0.0042,0.92457 -1.240419,0.005 -3.726911,0.0186 -3.726911,0.0186 -0.0021,-0.31134 -7.7e-5,-0.90997 -7.7e-5,-0.90997 -0.04839,0.029 -0.153781,0.078 -0.153781,0.078 -6.12e-4,0.27201 7.01e-4,0.83304 7.01e-4,0.83304 -1.238655,0.0119 -3.725224,0.005 -3.725224,0.005 0.0035,-1.13492 0.0076,-3.38336 0.0076,-3.38336 0.534342,0.21434 1.104302,0.33579 1.7377,0.36975 0.571458,0.0306 1.025737,-0.0139 1.025737,-0.0139 0.0149,-0.041 0.03582,-0.13008 0.03582,-0.13008 -0.502465,0.0387 -1.108587,0.0482 -1.736751,-0.0639 -0.585083,-0.10411 -1.063742,-0.31158 -1.063742,-0.31158 0.0063,-0.967505 0.0071,-2.942709 0.0071,-2.942709 -0.04468,-0.07161 -0.144468,-0.237343 -0.144468,-0.237343 0.05233,0.03965 0.144567,0.09569 0.144567,0.09569 0.0035,-0.09395 1.05e-4,-0.298963 1.05e-4,-0.298963 0.495729,0.382068 1.01985,0.623605 1.595544,0.720501 0.518683,0.08733 0.929229,0.03696 0.929229,0.03696 C 5.007158,7.798587 5.829501,7.496354 5.829501,7.496354 5.168645,7.675879 4.339721,7.844755 3.507327,7.664086 2.727804,7.494886 2.063592,6.966184 2.063592,6.966184 2.066385,5.834164 2.048985,3.503494 2.048985,3.503494 2.761363,4.04135 3.47339,4.095201 4.277139,3.836224 5.003921,3.601862 5.574564,3.245571 5.574564,3.245571 c 0.14661,0.949209 0.257087,1.884225 0.323172,2.79678 0.05964,0.82374 0.06687,1.399442 0.06687,1.399442 C 6.020096,7.422553 6.12171,7.376123 6.12171,7.376123 6.10696,6.727837 6.062988,5.915744 5.954842,4.929769 5.855386,4.022961 5.717655,3.168588 5.717655,3.168588 6.03109,3.001738 6.437113,2.776276 6.831489,2.582203 7.207356,2.397236 7.512996,2.275512 7.512996,2.275512 7.525424,2.2027 7.537155,2.04404 7.537155,2.04404 c 0.0399,0.06457 0.106564,0.180805 0.106564,0.180805 0.316703,-0.116411 0.672473,-0.22643 1.069962,-0.296862 0.361847,-0.06412 0.6573,-0.07291 0.6573,-0.07291 0.263178,1.010451 0.459449,2.017052 0.574282,3.025052 0.103547,0.909038 0.112157,1.560961 0.112157,1.560961 0.37057,0.03426 1.11084,0.169528 1.11084,0.169528 0.60747,0.04219 1.27372,0.157321 2.0338,0.398151 0.68734,0.217787 1.24065,0.471966 1.24065,0.471966 0.002,0.153511 -0.013,0.435901 -0.013,0.435901 0.0618,0.03649 0.17562,0.09746 0.17562,0.09746 0.0129,-0.167232 0.0156,-0.523476 0.0156,-0.523476 6.7e-4,-0.005 6.7e-4,-0.01045 4e-5,-0.01611 0.003,-0.659688 -0.064,-1.473947 -0.31106,-2.445143 -0.22699,-0.892057 -0.5749,-1.717754 -0.5749,-1.717754 -0.002,-0.003 -0.002,-0.0059 -0.004,-0.0089 -0.003,-0.0065 -0.007,-0.0134 -0.0103,-0.02039 -4.4e-4,-0.0012 -7e-4,-0.0021 -0.002,-0.0033 -0.002,-0.0035 -0.005,-0.0071 -0.007,-0.01069 -0.002,-0.0034 -0.004,-0.0068 -0.006,-0.01026 -0.005,-0.0079 -0.0101,-0.01593 -0.0157,-0.0239 -0.007,-0.0081 -0.0125,-0.01605 -0.0191,-0.02367 -0.002,-0.0019 -0.003,-0.0034 -0.005,-0.005 -7e-4,-0.0012 -0.002,-0.0024 -0.003,-0.0038 -0.004,-0.004 -0.007,-0.0079 -0.0107,-0.01168 -0.004,-0.0035 -0.007,-0.0071 -0.01,-0.01046 -0.009,-0.0091 -0.0181,-0.01739 -0.0268,-0.02441 -7e-4,-6.11e-4 -0.002,-0.0012 -0.003,-0.0019 -0.005,-0.0042 -0.009,-0.008 -0.0141,-0.01151 0.002,0.0042 -0.01,-0.0064 -0.01,-0.0064 C 12.78567,2.619057 11.88248,2.105778 10.92762,1.828794 10.05771,1.576451 9.39411,1.612966 9.39411,1.612966 9.393408,1.617807 9.378097,1.613272 9.378097,1.613272 8.604973,1.632348 7.852768,1.833057 6.979752,2.248264 6.203207,2.617588 5.616683,2.975619 5.616683,2.975619 c -0.0014,0.0057 -0.01433,0.008 -0.01433,0.008 C 4.979701,3.332048 4.153531,3.788659 3.373411,3.798674 2.984204,3.803662 2.66236,3.702363 2.39473,3.563764 2.137818,3.430714 1.978458,3.293635 1.978458,3.293635 c -0.0021,-0.0019 -0.0042,-0.0035 -0.0063,-0.0051 -0.0028,-0.0024 -0.0056,-0.0048 -0.0089,-0.007 0,0 -6.11e-4,-2.53e-4 -6.11e-4,-2.53e-4 m 12.642973,4.73284 c 0.003,0.01788 -0.002,0.04031 -0.002,0.04031 0.0191,-6.05e-4 0.0473,-0.01508 0.0473,-0.01508 -0.015,-0.0084 -0.0299,-0.01685 -0.0449,-0.02523 z M 14.42993,7.916655 C 13.81829,7.581477 13.12684,7.238597 12.38287,6.967954 11.70351,6.720813 11.16845,6.610635 11.16845,6.610635 c -0.31213,-0.01722 -0.93882,-0.005 -0.93882,-0.005 0.0179,0.751039 -0.0116,1.496052 -0.0776,2.318286 -0.0589,0.734654 -0.12287,1.309929 -0.12287,1.309929 0.34254,-0.007 1.02406,0.008 1.02406,0.008 -0.002,-0.0813 -0.0141,-0.253875 -0.0141,-0.253875 0.61489,-0.45549 1.32046,-0.928296 2.10233,-1.325146 0.71315,-0.361965 1.27624,-0.545806 1.27624,-0.545806 0.005,-0.06638 0.008,-0.133084 0.0121,-0.200208 z M 10.05757,6.441017 C 9.672116,5.698533 9.240862,4.931524 8.64822,3.922236 8.123108,3.027955 7.643865,2.224769 7.643865,2.224769 7.604248,2.244851 7.513101,2.275435 7.513101,2.275435 7.3905,3.413707 7.159761,4.564419 6.816444,5.674708 6.506273,6.677809 6.200705,7.342647 6.200705,7.342647 c -0.02311,0.01346 -0.0789,0.0334 -0.0789,0.0334 0.0035,0.01478 7.02e-4,0.03753 7.02e-4,0.03753 C 7.512996,7.006697 8.586434,6.552842 10.05734,6.441015 Z M 5.964705,7.441716 c -0.04193,0.02073 -0.135062,0.05437 -0.135062,0.05437 0.04833,-0.0099 0.135469,-0.03728 0.135469,-0.03728 0,7e-6 -3.1e-4,-0.01709 -3.1e-4,-0.01709 z M 4.588522,7.874844 C 4.137101,7.962636 3.602373,7.996775 3.029995,7.845798 2.502734,7.706718 2.063641,7.416339 2.063641,7.416339 c 0.0035,0.05274 -9.7e-5,0.141647 -9.7e-5,0.141647 0.58271,0.934397 1.174482,1.623658 1.830125,2.211069 0.579261,0.518985 1.038253,0.830755 1.038253,0.830755 -0.02262,0.0949 -0.07671,0.27635 -0.07671,0.27635 0.342986,-0.023 1.021402,-0.11642 1.021402,-0.11642 0.03182,-0.52265 0.07134,-1.206915 0.08785,-1.899992 0.01567,-0.658967 0.0035,-1.245214 0.0035,-1.245214 -0.457932,0.125364 -0.920429,0.22686 -1.379759,0.26031 z m 0.230907,3.131396 c -0.147039,0.53792 -0.317348,1.15365 -0.481119,1.83761 -0.150502,0.62858 -0.257045,1.17023 -0.257045,1.17023 0.565754,-0.26017 1.691502,-0.81726 1.691502,-0.81726 0.01397,-0.82782 0.09622,-2.30523 0.09622,-2.30523 -0.348944,0.0487 -0.700507,0.0903 -1.049563,0.11465 z m 1.107119,2.11255 c 0.604781,-0.3035 1.859361,-0.98308 1.859361,-0.98308 0.624582,0.27717 1.871926,0.94982 1.871926,0.94982 0.0288,-0.95113 0.195724,-2.6923 0.195724,-2.6923 -0.767251,0.0316 -1.494149,0.1158 -2.405496,0.25532 -0.794118,0.12157 -1.423716,0.22088 -1.423716,0.22088 -0.04299,0.72725 -0.08542,1.45586 -0.0978,2.24936 z m 3.88318,0.0526 c 0.479672,0.27403 1.447822,0.842 1.447822,0.842 0.0411,0.004 0.11398,6e-4 0.11398,6e-4 -0.11444,-0.73836 -0.18323,-1.46205 -0.23639,-2.29557 -0.0471,-0.73786 -0.0737,-1.32118 -0.0737,-1.32118 -0.34818,-0.0131 -1.04765,-0.009 -1.04765,-0.009 -0.09076,0.90363 -0.180323,1.8086 -0.204002,2.7835 z M 9.530324,1.8512 c 0.743096,-0.0028 1.552346,0.158748 2.510796,0.590684 0.86499,0.389819 1.55959,0.854507 1.55959,0.854507 0.35214,0.885663 0.60479,1.767158 0.73638,2.654403 0.11854,0.799308 0.10585,1.375013 0.10585,1.375013 C 13.63265,6.964728 12.74355,6.649255 11.77868,6.504564 10.90448,6.373471 10.22505,6.430062 10.22505,6.430062 10.18459,5.106617 9.998258,3.628392 9.530324,1.8512 Z M 6.126059,7.570397 c 0.01405,0.668591 0.0014,1.325212 -0.03154,2.035928 -0.02929,0.635555 -0.0623,1.130395 -0.0623,1.130395 0.632814,-0.0942 1.582717,-0.26734 2.38405,-0.36982 0.801618,-0.10252 1.452386,-0.12753 1.452386,-0.12753 0.06146,-0.611045 0.139555,-1.406593 0.175805,-2.204686 0.0344,-0.75833 0.0178,-1.418296 0.0178,-1.418296 C 8.590756,6.727575 7.519039,7.172941 6.126109,7.570397 Z"
       id="path9609" />
  </g>
  <path
     sodipodi:nodetypes="ssssccccccsscccssccccscccccccsccscccsccsscsscccccsccccscsccscscsccccccccccsccccccscccc"
     inkscape:connector-curvature="0"
     class="error"
     d="m 9.5996094,1.625 c -0.204103,0.00104 -0.4127227,0.014511 -0.625,0.042969 C 7.2763393,1.8956355 5.411405,3.061663 4.2558594,3.4570312 3.6781712,3.6546866 3.2784681,3.6652939 2.9589844,3.5957031 2.6395007,3.5261123 2.3914735,3.3703428 2.125,3.2011719 l -0.2285156,-0.1445313 -0.00195,0.2714844 -0.056641,10.919922 12.0234374,0.07422 0.01758,-0.13086 c 0.134972,-1.006152 0.269865,-2.006807 0.501953,-3.179687 0.232086,-1.1728695 0.567046,-2.5322126 0.523438,-3.855469 -0.04361,-1.3233291 -0.46758,-2.5790737 -0.884766,-3.8183594 l -0.01172,-0.033203 -0.02344,-0.023437 c 0,0 -0.389182,-0.3871885 -1.125,-0.7519531 C 12.231821,2.2182021 11.02833,1.6177336 9.5996094,1.625 Z m 0.00195,0.2988281 c 1.3442275,-0.00601 2.4974475,0.5619521 3.1249995,0.8730469 0.681405,0.3377899 1.002863,0.6611931 1.019532,0.6777344 0.408518,1.2138098 0.807833,2.4174544 0.855468,3.65625 -0.703523,-0.2260911 -1.407711,-0.4457888 -2.074218,-0.578125 -0.741231,-0.1471726 -1.433043,-0.1824995 -2.183594,-0.125 -0.0015,-0.094908 0.0052,-0.1982508 0.002,-0.2910156 C 10.287043,4.458619 9.9252493,3.1774705 9.5527344,1.9277344 c 0.016068,-2.356e-4 0.032814,-0.00383 0.048828,-0.00391 z m -0.3535156,0.025391 c 0.3783772,1.2672205 0.7405252,2.5313508 0.7988281,4.1992187 0.0035,0.099821 -0.0033,0.2118587 -0.002,0.3144531 C 9.3485963,6.5370036 8.6105166,6.6750838 7.828125,6.8789062 7.2642423,7.0258045 6.686077,7.1907195 6.09375,7.3046875 6.0331658,5.8529036 5.9201674,4.4744804 5.7910156,3.1230469 6.813139,2.6469286 7.9629524,2.105963 9.015625,1.9648438 9.0945055,1.9542692 9.1701539,1.9555052 9.2480469,1.9492188 Z M 5.5019531,3.2558594 C 5.6290269,4.5873966 5.7391448,5.9402533 5.796875,7.3632812 5.5651959,7.3989654 4.2995714,7.6086638 4.063057,7.6176461 3.1398395,7.6527078 3.1793311,7.261693 2.1757812,7.046875 L 2.1933594,3.5625 C 2.4048441,3.6900072 2.6105993,3.8283527 2.8964844,3.890625 3.2754041,3.9731623 3.7387618,4.0610029 4.3535156,3.8506658 4.6937415,3.734258 5.0862195,3.4477373 5.5019531,3.2558594 Z m 5.9003909,3.4550781 c 0.351597,0.019694 0.701524,0.064271 1.066406,0.1367187 0.670287,0.1330866 1.396247,0.3605294 2.126953,0.5957032 -0.008,1.1090963 -0.257056,2.2505444 -0.46875,3.2949216 -1.190954,-0.192447 -1.539047,-0.495196 -2.659218,-0.544024 -0.173,-0.0075 -1.179383,0.117461 -1.348594,0.11629 0.111675,-1.1263232 0.220235,-2.3666308 0.222656,-3.5839845 0.365402,-0.029001 0.714053,-0.035033 1.060547,-0.015625 z m -1.359375,0.054687 c -0.0054,1.1964129 -0.1135018,2.4279137 -0.2246096,3.548828 -0.8362678,0.01093 -1.6469607,0.06664 -2.4472656,0.150391 -0.4214693,0.0441 -0.838342,0.08647 -1.25,0.125 C 6.139824,9.774887 6.1540276,8.9646115 6.1386719,8.1953125 6.1346138,7.9920101 6.116271,7.8087097 6.109375,7.609375 6.7361014,7.4926287 7.3356937,7.3180498 7.9042969,7.1699219 8.6645832,6.9718581 9.3757713,6.8389737 10.042969,6.765625 Z M 2.1738281,7.3515625 c 0.9845945,0.2106089 0.909018,0.5643745 1.8641372,0.5281013 0.2391575,-0.00908 1.5413763,-0.1813268 1.7725816,-0.2156013 0.00612,0.1829138 0.023627,0.3508899 0.027344,0.5371094 0.015475,0.7752847 0.0014,1.5931571 -0.017578,2.4179691 -0.5134511,0.04358 -1.0046772,0.07241 -1.4492187,0.06641 C 3.5323117,10.67421 2.8482723,10.540449 2.1582031,10.400391 Z m 8.4335939,3.2519535 c 1.092781,0.04763 2.276964,0.237728 3.464844,0.429687 -0.214267,1.098247 -0.342364,2.046988 -0.46875,2.988281 L 9.9042969,13.998047 C 9.893879,13.409986 9.8900239,12.790783 10.007812,11.5 c 0.02244,-0.24587 0.05535,-0.60333 0.08399,-0.890625 0.173393,8.52e-4 0.338521,-0.01358 0.515625,-0.0059 z m -0.8164064,0.0098 c -0.027537,0.276808 -0.060211,0.620256 -0.082031,0.859375 -0.1182563,1.295902 -0.1139656,1.933493 -0.1035156,2.523438 l -3.5996094,-0.02344 c 0.044252,-1.036452 0.086406,-2.068684 0.1132812,-3.082031 0.4235615,-0.03912 0.8530171,-0.08194 1.2832032,-0.126953 0.7894076,-0.08261 1.5787515,-0.137862 2.3886718,-0.150391 z M 2.15625,10.703125 c 0.6749082,0.136533 1.366063,0.269832 2.2109375,0.28125 0.451806,0.0061 0.9424118,-0.02212 1.4511719,-0.06445 -0.026559,1.00187 -0.067485,2.025216 -0.1113282,3.052734 l -3.5683593,-0.02344 z"
     style="color:#000000"
     id="path6042" />
</svg>
