<?xml version="1.0" encoding="UTF-8" standalone="no"?>
<svg
   xmlns:dc="http://purl.org/dc/elements/1.1/"
   xmlns:cc="http://creativecommons.org/ns#"
   xmlns:rdf="http://www.w3.org/1999/02/22-rdf-syntax-ns#"
   xmlns:svg="http://www.w3.org/2000/svg"
   xmlns="http://www.w3.org/2000/svg"
   xmlns:sodipodi="http://sodipodi.sourceforge.net/DTD/sodipodi-0.dtd"
   xmlns:inkscape="http://www.inkscape.org/namespaces/inkscape"
   inkscape:version="1.1-dev (6039630, 2019-12-20)"
   sodipodi:docname="layer-top-symbolic.svg"
   viewBox="0 0 16 16"
   height="16"
   width="16"
   id="svg1"
   version="1.1">
  <metadata
     id="metadata8081">
    <rdf:RDF>
      <cc:Work
         rdf:about="">
        <dc:format>image/svg+xml</dc:format>
        <dc:type
           rdf:resource="http://purl.org/dc/dcmitype/StillImage" />
      </cc:Work>
    </rdf:RDF>
  </metadata>
  <defs
     id="defs8079" />
  <style
     id="s0">
.success { fill:#009909; }
.warning { fill:#FF1990; }
.error { fill:#00AAFF; }
</style>
  <style
     id="s2">
@import '../../highlights.css';
</style>
  <sodipodi:namedview
     inkscape:document-rotation="0"
     inkscape:current-layer="svg1"
     inkscape:window-maximized="1"
     inkscape:window-y="-6"
     inkscape:window-x="65"
     inkscape:window-height="890"
     inkscape:window-width="1296"
     inkscape:cy="8"
     inkscape:cx="8"
     inkscape:zoom="43.25"
     showgrid="true"
     id="namedview"
     guidetolerance="10"
     gridtolerance="10"
     objecttolerance="10">
    <inkscape:grid
       id="grid"
       type="xygrid" />
  </sodipodi:namedview>
  <g
     id="layer-top"
     inkscape:label="00050"
     transform="matrix(1,0,0,0.999999,-105,-687.36132)">
    <path
       style="opacity:0;fill:none"
       d="m 106,687.36218 h 14 c 0.554,0 1,0.446 1,1 v 14 c 0,0.554 -0.446,1 -1,1 h -14 c -0.554,0 -1,-0.446 -1,-1 v -14 c 0,-0.554 0.446,-1 1,-1 z"
       id="rect19770"
       inkscape:connector-curvature="0" />
    <path
       id="path19772"
       transform="translate(0,512.3622)"
       d="m 109,184 -1,1 -2,2 h 5 v -1 -1 -1 z m 6,0 v 1 1 1 h 2 l 3,-3 z"
       style="opacity:0.5"
       inkscape:connector-curvature="0" />
    <path
       style="opacity:1"
       d="m 106,690.3622 3,-3 h 11 l -3,3 z"
       id="path19774"
       inkscape:connector-curvature="0" />
    <path
       class="success"
       inkscape:connector-curvature="0"
       id="path19776"
       d="m 112,701.3622 h 2 v -7 h 2 l -3,-2.9883 -3,2.9883 h 2 z"
       style="opacity:1" />
    <path
       inkscape:connector-curvature="0"
       id="path19778"
       transform="translate(0,512.3622)"
       d="m 109,188 -3,3 h 11 l 3,-3 h -5 v 2 h -4 v -2 z"
       style="opacity:0.5" />
  </g>
</svg>
