<?xml version="1.0" encoding="UTF-8" standalone="no"?>
<svg
   xmlns:dc="http://purl.org/dc/elements/1.1/"
   xmlns:cc="http://creativecommons.org/ns#"
   xmlns:rdf="http://www.w3.org/1999/02/22-rdf-syntax-ns#"
   xmlns:svg="http://www.w3.org/2000/svg"
   xmlns="http://www.w3.org/2000/svg"
   xmlns:sodipodi="http://sodipodi.sourceforge.net/DTD/sodipodi-0.dtd"
   xmlns:inkscape="http://www.inkscape.org/namespaces/inkscape"
   inkscape:version="1.1-dev (6039630, 2019-12-20)"
   sodipodi:docname="layer-rename-symbolic.svg"
   viewBox="0 0 16 16"
   height="16"
   width="16"
   id="svg1"
   version="1.1">
  <metadata
     id="metadata7504">
    <rdf:RDF>
      <cc:Work
         rdf:about="">
        <dc:format>image/svg+xml</dc:format>
        <dc:type
           rdf:resource="http://purl.org/dc/dcmitype/StillImage" />
      </cc:Work>
    </rdf:RDF>
  </metadata>
  <defs
     id="defs7502" />
  <style
     id="s0">
.success { fill:#009909; }
.warning { fill:#FF1990; }
.error { fill:#00AAFF; }
</style>
  <style
     id="s2">
@import '../../highlights.css';
</style>
  <sodipodi:namedview
     inkscape:document-rotation="0"
     inkscape:current-layer="svg1"
     inkscape:window-maximized="1"
     inkscape:window-y="-6"
     inkscape:window-x="65"
     inkscape:window-height="890"
     inkscape:window-width="1296"
     inkscape:cy="8"
     inkscape:cx="8"
     inkscape:zoom="43.25"
     showgrid="true"
     id="namedview"
     guidetolerance="10"
     gridtolerance="10"
     objecttolerance="10">
    <inkscape:grid
       id="grid"
       type="xygrid" />
  </sodipodi:namedview>
  <g
     id="layer-rename"
     inkscape:label="00043"
     transform="translate(-105,-547.36218)">
    <path
       style="opacity:0;fill:none"
       d="m 106,547.36218 h 14 c 0.554,0 1,0.446 1,1 v 14 c 0,0.554 -0.446,1 -1,1 h -14 c -0.554,0 -1,-0.446 -1,-1 v -14 c 0,-0.554 0.446,-1 1,-1 z"
       id="rect11721"
       inkscape:connector-curvature="0" />
    <path
       inkscape:connector-curvature="0"
       id="path11723"
       d="m 106,561.3622 3,-3 h 11 l -3,3 z"
       style="opacity:1" />
    <path
       class="success"
       inkscape:connector-curvature="0"
       id="rect11733"
       d="m 107,548.3622 h 1 l 0.5,0.625 0.5,-0.625 h 1 v 1 h -3 z"
       style="opacity:1" />
    <path
       class="success"
       style="opacity:1"
       d="m 108,549.36218 h 1 v 6 h -1 z"
       id="rect11735"
       inkscape:connector-curvature="0" />
    <path
       class="success"
       style="opacity:1"
       d="m 107,556.3622 h 1 l 0.5,-0.625 0.5,0.625 h 1 v -1 h -3 z"
       id="path11759"
       inkscape:connector-curvature="0" />
    <path
       class="success"
       id="path19245"
       transform="translate(0,512.3622)"
       d="m 116,37 c 0,5.11459 7e-4,2.60737 0.0313,5.5625 V 43 h 0.4687 2.2813 c 1.6808,0.0687 1.6051,-4.12511 -0.0313,-4 -0.0116,8.8e-4 -0.0195,-10e-4 -0.0312,0 H 117 v -2 z m 1,3 h 1.8125 0.0313 0.0312 c 0.3678,-0.0382 0.4346,2.0178 0,2 H 118.8438 117 c -0.006,-0.47556 0.004,-1.85303 0,-2 z"
       style="opacity:1"
       inkscape:connector-curvature="0" />
    <path
       class="success"
       inkscape:connector-curvature="0"
       id="path19243"
       d="m 111.9932,550.3934 v 1.0313 c 0.512,2e-4 0.9559,0 1.4108,-10e-5 0.8077,0.009 0.6177,0.8804 0.5958,0.9376 h -2 v 0 c -1.5205,0.0706 -1.625,3 0,3 l 2.5302,0.0313 h 0.4385 v -0.4375 l 0.0313,-3.1563 c 0,-0.3704 -0.1023,-0.716 -0.3132,-0.9687 -0.2108,-0.2528 -0.5303,-0.4054 -0.8457,-0.4375 h -0.0313 -1.8166 z m 0.1879,2.9688 h 0.0313 0.0313 H 114 v 1 h -1.848 -0.0313 c -0.3753,-0.0127 -0.342,-1.0403 0.0604,-1 z"
       style="opacity:1" />
  </g>
</svg>
