<?xml version="1.0" encoding="UTF-8" standalone="no"?>
<svg
   xmlns:dc="http://purl.org/dc/elements/1.1/"
   xmlns:cc="http://creativecommons.org/ns#"
   xmlns:rdf="http://www.w3.org/1999/02/22-rdf-syntax-ns#"
   xmlns:svg="http://www.w3.org/2000/svg"
   xmlns="http://www.w3.org/2000/svg"
   xmlns:sodipodi="http://sodipodi.sourceforge.net/DTD/sodipodi-0.dtd"
   xmlns:inkscape="http://www.inkscape.org/namespaces/inkscape"
   inkscape:version="1.0beta0 (1d85f8e, 2019-09-11)"
   sodipodi:docname="node-type-auto-smooth-symbolic.svg"
   viewBox="0 0 16 16"
   height="16"
   width="16"
   id="svg1"
   version="1.1">
<style id="s0">
   .success { fill: #009909; }
   .warning { fill: #FF1990; }
   .error   { fill: #00AAFF; }
  </style>
  <style id="s2"> 
     @import '../../highlights.css'; 
  </style>
   
  <metadata
     id="metadata2052">
    <rdf:RDF>
      <cc:Work
         rdf:about="">
        <dc:format>image/svg+xml</dc:format>
        <dc:type
           rdf:resource="http://purl.org/dc/dcmitype/StillImage" />
      </cc:Work>
    </rdf:RDF>
  </metadata>
  <defs
     id="defs2050" />
  <sodipodi:namedview
     inkscape:document-rotation="0"
     inkscape:current-layer="node-type-auto-smooth"
     inkscape:window-maximized="1"
     inkscape:window-y="-8"
     inkscape:window-x="54"
     inkscape:window-height="1177"
     inkscape:window-width="1858"
     inkscape:cy="15.946079"
     inkscape:cx="16.339681"
     inkscape:zoom="13.583094"
     showgrid="true"
     id="namedview"
     guidetolerance="10"
     gridtolerance="10"
     objecttolerance="10">
    <inkscape:grid
       id="grid"
       type="xygrid" />
  </sodipodi:namedview>
  <g
     inkscape:label="00204"
     id="node-type-auto-smooth"
     transform="matrix(0.998641,0,0,1,-648.09632,-558.36218)">
    <path
       style="opacity:0;fill:none"
       d="m 649,558.36218 h 16 v 16 h -16 z"
       id="rect16805"
       inkscape:connector-curvature="0" />
    <path
       id="path16803"
       style="opacity:1"
       d="m 664.3125,559.2812 a 0.5140439,0.5140439 0 0 0 -0.4063,0.5938 c 0.2334,1.6021 -0.061,3.7479 -1.125,5.4375 -1.0643,1.6896 -2.8444,2.9687 -5.875,2.9687 -3.034,0 -4.799,-1.2228 -5.8125,-2.875 -1.0134,-1.6521 -1.2297,-3.7672 -0.9687,-5.375 a 0.52410303,0.52410303 0 1 0 -1.0313,-0.1875 c -0.2977,1.834 -0.053,4.1734 1.125,6.0938 1.178,1.9204 3.3613,3.375 6.6875,3.375 3.3297,0 5.5234,-1.4902 6.75,-3.4375 1.2267,-1.9473 1.518,-4.2854 1.25,-6.125 a 0.5140439,0.5140439 0 0 0 -0.5937,-0.4688 z"
       inkscape:connector-curvature="0" />
    <path
       class="warning"
       transform="matrix(1.5,0,0,1.5,-328.5,482.8622)"
       style="opacity:1"
       d="m 659,57 a 2,2 0 0 1 -2,2 2,2 0 0 1 -2,-2 2,2 0 0 1 2,-2 2,2 0 0 1 2,2 z"
       id="path16809"
       inkscape:connector-curvature="0" />
  </g>
</svg>
