<?xml version="1.0" encoding="UTF-8" standalone="no"?>
<svg xmlns:dc="http://purl.org/dc/elements/1.1/" xmlns:cc="http://creativecommons.org/ns#" xmlns:rdf="http://www.w3.org/1999/02/22-rdf-syntax-ns#" xmlns:svg="http://www.w3.org/2000/svg" xmlns="http://www.w3.org/2000/svg" xmlns:sodipodi="http://sodipodi.sourceforge.net/DTD/sodipodi-0.dtd" xmlns:inkscape="http://www.inkscape.org/namespaces/inkscape" id="svg1" width="16" height="16.0164" version="1.1" sodipodi:docname="node_insert_min_y-symbolic.svg" inkscape:version="0.92.4 (5da689c313, 2019-01-14)">
<style id="s0">
   .success { fill: #009909; }
   .warning { fill: #FF1990; }
   .error   { fill: #00AAFF; }
  </style>
  <style id="s2"> 
     @import '../../highlights.css'; 
  </style>


   
<metadata id="metadata10">
<rdf:RDF>
<cc:Work rdf:about="">
<dc:format>image/svg+xml</dc:format>
<dc:type rdf:resource="http://purl.org/dc/dcmitype/StillImage" />
</cc:Work>
</rdf:RDF>
</metadata>
<sodipodi:namedview id="base" showgrid="true" inkscape:zoom="14.7349" inkscape:cx="-7.812801" inkscape:cy="7.736735" inkscape:window-width="1280" inkscape:window-height="960" inkscape:window-x="0" inkscape:window-y="27" inkscape:window-maximized="1" inkscape:current-layer="svg1">
<inkscape:grid id="GridFromPre046Settings" type="xygrid" originx="0pt" originy="0pt" spacingx="1pt" spacingy="1pt" color="#3f3fff" empcolor="#3f3fff" opacity="0.15" empopacity="0.38" empspacing="5" />
</sodipodi:namedview>
<defs id="defs3" />
<g id="node_insert_min_y" transform="translate(45,-174.9836)">
<rect height="16" id="rect6115" style="fill:none" width="16" x="-45" y="175" />
<path style="opacity:1" d="m -29.49609,174.9766 a 0.5000502,0.5000502 0 0 0 -0.43946,0.2597 c 0,0 -0.4355,0.7794 -1.54883,1.6035 C -32.5977,177.664 -34.35656,178.5 -37,178.5 c -2.64344,0 -4.4023,-0.836 -5.51562,-1.6602 -1.11333,-0.8241 -1.54883,-1.6035 -1.54883,-1.6035 a 0.5007616,0.5007616 0 1 0 -0.8711,0.4942 c 0,0 0.5645,0.98 1.82617,1.914 1.26168,0.934 3.25282,1.8555 6.10938,1.8555 2.85656,0 4.8477,-0.9215 6.10938,-1.8555 1.26167,-0.934 1.82617,-1.914 1.82617,-1.914 a 0.5000502,0.5000502 0 0 0 -0.43164,-0.7539 z" id="path6117" inkscape:connector-curvature="0" />
<path style="opacity:1" d="m -39.50586,176 a 0.50005,0.50005 0 0 0 -0.5,0.5 v 4.9766 a 0.50005,0.50005 0 0 0 0.5,0.5 H -34.5 a 0.50005,0.50005 0 0 0 0.5,-0.5 V 176.5 a 0.50005,0.50005 0 0 0 -0.5,-0.5 z m 0.5,1 H -35 v 3.9766 h -4.00586 z" id="rect6119" inkscape:connector-curvature="0" />
<path d="M -38,183 -36,183 -36,186 -33,186 -33,188 -36,188 -36,191 -38,191 -38,188 -41,188 -41,186 -38,186 -38,183 Z" id="path6121" inkscape:connector-curvature="0" style="fill-rule:evenodd" />
<rect y="176.5" x="-39.506" width="5.006001" style="color:#000000;fill-opacity:1;fill-rule:evenodd;stroke:none;stroke-miterlimit:0;opacity:0.1380952" id="rect4928" height="4.975991" />
</g>
</svg>
