<?xml version="1.0" encoding="UTF-8" standalone="no"?>
<svg xmlns:dc="http://purl.org/dc/elements/1.1/" xmlns:cc="http://creativecommons.org/ns#" xmlns:rdf="http://www.w3.org/1999/02/22-rdf-syntax-ns#" xmlns:svg="http://www.w3.org/2000/svg" xmlns="http://www.w3.org/2000/svg" xmlns:sodipodi="http://sodipodi.sourceforge.net/DTD/sodipodi-0.dtd" xmlns:inkscape="http://www.inkscape.org/namespaces/inkscape" id="svg1" width="16.0164" height="16" version="1.1" sodipodi:docname="node_insert_max_x-symbolic.svg" inkscape:version="0.92.4 (5da689c313, 2019-01-14)">
<style id="s0">
   .success { fill: #009909; }
   .warning { fill: #FF1990; }
   .error   { fill: #00AAFF; }
  </style>
  <style id="s2"> 
     @import '../../highlights.css'; 
  </style>


   
<metadata id="metadata10">
<rdf:RDF>
<cc:Work rdf:about="">
<dc:format>image/svg+xml</dc:format>
<dc:type rdf:resource="http://purl.org/dc/dcmitype/StillImage" />
</cc:Work>
</rdf:RDF>
</metadata>
<sodipodi:namedview id="base" showgrid="true" inkscape:zoom="14.75" inkscape:cx="-7.78841" inkscape:cy="7.728814" inkscape:window-width="1280" inkscape:window-height="960" inkscape:window-x="0" inkscape:window-y="27" inkscape:window-maximized="1" inkscape:current-layer="svg1">
<inkscape:grid id="GridFromPre046Settings" type="xygrid" originx="0pt" originy="0pt" spacingx="1pt" spacingy="1pt" color="#3f3fff" empcolor="#3f3fff" opacity="0.15" empopacity="0.38" empspacing="5" />
</sodipodi:namedview>
<defs id="defs3" />
<g id="node_insert_max_x" transform="matrix(0,1,1,0,-174.9836,45)">
<rect height="16" id="rect6137" style="fill:none" width="16" x="-45" y="175" />
<path style="opacity:1;" d="m -29.49609,174.9766 a 0.5000502,0.5000502 0 0 0 -0.43946,0.2597 c 0,0 -0.43377,0.7776 -1.54492,1.5996 -1.11114,0.8221 -2.86803,1.6563 -5.51172,1.6563 -2.64369,0 -4.40404,-0.8338 -5.51953,-1.6563 -1.11548,-0.8224 -1.55469,-1.6015 -1.55469,-1.6015 a 0.5000502,0.5000502 0 1 0 -0.86718,0.498 c 0,0 0.56451,0.9766 1.82812,1.9082 1.26362,0.9317 3.25697,1.8516 6.11328,1.8516 2.85631,0 4.84572,-0.9196 6.10547,-1.8516 1.25976,-0.932 1.82227,-1.9101 1.82227,-1.9101 a 0.5000502,0.5000502 0 0 0 -0.43164,-0.7539 z" id="path6139" inkscape:connector-curvature="0" />
<path style="opacity:0.3921569;" d="m -39.4918,176.5158 h 5.006 v 4.976 h -5.006 z" id="rect6141" />
<path d="M -38,183 -36,183 -36,186 -33,186 -33,188 -36,188 -36,191 -38,191 -38,188 -41,188 -41,186 -38,186 -38,183 Z" id="path6143" inkscape:connector-curvature="0" style="fill-rule:evenodd" />
<path style="opacity:1;" d="m -39.99219,176.0156 v 0.5 5.4766 h 6.00586 v -5.9766 z m 1,1 h 4.00586 v 3.9766 h -4.00586 z" id="rect4926" inkscape:connector-curvature="0" />
</g>
</svg>
