<?xml version="1.0" encoding="UTF-8" standalone="no"?>
<svg xmlns:dc="http://purl.org/dc/elements/1.1/" xmlns:cc="http://creativecommons.org/ns#" xmlns:rdf="http://www.w3.org/1999/02/22-rdf-syntax-ns#" xmlns:svg="http://www.w3.org/2000/svg" xmlns="http://www.w3.org/2000/svg" xmlns:sodipodi="http://sodipodi.sourceforge.net/DTD/sodipodi-0.dtd" xmlns:inkscape="http://www.inkscape.org/namespaces/inkscape" id="svg1" width="16" height="16.0164" version="1.1" sodipodi:docname="node_insert_max_y-symbolic.svg" inkscape:version="0.92.4 (5da689c313, 2019-01-14)">
<style id="s0">
   .success { fill: #009909; }
   .warning { fill: #FF1990; }
   .error   { fill: #00AAFF; }
  </style>
  <style id="s2"> 
     @import '../../highlights.css'; 
  </style>


   
<metadata id="metadata10">
<rdf:RDF>
<cc:Work rdf:about="">
<dc:format>image/svg+xml</dc:format>
<dc:type rdf:resource="http://purl.org/dc/dcmitype/StillImage" />
</cc:Work>
</rdf:RDF>
</metadata>
<sodipodi:namedview id="base" showgrid="true" inkscape:zoom="14.7349" inkscape:cx="-7.812801" inkscape:cy="7.736735" inkscape:window-width="1280" inkscape:window-height="960" inkscape:window-x="0" inkscape:window-y="27" inkscape:window-maximized="1" inkscape:current-layer="svg1">
<inkscape:grid id="GridFromPre046Settings" type="xygrid" originx="0pt" originy="0pt" spacingx="1pt" spacingy="1pt" color="#3f3fff" empcolor="#3f3fff" opacity="0.15" empopacity="0.38" empspacing="5" />
</sodipodi:namedview>
<defs id="defs3" />
<g id="node_insert_max_y" transform="matrix(1,0,0,-1,45,191)">
<rect height="16" id="rect6085" style="color:#000000;fill:none" width="16" x="-45" y="175" />
<path style="opacity:1" d="m -29.49414,174.9766 a 0.5000502,0.5000502 0 0 0 -0.43945,0.2597 c 0,0 -0.43748,0.7754 -1.55079,1.5957 -1.1133,0.8204 -2.87168,1.6524 -5.51562,1.6524 -2.64394,0 -4.40232,-0.832 -5.51562,-1.6524 -1.11331,-0.8203 -1.55079,-1.5957 -1.55079,-1.5957 a 0.5000502,0.5000502 0 1 0 -0.86718,0.4961 c 0,0 0.56252,0.9746 1.82421,1.9043 1.2617,0.9297 3.25332,1.8477 6.10938,1.8477 2.85606,0 4.84768,-0.918 6.10938,-1.8477 1.26169,-0.9297 1.82421,-1.9043 1.82421,-1.9043 a 0.5000502,0.5000502 0 0 0 -0.42773,-0.7558 z" id="path6087" inkscape:connector-curvature="0" />
<path style="opacity:1" d="m -39.50586,176.0078 a 0.50005,0.50005 0 0 0 -0.5,0.5 v 4.9766 a 0.50005,0.50005 0 0 0 0.5,0.5 H -34.5 a 0.50005,0.50005 0 0 0 0.5,-0.5 v -4.9766 a 0.50005,0.50005 0 0 0 -0.5,-0.5 z m 0.5,1 H -35 v 3.9766 h -4.00586 z" id="rect6089" inkscape:connector-curvature="0" />
<path d="M -38,183 -36,183 -36,186 -33,186 -33,188 -36,188 -36,191 -38,191 -38,188 -41,188 -41,186 -38,186 -38,183 Z" id="path6091" inkscape:connector-curvature="0" style="fill-rule:evenodd" />
<path style="opacity:0.188;" d="m -39.506,176.5076 h 5.006 v 4.976 h -5.006 z" id="rect4926" />
</g>
</svg>
