<?xml version="1.0" encoding="UTF-8" standalone="no"?>
<svg
   xmlns:dc="http://purl.org/dc/elements/1.1/"
   xmlns:cc="http://creativecommons.org/ns#"
   xmlns:rdf="http://www.w3.org/1999/02/22-rdf-syntax-ns#"
   xmlns:svg="http://www.w3.org/2000/svg"
   xmlns="http://www.w3.org/2000/svg"
   xmlns:xlink="http://www.w3.org/1999/xlink"
   xmlns:sodipodi="http://sodipodi.sourceforge.net/DTD/sodipodi-0.dtd"
   xmlns:inkscape="http://www.inkscape.org/namespaces/inkscape"
   inkscape:version="1.0beta2 (7cf281c, 2019-12-21)"
   sodipodi:docname="object-tweak-shrink-symbolic.svg"
   viewBox="0 0 16 16"
   height="16"
   width="16"
   id="svg1"
   version="1.1">
  <metadata
     id="metadata3196">
    <rdf:RDF>
      <cc:Work
         rdf:about="">
        <dc:format>image/svg+xml</dc:format>
        <dc:type
           rdf:resource="http://purl.org/dc/dcmitype/StillImage" />
      </cc:Work>
    </rdf:RDF>
  </metadata>
  <defs
     id="defs3194" />
  <style
     id="s0">
.success { fill:#009909; }
.warning { fill:#FF1990; }
.error { fill:#00AAFF; }
</style>
  <style
     id="s2">
@import '../../highlights.css';
</style>
  <sodipodi:namedview
     inkscape:document-rotation="0"
     inkscape:current-layer="svg1"
     inkscape:window-maximized="1"
     inkscape:window-y="-6"
     inkscape:window-x="65"
     inkscape:window-height="890"
     inkscape:window-width="1296"
     inkscape:cy="8"
     inkscape:cx="8"
     inkscape:zoom="41.125"
     showgrid="true"
     id="namedview"
     guidetolerance="10"
     gridtolerance="10"
     objecttolerance="10">
    <inkscape:grid
       id="grid"
       type="xygrid" />
  </sodipodi:namedview>
  <g
     inkscape:label="00117"
     id="object-tweak-shrink"
     transform="matrix(0.999995,0,0,0.999998,-254.99868,-747.36084)">
    <path
       style="opacity:0;fill:none"
       d="m 255.0004,747.36218 h 15.99962 v 16 H 255.0004 Z"
       id="rect16409"
       inkscape:connector-curvature="0" />
    <path
       transform="matrix(1.330773,0,0,1.304296,-242.6855,568.8429)"
       style="opacity:1"
       d="m 376.20595,137.9821 a 1.111868,1.111868 0 0 1 -1.11186,1.11187 1.111868,1.111868 0 0 1 -1.11187,-1.11187 1.111868,1.111868 0 0 1 1.11187,-1.11187 1.111868,1.111868 0 0 1 1.11186,1.11187 z"
       id="path5084-2"
       inkscape:connector-curvature="0" />
    <use
       xlink:href="#path5084-2"
       transform="matrix(0.9860759,0,0,0.9860759,13.35199,10.42661)"
       x="0"
       y="0"
       inkscape:tiled-clone-of="#path5011"
       id="use5086-8"
       style="opacity:1"
       width="1250"
       height="1250" />
    <use
       xlink:href="#path5084-2"
       x="0"
       y="0"
       inkscape:tiled-clone-of="#path5011"
       transform="matrix(0.9791266,0,0,0.9791266,18.39427,18.90514)"
       id="use5088-8"
       style="opacity:1"
       width="1250"
       height="1250" />
    <use
       xlink:href="#path5084-2"
       x="0"
       y="0"
       inkscape:tiled-clone-of="#path5011"
       transform="matrix(0.9025255,0,0,0.9025255,38.04092,79.5399)"
       id="use5090-1"
       style="opacity:1"
       width="1250"
       height="1250" />
    <use
       xlink:href="#path5084-2"
       x="0"
       y="0"
       inkscape:tiled-clone-of="#path5011"
       transform="matrix(0.9860707,0,0,0.9860707,6.832833,10.43046)"
       id="use5092-4"
       style="opacity:1"
       width="1250"
       height="1250" />
    <use
       xlink:href="#path5084-2"
       x="0"
       y="0"
       inkscape:tiled-clone-of="#path5011"
       transform="translate(13.04072)"
       id="use5094-42"
       style="opacity:1"
       width="1250"
       height="1250" />
    <use
       xlink:href="#path5084-2"
       x="0"
       y="0"
       inkscape:tiled-clone-of="#path5011"
       transform="matrix(0.9068615,0,0,0.9068615,23.88811,76.29305)"
       id="use5096-0"
       style="opacity:1"
       width="1250"
       height="1250" />
    <use
       xlink:href="#path5084-2"
       x="0"
       y="0"
       inkscape:tiled-clone-of="#path5011"
       transform="matrix(0.9828022,0,0,0.9828022,4.410936,22.70267)"
       id="use5098-8"
       style="opacity:1"
       width="1250"
       height="1250" />
    <use
       xlink:href="#path5084-2"
       x="0"
       y="0"
       inkscape:tiled-clone-of="#path5011"
       transform="matrix(0.9220478,0,0,0.9220478,26.5136,58.37159)"
       id="use5100-6"
       style="opacity:1"
       width="1250"
       height="1250" />
    <use
       xlink:href="#path5084-2"
       x="0"
       y="0"
       inkscape:tiled-clone-of="#path5011"
       transform="matrix(0.9801935,0,0,0.9801935,5.080138,18.10632)"
       id="use5103-0"
       style="opacity:1"
       width="1250"
       height="1250" />
    <use
       xlink:href="#path5084-2"
       x="0"
       y="0"
       inkscape:tiled-clone-of="#path5011"
       transform="matrix(0.6146776,0,0,0.6146776,102.0872,291.8091)"
       id="use5106-9"
       style="opacity:1"
       width="1250"
       height="1250" />
    <use
       xlink:href="#path5084-2"
       x="0"
       y="0"
       inkscape:tiled-clone-of="#path5011"
       transform="matrix(0.6232617,0,0,0.6232617,99.88627,291.931)"
       id="use5108-2"
       style="opacity:1"
       width="1250"
       height="1250" />
    <use
       xlink:href="#path5084-2"
       x="0"
       y="0"
       inkscape:tiled-clone-of="#path5011"
       transform="matrix(0.4296546,0,0,0.4296546,152.8021,430.3566)"
       id="use5110-1"
       style="opacity:1"
       width="1250"
       height="1250" />
    <use
       xlink:href="#path5084-2"
       x="0"
       y="0"
       inkscape:tiled-clone-of="#path5011"
       transform="matrix(0.6112925,0,0,0.6112925,109.4759,294.3438)"
       id="use5112-7"
       style="opacity:1"
       width="1250"
       height="1250" />
    <use
       xlink:href="#path5084-2"
       x="0"
       y="0"
       inkscape:tiled-clone-of="#path5011"
       transform="matrix(0.4261003,0,0,0.4261003,150.4533,436.293)"
       id="use5114-3"
       style="opacity:1"
       width="1250"
       height="1250" />
    <use
       xlink:href="#path5084-2"
       x="0"
       y="0"
       inkscape:tiled-clone-of="#path5011"
       transform="matrix(0.4378052,0,0,0.4378052,150.7115,430.8031)"
       id="use5116-0"
       style="opacity:1"
       width="1250"
       height="1250" />
    <use
       xlink:href="#path5084-2"
       x="0"
       y="0"
       inkscape:tiled-clone-of="#path5011"
       transform="matrix(0.256807,0,0,0.256807,197.1343,563.0618)"
       id="use5118-6"
       style="opacity:1"
       width="1250"
       height="1250" />
    <use
       xlink:href="#path5084-2"
       x="0"
       y="0"
       inkscape:tiled-clone-of="#path5011"
       transform="matrix(0.4222839,0,0,0.4222839,157.953,439.1508)"
       id="use5120-92"
       style="opacity:1"
       width="1250"
       height="1250" />
    <use
       xlink:href="#path5084-2"
       x="0"
       y="0"
       inkscape:tiled-clone-of="#path5011"
       transform="matrix(0.6190024,0,0,0.6190024,107.4987,295.1204)"
       id="use5122-6"
       style="opacity:1"
       width="1250"
       height="1250" />
    <use
       xlink:href="#path5084-2"
       x="0"
       y="0"
       inkscape:tiled-clone-of="#path5011"
       transform="matrix(0.9884129,0,0,0.9884129,12.75241,21.77614)"
       id="use5124-2"
       style="opacity:1"
       width="1250"
       height="1250" />
    <use
       xlink:href="#path5084-2"
       height="1250"
       width="1250"
       style="opacity:1"
       id="use5126-4"
       transform="matrix(0.9803125,0,0,0.9803125,18.09011,24.56693)"
       inkscape:tiled-clone-of="#path5011"
       y="0"
       x="0" />
    <use
       xlink:href="#path5084-2"
       height="1250"
       width="1250"
       style="opacity:1"
       id="use5128-4"
       transform="translate(0,13.0996)"
       inkscape:tiled-clone-of="#path5011"
       y="0"
       x="0" />
    <use
       xlink:href="#path5084-2"
       height="1250"
       width="1250"
       style="opacity:1"
       id="use5130-0"
       transform="matrix(0.9897789,0,0,0.9897789,5.881653,20.75324)"
       inkscape:tiled-clone-of="#path5011"
       y="0"
       x="0" />
    <use
       xlink:href="#path5084-2"
       height="1250"
       width="1250"
       style="opacity:1"
       id="use5132-1"
       transform="matrix(0.9302193,0,0,0.9302193,24.41779,65.35227)"
       inkscape:tiled-clone-of="#path5011"
       y="0"
       x="0" />
    <use
       xlink:href="#path5084-2"
       height="1250"
       width="1250"
       style="opacity:1"
       id="use5134-8"
       transform="translate(13.04072,13.0996)"
       inkscape:tiled-clone-of="#path5011"
       y="0"
       x="0" />
  </g>
</svg>
