<?xml version="1.0" encoding="UTF-8" standalone="no"?>
<svg
   xmlns:dc="http://purl.org/dc/elements/1.1/"
   xmlns:cc="http://creativecommons.org/ns#"
   xmlns:rdf="http://www.w3.org/1999/02/22-rdf-syntax-ns#"
   xmlns:svg="http://www.w3.org/2000/svg"
   xmlns="http://www.w3.org/2000/svg"
   xmlns:sodipodi="http://sodipodi.sourceforge.net/DTD/sodipodi-0.dtd"
   xmlns:inkscape="http://www.inkscape.org/namespaces/inkscape"
   inkscape:version="1.1-dev (6039630, 2019-12-20)"
   sodipodi:docname="object-group-symbolic.svg"
   viewBox="0 0 16 16"
   height="16"
   width="16"
   id="svg1"
   version="1.1">
  <metadata
     id="metadata2475">
    <rdf:RDF>
      <cc:Work
         rdf:about="">
        <dc:format>image/svg+xml</dc:format>
        <dc:type
           rdf:resource="http://purl.org/dc/dcmitype/StillImage" />
      </cc:Work>
    </rdf:RDF>
  </metadata>
  <defs
     id="defs2473" />
  <style
     id="s0">
.success { fill:#009909; }
.warning { fill:#FF1990; }
.error { fill:#00AAFF; }
</style>
  <style
     id="s2">
@import '../../highlights.css';
</style>
  <sodipodi:namedview
     inkscape:document-rotation="0"
     inkscape:current-layer="svg1"
     inkscape:window-maximized="1"
     inkscape:window-y="-6"
     inkscape:window-x="65"
     inkscape:window-height="890"
     inkscape:window-width="1296"
     inkscape:cy="8"
     inkscape:cx="8"
     inkscape:zoom="41.125"
     showgrid="true"
     id="namedview"
     guidetolerance="10"
     gridtolerance="10"
     objecttolerance="10">
    <inkscape:grid
       id="grid"
       type="xygrid" />
  </sodipodi:namedview>
  <g
     id="object-group"
     inkscape:label="00058"
     transform="matrix(1,0,0,0.999999,-135,-587.36145)">
    <path
       transform="translate(0,512.3622)"
       style="opacity:0;fill:none"
       d="m 135,75 h 16 v 16 h -16 z"
       id="rect11195"
       inkscape:connector-curvature="0" />
    <path
       class="success"
       style="opacity:1"
       d="m 135,587.36218 h 3 v 3 h -3 z"
       id="rect11965"
       inkscape:connector-curvature="0" />
    <path
       class="success"
       style="opacity:1"
       d="m 148,587.36218 h 3 v 3 h -3 z"
       id="rect11967"
       inkscape:connector-curvature="0" />
    <path
       class="success"
       style="opacity:1"
       d="m 135,600.36218 h 3 v 3.00001 h -3 z"
       id="rect11969"
       inkscape:connector-curvature="0" />
    <path
       class="success"
       style="opacity:1"
       d="m 148,600.36218 h 3 v 3.00001 h -3 z"
       id="rect11971"
       inkscape:connector-curvature="0" />
    <path
       transform="translate(0,512.3622)"
       style="opacity:1"
       d="M 144,82.5 A 3.5,3.5 0 0 1 140.5,86 3.5,3.5 0 0 1 137,82.5 3.5,3.5 0 0 1 140.5,79 3.5,3.5 0 0 1 144,82.5 Z"
       id="path11973"
       inkscape:connector-curvature="0" />
    <path
       id="rect11975"
       transform="translate(0,512.3622)"
       d="m 144.9375,82 c 0.0187,0.16677 0.0625,0.32822 0.0625,0.5 0,2.31351 -1.7539,4.18511 -4,4.4375 V 88 h 6 v -6 z"
       style="opacity:1"
       inkscape:connector-curvature="0" />
  </g>
</svg>
