<?xml version="1.0" encoding="UTF-8" standalone="no"?>
<svg
   xmlns:dc="http://purl.org/dc/elements/1.1/"
   xmlns:cc="http://creativecommons.org/ns#"
   xmlns:rdf="http://www.w3.org/1999/02/22-rdf-syntax-ns#"
   xmlns:svg="http://www.w3.org/2000/svg"
   xmlns="http://www.w3.org/2000/svg"
   xmlns:sodipodi="http://sodipodi.sourceforge.net/DTD/sodipodi-0.dtd"
   xmlns:inkscape="http://www.inkscape.org/namespaces/inkscape"
   inkscape:version="1.0beta2 (7cf281c, 2019-12-21)"
   sodipodi:docname="object-tweak-blur-symbolic.svg"
   viewBox="0 0 16 16"
   height="16"
   width="16"
   id="svg1"
   version="1.1">
  <metadata
     id="metadata4887">
    <rdf:RDF>
      <cc:Work
         rdf:about="">
        <dc:format>image/svg+xml</dc:format>
        <dc:type
           rdf:resource="http://purl.org/dc/dcmitype/StillImage" />
      </cc:Work>
    </rdf:RDF>
  </metadata>
  <defs
     id="defs4885" />
  <style
     id="s0">
.success { fill:#009909; }
.warning { fill:#FF1990; }
.error { fill:#00AAFF; }
</style>
  <style
     id="s2">
@import '../../highlights.css';
</style>
  <sodipodi:namedview
     inkscape:document-rotation="0"
     inkscape:current-layer="svg1"
     inkscape:window-maximized="1"
     inkscape:window-y="-6"
     inkscape:window-x="65"
     inkscape:window-height="890"
     inkscape:window-width="1296"
     inkscape:cy="8"
     inkscape:cx="8"
     inkscape:zoom="41.125"
     showgrid="true"
     id="namedview"
     guidetolerance="10"
     gridtolerance="10"
     objecttolerance="10">
    <inkscape:grid
       id="grid"
       type="xygrid" />
  </sodipodi:namedview>
  <g
     inkscape:label="00120"
     id="object-tweak-blur"
     transform="translate(-255,-807.36218)">
    <path
       style="opacity:0;fill:none"
       d="m 255,807.36218 h 16 v 16 h -16 z"
       id="rect18300"
       inkscape:connector-curvature="0" />
    <path
       transform="matrix(1.20571,0,0,1.20571,-195.2234,642.9926)"
       style="opacity:1"
       d="m 376.20595,137.9821 a 1.111868,1.111868 0 0 1 -1.11186,1.11187 1.111868,1.111868 0 0 1 -1.11187,-1.11187 1.111868,1.111868 0 0 1 1.11187,-1.11187 1.111868,1.111868 0 0 1 1.11186,1.11187 z"
       id="path7657"
       inkscape:connector-curvature="0" />
    <path
       transform="matrix(0.9359693,0,0,0.9359693,-85.18357,680.2121)"
       style="opacity:1"
       d="m 376.20595,137.9821 a 1.111868,1.111868 0 0 1 -1.11186,1.11187 1.111868,1.111868 0 0 1 -1.11187,-1.11187 1.111868,1.111868 0 0 1 1.11187,-1.11187 1.111868,1.111868 0 0 1 1.11186,1.11187 z"
       id="use7660"
       inkscape:connector-curvature="0" />
    <path
       transform="matrix(0.9556962,0,0,0.9556962,-89.62949,680.5174)"
       style="opacity:1"
       d="m 376.20595,137.9821 a 1.111868,1.111868 0 0 1 -1.11186,1.11187 1.111868,1.111868 0 0 1 -1.11187,-1.11187 1.111868,1.111868 0 0 1 1.11187,-1.11187 1.111868,1.111868 0 0 1 1.11186,1.11187 z"
       id="use7662"
       inkscape:connector-curvature="0" />
    <path
       transform="matrix(1.088184,0,0,1.088184,-139.325,665.2638)"
       style="opacity:1"
       d="m 376.20595,137.9821 a 1.111868,1.111868 0 0 1 -1.11186,1.11187 1.111868,1.111868 0 0 1 -1.11187,-1.11187 1.111868,1.111868 0 0 1 1.11187,-1.11187 1.111868,1.111868 0 0 1 1.11186,1.11187 z"
       id="use7664"
       inkscape:connector-curvature="0" />
    <path
       transform="matrix(0.8516448,0,0,0.8516448,-59.46192,691.8473)"
       style="opacity:1"
       d="m 376.20595,137.9821 a 1.111868,1.111868 0 0 1 -1.11186,1.11187 1.111868,1.111868 0 0 1 -1.11187,-1.11187 1.111868,1.111868 0 0 1 1.11187,-1.11187 1.111868,1.111868 0 0 1 1.11186,1.11187 z"
       id="use7666"
       inkscape:connector-curvature="0" />
    <path
       transform="matrix(1.20571,0,0,1.20571,-183.4083,642.9926)"
       style="opacity:1"
       d="m 376.20595,137.9821 a 1.111868,1.111868 0 0 1 -1.11186,1.11187 1.111868,1.111868 0 0 1 -1.11187,-1.11187 1.111868,1.111868 0 0 1 1.11187,-1.11187 1.111868,1.111868 0 0 1 1.11186,1.11187 z"
       id="use7668"
       inkscape:connector-curvature="0" />
    <path
       transform="matrix(1.093412,0,0,1.093412,-153.1011,664.5425)"
       style="opacity:1"
       d="m 376.20595,137.9821 a 1.111868,1.111868 0 0 1 -1.11186,1.11187 1.111868,1.111868 0 0 1 -1.11187,-1.11187 1.111868,1.111868 0 0 1 1.11187,-1.11187 1.111868,1.111868 0 0 1 1.11186,1.11187 z"
       id="use7670"
       inkscape:connector-curvature="0" />
    <path
       transform="matrix(0.9320213,0,0,0.9320213,-92.56455,689.8388)"
       style="opacity:1"
       d="m 376.20595,137.9821 a 1.111868,1.111868 0 0 1 -1.11186,1.11187 1.111868,1.111868 0 0 1 -1.11187,-1.11187 1.111868,1.111868 0 0 1 1.11187,-1.11187 1.111868,1.111868 0 0 1 1.11186,1.11187 z"
       id="use7672"
       inkscape:connector-curvature="0" />
    <path
       transform="matrix(1.111722,0,0,1.111722,-154.0615,655.9613)"
       style="opacity:1"
       d="m 376.20595,137.9821 a 1.111868,1.111868 0 0 1 -1.11186,1.11187 1.111868,1.111868 0 0 1 -1.11187,-1.11187 1.111868,1.111868 0 0 1 1.11187,-1.11187 1.111868,1.111868 0 0 1 1.11186,1.11187 z"
       id="use7674"
       inkscape:connector-curvature="0" />
    <path
       transform="matrix(0.9569822,0,0,0.9569822,-101.927,680.34)"
       style="opacity:1"
       d="m 376.20595,137.9821 a 1.111868,1.111868 0 0 1 -1.11186,1.11187 1.111868,1.111868 0 0 1 -1.11187,-1.11187 1.111868,1.111868 0 0 1 1.11187,-1.11187 1.111868,1.111868 0 0 1 1.11186,1.11187 z"
       id="use7676"
       inkscape:connector-curvature="0" />
    <path
       transform="matrix(0.994998,0,0,0.994998,-107.3253,684.1765)"
       style="opacity:1"
       d="m 376.20595,137.9821 a 1.111868,1.111868 0 0 1 -1.11186,1.11187 1.111868,1.111868 0 0 1 -1.11187,-1.11187 1.111868,1.111868 0 0 1 1.11187,-1.11187 1.111868,1.111868 0 0 1 1.11186,1.11187 z"
       id="use7696"
       inkscape:connector-curvature="0" />
    <path
       transform="matrix(0.985232,0,0,0.985232,-100.7082,682.4968)"
       style="opacity:1"
       d="m 376.20595,137.9821 a 1.111868,1.111868 0 0 1 -1.11186,1.11187 1.111868,1.111868 0 0 1 -1.11187,-1.11187 1.111868,1.111868 0 0 1 1.11187,-1.11187 1.111868,1.111868 0 0 1 1.11186,1.11187 z"
       id="use7698"
       inkscape:connector-curvature="0" />
    <path
       transform="matrix(1.20571,0,0,1.20571,-195.2234,655.1021)"
       style="opacity:1"
       d="m 376.20595,137.9821 a 1.111868,1.111868 0 0 1 -1.11186,1.11187 1.111868,1.111868 0 0 1 -1.11187,-1.11187 1.111868,1.111868 0 0 1 1.11187,-1.11187 1.111868,1.111868 0 0 1 1.11186,1.11187 z"
       id="use7700"
       inkscape:connector-curvature="0" />
    <path
       transform="matrix(0.9404333,0,0,0.9404333,-92.76607,691.7054)"
       style="opacity:1"
       d="m 376.20595,137.9821 a 1.111868,1.111868 0 0 1 -1.11186,1.11187 1.111868,1.111868 0 0 1 -1.11187,-1.11187 1.111868,1.111868 0 0 1 1.11187,-1.11187 1.111868,1.111868 0 0 1 1.11186,1.11187 z"
       id="use7702"
       inkscape:connector-curvature="0" />
    <path
       transform="matrix(1.121575,0,0,1.121575,-157.7571,666.7113)"
       style="opacity:1"
       d="m 376.20595,137.9821 a 1.111868,1.111868 0 0 1 -1.11186,1.11187 1.111868,1.111868 0 0 1 -1.11187,-1.11187 1.111868,1.111868 0 0 1 1.11187,-1.11187 1.111868,1.111868 0 0 1 1.11186,1.11187 z"
       id="use7704"
       inkscape:connector-curvature="0" />
    <path
       transform="matrix(1.20571,0,0,1.20571,-183.4083,655.1021)"
       style="opacity:1"
       d="m 376.20595,137.9821 a 1.111868,1.111868 0 0 1 -1.11186,1.11187 1.111868,1.111868 0 0 1 -1.11187,-1.11187 1.111868,1.111868 0 0 1 1.11187,-1.11187 1.111868,1.111868 0 0 1 1.11186,1.11187 z"
       id="use7706"
       inkscape:connector-curvature="0" />
    <path
       transform="matrix(0,0,0,0,257.9388,809.1229)"
       style="opacity:1"
       d="m 250,293 a 1,1 0 0 1 -1,1 1,1 0 0 1 -1,-1 1,1 0 0 1 1,-1 1,1 0 0 1 1,1 z"
       id="path18244"
       inkscape:connector-curvature="0" />
    <path
       style="opacity:0.5;stroke-linecap:butt"
       d="m 260.07299,811.01103 c -0.81919,0 -1.48615,0.66695 -1.48615,1.48614 0,0.81919 0.66696,1.48614 1.48615,1.48614 0.81917,0 1.48614,-0.66697 1.48614,-1.48614 0,-0.81918 -0.66697,-1.48613 -1.48614,-1.48614 z m 0,0.32974 c 0.64096,0 1.15641,0.51543 1.15641,1.1564 0,0.64097 -0.51545,1.1564 -1.15641,1.15641 -0.64097,0 -1.15641,-0.51544 -1.15641,-1.15641 0,-0.64097 0.51544,-1.15641 1.15641,-1.1564 z"
       id="path18274"
       inkscape:connector-curvature="0" />
    <path
       transform="matrix(0.7868642,0,0,0.7868642,-32.12087,703.9236)"
       style="opacity:0.5"
       d="m 376.20595,137.9821 a 1.111868,1.111868 0 0 1 -1.11186,1.11187 1.111868,1.111868 0 0 1 -1.11187,-1.11187 1.111868,1.111868 0 0 1 1.11187,-1.11187 1.111868,1.111868 0 0 1 1.11186,1.11187 z"
       id="path18276"
       inkscape:connector-curvature="0" />
    <path
       style="opacity:0.5;stroke-linecap:butt"
       d="m 265.95079,810.96683 c -0.81919,0 -1.48615,0.66695 -1.48615,1.48614 0,0.81919 0.66696,1.48614 1.48615,1.48614 0.81917,0 1.48614,-0.66697 1.48614,-1.48614 0,-0.81918 -0.66697,-1.48613 -1.48614,-1.48614 z m 0,0.32974 c 0.64096,0 1.15641,0.51543 1.15641,1.1564 0,0.64097 -0.51545,1.1564 -1.15641,1.15641 -0.64097,0 -1.15641,-0.51544 -1.15641,-1.15641 0,-0.64097 0.51544,-1.15641 1.15641,-1.1564 z"
       id="path18278"
       inkscape:connector-curvature="0" />
    <path
       transform="matrix(0.7641009,0,0,0.7641009,-26.53634,710.0645)"
       style="opacity:0.5"
       d="m 376.20595,137.9821 a 1.111868,1.111868 0 0 1 -1.11186,1.11187 1.111868,1.111868 0 0 1 -1.11187,-1.11187 1.111868,1.111868 0 0 1 1.11187,-1.11187 1.111868,1.111868 0 0 1 1.11186,1.11187 z"
       id="path18280"
       inkscape:connector-curvature="0" />
    <path
       style="opacity:0.5;stroke-linecap:butt"
       d="m 263.02687,814.10754 c -0.76599,0 -1.38965,0.62365 -1.38965,1.38965 0,0.766 0.62366,1.38965 1.38965,1.38965 0.76599,0 1.38966,-0.62366 1.38966,-1.38965 0,-0.76599 -0.62367,-1.38964 -1.38966,-1.38965 z m 0,0.30834 c 0.59936,0 1.08133,0.48196 1.08133,1.08131 0,0.59935 -0.48197,1.08132 -1.08133,1.08133 -0.59935,0 -1.08132,-0.48198 -1.08132,-1.08133 0,-0.59935 0.48197,-1.08133 1.08132,-1.08131 z"
       id="path18282"
       inkscape:connector-curvature="0" />
    <path
       transform="matrix(0.7391118,0,0,0.7391118,-11.28526,713.4684)"
       style="opacity:0.5"
       d="m 376.20595,137.9821 a 1.111868,1.111868 0 0 1 -1.11186,1.11187 1.111868,1.111868 0 0 1 -1.11187,-1.11187 1.111868,1.111868 0 0 1 1.11187,-1.11187 1.111868,1.111868 0 0 1 1.11186,1.11187 z"
       id="path18284"
       inkscape:connector-curvature="0" />
    <path
       style="opacity:0.5;stroke-linecap:butt"
       d="m 260.07299,817.01103 c -0.81919,0 -1.48615,0.66695 -1.48615,1.48614 0,0.81919 0.66696,1.48614 1.48615,1.48614 0.81917,0 1.48614,-0.66697 1.48614,-1.48614 0,-0.81918 -0.66697,-1.48613 -1.48614,-1.48614 z m 0,0.32974 c 0.64096,0 1.15641,0.51543 1.15641,1.1564 0,0.64097 -0.51545,1.1564 -1.15641,1.15641 -0.64097,0 -1.15641,-0.51544 -1.15641,-1.15641 0,-0.64097 0.51544,-1.15641 1.15641,-1.1564 z"
       id="path18286"
       inkscape:connector-curvature="0" />
    <path
       transform="matrix(0.711897,0,0,0.711897,-4.00112,720.2677)"
       style="opacity:0.5"
       d="m 376.20595,137.9821 a 1.111868,1.111868 0 0 1 -1.11186,1.11187 1.111868,1.111868 0 0 1 -1.11187,-1.11187 1.111868,1.111868 0 0 1 1.11187,-1.11187 1.111868,1.111868 0 0 1 1.11186,1.11187 z"
       id="path18288"
       inkscape:connector-curvature="0" />
    <path
       style="opacity:0.5;stroke-linecap:butt"
       d="m 265.95079,816.96683 c -0.81919,0 -1.48615,0.66695 -1.48615,1.48614 0,0.81919 0.66696,1.48614 1.48615,1.48614 0.81917,0 1.48614,-0.66697 1.48614,-1.48614 0,-0.81918 -0.66697,-1.48613 -1.48614,-1.48614 z m 0,0.32974 c 0.64096,0 1.15641,0.51543 1.15641,1.1564 0,0.64097 -0.51545,1.1564 -1.15641,1.15641 -0.64097,0 -1.15641,-0.51544 -1.15641,-1.15641 0,-0.64097 0.51544,-1.15641 1.15641,-1.1564 z"
       id="path18290"
       inkscape:connector-curvature="0" />
    <path
       transform="matrix(3.241379,0,0,2.666667,-552.8896,22.62291)"
       style="opacity:1"
       d="m 251,296.20309 a 0.1875,0.234375 0 0 1 -0.1875,0.23438 0.1875,0.234375 0 0 1 -0.1875,-0.23438 0.1875,0.234375 0 0 1 0.1875,-0.23437 0.1875,0.234375 0 0 1 0.1875,0.23437 z"
       id="path18292"
       inkscape:connector-curvature="0" />
    <path
       transform="matrix(3.241379,0,0,2.666667,-552.9521,28.59166)"
       style="opacity:1"
       d="m 251,296.20309 a 0.1875,0.234375 0 0 1 -0.1875,0.23438 0.1875,0.234375 0 0 1 -0.1875,-0.23438 0.1875,0.234375 0 0 1 0.1875,-0.23437 0.1875,0.234375 0 0 1 0.1875,0.23437 z"
       id="path18294"
       inkscape:connector-curvature="0" />
    <path
       transform="matrix(3.241379,0,0,2.666667,-547.0459,22.56041)"
       style="opacity:1"
       d="m 251,296.20309 a 0.1875,0.234375 0 0 1 -0.1875,0.23438 0.1875,0.234375 0 0 1 -0.1875,-0.23438 0.1875,0.234375 0 0 1 0.1875,-0.23437 0.1875,0.234375 0 0 1 0.1875,0.23437 z"
       id="path18296"
       inkscape:connector-curvature="0" />
    <path
       transform="matrix(3.241379,0,0,2.666667,-547.0459,28.62291)"
       style="opacity:1"
       d="m 251,296.20309 a 0.1875,0.234375 0 0 1 -0.1875,0.23438 0.1875,0.234375 0 0 1 -0.1875,-0.23438 0.1875,0.234375 0 0 1 0.1875,-0.23437 0.1875,0.234375 0 0 1 0.1875,0.23437 z"
       id="path18298"
       inkscape:connector-curvature="0" />
  </g>
</svg>
