<?xml version="1.0" encoding="UTF-8" standalone="no"?>
<svg
   xmlns:dc="http://purl.org/dc/elements/1.1/"
   xmlns:cc="http://creativecommons.org/ns#"
   xmlns:rdf="http://www.w3.org/1999/02/22-rdf-syntax-ns#"
   xmlns:svg="http://www.w3.org/2000/svg"
   xmlns="http://www.w3.org/2000/svg"
   xmlns:sodipodi="http://sodipodi.sourceforge.net/DTD/sodipodi-0.dtd"
   xmlns:inkscape="http://www.inkscape.org/namespaces/inkscape"
   version="1.1"
   id="svg1"
   width="16"
   height="16"
   viewBox="0 0 16 16"
   sodipodi:docname="off-symbolic.svg"
   inkscape:version="1.1-dev (1fceb22, 2019-12-30)">
  <style
     id="s0">
.success { fill:#009909; }
.warning { fill:#FF1990; }
.error { fill:#00AAFF; }
</style>
  <style
     id="s2">
@import '../../highlights.css';
</style>
  <metadata
     id="metadata7180">
    <rdf:RDF>
      <cc:Work
         rdf:about="">
        <dc:format>image/svg+xml</dc:format>
        <dc:type
           rdf:resource="http://purl.org/dc/dcmitype/StillImage" />
        <dc:title />
      </cc:Work>
    </rdf:RDF>
  </metadata>
  <defs
     id="defs7178" />
  <sodipodi:namedview
     objecttolerance="10"
     gridtolerance="10"
     guidetolerance="10"
     id="namedview"
     showgrid="true"
     inkscape:zoom="38.810012"
     inkscape:cx="13.95487"
     inkscape:cy="10.688192"
     inkscape:window-width="1858"
     inkscape:window-height="1177"
     inkscape:window-x="54"
     inkscape:window-y="-8"
     inkscape:window-maximized="1"
     inkscape:current-layer="svg1"
     inkscape:document-rotation="0">
    <inkscape:grid
       type="xygrid"
       id="grid" />
  </sodipodi:namedview>
  <g
     transform="translate(-10.48884,-182.0497)"
     id="off"
     inkscape:label="00339">
    <path
       inkscape:connector-curvature="0"
       id="rect23222-8"
       d="m 10.48884,182.0497 h 16 v 16 h -16 z"
       style="opacity:0;fill:none" />
    <path
       id="path10677"
       style="opacity:1;stroke-linecap:butt;fill-rule:evenodd"
       transform="translate(10.48884,182.0497)"
       d="M 5.7695312,5.0644531 5.0625,5.7714844 7.2929688,8 5.0625,10.230469 5.7695312,10.9375 8,8.7070312 10.230469,10.9375 10.9375,10.230469 8.7070312,8 10.9375,5.7714844 10.230469,5.0644531 8,7.2949219 Z M 7.999441,0.9835 c -3.917556,0 -7.111331,3.14297 -7.111328,7.01563 3e-6,3.87265 3.193776,7.01562 7.111328,7.01562 3.917553,0 7.111326,-3.14297 7.111328,-7.01562 4e-6,-3.87266 -3.193771,-7.01563 -7.111328,-7.01563 z"
       inkscape:connector-curvature="0" />
  </g>
</svg>
