<?xml version="1.0" encoding="UTF-8" standalone="no"?>
<svg
   xmlns:dc="http://purl.org/dc/elements/1.1/"
   xmlns:cc="http://creativecommons.org/ns#"
   xmlns:rdf="http://www.w3.org/1999/02/22-rdf-syntax-ns#"
   xmlns:svg="http://www.w3.org/2000/svg"
   xmlns="http://www.w3.org/2000/svg"
   xmlns:sodipodi="http://sodipodi.sourceforge.net/DTD/sodipodi-0.dtd"
   xmlns:inkscape="http://www.inkscape.org/namespaces/inkscape"
   version="1.1"
   id="svg1"
   width="16"
   height="16"
   viewBox="0 0 16 16"
   sodipodi:docname="off-outline-symbolic.svg"
   inkscape:version="1.1-dev (1fceb22, 2019-12-30)">
  <style
     id="s0">
.success { fill:#009909; }
.warning { fill:#FF1990; }
.error { fill:#00AAFF; }
</style>
  <style
     id="s2">
@import '../../highlights.css';
</style>
  <metadata
     id="metadata7180">
    <rdf:RDF>
      <cc:Work
         rdf:about="">
        <dc:format>image/svg+xml</dc:format>
        <dc:type
           rdf:resource="http://purl.org/dc/dcmitype/StillImage" />
        <dc:title />
      </cc:Work>
    </rdf:RDF>
  </metadata>
  <defs
     id="defs7178" />
  <sodipodi:namedview
     objecttolerance="10"
     gridtolerance="10"
     guidetolerance="10"
     id="namedview"
     showgrid="true"
     inkscape:zoom="38.810012"
     inkscape:cx="13.95487"
     inkscape:cy="10.688192"
     inkscape:window-width="1858"
     inkscape:window-height="1177"
     inkscape:window-x="54"
     inkscape:window-y="-8"
     inkscape:window-maximized="1"
     inkscape:current-layer="svg1"
     inkscape:document-rotation="0">
    <inkscape:grid
       type="xygrid"
       id="grid" />
  </sodipodi:namedview>
  <g
     transform="translate(-10.48884,-182.0497)"
     id="off-outline"
     inkscape:label="00339">
    <path
       inkscape:connector-curvature="0"
       id="rect23222-8"
       d="m 10.48884,182.0497 h 16 v 16 h -16 z"
       style="opacity:0;fill:none" />
    <path
       inkscape:connector-curvature="0"
       id="path10622"
       d="m 18.488281,183.0332 c -3.917556,0 -7.111331,3.14297 -7.111328,7.01563 3e-6,3.87265 3.193776,7.01562 7.111328,7.01562 3.917553,0 7.111326,-3.14297 7.111328,-7.01562 4e-6,-3.87266 -3.193771,-7.01563 -7.111328,-7.01563 z m 0,1 c 3.384927,0 6.111331,2.69134 6.111328,6.01563 -2e-6,3.32428 -2.726404,6.01562 -6.111328,6.01562 -3.384923,0 -6.111326,-2.69134 -6.111328,-6.01562 -3e-6,-3.32429 2.726401,-6.01563 6.111328,-6.01563 z"
       style="opacity:1;stroke-linecap:butt" />
    <path
       inkscape:connector-curvature="0"
       id="path10677"
       d="m 16.257812,187.11328 -0.707031,0.70703 5.167969,5.16602 0.707031,-0.70703 z"
       style="opacity:1;stroke-linecap:butt" />
    <path
       inkscape:connector-curvature="0"
       id="path10688"
       d="m 20.71875,187.11328 -5.167969,5.16602 0.707031,0.70703 5.167969,-5.16602 z"
       style="opacity:1;stroke-linecap:butt" />
  </g>
</svg>
