<?xml version="1.0" encoding="UTF-8" standalone="no"?>
<!-- Created with Inkscape (http://www.inkscape.org/) and export_objects.py -->

<svg
   xmlns:dc="http://purl.org/dc/elements/1.1/"
   xmlns:cc="http://creativecommons.org/ns#"
   xmlns:rdf="http://www.w3.org/1999/02/22-rdf-syntax-ns#"
   xmlns:svg="http://www.w3.org/2000/svg"
   xmlns="http://www.w3.org/2000/svg"
   xmlns:sodipodi="http://sodipodi.sourceforge.net/DTD/sodipodi-0.dtd"
   xmlns:inkscape="http://www.inkscape.org/namespaces/inkscape"
   version="1.1"
   id="svg1"
   width="16"
   height="16"
   viewBox="0 0 16 16"
   sodipodi:docname="paint-unknown-symbolic.svg"
   inkscape:version="0.92.4 (5da689c313, 2019-01-14)">
  <metadata
     id="metadata14">
    <rdf:RDF>
      <cc:Work
         rdf:about="">
        <dc:format>image/svg+xml</dc:format>
        <dc:type
           rdf:resource="http://purl.org/dc/dcmitype/StillImage" />
      </cc:Work>
    </rdf:RDF>
  </metadata>
  <defs
     id="defs12" />
  <style
     id="s0">
.success { fill:#009909; }
.warning { fill:#FF1990; }
.error { fill:#00AAFF; }
</style>
  <style
     id="s2">
@import '../../highlights.css';
</style>
  <sodipodi:namedview
     objecttolerance="10"
     gridtolerance="10"
     guidetolerance="10"
     id="namedview"
     showgrid="true"
     inkscape:zoom="61.75"
     inkscape:cx="8"
     inkscape:cy="8"
     inkscape:window-width="1858"
     inkscape:window-height="1177"
     inkscape:window-x="54"
     inkscape:window-y="-8"
     inkscape:window-maximized="1"
     inkscape:current-layer="svg1">
    <inkscape:grid
       type="xygrid"
       id="grid" />
  </sodipodi:namedview>
  <g
     transform="matrix(0.8,0,0,0.8,-890.4,-770.68976)"
     inkscape:label="00308"
     id="paint-unknown">
    <path
       inkscape:connector-curvature="0"
       id="rect20390"
       d="m 1113,451 h 20 v 20 h -20 z"
       style="opacity:0;fill:none"
       transform="translate(0,512.3622)" />
    <path
       style="opacity:1"
       d="m 1123.259,965.2684 c 1.445,0 2.725,0.3768 3.842,1.1304 1.266,0.8635 1.899,2.0253 1.899,3.4854 0,1.2246 -0.387,2.1902 -1.162,2.8967 l -2.138,1.6894 c -0.7,0.4867 -0.7,1.0127 -0.7,1.8919 h -5 c -0.255,-2.1531 0.589,-2.7475 1.244,-3.4226 0.178,-0.1884 1.293,-0.644 2.171,-1.454 0.547,-0.5048 0.983,-0.785 0.983,-1.3659 0,-0.4082 -0.156,-0.7379 -0.469,-0.9891 -0.298,-0.2512 -0.655,-0.3768 -1.072,-0.3768 -0.462,0 -1.858,0.2534 -1.88,1.8312 l 0.023,0.7772 -4,-0.065 c 0,-0.942 0.179,-2.1823 0.536,-2.8731 0.343,-0.7065 0.856,-1.3031 1.542,-1.7898 1.131,-0.8164 2.32,-1.3659 4.182,-1.3659"
       id="path20410"
       inkscape:connector-curvature="0" />
    <path
       style="opacity:1"
       d="m 1120.05,978.3622 h 4.95 l -0.063,4.9062 h -4.888 v -4.9062"
       id="text2490"
       inkscape:connector-curvature="0" />
  </g>
</svg>
