<?xml version="1.0" encoding="UTF-8" standalone="no"?>
<svg
   xmlns:dc="http://purl.org/dc/elements/1.1/"
   xmlns:cc="http://creativecommons.org/ns#"
   xmlns:rdf="http://www.w3.org/1999/02/22-rdf-syntax-ns#"
   xmlns:svg="http://www.w3.org/2000/svg"
   xmlns="http://www.w3.org/2000/svg"
   xmlns:sodipodi="http://sodipodi.sourceforge.net/DTD/sodipodi-0.dtd"
   xmlns:inkscape="http://www.inkscape.org/namespaces/inkscape"
   inkscape:version="1.1-dev (1fceb22, 2019-12-30)"
   sodipodi:docname="paint-gradient-conical-symbolic.svg"
   viewBox="0 0 16 16"
   height="16"
   width="16"
   id="svg1"
   version="1.1">
  <metadata
     id="metadata8144">
    <rdf:RDF>
      <cc:Work
         rdf:about="">
        <dc:format>image/svg+xml</dc:format>
        <dc:type
           rdf:resource="http://purl.org/dc/dcmitype/StillImage" />
      </cc:Work>
    </rdf:RDF>
  </metadata>
  <defs
     id="defs8142" />
  <style
     id="s0">
.success { fill:#009909; }
.warning { fill:#FF1990; }
.error { fill:#00AAFF; }
</style>
  <style
     id="s2">
@import '../../highlights.css';
</style>
  <sodipodi:namedview
     inkscape:document-rotation="0"
     inkscape:current-layer="svg1"
     inkscape:window-maximized="1"
     inkscape:window-y="-8"
     inkscape:window-x="54"
     inkscape:window-height="1177"
     inkscape:window-width="1858"
     inkscape:cy="5.6496806"
     inkscape:cx="8.017295"
     inkscape:zoom="42.558989"
     showgrid="true"
     id="namedview"
     guidetolerance="10"
     gridtolerance="10"
     objecttolerance="10">
    <inkscape:grid
       id="grid"
       type="xygrid" />
  </sodipodi:namedview>
  <g
     id="paint-gradient-conical"
     inkscape:label="00350">
    <path
       style="opacity:0;fill:none"
       d="M 0,0 H 16 V 16 H 0 Z"
       id="rect36996"
       inkscape:connector-curvature="0" />
    <path
       style="opacity:0.6"
       d="M 0.5,7.9999974 A 7.5,7.5 0 0 1 8.0000001,0.5 L 8,8 Z"
       id="path36998"
       inkscape:connector-curvature="0" />
    <path
       style="opacity:0.6"
       d="M 15.5,8 A 7.5,7.5 0 0 1 8.0000025,15.5 L 8,8 Z"
       id="path37000"
       inkscape:connector-curvature="0" />
    <path
       style="opacity:1;stroke-linecap:butt"
       d="M 8,0 C 3.5876443,0 0,3.5876443 0,8 c 0,4.412356 3.5876443,8 8,8 4.412356,0 8,-3.587644 8,-8 C 16,3.5876443 12.412356,0 8,0 Z m 0,1 c 3.871916,0 7,3.1280844 7,7 0,3.871916 -3.128084,7 -7,7 C 4.1280844,15 1,11.871916 1,8 1,4.1280844 4.1280844,1 8,1 Z"
       id="circle37002"
       inkscape:connector-curvature="0" />
  </g>
</svg>
