<?xml version="1.0" encoding="UTF-8" standalone="no"?>
<svg
   xmlns:dc="http://purl.org/dc/elements/1.1/"
   xmlns:cc="http://creativecommons.org/ns#"
   xmlns:rdf="http://www.w3.org/1999/02/22-rdf-syntax-ns#"
   xmlns:svg="http://www.w3.org/2000/svg"
   xmlns="http://www.w3.org/2000/svg"
   xmlns:sodipodi="http://sodipodi.sourceforge.net/DTD/sodipodi-0.dtd"
   xmlns:inkscape="http://www.inkscape.org/namespaces/inkscape"
   inkscape:version="1.0beta2 (7cf281c, 2019-12-21)"
   sodipodi:docname="paint-none-symbolic.svg"
   viewBox="0 0 16 16"
   height="16"
   width="16"
   id="svg1"
   version="1.1">
  <metadata
     id="metadata18282">
    <rdf:RDF>
      <cc:Work
         rdf:about="">
        <dc:format>image/svg+xml</dc:format>
        <dc:type
           rdf:resource="http://purl.org/dc/dcmitype/StillImage" />
      </cc:Work>
    </rdf:RDF>
  </metadata>
  <defs
     id="defs18280" />
  <style
     id="s0">
.success { fill:#009909; }
.warning { fill:#FF1990; }
.error { fill:#00AAFF; }
</style>
  <style
     id="s2">
@import '../../highlights.css';
</style>
  <sodipodi:namedview
     inkscape:document-rotation="0"
     inkscape:current-layer="svg1"
     inkscape:window-maximized="1"
     inkscape:window-y="-6"
     inkscape:window-x="65"
     inkscape:window-height="890"
     inkscape:window-width="1296"
     inkscape:cy="8"
     inkscape:cx="8"
     inkscape:zoom="41.125"
     showgrid="true"
     id="namedview"
     guidetolerance="10"
     gridtolerance="10"
     objecttolerance="10">
    <inkscape:grid
       id="grid"
       type="xygrid" />
  </sodipodi:namedview>
  <g
     inkscape:label="00301"
     id="paint-none"
     transform="matrix(0.800008,0,0,0.800001,-835.20835,-743.49086)">
    <path
       style="opacity:0;fill:none"
       d="m 1044,929.36218 h 19.9998 v 19.99997 H 1044 Z"
       id="rect194"
       inkscape:connector-curvature="0" />
    <path
       style="opacity:1;stroke-linecap:round"
       d="m 1049.9863,934.16602 a 1.1836259,1.1836259 0 0 0 -0.8242,2.0332 l 8.002,8 a 1.1836259,1.1836259 0 1 0 1.6718,-1.67383 l -8.0019,-8 a 1.1836259,1.1836259 0 0 0 -0.8477,-0.35937 z"
       id="path2473"
       inkscape:connector-curvature="0" />
    <path
       style="opacity:1;stroke-linecap:round"
       d="m 1057.9766,934.16797 a 1.1836259,1.1836259 0 0 0 -0.8125,0.35742 l -8.002,8 a 1.1836259,1.1836259 0 1 0 1.6719,1.67383 l 8.0019,-8 a 1.1836259,1.1836259 0 0 0 -0.8593,-2.03125 z"
       id="path2474"
       inkscape:connector-curvature="0" />
  </g>
</svg>
