<?xml version="1.0" encoding="UTF-8" standalone="no"?>
<svg
   xmlns:dc="http://purl.org/dc/elements/1.1/"
   xmlns:cc="http://creativecommons.org/ns#"
   xmlns:rdf="http://www.w3.org/1999/02/22-rdf-syntax-ns#"
   xmlns:svg="http://www.w3.org/2000/svg"
   xmlns="http://www.w3.org/2000/svg"
   xmlns:sodipodi="http://sodipodi.sourceforge.net/DTD/sodipodi-0.dtd"
   xmlns:inkscape="http://www.inkscape.org/namespaces/inkscape"
   inkscape:version="1.0beta2 (7cf281c, 2019-12-21)"
   sodipodi:docname="paint-order-smf-symbolic.svg"
   viewBox="0 0 16 16"
   height="16"
   width="16"
   id="svg1"
   version="1.1">
  <metadata
     id="metadata15588">
    <rdf:RDF>
      <cc:Work
         rdf:about="">
        <dc:format>image/svg+xml</dc:format>
        <dc:type
           rdf:resource="http://purl.org/dc/dcmitype/StillImage" />
      </cc:Work>
    </rdf:RDF>
  </metadata>
  <defs
     id="defs15586" />
  <style
     id="s0">
.success { fill:#009909; }
.warning { fill:#FF1990; }
.error { fill:#00AAFF; }
</style>
  <style
     id="s2">
@import '../../highlights.css';
</style>
  <sodipodi:namedview
     inkscape:document-rotation="0"
     inkscape:current-layer="svg1"
     inkscape:window-maximized="1"
     inkscape:window-y="-6"
     inkscape:window-x="65"
     inkscape:window-height="890"
     inkscape:window-width="1296"
     inkscape:cy="8"
     inkscape:cx="8"
     inkscape:zoom="41.125"
     showgrid="true"
     id="namedview"
     guidetolerance="10"
     gridtolerance="10"
     objecttolerance="10">
    <inkscape:grid
       id="grid"
       type="xygrid" />
  </sodipodi:namedview>
  <g
     inkscape:label="#paint-order-sfm"
     id="paint-order-sfm">
    <path
       inkscape:connector-curvature="0"
       d="M 0,0 H 16 V 16 H 0 Z"
       id="rect22048"
       style="opacity:0;fill:none" />
    <path
       inkscape:connector-curvature="0"
       id="path15577"
       d="m 12.113281,4.3378906 a 5.9813418,5.9813418 0 0 1 0.41211,2.1738282 5.9813418,5.9813418 0 0 1 -0.226563,1.6054687 H 16 V 4.3378906 Z M 3.9003906,11.869141 v 4.121093 h 3.7792969 v -3.611328 a 5.9813418,5.9813418 0 0 1 -1.1367187,0.115235 5.9813418,5.9813418 0 0 1 -2.6425782,-0.625 z"
       style="opacity:1" />
    <path
       class="error"
       inkscape:connector-curvature="0"
       id="path15579"
       d="M 12.524524,6.5123277 A 5.9813418,5.9813418 0 0 1 6.5431819,12.49367 5.9813418,5.9813418 0 0 1 0.56184006,6.5123277 5.9813418,5.9813418 0 0 1 6.5431819,0.53098583 5.9813418,5.9813418 0 0 1 12.524524,6.5123277 Z"
       style="opacity:1" />
    <path
       class="warning"
       inkscape:connector-curvature="0"
       id="path15581"
       d="M 7.6796875,15.992577 V 8.1171875 H 16.00066 L 16.000122,16 Z"
       style="opacity:1" />
  </g>
</svg>
