<?xml version="1.0" encoding="UTF-8" standalone="no"?>
<svg
   xmlns:dc="http://purl.org/dc/elements/1.1/"
   xmlns:cc="http://creativecommons.org/ns#"
   xmlns:rdf="http://www.w3.org/1999/02/22-rdf-syntax-ns#"
   xmlns:svg="http://www.w3.org/2000/svg"
   xmlns="http://www.w3.org/2000/svg"
   xmlns:sodipodi="http://sodipodi.sourceforge.net/DTD/sodipodi-0.dtd"
   xmlns:inkscape="http://www.inkscape.org/namespaces/inkscape"
   version="1.1"
   id="svg1"
   width="16"
   height="16"
   viewBox="0 0 16 16"
   sodipodi:docname="path-division-symbolic.svg"
   inkscape:version="1.1-dev (6039630, 2019-12-20)">
  <metadata
     id="metadata6232">
    <rdf:RDF>
      <cc:Work
         rdf:about="">
        <dc:format>image/svg+xml</dc:format>
        <dc:type
           rdf:resource="http://purl.org/dc/dcmitype/StillImage" />
      </cc:Work>
    </rdf:RDF>
  </metadata>
  <defs
     id="defs6230" />
  <style
     id="s0">
.success { fill:#009909; }
.warning { fill:#FF1990; }
.error { fill:#00AAFF; }
</style>
  <style
     id="s2">
@import '../../highlights.css';
</style>
  <sodipodi:namedview
     objecttolerance="10"
     gridtolerance="10"
     guidetolerance="10"
     id="namedview"
     showgrid="true"
     inkscape:zoom="41.125"
     inkscape:cx="8"
     inkscape:cy="8"
     inkscape:window-width="1296"
     inkscape:window-height="890"
     inkscape:window-x="65"
     inkscape:window-y="-6"
     inkscape:window-maximized="1"
     inkscape:current-layer="svg1"
     inkscape:document-rotation="0">
    <inkscape:grid
       type="xygrid"
       id="grid" />
  </sodipodi:namedview>
  <g
     transform="translate(-165,-667.36218)"
     inkscape:label="00080"
     id="path-division">
    <path
       inkscape:connector-curvature="0"
       id="rect11641"
       d="m 165,667.36218 h 16 v 16 h -16 z"
       style="opacity:0;fill:none" />
    <path
       style="opacity:1"
       d="m 170,160 v 4 c 0.1324,0.0152 0.3635,0 0.5,0 1.933,0 3.5,-1.567 3.5,-3.5 0,-0.1677 -0.008,-0.3386 -0.0313,-0.5 z m 5.9687,0 c 0.0149,0.1649 0.0313,0.3312 0.0313,0.5 0,3.0376 -2.4624,5.5 -5.5,5.5 -0.1583,0 -0.3138,-0.0181 -0.4687,-0.0313 V 170 h 10 V 160 H 176 Z"
       transform="translate(0,512.3622)"
       id="path12415"
       inkscape:connector-curvature="0" />
    <path
       style="opacity:0.5"
       d="m 170.5,667.3622 c -3.0376,0 -5.5,2.4624 -5.5,5.5 0,2.8687 2.1971,5.2157 5,5.4687 v -5.9687 h 5.9687 c -0.2529,-2.8029 -2.6,-5 -5.4687,-5 z"
       id="path12456"
       inkscape:connector-curvature="0"
       class="warning" />
  </g>
</svg>
