<?xml version="1.0" encoding="UTF-8" standalone="no"?>
<svg
   xmlns:dc="http://purl.org/dc/elements/1.1/"
   xmlns:cc="http://creativecommons.org/ns#"
   xmlns:rdf="http://www.w3.org/1999/02/22-rdf-syntax-ns#"
   xmlns:svg="http://www.w3.org/2000/svg"
   xmlns="http://www.w3.org/2000/svg"
   xmlns:sodipodi="http://sodipodi.sourceforge.net/DTD/sodipodi-0.dtd"
   xmlns:inkscape="http://www.inkscape.org/namespaces/inkscape"
   version="1.1"
   id="svg1"
   width="16"
   height="16"
   viewBox="0 0 16 16"
   sodipodi:docname="path-reverse-symbolic.svg"
   inkscape:version="1.1-dev (6039630, 2019-12-20)">
  <metadata
     id="metadata1577">
    <rdf:RDF>
      <cc:Work
         rdf:about="">
        <dc:format>image/svg+xml</dc:format>
        <dc:type
           rdf:resource="http://purl.org/dc/dcmitype/StillImage" />
      </cc:Work>
    </rdf:RDF>
  </metadata>
  <defs
     id="defs1575" />
  <style
     id="s0">
.success { fill:#009909; }
.warning { fill:#FF1990; }
.error { fill:#00AAFF; }
</style>
  <style
     id="s2">
@import '../../highlights.css';
</style>
  <sodipodi:namedview
     objecttolerance="10"
     gridtolerance="10"
     guidetolerance="10"
     id="namedview"
     showgrid="true"
     inkscape:zoom="20.5625"
     inkscape:cx="4.414421"
     inkscape:cy="4.9486121"
     inkscape:window-width="1296"
     inkscape:window-height="890"
     inkscape:window-x="65"
     inkscape:window-y="-6"
     inkscape:window-maximized="1"
     inkscape:current-layer="path-reverse"
     inkscape:document-rotation="0"
     inkscape:snap-global="true">
    <inkscape:grid
       type="xygrid"
       id="grid" />
  </sodipodi:namedview>
  <g
     transform="matrix(0.988179,0,0,0.9858,-162.93565,-835.21727)"
     inkscape:label="00089"
     id="path-reverse">
    <path
       inkscape:connector-curvature="0"
       id="rect15611"
       d="m 165,335 h 16 v 16 h -16 z"
       style="opacity:0;fill:none"
       transform="translate(0,512.3622)" />
    <path
       inkscape:connector-curvature="0"
       id="path15627"
       d="m 164.88475,852.32022 1.83938,1.14578 c 0.24667,-1.43442 1.02471,-2.0991 2.20847,-2.16019 v 2.02881 l 3.0557,-2.97242 -3.0557,-3.11401 v 2.02881 c -1.23699,0.0882 -3.58089,0.80165 -4.04785,3.04322 z"
       style="opacity:1"
       sodipodi:nodetypes="cccccccc"
       class="success" />
    <path
       inkscape:connector-curvature="0"
       id="path15631"
       d="m 180.25977,847.24805 -0.13672,0.4082 c -1.28918,3.08493 -3.84395,6.96631 -7.12305,7.27539 -4.3543,0.41042 -6.52146,4.12364 -7.97656,7.86133 l -0.13867,0.4082 0.81445,0.27735 0.13867,-0.40821 c 1.30688,-3.08272 3.8755,-6.96812 7.16211,-7.27734 4.35059,-0.40932 6.50417,-4.12439 7.93945,-7.86328 l 0.13672,-0.40821 z"
       style="opacity:1"
       sodipodi:nodetypes="ccsccccsccc" />
    <path
       inkscape:connector-curvature="0"
       id="rect15633"
       d="m 170.95653,853.33462 h 4.04785 v 4.05762 h -4.04785 z"
       style="opacity:1"
       sodipodi:nodetypes="ccccc" />
    <path
       sodipodi:nodetypes="cccccccc"
       style="opacity:1"
       d="m 181.07615,858.40664 -1.83938,-1.14578 c -0.24667,1.43442 -1.02471,2.0991 -2.20847,2.16019 v -2.02881 l -3.0557,2.97242 3.0557,3.11401 v -2.02881 c 1.23699,-0.0882 3.58089,-0.80165 4.04785,-3.04322 z"
       id="path2140"
       inkscape:connector-curvature="0"
       class="success" />
  </g>
</svg>
