<?xml version="1.0" encoding="UTF-8" standalone="no"?>
<svg
   xmlns:dc="http://purl.org/dc/elements/1.1/"
   xmlns:cc="http://creativecommons.org/ns#"
   xmlns:rdf="http://www.w3.org/1999/02/22-rdf-syntax-ns#"
   xmlns:svg="http://www.w3.org/2000/svg"
   xmlns="http://www.w3.org/2000/svg"
   xmlns:sodipodi="http://sodipodi.sourceforge.net/DTD/sodipodi-0.dtd"
   xmlns:inkscape="http://www.inkscape.org/namespaces/inkscape"
   inkscape:version="1.1-dev (6039630, 2019-12-20)"
   sodipodi:docname="path-mode-polyline-paraxial-symbolic.svg"
   viewBox="0 0 16 16"
   height="16"
   width="16"
   id="svg1"
   version="1.1">
  <style
     id="s0">
.success { fill:#009909; }
.warning { fill:#FF1990; }
.error { fill:#00AAFF; }
</style>
  <style
     id="s2">
@import '../../highlights.css';
</style>
  <metadata
     id="metadata10">
    <rdf:RDF>
      <cc:Work
         rdf:about="">
        <dc:format>image/svg+xml</dc:format>
        <dc:type
           rdf:resource="http://purl.org/dc/dcmitype/StillImage" />
      </cc:Work>
    </rdf:RDF>
  </metadata>
  <defs
     id="defs8" />
  <sodipodi:namedview
     inkscape:document-rotation="0"
     inkscape:current-layer="svg1"
     inkscape:window-maximized="1"
     inkscape:window-y="-6"
     inkscape:window-x="65"
     inkscape:window-height="890"
     inkscape:window-width="1296"
     inkscape:cy="-4.6355167"
     inkscape:cx="31.076513"
     inkscape:zoom="11.313708"
     showgrid="true"
     id="namedview"
     guidetolerance="10"
     gridtolerance="10"
     objecttolerance="10">
    <inkscape:grid
       id="grid"
       type="xygrid" />
  </sodipodi:namedview>
  <g
     id="path-mode-polyline-paraxial"
     inkscape:label="00215"
     transform="matrix(0.96486338,0.20508804,-0.20607396,0.96950175,-827.82271,-742.56732)">
    <path
       style="opacity:0;fill:none;stroke-width:0.851361"
       d="m 980.20345,558.57487 h 13.62178 v 13.62178 h -13.62178 z"
       id="rect4983-8-8"
       inkscape:connector-curvature="0" />
    <path
       style="opacity:1;stroke-linecap:round"
       d="m 990.53893,556.56605 a 0.85008502,0.85008502 0 0 0 -0.83594,0.86133 v 9.23047 h -2.44531 v -5.01563 a 0.85008502,0.85008502 0 0 0 -0.84961,-0.8496 h -6.20117 a 0.85008502,0.85008502 0 0 0 -0.84961,0.8496 v 5.86524 a 0.85008502,0.85008502 0 0 0 0.84961,0.84961 h 5.35156 v 3.50195 a 0.85008502,0.85008502 0 0 0 0.84961,0.84961 h 4.14453 a 0.85008502,0.85008502 0 0 0 0.84961,-0.84961 v -3.50195 h 3.29687 a 0.85008502,0.85008502 0 1 0 0,-1.69922 h -3.29687 v -9.23047 a 0.85008502,0.85008502 0 0 0 -0.86328,-0.86133 z m -9.48242,5.92578 h 4.50195 v 4.16602 h -4.50195 z m 6.20117,5.86524 h 2.44531 v 2.65234 h -2.44531 z"
       id="path21371"
       inkscape:connector-curvature="0" />
  </g>
</svg>
