<?xml version="1.0" encoding="UTF-8" standalone="no"?>
<svg
   xmlns:dc="http://purl.org/dc/elements/1.1/"
   xmlns:cc="http://creativecommons.org/ns#"
   xmlns:rdf="http://www.w3.org/1999/02/22-rdf-syntax-ns#"
   xmlns:svg="http://www.w3.org/2000/svg"
   xmlns="http://www.w3.org/2000/svg"
   xmlns:sodipodi="http://sodipodi.sourceforge.net/DTD/sodipodi-0.dtd"
   xmlns:inkscape="http://www.inkscape.org/namespaces/inkscape"
   inkscape:version="1.1-dev (6039630, 2019-12-20)"
   sodipodi:docname="path-intersection-symbolic.svg"
   viewBox="0 0 16 16"
   height="16"
   width="16"
   id="svg1"
   version="1.1">
  <metadata
     id="metadata946">
    <rdf:RDF>
      <cc:Work
         rdf:about="">
        <dc:format>image/svg+xml</dc:format>
        <dc:type
           rdf:resource="http://purl.org/dc/dcmitype/StillImage" />
      </cc:Work>
    </rdf:RDF>
  </metadata>
  <defs
     id="defs944" />
  <style
     id="s0">
.success { fill:#009909; }
.warning { fill:#FF1990; }
.error { fill:#00AAFF; }
</style>
  <style
     id="s2">
@import '../../highlights.css';
</style>
  <sodipodi:namedview
     inkscape:document-rotation="0"
     inkscape:current-layer="svg1"
     inkscape:window-maximized="1"
     inkscape:window-y="-6"
     inkscape:window-x="65"
     inkscape:window-height="890"
     inkscape:window-width="1296"
     inkscape:cy="8"
     inkscape:cx="8"
     inkscape:zoom="41.125"
     showgrid="true"
     id="namedview"
     guidetolerance="10"
     gridtolerance="10"
     objecttolerance="10">
    <inkscape:grid
       id="grid"
       type="xygrid" />
  </sodipodi:namedview>
  <g
     id="path-intersection"
     inkscape:label="00078"
     transform="translate(-165,-627.36218)">
    <path
       style="opacity:0;fill:none"
       d="m 165,627.36218 h 16 v 16 h -16 z"
       id="rect23162"
       inkscape:connector-curvature="0" />
    <path
       class="warning"
       id="path23169"
       transform="translate(0,512.3622)"
       d="m 170.5,115 c -3.0376,0 -5.5,2.4624 -5.5,5.5 0,2.8688 2.1971,5.2158 5,5.4688 v -0.1563 c 0.206,0.0234 0.3814,0.125 0.5937,0.125 0.9102,0 1.7749,-0.2018 2.5313,-0.5937 0.1687,-0.0875 0.3108,-0.2087 0.4687,-0.3125 0.0187,-0.0129 0.044,-0.0182 0.0625,-0.0313 0.1157,-0.0782 0.2346,-0.1635 0.3438,-0.25 0.0283,-0.0233 0.0659,-0.0386 0.0937,-0.0625 0.1076,-0.0888 0.1808,-0.216 0.2813,-0.3125 0.0259,-0.0259 0.0683,-0.0361 0.0937,-0.0625 0.0986,-0.0985 0.1904,-0.2068 0.2813,-0.3125 0.7846,-0.9507 1.25,-2.1711 1.25,-3.5 0,-3.0376 -2.4624,-5.5 -5.5,-5.5 z"
       style="opacity:0.5"
       inkscape:connector-curvature="0" />
    <path
       class="warning"
       transform="translate(0,512.3622)"
       style="opacity:0.5"
       d="m 170,120 h 10 v 10 h -10 z"
       id="rect23184"
       inkscape:connector-curvature="0" />
  </g>
  <path
     inkscape:connector-curvature="0"
     style="opacity:1"
     d="m 5,5.00002 v 5.9688 c 0.1649,0.0148 0.3312,0.0312 0.5,0.0312 3.0376,0 5.5,-2.4624 5.5,-5.5 0,-0.1688 -0.0164,-0.3351 -0.0313,-0.5 z"
     id="path23158" />
</svg>
