<?xml version="1.0" encoding="UTF-8" standalone="no"?>
<svg
   xmlns:dc="http://purl.org/dc/elements/1.1/"
   xmlns:cc="http://creativecommons.org/ns#"
   xmlns:rdf="http://www.w3.org/1999/02/22-rdf-syntax-ns#"
   xmlns:svg="http://www.w3.org/2000/svg"
   xmlns="http://www.w3.org/2000/svg"
   xmlns:xlink="http://www.w3.org/1999/xlink"
   xmlns:sodipodi="http://sodipodi.sourceforge.net/DTD/sodipodi-0.dtd"
   xmlns:inkscape="http://www.inkscape.org/namespaces/inkscape"
   inkscape:version="1.1-dev (6039630, 2019-12-20)"
   sodipodi:docname="path-clip-edit-symbolic.svg"
   viewBox="0 0 16 16"
   height="16"
   width="16"
   id="svg1"
   version="1.1">
  <metadata
     id="metadata2630">
    <rdf:RDF>
      <cc:Work
         rdf:about="">
        <dc:format>image/svg+xml</dc:format>
        <dc:type
           rdf:resource="http://purl.org/dc/dcmitype/StillImage" />
      </cc:Work>
    </rdf:RDF>
  </metadata>
  <defs
     id="defs2628" />
  <style
     id="s0">
.success { fill:#009909; }
.warning { fill:#FF1990; }
.error { fill:#00AAFF; }
</style>
  <style
     id="s2">
@import '../../highlights.css';
</style>
  <sodipodi:namedview
     inkscape:document-rotation="0"
     inkscape:current-layer="svg1"
     inkscape:window-maximized="1"
     inkscape:window-y="-6"
     inkscape:window-x="65"
     inkscape:window-height="890"
     inkscape:window-width="1296"
     inkscape:cy="8"
     inkscape:cx="8"
     inkscape:zoom="43.25"
     showgrid="true"
     id="namedview"
     guidetolerance="10"
     gridtolerance="10"
     objecttolerance="10">
    <inkscape:grid
       id="grid"
       type="xygrid" />
  </sodipodi:namedview>
  <g
     inkscape:label="00210"
     id="path-clip-edit"
     transform="translate(-829,-558.36218)">
    <path
       style="opacity:0;fill:none"
       d="m 829,558.36218 h 16 v 16 h -16 z"
       id="rect4815"
       inkscape:connector-curvature="0" />
    <path
       style="opacity:1;stroke-linecap:butt"
       d="m 836.37695,563.45508 -0.70703,0.70703 c 1.54911,1.5491 3.12462,2.48839 4.63867,2.76367 1.51406,0.27528 2.96524,-0.16055 4.06836,-1.26367 l -0.70703,-0.70703 c -0.89688,0.89688 -1.94569,1.21104 -3.18164,0.98633 -1.23595,-0.22472 -2.66043,-1.03544 -4.11133,-2.48633 z"
       id="path4828"
       inkscape:connector-curvature="0" />
    <use
       xlink:href="#path4828"
       x="0"
       y="0"
       id="use4830"
       transform="matrix(0,1,1,0,271.04492,-270.85383)"
       width="1250"
       height="1250" />
    <path
       style="opacity:1;stroke-linecap:round"
       d="m 842.51758,560.30664 a 0.50005012,0.50005012 0 0 0 -0.0859,0.01 c -5.57841,1.03624 -10.57145,4.7277 -11.4043,11.42968 a 0.50005012,0.50005012 0 1 0 0.99219,0.125 c 0.77875,-6.26662 5.32351,-9.59095 10.5957,-10.57031 a 0.50005012,0.50005012 0 0 0 -0.0977,-0.99414 z"
       id="path4813"
       inkscape:connector-curvature="0" />
    <path
       transform="matrix(1.5,0,0,1.5,-420.5,487.3622)"
       style="opacity:1"
       d="m 843,49 a 1,1 0 0 1 -1,1 1,1 0 0 1 -1,-1 1,1 0 0 1 1,-1 1,1 0 0 1 1,1 z"
       id="path17299"
       inkscape:connector-curvature="0" />
    <path
       transform="matrix(1.5,0,0,1.5,-431.5,498.3622)"
       style="opacity:1"
       d="m 843,49 a 1,1 0 0 1 -1,1 1,1 0 0 1 -1,-1 1,1 0 0 1 1,-1 1,1 0 0 1 1,1 z"
       id="path17301"
       inkscape:connector-curvature="0" />
  </g>
</svg>
