<?xml version="1.0" encoding="UTF-8" standalone="no"?>
<svg
   xmlns:dc="http://purl.org/dc/elements/1.1/"
   xmlns:cc="http://creativecommons.org/ns#"
   xmlns:rdf="http://www.w3.org/1999/02/22-rdf-syntax-ns#"
   xmlns:svg="http://www.w3.org/2000/svg"
   xmlns="http://www.w3.org/2000/svg"
   xmlns:sodipodi="http://sodipodi.sourceforge.net/DTD/sodipodi-0.dtd"
   xmlns:inkscape="http://www.inkscape.org/namespaces/inkscape"
   inkscape:version="1.1-dev (6039630, 2019-12-20)"
   sodipodi:docname="path-mode-polyline-symbolic.svg"
   viewBox="0 0 16 16"
   height="16"
   width="16"
   id="svg1"
   version="1.1">
  <metadata
     id="metadata6081">
    <rdf:RDF>
      <cc:Work
         rdf:about="">
        <dc:format>image/svg+xml</dc:format>
        <dc:type
           rdf:resource="http://purl.org/dc/dcmitype/StillImage" />
      </cc:Work>
    </rdf:RDF>
  </metadata>
  <defs
     id="defs6079" />
  <style
     id="s0">
.success { fill:#009909; }
.warning { fill:#FF1990; }
.error { fill:#00AAFF; }
</style>
  <style
     id="s2">
@import '../../highlights.css';
</style>
  <sodipodi:namedview
     inkscape:document-rotation="0"
     inkscape:current-layer="svg1"
     inkscape:window-maximized="1"
     inkscape:window-y="-6"
     inkscape:window-x="65"
     inkscape:window-height="890"
     inkscape:window-width="1296"
     inkscape:cy="8"
     inkscape:cx="8"
     inkscape:zoom="43.25"
     showgrid="true"
     id="namedview"
     guidetolerance="10"
     gridtolerance="10"
     objecttolerance="10">
    <inkscape:grid
       id="grid"
       type="xygrid" />
  </sodipodi:namedview>
  <g
     id="path-mode-polyline"
     inkscape:label="00214"
     transform="matrix(0.99981,0,0,1,-948.81869,-557.36218)">
    <path
       style="opacity:0;fill:none"
       d="m 949,557.36218 h 16 v 16 h -16 z"
       id="rect4983-8"
       inkscape:connector-curvature="0" />
    <path
       style="opacity:1;stroke-linecap:round"
       d="m 955.68164,557.36328 a 0.81837528,0.81837528 0 0 0 -0.50391,0.17578 l -5.86718,4.63477 a 0.81837528,0.81837528 0 0 0 0.14062,1.375 l 3.74024,1.87109 -1.58594,6.94141 a 0.81837528,0.81837528 0 0 0 1.32422,0.80859 l 5.86328,-4.94726 5.02344,2.51367 a 0.81887493,0.81887493 0 1 0 0.73242,-1.46485 l -4.39258,-2.19726 2.14063,-1.80664 a 0.81837528,0.81837528 0 1 0 -1.05469,-1.25 l -2.67774,2.25976 -3.49023,-1.74609 1.4082,-6.16797 a 0.81837528,0.81837528 0 0 0 -0.80078,-1 z m -1.3125,2.90039 -0.80273,3.51367 -2.23047,-1.11718 z m 0.32813,5.91016 2.5039,1.25195 -3.45508,2.91406 z"
       id="path4985-5"
       inkscape:connector-curvature="0" />
  </g>
</svg>
