<?xml version="1.0" encoding="UTF-8" standalone="no"?>
<svg
   xmlns:dc="http://purl.org/dc/elements/1.1/"
   xmlns:cc="http://creativecommons.org/ns#"
   xmlns:rdf="http://www.w3.org/1999/02/22-rdf-syntax-ns#"
   xmlns:svg="http://www.w3.org/2000/svg"
   xmlns="http://www.w3.org/2000/svg"
   xmlns:sodipodi="http://sodipodi.sourceforge.net/DTD/sodipodi-0.dtd"
   xmlns:inkscape="http://www.inkscape.org/namespaces/inkscape"
   inkscape:version="1.0beta2 (7cf281c, 2019-12-21)"
   sodipodi:docname="path-effect-parameter-next-symbolic.svg"
   viewBox="0 0 16 16"
   height="16"
   width="16"
   id="svg1"
   version="1.1">
  <metadata
     id="metadata7404">
    <rdf:RDF>
      <cc:Work
         rdf:about="">
        <dc:format>image/svg+xml</dc:format>
        <dc:type
           rdf:resource="http://purl.org/dc/dcmitype/StillImage" />
      </cc:Work>
    </rdf:RDF>
  </metadata>
  <defs
     id="defs7402" />
  <style
     id="s0">
.success { fill:#009909; }
.warning { fill:#FF1990; }
.error { fill:#00AAFF; }
</style>
  <style
     id="s2">
@import '../../highlights.css';
</style>
  <sodipodi:namedview
     inkscape:document-rotation="0"
     inkscape:current-layer="svg1"
     inkscape:window-maximized="1"
     inkscape:window-y="-6"
     inkscape:window-x="65"
     inkscape:window-height="890"
     inkscape:window-width="1296"
     inkscape:cy="8"
     inkscape:cx="8"
     inkscape:zoom="41.125"
     showgrid="true"
     id="namedview"
     guidetolerance="10"
     gridtolerance="10"
     objecttolerance="10">
    <inkscape:grid
       id="grid"
       type="xygrid" />
  </sodipodi:namedview>
  <g
     inkscape:label="00208"
     id="path-effect-parameter-next"
     transform="translate(-768.9375,-558.36218)">
    <path
       style="opacity:0;fill:none"
       d="m 768.9375,558.36218 h 16 v 16 h -16 z"
       id="rect9258"
       inkscape:connector-curvature="0" />
    <path
       style="opacity:1"
       d="m 782.3676,560.3087 c -5.5785,1.0362 -10.5734,4.7355 -11.4063,11.4375 a 0.50389111,0.50389111 0 1 0 1,0.125 c 0.7787,-6.2666 5.3216,-9.5832 10.5938,-10.5625 a 0.50871314,0.50871314 0 1 0 -0.1875,-1 z"
       id="path9256"
       inkscape:connector-curvature="0" />
    <path
       class="error"
       transform="translate(0,512.3622)"
       inkscape:connector-curvature="0"
       id="path17065"
       d="m 777.9902,55.05469 0.053,6.06445 3.9024,-3.16406 z"
       style="opacity:1" />
    <path
       class="error"
       style="opacity:1"
       d="m 783,567.36218 h 0.94922 v 6 H 783 Z"
       id="rect17067"
       inkscape:connector-curvature="0" />
    <path
       transform="translate(0,512.3622)"
       style="opacity:1"
       d="M 784,48.5 A 1.5,1.5 0 0 1 782.5,50 1.5,1.5 0 0 1 781,48.5 1.5,1.5 0 0 1 782.5,47 1.5,1.5 0 0 1 784,48.5 Z"
       id="path17075"
       inkscape:connector-curvature="0" />
    <path
       transform="matrix(1,0,0,1.5,0,481.8622)"
       style="opacity:1"
       d="m 773,60 a 1.5,1 0 0 1 -1.5,1 1.5,1 0 0 1 -1.5,-1 1.5,1 0 0 1 1.5,-1 1.5,1 0 0 1 1.5,1 z"
       id="path17077"
       inkscape:connector-curvature="0" />
    <path
       class="error"
       inkscape:connector-curvature="0"
       id="path17141"
       d="m 771.9205,562.5712 c -1.2435,1.8693 -1.2766,4.2067 0.2444,5.615 1.4792,0.8068 2.9545,0.6486 4.7753,-0.9867 -3.248,0.4264 -4.9899,-1.103 -5.0197,-4.6283 z"
       style="opacity:1" />
    <path
       class="error"
       style="opacity:1"
       d="m 777.8609,559.4745 c -1.5099,0.9137 -2.2988,2.505 -1.6614,3.9183 0.8042,0.9889 1.9214,1.3157 3.7716,0.7325 -2.4852,-0.6659 -3.2426,-2.2272 -2.1102,-4.6508 z"
       id="path17143"
       inkscape:connector-curvature="0" />
  </g>
</svg>
