<?xml version="1.0" encoding="UTF-8" standalone="no"?>
<svg
   xmlns:dc="http://purl.org/dc/elements/1.1/"
   xmlns:cc="http://creativecommons.org/ns#"
   xmlns:rdf="http://www.w3.org/1999/02/22-rdf-syntax-ns#"
   xmlns:svg="http://www.w3.org/2000/svg"
   xmlns="http://www.w3.org/2000/svg"
   xmlns:sodipodi="http://sodipodi.sourceforge.net/DTD/sodipodi-0.dtd"
   xmlns:inkscape="http://www.inkscape.org/namespaces/inkscape"
   inkscape:version="1.1-dev (6039630, 2019-12-20)"
   sodipodi:docname="path-simplify-symbolic.svg"
   viewBox="0 0 16 16"
   height="16"
   width="16"
   id="svg1"
   version="1.1">
  <metadata
     id="metadata3605">
    <rdf:RDF>
      <cc:Work
         rdf:about="">
        <dc:format>image/svg+xml</dc:format>
        <dc:type
           rdf:resource="http://purl.org/dc/dcmitype/StillImage" />
      </cc:Work>
    </rdf:RDF>
  </metadata>
  <defs
     id="defs3603" />
  <style
     id="s0">
.success { fill:#009909; }
.warning { fill:#FF1990; }
.error { fill:#00AAFF; }
</style>
  <style
     id="s2">
@import '../../highlights.css';
</style>
  <sodipodi:namedview
     inkscape:document-rotation="0"
     inkscape:current-layer="svg1"
     inkscape:window-maximized="1"
     inkscape:window-y="-6"
     inkscape:window-x="65"
     inkscape:window-height="890"
     inkscape:window-width="1296"
     inkscape:cy="8"
     inkscape:cx="8"
     inkscape:zoom="41.125"
     showgrid="true"
     id="namedview"
     guidetolerance="10"
     gridtolerance="10"
     objecttolerance="10">
    <inkscape:grid
       id="grid"
       type="xygrid" />
  </sodipodi:namedview>
  <g
     id="path-simplify"
     inkscape:label="00088"
     transform="translate(-165,-827.3622)">
    <path
       transform="translate(0,512.3622)"
       style="opacity:0;fill:none;stroke-linecap:round"
       d="m 165,315 h 16 v 16 h -16 z"
       id="rect19858"
       inkscape:connector-curvature="0" />
    <path
       inkscape:connector-curvature="0"
       id="path15542"
       d="m 170.4005,827.5184 c -1.2455,-0.2089 -2.629,0.3508 -4.0726,1.9688 a 0.8197254,1.0001 0 1 0 1.1014,1.4687 c 1.2202,-1.3676 2.0396,-1.5906 2.7663,-1.4687 0.7267,0.1219 1.498,0.7316 2.3565,1.5 0.8584,0.7683 1.7771,1.6707 2.9712,2.0937 1.194,0.423 2.6417,0.2206 4.1238,-1.0312 a 0.82782028,1.0099763 0 0 0 -0.9477,-1.6563 c -1.1818,0.9982 -1.9369,1.0569 -2.7151,0.7813 -0.7782,-0.2757 -1.6013,-1.022 -2.4845,-1.8125 -0.8833,-0.7906 -1.8538,-1.6349 -3.0993,-1.8438 z"
       style="opacity:0.5" />
    <path
       inkscape:connector-curvature="0"
       id="path10936-5"
       d="m 166.7846,840.3622 a 0.8213286,1.001098 0 1 0 0.0768,2 h 12.3064 a 0.8205098,1.0001 0 1 0 0,-2 h -12.3064 a 0.8205098,1.0001 0 0 0 -0.0768,0 z"
       style="opacity:1" />
    <path
       class="success"
       inkscape:connector-curvature="0"
       id="path15546"
       d="m 170,835.3622 h 5 1 l -3,3 z"
       style="opacity:1" />
  </g>
</svg>
