<?xml version="1.0" encoding="UTF-8" standalone="no"?>
<svg
   xmlns:dc="http://purl.org/dc/elements/1.1/"
   xmlns:cc="http://creativecommons.org/ns#"
   xmlns:rdf="http://www.w3.org/1999/02/22-rdf-syntax-ns#"
   xmlns:svg="http://www.w3.org/2000/svg"
   xmlns="http://www.w3.org/2000/svg"
   xmlns:sodipodi="http://sodipodi.sourceforge.net/DTD/sodipodi-0.dtd"
   xmlns:inkscape="http://www.inkscape.org/namespaces/inkscape"
   inkscape:version="1.1-dev (6039630, 2019-12-20)"
   sodipodi:docname="path-cut-symbolic.svg"
   viewBox="0 0 16 16"
   height="16"
   width="16"
   id="svg1"
   version="1.1">
  <metadata
     id="metadata5082">
    <rdf:RDF>
      <cc:Work
         rdf:about="">
        <dc:format>image/svg+xml</dc:format>
        <dc:type
           rdf:resource="http://purl.org/dc/dcmitype/StillImage" />
      </cc:Work>
    </rdf:RDF>
  </metadata>
  <defs
     id="defs5080" />
  <style
     id="s0">
.success { fill:#009909; }
.warning { fill:#FF1990; }
.error { fill:#00AAFF; }
</style>
  <style
     id="s2">
@import '../../highlights.css';
</style>
  <sodipodi:namedview
     inkscape:document-rotation="0"
     inkscape:current-layer="svg1"
     inkscape:window-maximized="1"
     inkscape:window-y="-6"
     inkscape:window-x="65"
     inkscape:window-height="890"
     inkscape:window-width="1296"
     inkscape:cy="8"
     inkscape:cx="8"
     inkscape:zoom="41.125"
     showgrid="true"
     id="namedview"
     guidetolerance="10"
     gridtolerance="10"
     objecttolerance="10">
    <inkscape:grid
       id="grid"
       type="xygrid" />
  </sodipodi:namedview>
  <g
     id="path-cut"
     inkscape:label="00081"
     transform="matrix(1,0,0,0.999999,-165.0312,-687.36132)">
    <path
       style="opacity:0;fill:none"
       d="m 165.0312,687.36218 h 16 v 16 h -16 z"
       id="rect12506"
       inkscape:connector-curvature="0" />
    <path
       class="warning"
       style="opacity:0.5"
       d="m 170.5312,687.3622 c -3.0376,0 -5.5,2.4625 -5.5,5.5 0,3.0376 2.4624,5.5 5.5,5.5 3.0376,0 5.5,-2.4624 5.5,-5.5 0,-3.0375 -2.4624,-5.5 -5.5,-5.5 z m 0,2 c 1.933,0 3.5,1.567 3.5,3.5 0,1.933 -1.567,3.5 -3.5,3.5 -1.933,0 -3.5,-1.567 -3.5,-3.5 0,-1.933 1.567,-3.5 3.5,-3.5 z"
       id="path12508"
       inkscape:connector-curvature="0" />
    <path
       sodipodi:nodetypes="ccccccccccccccccc"
       style="opacity:1"
       d="m 177.0156,692.3622 v 0.5 0.5 H 180 v 9 h -9 v -3.01565 h -0.4688 -0.5 v 4.01565 h 2 9 v -2 -7 -2 h -2 z"
       id="path12510"
       inkscape:connector-curvature="0" />
    <path
       inkscape:connector-curvature="0"
       id="rect12515"
       transform="translate(0,512.3622)"
       d="m 170,180 v 2 1 h 1 v -2 h 2 v -1 h -1 z"
       style="opacity:1" />
  </g>
</svg>
