<?xml version="1.0" encoding="UTF-8" standalone="no"?>
<svg
   xmlns:dc="http://purl.org/dc/elements/1.1/"
   xmlns:cc="http://creativecommons.org/ns#"
   xmlns:rdf="http://www.w3.org/1999/02/22-rdf-syntax-ns#"
   xmlns:svg="http://www.w3.org/2000/svg"
   xmlns="http://www.w3.org/2000/svg"
   xmlns:sodipodi="http://sodipodi.sourceforge.net/DTD/sodipodi-0.dtd"
   xmlns:inkscape="http://www.inkscape.org/namespaces/inkscape"
   inkscape:version="1.0beta2 (7cf281c, 2019-12-21)"
   sodipodi:docname="pixelart-trace-symbolic.svg"
   viewBox="0 0 16 16"
   height="16"
   width="16"
   id="svg1"
   version="1.1">
  <metadata
     id="metadata21586">
    <rdf:RDF>
      <cc:Work
         rdf:about="">
        <dc:format>image/svg+xml</dc:format>
        <dc:type
           rdf:resource="http://purl.org/dc/dcmitype/StillImage" />
      </cc:Work>
    </rdf:RDF>
  </metadata>
  <defs
     id="defs21584" />
  <style
     id="s0">
.success { fill:#009909; }
.warning { fill:#FF1990; }
.error { fill:#00AAFF; }
</style>
  <style
     id="s2">
@import '../../highlights.css';
</style>
  <sodipodi:namedview
     inkscape:document-rotation="0"
     inkscape:current-layer="pixelart-trace"
     inkscape:window-maximized="1"
     inkscape:window-y="-6"
     inkscape:window-x="65"
     inkscape:window-height="890"
     inkscape:window-width="1296"
     inkscape:cy="8"
     inkscape:cx="8"
     inkscape:zoom="41.125"
     showgrid="true"
     id="namedview"
     guidetolerance="10"
     gridtolerance="10"
     objecttolerance="10">
    <inkscape:grid
       id="grid"
       type="xygrid" />
  </sodipodi:namedview>
  <g
     inkscape:label="00090"
     id="pixelart-trace">
    <path
       style="opacity:0;fill:none"
       d="M 0,0 H 16 V 16 H 0 Z"
       id="rect36770"
       inkscape:connector-curvature="0" />
    <g
       id="g36772">
      <path
         inkscape:connector-curvature="0"
         d="M 1,1 V 2 H 2 V 3 H 3 V 2 1 H 2 Z M 3,3 V 4 H 4 V 3 Z M 4,3 H 5 V 2 H 4 Z M 5,2 h 1 1 1 1 1 V 1 H 9 8 7 6 5 Z m 5,0 v 1 h 1 1 1 V 2 h 1 V 1 H 13 12 11 V 2 Z M 3,4 H 2 V 5 6 H 3 V 5 Z M 2,6 H 1 V 7 8 H 2 V 7 Z M 2,8 V 9 H 3 V 8 Z M 2,9 H 1 v 1 1 h 1 v -1 z m 0,2 v 1 h 1 v -1 z m 1,1 v 1 h 1 v -1 z m 1,1 v 1 h 1 v -1 z m 1,1 v 1 h 1 v 1 H 7 V 15 14 H 6 Z M 12,4 v 1 h 1 V 4 Z m 1,1 v 1 1 1 1 h 1 V 8 7 6 5 Z m 1,4 v 1 1 h 1 V 10 9 Z m 0,2 h -1 v 1 h 1 z m -1,1 h -1 v 1 h 1 z m -1,1 h -1 v 1 h 1 z m -1,1 H 10 9 v 1 1 h 1 v -1 h 1 z M 5,5 V 6 H 6 V 5 Z M 5,6 H 4 V 7 H 5 Z M 5,7 V 8 H 6 V 7 Z M 9,5 v 1 h 1 1 V 5 h -1 z m 2,1 v 1 h 1 V 6 Z m 0,1 H 10 9 v 1 h 1 1 z M 9,7 V 6 H 8 v 1 z"
         id="path36774" />
      <path
         inkscape:connector-curvature="0"
         style="opacity:0.6"
         d="m 6,9 v 1 H 7 V 9 Z m 1,1 v 1 h 1 v -1 z m 1,1 v 1 h 1 v -1 z m 1,0 h 1 V 10 H 9 Z M 6,10 H 5 v 1 H 6 Z M 5,11 H 4 v 1 h 1 z"
         id="path36776" />
    </g>
  </g>
</svg>
