<?xml version="1.0" encoding="UTF-8" standalone="no"?>
<svg
   xmlns:dc="http://purl.org/dc/elements/1.1/"
   xmlns:cc="http://creativecommons.org/ns#"
   xmlns:rdf="http://www.w3.org/1999/02/22-rdf-syntax-ns#"
   xmlns:svg="http://www.w3.org/2000/svg"
   xmlns="http://www.w3.org/2000/svg"
   xmlns:sodipodi="http://sodipodi.sourceforge.net/DTD/sodipodi-0.dtd"
   xmlns:inkscape="http://www.inkscape.org/namespaces/inkscape"
   inkscape:version="1.1-dev (1fceb22ce1, 2019-12-30, custom)"
   sodipodi:docname="roughen-symbolic.svg"
   viewBox="0 0 16 16"
   height="16"
   width="16"
   id="svg1"
   version="1.1">
  <defs
     id="defs980" />
  <style
     id="s0">
.success { fill:#009909; }
.warning { fill:#FF1990; }
.error { fill:#00AAFF; }
</style>
  <style
     id="s2">
@import '../../highlights.css';
</style>
  <sodipodi:namedview
     inkscape:current-layer="layercompo"
     inkscape:window-maximized="1"
     inkscape:window-height="1376"
     inkscape:window-width="2560"
     inkscape:document-rotation="0"
     inkscape:window-y="27"
     inkscape:window-x="0"
     inkscape:cy="8.5147608"
     inkscape:cx="2.9784176"
     inkscape:zoom="38.41879"
     showgrid="true"
     id="namedview"
     guidetolerance="10"
     gridtolerance="10"
     objecttolerance="10">
    <inkscape:grid
       id="grid"
       type="xygrid" />
  </sodipodi:namedview>
  <metadata
     id="metadata1906">
    <rdf:RDF>
      <cc:Work
         rdf:about="">
        <dc:format>image/svg+xml</dc:format>
        <dc:type
           rdf:resource="http://purl.org/dc/dcmitype/StillImage" />
        <cc:license
           rdf:resource="http://creativecommons.org/publicdomain/zero/1.0/" />
        <dc:title></dc:title>
        <dc:date>13 Jan 2019</dc:date>
        <dc:creator>
          <cc:Agent>
            <dc:title>Ramón Miranda</dc:title>
          </cc:Agent>
        </dc:creator>
        <dc:rights>
          <cc:Agent>
            <dc:title>see the license tab</dc:title>
          </cc:Agent>
        </dc:rights>
        <dc:subject>
          <rdf:Bag>
            <rdf:li>icon ui</rdf:li>
          </rdf:Bag>
        </dc:subject>
        <dc:description>This is a contribution with Inkscape Project from
Ramon Miranda www.ramonmiranda.com (design and SVG file)
Jabiertxo (SVG stuff to integrate them in UI)</dc:description>
        <dc:publisher>
          <cc:Agent>
            <dc:title />
          </cc:Agent>
        </dc:publisher>
        <dc:identifier />
        <dc:source />
        <dc:relation />
        <dc:language>-</dc:language>
        <dc:coverage />
        <dc:contributor>
          <cc:Agent>
            <dc:title>Ramon Miranda
Jabier Arraiza</dc:title>
          </cc:Agent>
        </dc:contributor>
      </cc:Work>
      <cc:License
         rdf:about="http://creativecommons.org/publicdomain/zero/1.0/">
        <cc:permits
           rdf:resource="http://creativecommons.org/ns#Reproduction" />
        <cc:permits
           rdf:resource="http://creativecommons.org/ns#Distribution" />
        <cc:permits
           rdf:resource="http://creativecommons.org/ns#DerivativeWorks" />
      </cc:License>
    </rdf:RDF>
  </metadata>
  <g
     inkscape:label="roughen"
     id="layercompo"
     inkscape:groupmode="layer">
    <path
       d="M 7.7005382,0.81172665 V 0.87328815 1.4624521 C 7.2502154,1.4809649 6.9252098,1.7756256 6.7516258,2.1405896 6.5758719,2.5101215 6.5010083,2.9593854 6.4317936,3.423764 6.3625791,3.8881523 6.3014928,4.3665029 6.1917995,4.7670569 6.0821091,5.1676084 5.9241323,5.4764602 5.6954608,5.6452695 5.4752671,5.8078338 5.140082,5.8635889 4.7301929,5.8448644 4.3203159,5.8261399 3.8507785,5.7365751 3.392672,5.6596995 2.9345751,5.582814 2.48998,5.5155543 2.0926666,5.5688002 1.6953533,5.6220435 1.318306,5.8510624 1.1894428,6.2849335 1.0586786,6.7251898 1.240923,7.1324096 1.5381299,7.4137213 1.8353294,7.6950329 2.2393283,7.9060857 2.6597053,8.115427 3.0800721,8.324761 3.5178167,8.5289213 3.8649648,8.7570143 4.2121055,8.9851097 4.4570467,9.2309861 4.5469512,9.5005621 4.6328369,9.7580661 4.5778304,10.09468 4.4267141,10.480257 4.2755976,10.865835 4.0366354,11.286 3.8125415,11.699944 3.5884402,12.113889 3.3762276,12.518639 3.296003,12.914342 c -0.040113,0.197849 -0.046821,0.397797 0.012985,0.590607 0.059806,0.192824 0.1909196,0.367569 0.3780274,0.496341 0.374474,0.2577 0.8158358,0.206194 1.1759217,0.0091 0.3600933,-0.197056 0.6900312,-0.517608 1.0215355,-0.852722 0.3315043,-0.335127 0.6618509,-0.686661 0.9816191,-0.945067 0.2697939,-0.218024 0.5252128,-0.359002 0.7536486,-0.398227 0.022206,0.02685 0.042007,0.05284 0.069737,0.08176 0.0032,0.0033 0.00779,0.0072 0.011061,0.01058 v 0.492972 0.06204 h 0.6815056 v -0.03751 c 0.038917,0.02106 0.076288,0.04496 0.1163912,0.063 0.1049154,0.0472 0.2257385,0.04591 0.3419548,0.0582 0.069885,0.22212 0.1590379,0.439897 0.3073273,0.616096 0.098216,0.116708 0.1979893,0.217005 0.2996304,0.292417 0.050825,0.0377 0.099597,0.07116 0.1707373,0.09475 0.00943,0.0031 0.030135,-0.01164 0.041842,-0.0091 0.082014,0.05413 0.1163065,0.09591 0.1163902,0.09619 9.39e-5,3.28e-4 0.00255,0.0082 -0.01635,0.06733 -0.00945,0.02959 -0.025718,0.06877 -0.030781,0.138514 -0.00507,0.06975 0.025694,0.189393 0.100035,0.257787 0.1019046,0.09377 0.2157139,0.0779 0.3289699,0.08176 0.04345,0.07851 0.08057,0.162094 0.145248,0.223641 0.09744,0.09272 0.235587,0.160973 0.381874,0.163522 0.292572,0.0051 0.534198,-0.193262 0.783466,-0.519907 a 0.24627087,0.24627087 0 0 0 0.01635,-0.02549 c 0.15122,-0.259926 0.25836,-0.325608 0.352539,-0.504998 0.04709,-0.08969 0.0552,-0.261055 0,-0.363599 -0.03068,-0.057 -0.08052,-0.09675 -0.121682,-0.139954 0.01492,-0.269997 0.101132,-0.497061 0.192862,-0.674294 0.05029,-0.0972 0.102148,-0.169272 0.126969,-0.302036 0.01242,-0.06639 0.01,-0.174438 -0.05435,-0.261636 -0.03124,-0.04235 -0.07113,-0.04285 -0.109175,-0.06349 -0.189274,-0.468204 -0.467361,-0.822932 -0.756052,-1.007107 -0.157716,-0.100628 -0.31177,-0.164733 -0.452574,-0.196228 -0.06978,-0.01561 -0.13859,0.01542 -0.205367,0.01635 -0.01335,-0.131748 -0.0025,-0.418842 0.01635,-0.7579769 0.276685,-0.162454 0.511076,-0.338545 0.632448,-0.427565 0.07379,-0.05412 0.119733,-0.076206 0.156309,-0.083205 0.03657,-0.00701 0.08016,-0.00852 0.176509,0.030781 a 0.24627087,0.24627087 0 0 0 0.338108,-0.2217167 c 0.0037,-0.1653101 0.142197,-0.4411656 0.31406,-0.6290831 0.08593,-0.093963 0.179067,-0.1675805 0.241916,-0.2019983 0.03142,-0.017203 0.04828,-0.017816 0.04954,-0.018757 a 0.24627087,0.24627087 0 0 0 0.281356,-0.097152 c 0.295448,-0.4443784 0.479702,-0.4686459 0.534335,-0.4674836 0.01154,2.463e-4 0.0185,0.00227 0.02116,0.00289 0.0098,0.00971 0.01756,0.019973 0.05146,0.033667 0.0102,0.00412 0.04514,0.012394 0.04569,0.012505 2.71e-4,5.66e-5 0.045,0.00577 0.04521,0.00577 2.07e-4,9.8e-6 0.08162,-0.01294 0.08176,-0.012987 6.4e-5,-1.72e-5 0.06006,-0.028818 0.06012,-0.028855 5.5e-5,-3.94e-5 0.06008,-0.056698 0.06012,-0.056752 3.9e-5,-4.68e-5 0.03798,-0.074012 0.038,-0.074066 0,0 -1.7e-5,-0.00183 0,-0.00193 0.02196,-0.013019 0.0326,-0.019308 0.05819,-0.034627 0.153565,-0.09188 0.364234,-0.2228209 0.567041,-0.3727355 0.202816,-0.1499172 0.398398,-0.3102678 0.523754,-0.5126921 0.06268,-0.1012146 0.111847,-0.2227002 0.100037,-0.3635998 -0.0066,-0.078654 -0.07454,-0.133958 -0.120237,-0.201518 -0.0052,-0.072995 -0.01003,-0.1384743 -0.03799,-0.2072877 -0.03141,-0.077304 -0.123448,-0.1807742 -0.236146,-0.2015181 -0.112699,-0.020756 -0.183724,0.016316 -0.232782,0.041362 -0.04905,0.025043 -0.08387,0.050338 -0.118311,0.073103 -0.06888,0.045538 -0.129727,0.07852 -0.159675,0.085127 -0.02995,0.00661 -0.02365,0.016245 -0.07647,-0.028855 -0.107755,-0.1297128 -0.154624,-0.2108163 -0.285685,-0.2818387 -0.03592,-0.019468 -0.08933,-0.03884 -0.154384,-0.03655 -0.06505,0.0023 -0.128787,0.031554 -0.165447,0.060119 -0.07333,0.057127 -0.08319,0.094039 -0.100036,0.1202372 -0.03367,0.052399 -0.05311,0.086065 -0.125049,0.1361076 -0.07194,0.050045 -0.19895,0.1116161 -0.434777,0.1490947 a 0.24627087,0.24627087 0 0 0 -0.04184,0.00914 c -0.690158,0.2376449 -1.057109,0.6946065 -1.27596,0.9215002 -0.08091,0.083874 -0.134288,0.1148959 -0.147171,0.125529 -0.0035,-0.00224 -0.0037,-0.00156 -0.01106,-0.00722 -0.0292,-0.022357 -0.08092,-0.078498 -0.145248,-0.1673711 -7.44e-4,-0.00103 -0.0012,-8.915e-4 -0.0019,-0.00192 C 10.90162,6.324222 10.976442,6.3056354 10.489085,5.6140084 A 0.24627087,0.24627087 0 0 0 10.310652,5.5106048 C 10.121833,5.4924368 10.083684,5.4524365 10.07114,5.4360562 10.058585,5.4196759 10.041665,5.3663119 10.038434,5.247045 10.031968,5.008489 10.051135,4.5559573 9.6676249,4.1961694 9.4833358,3.9060814 9.3310945,3.7309857 9.2112018,3.6199901 9.1045722,3.5212725 9.0068867,3.4081126 8.8855984,3.2419654 8.8903828,3.1899211 8.891927,3.1392042 8.8841549,3.096717 8.8637557,2.9851846 8.8229952,2.8829062 8.7749823,2.7658235 8.684442,2.5450539 8.566847,2.2801348 8.4840045,2.0131375 8.5115817,1.9362446 8.545869,1.8697581 8.5330625,1.7659308 8.5284942,1.728888 8.517103,1.6779175 8.4748669,1.6240512 c -0.02299,-0.02933 -0.056934,-0.052835 -0.092823,-0.0707 V 1.4932328 0.87328815 0.81172665 Z m 0.018759,0.74354785 h 0.411691 c -0.01113,0.00702 -0.024986,0.014051 -0.034146,0.01972 -0.070668,0.043733 -0.1124974,0.085932 -0.1524611,0.1216799 -0.039964,0.035748 -0.096937,0.065974 -0.043768,0.041842 l 0.098114,0.2164283 a 0.24627087,0.24627087 0 0 0 -0.00529,0.1510179 c 0.00688,0.02359 0.015317,0.045521 0.022603,0.068774 H 7.7005382 v 0.062044 0.6199447 0.061561 h 0.6035933 c 0.00422,0.01014 0.010412,0.024831 0.014428,0.034627 0.040634,0.099072 0.065064,0.1732564 0.074546,0.2145027 a 0.24627087,0.24627087 0 0 0 0.00722,0.2601936 c 0.1992251,0.3033039 0.3539492,0.4394855 0.4761389,0.5526135 0.1222017,0.1131255 0.2227565,0.2089867 0.412657,0.5232732 a 0.24627087,0.24627087 0 0 0 0.041842,0.052904 c 0.2414593,0.2265121 0.2068242,0.4199016 0.2145023,0.7031488 0.00384,0.1416137 0.013007,0.3178078 0.1346673,0.4766194 0.087233,0.1138618 0.2559856,0.148548 0.417944,0.1904566 0.477735,0.6758524 0.31732,0.4006698 0.440069,1.096084 a 0.24627087,0.24627087 0 0 0 0.04377,0.1019632 c 0.08202,0.1138691 0.157888,0.2023774 0.247206,0.2707748 0.08932,0.068395 0.201459,0.1158884 0.317909,0.1144651 0.232889,-0.00287 0.368557,-0.1508727 0.494416,-0.281356 0.249707,-0.2588837 0.516977,-0.5990014 1.069152,-0.7930854 0.274319,-0.047095 0.47024,-0.1267207 0.608881,-0.2231606 0.07217,-0.050192 0.08827,-0.08837 0.130818,-0.1380333 0.03478,0.034686 0.01706,0.018614 0.07262,0.083204 a 0.24627087,0.24627087 0 0 0 0.02741,0.025491 c 0.151675,0.1294959 0.353871,0.1676961 0.503556,0.1346647 0.104209,-0.022997 0.160975,-0.067371 0.225083,-0.1072502 a 0.24627087,0.24627087 0 0 0 0.06733,0.074546 c 0.01037,0.00757 0.0101,0.0074 0.0125,0.00914 -3.54e-4,-0.00307 0.002,0.014615 -0.02501,0.058195 -0.05762,0.093049 -0.218007,0.2448058 -0.398225,0.3780249 -0.180221,0.1332119 -0.380601,0.2565074 -0.529045,0.3453235 -0.06662,0.03986 -0.117802,0.069097 -0.160156,0.094746 -0.01507,-0.00131 -0.01975,-0.010707 -0.03607,-0.011061 -0.239932,-0.00511 -0.555475,0.2054629 -0.871,0.625234 -0.08165,0.012696 -0.175458,-0.01592 -0.241434,0.0202 -0.131425,0.071963 -0.254248,0.1762015 -0.368889,0.3015556 C 11.560251,8.2907633 11.477279,8.549903 11.403364,8.80415 11.325064,8.792953 11.24371,8.759363 11.170584,8.773369 11.027768,8.800712 10.913012,8.87018 10.814199,8.9426627 10.616577,9.0876187 10.447757,9.2593925 10.121631,9.4188025 a 0.24627087,0.24627087 0 0 0 -0.1380294,0.205367 c -0.027744,0.4328095 -0.038123,0.7410355 -0.01443,0.9633415 0.01185,0.111143 0.015176,0.202931 0.1034064,0.31454 0.04411,0.05581 0.131765,0.11381 0.221717,0.119757 0.08995,0.006 0.158354,-0.02676 0.207287,-0.05771 l -0.0091,0.0072 c -0.05995,0.03421 -0.01166,0.0028 0.06397,0.01972 0.07563,0.01691 0.183633,0.05752 0.296267,0.129375 0.225274,0.143717 0.475208,0.405019 0.623309,0.843106 a 0.24627087,0.24627087 0 0 0 0.03655,0.06733 c -0.01412,0.03128 -0.01363,0.0329 -0.03992,0.08369 -0.105149,0.20317 -0.271976,0.53595 -0.267406,0.970554 a 0.24627087,0.24627087 0 0 0 0.07839,0.176509 c 0.05529,0.05145 0.06259,0.06187 0.07984,0.08176 -0.03007,0.03511 -0.138085,0.162089 -0.285682,0.407366 -0.207724,0.2722 -0.356661,0.325623 -0.385243,0.325121 -0.01429,-2.42e-4 -0.02028,-3.2e-5 -0.04905,-0.02741 -0.02878,-0.02738 -0.07039,-0.08615 -0.107252,-0.172661 a 0.24627087,0.24627087 0 0 0 -0.225567,-0.149095 c -0.08759,-4.45e-4 -0.04957,0.01132 -0.07407,0.0058 0.01602,-0.06907 0.04418,-0.128503 0.01443,-0.232778 -0.04509,-0.158024 -0.173722,-0.292746 -0.3674464,-0.403517 A 0.24627087,0.24627087 0 0 0 9.74746,13.063437 C 9.74355,13.060837 9.74605,13.062829 9.74169,13.059637 9.6893283,13.020732 9.6054371,12.939785 9.525742,12.845088 9.3663422,12.655681 9.2346402,12.374059 9.2328451,12.327104 A 0.24627087,0.24627087 0 0 0 8.9385039,12.094326 c -0.03035,0.0059 -0.1223598,-0.0051 -0.2361476,-0.05627 C 8.6020008,11.992907 8.4884939,11.921568 8.3820438,11.84423 V 11.78027 11.71823 H 8.2218877 c -0.069055,-0.05891 -0.1327162,-0.116349 -0.177952,-0.163521 -0.034964,-0.03648 -0.060199,-0.06727 -0.070698,-0.08176 h -0.00193 c 0.00524,0.01088 0.037986,0.03109 0.012988,0.138034 l -0.2399895,-0.0558 v -0.245765 c -0.4386827,-5.7e-5 -0.8276166,0.229502 -1.1869838,0.519908 -0.3593785,0.290413 -0.6986399,0.653248 -1.0234604,0.981616 -0.3248236,0.328369 -0.6386891,0.619762 -0.9070729,0.766633 -0.2683838,0.146874 -0.4387566,0.170437 -0.6598636,0.01828 -0.1104537,-0.07601 -0.1595034,-0.147218 -0.187088,-0.236147 -0.027587,-0.08893 -0.029158,-0.203453 0,-0.347245 0.058309,-0.287604 0.2449879,-0.671252 0.4650778,-1.077808 C 4.4650152,11.528095 4.7143518,11.094265 4.8850596,10.65869 5.0557673,10.223115 5.1566199,9.7720121 5.0139546,9.3442551 4.8702651,8.9134273 4.5255229,8.6033521 4.1342966,8.3462829 3.7430705,8.0892166 3.2922773,7.8792276 2.8799799,7.6739174 2.4676923,7.4686046 2.0955009,7.2634323 1.8762383,7.0558959 1.6569757,6.8483498 1.5822818,6.6943326 1.6617357,6.4268131 1.7385448,6.16823 1.8702767,6.0945703 2.1580745,6.0560008 2.4458724,6.0174337 2.8629396,6.0695541 3.3123538,6.144977 3.7617581,6.2203997 4.2455581,6.3166844 4.7085503,6.337837 5.1715351,6.3589921 5.6273419,6.3080954 5.9883585,6.0415732 6.3537488,5.7718204 6.5443063,5.3493085 6.6679394,4.8978751 6.791564,4.4464319 6.851112,3.9518414 6.9189967,3.4963869 6.9868797,3.0409249 7.0654151,2.623838 7.195061,2.3512458 7.324707,2.0786537 7.4508079,1.9601403 7.7298758,1.9530188 Z"
       style="opacity:1;"
       id="path9609" />
    <path
       style="opacity:0;fill:none"
       d="M 0,0 H 16 V 16 H 0 Z"
       id="rect22048" />
    <path
       class="error"
       id="path1006"
       d="m 7.7005382,14.444726 v 0.06204 0.619945 0.06156 h 0.6815056 v -0.06156 -0.619945 -0.06204 z"
       style="opacity:1" />
    <path
       class="error"
       id="path1004"
       d="m 7.7005382,13.081713 v 0.06156 0.619945 0.06156 h 0.6815056 v -0.06156 -0.619945 -0.06156 z"
       style="opacity:1" />
    <path
       id="path1002"
       d="m 10.327004,10.529315 c 0.0045,2.99e-4 0.0065,0.005 0.01106,0.0058 -0.02175,0.0068 -0.0407,-0.006 -0.06349,0.0053 0.01468,-0.0057 0.01962,-0.01323 0.05242,-0.01106 z"
       style="opacity:1;" />
    <path
       class="error"
       id="path1000"
       d="m 7.7005382,10.354729 v 0.06204 0.619943 0.06156 h 0.6815056 v -0.06156 -0.619943 -0.06204 z"
       style="opacity:1" />
    <path
       class="error"
       id="path998"
       d="m 7.7005382,8.9917193 v 0.061561 0.6199449 0.062041 H 8.3820438 V 9.6732251 9.0532802 8.9917193 Z"
       style="opacity:1" />
    <path
       id="path996"
       d="m 13.212223,7.6484259 c 2.68e-4,2.045e-4 0.0012,-1.871e-4 0.0014,0 0.0016,0.00127 0.0029,0.00256 0.0043,0.00385 -0.001,-6.969e-4 -3.24e-4,-1.207e-4 -0.0058,-0.00385 z"
       style="opacity:1;" />
    <path
       class="error"
       id="path994"
       d="m 7.7005382,7.6282264 v 0.062042 0.6194645 0.062042 H 8.3820438 V 8.3097326 7.6902681 7.6282264 Z"
       style="opacity:1" />
    <path
       id="path992"
       d="m 13.395464,7.217495 c 0.01,0.0011 0.02032,0.00194 0.0202,0.00192 -5.49e-4,-1.109e-4 0.03137,0.00712 0.03992,0.010581 0.02011,0.00812 0.0013,-0.00106 0.0072,0.00192 0.0011,0.00131 0.004,0.00517 0.0058,0.00722 -0.01891,-0.011884 -0.0513,-0.012297 -0.0731,-0.021643 z"
       style="opacity:1;" />
    <path
       class="error"
       id="path990"
       d="m 7.7005382,6.2647339 v 0.062042 0.6199446 0.061562 H 8.3820438 V 6.9467202 6.3267756 6.2647339 Z"
       style="opacity:1" />
    <path
       class="error"
       id="path988"
       d="m 7.7005382,4.9017216 v 0.061562 0.6199445 0.062042 H 8.3820438 V 5.5832277 4.9632832 4.9017216 Z"
       style="opacity:1" />
    <path
       class="error"
       inkscape:connector-curvature="0"
       style="opacity:1"
       d="M 7.7005382,3.538229 V 3.600273 4.219735 4.281777 H 8.3820438 V 4.2197353 3.6002733 3.538229 Z"
       id="path1009" />
    <path
       class="error"
       inkscape:connector-curvature="0"
       style="opacity:1"
       d="m 7.7005382,2.1747366 v 0.062044 0.619462 0.062042 h 0.6815056 v -0.062042 -0.619462 -0.062044 z"
       id="path1011" />
    <path
       class="error"
       inkscape:connector-curvature="0"
       id="path986"
       d="m 7.7005383,0.8098032 v 0.062044 0.619462 0.062042 H 8.3820439 V 1.4913095 0.8718475 0.8098032 Z"
       style="opacity:1" />
  </g>
</svg>
