<?xml version="1.0" encoding="UTF-8" standalone="no"?>
<svg
   xmlns:dc="http://purl.org/dc/elements/1.1/"
   xmlns:cc="http://creativecommons.org/ns#"
   xmlns:rdf="http://www.w3.org/1999/02/22-rdf-syntax-ns#"
   xmlns:svg="http://www.w3.org/2000/svg"
   xmlns="http://www.w3.org/2000/svg"
   xmlns:sodipodi="http://sodipodi.sourceforge.net/DTD/sodipodi-0.dtd"
   xmlns:inkscape="http://www.inkscape.org/namespaces/inkscape"
   id="svg9876"
   viewBox="0 0 16 16"
   version="1.1"
   sodipodi:docname="selection-move-to-layer-symbolic.svg"
   inkscape:version="1.1-dev (6039630, 2019-12-20)"
   height="16"
   width="16">
  <metadata
     id="metadata9880">
    <rdf:RDF>
      <cc:Work
         rdf:about="">
        <dc:format>image/svg+xml</dc:format>
        <dc:type
           rdf:resource="http://purl.org/dc/dcmitype/StillImage" />
      </cc:Work>
    </rdf:RDF>
  </metadata>
  <defs
     id="defs9878" />
  <style
     id="s0">
.success { fill:#009909; }
.warning { fill:#FF1990; }
.error { fill:#00AAFF; }
</style>
  <style
     id="s2">
@import '../../highlights.css';
</style>
  <sodipodi:namedview
     showgrid="true"
     objecttolerance="10"
     inkscape:zoom="43.25"
     inkscape:window-y="-6"
     inkscape:window-x="65"
     inkscape:window-width="1296"
     inkscape:window-maximized="1"
     inkscape:window-height="890"
     inkscape:document-rotation="0"
     inkscape:cy="8"
     inkscape:cx="8.416185"
     inkscape:current-layer="selection-move-to-layer"
     guidetolerance="10"
     gridtolerance="10"
     id="namedview">
    <inkscape:grid
       type="xygrid"
       id="grid" />
  </sodipodi:namedview>
  <g
     inkscape:label="00047"
     transform="matrix(1,0,0,0.99927,-105,-626.89)"
     id="selection-move-to-layer">
    <path
       id="path9834"
       inkscape:connector-curvature="0"
       opacity="0"
       d="m 106,627.35 h 14 c 0.554,0 1,0.446 1,1 v 14 c 0,0.554 -0.446,1 -1,1 h -14 c -0.554,0 -1,-0.446 -1,-1 v -14 c 0,-0.554 0.446,-1 1,-1 z" />
    <path
       id="path9836"
       inkscape:connector-curvature="0"
       d="m 107,643.36 2,-3 h 10 l -2,3 z" />
    <path
       class="success"
       id="path9838"
       inkscape:connector-curvature="0"
       d="m 116,634.36 v -2.0015 h 1.9985 v -2.0015 l 2.9861,3.0022 -2.9861,3.0022 v -2.0015 z" />
    <path
       style="opacity:0.4"
       id="path9840"
       inkscape:connector-curvature="0"
       d="m 106,637.36 h 1 v -1 h -1 z" />
    <path
       style="opacity:0.4"
       id="path9842"
       inkscape:connector-curvature="0"
       d="m 108,637.36 h 1 v -1 h -1 z" />
    <path
       style="opacity:0.4"
       id="path9844"
       inkscape:connector-curvature="0"
       d="m 110,637.36 h 1 v -1 h -1 z" />
    <path
       id="path9846"
       inkscape:connector-curvature="0"
       d="m 102,635.36 2,-3 h 9 l -2,3 z" />
    <path
       style="opacity:0.4"
       id="path9848"
       inkscape:connector-curvature="0"
       d="m 112,637.35 h 1 v -1 h -1 z" />
    <path
       style="opacity:0.4"
       id="path9850"
       inkscape:connector-curvature="0"
       d="m 114,637.35 h 1 v -1 h -1 z" />
    <path
       style="opacity:0.4"
       id="path9852"
       inkscape:connector-curvature="0"
       d="m 102,631.35 h 1 v -1 h -1 z" />
    <path
       style="opacity:0.4"
       id="path9854"
       inkscape:connector-curvature="0"
       d="m 104,637.36 h 1 v -1 h -1 z" />
    <path
       style="opacity:0.4"
       id="path9856"
       inkscape:connector-curvature="0"
       d="m 102,637.36 h 1 v -1 h -1 z" />
    <path
       style="opacity:0.4"
       id="path9858"
       inkscape:connector-curvature="0"
       d="m 104,631.35 h 1 v -1 h -1 z" />
    <path
       style="opacity:0.4"
       id="path9860"
       inkscape:connector-curvature="0"
       d="m 106,631.35 h 1 v -1 h -1 z" />
    <path
       style="opacity:0.4"
       id="path9862"
       inkscape:connector-curvature="0"
       d="m 108,631.35 h 1 v -1 h -1 z" />
    <path
       style="opacity:0.4"
       id="path9864"
       inkscape:connector-curvature="0"
       d="m 110,631.35 h 1 v -1 h -1 z" />
    <path
       style="opacity:0.4"
       id="path9866"
       inkscape:connector-curvature="0"
       d="m 112,631.35 h 1 v -1 h -1 z" />
    <path
       style="opacity:0.4"
       id="path9868"
       inkscape:connector-curvature="0"
       d="m 114,631.35 h 1 v -1 h -1 z" />
    <path
       style="opacity:0.4"
       id="path9870"
       inkscape:connector-curvature="0"
       d="m 114,633.35 h 1 v -1 h -1 z" />
    <path
       style="opacity:0.4"
       id="path9872"
       inkscape:connector-curvature="0"
       d="m 114,635.35 h 1 v -1 h -1 z" />
  </g>
</svg>
