<?xml version="1.0" encoding="UTF-8" standalone="no"?>
<svg
   xmlns:dc="http://purl.org/dc/elements/1.1/"
   xmlns:cc="http://creativecommons.org/ns#"
   xmlns:rdf="http://www.w3.org/1999/02/22-rdf-syntax-ns#"
   xmlns:svg="http://www.w3.org/2000/svg"
   xmlns="http://www.w3.org/2000/svg"
   xmlns:sodipodi="http://sodipodi.sourceforge.net/DTD/sodipodi-0.dtd"
   xmlns:inkscape="http://www.inkscape.org/namespaces/inkscape"
   inkscape:version="1.1-dev (1fceb22, 2019-12-30)"
   sodipodi:docname="show-handles-symbolic.svg"
   viewBox="0 0 16 16"
   height="16"
   width="16"
   id="svg1"
   version="1.1">
  <defs
     id="defs200" />
  <style
     id="s0">
.success { fill:#009909; }
.warning { fill:#FF1990; }
.error { fill:#00AAFF; }
</style>
  <style
     id="s2">
@import '../../highlights.css';
</style>
  <sodipodi:namedview
     inkscape:current-layer="layercompo"
     inkscape:window-maximized="1"
     inkscape:window-height="1177"
     inkscape:window-width="1858"
     inkscape:document-rotation="0"
     inkscape:window-y="-8"
     inkscape:window-x="54"
     inkscape:cy="8.5757664"
     inkscape:cx="5.5499333"
     inkscape:zoom="38.41879"
     showgrid="true"
     id="namedview"
     guidetolerance="10"
     gridtolerance="10"
     objecttolerance="10">
    <inkscape:grid
       id="grid"
       type="xygrid" />
  </sodipodi:namedview>
  <metadata
     id="metadata1906">
    <rdf:RDF>
      <cc:Work
         rdf:about="">
        <dc:format>image/svg+xml</dc:format>
        <dc:type
           rdf:resource="http://purl.org/dc/dcmitype/StillImage" />
        <cc:license
           rdf:resource="http://creativecommons.org/publicdomain/zero/1.0/" />
        <dc:title />
        <dc:date>13 Jan 2019</dc:date>
        <dc:creator>
          <cc:Agent>
            <dc:title>Ramón Miranda</dc:title>
          </cc:Agent>
        </dc:creator>
        <dc:rights>
          <cc:Agent>
            <dc:title>see the license tab</dc:title>
          </cc:Agent>
        </dc:rights>
        <dc:subject>
          <rdf:Bag>
            <rdf:li>icon ui</rdf:li>
          </rdf:Bag>
        </dc:subject>
        <dc:description>This is a contribution with Inkscape Project from
Ramon Miranda www.ramonmiranda.com (design and SVG file)
Jabiertxo (SVG stuff to integrate them in UI)</dc:description>
        <dc:publisher>
          <cc:Agent>
            <dc:title />
          </cc:Agent>
        </dc:publisher>
        <dc:identifier />
        <dc:source />
        <dc:relation />
        <dc:language>-</dc:language>
        <dc:coverage />
        <dc:contributor>
          <cc:Agent>
            <dc:title>Ramon Miranda
Jabier Arraiza</dc:title>
          </cc:Agent>
        </dc:contributor>
      </cc:Work>
      <cc:License
         rdf:about="http://creativecommons.org/publicdomain/zero/1.0/">
        <cc:permits
           rdf:resource="http://creativecommons.org/ns#Reproduction" />
        <cc:permits
           rdf:resource="http://creativecommons.org/ns#Distribution" />
        <cc:permits
           rdf:resource="http://creativecommons.org/ns#DerivativeWorks" />
      </cc:License>
    </rdf:RDF>
  </metadata>
  <g
     inkscape:label="show-handles-box"
     id="layercompo"
     inkscape:groupmode="layer">
    <path
       inkscape:connector-curvature="0"
       d="M 7.2246094,0.86523438 6.0664062,2.0234375 6.2324219,2.1894531 6.8808594,2.8378906 5.7324219,6.2402344 1.2070312,6.3671875 4.796875,9.2675781 3.5136719,13.832031 l 2.8730469,-2.072265 0.8398437,0.839843 0.59375,-0.59375 2.2304685,1.609375 -0.3613279,0.361328 0.1640625,0.164063 0.9941404,0.994141 1.158203,-1.158204 -1.158203,-1.160156 -0.134765,0.134766 -0.7480472,-2.667969 0.8339842,-0.8339842 -0.425781,-0.4277344 2.257812,-1.8222656 0.572266,0.5722656 0.439453,-0.4394532 0.197266,0.2402344 c -0.165817,0.2097025 -0.154388,0.5155259 0.03906,0.7089844 0.208321,0.2083387 0.549499,0.2083387 0.757813,0 0.208323,-0.2083363 0.208323,-0.5475206 0,-0.7558594 -0.16093,-0.1609452 -0.40039,-0.1971059 -0.597657,-0.109375 L 13.822266,7.1503906 14.361328,6.6113281 13.203125,5.453125 12.824219,5.8320312 12.660156,5.6171875 c 0.168345,-0.2099803 0.157266,-0.5204584 -0.03711,-0.7148437 -0.104162,-0.1041694 -0.241294,-0.15625 -0.378906,-0.15625 -0.137612,0 -0.27475,0.05208 -0.378907,0.15625 -0.208323,0.2083363 -0.208323,0.5514319 0,0.7597656 0.160312,0.160334 0.398862,0.1958154 0.595704,0.109375 L 12.644531,6.0117188 12.248047,6.4082031 9.7421875,6.3378906 8.6152344,5.2109375 8.4453125,5.3808594 7.5820312,2.8300781 8.3847656,2.0253906 Z M 7.3632812,3.046875 8.2246094,5.6015625 7.4550781,6.3710938 7.6210938,6.5371094 8.6152344,7.53125 l 0.921875,-0.921875 2.5761716,0.072266 0.0957,0.095703 0.22461,0.2246093 L 10.175781,8.8242188 9.640625,8.2890625 8.4824219,9.4492188 8.6484375,9.6152344 9.640625,10.607422 9.7382812,10.509766 10.488281,13.175781 10.25,13.416016 8.0175781,11.808594 8.3847656,11.441406 7.28125,10.335938 V 3.1289062 Z"
       style="opacity:1;fill:#000000"
       id="path9609" />
    <path
       inkscape:connector-curvature="0"
       style="opacity:0;fill:none"
       d="M 0,0 H 16 V 16 H 0 Z"
       id="rect22048" />
    <path
       inkscape:connector-curvature="0"
       class="error"
       id="path4834"
       d="m 10.84791,13.479155 0.496713,0.496716 -0.496713,0.497208 -0.497208,-0.497208 z"
       style="opacity:1" />
    <path
       inkscape:connector-curvature="0"
       class="error"
       id="path4832"
       d="M 7.2268731,10.943788 7.7235864,11.440997 7.2268731,11.93771 6.7296649,11.440997 Z"
       style="opacity:1" />
    <path
       inkscape:connector-curvature="0"
       class="error"
       id="path4830"
       d="M 9.6404045,8.9519956 10.137613,9.4487113 9.6404045,9.9459195 9.1431963,9.4487113 Z"
       style="opacity:1" />
    <path
       inkscape:connector-curvature="0"
       class="error"
       id="path4828"
       d="m 14.257338,7.6177223 c 0.07225,0 0.14485,0.027942 0.200757,0.083854 0.111812,0.1118191 0.111812,0.2911752 0,0.4029943 -0.111811,0.1118217 -0.28921,0.1118217 -0.401022,0 -0.111811,-0.1118191 -0.111811,-0.2911752 0,-0.4029943 0.05591,-0.055912 0.128013,-0.083854 0.200265,-0.083854 z"
       style="opacity:1" />
    <path
       inkscape:connector-curvature="0"
       class="error"
       id="path4826"
       d="M 13.202249,6.1147506 13.698965,6.6119588 13.202249,7.1086746 12.705041,6.6119588 Z"
       style="opacity:1" />
    <path
       inkscape:connector-curvature="0"
       class="error"
       id="path4824"
       d="M 8.6134318,5.8735475 9.11064,6.3707557 8.6149118,6.866484 8.1177036,6.3692758 Z"
       style="opacity:1" />
    <path
       inkscape:connector-curvature="0"
       class="error"
       id="path4822"
       d="m 12.243841,4.9984989 c 0.07226,0 0.144853,0.027945 0.200757,0.083854 0.111814,0.1118216 0.111814,0.2892028 0,0.4010219 -0.111811,0.1118242 -0.289218,0.1118242 -0.401022,0 -0.111821,-0.1118191 -0.111821,-0.2892003 0,-0.4010219 0.0559,-0.05591 0.128013,-0.083854 0.200265,-0.083854 z"
       style="opacity:1" />
    <path
       inkscape:connector-curvature="0"
       class="error"
       id="path204"
       d="M 7.2268731,1.528401 7.7235864,2.0256092 7.2268731,2.5223225 6.7296649,2.0256092 Z"
       style="opacity:1" />
  </g>
</svg>
