<?xml version="1.0" encoding="UTF-8" standalone="no"?>
<svg
   xmlns:dc="http://purl.org/dc/elements/1.1/"
   xmlns:cc="http://creativecommons.org/ns#"
   xmlns:rdf="http://www.w3.org/1999/02/22-rdf-syntax-ns#"
   xmlns:svg="http://www.w3.org/2000/svg"
   xmlns="http://www.w3.org/2000/svg"
   xmlns:sodipodi="http://sodipodi.sourceforge.net/DTD/sodipodi-0.dtd"
   xmlns:inkscape="http://www.inkscape.org/namespaces/inkscape"
   inkscape:version="1.1-dev (1fceb22, 2019-12-30)"
   sodipodi:docname="show-path-outline-symbolic.svg"
   viewBox="0 0 16 16"
   height="16"
   width="16"
   id="svg1"
   version="1.1">
  <metadata
     id="metadata6264">
    <rdf:RDF>
      <cc:Work
         rdf:about="">
        <dc:format>image/svg+xml</dc:format>
        <dc:type
           rdf:resource="http://purl.org/dc/dcmitype/StillImage" />
      </cc:Work>
    </rdf:RDF>
  </metadata>
  <defs
     id="defs6262" />
  <style
     id="s0">
.success { fill:#009909; }
.warning { fill:#FF1990; }
.error { fill:#00AAFF; }
</style>
  <style
     id="s2">
@import '../../highlights.css';
</style>
  <sodipodi:namedview
     inkscape:document-rotation="0"
     inkscape:current-layer="svg1"
     inkscape:window-maximized="1"
     inkscape:window-y="-8"
     inkscape:window-x="54"
     inkscape:window-height="1177"
     inkscape:window-width="1858"
     inkscape:cy="8"
     inkscape:cx="8"
     inkscape:zoom="60.1875"
     showgrid="true"
     id="namedview"
     guidetolerance="10"
     gridtolerance="10"
     objecttolerance="10">
    <inkscape:grid
       id="grid"
       type="xygrid" />
  </sodipodi:namedview>
  <g
     id="show-path-outline"
     inkscape:label="00209"
     transform="translate(-799,-558.36218)">
    <path
       style="opacity:0;fill:none"
       d="m 799,558.36218 h 16 v 16 h -16 z"
       id="rect4758"
       inkscape:connector-curvature="0" />
    <path
       class="error"
       inkscape:connector-curvature="0"
       d="m 809.3437,560.4375 c -2.8268,0.3559 -4.9439,1.7885 -6.3125,3.5937 -1.8247,2.407 -2.3899,5.4513 -1.8125,7.7813 l 0.0625,0.3437 0.375,0.0625 c 6.6954,1.1257 12.3021,-4.567 11.1875,-11.3125 l -0.0625,-0.375 -0.375,-0.0625 c -1.1005,-0.1387 -2.1202,-0.1498 -3.0625,-0.0312 z m 0.125,1.0625 c 0.7268,-0.0878 1.5257,-0.0474 2.375,0.0313 0.6789,5.7343 -3.916,10.34 -9.5937,9.6562 -0.3532,-1.9263 0.094,-4.5117 1.625,-6.5312 1.2158,-1.6038 3.0406,-2.8479 5.5937,-3.1563 z"
       style="opacity:1"
       id="path17232" />
    <path
       style="opacity:1"
       d="m 811,558.36218 h 4 v 3.99219 h -4 z"
       id="rect17215"
       inkscape:connector-curvature="0" />
    <path
       style="opacity:1"
       d="m 799,570.36218 h 4 v 4 h -4 z"
       id="rect17217"
       inkscape:connector-curvature="0" />
  </g>
</svg>
