<?xml version="1.0" encoding="UTF-8" standalone="no"?>
<svg
   xmlns:dc="http://purl.org/dc/elements/1.1/"
   xmlns:cc="http://creativecommons.org/ns#"
   xmlns:rdf="http://www.w3.org/1999/02/22-rdf-syntax-ns#"
   xmlns:svg="http://www.w3.org/2000/svg"
   xmlns="http://www.w3.org/2000/svg"
   xmlns:sodipodi="http://sodipodi.sourceforge.net/DTD/sodipodi-0.dtd"
   xmlns:inkscape="http://www.inkscape.org/namespaces/inkscape"
   inkscape:version="1.1-dev (1fceb22ce1, 2019-12-30, custom)"
   sodipodi:docname="sketch-symbolic.svg"
   viewBox="0 0 16 16"
   height="16"
   width="16"
   id="svg1"
   version="1.1">
  <defs
     id="defs2025">
    <inkscape:path-effect
       lpeversion="1"
       is_visible="true"
       id="path-effect2029"
       effect="spiro" />
  </defs>
  <style
     id="s0">
.success { fill:#009909; }
.warning { fill:#FF1990; }
.error { fill:#00AAFF; }
</style>
  <style
     id="s2">
@import '../../highlights.css';
</style>
  <sodipodi:namedview
     inkscape:current-layer="svg1"
     inkscape:window-maximized="1"
     inkscape:window-height="1376"
     inkscape:window-width="2560"
     inkscape:document-rotation="0"
     inkscape:window-y="27"
     inkscape:window-x="0"
     inkscape:cy="9.7602021"
     inkscape:cx="6.1655485"
     inkscape:zoom="27.166187"
     showgrid="true"
     id="namedview"
     guidetolerance="10"
     gridtolerance="10"
     objecttolerance="10">
    <inkscape:grid
       id="grid"
       type="xygrid" />
  </sodipodi:namedview>
  <metadata
     id="metadata1906">
    <rdf:RDF>
      <cc:Work
         rdf:about="">
        <dc:format>image/svg+xml</dc:format>
        <dc:type
           rdf:resource="http://purl.org/dc/dcmitype/StillImage" />
        <cc:license
           rdf:resource="http://creativecommons.org/publicdomain/zero/1.0/" />
        <dc:title></dc:title>
        <dc:date>13 Jan 2019</dc:date>
        <dc:creator>
          <cc:Agent>
            <dc:title>Ramón Miranda</dc:title>
          </cc:Agent>
        </dc:creator>
        <dc:rights>
          <cc:Agent>
            <dc:title>see the license tab</dc:title>
          </cc:Agent>
        </dc:rights>
        <dc:subject>
          <rdf:Bag>
            <rdf:li>icon ui</rdf:li>
          </rdf:Bag>
        </dc:subject>
        <dc:description>This is a contribution with Inkscape Project from
Ramon Miranda www.ramonmiranda.com (design and SVG file)
Jabiertxo (SVG stuff to integrate them in UI)</dc:description>
        <dc:publisher>
          <cc:Agent>
            <dc:title />
          </cc:Agent>
        </dc:publisher>
        <dc:identifier />
        <dc:source />
        <dc:relation />
        <dc:language>-</dc:language>
        <dc:coverage />
        <dc:contributor>
          <cc:Agent>
            <dc:title>Ramon Miranda
Jabier Arraiza</dc:title>
          </cc:Agent>
        </dc:contributor>
      </cc:Work>
      <cc:License
         rdf:about="http://creativecommons.org/publicdomain/zero/1.0/">
        <cc:permits
           rdf:resource="http://creativecommons.org/ns#Reproduction" />
        <cc:permits
           rdf:resource="http://creativecommons.org/ns#Distribution" />
        <cc:permits
           rdf:resource="http://creativecommons.org/ns#DerivativeWorks" />
      </cc:License>
    </rdf:RDF>
  </metadata>
  <path
     class="error"
     id="path2047"
     d="M 1.2832031 3.0097656 L 0.71679688 3.8359375 L 14.716797 13.412109 L 15.283203 12.587891 L 1.2832031 3.0097656 z "
     style="color:#000000" />
  <g
     inkscape:label="sketch"
     id="layercompo"
     inkscape:groupmode="layer">
    <path
       style="opacity:0;fill:none"
       d="M 0,0 H 16 V 16 H 0 Z"
       id="rect22048" />
    <path
       style="opacity:1;"
       d="M 2.9983178,1.8112636 2.4504471,2.5195754 0.84950042,1.8590547 0.49790159,2.712437 5.1368996,4.6291358 5.9612697,5.2640524 6.8129458,7.3121733 C 6.6101399,7.2142558 6.4682324,7.0905261 6.2326386,7.0066616 L 5.9220056,7.8788205 C 6.631654,8.131429 7.0700906,8.4414933 7.4239691,8.7765767 L 7.4529813,8.846557 7.8045732,9.9320627 7.5127191,9.802347 7.1372293,10.648902 8.1868882,11.113144 8.2005481,11.157518 8.2500432,11.142156 8.4446089,11.229202 9.178525,12.988877 10.031905,12.632166 9.6734808,11.771958 15.126607,14.188736 15.502098,13.343884 9.156338,10.531133 8.9378699,10.005449 9.2348454,9.8962158 C 9.1033193,9.5372416 8.9419694,9.1800058 8.7194043,8.8363144 8.6055403,8.6604769 8.4127573,8.5120585 8.2636939,8.3481838 L 7.7004616,6.6072787 8.7040426,7.3804473 8.7825501,7.2797438 C 9.0425249,7.7898347 9.2620495,8.3075926 9.7571188,8.7902366 10.081183,9.1061643 10.465579,9.4090193 10.926253,9.6948181 L 11.414385,8.9097097 C 11.006159,8.6564469 10.675795,8.3946639 10.402276,8.1280025 9.803985,7.5447336 9.4713571,6.934924 9.2228988,6.2932284 L 8.9481126,6.4007572 8.398531,5.9757701 8.5743246,6.0491677 8.9276297,5.1940721 6.9836204,4.3918912 6.3913667,2.5588281 5.5106784,2.8421528 5.8622772,3.9276515 5.6062606,3.8235376 Z M 3.652011,8.7100159 2.8532474,9.177673 C 3.2192829,9.8042152 3.4018765,10.56177 3.670783,11.394755 3.819784,11.856338 3.9981671,12.339771 4.2613234,12.823323 L 5.0737446,12.381271 C 4.8506824,11.971393 4.6921718,11.545591 4.5514804,11.109727 4.2975703,10.323187 4.1095849,9.4932423 3.652011,8.7100159 Z"
       id="path9609" />
  </g>
</svg>
