<?xml version="1.0" encoding="UTF-8" standalone="no"?>
<svg
   xmlns:dc="http://purl.org/dc/elements/1.1/"
   xmlns:cc="http://creativecommons.org/ns#"
   xmlns:rdf="http://www.w3.org/1999/02/22-rdf-syntax-ns#"
   xmlns:svg="http://www.w3.org/2000/svg"
   xmlns="http://www.w3.org/2000/svg"
   xmlns:sodipodi="http://sodipodi.sourceforge.net/DTD/sodipodi-0.dtd"
   xmlns:inkscape="http://www.inkscape.org/namespaces/inkscape"
   inkscape:version="1.0beta0 (1b5d333, 2019-09-08)"
   sodipodi:docname="snap-nodes-cusp-symbolic.svg"
   viewBox="0 0 16 16"
   height="16"
   width="16"
   id="svg1"
   version="1.1">
<style id="s0">
   .success { fill: #009909; }
   .warning { fill: #FF1990; }
   .error   { fill: #00AAFF; }
  </style>
  <style id="s2"> 
     @import '../../highlights.css'; 
  </style>
   
  <metadata
     id="metadata1830">
    <rdf:RDF>
      <cc:Work
         rdf:about="">
        <dc:format>image/svg+xml</dc:format>
        <dc:type
           rdf:resource="http://purl.org/dc/dcmitype/StillImage" />
      </cc:Work>
    </rdf:RDF>
  </metadata>
  <defs
     id="defs1828" />
  <sodipodi:namedview
     inkscape:snap-to-guides="false"
     inkscape:snap-grids="false"
     inkscape:snap-others="false"
     inkscape:document-rotation="0"
     inkscape:current-layer="snap-nodes-cusp"
     inkscape:window-maximized="1"
     inkscape:window-y="-8"
     inkscape:window-x="54"
     inkscape:window-height="1177"
     inkscape:window-width="1858"
     inkscape:cy="9.7717704"
     inkscape:cx="6.9737"
     inkscape:zoom="38.41879"
     showgrid="true"
     id="namedview"
     guidetolerance="10"
     gridtolerance="10"
     objecttolerance="10">
    <inkscape:grid
       id="grid"
       type="xygrid" />
  </sodipodi:namedview>
  <g
     id="snap-nodes-cusp"
     inkscape:label="00200"
     transform="matrix(0.999999,0,0,1,-798.99887,-527.36241)">
    <path
       style="opacity:0;fill:none"
       d="m 799,527.36267 h 16 v 16 h -16 z"
       id="rect17717"
       inkscape:connector-curvature="0" />
    <path
       inkscape:connector-curvature="0"
       transform="translate(798.99967,527.36241)"
       d="m 1.4921875,0 a 0.4965221,0.518863 0 1 0 0.048828,1.0351562 c 0,0 3.6420307,0.5463844 6.2363282,2.2714844 1.2971987,0.8626 2.2977223,1.9715469 2.5449223,3.4355469 0.15605,0.9237434 0.02984,2.0274672 -0.5683599,3.3496095 l 0.6621099,0.607422 C 11.194043,9.1564091 11.516042,7.7739197 11.314453,6.5800781 11.003153,4.7366781 9.7693361,3.3829875 8.3359375,2.4296875 5.4689404,0.5232875 1.6640625,0.03125 1.6640625,0.03125 A 0.4965221,0.518863 0 0 0 1.4921875,0 Z M 15.46875,7.2578125 A 0.4965221,0.518863 0 0 0 15.007812,7.78125 c 0,0 0.0043,1.1368812 -0.77539,2.300781 -0.461991,0.689699 -1.307241,1.322805 -2.589844,1.740235 l 0.960938,0.880859 c 1.14462,-0.525403 1.931297,-1.251164 2.435546,-2.003906 C 15.997062,9.2691187 16,7.78125 16,7.78125 A 0.4965221,0.518863 0 0 0 15.46875,7.2578125 Z"
       style="opacity:1"
       id="path17721" />
    <path
       class="success"
       transform="rotate(135.0001)"
       style="opacity:1"
       d="m -190.606,-954.81677 h 4.13284 v 4.17568 h -4.13284 z"
       id="rect17723"
       inkscape:connector-curvature="0" />
  </g>
</svg>
