<?xml version="1.0" encoding="UTF-8" standalone="no"?>
<svg
   xmlns:dc="http://purl.org/dc/elements/1.1/"
   xmlns:cc="http://creativecommons.org/ns#"
   xmlns:rdf="http://www.w3.org/1999/02/22-rdf-syntax-ns#"
   xmlns:svg="http://www.w3.org/2000/svg"
   xmlns="http://www.w3.org/2000/svg"
   xmlns:sodipodi="http://sodipodi.sourceforge.net/DTD/sodipodi-0.dtd"
   xmlns:inkscape="http://www.inkscape.org/namespaces/inkscape"
   inkscape:version="1.0beta0 (1d85f8e, 2019-09-11)"
   sodipodi:docname="snap-nodes-path-symbolic.svg"
   viewBox="0 0 16 16"
   height="16"
   width="16"
   id="svg1"
   version="1.1">
<style id="s0">
   .success { fill: #009909; }
   .warning { fill: #FF1990; }
   .error   { fill: #00AAFF; }
  </style>
  <style id="s2"> 
     @import '../../highlights.css'; 
  </style>
   
  <metadata
     id="metadata2107">
    <rdf:RDF>
      <cc:Work
         rdf:about="">
        <dc:format>image/svg+xml</dc:format>
        <dc:type
           rdf:resource="http://purl.org/dc/dcmitype/StillImage" />
      </cc:Work>
    </rdf:RDF>
  </metadata>
  <defs
     id="defs2105" />
  <sodipodi:namedview
     inkscape:object-paths="true"
     inkscape:snap-to-guides="false"
     inkscape:snap-grids="false"
     inkscape:snap-others="false"
     inkscape:object-nodes="false"
     inkscape:document-rotation="0"
     inkscape:current-layer="snap-nodes-path"
     inkscape:window-maximized="1"
     inkscape:window-y="-8"
     inkscape:window-x="54"
     inkscape:window-height="1177"
     inkscape:window-width="1858"
     inkscape:cy="12.973416"
     inkscape:cx="11.820201"
     inkscape:zoom="31.678384"
     showgrid="true"
     id="namedview"
     guidetolerance="10"
     gridtolerance="10"
     objecttolerance="10">
    <inkscape:grid
       id="grid"
       type="xygrid" />
  </sodipodi:namedview>
  <g
     inkscape:label="00327"
     id="snap-nodes-path"
     transform="matrix(0.998641,0,0,0.999601,-767.93325,-506.16007)">
    <path
       style="opacity:0;fill:none"
       d="m 769,506.36221 h 16 v 16 h -16 z"
       id="rect22695"
       inkscape:connector-curvature="0" />
    <path
       class="success"
       inkscape:connector-curvature="0"
       id="path22693"
       d="m 784.3125,522.3622 a 0.5140439,0.5121131 0 0 1 -0.4063,-0.5938 c 0.2334,-1.5961 -0.061,-3.723 -1.125,-5.4062 -0.6325,-1.0004 -1.5307,-1.8452 -2.7812,-2.375 v -1.125 c 1.6552,0.5943 2.8607,1.6793 3.6562,2.9375 1.2267,1.9399 1.518,4.2611 1.25,6.0937 a 0.5140439,0.5121131 0 0 1 -0.5937,0.4688 z m -14.7188,-0.125 a 0.5240784,0.52211 0 0 1 -0.5,-0.4375 c -0.2977,-1.8271 -0.053,-4.1494 1.125,-6.0625 0.7918,-1.286 2.0393,-2.37 3.7813,-2.9375 v 1.0625 c -1.3469,0.5015 -2.2728,1.3775 -2.9063,2.4062 -1.0134,1.646 -1.2297,3.7421 -0.9687,5.3438 a 0.5240784,0.52211 0 0 1 -0.5313,0.625 z"
       style="opacity:1" />
    <g
       style="opacity:1"
       id="g2116">
      <path
         inkscape:connector-curvature="0"
         id="rect22697"
         d="m 775,-513.36218 h 4 v 3.99993 h -4 z"
         style="opacity:1"
         transform="scale(1,-1)" />
      <path
         inkscape:connector-curvature="0"
         id="rect22699"
         d="m 780,-511.36221 h 2 v 1 h -2 z"
         style="opacity:1"
         transform="scale(1,-1)" />
      <path
         inkscape:connector-curvature="0"
         id="rect22701"
         d="m 772,-511.36221 h 2 v 1 h -2 z"
         style="opacity:1"
         transform="scale(1,-1)" />
      <path
         inkscape:connector-curvature="0"
         id="path22703"
         d="M 635,56.5 A 1.5,1.5 0 0 1 633.5,58 1.5,1.5 0 0 1 632,56.5 1.5,1.5 0 0 1 633.5,55 1.5,1.5 0 0 1 635,56.5 Z"
         style="opacity:1"
         transform="matrix(1,0,0,-1.010417,149.5,567.9039)" />
      <path
         inkscape:connector-curvature="0"
         id="path22705"
         d="M 635,56.5 A 1.5,1.5 0 0 1 633.5,58 1.5,1.5 0 0 1 632,56.5 1.5,1.5 0 0 1 633.5,55 1.5,1.5 0 0 1 635,56.5 Z"
         style="opacity:1"
         transform="matrix(1,0,0,-1.010417,137.5,567.9351)" />
    </g>
  </g>
</svg>
