<?xml version="1.0" encoding="UTF-8" standalone="no"?>
<svg xmlns:dc="http://purl.org/dc/elements/1.1/" xmlns:cc="http://creativecommons.org/ns#" xmlns:rdf="http://www.w3.org/1999/02/22-rdf-syntax-ns#" xmlns:svg="http://www.w3.org/2000/svg" xmlns="http://www.w3.org/2000/svg" xmlns:sodipodi="http://sodipodi.sourceforge.net/DTD/sodipodi-0.dtd" xmlns:inkscape="http://www.inkscape.org/namespaces/inkscape" id="svg1" width="15.504883" height="16.1231" version="1.1" sodipodi:docname="snap-others-symbolic.svg" inkscape:version="0.92.4 (5da689c313, 2019-01-14)">
<style id="s0">
   .success { fill: #009909; }
   .warning { fill: #FF1990; }
   .error   { fill: #00AAFF; }
  </style>
  <style id="s2"> 
     @import '../../highlights.css'; 
  </style>
<metadata id="metadata16">
<rdf:RDF>
<cc:Work rdf:about="">
<dc:format>image/svg+xml</dc:format>
<dc:type rdf:resource="http://purl.org/dc/dcmitype/StillImage" />
</cc:Work>
</rdf:RDF>
</metadata>
<sodipodi:namedview id="base" showgrid="true" inkscape:zoom="14.63738" inkscape:cx="-8.234022" inkscape:cy="7.515004" inkscape:window-width="1280" inkscape:window-height="960" inkscape:window-x="0" inkscape:window-y="27" inkscape:window-maximized="1" inkscape:current-layer="svg1">
<inkscape:grid id="GridFromPre046Settings" type="xygrid" originx="0pt" originy="0pt" spacingx="1pt" spacingy="1pt" color="#3f3fff" empcolor="#3f3fff" opacity="0.15" empopacity="0.38" empspacing="5" />
</sodipodi:namedview>
<defs id="defs3" />
<g id="snap-others" inkscape:label="#toggle_snap_others" transform="translate(-932.49512,-29.6269)">
<path style="opacity:0.317;" d="M 2.003906 4.517578 L 2.003906 10.12305 A 0.50005 0.50005 0 1 0 3.003906 10.12305 L 3.003906 4.517578 L 2.003906 4.517578 z " transform="translate(932.4951,29.6269)" id="path3570-5" />
<path style="opacity:0.317;" d="m 944.584,29.72266 -6,9 0.832,0.55468 6,-9 z" id="path6498-1-8" inkscape:connector-curvature="0" />
<g id="g13570" transform="translate(1.5,0.5)">
<path d="M 943,37.5 943,40.5" id="path6380-5" inkscape:connector-curvature="0" style="opacity:1" />
<path d="M 943,41.5 943,44.5" id="path6380-4-1" inkscape:connector-curvature="0" style="opacity:1" />
<path d="M 939.5,41 942.5,41" id="path6380-8-4" inkscape:connector-curvature="0" style="opacity:1x" />
<path d="M 943.5,41 946.5,41" id="path6380-4-0-5" inkscape:connector-curvature="0" style="opacity:1" />
</g>
<path style="opacity:1" d="m 936.5,41.24926 c -1.2367,0 -2.2507,1.01402 -2.2507,2.25074 0,1.23672 1.014,2.25074 2.2507,2.25074 1.2367,0 2.2508,-1.01402 2.2508,-2.25074 0,-1.23672 -1.0141,-2.25074 -2.2508,-2.25074 z m 0,1.00148 c 0.6963,0 1.2493,0.55298 1.2493,1.24926 0,0.69628 -0.553,1.24926 -1.2493,1.24926 -0.6962,0 -1.2492,-0.55298 -1.2492,-1.24926 0,-0.69628 0.553,-1.24926 1.2492,-1.24926 z" id="path6530-3-7-6-0" inkscape:connector-curvature="0" />
<path style="opacity:1" d="m 942,32.24926 c -1.2367,0 -2.2507,1.01402 -2.2507,2.25074 0,1.23672 1.014,2.25074 2.2507,2.25074 1.2367,0 2.2508,-1.01402 2.2508,-2.25074 0,-1.23672 -1.0141,-2.25074 -2.2508,-2.25074 z m 0,1.00148 c 0.6963,0 1.2493,0.55298 1.2493,1.24926 0,0.69628 -0.553,1.24926 -1.2493,1.24926 -0.6962,0 -1.2492,-0.55298 -1.2492,-1.24926 0,-0.69628 0.553,-1.24926 1.2492,-1.24926 z" id="circle4932" inkscape:connector-curvature="0" />
<path style="opacity:1" d="m 932.9961,29.62695 a 0.50005,0.50005 0 0 0 -0.5,0.5 v 4.01758 a 0.50005,0.50005 0 0 0 0.5,0.5 h 4.0098 a 0.50005,0.50005 0 0 0 0.5,-0.5 v -4.01758 a 0.50005,0.50005 0 0 0 -0.5,-0.5 z m 0.5,1 h 3.0098 v 3.01758 h -3.0098 z" id="rect4941" inkscape:connector-curvature="0" />
</g>
</svg>
