<?xml version="1.0" encoding="UTF-8" standalone="no"?>
<svg
   xmlns:dc="http://purl.org/dc/elements/1.1/"
   xmlns:cc="http://creativecommons.org/ns#"
   xmlns:rdf="http://www.w3.org/1999/02/22-rdf-syntax-ns#"
   xmlns:svg="http://www.w3.org/2000/svg"
   xmlns="http://www.w3.org/2000/svg"
   xmlns:sodipodi="http://sodipodi.sourceforge.net/DTD/sodipodi-0.dtd"
   xmlns:inkscape="http://www.inkscape.org/namespaces/inkscape"
   version="1.1"
   id="svg1"
   width="16"
   height="16"
   viewBox="0 0 16 16"
   sodipodi:docname="spiro-symbolic.svg"
   inkscape:version="1.1-dev (1fceb22, 2019-12-30)">
  <defs
     id="defs2144" />
  <style
     id="s0">
.success { fill:#009909; }
.warning { fill:#FF1990; }
.error { fill:#00AAFF; }
</style>
  <style
     id="s2">
@import '../../highlights.css';
</style>
  <sodipodi:namedview
     objecttolerance="10"
     gridtolerance="10"
     guidetolerance="10"
     id="namedview"
     showgrid="true"
     inkscape:zoom="64"
     inkscape:cx="8.1799817"
     inkscape:cy="8.3242846"
     inkscape:window-x="54"
     inkscape:window-y="-8"
     inkscape:document-rotation="0"
     inkscape:snap-global="false"
     inkscape:window-width="1858"
     inkscape:window-height="1177"
     inkscape:window-maximized="1"
     inkscape:current-layer="layercompo">
    <inkscape:grid
       type="xygrid"
       id="grid" />
  </sodipodi:namedview>
  <metadata
     id="metadata1906">
    <rdf:RDF>
      <cc:Work
         rdf:about="">
        <dc:format>image/svg+xml</dc:format>
        <dc:type
           rdf:resource="http://purl.org/dc/dcmitype/StillImage" />
        <cc:license
           rdf:resource="http://creativecommons.org/publicdomain/zero/1.0/" />
        <dc:title />
        <dc:date>13 Jan 2019</dc:date>
        <dc:creator>
          <cc:Agent>
            <dc:title>Ramón Miranda</dc:title>
          </cc:Agent>
        </dc:creator>
        <dc:rights>
          <cc:Agent>
            <dc:title>see the license tab</dc:title>
          </cc:Agent>
        </dc:rights>
        <dc:subject>
          <rdf:Bag>
            <rdf:li>icon ui</rdf:li>
          </rdf:Bag>
        </dc:subject>
        <dc:description>This is a contribution with Inkscape Project from
Ramon Miranda www.ramonmiranda.com (design and SVG file)
Jabiertxo (SVG stuff to integrate them in UI)</dc:description>
        <dc:publisher>
          <cc:Agent>
            <dc:title />
          </cc:Agent>
        </dc:publisher>
        <dc:identifier />
        <dc:source />
        <dc:relation />
        <dc:language>-</dc:language>
        <dc:coverage />
        <dc:contributor>
          <cc:Agent>
            <dc:title>Ramon Miranda
Jabier Arraiza</dc:title>
          </cc:Agent>
        </dc:contributor>
      </cc:Work>
      <cc:License
         rdf:about="http://creativecommons.org/publicdomain/zero/1.0/">
        <cc:permits
           rdf:resource="http://creativecommons.org/ns#Reproduction" />
        <cc:permits
           rdf:resource="http://creativecommons.org/ns#Distribution" />
        <cc:permits
           rdf:resource="http://creativecommons.org/ns#DerivativeWorks" />
      </cc:License>
    </rdf:RDF>
  </metadata>
  <g
     inkscape:groupmode="layer"
     id="layercompo"
     inkscape:label="spiro">
    <path
       id="rect22048"
       d="M 0,0 H 16 V 16 H 0 Z"
       style="opacity:0;fill:none" />
    <path
       sodipodi:nodetypes="ccccccccccscccccccccsccccccccccccccsscccccccccccccccc"
       inkscape:connector-curvature="0"
       id="path9609"
       d="M 5.4766262,3.6187514 C 5.0974993,3.6090051 4.7205981,3.6720146 4.3671545,3.7904285 3.8968317,3.9479995 3.4712055,4.2005761 3.0974817,4.5051373 2.4545653,5.0290712 1.9626863,5.7067498 1.6088502,6.4362722 1.2372064,7.2024932 1.0106116,8.0362975 0.93545597,8.8824358 c -0.0647652,0.7290874 -0.017622,1.5192502 0.34886073,2.2207812 0.1838818,0.351956 0.44675,0.673178 0.7858572,0.9075 0.3406373,0.235368 0.7509423,0.377016 1.1797036,0.371352 0.3473613,-0.0046 0.6763955,-0.106397 0.9662561,-0.255218 0.28877,-0.148266 0.5379247,-0.341328 0.7601528,-0.546705 0.4104883,-0.379339 0.7283095,-0.772896 1.101669,-0.985074 0.2819967,-0.160257 0.6637587,-0.22758 0.9884168,-0.201513 V 9.5585844 9.6816047 C 6.6177162,9.65614 6.1211197,9.7594795 5.7290924,9.9822692 5.1968387,10.284743 4.8520393,10.733829 4.4975192,11.061444 4.3062812,11.238178 4.1055131,11.39185 3.893438,11.500734 3.6824533,11.609063 3.4567586,11.672778 3.2411558,11.675624 2.9767623,11.679116 2.7005965,11.588294 2.4709065,11.429586 2.2397146,11.269831 2.0461781,11.039314 1.9090564,10.776848 1.6335746,10.249525 1.5803231,9.5967779 1.638228,8.9448625 1.7059428,8.1825121 1.9106099,7.4300775 2.2436865,6.7433622 2.5602856,6.0906101 2.9952022,5.4984186 3.5431976,5.0518402 3.8613339,4.7925819 4.2152076,4.5842718 4.5911617,4.4583161 4.9661804,4.3326753 5.3676368,4.2890457 5.7447002,4.3490682 c 0.4272243,0.068006 0.8435412,0.2714794 1.2058687,0.5517511 0.363606,0.2812634 0.679117,0.6399598 0.9680915,1.0305206 0.6052869,0.8180389 1.0773535,1.751286 1.5717144,2.690827 0.1952075,0.3710069 0.3998465,0.7551233 0.6628362,1.1191124 0.263553,0.3647527 0.588685,0.7092447 0.99747,0.9593697 0.405649,0.248212 0.876747,0.389268 1.358725,0.390633 0.48284,0.0014 0.9634,-0.138496 1.366988,-0.414963 0.342537,-0.234656 0.610202,-0.553977 0.801463,-0.9056619 C 14.868651,9.4198622 14.983594,9.03972 15.043705,8.6602664 15.106372,8.2647137 15.113862,7.8410523 15.002391,7.4250198 14.889972,7.0053844 14.654454,6.6035237 14.278962,6.3320725 14.024125,6.1478452 13.721341,6.0379227 13.407726,6.0148835 13.25279,6.0035015 13.00951,6.0135335 12.858473,6.0442615 v 0.7293954 c 0.130576,-0.046556 0.360422,-0.066521 0.497381,-0.056459 0.18089,0.013288 0.362981,0.07964 0.509983,0.1859053 0.217246,0.1570539 0.379421,0.4191278 0.456273,0.7059871 0.07782,0.2904599 0.07611,0.6150756 0.02433,0.9419265 -0.04983,0.314498 -0.142899,0.6167396 -0.287811,0.8831708 -0.144408,0.2655404 -0.342656,0.496744 -0.579754,0.6591654 -0.277924,0.190385 -0.624872,0.294294 -0.968092,0.293321 C 12.1667,10.385697 11.81733,10.281798 11.518364,10.098861 11.214849,9.9131514 10.951118,9.6407084 10.725621,9.3286123 10.499564,9.0157477 10.308738,8.6605673 10.115112,8.2925827 9.624554,7.360264 9.1388396,6.3940762 8.4860193,5.5117867 8.173881,5.0899256 7.816449,4.6811059 7.3806793,4.3440175 6.9436123,4.0059373 6.4266257,3.7445074 5.8557837,3.6536382 5.7297011,3.6335673 5.6030027,3.6220018 5.4766262,3.6187514 Z"
       style="opacity:1" />
    <path
       style="fill:#00aaff"
       inkscape:connector-curvature="0"
       d="m 7.0153773,9.3374438 0.00117,0.2246076 0.00729,1.3964656 1.6210717,-0.0085 -0.00846,-1.6210717 z m 0.4515556,0.4468695 0.7206936,-0.00376 0.00377,0.7226457 -0.7206925,0.0038 z"
       id="path2177"
       class="error" />
    <path
       class="error"
       id="path4655"
       d="m 11.303797,5.7944365 0.0012,0.2246076 0.0073,1.3964653 1.621071,-0.0085 -0.0085,-1.6210714 z m 0.451555,0.4468695 0.720694,-0.00376 0.0038,0.7226459 -0.720693,0.0038 z"
       inkscape:connector-curvature="0"
       style="fill:#00aaff" />
  </g>
</svg>
