<?xml version="1.0" encoding="UTF-8" standalone="no"?>
<svg
   xmlns:dc="http://purl.org/dc/elements/1.1/"
   xmlns:cc="http://creativecommons.org/ns#"
   xmlns:rdf="http://www.w3.org/1999/02/22-rdf-syntax-ns#"
   xmlns:svg="http://www.w3.org/2000/svg"
   xmlns="http://www.w3.org/2000/svg"
   xmlns:sodipodi="http://sodipodi.sourceforge.net/DTD/sodipodi-0.dtd"
   xmlns:inkscape="http://www.inkscape.org/namespaces/inkscape"
   inkscape:version="1.1-dev (6039630, 2019-12-20)"
   sodipodi:docname="stroke-to-path-symbolic.svg"
   viewBox="0 0 16 16"
   height="16"
   width="16"
   id="svg1"
   version="1.1">
  <metadata
     id="metadata4763">
    <rdf:RDF>
      <cc:Work
         rdf:about="">
        <dc:format>image/svg+xml</dc:format>
        <dc:type
           rdf:resource="http://purl.org/dc/dcmitype/StillImage" />
      </cc:Work>
    </rdf:RDF>
  </metadata>
  <defs
     id="defs4761" />
  <style
     id="s0">
.success { fill:#009909; }
.warning { fill:#FF1990; }
.error { fill:#00AAFF; }
</style>
  <style
     id="s2">
@import '../../highlights.css';
</style>
  <sodipodi:namedview
     inkscape:document-rotation="0"
     inkscape:current-layer="svg1"
     inkscape:window-maximized="1"
     inkscape:window-y="-6"
     inkscape:window-x="65"
     inkscape:window-height="890"
     inkscape:window-width="1296"
     inkscape:cy="8"
     inkscape:cx="8"
     inkscape:zoom="41.125"
     showgrid="true"
     id="namedview"
     guidetolerance="10"
     gridtolerance="10"
     objecttolerance="10">
    <inkscape:grid
       id="grid"
       type="xygrid" />
  </sodipodi:namedview>
  <g
     id="stroke-to-path"
     inkscape:label="00074"
     transform="matrix(1,0,0,0.999999,-165,-547.3615)">
    <path
       style="opacity:0;fill:none"
       d="m 165,547.36218 h 16 v 16 h -16 z"
       id="rect22908"
       inkscape:connector-curvature="0" />
    <path
       inkscape:connector-curvature="0"
       id="rect22912"
       d="m 168,563.3622 c 0,-7 0,-3.122 0,-7 0,-3.878 2,-6 7,-6 h 6 v -1 h -7 c -5,0 -7,3.122 -7,7 v 7 z"
       style="opacity:1" />
    <path
       style="opacity:1"
       d="m 172,563.3622 c 0,-7 0,0.878 0,-3 0,-6 0,-6 5,-6 h 4 v -1 h -5 c -6,0 -5,2 -5,7 v 3 z"
       id="path22916"
       inkscape:connector-curvature="0" />
    <path
       class="success"
       style="opacity:1"
       d="m 166,557.36218 h 3 v 3 h -3 z"
       id="rect22918"
       inkscape:connector-curvature="0" />
    <path
       class="success"
       style="opacity:1"
       d="m 170,557.36218 h 3 v 3 h -3 z"
       id="rect22920"
       inkscape:connector-curvature="0" />
    <path
       class="success"
       style="opacity:1"
       d="m 176,548.36218 h 3 v 3 h -3 z"
       id="rect22922"
       inkscape:connector-curvature="0" />
    <path
       class="success"
       style="opacity:1"
       d="m 176,552.36218 h 3 v 3 h -3 z"
       id="rect22924"
       inkscape:connector-curvature="0" />
  </g>
</svg>
