<?xml version="1.0" encoding="UTF-8" standalone="no"?>
<svg
   xmlns:dc="http://purl.org/dc/elements/1.1/"
   xmlns:cc="http://creativecommons.org/ns#"
   xmlns:rdf="http://www.w3.org/1999/02/22-rdf-syntax-ns#"
   xmlns:svg="http://www.w3.org/2000/svg"
   xmlns="http://www.w3.org/2000/svg"
   xmlns:sodipodi="http://sodipodi.sourceforge.net/DTD/sodipodi-0.dtd"
   xmlns:inkscape="http://www.inkscape.org/namespaces/inkscape"
   inkscape:version="1.1-dev (1fceb22, 2019-12-30)"
   sodipodi:docname="symbols-symbolic.svg"
   viewBox="0 0 16 16"
   height="16"
   width="16"
   id="svg1"
   version="1.1">
  <metadata
     id="metadata1918">
    <rdf:RDF>
      <cc:Work
         rdf:about="">
        <dc:format>image/svg+xml</dc:format>
        <dc:type
           rdf:resource="http://purl.org/dc/dcmitype/StillImage" />
      </cc:Work>
    </rdf:RDF>
  </metadata>
  <defs
     id="defs1916" />
  <style
     id="s0">
.success { fill:#009909; }
.warning { fill:#FF1990; }
.error { fill:#00AAFF; }
</style>
  <style
     id="s2">
@import '../../highlights.css';
</style>
  <sodipodi:namedview
     inkscape:document-rotation="0"
     inkscape:current-layer="svg1"
     inkscape:window-maximized="1"
     inkscape:window-y="-8"
     inkscape:window-x="54"
     inkscape:window-height="1177"
     inkscape:window-width="1858"
     inkscape:cy="4.0231851"
     inkscape:cx="6.1301902"
     inkscape:zoom="30.09375"
     showgrid="true"
     id="namedview"
     guidetolerance="10"
     gridtolerance="10"
     objecttolerance="10">
    <inkscape:grid
       id="grid"
       type="xygrid" />
  </sodipodi:namedview>
  <g
     inkscape:label="00072"
     id="symbols"
     transform="matrix(1,0,0,0.999973,0,4.3e-4)">
    <path
       sodipodi:nodetypes="cccccccccccccccsscccccccccccsscccccccc"
       id="symbol-shield"
       d="M 8.0312,4.254784e-4 C 5.9057,0.019425 3.7732,0.3619158 1.625,0.9691994 2.5509,3.398935 1.691,7.35043 2.2187,10.50015 2.7383,13.60316 5.6383,14.67123 8.0312,16 10.8942,14.67694 13.4674,13.10087 13.8124,10.50015 14.2313,7.344229 13.3448,4.246612 14.375,0.9691994 12.2768,0.2846178 10.1567,-0.018774 8.0312,4.254784e-4 Z m 0,1.9991985216 C 8.864,2.669306 9.5828,3.767567 10,5.125131 9.0819,5.803912 8.4753,6.938467 8.3124,8.187234 h 0.625 c 0.058,-0.269892 0.1209,-0.479073 0.25,-0.780964 1.1946,-2.790726 4.6339,-0.230494 2.7813,1.187567 -0.056,-1.267666 -0.959,-1.800065 -1.75,-0.625297 -0.049,0.073 -0.086,0.148796 -0.125,0.218694 h 0.5313 c 0.523681,0 0.523681,0.812579 0,0.812579 H 9.8437 c 0.014,0.570586 0.4592,1.031388 0.9063,1.031388 -0.501,1.33326 -1.8693,0.609368 -1.9063,-1.031388 H 8.2812 c 0.026,0.944876 0.3243,1.924068 0.9688,2.500148 -0.3008,0.58188 -0.5098,1.25587 -1.2188,1.49996 C 7.4755,12.797731 7.033,12.221841 6.8124,11.499961 7.4565,10.903081 7.739,9.928789 7.75,8.999813 H 7.1562 c -0.037,1.640756 -1.4053,2.364648 -1.9062,1.031388 0.4473,0 0.8922,-0.460802 0.9062,-1.031388 H 5.375 c -0.5236809,0 -0.5236809,-0.812579 0,-0.812579 H 5.9062 C 5.8672,8.117236 5.8302,8.041538 5.7812,7.96854 4.9904,6.793772 4.0872,7.326171 4.0312,8.593837 2.1786,7.175776 5.618,4.615544 6.8124,7.40627 c 0.1293,0.301891 0.1921,0.511072 0.25,0.780964 h 0.625 C 7.5044,6.970467 6.8829,5.857911 6.0312,5.125131 6.3849,4.02176 7.0087,2.757104 8.0312,1.999624 Z"
       style="opacity:1"
       inkscape:connector-curvature="0" />
    <path
       style="opacity:0;fill:none"
       d="M 0,0 H 16 V 16 H 0 Z"
       id="rect48467"
       inkscape:connector-curvature="0" />
  </g>
</svg>
