<?xml version="1.0" encoding="UTF-8" standalone="no"?>
<svg
   xmlns:dc="http://purl.org/dc/elements/1.1/"
   xmlns:cc="http://creativecommons.org/ns#"
   xmlns:rdf="http://www.w3.org/1999/02/22-rdf-syntax-ns#"
   xmlns:svg="http://www.w3.org/2000/svg"
   xmlns="http://www.w3.org/2000/svg"
   xmlns:sodipodi="http://sodipodi.sourceforge.net/DTD/sodipodi-0.dtd"
   xmlns:inkscape="http://www.inkscape.org/namespaces/inkscape"
   inkscape:version="1.0beta2 (7cf281c, 2019-12-21)"
   sodipodi:docname="taper-stroke-symbolic.svg"
   viewBox="0 0 16 16"
   height="16"
   width="16"
   id="svg1"
   version="1.1">
  <defs
     id="defs2301" />
  <style
     id="s0">
.success { fill:#009909; }
.warning { fill:#FF1990; }
.error { fill:#00AAFF; }
</style>
  <style
     id="s2">
@import '../../highlights.css';
</style>
  <sodipodi:namedview
     inkscape:current-layer="layercompo"
     inkscape:window-maximized="1"
     inkscape:window-height="890"
     inkscape:window-width="1296"
     inkscape:document-rotation="0"
     inkscape:window-y="-6"
     inkscape:window-x="65"
     inkscape:cy="6.0581955"
     inkscape:cx="3.5382555"
     inkscape:zoom="54.332374"
     showgrid="true"
     id="namedview"
     guidetolerance="10"
     gridtolerance="10"
     objecttolerance="10">
    <inkscape:grid
       id="grid"
       type="xygrid" />
  </sodipodi:namedview>
  <metadata
     id="metadata1906">
    <rdf:RDF>
      <cc:Work
         rdf:about="">
        <dc:format>image/svg+xml</dc:format>
        <dc:type
           rdf:resource="http://purl.org/dc/dcmitype/StillImage" />
        <cc:license
           rdf:resource="http://creativecommons.org/publicdomain/zero/1.0/" />
        <dc:title />
        <dc:date>13 Jan 2019</dc:date>
        <dc:creator>
          <cc:Agent>
            <dc:title>Ramón Miranda</dc:title>
          </cc:Agent>
        </dc:creator>
        <dc:rights>
          <cc:Agent>
            <dc:title>see the license tab</dc:title>
          </cc:Agent>
        </dc:rights>
        <dc:subject>
          <rdf:Bag>
            <rdf:li>icon ui</rdf:li>
          </rdf:Bag>
        </dc:subject>
        <dc:description>This is a contribution with Inkscape Project from
Ramon Miranda www.ramonmiranda.com (design and SVG file)
Jabiertxo (SVG stuff to integrate them in UI)</dc:description>
        <dc:publisher>
          <cc:Agent>
            <dc:title />
          </cc:Agent>
        </dc:publisher>
        <dc:identifier />
        <dc:source />
        <dc:relation />
        <dc:language>-</dc:language>
        <dc:coverage />
        <dc:contributor>
          <cc:Agent>
            <dc:title>Ramon Miranda
Jabier Arraiza</dc:title>
          </cc:Agent>
        </dc:contributor>
      </cc:Work>
      <cc:License
         rdf:about="http://creativecommons.org/publicdomain/zero/1.0/">
        <cc:permits
           rdf:resource="http://creativecommons.org/ns#Reproduction" />
        <cc:permits
           rdf:resource="http://creativecommons.org/ns#Distribution" />
        <cc:permits
           rdf:resource="http://creativecommons.org/ns#DerivativeWorks" />
      </cc:License>
    </rdf:RDF>
  </metadata>
  <g
     inkscape:label="taper-stroke"
     id="layercompo"
     inkscape:groupmode="layer">
    <path
       class="error"
       d="M 1.4547183,0.78421608 0.99925203,2.3436987 C 1.7488603,2.5629246 2.3415103,2.8103158 2.8227043,3.082178 2.8109253,3.0172615 2.8026048,2.9511615 2.8026048,2.8827456 c 0,-0.5746035 0.4357271,-1.0388398 0.9950413,-1.0950242 C 3.1538927,1.3957957 2.3826925,1.0556098 1.4547183,0.78421608 Z M 4.9974121,2.7108231 c 0.00881,0.056434 0.017456,0.1129402 0.017456,0.1719225 0,0.5887715 -0.4570643,1.0627529 -1.0363047,1.0992575 C 4.1567994,4.1749 4.3119104,4.3746412 4.4477833,4.5829438 5.0362,5.4850224 5.2987992,6.618748 5.7073278,7.9103336 c 0.4085124,1.2915883 0.9958971,2.7355144 2.3233538,4.0304284 0.3062542,0.298747 0.6516836,0.587751 1.0378918,0.867026 -0.031648,-0.103181 -0.053427,-0.21045 -0.053427,-0.324274 0,-0.538294 0.3807532,-0.984026 0.888715,-1.084445 C 9.6311379,11.193838 9.3811437,10.98641 9.1664384,10.77697 8.092421,9.7292818 7.6375911,8.6228576 7.2572875,7.4204834 6.876973,6.2181091 6.6046314,4.9143678 5.8094234,3.6952851 5.5849539,3.3511664 5.3157623,3.0218307 4.9974121,2.7108231 Z m 6.1919109,9.4997299 c 0.0222,0.08763 0.03756,0.178241 0.03756,0.272961 0,0.556043 -0.407477,1.009294 -0.940557,1.089204 1.128766,0.617619 2.532363,1.170923 4.294398,1.643066 L 15.00075,13.64625 C 13.3969,13.216498 12.162498,12.729193 11.189325,12.210553 Z"
       id="path9619"
       inkscape:connector-curvature="0"
       style="opacity:0.3" />
    <path
       style="opacity:0;fill:none"
       d="M 0,0 H 16 V 16 H 0 Z"
       id="rect22048"
       inkscape:connector-curvature="0" />
    <path
       style="opacity:1"
       d="m 3.9082083,1.4999469 c -0.2570984,0 -0.495473,0.075274 -0.7019799,0.1983761 C 2.7604692,1.5706 2.3454484,1.5208021 2.012811,1.5131724 1.5373238,1.502268 1.2277787,1.564487 1.2277787,1.564487 c 0,0 0.6134158,0.4688705 1.3214357,1.0754501 -0.014022,0.078724 -0.022748,0.1590953 -0.022748,0.2417522 0,0.7611084 0.620642,1.383855 1.3817423,1.383855 0.097407,0 0.1922225,-0.010777 0.2840692,-0.030153 0.7640173,0.9572853 1.0410582,2.154638 1.484897,3.5781367 0.4759504,1.5265071 1.2027886,3.27257 3.0655381,4.746162 0.040424,0.725403 0.6424208,1.306623 1.377506,1.306623 0.229515,0 0.443241,-0.06194 0.634269,-0.161874 0.753909,0.297013 1.491429,0.471124 2.12551,0.572374 1.141938,0.18235 1.910208,0.154998 1.910208,0.154998 0,0 -0.677426,-0.374162 -1.642008,-0.925217 -0.526053,-0.300529 -1.08137,-0.636541 -1.645708,-0.998216 1.62e-4,-0.0087 0.0011,-0.0172 0.0011,-0.02592 0,-0.761101 -0.622218,-1.381202 -1.383329,-1.381212 -0.1722608,2e-6 -0.3365021,0.03298 -0.488791,0.09099 C 8.1694172,9.997547 7.6638092,8.7266324 7.2281932,7.3294952 6.7891293,5.9213074 6.4682196,4.3488025 5.2851865,3.0081177 5.289,2.9664887 5.2915352,2.9242718 5.2915352,2.8816893 5.2915459,2.1205782 4.6693167,1.4999469 3.9082083,1.4999469 Z m 0,0.5538622 c 0.4643176,0 0.8294674,0.3635626 0.8294674,0.8278802 0,0.4643257 -0.3651498,0.8299955 -0.8294674,0.8299955 -0.4643068,0 -0.8299982,-0.3656698 -0.8299982,-0.8299955 0,-0.4643176 0.3656914,-0.8278802 0.8299982,-0.8278802 z m 6.2120107,9.5991789 c 0.464318,0 0.829467,0.36516 0.829467,0.829468 0,0.464327 -0.365149,0.829998 -0.829467,0.829998 -0.4643068,0 -0.8278804,-0.365671 -0.8278804,-0.829998 0,-0.464308 0.3635736,-0.829468 0.8278804,-0.829468 z"
       id="path9609"
       inkscape:connector-curvature="0" />
  </g>
</svg>
