<?xml version="1.0" encoding="UTF-8" standalone="no"?>
<svg
   xmlns:dc="http://purl.org/dc/elements/1.1/"
   xmlns:cc="http://creativecommons.org/ns#"
   xmlns:rdf="http://www.w3.org/1999/02/22-rdf-syntax-ns#"
   xmlns:svg="http://www.w3.org/2000/svg"
   xmlns="http://www.w3.org/2000/svg"
   xmlns:sodipodi="http://sodipodi.sourceforge.net/DTD/sodipodi-0.dtd"
   xmlns:inkscape="http://www.inkscape.org/namespaces/inkscape"
   inkscape:version="1.1-dev (6039630, 2019-12-20)"
   sodipodi:docname="text-put-on-path-symbolic.svg"
   viewBox="0 0 16 16"
   height="16"
   width="16"
   id="svg1"
   version="1.1">
  <metadata
     id="metadata6220">
    <rdf:RDF>
      <cc:Work
         rdf:about="">
        <dc:format>image/svg+xml</dc:format>
        <dc:type
           rdf:resource="http://purl.org/dc/dcmitype/StillImage" />
      </cc:Work>
    </rdf:RDF>
  </metadata>
  <defs
     id="defs6218" />
  <style
     id="s0">
.success { fill:#009909; }
.warning { fill:#FF1990; }
.error { fill:#00AAFF; }
</style>
  <style
     id="s2">
@import '../../highlights.css';
</style>
  <sodipodi:namedview
     inkscape:document-rotation="0"
     inkscape:current-layer="svg1"
     inkscape:window-maximized="1"
     inkscape:window-y="-6"
     inkscape:window-x="65"
     inkscape:window-height="890"
     inkscape:window-width="1296"
     inkscape:cy="8"
     inkscape:cx="8"
     inkscape:zoom="41.125"
     showgrid="true"
     id="namedview"
     guidetolerance="10"
     gridtolerance="10"
     objecttolerance="10">
    <inkscape:grid
       id="grid"
       type="xygrid" />
  </sodipodi:namedview>
  <g
     id="text-put-on-path"
     inkscape:label="00093"
     transform="matrix(1,0,0,0.999999,-194.9375,-567.40877)">
    <path
       style="opacity:0;fill:none"
       d="m 194.9375,567.40948 h 16 v 16 h -16 z"
       id="rect28783"
       inkscape:connector-curvature="0" />
    <path
       style="opacity:1"
       d="m 204,568.4587 c 0,5.0192 7e-4,2.5588 0.0313,5.4588 v 0.4294 h 0.4687 2.2813 c 1.6809,0.0674 1.6051,-4.0483 -0.0313,-3.9255 -0.0117,9e-4 -0.0195,-10e-4 -0.0313,0 H 205 v -1.9627 z m 0.9375,2.8521 h 1.8125 0.0313 0.0313 c 0.3678,-0.0375 0.4346,2.1642 0,2.1467 h -0.0313 -1.8438 c -0.006,-0.4667 0.004,-2.0025 0,-2.1467 z"
       id="path28785"
       inkscape:connector-curvature="0" />
    <path
       style="opacity:1"
       d="m 199,569.3622 v 0.8723 h 1.75 c 0.1268,0.013 0.1972,0.0614 0.25,0.1246 0.0491,0.0588 0.118,0.1861 0.125,0.3739 5e-4,0.0142 0,0.0159 0,0.0312 v 0.6854 h -1.8438 -0.0312 c -1.6106,-0.1166 -1.6872,2.9624 -0.0313,2.8973 h 2.3125 0.4375 v -0.4362 L 202,570.7642 c 0,-0.3694 -0.1022,-0.7138 -0.3125,-0.9658 -0.2104,-0.252 -0.5292,-0.4042 -0.8438,-0.4362 h -0.0313 -1.8125 z m 0.1875,2.9596 h 0.0313 0.0313 1.8437 l -0.0313,1.1527 h -1.8437 -0.0313 c -0.468,0.0184 -0.4014,-1.1929 0,-1.1527 z"
       id="path28787"
       inkscape:connector-curvature="0" />
    <path
       class="success"
       style="opacity:1"
       d="m 202.9375,576.4095 c -4.2414,0 -7.6977,3.0879 -7.9688,7 h 1 c 0.2793,-3.3523 3.287,-6 6.9688,-6 3.6818,0 6.6895,2.6477 6.9687,6 h 1 c -0.271,-3.9121 -3.7273,-7 -7.9687,-7 z"
       id="path28789"
       inkscape:connector-curvature="0" />
  </g>
</svg>
