<?xml version="1.0" encoding="UTF-8" standalone="no"?>
<svg
   xmlns:dc="http://purl.org/dc/elements/1.1/"
   xmlns:cc="http://creativecommons.org/ns#"
   xmlns:rdf="http://www.w3.org/1999/02/22-rdf-syntax-ns#"
   xmlns:svg="http://www.w3.org/2000/svg"
   xmlns="http://www.w3.org/2000/svg"
   xmlns:xlink="http://www.w3.org/1999/xlink"
   xmlns:sodipodi="http://sodipodi.sourceforge.net/DTD/sodipodi-0.dtd"
   xmlns:inkscape="http://www.inkscape.org/namespaces/inkscape"
   inkscape:version="1.1-dev (6039630, 2019-12-20)"
   sodipodi:docname="text-orientation-sideways-symbolic.svg"
   id="svg1028"
   version="1.1"
   height="24"
   width="24">
  <style
     id="s0">
.success { fill:#009909; }
.warning { fill:#FF1990; }
.error { fill:#00AAFF; }
</style>
  <style
     id="s2">
@import '../../highlights.css';
</style>
  <metadata
     id="metadata1032">
    <rdf:RDF>
      <cc:Work
         rdf:about="">
        <dc:format>image/svg+xml</dc:format>
        <dc:type
           rdf:resource="http://purl.org/dc/dcmitype/StillImage" />
        <dc:title />
      </cc:Work>
    </rdf:RDF>
  </metadata>
  <sodipodi:namedview
     inkscape:current-layer="svg1028"
     inkscape:window-maximized="0"
     inkscape:window-y="0"
     inkscape:window-x="72"
     inkscape:cy="12"
     inkscape:cx="12"
     inkscape:zoom="28.291667"
     showgrid="false"
     id="namedview1030"
     inkscape:window-height="877"
     inkscape:window-width="1355"
     inkscape:pageshadow="2"
     inkscape:pageopacity="0"
     guidetolerance="10"
     gridtolerance="10"
     objecttolerance="10"
     borderopacity="1"
     inkscape:document-rotation="0"
     bordercolor="#666666"
     pagecolor="#ffffff" />
  <defs
     id="defs1011">
    <linearGradient
       y2="4"
       y1="25"
       x2="4"
       x1="30"
       gradientUnits="userSpaceOnUse"
       xlink:href="#linearGradientVector"
       id="linearGradientA" />
    <linearGradient
       id="linearGradientVector">
      <stop
         id="stop1006"
         style="stop-color:#ffffff"
         offset="0" />
      <stop
         id="stop1008"
         style="stop-color:#e2e1e1"
         offset="1" />
    </linearGradient>
  </defs>
  <!-- Note "frmt-text-direction-rtl" is the GTK icon name but we want to use our own. -->
  <g
     inkscape:label="#writing_mode_rl"
     id="frmt-text-direction-r2l">
    <!-- Background -->
    <!-- Glyphs -->
    <path
       id="path1469"
       style="stroke-width:1.1228"
       d="m 13.558537,14.693269 a 0.61271088,0.61271088 0 0 0 -0.612712,0.612712 0.61271088,0.61271088 0 0 0 0.612712,0.612709 h 2.817033 v 4.901687 h -2.817033 a 0.61271088,0.61271088 0 0 0 -0.612712,0.612712 0.61271088,0.61271088 0 0 0 0.612712,0.61271 h 4.901686 c 1.089264,0 1.98332,-0.48305 2.54658,-1.187128 0.563261,-0.704076 0.82333,-1.600706 0.82333,-2.489138 0,-0.88843 -0.260069,-1.78506 -0.82333,-2.489137 -0.56326,-0.704076 -1.457316,-1.187127 -2.54658,-1.187127 z m 4.042454,1.225421 h 0.859232 c 0.74887,0 1.233414,0.282839 1.589219,0.727594 0.355805,0.444757 0.555269,1.079904 0.555269,1.723249 0,0.643347 -0.199464,1.278494 -0.555269,1.723249 -0.355805,0.444758 -0.840349,0.727595 -1.589219,0.727595 h -0.859232 z"
       inkscape:connector-curvature="0" />
    <path
       style="stroke-width:1.05077"
       d="m 18.400363,4.7289396 a 0.57340799,0.57340799 0 0 0 -0.573408,-0.573407 0.57340799,0.57340799 0 0 0 -0.573408,0.573407 v 3.301576 l -0.71676,-0.813075 a 0.57346533,0.57346533 0 0 0 -0.430056,-0.194869 h -0.627165 l 0.05376,-4.007136 a 0.57340799,0.57340799 0 0 0 -0.566688,-0.580127 0.57340799,0.57340799 0 0 0 -0.580128,0.566688 l -0.05376,4.020575 h -1.666468 c -0.09557,0 -0.258093,-0.06546 -0.383018,-0.190389 -0.124926,-0.124926 -0.190389,-0.28745 -0.190389,-0.383019 v -1.146815 a 0.57340799,0.57340799 0 0 0 -0.573408,-0.573409 0.57340799,0.57340799 0 0 0 -0.573409,0.573409 v 1.146815 c 0,0.477841 0.221241,0.888724 0.526371,1.193855 0.30513,0.305129 0.716013,0.526369 1.193853,0.526369 h 1.65079 l -0.0448,3.4337294 a 0.57340799,0.57340799 0 0 0 0.564449,0.580127 0.57340799,0.57340799 0 0 0 0.582368,-0.566689 l 0.0448,-3.4471674 h 0.383019 l 1.549993,1.756062 a 0.57346533,0.57346533 0 0 0 1.003464,-0.380778 z"
       id="path1467"
       inkscape:connector-curvature="0" />
    <path
       style="stroke-width:1.05077"
       d="m 21.840811,6.9889736 a 0.57340799,0.57340799 0 0 0 -0.08735,-0.271024 0.57340799,0.57340799 0 0 0 -0.790676,-0.18143 L 20.694,6.7045096 v -3.695794 a 0.57346533,0.57346533 0 0 0 -0.573408,-0.573407 h -1.146816 a 0.57340799,0.57340799 0 0 0 -0.573408,0.573407 0.57340799,0.57340799 0 0 0 0.573408,0.573408 h 0.573408 v 7.4543054 h -0.573408 a 0.57340799,0.57340799 0 0 0 -0.573408,0.573407 0.57340799,0.57340799 0 0 0 0.573408,0.573408 h 1.146816 A 0.57346533,0.57346533 0 0 0 20.694,11.609836 V 8.0573956 l 0.878031,-0.548771 a 0.57340799,0.57340799 0 0 0 0.268785,-0.519651 z"
       id="path1465"
       inkscape:connector-curvature="0" />
    <path
       class="success"
       style="stroke-width:0.965729"
       d="M 5.8710186,3.9981341 V 18.013618 H 3.7630188 l 2.6349997,3.161999 2.6349997,-3.161999 H 6.9250185 V 3.9981341 Z"
       id="path1434"
       inkscape:connector-curvature="0"
       sodipodi:nodetypes="cccccccc" />
    <!-- Arrow -->
  </g>
</svg>
