<?xml version="1.0" encoding="UTF-8" standalone="no"?>
<svg
   xmlns:dc="http://purl.org/dc/elements/1.1/"
   xmlns:cc="http://creativecommons.org/ns#"
   xmlns:rdf="http://www.w3.org/1999/02/22-rdf-syntax-ns#"
   xmlns:svg="http://www.w3.org/2000/svg"
   xmlns="http://www.w3.org/2000/svg"
   xmlns:sodipodi="http://sodipodi.sourceforge.net/DTD/sodipodi-0.dtd"
   xmlns:inkscape="http://www.inkscape.org/namespaces/inkscape"
   inkscape:version="1.1-dev (6039630, 2019-12-20)"
   sodipodi:docname="text-convert-to-regular-symbolic.svg"
   viewBox="0 0 16 16"
   height="16"
   width="16"
   id="svg1"
   version="1.1">
  <metadata
     id="metadata4540">
    <rdf:RDF>
      <cc:Work
         rdf:about="">
        <dc:format>image/svg+xml</dc:format>
        <dc:type
           rdf:resource="http://purl.org/dc/dcmitype/StillImage" />
      </cc:Work>
    </rdf:RDF>
  </metadata>
  <defs
     id="defs4538" />
  <style
     id="s0">
.success { fill:#009909; }
.warning { fill:#FF1990; }
.error { fill:#00AAFF; }
</style>
  <style
     id="s2">
@import '../../highlights.css';
</style>
  <sodipodi:namedview
     inkscape:document-rotation="0"
     inkscape:current-layer="text-convert-to-regular"
     inkscape:window-maximized="1"
     inkscape:window-y="-6"
     inkscape:window-x="65"
     inkscape:window-height="890"
     inkscape:window-width="1296"
     inkscape:cy="6.4298207"
     inkscape:cx="9.5831906"
     inkscape:zoom="29.079766"
     showgrid="true"
     id="namedview"
     guidetolerance="10"
     gridtolerance="10"
     objecttolerance="10">
    <inkscape:grid
       id="grid"
       type="xygrid" />
  </sodipodi:namedview>
  <g
     id="text-convert-to-regular"
     inkscape:label="00096"
     transform="translate(-195,-627.3622)">
    <path
       transform="translate(0,512.3622)"
       style="opacity:0;fill:none"
       d="m 195,115 h 16 v 16 h -16 z"
       id="rect18513"
       inkscape:connector-curvature="0" />
    <path
       class="success"
       inkscape:connector-curvature="0"
       id="path18534"
       d="m 197,629.3622 v 2 l 1,-1 h 1 v 3 l -1,1 h 3 l -1,-1 v -3 h 1 l 1,1 v -2 z"
       style="opacity:1" />
    <path
       class="success"
       id="rect18536"
       transform="translate(0,512.3622)"
       d="m 195,115 v 9 h 9 v -9 z m 1,1 h 7 v 7 h -7 z"
       style="opacity:1"
       inkscape:connector-curvature="0" />
    <path
       style="opacity:1"
       d="m 204,636.3622 v 2 l 1,-1 h 1 v 3 l -1,1 h 3 l -1,-1 v -3 h 1 l 1,1 v -2 z"
       id="path18541"
       inkscape:connector-curvature="0" />
    <path
       style="opacity:1"
       d="m 206,634.36218 h 1 v 1 h -1 z"
       id="rect18543"
       inkscape:connector-curvature="0" />
    <path
       style="opacity:1"
       d="m 208,634.36218 h 1 v 1 h -1 z"
       id="rect18545"
       inkscape:connector-curvature="0" />
    <path
       transform="translate(0,512.3622)"
       style="opacity:1"
       d="m 210,122 h 1 v 1 h -1 z"
       id="rect18548"
       inkscape:connector-curvature="0" />
    <path
       transform="translate(0,512.3622)"
       style="opacity:1"
       d="m 210,124 h 1 v 1 h -1 z"
       id="rect18550"
       inkscape:connector-curvature="0" />
    <path
       transform="translate(0,512.3622)"
       style="opacity:1"
       d="m 210,126 h 1 v 1 h -1 z"
       id="rect18552"
       inkscape:connector-curvature="0" />
    <path
       transform="translate(0,512.3622)"
       style="opacity:1"
       d="m 210,128 h 1 v 1 h -1 z"
       id="rect18554"
       inkscape:connector-curvature="0" />
    <path
       transform="translate(0,512.3622)"
       style="opacity:1"
       d="m 210,130 h 1 v 1 h -1 z"
       id="rect18556"
       inkscape:connector-curvature="0" />
    <path
       transform="translate(0,512.3622)"
       style="opacity:1"
       d="m 208,130 h 1 v 1 h -1 z"
       id="rect18558"
       inkscape:connector-curvature="0" />
    <path
       transform="translate(0,512.3622)"
       style="opacity:1"
       d="m 206,130 h 1 v 1 h -1 z"
       id="rect18560"
       inkscape:connector-curvature="0" />
    <path
       transform="translate(0,512.3622)"
       style="opacity:1"
       d="m 204,130 h 1 v 1 h -1 z"
       id="rect18562"
       inkscape:connector-curvature="0" />
    <path
       transform="translate(0,512.3622)"
       style="opacity:1"
       d="m 202,130 h 1 v 1 h -1 z"
       id="rect18564"
       inkscape:connector-curvature="0" />
    <path
       transform="translate(0,512.3622)"
       style="opacity:1"
       d="m 202,128 h 1 v 1 h -1 z"
       id="rect18566"
       inkscape:connector-curvature="0" />
    <path
       transform="translate(0,512.3622)"
       style="opacity:1"
       d="m 202,126 h 1 v 1 h -1 z"
       id="rect18568"
       inkscape:connector-curvature="0" />
  </g>
</svg>
