<?xml version="1.0" encoding="UTF-8" standalone="no"?>
<svg
   xmlns:dc="http://purl.org/dc/elements/1.1/"
   xmlns:cc="http://creativecommons.org/ns#"
   xmlns:rdf="http://www.w3.org/1999/02/22-rdf-syntax-ns#"
   xmlns:svg="http://www.w3.org/2000/svg"
   xmlns="http://www.w3.org/2000/svg"
   xmlns:sodipodi="http://sodipodi.sourceforge.net/DTD/sodipodi-0.dtd"
   xmlns:inkscape="http://www.inkscape.org/namespaces/inkscape"
   inkscape:version="1.1-dev (6039630, 2019-12-20)"
   sodipodi:docname="text_outer_style-symbolic.svg"
   version="1.1"
   height="28"
   width="28"
   id="svg1">
  <style
     id="s0">
.success { fill:#009909; }
.warning { fill:#FF1990; }
.error { fill:#00AAFF; }
</style>
  <style
     id="s2">
@import '../../highlights.css';
</style>
  <metadata
     id="metadata94">
    <rdf:RDF>
      <cc:Work
         rdf:about="">
        <dc:format>image/svg+xml</dc:format>
        <dc:type
           rdf:resource="http://purl.org/dc/dcmitype/StillImage" />
        <dc:title />
      </cc:Work>
    </rdf:RDF>
  </metadata>
  <sodipodi:namedview
     inkscape:current-layer="text_outer_style"
     inkscape:window-maximized="1"
     inkscape:window-y="-6"
     inkscape:window-x="65"
     inkscape:window-height="890"
     inkscape:window-width="1296"
     inkscape:cy="14"
     inkscape:cx="14"
     inkscape:zoom="23.5"
     inkscape:document-rotation="0"
     showgrid="true"
     id="base">
    <inkscape:grid
       empspacing="5"
       empopacity="0.38"
       opacity="0.15"
       empcolor="#3f3fff"
       color="#3f3fff"
       spacingy="1pt"
       spacingx="1pt"
       originy="0pt"
       originx="0pt"
       type="xygrid"
       id="GridFromPre046Settings" />
  </sodipodi:namedview>
  <defs
     id="defs3" />
  <g
     transform="translate(0,0)"
     id="text_outer_style">
    <rect
       y="0"
       x="0"
       width="28"
       style="opacity:0"
       id="text_outer_style_rect"
       height="28" />
    <g
       id="g82"
       style="font-weight:bold;font-size:20px;font-family:sans-serif;text-anchor:middle;fill:#4d4d4d;stroke:#000000;stroke-width:0.75"
       aria-label="T" />
    <g
       id="g85"
       style="font-weight:bold;font-size:12px;font-family:sans-serif;text-anchor:middle;fill:#4d4d4d;stroke:#000000;stroke-width:0.75"
       aria-label="T" />
    <path
       sodipodi:nodetypes="ssscccsssccccccscccccccccccccccccc"
       inkscape:connector-curvature="0"
       d="m 20,1.25 c -0.414214,0 -0.75,0.3357864 -0.75,0.75 0,0.4142136 0.335786,0.75 0.75,0.75 h 5.25 v 22.5 H 2.75 V 10 C 2.75,9.5857864 2.4142136,9.25 2,9.25 1.5857864,9.25 1.25,9.5857864 1.25,10 v 16 c 4.14e-5,0.414196 0.3358036,0.749959 0.75,0.75 h 24 c 0.414196,-4.1e-5 0.749959,-0.335804 0.75,-0.75 V 2 C 26.749959,1.5858036 26.414196,1.2500414 26,1.25 Z m -6.03125,12.001953 h 8.0625 v 1.705078 H 19.130859 V 22 H 16.875 V 14.957031 H 13.96875 Z M 2.6666667,2.6666667 H 16.104167 V 5.3333333 H 11.270183 V 17.333333 H 7.5104167 V 5.3333333 h -4.84375 z"
       id="path921" />
  </g>
</svg>
