<?xml version="1.0" encoding="UTF-8" standalone="no"?>
<svg
   xmlns:dc="http://purl.org/dc/elements/1.1/"
   xmlns:cc="http://creativecommons.org/ns#"
   xmlns:rdf="http://www.w3.org/1999/02/22-rdf-syntax-ns#"
   xmlns:svg="http://www.w3.org/2000/svg"
   xmlns="http://www.w3.org/2000/svg"
   xmlns:sodipodi="http://sodipodi.sourceforge.net/DTD/sodipodi-0.dtd"
   xmlns:inkscape="http://www.inkscape.org/namespaces/inkscape"
   version="1.1"
   id="svg1"
   width="16"
   height="16"
   viewBox="0 0 16 16"
   sodipodi:docname="text_word_spacing-symbolic.svg"
   inkscape:version="1.1-dev (fb7f02d, 2020-01-01)">
  <metadata
     id="metadata4402">
    <rdf:RDF>
      <cc:Work
         rdf:about="">
        <dc:format>image/svg+xml</dc:format>
        <dc:type
           rdf:resource="http://purl.org/dc/dcmitype/StillImage" />
      </cc:Work>
    </rdf:RDF>
  </metadata>
  <defs
     id="defs4400" />
  <style
     id="s0">
.success { fill:#009909; }
.warning { fill:#FF1990; }
.error { fill:#00AAFF; }
</style>
  <style
     id="s2">
@import '../../highlights.css';
</style>
  <sodipodi:namedview
     objecttolerance="10"
     gridtolerance="10"
     guidetolerance="10"
     id="namedview"
     showgrid="false"
     inkscape:zoom="16"
     inkscape:cx="11.854803"
     inkscape:cy="5.0365777"
     inkscape:window-width="1858"
     inkscape:window-height="1177"
     inkscape:window-x="54"
     inkscape:window-y="-8"
     inkscape:window-maximized="1"
     inkscape:current-layer="text_word_spacing"
     inkscape:document-rotation="0">
    <inkscape:grid
       type="xygrid"
       id="grid" />
  </sodipodi:namedview>
  <g
     transform="translate(-409,-836.36218)"
     inkscape:label="00180"
     id="text_word_spacing">
    <path
       inkscape:connector-curvature="0"
       id="rect21014"
       d="m 409,836.36218 h 16 v 16 h -16 z"
       style="opacity:0;fill:none" />
    <g
       style="font-style:normal;font-variant:normal;font-weight:600;font-stretch:normal;font-size:8.92042px;line-height:1.25;font-family:'Work Sans';-inkscape-font-specification:'Work Sans Semi-Bold';letter-spacing:0px;word-spacing:0px;fill:#000000;fill-opacity:1;stroke:none;stroke-width:1.67257"
       id="text11792"
       aria-label="in">
      <path
         id="path1172"
         style="font-style:normal;font-variant:normal;font-weight:600;font-stretch:normal;font-family:'Work Sans';-inkscape-font-specification:'Work Sans Semi-Bold';letter-spacing:-0.3px;word-spacing:-0.1px;stroke-width:1.67257"
         d="m 409.9243,843.3164 v 4.46021 h -1.22209 v -4.46021 z m -0.60658,-0.64227 q -0.38358,0 -0.57091,-0.16057 -0.18733,-0.16948 -0.18733,-0.49062 0,-0.33005 0.18733,-0.49062 0.18733,-0.16949 0.57091,-0.16949 0.38357,0 0.5709,0.16949 0.18733,0.16057 0.18733,0.49062 0,0.32114 -0.18733,0.49062 -0.18733,0.16057 -0.5709,0.16057 z" />
      <path
         id="path1174"
         style="font-style:normal;font-variant:normal;font-weight:600;font-stretch:normal;font-family:'Work Sans';-inkscape-font-specification:'Work Sans Semi-Bold';letter-spacing:-0.3px;word-spacing:-0.1px;stroke-width:1.67257"
         d="m 410.91107,847.77661 v -4.46021 h 1.09722 l 0.0714,1.33806 -0.15165,-0.14272 q 0.10705,-0.4371 0.33898,-0.72256 0.23193,-0.28545 0.56199,-0.41926 0.33897,-0.14272 0.74039,-0.14272 0.46386,0 0.82068,0.17841 0.36574,0.1784 0.57091,0.54414 0.21409,0.35682 0.21409,0.90096 v 2.9259 h -1.2221 v -2.578 q 0,-0.57091 -0.22301,-0.785 -0.22301,-0.22301 -0.57983,-0.22301 -0.24977,0 -0.49062,0.12489 -0.23193,0.11596 -0.38358,0.38358 -0.14273,0.26761 -0.14273,0.71363 v 2.36391 z" />
    </g>
    <g
       style="font-style:normal;font-variant:normal;font-weight:600;font-stretch:normal;font-size:9.05149px;line-height:1.25;font-family:'Work Sans';-inkscape-font-specification:'Work Sans Semi-Bold';letter-spacing:0px;word-spacing:0px;fill:#000000;fill-opacity:1;stroke:none;stroke-width:1.69715"
       id="text11788"
       aria-label="th">
      <path
         id="path1177"
         style="font-style:normal;font-variant:normal;font-weight:600;font-stretch:normal;font-family:'Work Sans';-inkscape-font-specification:'Work Sans Semi-Bold';stroke-width:1.69715"
         d="m 420.43445,841.82949 v 4.43523 q 0,0.32585 0.16293,0.47973 0.17198,0.14482 0.46163,0.14482 0.22628,0 0.39826,-0.0634 0.17198,-0.0724 0.30775,-0.19008 l 0.19914,0.82369 q -0.21724,0.17197 -0.54309,0.27154 -0.32586,0.0996 -0.68792,0.0996 -0.45257,0 -0.80558,-0.13578 -0.34396,-0.13577 -0.54309,-0.43447 -0.19008,-0.2987 -0.19008,-0.79653 v -4.2904 z m 1.44824,1.38488 v 0.92325 h -3.52103 v -0.92325 z" />
      <path
         id="path1179"
         style="font-style:normal;font-variant:normal;font-weight:600;font-stretch:normal;font-family:'Work Sans';-inkscape-font-specification:'Work Sans Semi-Bold';stroke-width:1.69715"
         d="m 422.72165,847.74011 v -6.50802 h 1.24006 v 2.75165 q 0.21723,-0.43447 0.5974,-0.64265 0.38016,-0.21724 0.85989,-0.21724 0.47067,0 0.83273,0.18103 0.37111,0.18103 0.5793,0.55214 0.21723,0.36206 0.21723,0.9142 v 2.96889 h -1.24005 v -2.60683 q 0,-0.58834 -0.22629,-0.80558 -0.22628,-0.22629 -0.57929,-0.22629 -0.26249,0 -0.50689,0.12672 -0.23533,0.11767 -0.38921,0.39827 -0.14482,0.27154 -0.14482,0.72412 v 2.38959 z" />
    </g>
  </g>
</svg>
