<?xml version="1.0" encoding="UTF-8" standalone="no"?>
<svg
   xmlns:dc="http://purl.org/dc/elements/1.1/"
   xmlns:cc="http://creativecommons.org/ns#"
   xmlns:rdf="http://www.w3.org/1999/02/22-rdf-syntax-ns#"
   xmlns:svg="http://www.w3.org/2000/svg"
   xmlns="http://www.w3.org/2000/svg"
   xmlns:xlink="http://www.w3.org/1999/xlink"
   xmlns:sodipodi="http://sodipodi.sourceforge.net/DTD/sodipodi-0.dtd"
   xmlns:inkscape="http://www.inkscape.org/namespaces/inkscape"
   inkscape:version="1.1-dev (6039630, 2019-12-20)"
   sodipodi:docname="text-orientation-upright-symbolic.svg"
   id="svg1028"
   version="1.1"
   height="24"
   width="24">
  <style
     id="s0">
.success { fill:#009909; }
.warning { fill:#FF1990; }
.error { fill:#00AAFF; }
</style>
  <style
     id="s2">
@import '../../highlights.css';
</style>
  <metadata
     id="metadata1032">
    <rdf:RDF>
      <cc:Work
         rdf:about="">
        <dc:format>image/svg+xml</dc:format>
        <dc:type
           rdf:resource="http://purl.org/dc/dcmitype/StillImage" />
        <dc:title />
      </cc:Work>
    </rdf:RDF>
  </metadata>
  <sodipodi:namedview
     inkscape:current-layer="svg1028"
     inkscape:window-maximized="0"
     inkscape:window-y="0"
     inkscape:window-x="72"
     inkscape:cy="12"
     inkscape:cx="12"
     inkscape:zoom="28.291667"
     showgrid="true"
     id="namedview1030"
     inkscape:window-height="877"
     inkscape:window-width="1355"
     inkscape:pageshadow="2"
     inkscape:pageopacity="0"
     guidetolerance="10"
     gridtolerance="10"
     objecttolerance="10"
     borderopacity="1"
     inkscape:document-rotation="0"
     bordercolor="#666666"
     pagecolor="#ffffff">
    <inkscape:grid
       id="grid11784"
       type="xygrid" />
  </sodipodi:namedview>
  <defs
     id="defs1011">
    <linearGradient
       y2="4"
       y1="25"
       x2="4"
       x1="30"
       gradientUnits="userSpaceOnUse"
       xlink:href="#linearGradientVector"
       id="linearGradientA" />
    <linearGradient
       id="linearGradientVector">
      <stop
         id="stop1006"
         style="stop-color:#ffffff"
         offset="0" />
      <stop
         id="stop1008"
         style="stop-color:#e2e1e1"
         offset="1" />
    </linearGradient>
  </defs>
  <!-- Note "frmt-text-direction-rtl" is the GTK icon name but we want to use our own. -->
  <g
     inkscape:label="#writing_mode_rl"
     id="frmt-text-direction-r2l">
    <!-- Background -->
    <!-- Glyphs -->
    <path
       id="path1469"
       style="stroke-width:1.1228"
       d="m 13.258881,22.101846 a 0.61271088,0.61271088 0 0 0 0.612712,0.612712 0.61271088,0.61271088 0 0 0 0.612709,-0.612712 v -2.817033 h 4.901687 v 2.817033 a 0.61271088,0.61271088 0 0 0 0.612712,0.612712 0.61271088,0.61271088 0 0 0 0.61271,-0.612712 V 17.20016 c 0,-1.089264 -0.48305,-1.98332 -1.187128,-2.54658 -0.704076,-0.563261 -1.600706,-0.82333 -2.489138,-0.82333 -0.88843,0 -1.78506,0.260069 -2.489137,0.82333 -0.704076,0.56326 -1.187127,1.457316 -1.187127,2.54658 z m 1.225421,-4.042454 V 17.20016 c 0,-0.74887 0.282839,-1.233414 0.727594,-1.589219 0.444757,-0.355805 1.079904,-0.555269 1.723249,-0.555269 0.643347,0 1.278494,0.199464 1.723249,0.555269 0.444758,0.355805 0.727595,0.840349 0.727595,1.589219 v 0.859232 z"
       inkscape:connector-curvature="0" />
    <path
       style="stroke-width:1.05077"
       d="m 14.330524,4.7151491 a 0.57340799,0.57340799 0 0 0 -0.573407,0.573408 0.57340799,0.57340799 0 0 0 0.573407,0.573408 H 17.6321 l -0.813075,0.71676 a 0.57346533,0.57346533 0 0 0 -0.194869,0.430056 v 0.627165 L 12.61702,7.5821898 a 0.57340799,0.57340799 0 0 0 -0.580127,0.5666883 0.57340799,0.57340799 0 0 0 0.566688,0.5801277 l 4.020575,0.053757 v 1.6664682 c 0,0.09557 -0.06546,0.258093 -0.190389,0.383018 -0.124926,0.124926 -0.28745,0.190389 -0.383019,0.190389 h -1.146815 a 0.57340799,0.57340799 0 0 0 -0.573409,0.573408 0.57340799,0.57340799 0 0 0 0.573409,0.573409 h 1.146815 c 0.477841,0 0.888724,-0.221241 1.193855,-0.526371 0.305129,-0.30513 0.526369,-0.716013 0.526369,-1.193853 V 8.7984412 l 3.433729,0.044798 A 0.57340799,0.57340799 0 0 0 21.784828,8.2787898 0.57340799,0.57340799 0 0 0 21.218139,7.6964223 L 17.770972,7.6516252 V 7.2686065 l 1.756062,-1.5499934 a 0.57346533,0.57346533 0 0 0 -0.380778,-1.003464 z"
       id="path1467"
       inkscape:connector-curvature="0" />
    <path
       style="stroke-width:1.05077"
       d="m 16.590558,1.2747012 a 0.57340799,0.57340799 0 0 0 -0.271024,0.087355 0.57340799,0.57340799 0 0 0 -0.18143,0.7906759 l 0.16799,0.268785 H 12.6103 a 0.57346533,0.57346533 0 0 0 -0.573407,0.5734081 v 1.1468159 a 0.57340799,0.57340799 0 0 0 0.573407,0.573408 0.57340799,0.57340799 0 0 0 0.573408,-0.573408 V 3.5683328 h 7.454305 V 4.141741 A 0.57340799,0.57340799 0 0 0 21.21142,4.715149 0.57340799,0.57340799 0 0 0 21.784828,4.141741 V 2.9949252 A 0.57346533,0.57346533 0 0 0 21.21142,2.4215171 H 17.65898 L 17.110209,1.5434862 a 0.57340799,0.57340799 0 0 0 -0.519651,-0.268785 z"
       id="path1465"
       inkscape:connector-curvature="0" />
    <path
       class="success"
       style="stroke-width:0.965729"
       d="M 5.8710186,3.9981341 V 18.013618 H 3.7630188 l 2.6349997,3.161999 2.6349997,-3.161999 H 6.9250185 V 3.9981341 Z"
       id="path1434"
       inkscape:connector-curvature="0"
       sodipodi:nodetypes="cccccccc" />
    <!-- Arrow -->
  </g>
</svg>
