<?xml version="1.0" encoding="UTF-8" standalone="no"?>
<svg
   xmlns:dc="http://purl.org/dc/elements/1.1/"
   xmlns:cc="http://creativecommons.org/ns#"
   xmlns:rdf="http://www.w3.org/1999/02/22-rdf-syntax-ns#"
   xmlns:svg="http://www.w3.org/2000/svg"
   xmlns="http://www.w3.org/2000/svg"
   xmlns:sodipodi="http://sodipodi.sourceforge.net/DTD/sodipodi-0.dtd"
   xmlns:inkscape="http://www.inkscape.org/namespaces/inkscape"
   version="1.1"
   id="svg1"
   width="16"
   height="16"
   viewBox="0 0 16 16"
   sodipodi:docname="tool-measure-symbolic.svg"
   inkscape:version="1.0alpha2 (119fb3b5e8, 2019-06-21, custom)">
<style id="s0">
   .success { fill: #009909; }
   .warning { fill: #FF1990; }
   .error   { fill: #00AAFF; }
  </style>
  <style id="s2"> 
     @import '../../highlights.css'; 
  </style>

     
<metadata
     id="metadata852">
    <rdf:RDF>
      <cc:Work
         rdf:about="">
        <dc:format>image/svg+xml</dc:format>
        <dc:type
           rdf:resource="http://purl.org/dc/dcmitype/StillImage" />
        <dc:title />
      </cc:Work>
    </rdf:RDF>
  </metadata>
  <defs
     id="defs850">
    <inkscape:path-effect
       effect="join_type"
       id="path-effect2260"
       is_visible="true"
       linecap_type="round"
       line_width="1"
       linejoin_type="round"
       miter_limit="100"
       attempt_force_join="true" />
    <inkscape:path-effect
       effect="join_type"
       id="path-effect2258"
       is_visible="true"
       linecap_type="round"
       line_width="1"
       linejoin_type="round"
       miter_limit="100"
       attempt_force_join="true" />
    <inkscape:path-effect
       effect="join_type"
       id="path-effect2256"
       is_visible="true"
       linecap_type="round"
       line_width="1"
       linejoin_type="round"
       miter_limit="100"
       attempt_force_join="true" />
    <inkscape:path-effect
       attempt_force_join="true"
       miter_limit="100"
       linejoin_type="round"
       line_width="1"
       linecap_type="round"
       is_visible="true"
       id="path-effect2237"
       effect="join_type" />
    <inkscape:path-effect
       attempt_force_join="true"
       miter_limit="100"
       linejoin_type="round"
       line_width="1.3"
       linecap_type="butt"
       is_visible="true"
       id="path-effect2960"
       effect="join_type" />
  </defs>
  <sodipodi:namedview
     inkscape:snap-global="true"
     objecttolerance="10"
     gridtolerance="10"
     guidetolerance="10"
     id="namedview"
     showgrid="true"
     inkscape:zoom="22.4"
     inkscape:cx="1.2078875"
     inkscape:cy="8.1842461"
     inkscape:window-width="1920"
     inkscape:window-height="1016"
     inkscape:window-x="0"
     inkscape:window-y="27"
     inkscape:window-maximized="1"
     inkscape:current-layer="svg1"
     inkscape:document-rotation="0">
    <inkscape:grid
       type="xygrid"
       id="grid" />
  </sodipodi:namedview>
  <g
     inkscape:label="tool-measure"
     id="g0">
    <path
       id="background"
       d="M 0,0 H 16 V 16 H 0 Z"
       style="opacity:0"
       inkscape:connector-curvature="0" />
    <path
       transform="translate(0.3388562,-0.2631772)"
       inkscape:original-d="M 3.3173706,14.7777 V 1.7486544 H 9.679796 c 1.70233,0 2.322953,0.6103244 2.323221,2.1446499 l 0.0019,10.8843957 z"
       inkscape:path-effect="#path-effect2960"
       sodipodi:nodetypes="ccsscc"
       inkscape:connector-curvature="0"
       class="st5"
       d="m 3.9673706,1.7486544 a 0.65,0.65 0 0 0 -0.65,0.65 H 9.679796 c 1.35277,0 1.673022,0.3547503 1.673221,1.4947634 l 0.0019,10.8843952 a 0.65,0.65 0 0 0 0.65,-0.650113 l -8.6875464,0 a 0.65,0.65 0 0 0 0.65,0.65 z M 12.004917,15.4277 a 0.65,0.65 0 0 0 0.65,-0.650113 L 12.653017,3.8931908 C 12.65268,1.9645529 11.731686,1.0986544 9.679796,1.0986544 H 3.3173706 a 0.65,0.65 0 0 0 -0.65,0.65 V 14.7777 a 0.65,0.65 0 0 0 0.65,0.65 z"
       id="path1224" />
    <path
       transform="translate(0.3388562,-0.2631772)"
       inkscape:original-d="M 3.5024044,9.6305532 H 7.5547829"
       inkscape:path-effect="#path-effect2258"
       sodipodi:nodetypes="cc"
       inkscape:connector-curvature="0"
       d="m 3.5024044,10.130553 h 4.0523785 a 0.5,0.5 0 1 0 0,-0.9999998 H 3.5024044 a 0.5,0.5 0 1 0 0,0.9999998 z"
       class="st23"
       id="line1228" />
    <path
       transform="translate(0.3388562,-0.2631772)"
       inkscape:original-d="M 3.5024044,6.9836273 H 5.8857365"
       inkscape:path-effect="#path-effect2256"
       sodipodi:nodetypes="cc"
       inkscape:connector-curvature="0"
       d="m 3.5024044,7.4836273 h 2.3833321 a 0.5,0.5 0 1 0 0,-1 H 3.5024044 a 0.5,0.5 0 1 0 0,1 z"
       class="st23"
       id="line1230" />
    <path
       transform="translate(0.3388562,-0.2631772)"
       inkscape:original-d="M 3.5916902,12.277479 H 5.9750223"
       inkscape:path-effect="#path-effect2237"
       sodipodi:nodetypes="cc"
       inkscape:connector-curvature="0"
       d="m 3.5916902,12.777479 h 2.3833321 a 0.5,0.5 0 1 0 0,-1 H 3.5916902 a 0.5,0.5 0 1 0 0,1 z"
       class="st23"
       id="line1232" />
    <path
       transform="translate(0.3388562,-0.2631772)"
       inkscape:original-d="M 3.5024044,4.3367019 H 7.5547829"
       inkscape:path-effect="#path-effect2260"
       sodipodi:nodetypes="cc"
       inkscape:connector-curvature="0"
       d="m 3.5024044,4.8367019 h 4.0523785 a 0.5,0.5 0 1 0 0,-1 H 3.5024044 a 0.5,0.5 0 1 0 0,1 z"
       class="st23"
       id="line1226" />
  </g>
</svg>
