<?xml version="1.0" encoding="UTF-8" standalone="no"?>
<svg
   xmlns:dc="http://purl.org/dc/elements/1.1/"
   xmlns:cc="http://creativecommons.org/ns#"
   xmlns:rdf="http://www.w3.org/1999/02/22-rdf-syntax-ns#"
   xmlns:svg="http://www.w3.org/2000/svg"
   xmlns="http://www.w3.org/2000/svg"
   xmlns:sodipodi="http://sodipodi.sourceforge.net/DTD/sodipodi-0.dtd"
   xmlns:inkscape="http://www.inkscape.org/namespaces/inkscape"
   inkscape:version="1.1-dev (6039630, 2019-12-20)"
   sodipodi:docname="transform-affect-pattern-symbolic.svg"
   viewBox="0 0 16 16"
   height="16"
   width="16"
   id="svg1"
   version="1.1">
  <metadata
     id="metadata3892">
    <rdf:RDF>
      <cc:Work
         rdf:about="">
        <dc:format>image/svg+xml</dc:format>
        <dc:type
           rdf:resource="http://purl.org/dc/dcmitype/StillImage" />
      </cc:Work>
    </rdf:RDF>
  </metadata>
  <defs
     id="defs3890" />
  <style
     id="s0">
.success { fill:#009909; }
.warning { fill:#FF1990; }
.error { fill:#00AAFF; }
</style>
  <style
     id="s2">
@import '../../highlights.css';
</style>
  <sodipodi:namedview
     inkscape:document-rotation="0"
     inkscape:current-layer="svg1"
     inkscape:window-maximized="1"
     inkscape:window-y="-6"
     inkscape:window-x="65"
     inkscape:window-height="890"
     inkscape:window-width="1296"
     inkscape:cy="13.12859"
     inkscape:cx="9.6938222"
     inkscape:zoom="10.28125"
     showgrid="true"
     id="namedview"
     guidetolerance="10"
     gridtolerance="10"
     objecttolerance="10">
    <inkscape:grid
       id="grid"
       type="xygrid" />
  </sodipodi:namedview>
  <g
     id="transform-affect-pattern"
     inkscape:label="00160"
     transform="matrix(1,0,0,0.999998,-438,-527.35338)">
    <path
       style="opacity:0;fill:none"
       d="m 438,527.35437 h 16 v 16 h -16 z"
       id="rect18970"
       inkscape:connector-curvature="0" />
    <path
       inkscape:connector-curvature="0"
       id="path18966"
       d="m 440,528.3622 v 1 h 0.5 10.5 v 6.4922 0.5 h 1 v -0.5 -6.9922 -0.5 h -0.5 -11 z"
       style="opacity:1" />
    <path
       inkscape:connector-curvature="0"
       id="path18968"
       d="m 440,535.3544 v 1 h 0.5 6.5 v 0.5 0.5 h 1 v -0.5 -1 -0.5 h -0.5 -7 z"
       style="opacity:1" />
    <path
       inkscape:connector-curvature="0"
       id="path18996"
       d="m 443,539.3544 v 2.0202 h 2 v -2.0202 z"
       style="opacity:1" />
    <path
       inkscape:connector-curvature="0"
       id="path18998"
       d="m 447,541.3544 v -2 h 3 v -2 l 2.9883,3 -2.9883,3 v -2 z"
       style="opacity:1" />
    <path
       style="opacity:1"
       d="m 440,539.3746 v 2.0201 h 2 v -2.0201 z"
       id="path19000"
       inkscape:connector-curvature="0" />
    <path
       class="error"
       style="opacity:1"
       d="m 440,530.36267 h 1 v 0.99951 h -1 z"
       id="rect19028"
       inkscape:connector-curvature="0" />
    <path
       class="error"
       style="opacity:1"
       d="m 441,531.36218 h 1 v 1 h -1 z"
       id="rect19030"
       inkscape:connector-curvature="0" />
    <path
       class="error"
       style="opacity:1"
       d="m 442,532.36218 h 1 v 1 h -1 z"
       id="rect19032"
       inkscape:connector-curvature="0" />
    <path
       class="error"
       style="opacity:1"
       d="m 441,533.36218 h 1 v 1 h -1 z"
       id="rect19034"
       inkscape:connector-curvature="0" />
    <path
       class="error"
       style="opacity:1"
       d="m 440,530.36267 h 1 v 0.99951 h -1 z"
       id="rect19036"
       inkscape:connector-curvature="0" />
    <path
       class="error"
       style="opacity:1"
       d="m 441,531.36218 h 1 v 1 h -1 z"
       id="rect19038"
       inkscape:connector-curvature="0" />
    <path
       class="error"
       style="opacity:1"
       d="m 442,532.36218 h 1 v 1 h -1 z"
       id="rect19040"
       inkscape:connector-curvature="0" />
    <path
       class="error"
       style="opacity:1"
       d="m 441,533.36218 h 1 v 1 h -1 z"
       id="rect19042"
       inkscape:connector-curvature="0" />
    <path
       style="opacity:1"
       d="m 443,530.36267 h 1 v 0.99951 h -1 z"
       id="rect19060"
       inkscape:connector-curvature="0" />
    <path
       style="opacity:1"
       d="m 444,531.36218 h 1 v 1 h -1 z"
       id="rect19062"
       inkscape:connector-curvature="0" />
    <path
       style="opacity:1"
       d="m 445,532.36218 h 1 v 1 h -1 z"
       id="rect19064"
       inkscape:connector-curvature="0" />
    <path
       style="opacity:1"
       d="m 444,533.36218 h 1 v 1 h -1 z"
       id="rect19066"
       inkscape:connector-curvature="0" />
    <path
       style="opacity:1"
       d="m 443,530.36267 h 1 v 0.99951 h -1 z"
       id="rect19068"
       inkscape:connector-curvature="0" />
    <path
       style="opacity:1"
       d="m 444,531.36218 h 1 v 1 h -1 z"
       id="rect19070"
       inkscape:connector-curvature="0" />
    <path
       style="opacity:1"
       d="m 445,532.36218 h 1 v 1 h -1 z"
       id="rect19072"
       inkscape:connector-curvature="0" />
    <path
       style="opacity:1"
       d="m 444,533.36218 h 1 v 1 h -1 z"
       id="rect19074"
       inkscape:connector-curvature="0" />
    <path
       style="opacity:1"
       d="m 446,530.36267 h 1 v 0.99951 h -1 z"
       id="rect19076"
       inkscape:connector-curvature="0" />
    <path
       style="opacity:1"
       d="m 447,531.36218 h 1 v 1 h -1 z"
       id="rect19078"
       inkscape:connector-curvature="0" />
    <path
       style="opacity:1"
       d="m 448,532.36218 h 1 v 1 h -1 z"
       id="rect19080"
       inkscape:connector-curvature="0" />
    <path
       style="opacity:1"
       d="m 447,533.36218 h 1 v 1 h -1 z"
       id="rect19082"
       inkscape:connector-curvature="0" />
    <path
       class="error"
       style="opacity:1"
       d="m 446,530.36267 h 1 v 0.99951 h -1 z"
       id="rect19084"
       inkscape:connector-curvature="0" />
    <path
       class="error"
       style="opacity:1"
       d="m 447,531.36218 h 1 v 1 h -1 z"
       id="rect19086"
       inkscape:connector-curvature="0" />
    <path
       class="error"
       style="opacity:1"
       d="m 448,532.36218 h 1 v 1 h -1 z"
       id="rect19088"
       inkscape:connector-curvature="0" />
    <path
       class="error"
       style="opacity:1"
       d="m 447,533.36218 h 1 v 1 h -1 z"
       id="rect19090"
       inkscape:connector-curvature="0" />
  </g>
</svg>
