<?xml version="1.0" encoding="UTF-8" standalone="no"?>
<svg
   xmlns:dc="http://purl.org/dc/elements/1.1/"
   xmlns:cc="http://creativecommons.org/ns#"
   xmlns:rdf="http://www.w3.org/1999/02/22-rdf-syntax-ns#"
   xmlns:svg="http://www.w3.org/2000/svg"
   xmlns="http://www.w3.org/2000/svg"
   xmlns:sodipodi="http://sodipodi.sourceforge.net/DTD/sodipodi-0.dtd"
   xmlns:inkscape="http://www.inkscape.org/namespaces/inkscape"
   inkscape:version="1.1-dev (6039630, 2019-12-20)"
   sodipodi:docname="transform-affect-rounded-corners-symbolic.svg"
   viewBox="0 0 16 16"
   height="16"
   width="16"
   id="svg1"
   version="1.1">
  <metadata
     id="metadata1749">
    <rdf:RDF>
      <cc:Work
         rdf:about="">
        <dc:format>image/svg+xml</dc:format>
        <dc:type
           rdf:resource="http://purl.org/dc/dcmitype/StillImage" />
      </cc:Work>
    </rdf:RDF>
  </metadata>
  <defs
     id="defs1747" />
  <style
     id="s0">
.success { fill:#009909; }
.warning { fill:#FF1990; }
.error { fill:#00AAFF; }
</style>
  <style
     id="s2">
@import '../../highlights.css';
</style>
  <sodipodi:namedview
     inkscape:document-rotation="0"
     inkscape:current-layer="svg1"
     inkscape:window-maximized="1"
     inkscape:window-y="-6"
     inkscape:window-x="65"
     inkscape:window-height="890"
     inkscape:window-width="1296"
     inkscape:cy="8"
     inkscape:cx="8"
     inkscape:zoom="41.125"
     showgrid="true"
     id="namedview"
     guidetolerance="10"
     gridtolerance="10"
     objecttolerance="10">
    <inkscape:grid
       id="grid"
       type="xygrid" />
  </sodipodi:namedview>
  <g
     id="transform-affect-rounded-corners"
     inkscape:label="00158"
     transform="translate(-378,-527.3622)">
    <path
       transform="translate(0,512.3622)"
       style="opacity:0;fill:none"
       d="m 378,15 h 16 v 16 h -16 z"
       id="rect14108"
       inkscape:connector-curvature="0" />
    <path
       style="opacity:1"
       d="m 381.0027,532.3644 c -0.2612,0.0228 -0.4772,0.2723 -0.4527,0.5231 0.0245,0.2509 0.2849,0.4575 0.5461,0.4333 l 4.3894,0.0313 c 1.1783,0.009 1.4357,0.046 1.8652,0.4401 0.4294,0.3941 0.6535,1.0316 0.6535,2.0621 -0.004,0.2526 0.2348,0.485 0.4979,0.485 0.263,0 0.5016,-0.2324 0.4979,-0.485 0,-1.1691 -0.2739,-2.1155 -0.9647,-2.7495 -0.6908,-0.634 -1.2386,-0.6997 -2.5497,-0.7091 l -4.3895,-0.0313 c -0.0311,-0.003 -0.0623,-0.003 -0.0933,0 z"
       id="path4434"
       inkscape:connector-curvature="0" />
    <path
       inkscape:connector-curvature="0"
       id="path14884"
       d="m 383,539.3622 v 2.0201 h 2 v -2.0201 z"
       style="opacity:1" />
    <path
       inkscape:connector-curvature="0"
       id="path14888"
       d="m 387,541.3622 v -2 h 3 v -2 l 2.9883,3 -2.9883,3 v -2 z"
       style="opacity:1" />
    <path
       style="opacity:1"
       d="m 380,539.3823 v 2.0202 h 2 v -2.0202 z"
       id="path14890"
       inkscape:connector-curvature="0" />
    <path
       inkscape:connector-curvature="0"
       id="path4436-0"
       d="m 380.8124,528.3666 a 1.004385,1.004385 0 1 0 0.1875,2 h 5.5 c 1.5595,0 2.6551,0.4219 3.375,1.0937 0.7199,0.6719 1.125,1.6285 1.125,2.9063 a 1.0001,1.0001 0 1 0 2,0 c 0,-1.7222 -0.5949,-3.2969 -1.75,-4.375 -1.1551,-1.0782 -2.8095,-1.625 -4.75,-1.625 h -5.5 a 1.0001,1.0001 0 0 0 -0.1875,0 z"
       style="opacity:1" />
  </g>
</svg>
