<?xml version="1.0" encoding="UTF-8" standalone="no"?>
<svg
   xmlns:dc="http://purl.org/dc/elements/1.1/"
   xmlns:cc="http://creativecommons.org/ns#"
   xmlns:rdf="http://www.w3.org/1999/02/22-rdf-syntax-ns#"
   xmlns:svg="http://www.w3.org/2000/svg"
   xmlns="http://www.w3.org/2000/svg"
   xmlns:sodipodi="http://sodipodi.sourceforge.net/DTD/sodipodi-0.dtd"
   xmlns:inkscape="http://www.inkscape.org/namespaces/inkscape"
   inkscape:version="1.1-dev (1fceb22, 2019-12-30)"
   sodipodi:docname="zoom-original-symbolic.svg"
   viewBox="0 0 16 16"
   height="16"
   width="16"
   id="svg1"
   version="1.1">
  <metadata
     id="metadata7660">
    <rdf:RDF>
      <cc:Work
         rdf:about="">
        <dc:format>image/svg+xml</dc:format>
        <dc:type
           rdf:resource="http://purl.org/dc/dcmitype/StillImage" />
      </cc:Work>
    </rdf:RDF>
  </metadata>
  <defs
     id="defs7658" />
  <style
     id="s0">
.success { fill:#009909; }
.warning { fill:#FF1990; }
.error { fill:#00AAFF; }
</style>
  <style
     id="s2">
@import '../../highlights.css';
</style>
  <sodipodi:namedview
     inkscape:document-rotation="0"
     inkscape:current-layer="svg1"
     inkscape:window-maximized="1"
     inkscape:window-y="-8"
     inkscape:window-x="54"
     inkscape:window-height="1177"
     inkscape:window-width="1858"
     inkscape:cy="8"
     inkscape:cx="8"
     inkscape:zoom="60.1875"
     showgrid="true"
     id="namedview"
     guidetolerance="10"
     gridtolerance="10"
     objecttolerance="10">
    <inkscape:grid
       id="grid"
       type="xygrid" />
  </sodipodi:namedview>
  <g
     id="zoom-original"
     inkscape:label="00023"
     transform="translate(-75,-527.36218)">
    <path
       style="opacity:0;fill:none"
       d="m 75,527.36218 h 16 v 16 H 75 Z"
       id="rect10213"
       inkscape:connector-curvature="0" />
    <path
       inkscape:connector-curvature="0"
       style="opacity:1"
       d="m 82.5,527.3622 c -4.14213,0 -7.5,3.3371 -7.5,7.4375 0,4.1004 3.35787,7.4062 7.5,7.4062 1.47335,0 2.84092,-0.4298 4,-1.1562 l 1.96875,1.9375 c 0.51799,0.5116 1.33337,0.488 1.84375,-0.031 l 0.25,-0.25 c 0.51038,-0.5193 0.51799,-1.3634 0,-1.875 l -1.90625,-1.8438 C 89.49555,537.7882 90,536.3689 90,534.7997 c 0,-4.1004 -3.35787,-7.4375 -7.5,-7.4375 z m -4.5,4 h 1.5 0.5 v 0.5 6.5 h -1 v -6 h -1 z m 6,0 h 1.5 0.5 v 0.5 6.5 h -1 v -6 h -1 z m -2,3 h 1 v 1 h -1 z m 0,3 h 1 v 1 h -1 z"
       id="path11337" />
  </g>
</svg>
