<?xml version="1.0" encoding="UTF-8" standalone="no"?>
<svg
   xmlns:dc="http://purl.org/dc/elements/1.1/"
   xmlns:cc="http://creativecommons.org/ns#"
   xmlns:rdf="http://www.w3.org/1999/02/22-rdf-syntax-ns#"
   xmlns:svg="http://www.w3.org/2000/svg"
   xmlns="http://www.w3.org/2000/svg"
   xmlns:sodipodi="http://sodipodi.sourceforge.net/DTD/sodipodi-0.dtd"
   xmlns:inkscape="http://www.inkscape.org/namespaces/inkscape"
   version="1.1"
   id="svg1"
   width="16"
   height="16"
   viewBox="0 0 16 16"
   sodipodi:docname="zoom-next-symbolic.svg"
   inkscape:version="1.1-dev (1fceb22, 2019-12-30)">
  <metadata
     id="metadata6957">
    <rdf:RDF>
      <cc:Work
         rdf:about="">
        <dc:format>image/svg+xml</dc:format>
        <dc:type
           rdf:resource="http://purl.org/dc/dcmitype/StillImage" />
      </cc:Work>
    </rdf:RDF>
  </metadata>
  <defs
     id="defs6955" />
  <style
     id="s0">
.success { fill:#009909; }
.warning { fill:#FF1990; }
.error { fill:#00AAFF; }
</style>
  <style
     id="s2">
@import '../../highlights.css';
</style>
  <sodipodi:namedview
     objecttolerance="10"
     gridtolerance="10"
     guidetolerance="10"
     id="namedview"
     showgrid="true"
     inkscape:zoom="60.1875"
     inkscape:cx="8"
     inkscape:cy="8"
     inkscape:window-width="1858"
     inkscape:window-height="1177"
     inkscape:window-x="54"
     inkscape:window-y="-8"
     inkscape:window-maximized="1"
     inkscape:current-layer="svg1"
     inkscape:document-rotation="0">
    <inkscape:grid
       type="xygrid"
       id="grid" />
  </sodipodi:namedview>
  <g
     transform="translate(-75,-667.36218)"
     inkscape:label="00030"
     id="zoom-next">
    <path
       inkscape:connector-curvature="0"
       id="rect11673"
       d="m 75,667.36218 h 16 v 16 H 75 Z"
       style="opacity:0;fill:none" />
    <path
       sodipodi:nodetypes="sssccccccssccccccccc"
       inkscape:connector-curvature="0"
       id="path11677"
       d="m 82.5,667.3622 c -4.14213,0 -7.5,3.3371 -7.5,7.4375 0,4.1004 3.35787,7.4062 7.5,7.4062 1.47335,0 2.84092,-0.4297 4,-1.1562 l 1.96875,1.9375 c 0.51799,0.5116 1.33337,0.4882 1.84375,-0.031 l 0.25,-0.25 c 0.51038,-0.5192 0.51799,-1.3634 0,-1.875 l -1.90625,-1.844 C 89.49555,677.7882 90,676.3689 90,674.7997 c 0,-4.1004 -3.35787,-7.4375 -7.5,-7.4375 z m -3.5,2.99998 6,4 v -3 h 1 v 6 h -1 v -3 l -6,4 z"
       style="opacity:1" />
  </g>
</svg>
