<?xml version="1.0" encoding="UTF-8" standalone="no"?>
<!-- Created with Inkscape (http://www.inkscape.org/) and export_objects.py -->

<svg
   xmlns:dc="http://purl.org/dc/elements/1.1/"
   xmlns:cc="http://creativecommons.org/ns#"
   xmlns:rdf="http://www.w3.org/1999/02/22-rdf-syntax-ns#"
   xmlns:svg="http://www.w3.org/2000/svg"
   xmlns="http://www.w3.org/2000/svg"
   xmlns:xlink="http://www.w3.org/1999/xlink"
   xmlns:sodipodi="http://sodipodi.sourceforge.net/DTD/sodipodi-0.dtd"
   xmlns:inkscape="http://www.inkscape.org/namespaces/inkscape"
   version="1.1"
   id="svg1"
   width="16"
   height="16"
   viewBox="0 0 16 16"
   sodipodi:docname="align-on-canvas.svg"
   inkscape:version="0.92.4 (unknown)">
  <defs
     id="defs10">
    <linearGradient
       y2="214.5512"
       y1="218.8883"
       xlink:href="#linearGradient5740"
       x2="17.15024"
       x1="18.50864"
       inkscape:collect="always"
       id="linearGradient5551"
       gradientUnits="userSpaceOnUse"
       gradientTransform="matrix(2.026443,0,0,1.557511,-54.13118,-158.6166)" />
    <linearGradient
       y2="209.2774"
       y1="203.3658"
       xlink:href="#linearGradient5704"
       x2="14.01084"
       x1="10.04167"
       inkscape:collect="always"
       id="linearGradient5549"
       gradientUnits="userSpaceOnUse"
       gradientTransform="matrix(2.114324,0,0,1.002646,-47.33758,-30.1841)" />
    <linearGradient
       id="linearGradient5704">
      <stop
         style="stop-color:#5a5a5a;stop-opacity:1"
         offset="0"
         id="stop5706" />
      <stop
         style="stop-color:#000000;stop-opacity:1"
         offset="1"
         id="stop5708" />
    </linearGradient>
    <linearGradient
       id="linearGradient5740">
      <stop
         style="stop-color:#ffffff;stop-opacity:1"
         offset="0"
         id="stop5742" />
      <stop
         style="stop-color:#98b6d3;stop-opacity:1"
         offset="1"
         id="stop5744" />
    </linearGradient>
    <linearGradient
       y2="219.4184"
       y1="213.872"
       xlink:href="#linearGradient5740"
       x2="19.38252"
       x1="15.74156"
       inkscape:collect="always"
       id="linearGradient5553"
       gradientUnits="userSpaceOnUse"
       gradientTransform="matrix(1.525151,0,0,0.933201,-44.88385,-23.1282)" />
  </defs>
  <sodipodi:namedview
     objecttolerance="10"
     gridtolerance="10"
     guidetolerance="10"
     id="namedview"
     showgrid="true"
     inkscape:zoom="27.166187"
     inkscape:cx="-1.3875431"
     inkscape:cy="8.9906751"
     inkscape:window-x="0"
     inkscape:window-y="27"
     inkscape:current-layer="layercompo">
    <inkscape:grid
       type="xygrid"
       id="grid" />
  </sodipodi:namedview>
  <metadata
     id="metadata1906">
    <rdf:RDF>
      <cc:Work
         rdf:about="">
        <dc:format>image/svg+xml</dc:format>
        <dc:type
           rdf:resource="http://purl.org/dc/dcmitype/StillImage" />
        <cc:license
           rdf:resource="http://creativecommons.org/publicdomain/zero/1.0/" />
        <dc:title>LiveEffect Icons proposal</dc:title>
        <dc:date>13 Jan 2019</dc:date>
        <dc:creator>
          <cc:Agent>
            <dc:title>Ramón Miranda</dc:title>
          </cc:Agent>
        </dc:creator>
        <dc:rights>
          <cc:Agent>
            <dc:title>see the license tab</dc:title>
          </cc:Agent>
        </dc:rights>
        <dc:subject>
          <rdf:Bag>
            <rdf:li>icon ui</rdf:li>
          </rdf:Bag>
        </dc:subject>
        <dc:description>This is a contribution with Inkscape Project from
Ramon Miranda www.ramonmiranda.com (design and SVG file)
Jabiertxo (SVG stuff to integrate them in UI)</dc:description>
        <dc:publisher>
          <cc:Agent>
            <dc:title />
          </cc:Agent>
        </dc:publisher>
        <dc:identifier />
        <dc:source />
        <dc:relation />
        <dc:language>-</dc:language>
        <dc:coverage />
        <dc:contributor>
          <cc:Agent>
            <dc:title>Ramon Miranda
Jabier Arraiza</dc:title>
          </cc:Agent>
        </dc:contributor>
      </cc:Work>
      <cc:License
         rdf:about="http://creativecommons.org/publicdomain/zero/1.0/">
        <cc:permits
           rdf:resource="http://creativecommons.org/ns#Reproduction" />
        <cc:permits
           rdf:resource="http://creativecommons.org/ns#Distribution" />
        <cc:permits
           rdf:resource="http://creativecommons.org/ns#DerivativeWorks" />
      </cc:License>
    </rdf:RDF>
  </metadata>
  <g
     inkscape:groupmode="layer"
     id="layercompo"
     inkscape:label="dashed-stroke">
    <path
       id="rect22048"
       d="M 0,0 H 16 V 16 H 0 Z"
       style="opacity:0;fill:none" />
    <path
       inkscape:connector-curvature="0"
       d="M 1.0390625 1.078125 L 1.0390625 1.6367188 L 1.0390625 3.0546875 L 2.1542969 3.0546875 L 2.1542969 2.1933594 L 3.0253906 2.1933594 L 3.0253906 1.078125 L 1.0390625 1.078125 z M 4.4550781 1.078125 L 4.4550781 2.1933594 L 5.8828125 2.1933594 L 5.8828125 1.078125 L 4.4550781 1.078125 z M 7.3125 1.078125 L 7.3125 2.1933594 L 8.7402344 2.1933594 L 8.7402344 1.078125 L 7.3125 1.078125 z M 10.169922 1.078125 L 10.169922 2.1933594 L 11.599609 2.1933594 L 11.599609 1.078125 L 10.169922 1.078125 z M 13.027344 1.078125 L 13.027344 2.1933594 L 13.898438 2.1933594 L 13.898438 3.0546875 L 15.013672 3.0546875 L 15.013672 1.078125 L 13.027344 1.078125 z M 1.0390625 4.4726562 L 1.0390625 5.890625 L 2.1542969 5.890625 L 2.1542969 4.4726562 L 1.0390625 4.4726562 z M 13.898438 4.4726562 L 13.898438 5.890625 L 15.013672 5.890625 L 15.013672 4.4726562 L 13.898438 4.4726562 z M 1.0390625 7.3105469 L 1.0390625 8.7285156 L 2.1542969 8.7285156 L 2.1542969 7.3105469 L 1.0390625 7.3105469 z M 13.898438 7.3105469 L 13.898438 8.7285156 L 15.013672 8.7285156 L 15.013672 7.3105469 L 13.898438 7.3105469 z M 1.0390625 10.146484 L 1.0390625 11.564453 L 2.1542969 11.564453 L 2.1542969 10.146484 L 1.0390625 10.146484 z M 13.898438 10.146484 L 13.898438 11.564453 L 15.013672 11.564453 L 15.013672 10.146484 L 13.898438 10.146484 z M 1.0390625 12.982422 L 1.0390625 14.958984 L 3.0253906 14.958984 L 3.0253906 13.84375 L 2.1542969 13.84375 L 2.1542969 12.982422 L 1.0390625 12.982422 z M 13.898438 12.982422 L 13.898438 13.84375 L 13.027344 13.84375 L 13.027344 14.958984 L 15.013672 14.958984 L 15.013672 12.982422 L 13.898438 12.982422 z M 4.4550781 13.84375 L 4.4550781 14.958984 L 5.8828125 14.958984 L 5.8828125 13.84375 L 4.4550781 13.84375 z M 7.3125 13.84375 L 7.3125 14.958984 L 8.7402344 14.958984 L 8.7402344 13.84375 L 7.3125 13.84375 z M 10.169922 13.84375 L 10.169922 14.958984 L 11.599609 14.958984 L 11.599609 13.84375 L 10.169922 13.84375 z"
       style="opacity:1"
       id="path6" />
    <g
       id="use5032"
       transform="matrix(0.414065,0,0,0.8557123,14.899868,-145.49588)">
      <rect
         height="7.017632"
         id="rect4895"
         style="color:#000000;fill:none;stroke:url(#linearGradient5549);stroke-width:1.67997444;stroke-linejoin:round;stroke-miterlimit:0"
         width="16.911819"
         x="-25.11964"
         y="175.86909" />
      <rect
         height="4.678422"
         id="rect4897"
         style="color:#000000;fill:url(#linearGradient5551);fill-rule:evenodd;stroke:url(#linearGradient5553);stroke-width:1.6799736;stroke-linecap:round;stroke-linejoin:round;stroke-miterlimit:0"
         width="12.16012"
         x="-22.70454"
         y="177.0416" />
    </g>
  </g>
</svg>
