<?xml version="1.0" encoding="UTF-8" standalone="no"?>
<svg
   xmlns:dc="http://purl.org/dc/elements/1.1/"
   xmlns:cc="http://web.resource.org/cc/"
   xmlns:rdf="http://www.w3.org/1999/02/22-rdf-syntax-ns#"
   xmlns:svg="http://www.w3.org/2000/svg"
   xmlns="http://www.w3.org/2000/svg"
   xmlns:xlink="http://www.w3.org/1999/xlink"
   xmlns:sodipodi="http://inkscape.sourceforge.net/DTD/sodipodi-0.dtd"
   xmlns:inkscape="http://www.inkscape.org/namespaces/inkscape"
   id="svg1"
   width="24"
   height="23.999999"
  >
  <sodipodi:namedview
     id="base"
     showgrid="true"
     gridspacingy="1pt"
     gridspacingx="1pt"
     gridoriginy="0pt"
     gridoriginx="0pt"
  />
  <defs id="defs3">

    <linearGradient id="linearGradient5204">
      <stop id="stop5206" offset="0" style="stop-color:#4e6e90;stop-opacity:1"/>
      <stop id="stop5208" offset="1" style="stop-color:#000000;stop-opacity:1"/>
    </linearGradient>
    <linearGradient gradientUnits="userSpaceOnUse" id="linearGradient5555" inkscape:collect="always" x1="13.47978" x2="17.62963" xlink:href="#linearGradient5204" y1="86.26574" y2="92.00739"/>
  </defs>
<g id="align-horizontal-baseline" inkscape:label="#al_baselines_vert" transform="matrix(-1,0,0,0.997921,-4.80300000000011,-80.518053)">
  <path d="M -27.45876,175.5271 -27.45876,198.5722" id="use5262" inkscape:connector-curvature="0" sodipodi:nodetypes="cc" style="fill:none;stroke:#c80000;stroke-width:1.0009989;stroke-linecap:square" transform="matrix(-1,0,0,1.000085,-38.76176,-94.35424)"/>
  <rect height="24" id="rect2758" style="fill:none" transform="matrix(0,1,1,0,0,0)" width="24.05" x="80.6858" y="-28.803"/>
  <path d="M -11.9668,90.11223 C -12.7455,89.43522 -14.0693,89.67792 -14.6597,90.46077 -15.6351,91.64638 -15.9172,93.16305 -16.2761,94.58222 -16.5423,95.79253 -16.7095,97.02162 -16.7771,98.2554 -17.5654,96.69517 -18.4736,95.01934 -18.4901,93.26239 -18.5119,92.37434 -17.9777,91.62159 -17.6209,90.83626 -17.3262,90.17803 -18.1376,89.4931 -18.8334,89.70428 -19.6856,89.87006 -19.8276,90.81043 -19.803,91.48473 -19.7134,93.49021 -18.8909,95.4594 -18.0586,97.29225 -16.8791,99.71268 -15.1908,101.9573 -12.9826,103.6604 -12.1142,104.2845 -9.9179,105.0083 -8.8334,104.6324 -6.8334,103.6372 -6.8334,101.6468 -8.8334,101.6468 -9.552,101.3227 -11.3725,102.8907 -12.1086,102.866 -13.3235,102.857 -14.1896,101.8146 -14.5175,100.8217 -14.8507,99.50814 -14.5389,98.151 -14.3331,96.84131 -13.9978,95.13877 -13.6205,93.40174 -12.7366,91.86153 -12.5558,91.26334 -11.1394,90.90781 -11.9668,90.11223 Z" id="text3357" inkscape:connector-curvature="0" sodipodi:nodetypes="cccccsccccccccccc" style="fill:#000000"/>
  <path d="M 15.59046,88.20062 C 15.05718,88.20062 14.65483,88.29109 14.38344,88.47202 14.11679,88.65296 13.98347,88.9196 13.98347,89.27194 13.98347,89.59572 14.0906,89.85046 14.30487,90.03615 14.5239,90.21709 14.82625,90.30756 15.21193,90.30756 15.69283,90.30756 16.09755,90.13615 16.4261,89.79332 16.75463,89.44574 16.9189,89.01245 16.91891,88.49345 L 16.91891,88.20062 15.59047,88.20062 M 19.49723,87.23643 19.49723,91.80027 16.91891,91.80027 16.91891,90.61467 C 16.57608,91.10034 16.1904,91.45507 15.76188,91.67885 15.33334,91.89788 14.81196,92.00739 14.19774,92.00739 13.36925,92.00739 12.6955,91.76694 12.17651,91.28603 11.66227,90.80037 11.40515,90.17186 11.40515,89.4005 11.40515,88.4625 11.72655,87.77447 12.36934,87.33641 13.0169,86.89837 14.03109,86.67934 15.41191,86.67933 L 16.91891,86.67933 16.91891,86.47935 C 16.9189,86.07464 16.75939,85.77943 16.44038,85.59372 16.12136,85.40327 15.62379,85.30804 14.94767,85.30804 14.4001,85.30804 13.89062,85.3628 13.41924,85.47231 12.94786,85.58183 12.50981,85.7461 12.10508,85.96512 L 12.10508,84.01531 C 12.65265,83.88199 13.2026,83.782 13.75493,83.71533 14.30725,83.64392 14.85958,83.60821 15.41191,83.6082 16.85462,83.60821 17.895,83.8939 18.53304,84.46526 19.17582,85.03188 19.49722,85.9556 19.49723,87.23642" id="text5563" inkscape:connector-curvature="0" style="fill:url(#linearGradient5555)" transform="scale(-1.036041,0.965213)"/>
</g>

</svg>
