<?xml version="1.0" encoding="UTF-8" standalone="no"?>
<svg
   xmlns:dc="http://purl.org/dc/elements/1.1/"
   xmlns:cc="http://web.resource.org/cc/"
   xmlns:rdf="http://www.w3.org/1999/02/22-rdf-syntax-ns#"
   xmlns:svg="http://www.w3.org/2000/svg"
   xmlns="http://www.w3.org/2000/svg"
   xmlns:xlink="http://www.w3.org/1999/xlink"
   xmlns:sodipodi="http://inkscape.sourceforge.net/DTD/sodipodi-0.dtd"
   xmlns:inkscape="http://www.inkscape.org/namespaces/inkscape"
   id="svg1"
   width="24"
   height="24.005181"
  >
  <sodipodi:namedview
     id="base"
     showgrid="true"
     gridspacingy="1pt"
     gridspacingx="1pt"
     gridoriginy="0pt"
     gridoriginx="0pt"
  />
  <defs id="defs3">

  </defs>
<g id="align-vertical-node" inkscape:label="#node_halign" transform="translate(-1174.997,-139.9972)">
  <path d="M 1175.498,152.4972 1198.497,152.4972 1198.497,152.4972" id="path5318" inkscape:connector-curvature="0" style="fill:none;stroke:#c80000;stroke-width:1.0000004;stroke-linecap:square"/>
  <rect height="16" id="rect5320" style="color:#000000;fill:none" transform="rotate(-90)" width="16" x="-163.9971" y="1180.497"/>
  <path d="M 1175.497,163.4972 C 1178.997,160.4972 1177.096,144.5219 1182.997,145.9972 1186.997,146.9972 1183.997,162.9972 1191.497,163.4972 1196.985,163.863 1193.997,146.4972 1197.997,140.4972" id="path5322" inkscape:connector-curvature="0" sodipodi:nodetypes="cssc" style="fill:none;stroke:#969696;stroke-width:1.0000004;stroke-linecap:round;stroke-linejoin:round;stroke-miterlimit:0"/>
  <rect height="4.007167" id="use5452" style="color:#000000;fill:#8ab3de;fill-rule:evenodd;stroke:#0000ff;stroke-width:0.9999997;stroke-linecap:round;stroke-linejoin:round;stroke-miterlimit:0" transform="matrix(1,0,0,1,-7.9782,9.009087)" width="4.066208" x="1184.5" y="141.5"/>
  <rect height="4.007167" id="use5455" style="color:#000000;fill:#8ab3de;fill-rule:evenodd;stroke:#0000ff;stroke-width:0.9999997;stroke-linecap:round;stroke-linejoin:round;stroke-miterlimit:0" transform="matrix(1,0,0,1,-0.9782,9.001915)" width="4.066208" x="1184.5" y="141.5"/>
  <rect height="4.007167" id="use5457" style="color:#000000;fill:#8ab3de;fill-rule:evenodd;stroke:#0000ff;stroke-width:0.9999997;stroke-linecap:round;stroke-linejoin:round;stroke-miterlimit:0" transform="matrix(1,0,0,1,8.955592,9.001915)" width="4.066208" x="1184.5" y="141.5"/>
</g>

</svg>
