<?xml version="1.0" encoding="UTF-8" standalone="no"?>
<svg
   xmlns:dc="http://purl.org/dc/elements/1.1/"
   xmlns:cc="http://web.resource.org/cc/"
   xmlns:rdf="http://www.w3.org/1999/02/22-rdf-syntax-ns#"
   xmlns:svg="http://www.w3.org/2000/svg"
   xmlns="http://www.w3.org/2000/svg"
   xmlns:xlink="http://www.w3.org/1999/xlink"
   xmlns:sodipodi="http://inkscape.sourceforge.net/DTD/sodipodi-0.dtd"
   xmlns:inkscape="http://www.inkscape.org/namespaces/inkscape"
   id="svg1"
   width="15.6719"
   height="15.6735"
  >
  <sodipodi:namedview
     id="base"
     showgrid="true"
     gridspacingy="1pt"
     gridspacingx="1pt"
     gridoriginy="0pt"
     gridoriginx="0pt"
  />
  <defs id="defs3">

  </defs>
<g id="bitmap-trace" inkscape:label="#selection_trace" style="stroke:#000000;stroke-width:0.7" transform="translate(-305.15,-114.1777)">
  <path d="M 308.4986,119.5635 305.5,119.5268 305.5,129.5012 315.5,129.5012 315.5,126.731 M 308.4348,121.3144 307.5,121.3144 307.5,127.5261 313.6875,127.5261 313.6875,126.586 M 318.4395,120.5036 C 318.4395,122.6793 316.6746,124.4452 314.5,124.4452 312.3255,124.4452 310.5606,122.6793 310.5606,120.5036 310.5606,118.3277 312.3255,116.5619 314.5,116.5619 316.6746,116.5619 318.4395,118.3277 318.4395,120.5036 Z M 320.4719,120.4996 C 320.4719,123.796 317.7965,126.4715 314.5,126.4715 311.2035,126.4715 308.5281,123.796 308.5281,120.4996 308.5281,117.2031 311.2035,114.5277 314.5,114.5277 317.7965,114.5277 320.4719,117.2031 320.4719,120.4996 Z" id="rect11025" inkscape:connector-curvature="0" style="color:#000000;fill:none;stroke-linecap:round;stroke-linejoin:round"/>
</g>

</svg>
