<?xml version="1.0" encoding="UTF-8" standalone="no"?>
<svg
   xmlns:dc="http://purl.org/dc/elements/1.1/"
   xmlns:cc="http://web.resource.org/cc/"
   xmlns:rdf="http://www.w3.org/1999/02/22-rdf-syntax-ns#"
   xmlns:svg="http://www.w3.org/2000/svg"
   xmlns="http://www.w3.org/2000/svg"
   xmlns:xlink="http://www.w3.org/1999/xlink"
   xmlns:sodipodi="http://inkscape.sourceforge.net/DTD/sodipodi-0.dtd"
   xmlns:inkscape="http://www.inkscape.org/namespaces/inkscape"
   id="svg1"
   width="24.022644"
   height="24.013225"
  >
  <sodipodi:namedview
     id="base"
     showgrid="true"
     gridspacingy="1pt"
     gridspacingx="1pt"
     gridoriginy="0pt"
     gridoriginx="0pt"
  />
  <defs id="defs3">

    <linearGradient gradientTransform="translate(1,-1.24044)" gradientUnits="userSpaceOnUse" id="linearGradient5670" inkscape:collect="always" x1="19.57576" x2="21.9317" xlink:href="#linearGradient5704" y1="167.0667" y2="169.5792"/>
    <linearGradient gradientTransform="matrix(1,0,0,0.973548,1.5,3.761392)" gradientUnits="userSpaceOnUse" id="linearGradient4360" inkscape:collect="always" x1="14.01976" x2="15.84741" xlink:href="#linearGradient5704" y1="174.9419" y2="178.0223"/>
    <linearGradient gradientTransform="matrix(1,0,0,0.973548,1.5,3.761392)" gradientUnits="userSpaceOnUse" id="linearGradient4369" inkscape:collect="always" x1="15" x2="13.84897" xlink:href="#linearGradient5734" y1="177.4415" y2="175.9469"/>
    <linearGradient gradientTransform="translate(1.863401,-1.999999)" gradientUnits="userSpaceOnUse" id="linearGradient3628" inkscape:collect="always" x1="22.45293" x2="23.61528" xlink:href="#linearGradient5734" y1="170.3782" y2="164.9546"/>
    <linearGradient gradientUnits="userSpaceOnUse" id="WhiteTransparent">
      <stop id="stop7" offset="0" style="stop-color:white;stop-opacity:1"/>
      <stop id="stop9" offset="1" style="stop-color:white;stop-opacity:0"/>
    </linearGradient>
    <linearGradient id="linearGradient5704">
      <stop id="stop5706" offset="0" style="stop-color:#5a5a5a;stop-opacity:1"/>
      <stop id="stop5708" offset="1" style="stop-color:#000000;stop-opacity:1"/>
    </linearGradient>
    <linearGradient id="linearGradient5734">
      <stop id="stop5736" offset="0" style="stop-color:#8ab3df;stop-opacity:1"/>
      <stop id="stop5738" offset="1" style="stop-color:#ffffff"/>
    </linearGradient>
    <linearGradient gradientTransform="translate(41.8634,-175.7596)" gradientUnits="userSpaceOnUse" id="linearGradient4349" inkscape:collect="always" x1="-13.05958" x2="-10.52821" xlink:href="#WhiteTransparent" y1="332.0769" y2="335.0308"/>
  </defs>
<g id="color-picker" inkscape:label="#draw_dropper" transform="translate(-11,-155)">
  <path d="M 28.8634,163 21,171 18,173 17,172 19,169 26.8634,161 28.8634,163 Z" id="path3620" inkscape:connector-curvature="0" sodipodi:nodetypes="ccccccc" style="fill:url(#linearGradient3628);fill-rule:evenodd;stroke:url(#linearGradient5670);stroke-width:1px;stroke-linecap:round;stroke-linejoin:round"/>
  <rect height="24" id="rect3581" style="color:#000000;fill:none" width="24" x="11" y="155"/>
  <path d="M 17.15103,173.5 C 17.15103,173.5 15,175.1058 15,177.0529 15,179 18,179 18,177.0529 18,175.1058 17.15103,173.5 17.15103,173.5 Z" id="path4352" inkscape:connector-curvature="0" sodipodi:nodetypes="czzc" style="fill:url(#linearGradient4369);fill-rule:evenodd;stroke:url(#linearGradient4360);stroke-width:1.0000001px;stroke-linecap:round;stroke-linejoin:round"/>
  <path d="M 20,169 27,162" id="path4372" inkscape:connector-curvature="0" sodipodi:nodetypes="cc" style="fill:none;stroke:#ffffff;stroke-width:0.6;stroke-linecap:round"/>
  <path d="M 25,160 30,165 31,164 29.5,162.5 C 33,162 35.8634,158.2404 33.8634,156.2404 31.8634,154.2404 28,157 27.5,160.5 L 26,159 25,160 Z" id="path3583" inkscape:connector-curvature="0" sodipodi:nodetypes="ccccsccc" style="fill:#000000;fill-rule:evenodd;stroke:#000000;stroke-width:1px;stroke-linecap:round;stroke-linejoin:round"/>
  <path d="M 28,160 C 27.59361,159.7968 28.15657,158.2324 29.5,157 31.33949,155.3154 32.83144,155.8288 32.8634,156.2404 33,158 30,161 28,160 Z" id="path4341" inkscape:connector-curvature="0" sodipodi:nodetypes="csss" style="fill:url(#linearGradient4349);fill-rule:evenodd"/>
</g>

</svg>
