<?xml version="1.0" encoding="UTF-8" standalone="no"?>
<svg
   xmlns:dc="http://purl.org/dc/elements/1.1/"
   xmlns:cc="http://web.resource.org/cc/"
   xmlns:rdf="http://www.w3.org/1999/02/22-rdf-syntax-ns#"
   xmlns:svg="http://www.w3.org/2000/svg"
   xmlns="http://www.w3.org/2000/svg"
   xmlns:xlink="http://www.w3.org/1999/xlink"
   xmlns:sodipodi="http://inkscape.sourceforge.net/DTD/sodipodi-0.dtd"
   xmlns:inkscape="http://www.inkscape.org/namespaces/inkscape"
   id="svg1"
   width="15.994798"
   height="16"
  >
  <sodipodi:namedview
     id="base"
     showgrid="true"
     gridspacingy="1pt"
     gridspacingx="1pt"
     gridoriginy="0pt"
     gridoriginx="0pt"
  />
  <defs id="defs3">

    <linearGradient gradientTransform="matrix(1.165669,0,0,2.325584,313.3867,-379.6724)" gradientUnits="userSpaceOnUse" id="linearGradient10436" inkscape:collect="always" x1="17.48326" x2="20.98923" xlink:href="#linearGradient6684" y1="215.0097" y2="218.8156"/>
    <linearGradient gradientTransform="rotate(-45,340.6656,118.1192)" gradientUnits="userSpaceOnUse" id="linearGradient11021" inkscape:collect="always" x1="337.1166" x2="338.0838" xlink:href="#linearGradient2485" y1="117.2489" y2="126.5225"/>
    <linearGradient id="linearGradient6684">
      <stop id="stop6686" offset="0" style="stop-color:#ffbf00;stop-opacity:1"/>
      <stop id="stop6688" offset="1" style="stop-color:#ffffff;stop-opacity:1"/>
    </linearGradient>
    <linearGradient gradientTransform="matrix(1.124777,0,0,1.798127,314.1438,-265.2068)" gradientUnits="userSpaceOnUse" id="linearGradient10434" inkscape:collect="always" x1="15.15684" x2="22.04275" xlink:href="#linearGradient5704" y1="214.0084" y2="218.3974"/>
    <linearGradient id="linearGradient2485">
      <stop id="stop2486" offset="0" style="stop-color:#ffffff;stop-opacity:1"/>
      <stop id="stop2487" offset="1" style="stop-color:#aaaaaa;stop-opacity:1"/>
    </linearGradient>
    <linearGradient gradientTransform="translate(7)" gradientUnits="userSpaceOnUse" id="linearGradient10450" inkscape:collect="always" x1="332.8779" x2="336.8484" xlink:href="#linearGradient5704" y1="121.9937" y2="124.1941"/>
    <linearGradient id="linearGradient5704">
      <stop id="stop5706" offset="0" style="stop-color:#5a5a5a;stop-opacity:1"/>
      <stop id="stop5708" offset="1" style="stop-color:#000000;stop-opacity:1"/>
    </linearGradient>
    <linearGradient gradientTransform="matrix(0.87731,0,0,1.393407,318.7061,-177.3687)" gradientUnits="userSpaceOnUse" id="linearGradient10438" inkscape:collect="always" x1="19.08596" x2="16.10928" xlink:href="#linearGradient6684" y1="219.6944" y2="214.3821"/>
  </defs>
<g id="dialog-object-properties" inkscape:label="#dialog_item_properties" transform="translate(-329.9642,-114.9992)">
  <rect height="8.992967" id="rect10430" style="color:#000000;fill:none;stroke:url(#linearGradient10434);stroke-width:1.0000006;stroke-linejoin:round;stroke-miterlimit:0" width="8.996735" x="330.4642" y="120.5063"/>
  <rect height="6.985559" id="rect10432" style="color:#000000;fill:url(#linearGradient10436);fill-rule:evenodd;stroke:url(#linearGradient10438);stroke-width:1.0000006;stroke-linecap:round;stroke-linejoin:round;stroke-miterlimit:0" width="6.994853" x="331.4641" y="121.5137"/>
  <path d="M 343.459,125.4992 C 344.959,125.4992 345.459,126.4992 345.459,127.4992 L 345.459,129.9992 344.459,130.4992 343.459,130.4992 343.459,128.4992 339.459,128.4992 339.459,130.4992 338.459,130.4992 337.459,129.9992 337.459,127.4992 C 337.459,126.4992 337.959,125.4992 339.459,125.4992 L 339.459,120.4992 C 337.959,120.4992 337.459,119.4992 337.459,118.4992 L 337.459,115.9992 338.459,115.4992 339.459,115.4992 339.459,117.4992 343.459,117.4992 343.459,115.4992 344.459,115.4992 345.459,115.9992 345.459,118.4992 C 345.459,118.9992 344.959,120.4992 343.459,120.4992 L 343.459,125.4992 Z" id="path11005" inkscape:connector-curvature="0" sodipodi:nodetypes="cccccccccccccsccccccccscc" style="fill:url(#linearGradient11021);fill-rule:evenodd;stroke:url(#linearGradient10450);stroke-width:1.0000004px;stroke-linecap:round;stroke-linejoin:round"/>
  <path d="M 340.459,120.4992 340.459,124.4992" id="path10442" inkscape:connector-curvature="0" sodipodi:nodetypes="cc" style="fill:none;stroke:#ffffff;stroke-width:1px;stroke-linecap:round"/>
  <path d="M 342.959,120.4992 341.959,120.4992" id="path10455" inkscape:connector-curvature="0" style="fill:#646464;fill-opacity:0.75;fill-rule:evenodd;stroke:#646464;stroke-width:1px"/>
  <path d="M 342.959,120.4992 341.959,120.4992" id="use10459" inkscape:connector-curvature="0" style="fill:#646464;fill-opacity:0.75;fill-rule:evenodd;stroke:#646464;stroke-width:1px" transform="matrix(1,0,0,1,0,5)"/>
  <path d="M 340.459,126.4992 C 338.459,126.4992 338.459,126.4992 338.459,129.4992" id="path10463" inkscape:connector-curvature="0" sodipodi:nodetypes="cc" style="fill:none;stroke:#ffffff;stroke-width:1px;stroke-linecap:round"/>
</g>

</svg>
