<?xml version="1.0" encoding="UTF-8" standalone="no"?>
<svg
   xmlns="http://www.w3.org/2000/svg"
   xmlns:xlink="http://www.w3.org/1999/xlink"
   xmlns:inkscape="http://www.inkscape.org/namespaces/inkscape"
   width="24"
   height="24"
  >

  <g id="distribute-vertical-baseline" inkscape:label="#distribute_baselines_vert">

    <!-- Lines -->
    <g style="fill:none;stroke:#c80000">
      <path d="m  0,23.5 24,0"/>
      <path d="m  0, 9.5 24,0"/>
    </g>

    <!-- Arrow -->
    <path d="m 2.5,23 -2.5,-3 h 2 v -7 h -2 l 2.5,-3 2.5,3 h -2 v 7 h 2 z"/>

    <!-- Letters -->
    <path d="m 17.1,19.5 c -0.55,0 -0.97,0.1 -1.25,0.3 -0.28,0.2 -0.41,0.4 -0.41,0.8 0,0.3 0.11,0.5 0.33,0.7 0.23,0.2 0.54,0.3 0.94,0.3 0.5,0 0.92,-0.2 1.26,-0.5 0.34,-0.4 0.51,-0.8 0.51,-1.3 v -0.3 z m 4.05,3.5 h -2.67 v -1.2 c -0.36,0.5 -0.76,0.9 -1.2,1.1 -0.44,0.2 -0.98,0.3 -1.62,0.3 -0.86,0 -1.56,-0.2 -2.1,-0.7 -0.53,-0.5 -0.794,-1.1 -0.794,-1.8 0,-0.9 0.334,-1.6 0.994,-2 0.68,-0.4 1.73,-0.6 3.16,-0.6 h 1.56 v -0.2 c 0,-0.4 -0.17,-0.7 -0.5,-0.9 -0.33,-0.2 -0.84,-0.3 -1.54,-0.3 -0.57,0 -1.1,0 -1.59,0.2 -0.49,0.1 -0.94,0.3 -1.36,0.5 v -1.91 c 0.57,-0.13 1.14,-0.22 1.71,-0.29 0.57,-0.1 1.14,-0.1 1.72,-0.1 1.49,0 2.57,0.27 3.23,0.82 0.67,0.58 1,1.48 1,2.68 z" style="fill:#4e6e90"/>

    <path d="m 11.7,0.5 c 0.8,-0.68 2.1,-0.44 2.7,0.34 1,1.19 1.2,2.75 1.6,4.15 0.3,1.2 0.4,2.4 0.5,3.6 0.8,-1.5 1.7,-3.2 1.7,-4.9 0,-0.9 -0.5,-1.69 -0.9,-2.47 -0.3,-0.66 0.6,-1.34 1.3,-1.13 0.8,0.16 0.9,1.1 0.9,1.78 -0.1,2.02 -0.9,3.92 -1.7,5.82 -1.2,2.4 -2.9,4.6 -5.1,6.3 -0.9,0.6 -3.1,1.4 -4.1,1 -2.05,-1 -2.05,-3 0,-3 0.7,-0.3 2.5,1.3 3.2,1.2 1.2,0 2.1,-1 2.4,-2 0.4,-1.3 0.1,-2.7 -0.1,-4 -0.4,-1.7 -0.8,-3.4 -1.6,-4.95 -0.2,-0.59 -1.6,-0.95 -0.8,-1.74 z"/>

  </g>

</svg>
