<?xml version="1.0" encoding="UTF-8" standalone="no"?>
<svg
   xmlns="http://www.w3.org/2000/svg"
   xmlns:xlink="http://www.w3.org/1999/xlink"
   xmlns:inkscape="http://www.inkscape.org/namespaces/inkscape"
   width="24"
   height="24"
  >

  <defs>

    <linearGradient id="gradientVector">
      <stop offset="0" style="stop-color:#ffffff"/>
      <stop offset="1" style="stop-color:#98b6d3"/>
    </linearGradient>

    <linearGradient gradientUnits="userSpaceOnUse" id="gradientFill1"    x1="2" x2="-2" xlink:href="#gradientVector" y1="1" y2="-1"/>
    <linearGradient gradientUnits="userSpaceOnUse" id="gradientStroke1"  x1="-3" x2="3" xlink:href="#gradientVector" y1="-1" y2="1"/>

    <linearGradient gradientUnits="userSpaceOnUse" id="gradientFill2"    x1="2" x2="-2" xlink:href="#gradientVector" y1="1" y2="-1"/>
    <linearGradient gradientUnits="userSpaceOnUse" id="gradientStroke2"  x1="-3" x2="3" xlink:href="#gradientVector" y1="-1" y2="1"/>

    <linearGradient gradientUnits="userSpaceOnUse" id="gradientFill3"    x1="1" x2="-1" xlink:href="#gradientVector" y1="1" y2="-1"/>
    <linearGradient gradientUnits="userSpaceOnUse" id="gradientStroke3"  x1="-2" x2="2" xlink:href="#gradientVector" y1="-1" y2="1"/>

    <g id="TheRect1">
      <rect x="-3" y="-5" width="6" height="10" style="fill:none;stroke:#222222;stroke-linejoin:round"/>
      <rect x="-2" y="-4" width="4" height="8"  style="fill:url(#gradientFill1);stroke:url(#gradientStroke1)"/>
    </g>

    <g id="TheRect2">
      <rect x="-3" y="-8" width="6" height="16" style="fill:none;stroke:#222222;stroke-linejoin:round"/>
      <rect x="-2" y="-7" width="4" height="14" style="fill:url(#gradientFill2);stroke:url(#gradientStroke2)"/>
    </g>

    <g id="TheRect3">
      <rect x="-2" y="-6" width="4" height="12" style="fill:none;stroke:#222222;stroke-linejoin:round"/>
      <rect x="-1" y="-5" width="2" height="10" style="fill:url(#gradientFill3);stroke:url(#gradientStroke3)"/>
    </g>

  </defs>

  <g id="distribute-horizontal-left" inkscape:label="#distribute_left">

    <use xlink:href="#TheRect1" transform="translate(3.5,12.5)"/>
    <use xlink:href="#TheRect2" transform="translate(12.5,14.5)"/>
    <use xlink:href="#TheRect3" transform="translate(20.5,15.5)"/>

    <!-- Lines -->
    <g style="fill:none;stroke:#c80000">
      <path d="m  0.5,0 0,12"/>
      <path d="m  9.5,0 0,12"/>
      <path d="m 18.5,0 0,12"/>
    </g>

    <!-- Arrows -->
    <path d="m  3,3 -2,-1.5 2,-1.5 v 1 l 4,0 v -1 l 2,1.5 -2,1.5 v -1 l -4,0 z"/>
    <path d="m 12,3 -2,-1.5 2,-1.5 v 1 l 4,0 v -1 l 2,1.5 -2,1.5 v -1 l -4,0 z"/>

  </g>

</svg>
