<?xml version='1.0' encoding='UTF-8'?>
<!-- Created with Inkscape (http://www.inkscape.org/) and export_objects.py -->
<svg xmlns:cc="http://creativecommons.org/ns#" xmlns:dc="http://purl.org/dc/elements/1.1/" xmlns:inkscape="http://www.inkscape.org/namespaces/inkscape" xmlns:rdf="http://www.w3.org/1999/02/22-rdf-syntax-ns#" xmlns:sodipodi="http://sodipodi.sourceforge.net/DTD/sodipodi-0.dtd" xmlns:xlink="http://www.w3.org/1999/xlink" xmlns="http://www.w3.org/2000/svg" version="1.1" id="svg1" width="16" height="16" viewBox="0 0 16 16" sodipodi:docname="document-save-symbolic.svg"><sodipodi:namedview objecttolerance="10" gridtolerance="10" guidetolerance="10" id="namedview" showgrid="true" inkscape:zoom="0.6002936" inkscape:cx="732.67439" inkscape:cy="-567.94603" inkscape:window-width="1920" inkscape:window-height="1016" inkscape:window-x="0" inkscape:window-y="27" inkscape:window-maximized="1" inkscape:current-layer="layer1">
    <inkscape:grid type="xygrid" id="grid"/>
  </sodipodi:namedview>
  <g transform="translate(-349,-1131.3621)" id="document-save" inkscape:label="00372">
      <path inkscape:connector-curvature="0" id="rect9333" d="m 349,1131.3621 h 16 v 16 h -16 z" style="opacity:0;fill:none"/>
      <path inkscape:connector-curvature="0" id="rect11650" d="m 356,1131.3621 h 2 v 5 h -2 z" style="opacity:1"/>
      <path style="opacity:1" d="m 357,1140.362 -4.0231,-4 h 8 z" id="path11635" inkscape:connector-curvature="0"/>
      <path inkscape:connector-curvature="0" id="path55558" d="m 353.0007,1139.362 v 1 l -1.5818,2.173 c -0.1871,0.358 -0.7437,0.494 -1.0966,0.267 -0.353,-0.226 -0.3216,-0.44 -0.3216,-0.44 l 1.6981,-2.685 c 0.079,-0.111 0.16,-0.315 0.3019,-0.315 l 1,10e-4 z" style="opacity:1"/>
      <path style="opacity:1" d="m 361,1139.362 v 1 l 1.5817,2.173 c 0.1872,0.358 0.7438,0.494 1.0967,0.267 0.3529,-0.226 0.3216,-0.44 0.3216,-0.44 l -1.6981,-2.685 c -0.079,-0.111 -0.16,-0.315 -0.3019,-0.315 l -1,10e-4 z" inkscape:connector-curvature="0" id="path46358"/>
      <path style="opacity:1" d="m 350,1142.362 v 5 h 14 v -5 z m 4.4114,1.438 c 0.024,-10e-4 0.049,-10e-4 0.072,0 0.3395,-0.06 0.5217,0.266 0.5157,0.562 v 0 h 4 v 0 c 0,-0.264 0.1293,-0.569 0.4375,-0.569 0.3082,0 0.5876,0.243 0.5833,0.507 v 0.06 c 0,0.545 -0.3846,1 -1.0208,1 h -4 c -0.6362,0 -0.9896,-0.455 -0.9896,-1 v -0.06 c -0.013,-0.217 0.1601,-0.433 0.401,-0.5 z" inkscape:connector-curvature="0" id="path12455"/>
    </g>
    </svg>
