<?xml version="1.0" encoding="UTF-8" standalone="no"?>
<svg
   xmlns:dc="http://purl.org/dc/elements/1.1/"
   xmlns:cc="http://web.resource.org/cc/"
   xmlns:rdf="http://www.w3.org/1999/02/22-rdf-syntax-ns#"
   xmlns:svg="http://www.w3.org/2000/svg"
   xmlns="http://www.w3.org/2000/svg"
   xmlns:xlink="http://www.w3.org/1999/xlink"
   xmlns:sodipodi="http://inkscape.sourceforge.net/DTD/sodipodi-0.dtd"
   xmlns:inkscape="http://www.inkscape.org/namespaces/inkscape"
   id="svg1"
   width="24"
   height="24.0244"
  >
  <sodipodi:namedview
     id="base"
     showgrid="true"
     gridspacingy="1pt"
     gridspacingx="1pt"
     gridoriginy="0pt"
     gridoriginx="0pt"
  />
  <defs id="defs3">

    <linearGradient id="linearGradient5704">
      <stop id="stop5706" offset="0" style="stop-color:#5a5a5a;stop-opacity:1"/>
      <stop id="stop5708" offset="1" style="stop-color:#000000;stop-opacity:1"/>
    </linearGradient>
    <linearGradient gradientTransform="translate(-1.5,7.5244)" gradientUnits="userSpaceOnUse" id="linearGradient5859" inkscape:collect="always" x1="34.5194" x2="42.18301" xlink:href="#linearGradient5704" y1="137.5165" y2="137.4738"/>
    <linearGradient gradientUnits="userSpaceOnUse" id="linearGradient5857" inkscape:collect="always" x1="31.37247" x2="36.18673" xlink:href="#linearGradient5704" y1="132.9464" y2="138.5"/>
  </defs>
<g id="draw-text" inkscape:label="#draw_text" transform="translate(-25,-127)">
  <path d="M 41.91177,127.0244 41.91177,130.0244 43.91177,130.0244 43.91177,148.0244 41.91177,148.0244 41.91177,151.0244 48.91177,151.0244 48.91177,148.0244 46.91177,148.0244 46.91177,130.0244 48.91177,130.0244 48.91177,127.0244 41.91177,127.0244 Z" id="path604" inkscape:connector-curvature="0" sodipodi:nodetypes="ccccccccccccc" style="fill:#ffffff;fill-rule:evenodd"/>
  <path d="M 45.41177,129.5 45.41177,148.5369" id="path598" inkscape:connector-curvature="0" style="fill:none;stroke:#000000;stroke-width:0.9999999;stroke-linecap:round;stroke-linejoin:round"/>
  <path d="M 46.38747,128.5244 47.6956,128.5133" id="path599" inkscape:connector-curvature="0" sodipodi:nodetypes="cc" style="fill:none;stroke:#000000;stroke-width:1.0000006;stroke-linecap:round;stroke-linejoin:round;stroke-miterlimit:0"/>
  <path d="M 46.39879,149.5244 47.52504,149.5244" id="path600" inkscape:connector-curvature="0" style="fill:none;stroke:#000000;stroke-width:1.0000005;stroke-linecap:round;stroke-linejoin:round"/>
  <path d="M 44.5,149.5244 43.32353,149.5244" id="path601" inkscape:connector-curvature="0" style="fill:none;stroke:#000000;stroke-width:1.0000002;stroke-linecap:round;stroke-linejoin:round"/>
  <path d="M 44.46788,128.5244 43.31153,128.5244" id="path602" inkscape:connector-curvature="0" sodipodi:nodetypes="cc" style="fill:none;stroke:#000000;stroke-width:1.0000001;stroke-linecap:round;stroke-linejoin:round"/>
  <rect height="24" id="rect5171" style="color:#000000;fill:none" width="24" x="25" y="127"/>
  <g id="g3805">
    <path d="M 33,129.5 38,129.5 44.5,147.5 40.5,147.5 39.5,145 31.5,145 30.5,147.5 26.5,147.5 33,129.5 Z M 38.5,141.5 35.5,133 32.5,141.5 38.5,141.5 Z" id="text2410" inkscape:connector-curvature="0" sodipodi:nodetypes="ccccccccccccc" style="fill:url(#linearGradient5857);stroke:#000000"/>
    <path d="M 33.5,130.5 28,146" id="path5817" inkscape:connector-curvature="0" sodipodi:nodetypes="cc" style="fill:#ffffff;fill-opacity:0.75;fill-rule:evenodd;stroke:#646464;stroke-width:1.0000002px;stroke-linecap:round"/>
    <path d="M 38,142.5244 32.5,142.5244" id="path5828" inkscape:connector-curvature="0" sodipodi:nodetypes="cc" style="fill:#ffffff;fill-opacity:0.75;fill-rule:evenodd;stroke:url(#linearGradient5859);stroke-width:1.0000002px;stroke-linecap:round"/>
  </g>
</g>

</svg>
