<?xml version="1.0" encoding="UTF-8" standalone="no"?>
<svg
   xmlns:dc="http://purl.org/dc/elements/1.1/"
   xmlns:cc="http://web.resource.org/cc/"
   xmlns:rdf="http://www.w3.org/1999/02/22-rdf-syntax-ns#"
   xmlns:svg="http://www.w3.org/2000/svg"
   xmlns="http://www.w3.org/2000/svg"
   xmlns:xlink="http://www.w3.org/1999/xlink"
   xmlns:sodipodi="http://inkscape.sourceforge.net/DTD/sodipodi-0.dtd"
   xmlns:inkscape="http://www.inkscape.org/namespaces/inkscape"
   id="svg1"
   width="24"
   height="24"
  >
  <sodipodi:namedview
     id="base"
     showgrid="true"
     gridspacingy="1pt"
     gridspacingx="1pt"
     gridoriginy="0pt"
     gridoriginx="0pt"
  />
  <defs id="defs3">

    <linearGradient gradientUnits="userSpaceOnUse" id="linearGradient5856" inkscape:collect="always" x1="448.7902" x2="454.2664" xlink:href="#linearGradient5704" y1="293.7904" y2="304.5938"/>
    <linearGradient id="linearGradient14614" inkscape:collect="always">
      <stop id="stop14616" offset="0" style="stop-color:#c80000"/>
      <stop id="stop14618" offset="1" style="stop-color:#bf0000;stop-opacity:0"/>
    </linearGradient>
    <linearGradient id="linearGradient16137">
      <stop id="stop16139" offset="0" style="stop-color:#db5d00;stop-opacity:1"/>
      <stop id="stop16141" offset="0.35076979" style="stop-color:#ffd749;stop-opacity:1"/>
      <stop id="stop16143" offset="0.59668732" style="stop-color:#fff593;stop-opacity:1"/>
      <stop id="stop16145" offset="0.78382427" style="stop-color:#fff7c2;stop-opacity:1"/>
      <stop id="stop16147" offset="1" style="stop-color:#ffffff;stop-opacity:1"/>
    </linearGradient>
    <linearGradient gradientTransform="translate(-474.994,-196)" gradientUnits="userSpaceOnUse" id="linearGradient14646" inkscape:collect="always" x1="503.4623" x2="496.6998" xlink:href="#linearGradient16137" y1="311.0814" y2="304.7992"/>
    <linearGradient id="linearGradient700">
      <stop id="stop347" offset="0" style="stop-color:#376796;stop-opacity:1"/>
      <stop id="stop348" offset="1" style="stop-color:#b0dde2;stop-opacity:1"/>
    </linearGradient>
    <linearGradient id="linearGradient5704">
      <stop id="stop5706" offset="0" style="stop-color:#5a5a5a;stop-opacity:1"/>
      <stop id="stop5708" offset="1" style="stop-color:#000000;stop-opacity:1"/>
    </linearGradient>
    <linearGradient gradientTransform="translate(-474.994,-196)" gradientUnits="userSpaceOnUse" id="linearGradient14652" inkscape:collect="always" x1="494.7954" x2="503.2033" xlink:href="#linearGradient5704" y1="296.2422" y2="301.2458"/>
    <linearGradient gradientTransform="translate(-474.994,-196)" gradientUnits="userSpaceOnUse" id="linearGradient14650" inkscape:collect="always" x1="505.6819" x2="502.1328" xlink:href="#linearGradient700" y1="299.7858" y2="298.3802"/>
    <linearGradient gradientTransform="translate(-474.994,-196)" gradientUnits="userSpaceOnUse" id="linearGradient14654" inkscape:collect="always" x1="503.9067" x2="500.2523" xlink:href="#linearGradient14614" y1="302.0055" y2="300.8249"/>
  </defs>
<g id="draw-calligraphic" inkscape:label="#draw_calligraphic" transform="translate(-10,-99)">
  <rect height="24" id="rect12294" style="color:#000000;fill:none" width="24" x="10" y="99"/>
  <path d="M 450,295 450,295.5 C 458,297.6875 447.8335,311.1417 454.5,316.5 458.6531,319.8381 465.1496,319.3504 468,316.5 469,315.5 471,314.5 473.7187,315.5625 L 473.7187,315.3437 C 472,312.5 469,313 467.5,315 465.6026,317.5298 460,320.5 457,316 453,310 468.5,295 450,295 Z" id="path12296" inkscape:connector-curvature="0" sodipodi:nodetypes="ccssccssc" style="fill:url(#linearGradient5856);stroke-width:1pt" transform="translate(-440,-196)"/>
  <g id="g15748">
    <path d="M 20.50599,109.5 20.50599,119.5 22.50599,119.5 C 24.50599,116.5 26.50599,114.5 29.50599,112.5 L 29.50599,106.5 23.50599,105.5 20.50599,109.5 Z" id="path12332" inkscape:connector-curvature="0" sodipodi:nodetypes="ccccccc" style="fill:url(#linearGradient14646);fill-rule:evenodd;stroke:#000000;stroke-width:1px;stroke-linecap:round;stroke-linejoin:round"/>
    <path d="M 22,117.8669 24.00599,112 C 24.00599,112 25.00599,112 25.00599,112 L 25.00599,110 23.00599,110 23.00599,112 21.67237,117.8646 22,117.8666 Z" id="path13072" inkscape:connector-curvature="0" sodipodi:nodetypes="cccccccc" style="fill:#000000;fill-rule:evenodd"/>
    <path d="M 25.29308,99.5 23.50599,105.5 30.5682,107.2811 C 31.27434,106.9578 31.58694,105.9597 31.50599,104.9617 L 33.5,101.6184" id="path13820" inkscape:connector-curvature="0" sodipodi:nodetypes="ccccc" style="color:#000000;fill:url(#linearGradient14650);fill-rule:evenodd;stroke:url(#linearGradient14652);stroke-width:1px;stroke-linecap:round;stroke-linejoin:round"/>
    <path d="M 31.33134,104.9438 26.33134,103.9438" id="path14610" inkscape:connector-curvature="0" style="fill:none;stroke:#000000;stroke-width:1px;stroke-linecap:round"/>
    <path d="M 30.48686,106.7926 C 30.97411,106.5594 31.12403,105.989 31.10529,105.4185 L 25.93298,104.3751 25.25833,105.428 30.48686,106.7926 Z" id="path14612" inkscape:connector-curvature="0" sodipodi:nodetypes="ccccc" style="fill:url(#linearGradient14654);fill-rule:evenodd"/>
    <path d="M 24.92101,104.2064 26.2141,99.98988" id="path14622" inkscape:connector-curvature="0" sodipodi:nodetypes="cc" style="fill:none;stroke:#ffffff;stroke-width:1px;stroke-linecap:round"/>
    <path d="M 33.45251,103.4948 32.48803,105.0419 C 32.53106,106.3794 32.01188,107.9418 30.59318,108.0424 L 30.60148,112.9722 C 27.51211,114.5592 25.20984,117.1582 23.30111,119.9258" id="path14656" inkscape:connector-curvature="0" sodipodi:nodetypes="ccccc" style="fill:none;stroke:#000000;stroke-width:1.0000001;stroke-linecap:round;stroke-opacity:0.2449568"/>
    <path d="M 21.03975,117 21,109.725 23.66352,106.1869 27.55942,107.141 26.8836,108.3336 24.33934,108.2143 22.43114,110.043 21.03975,117 Z" id="path16152" inkscape:connector-curvature="0" sodipodi:nodetypes="cccccccc" style="fill:#ffffff;fill-rule:evenodd"/>
  </g>
</g>

</svg>
