<?xml version="1.0" encoding="UTF-8" standalone="no"?>
<svg
   xmlns:dc="http://purl.org/dc/elements/1.1/"
   xmlns:cc="http://web.resource.org/cc/"
   xmlns:rdf="http://www.w3.org/1999/02/22-rdf-syntax-ns#"
   xmlns:svg="http://www.w3.org/2000/svg"
   xmlns="http://www.w3.org/2000/svg"
   xmlns:xlink="http://www.w3.org/1999/xlink"
   xmlns:sodipodi="http://inkscape.sourceforge.net/DTD/sodipodi-0.dtd"
   xmlns:inkscape="http://www.inkscape.org/namespaces/inkscape"
   id="svg1"
   width="16"
   height="16"
  >
  <sodipodi:namedview
     id="base"
     showgrid="true"
     gridspacingy="1pt"
     gridspacingx="1pt"
     gridoriginy="0pt"
     gridoriginx="0pt"
  />
  <defs id="defs3">

  </defs>
<g id="draw-eraser-delete-objects" inkscape:label="#delete_object" transform="translate(-314,-210)">
  <rect height="16" id="rect10920" style="fill:none" width="16" x="314" y="210"/>
  <path d="M 220.5,155.5625 220.5,165.5 230.5937,165.5 230.5937,161.375 C 230.3877,161.3984 230.2123,161.5 230,161.5 226.964,161.5 224.5,159.036 224.5,156 224.5,155.8435 224.5809,155.7157 224.5937,155.5625 L 220.5,155.5625 Z" id="path6882" inkscape:connector-curvature="0" style="color:#000000;fill:none;stroke:#c80000;stroke-width:1.0000002;stroke-linejoin:round;stroke-miterlimit:0;stroke-dasharray:1, 1" transform="translate(94.91614,59)"/>
  <g id="use5777" transform="matrix(1,0,0,1,-652.541,41.46088)">
    <path d="M 972,171 973,170 980,170 981,171 981,178 980,179 973,179 972,178 972,171 Z" id="path8011" inkscape:connector-curvature="0" sodipodi:nodetypes="ccccccccc" style="fill:#aa0000;fill-rule:evenodd;stroke:#aa0000;stroke-width:1px"/>
    <path d="M 974,171.85 979,176.85" id="path8023" inkscape:connector-curvature="0" sodipodi:nodetypes="cc" style="fill:none;stroke:#ffffff;stroke-width:1.7"/>
    <path d="M 979,171.85 974,176.85" id="path8025" inkscape:connector-curvature="0" sodipodi:nodetypes="cc" style="fill:none;stroke:#ffffff;stroke-width:1.8;stroke-linejoin:round"/>
  </g>
</g>

</svg>
