<?xml version="1.0" encoding="UTF-8" standalone="no"?>
<svg
   xmlns:dc="http://purl.org/dc/elements/1.1/"
   xmlns:cc="http://web.resource.org/cc/"
   xmlns:rdf="http://www.w3.org/1999/02/22-rdf-syntax-ns#"
   xmlns:svg="http://www.w3.org/2000/svg"
   xmlns="http://www.w3.org/2000/svg"
   xmlns:xlink="http://www.w3.org/1999/xlink"
   xmlns:sodipodi="http://inkscape.sourceforge.net/DTD/sodipodi-0.dtd"
   xmlns:inkscape="http://www.inkscape.org/namespaces/inkscape"
   id="svg1"
   width="23.999999"
   height="23.999874"
  >
  <sodipodi:namedview
     id="base"
     showgrid="true"
     gridspacingy="1pt"
     gridspacingx="1pt"
     gridoriginy="0pt"
     gridoriginx="0pt"
  />
  <defs id="defs3">

    <linearGradient id="linearGradient1887">
      <stop id="stop1888" offset="0" style="stop-color:#fffdf8;stop-opacity:1"/>
      <stop id="stop1889" offset="1" style="stop-color:#cdccc7;stop-opacity:1"/>
    </linearGradient>
    <linearGradient gradientUnits="userSpaceOnUse" id="linearGradient3740" inkscape:collect="always" x1="899.6934" x2="906.6448" xlink:href="#linearGradient1887" y1="116.8648" y2="132.8273"/>
  </defs>
<g id="draw-geometry-show-measuring-info" inkscape:label="#g3731" transform="translate(-890.99,-114.109)">
  <path d="M 891.49,114.609 914.4899,114.609 914.49,129.0345 910.3082,129.0345 905.7009,137.609 905.0809,129.0345 891.4901,129.0345 891.49,114.609 Z" id="rect5189-6" inkscape:connector-curvature="0" sodipodi:nodetypes="cccccccc" style="color:#000000;fill:url(#linearGradient3740);fill-rule:evenodd;stroke:#000000;stroke-width:0.9999992;stroke-linecap:round;stroke-linejoin:round"/>
  <g id="text3706" style="font-size:8.7460566px">
    <path d="M 895.9941,119.2959 C 895.1463,119.2751 894.7938,120.1965 894.7211,120.898 894.6294,121.9436 894.5529,123.0953 895.08,124.0441 895.4964,124.781 896.695,124.6689 896.9976,123.891 897.4368,122.8798 897.3808,121.7206 897.2282,120.6519 897.1176,120.0199 896.7498,119.2637 895.9941,119.2959 Z M 895.9941,118.6126 C 896.9509,118.5524 897.7519,119.3144 897.9758,120.2047 898.2877,121.3635 898.2902,122.6289 897.9292,123.7767 897.6728,124.6649 896.8012,125.3325 895.862,125.2243 894.8289,125.2293 894.0921,124.2919 893.9314,123.3422 893.708,122.1354 893.6931,120.8177 894.222,119.6858 894.5435,119.0127 895.2473,118.5832 895.994,118.6126 Z" id="path3719" inkscape:connector-curvature="0"/>
    <path d="M 899.7179,124.0191 C 900.0183,124.0191 900.3187,124.0191 900.619,124.0191 900.619,124.3806 900.619,124.7422 900.619,125.1038 900.3187,125.1038 900.0183,125.1038 899.7179,125.1038 899.7179,124.7422 899.7179,124.3806 899.7179,124.0191 Z" id="path3721" inkscape:connector-curvature="0"/>
    <path d="M 903.2454,124.3778 C 904.249,124.3778 905.2526,124.3778 906.2561,124.3778 906.2561,124.6198 906.2561,124.8618 906.2561,125.1038 904.9067,125.1038 903.5572,125.1038 902.2077,125.1038 902.2077,124.8618 902.2077,124.6198 902.2077,124.3778 903.1601,123.3422 904.2578,122.431 905.0916,121.2929 905.5287,120.7197 905.4201,119.7534 904.6999,119.4637 903.876,119.1394 902.9792,119.5091 902.2504,119.9065 902.2504,119.6161 902.2504,119.3258 902.2504,119.0354 903.325,118.5793 904.7495,118.3235 905.704,119.1712 906.4861,119.884 906.3111,121.1679 905.632,121.8901 904.8737,122.7521 904.0412,123.55 903.2454,124.3778 Z" id="path3723" inkscape:connector-curvature="0"/>
    <path d="M 910.6847,121.666 C 911.5783,121.791 912.1673,122.7237 911.9772,123.5893 911.8831,124.5921 910.8635,125.1799 909.9352,125.2095 909.2127,125.2794 908.4835,125.1506 907.8021,124.9117 907.8021,124.6341 907.8021,124.3565 907.8021,124.0789 908.6387,124.535 909.7266,124.6809 910.6028,124.2565 911.4045,123.822 911.2934,122.4449 910.406,122.1755 909.9252,121.9917 909.4059,122.0661 908.9039,122.0504 908.9039,121.8141 908.9039,121.5778 908.9039,121.3415 909.5715,121.3127 910.4133,121.4904 910.8604,120.8661 911.2781,120.2052 910.7157,119.3318 909.9526,119.3552 909.2869,119.2871 908.6225,119.448 907.9943,119.6547 907.9943,119.3984 907.9943,119.1422 907.9943,118.886 909.0743,118.5993 910.4019,118.3569 911.3476,119.1178 912.1497,119.7623 911.9741,121.2601 910.9484,121.5818 L 910.8205,121.6274 910.6847,121.6661" id="path3725" inkscape:connector-curvature="0"/>
  </g>
</g>

</svg>
