<?xml version="1.0" encoding="UTF-8" standalone="no"?>
<svg
   xmlns:dc="http://purl.org/dc/elements/1.1/"
   xmlns:cc="http://web.resource.org/cc/"
   xmlns:rdf="http://www.w3.org/1999/02/22-rdf-syntax-ns#"
   xmlns:svg="http://www.w3.org/2000/svg"
   xmlns="http://www.w3.org/2000/svg"
   xmlns:xlink="http://www.w3.org/1999/xlink"
   xmlns:sodipodi="http://inkscape.sourceforge.net/DTD/sodipodi-0.dtd"
   xmlns:inkscape="http://www.inkscape.org/namespaces/inkscape"
   id="svg1"
   width="16"
   height="16"
  >
  <sodipodi:namedview
     id="base"
     showgrid="true"
     gridspacingy="1pt"
     gridspacingx="1pt"
     gridoriginy="0pt"
     gridoriginx="0pt"
  />
  <defs id="defs3">

    <linearGradient id="linearGradient5740">
      <stop id="stop5742" offset="0" style="stop-color:#ffffff;stop-opacity:1"/>
      <stop id="stop5744" offset="1" style="stop-color:#98b6d3;stop-opacity:1"/>
    </linearGradient>
    <linearGradient gradientUnits="userSpaceOnUse" id="linearGradient5821" inkscape:collect="always" x1="108.3513" x2="101.1929" xlink:href="#linearGradient5740" y1="215.4819" y2="206.9966"/>
    <linearGradient gradientUnits="userSpaceOnUse" id="linearGradient5819" inkscape:collect="always" x1="99.31348" x2="111.6865" xlink:href="#linearGradient5704" y1="210.5" y2="210.5"/>
    <linearGradient gradientUnits="userSpaceOnUse" id="linearGradient5823" inkscape:collect="always" x1="101.7507" x2="108.8156" xlink:href="#linearGradient5740" y1="205.192" y2="212.9901"/>
    <linearGradient id="linearGradient5704">
      <stop id="stop5706" offset="0" style="stop-color:#5a5a5a;stop-opacity:1"/>
      <stop id="stop5708" offset="1" style="stop-color:#000000;stop-opacity:1"/>
    </linearGradient>
  </defs>
<g id="edit-select-invert" inkscape:label="#selection_invert" transform="translate(-55,-277)">
  <g id="use5599" transform="matrix(1.112088,0,0,1.110911,-340.6366,-0.279561)">
    <circle cx="105.5" cy="210.5" id="path10763" r="5.5" style="color:#000000;fill:none;stroke:url(#linearGradient5819);stroke-width:1.3730356;stroke-linecap:round;stroke-linejoin:round;stroke-miterlimit:0" transform="matrix(0.727881,0,0,0.728748,287.069,104.2892)"/>
    <circle cx="105.5" cy="210.5" id="path10409" r="5.5" style="color:#000000;fill:url(#linearGradient5821);fill-rule:evenodd;stroke:url(#linearGradient5823);stroke-width:1.8262242;stroke-linecap:round;stroke-linejoin:round;stroke-miterlimit:0" transform="matrix(0.547085,0,0,0.548073,306.1137,142.2991)"/>
  </g>
  <path d="M 59.5,281.5 60.5,281.5" id="path5378" inkscape:connector-curvature="0" style="fill:none;stroke:#cc0000;stroke-width:1px;stroke-linecap:square"/>
  <path d="M 59.5,283.5 59.5,284.5" id="path5380" inkscape:connector-curvature="0" style="fill:none;stroke:#cc0000;stroke-width:1px;stroke-linecap:square"/>
  <path d="M 55.5,236.5 56.5,236.5" id="use5382" inkscape:connector-curvature="0" style="fill:none;stroke:#cc0000;stroke-width:1px;stroke-linecap:square" transform="matrix(1,0,0,1,7,45)"/>
  <path d="M 55.5,236.5 56.5,236.5" id="use5384" inkscape:connector-curvature="0" style="fill:none;stroke:#cc0000;stroke-width:1px;stroke-linecap:square" transform="matrix(1,0,0,1,10,45)"/>
  <path d="M 55.5,238.5 55.5,239.5" id="use5390" inkscape:connector-curvature="0" style="fill:none;stroke:#cc0000;stroke-width:1px;stroke-linecap:square" transform="matrix(1,0,0,1,4,48)"/>
  <path d="M 55.5,238.5 55.5,239.5" id="use5392" inkscape:connector-curvature="0" style="fill:none;stroke:#cc0000;stroke-width:1px;stroke-linecap:square" transform="matrix(1,0,0,1,4,51)"/>
  <path d="M 55.5,236.5 56.5,236.5" id="use5398" inkscape:connector-curvature="0" style="fill:none;stroke:#cc0000;stroke-width:1px;stroke-linecap:square" transform="matrix(1,0,0,1,6,54)"/>
  <path d="M 55.5,236.5 56.5,236.5" id="use5400" inkscape:connector-curvature="0" style="fill:none;stroke:#cc0000;stroke-width:1px;stroke-linecap:square" transform="matrix(1,0,0,1,9,54)"/>
  <path d="M 55.5,236.5 56.5,236.5" id="use5402" inkscape:connector-curvature="0" style="fill:none;stroke:#cc0000;stroke-width:1px;stroke-linecap:square" transform="matrix(1,0,0,1,12,54)"/>
  <path d="M 55.5,238.5 55.5,239.5" id="use5410" inkscape:connector-curvature="0" style="fill:none;stroke:#cc0000;stroke-width:1px;stroke-linecap:square" transform="matrix(1,0,0,1,13,43)"/>
  <path d="M 55.5,238.5 55.5,239.5" id="use5412" inkscape:connector-curvature="0" style="fill:none;stroke:#cc0000;stroke-width:1px;stroke-linecap:square" transform="matrix(1,0,0,1,13,46)"/>
  <path d="M 55.5,238.5 55.5,239.5" id="use5414" inkscape:connector-curvature="0" style="fill:none;stroke:#cc0000;stroke-width:1px;stroke-linecap:square" transform="matrix(1,0,0,1,13,49)"/>
  <path d="M 55.5,277.5 56.5,277.5" id="path5523" inkscape:connector-curvature="0" style="fill:none;stroke:#000000;stroke-width:1px;stroke-linecap:square"/>
  <path d="M 55.5,185.5 56.5,185.5" id="use5525" inkscape:connector-curvature="0" style="fill:none;stroke:#000000;stroke-width:1px;stroke-linecap:square" transform="matrix(1,0,0,1,3,92)"/>
  <path d="M 55.5,185.5 56.5,185.5" id="use5527" inkscape:connector-curvature="0" style="fill:none;stroke:#000000;stroke-width:1px;stroke-linecap:square" transform="matrix(1,0,0,1,6,92)"/>
  <path d="M 55.5,185.5 56.5,185.5" id="use5529" inkscape:connector-curvature="0" style="fill:none;stroke:#000000;stroke-width:1px;stroke-linecap:square" transform="matrix(1,0,0,1,9,92)"/>
  <path d="M 55.5,185.5 56.5,185.5" id="use5531" inkscape:connector-curvature="0" style="fill:none;stroke:#000000;stroke-width:1px;stroke-linecap:square" transform="matrix(1,0,0,1,12,92)"/>
  <path d="M 55.5,185.5 56.5,185.5" id="use5533" inkscape:connector-curvature="0" style="fill:none;stroke:#000000;stroke-width:1px;stroke-linecap:square" transform="matrix(1,0,0,1,2,107)"/>
  <path d="M 55.5,185.5 56.5,185.5" id="use5535" inkscape:connector-curvature="0" style="fill:none;stroke:#000000;stroke-width:1px;stroke-linecap:square" transform="matrix(1,0,0,1,5,107)"/>
  <path d="M 55.5,185.5 56.5,185.5" id="use5537" inkscape:connector-curvature="0" style="fill:none;stroke:#000000;stroke-width:1px;stroke-linecap:square" transform="matrix(1,0,0,1,8,107)"/>
  <path d="M 55.5,185.5 56.5,185.5" id="use5539" inkscape:connector-curvature="0" style="fill:none;stroke:#000000;stroke-width:1px;stroke-linecap:square" transform="matrix(1,0,0,1,11,107)"/>
  <path d="M 55.5,185.5 56.5,185.5" id="use5541" inkscape:connector-curvature="0" style="fill:none;stroke:#000000;stroke-width:1px;stroke-linecap:square" transform="matrix(1,0,0,1,14,107)"/>
  <path d="M 55.5,279.5 55.5,280.5" id="path5543" inkscape:connector-curvature="0" style="fill:none;stroke:#000000;stroke-width:1px;stroke-linecap:square"/>
  <path d="M 55.5,187.5 55.5,188.5" id="use5545" inkscape:connector-curvature="0" style="fill:none;stroke:#000000;stroke-width:1px;stroke-linecap:square" transform="matrix(1,0,0,1,0,95)"/>
  <path d="M 55.5,187.5 55.5,188.5" id="use5547" inkscape:connector-curvature="0" style="fill:none;stroke:#000000;stroke-width:1px;stroke-linecap:square" transform="matrix(1,0,0,1,0,98)"/>
  <path d="M 55.5,187.5 55.5,188.5" id="use5549" inkscape:connector-curvature="0" style="fill:none;stroke:#000000;stroke-width:1px;stroke-linecap:square" transform="matrix(1,0,0,1,0,101)"/>
  <path d="M 55.5,187.5 55.5,188.5" id="use5551" inkscape:connector-curvature="0" style="fill:none;stroke:#000000;stroke-width:1px;stroke-linecap:square" transform="matrix(1,0,0,1,0,104)"/>
  <path d="M 55.5,187.5 55.5,188.5" id="use5553" inkscape:connector-curvature="0" style="fill:none;stroke:#000000;stroke-width:1px;stroke-linecap:square" transform="matrix(1,0,0,1,15,102)"/>
  <path d="M 55.5,187.5 55.5,188.5" id="use5555" inkscape:connector-curvature="0" style="fill:none;stroke:#000000;stroke-width:1px;stroke-linecap:square" transform="matrix(1,0,0,1,15,99)"/>
  <path d="M 55.5,187.5 55.5,188.5" id="use5557" inkscape:connector-curvature="0" style="fill:none;stroke:#000000;stroke-width:1px;stroke-linecap:square" transform="matrix(1,0,0,1,15,96)"/>
  <path d="M 55.5,187.5 55.5,188.5" id="use5560" inkscape:connector-curvature="0" style="fill:none;stroke:#000000;stroke-width:1px;stroke-linecap:square" transform="matrix(1,0,0,1,15,93)"/>
  <path d="M 55.5,187.5 55.5,188.5" id="use5563" inkscape:connector-curvature="0" style="fill:none;stroke:#000000;stroke-width:1px;stroke-linecap:square" transform="matrix(1,0,0,1,15,90)"/>
</g>

</svg>
