<?xml version="1.0" encoding="UTF-8" standalone="no"?>
<svg
   xmlns:dc="http://purl.org/dc/elements/1.1/"
   xmlns:cc="http://web.resource.org/cc/"
   xmlns:rdf="http://www.w3.org/1999/02/22-rdf-syntax-ns#"
   xmlns:svg="http://www.w3.org/2000/svg"
   xmlns="http://www.w3.org/2000/svg"
   xmlns:xlink="http://www.w3.org/1999/xlink"
   xmlns:sodipodi="http://inkscape.sourceforge.net/DTD/sodipodi-0.dtd"
   xmlns:inkscape="http://www.inkscape.org/namespaces/inkscape"
   id="svg1"
   width="16"
   height="16"
  >
  <sodipodi:namedview
     id="base"
     showgrid="true"
     gridspacingy="1pt"
     gridspacingx="1pt"
     gridoriginy="0pt"
     gridoriginx="0pt"
  />
  <defs id="defs3">

    <linearGradient gradientUnits="userSpaceOnUse" id="linearGradient5789" inkscape:collect="always" x1="968.8881" x2="977.9335" xlink:href="#linearGradient5704" y1="178.3186" y2="181.7098"/>
    <linearGradient id="linearGradient5704">
      <stop id="stop5706" offset="0" style="stop-color:#5a5a5a;stop-opacity:1"/>
      <stop id="stop5708" offset="1" style="stop-color:#000000;stop-opacity:1"/>
    </linearGradient>
    <linearGradient id="linearGradient2485">
      <stop id="stop2486" offset="0" style="stop-color:#ffffff;stop-opacity:1"/>
      <stop id="stop2487" offset="1" style="stop-color:#aaaaaa;stop-opacity:1"/>
    </linearGradient>
    <linearGradient gradientUnits="userSpaceOnUse" id="linearGradient5787" inkscape:collect="always" x1="974.1975" x2="979.8044" xlink:href="#linearGradient2485" y1="182.4686" y2="184.8026"/>
  </defs>
<g id="edit-select-all-layers" inkscape:label="#selection_select_all_in_all_layers" transform="translate(-55,-212.99997)">
  <path d="M 55.5,213.5 56.5,213.5" id="path9031" inkscape:connector-curvature="0" style="fill:none;stroke:#000000;stroke-width:1px;stroke-linecap:square"/>
  <path d="M 55.5,185.5 56.5,185.5" id="use9033" inkscape:connector-curvature="0" style="fill:none;stroke:#000000;stroke-width:1px;stroke-linecap:square" transform="matrix(1,0,0,1,3,27.99997)"/>
  <path d="M 55.5,185.5 56.5,185.5" id="use9035" inkscape:connector-curvature="0" style="fill:none;stroke:#000000;stroke-width:1px;stroke-linecap:square" transform="matrix(1,0,0,1,6,27.99997)"/>
  <path d="M 55.5,185.5 56.5,185.5" id="use9037" inkscape:connector-curvature="0" style="fill:none;stroke:#000000;stroke-width:1px;stroke-linecap:square" transform="matrix(1,0,0,1,9,27.99997)"/>
  <path d="M 55.5,185.5 56.5,185.5" id="use9039" inkscape:connector-curvature="0" style="fill:none;stroke:#000000;stroke-width:1px;stroke-linecap:square" transform="matrix(1,0,0,1,12,27.99997)"/>
  <path d="M 55.5,185.5 56.5,185.5" id="use9041" inkscape:connector-curvature="0" style="fill:none;stroke:#000000;stroke-width:1px;stroke-linecap:square" transform="matrix(1,0,0,1,2,42.99997)"/>
  <path d="M 55.5,185.5 56.5,185.5" id="use9043" inkscape:connector-curvature="0" style="fill:none;stroke:#000000;stroke-width:1px;stroke-linecap:square" transform="matrix(1,0,0,1,5,42.99997)"/>
  <path d="M 55.5,185.5 56.5,185.5" id="use9045" inkscape:connector-curvature="0" style="fill:none;stroke:#000000;stroke-width:1px;stroke-linecap:square" transform="matrix(1,0,0,1,8,42.99997)"/>
  <path d="M 55.5,185.5 56.5,185.5" id="use9047" inkscape:connector-curvature="0" style="fill:none;stroke:#000000;stroke-width:1px;stroke-linecap:square" transform="matrix(1,0,0,1,11,42.99997)"/>
  <path d="M 55.5,185.5 56.5,185.5" id="use9049" inkscape:connector-curvature="0" style="fill:none;stroke:#000000;stroke-width:1px;stroke-linecap:square" transform="matrix(1,0,0,1,14,42.99997)"/>
  <path d="M 55.5,215.5 55.5,216.5" id="path9051" inkscape:connector-curvature="0" style="fill:none;stroke:#000000;stroke-width:1px;stroke-linecap:square"/>
  <path d="M 55.5,187.5 55.5,188.5" id="use9053" inkscape:connector-curvature="0" style="fill:none;stroke:#000000;stroke-width:1px;stroke-linecap:square" transform="matrix(1,0,0,1,0,30.99997)"/>
  <path d="M 55.5,187.5 55.5,188.5" id="use9055" inkscape:connector-curvature="0" style="fill:none;stroke:#000000;stroke-width:1px;stroke-linecap:square" transform="matrix(1,0,0,1,0,33.99997)"/>
  <path d="M 55.5,187.5 55.5,188.5" id="use9057" inkscape:connector-curvature="0" style="fill:none;stroke:#000000;stroke-width:1px;stroke-linecap:square" transform="matrix(1,0,0,1,0,36.99997)"/>
  <path d="M 55.5,187.5 55.5,188.5" id="use9059" inkscape:connector-curvature="0" style="fill:none;stroke:#000000;stroke-width:1px;stroke-linecap:square" transform="matrix(1,0,0,1,0,39.99997)"/>
  <path d="M 55.5,187.5 55.5,188.5" id="use9061" inkscape:connector-curvature="0" style="fill:none;stroke:#000000;stroke-width:1px;stroke-linecap:square" transform="matrix(1,0,0,1,15,37.99997)"/>
  <path d="M 55.5,187.5 55.5,188.5" id="use9063" inkscape:connector-curvature="0" style="fill:none;stroke:#000000;stroke-width:1px;stroke-linecap:square" transform="matrix(1,0,0,1,15,34.99997)"/>
  <path d="M 55.5,187.5 55.5,188.5" id="use9065" inkscape:connector-curvature="0" style="fill:none;stroke:#000000;stroke-width:1px;stroke-linecap:square" transform="matrix(1,0,0,1,15,31.99997)"/>
  <path d="M 55.5,187.5 55.5,188.5" id="use9067" inkscape:connector-curvature="0" style="fill:none;stroke:#000000;stroke-width:1px;stroke-linecap:square" transform="matrix(1,0,0,1,15,28.99997)"/>
  <path d="M 55.5,187.5 55.5,188.5" id="use9069" inkscape:connector-curvature="0" style="fill:none;stroke:#000000;stroke-width:1px;stroke-linecap:square" transform="matrix(1,0,0,1,15,25.99997)"/>
  <path d="M 969.5,182.5 980.5,182.5 976.5,177.5 965.5,177.5 969.5,182.5 Z" id="use9073" inkscape:connector-curvature="0" sodipodi:nodetypes="ccccc" style="color:#000000;fill:url(#linearGradient5787);fill-rule:evenodd;stroke:url(#linearGradient5789);stroke-width:0.9999474;stroke-linecap:square;stroke-linejoin:round;stroke-miterlimit:0" transform="matrix(0.752527,0,0,0.752527,-669.209253456495,88.802701410165)"/>
  <path d="M 969.5,182.5 980.5,182.5 976.5,177.5 965.5,177.5 969.5,182.5 Z" id="use9077" inkscape:connector-curvature="0" sodipodi:nodetypes="ccccc" style="color:#000000;fill:url(#linearGradient5787);fill-rule:evenodd;stroke:url(#linearGradient5789);stroke-width:0.9999474;stroke-linecap:square;stroke-linejoin:round;stroke-miterlimit:0" transform="matrix(0.752527,0,0,0.752527,-669.2092,85.8027)"/>
  <path d="M 969.5,182.5 980.5,182.5 976.5,177.5 965.5,177.5 969.5,182.5 Z" id="use9079" inkscape:connector-curvature="0" sodipodi:nodetypes="ccccc" style="color:#000000;fill:url(#linearGradient5787);fill-rule:evenodd;stroke:url(#linearGradient5789);stroke-width:0.9999474;stroke-linecap:square;stroke-linejoin:round;stroke-miterlimit:0" transform="matrix(0.752527,0,0,0.752527,-669.2092,82.8027)"/>
</g>

</svg>
