<?xml version='1.0' encoding='UTF-8'?>
<!-- Created with Inkscape (http://www.inkscape.org/) and export_objects.py -->
<svg xmlns:cc="http://creativecommons.org/ns#" xmlns:dc="http://purl.org/dc/elements/1.1/" xmlns:inkscape="http://www.inkscape.org/namespaces/inkscape" xmlns:rdf="http://www.w3.org/1999/02/22-rdf-syntax-ns#" xmlns:sodipodi="http://sodipodi.sourceforge.net/DTD/sodipodi-0.dtd" xmlns:xlink="http://www.w3.org/1999/xlink" xmlns="http://www.w3.org/2000/svg" version="1.1" id="svg1" width="16" height="16" viewBox="0 0 16 16" sodipodi:docname="edit-delete-symbolic.svg"><sodipodi:namedview objecttolerance="10" gridtolerance="10" guidetolerance="10" id="namedview" showgrid="true" inkscape:zoom="0.6002936" inkscape:cx="732.67439" inkscape:cy="-567.94603" inkscape:window-width="1920" inkscape:window-height="1016" inkscape:window-x="0" inkscape:window-y="27" inkscape:window-maximized="1" inkscape:current-layer="layer1">
    <inkscape:grid type="xygrid" id="grid"/>
  </sodipodi:namedview>
  <g id="edit-delete" inkscape:label="00384">
      <title id="title34114">edit-delete</title>
      <path inkscape:connector-curvature="0" id="gtk-remove" d="M 0,0 H 16 V 16 H 0 Z" style="opacity:0;fill:none"/>
      <path inkscape:connector-curvature="0" d="M 8,1.03125 C 4.14673,1.03125 1.03125,4.14672 1.03125,8 c 0,3.85327 3.11548,6.96875 6.96875,6.96875 3.85327,0 6.96875,-3.11548 6.96875,-6.96875 C 14.96875,4.14672 11.85327,1.03125 8,1.03125 Z M 5,5 h 1 c 0.01037,0 0.02079,0 0.03125,0 0.254951,0.0112 0.50987,0.12858 0.6875,0.3125 L 8,6.59375 9.3125,5.3125 C 9.578125,5.082 9.759172,5.007 10,5 h 1 v 1 c 0,0.28647 -0.0343,0.55065 -0.25,0.75 l -1.28125,1.28125 1.25,1.25 C 10.90694,9.46942 11,9.7347 11,10 v 1 H 10 C 9.734699,10.99999 9.469414,10.9069 9.28125,10.71875 L 8,9.4375 6.71875,10.71875 C 6.530586,10.90694 6.26529,11 6,11 H 5 V 10 C 5,9.73471 5.09306,9.46942 5.28125,9.28125 L 6.5625,8.03125 5.28125,6.75 C 5.070508,6.55537 4.97809,6.28075 5,6 Z" style="opacity:1" id="path34118"/>
    </g>
    </svg>
