<?xml version="1.0" encoding="UTF-8" standalone="no"?>
<svg
   xmlns:dc="http://purl.org/dc/elements/1.1/"
   xmlns:cc="http://web.resource.org/cc/"
   xmlns:rdf="http://www.w3.org/1999/02/22-rdf-syntax-ns#"
   xmlns:svg="http://www.w3.org/2000/svg"
   xmlns="http://www.w3.org/2000/svg"
   xmlns:xlink="http://www.w3.org/1999/xlink"
   xmlns:sodipodi="http://inkscape.sourceforge.net/DTD/sodipodi-0.dtd"
   xmlns:inkscape="http://www.inkscape.org/namespaces/inkscape"
   id="svg1"
   width="24"
   height="24"
  >
  <sodipodi:namedview
     id="base"
     showgrid="true"
     gridspacingy="1pt"
     gridspacingx="1pt"
     gridoriginy="0pt"
     gridoriginx="0pt"
  />
  <defs id="defs3">

    <linearGradient id="linearGradient6524">
      <stop id="stop6526" offset="0" style="stop-color:#ffffff;stop-opacity:1"/>
      <stop id="stop6528" offset="1" style="stop-color:#e2e1e1;stop-opacity:1"/>
    </linearGradient>
    <linearGradient gradientUnits="userSpaceOnUse" id="linearGradient10133" inkscape:collect="always" x1="860.239" x2="843.9635" xlink:href="#linearGradient6524" y1="45.30668" y2="28.96459"/>
  </defs>
<g id="frmt-text-direction-vertical-lr" inkscape:label="#writing_mode_tb_lr" transform="translate(-840,-25)">
  <path d="m 841,26 22,0 1,1 0,20 -2,2 -20,0 -1,-1 0,-22 z" id="path10109" inkscape:connector-curvature="0" sodipodi:nodetypes="cccccccc" style="color:#000000;fill:#000000;fill-opacity:0.06666673;fill-rule:evenodd"/>
  <path d="m 840,26 1,0 0,20 -1,0 0,-20 z" id="path10111" inkscape:connector-curvature="0" style="color:#000000;fill:#000000;fill-rule:evenodd"/>
  <rect height="20" id="rect10113" style="color:#000000;fill:#000000;fill-rule:evenodd" width="1" x="861" y="26"/>
  <rect height="20" id="rect10115" style="color:#000000;fill:#000000;fill-rule:evenodd" transform="matrix(0,-1,1,0,0,0)" width="1" x="-26" y="841"/>
  <rect height="20" id="rect10117" style="color:#000000;fill:#000000;fill-rule:evenodd" transform="matrix(0,-1,1,0,0,0)" width="1" x="-47" y="841"/>
  <rect height="20" id="rect10119" style="color:#000000;fill:url(#linearGradient10133);fill-rule:evenodd" width="20" x="841" y="26"/>
  <path d="m 842,46 -1,0 0,-20 20,0 0,1 -19,0 0,19 z" id="path10121" inkscape:connector-curvature="0" style="fill:#ffffff;fill-rule:evenodd"/>
  <path d="m 843.5,34.7482 0,-4 c 0,-3 5,-3 5,0 l 0,4" id="path10123" inkscape:connector-curvature="0" sodipodi:nodetypes="cccc" style="fill:none;stroke:#383838;stroke-width:1.00000012px;stroke-linecap:round"/>
  <path d="m 843.3571,31.9982 5.1429,0" id="path10125" inkscape:connector-curvature="0" style="fill:none;stroke:#383838;stroke-width:1.00000012px"/>
  <path d="m 845.5492,45 2.4754,-3.0009 -2,0 0,-7 -1,0 0,7 -2,0 2.5246,3.0009 z" id="path10127" inkscape:connector-curvature="0" sodipodi:nodetypes="cccccccc" style="fill:#5a5a5a;fill-rule:evenodd"/>
  <path d="m 851.4754,45 -2.4754,-3 2,0 0,-15 1,0 0,15 2,0 -2.5246,3 z" id="path10129" inkscape:connector-curvature="0" sodipodi:nodetypes="cccccccc" style="fill:#5a5a5a;fill-rule:evenodd"/>
  <path d="M 851.4754,45 849,42 851,42 851,27 852,27 852,42 854,42 851.4754,45 Z" id="use10131" inkscape:connector-curvature="0" sodipodi:nodetypes="cccccccc" style="fill:#5a5a5a;fill-rule:evenodd" transform="matrix(1,0,0,1,6,0)"/>
</g>

</svg>
