<?xml version="1.0" encoding="UTF-8" standalone="no"?>
<svg
   xmlns="http://www.w3.org/2000/svg"
   xmlns:xlink="http://www.w3.org/1999/xlink"
   xmlns:inkscape="http://www.inkscape.org/namespaces/inkscape"
   width="24"
   height="24"
  >
  <defs>
    <linearGradient id="linearGradientA"
		    xlink:href="#linearGradientVector"
		    gradientUnits="userSpaceOnUse"
		    x1="30" x2="4" y1="25" y2="4" />
    <linearGradient id="linearGradientVector">
      <stop offset="0" style="stop-color:#ffffff"/>
      <stop offset="1" style="stop-color:#e2e1e1"/>
    </linearGradient>
  </defs>
  <g id="frmt-text-direction-vertical" inkscape:label="#writing_mode_tb">

    <!-- Background -->
    <path d="m 1,1 h 22 l 1,1 v 20 l -2,2 h -20 l -1,-1 z"
	  style="fill:black;fill-opacity:0.0667" />
    <path d="m 0.5,1  0,20" style="fill:none;stroke:black" />
    <path d="m 21.5,1 0,20" style="fill:none;stroke:black" />
    <path d="m 1,0.5  20,0" style="fill:none;stroke:black" />
    <path d="m 1,21.5 20,0" style="fill:none;stroke:black" />
    <rect x="1" y="1" width="20" height="20"  style="fill:url(#linearGradientA)" />
    <path d="m 2,21 h -1 v -20 h 20 v 1 h -19 z" style="fill:white" />

    <!-- A -->
    <path d="m 19.5,9.75 v -4 c 0,-3 -5,-3 -5,0 v 4" style="fill:none;stroke:#383838;stroke-linecap:round" />
    <path d="m 19.7,7 h -5.2" style="fill:none;stroke:#383838" />

    <!-- Arrows -->
    <path d="m 17.5,20 -2.5,-3 h 2 v -7 h 1 v 7 h 2 z" style="fill:#5a5a5a" />
    <path d="m 11.5,20 -2.5,-3 h 2 v -15 h 1 v 15 h 2 z" style="fill:#5a5a5a" />
    <path d="m 5.5,20 -2.5,-3 h 2 v -15 h 1 v 15 h 2 z" style="fill:#5a5a5a" />
  </g>
</svg>
