<?xml version="1.0" encoding="UTF-8" standalone="no"?>
<svg
   xmlns="http://www.w3.org/2000/svg"
   xmlns:xlink="http://www.w3.org/1999/xlink"
   xmlns:inkscape="http://www.inkscape.org/namespaces/inkscape"
   width="16"
   height="16"
  >

  <g id="node-transform" inkscape:label="#node_transform">
    <path d="m 0,0  v 5 l  1.5,-1.5  2,2 -1.5,1.5 h  5 v -5 l -1.5,1.5 -2,-2  1.5,-1.5 z" />   
    <path d="m 9,9  v 5 l  1.5,-1.5  2,2 -1.5,1.5 h  5 v -5 l -1.5,1.5 -2,-2  1.5,-1.5 z" />  
    <path d="m 16,0 v 5 l -1.5,-1.5 -2,2  1.5,1.5 h -5 v -5 l  1.5,1.5  2,-2 -1.5,-1.5 z" />
    <path d="m 7,9  v 5 l -1.5,-1.5 -2,2  1.5,1.5 h -5 v -5 l  1.5,1.5  2,-2 -1.5,-1.5 z" />
  </g>

</svg>
