<?xml version="1.0" encoding="UTF-8" standalone="no"?>
<svg
   xmlns:dc="http://purl.org/dc/elements/1.1/"
   xmlns:cc="http://web.resource.org/cc/"
   xmlns:rdf="http://www.w3.org/1999/02/22-rdf-syntax-ns#"
   xmlns:svg="http://www.w3.org/2000/svg"
   xmlns="http://www.w3.org/2000/svg"
   xmlns:xlink="http://www.w3.org/1999/xlink"
   xmlns:sodipodi="http://inkscape.sourceforge.net/DTD/sodipodi-0.dtd"
   xmlns:inkscape="http://www.inkscape.org/namespaces/inkscape"
   id="svg1"
   width="14.830774"
   height="15.125054"
  >
  <sodipodi:namedview
     id="base"
     showgrid="true"
     gridspacingy="1pt"
     gridspacingx="1pt"
     gridoriginy="0pt"
     gridoriginx="0pt"
  />
  <defs id="defs3">

  </defs>
<g id="object-tweak-shrink" inkscape:label="#g5082-3" style="fill:#000000" transform="translate(-372.48857,-136.97346)">
  <circle cx="375.0941" cy="137.9821" id="path5084-2" inkscape:tile-cx="375.0941" inkscape:tile-cy="137.9821" inkscape:tile-h="2.223736" inkscape:tile-w="2.223736" inkscape:tile-x0="373.9822" inkscape:tile-y0="136.8702" r="1.111868" style="color:#000000;stroke:#ffffff;stroke-width:0.2773579" transform="matrix(1.20571,0,0,1.20571,-78.25832,-27.88514)"/>
  <use height="1250" id="use5086-8" inkscape:tiled-clone-of="#path5011" style="stroke:#ffffff;stroke-width:0.2812746" transform="matrix(0.9860759,0,0,0.9860759,14.06913,1.928293)" width="1250" x="0" xlink:href="#path5084-2" y="0"/>
  <use height="1250" id="use5088-8" inkscape:tiled-clone-of="#path5011" style="stroke:#ffffff;stroke-width:0.2832711" transform="matrix(0.9791266,0,0,0.9791266,19.62171,5.917923)" width="1250" x="0" xlink:href="#path5084-2" y="0"/>
  <use height="1250" id="use5090-1" inkscape:tiled-clone-of="#path5011" style="stroke:#ffffff;stroke-width:0.3073135" transform="matrix(0.9025255,0,0,0.9025255,48.27027,19.55311)" width="1250" x="0" xlink:href="#path5084-2" y="0"/>
  <use height="1250" id="use5092-4" inkscape:tiled-clone-of="#path5011" style="stroke:#ffffff;stroke-width:0.2812758" transform="matrix(0.9860707,0,0,0.9860707,8.163368,1.928972)" width="1250" x="0" xlink:href="#path5084-2" y="0"/>
  <use height="1250" id="use5094-42" inkscape:tiled-clone-of="#path5011" style="stroke:#ffffff;stroke-width:0.2773579" transform="translate(11.81518)" width="1250" x="0" xlink:href="#path5084-2" y="0"/>
  <use height="1250" id="use5096-0" inkscape:tiled-clone-of="#path5011" style="stroke:#ffffff;stroke-width:0.3058435" transform="matrix(0.9068615,0,0,0.9068615,34.83344,18.95266)" width="1250" x="0" xlink:href="#path5084-2" y="0"/>
  <use height="1250" id="use5098-8" inkscape:tiled-clone-of="#path5011" style="stroke:#ffffff;stroke-width:0.2822113" transform="matrix(0.9828022,0,0,0.9828022,6.431961,11.46371)" width="1250" x="0" xlink:href="#path5084-2" y="0"/>
  <use height="1250" id="use5100-6" inkscape:tiled-clone-of="#path5011" style="stroke:#ffffff;stroke-width:0.3008064" transform="matrix(0.9220478,0,0,0.9220478,35.06151,10.79493)" width="1250" x="0" xlink:href="#path5084-2" y="0"/>
  <use height="1250" id="use5103-0" inkscape:tiled-clone-of="#path5011" style="stroke:#ffffff;stroke-width:0.2829629" transform="matrix(0.9801935,0,0,0.9801935,7.407717,5.770255)" width="1250" x="0" xlink:href="#path5084-2" y="0"/>
  <use height="1250" id="use5106-9" inkscape:tiled-clone-of="#path5011" style="stroke:#ffffff;stroke-width:0.451224" transform="matrix(0.6146776,0,0,0.6146776,147.0627,56.38727)" width="1250" x="0" xlink:href="#path5084-2" y="0"/>
  <use height="1250" id="use5108-2" inkscape:tiled-clone-of="#path5011" style="stroke:#ffffff;stroke-width:0.4450105" transform="matrix(0.6232617,0,0,0.6232617,143.8529,61.25332)" width="1250" x="0" xlink:href="#path5084-2" y="0"/>
  <use height="1250" id="use5110-1" inkscape:tiled-clone-of="#path5011" style="stroke:#ffffff;stroke-width:0.645537" transform="matrix(0.4296546,0,0,0.4296546,219.2145,82.00947)" width="1250" x="0" xlink:href="#path5084-2" y="0"/>
  <use height="1250" id="use5112-7" inkscape:tiled-clone-of="#path5011" style="stroke:#ffffff;stroke-width:0.4537236" transform="matrix(0.6112925,0,0,0.6112925,154.2364,56.85603)" width="1250" x="0" xlink:href="#path5084-2" y="0"/>
  <use height="1250" id="use5114-3" inkscape:tiled-clone-of="#path5011" style="stroke:#ffffff;stroke-width:0.6509216" transform="matrix(0.4261003,0,0,0.4261003,217.5898,85.52904)" width="1250" x="0" xlink:href="#path5084-2" y="0"/>
  <use height="1250" id="use5116-0" inkscape:tiled-clone-of="#path5011" style="stroke:#ffffff;stroke-width:0.633519" transform="matrix(0.4378052,0,0,0.4378052,216.1661,86.93554)" width="1250" x="0" xlink:href="#path5084-2" y="0"/>
  <use height="1250" id="use5118-6" inkscape:tiled-clone-of="#path5011" style="stroke:#ffffff;stroke-width:1.0800228" transform="matrix(0.256807,0,0,0.256807,283.8591,108.9729)" width="1250" x="0" xlink:href="#path5084-2" y="0"/>
  <use height="1250" id="use5120-92" inkscape:tiled-clone-of="#path5011" style="stroke:#ffffff;stroke-width:0.6568049" transform="matrix(0.4222839,0,0,0.4222839,224.9252,86.0576)" width="1250" x="0" xlink:href="#path5084-2" y="0"/>
  <use height="1250" id="use5122-6" inkscape:tiled-clone-of="#path5011" style="stroke:#ffffff;stroke-width:0.4480718" transform="matrix(0.6190024,0,0,0.6190024,151.3531,61.84314)" width="1250" x="0" xlink:href="#path5084-2" y="0"/>
  <use height="1250" id="use5124-2" inkscape:tiled-clone-of="#path5011" style="stroke:#ffffff;stroke-width:0.2806096" transform="matrix(0.9884129,0,0,0.9884129,13.19493,13.71404)" width="1250" x="0" xlink:href="#path5084-2" y="0"/>
  <use height="1250" id="use5126-4" inkscape:tiled-clone-of="#path5011" style="stroke:#ffffff;stroke-width:0.2829278" transform="matrix(0.9803125,0,0,0.9803125,19.17819,11.80843)" width="1250" x="0" xlink:href="#path5084-2" y="0"/>
  <use height="1250" id="use5128-4" inkscape:tiled-clone-of="#path5011" style="stroke:#ffffff;stroke-width:0.2773579" transform="translate(0,12.10946)" width="1250" x="0" xlink:href="#path5084-2" y="0"/>
  <use height="1250" id="use5130-0" inkscape:tiled-clone-of="#path5011" style="stroke:#ffffff;stroke-width:0.2802223" transform="matrix(0.9897789,0,0,0.9897789,6.776422,13.52485)" width="1250" x="0" xlink:href="#path5084-2" y="0"/>
  <use height="1250" id="use5132-1" inkscape:tiled-clone-of="#path5011" style="stroke:#ffffff;stroke-width:0.2981642" transform="matrix(0.9302193,0,0,0.9302193,32.00541,21.7728)" width="1250" x="0" xlink:href="#path5084-2" y="0"/>
  <use height="1250" id="use5134-8" inkscape:tiled-clone-of="#path5011" style="stroke:#ffffff;stroke-width:0.2773579" transform="translate(11.81518,12.10946)" width="1250" x="0" xlink:href="#path5084-2" y="0"/>
</g>

</svg>
