<?xml version="1.0" encoding="UTF-8" standalone="no"?>
<svg
   xmlns:dc="http://purl.org/dc/elements/1.1/"
   xmlns:cc="http://web.resource.org/cc/"
   xmlns:rdf="http://www.w3.org/1999/02/22-rdf-syntax-ns#"
   xmlns:svg="http://www.w3.org/2000/svg"
   xmlns="http://www.w3.org/2000/svg"
   xmlns:xlink="http://www.w3.org/1999/xlink"
   xmlns:sodipodi="http://inkscape.sourceforge.net/DTD/sodipodi-0.dtd"
   xmlns:inkscape="http://www.inkscape.org/namespaces/inkscape"
   id="svg1"
   width="15.292182"
   height="15.469867"
  >
  <sodipodi:namedview
     id="base"
     showgrid="true"
     gridspacingy="1pt"
     gridspacingx="1pt"
     gridoriginy="0pt"
     gridoriginx="0pt"
  />
  <defs id="defs3">

  </defs>
<g id="object-tweak-randomize" inkscape:label="#g5082-9" style="fill:#000000" transform="translate(-372.06367,-136.75914)">
  <circle cx="375.0941" cy="137.9821" id="path5084-3" inkscape:tile-cx="375.0941" inkscape:tile-cy="137.9821" inkscape:tile-h="2.223736" inkscape:tile-w="2.223736" inkscape:tile-x0="373.9822" inkscape:tile-y0="136.8702" r="1.111868" style="color:#000000;stroke:#ffffff;stroke-width:0.2773579" transform="matrix(1.20571,0,0,1.20571,-78.24976,-27.879)"/>
  <use height="1250" id="use5086-7" inkscape:tiled-clone-of="#path5011" style="stroke:#ffffff;stroke-width:0.2773579" transform="translate(8.561625,0.49145)" width="1250" x="0" xlink:href="#path5084-3" y="0"/>
  <use height="1250" id="use5088-6" inkscape:tiled-clone-of="#path5011" style="stroke:#ffffff;stroke-width:0.2773579" transform="translate(11.84313,2.65475)" width="1250" x="0" xlink:href="#path5084-3" y="0"/>
  <use height="1250" id="use5090-6" inkscape:tiled-clone-of="#path5011" style="stroke:#ffffff;stroke-width:0.2773579" transform="translate(11.465,6.015863)" width="1250" x="0" xlink:href="#path5084-3" y="0"/>
  <use height="1250" id="use5092-8" inkscape:tiled-clone-of="#path5011" style="stroke:#ffffff;stroke-width:0.2773579" transform="translate(2.800431,0.1644349)" width="1250" x="0" xlink:href="#path5084-3" y="0"/>
  <use height="1250" id="use5094-4" inkscape:tiled-clone-of="#path5011" style="stroke:#ffffff;stroke-width:0.2773579" transform="translate(11.808,-0.0096427)" width="1250" x="0" xlink:href="#path5084-3" y="0"/>
  <use height="1250" id="use5096-4" inkscape:tiled-clone-of="#path5011" style="stroke:#ffffff;stroke-width:0.2773579" transform="translate(-0.4334583,6.118019)" width="1250" x="0" xlink:href="#path5084-3" y="0"/>
  <use height="1250" id="use5098-4" inkscape:tiled-clone-of="#path5011" style="stroke:#ffffff;stroke-width:0.2773579" transform="translate(0.2602591,9.383794)" width="1250" x="0" xlink:href="#path5084-3" y="0"/>
  <use height="1250" id="use5100-0" inkscape:tiled-clone-of="#path5011" style="stroke:#ffffff;stroke-width:0.2773579" transform="translate(6.0991,-0.2204626)" width="1250" x="0" xlink:href="#path5084-3" y="0"/>
  <use height="1250" id="use5103-8" inkscape:tiled-clone-of="#path5011" style="stroke:#ffffff;stroke-width:0.2773579" transform="translate(0.4371078,2.794418)" width="1250" x="0" xlink:href="#path5084-3" y="0"/>
  <use height="1250" id="use5106-4" inkscape:tiled-clone-of="#path5011" style="stroke:#ffffff;stroke-width:0.2773579" transform="translate(2.823264,2.99384)" width="1250" x="0" xlink:href="#path5084-3" y="0"/>
  <use height="1250" id="use5108-9" inkscape:tiled-clone-of="#path5011" style="stroke:#ffffff;stroke-width:0.2773579" transform="translate(2.2685,8.914454)" width="1250" x="0" xlink:href="#path5084-3" y="0"/>
  <use height="1250" id="use5110-6" inkscape:tiled-clone-of="#path5011" style="stroke:#ffffff;stroke-width:0.2773579" transform="translate(7.821966,3.036785)" width="1250" x="0" xlink:href="#path5084-3" y="0"/>
  <use height="1250" id="use5112-0" inkscape:tiled-clone-of="#path5011" style="stroke:#ffffff;stroke-width:0.2773579" transform="translate(8.506131,3.395216)" width="1250" x="0" xlink:href="#path5084-3" y="0"/>
  <use height="1250" id="use5114-7" inkscape:tiled-clone-of="#path5011" style="stroke:#ffffff;stroke-width:0.2773579" transform="translate(2.865657,4.495371)" width="1250" x="0" xlink:href="#path5084-3" y="0"/>
  <use height="1250" id="use5116-9" inkscape:tiled-clone-of="#path5011" style="stroke:#ffffff;stroke-width:0.2773579" transform="translate(5.940444,8.422506)" width="1250" x="0" xlink:href="#path5084-3" y="0"/>
  <use height="1250" id="use5118-4" inkscape:tiled-clone-of="#path5011" style="stroke:#ffffff;stroke-width:0.2773579" transform="translate(6.998359,5.075075)" width="1250" x="0" xlink:href="#path5084-3" y="0"/>
  <use height="1250" id="use5120-9" inkscape:tiled-clone-of="#path5011" style="stroke:#ffffff;stroke-width:0.2773579" transform="translate(7.573388,6.436901)" width="1250" x="0" xlink:href="#path5084-3" y="0"/>
  <use height="1250" id="use5122-7" inkscape:tiled-clone-of="#path5011" style="stroke:#ffffff;stroke-width:0.2773579" transform="translate(8.395772,9.33012)" width="1250" x="0" xlink:href="#path5084-3" y="0"/>
  <use height="1250" id="use5124-1" inkscape:tiled-clone-of="#path5011" style="stroke:#ffffff;stroke-width:0.2773579" transform="translate(8.885973,11.77538)" width="1250" x="0" xlink:href="#path5084-3" y="0"/>
  <use height="1250" id="use5126-2" inkscape:tiled-clone-of="#path5011" style="stroke:#ffffff;stroke-width:0.2773579" transform="translate(11.49834,9.064573)" width="1250" x="0" xlink:href="#path5084-3" y="0"/>
  <use height="1250" id="use5128-6" inkscape:tiled-clone-of="#path5011" style="stroke:#ffffff;stroke-width:0.2773579" transform="translate(-0.009413,12.10337)" width="1250" x="0" xlink:href="#path5084-3" y="0"/>
  <use height="1250" id="use5130-6" inkscape:tiled-clone-of="#path5011" style="stroke:#ffffff;stroke-width:0.2773579" transform="translate(3.166048,12.23381)" width="1250" x="0" xlink:href="#path5084-3" y="0"/>
  <use height="1250" id="use5132-7" inkscape:tiled-clone-of="#path5011" style="stroke:#ffffff;stroke-width:0.2773579" transform="translate(5.944623,11.84999)" width="1250" x="0" xlink:href="#path5084-3" y="0"/>
  <use height="1250" id="use5134-4" inkscape:tiled-clone-of="#path5011" style="stroke:#ffffff;stroke-width:0.2773579" transform="translate(11.80662,12.10332)" width="1250" x="0" xlink:href="#path5084-3" y="0"/>
</g>

</svg>
