<?xml version="1.0" encoding="UTF-8" standalone="no"?>
<svg
   xmlns:dc="http://purl.org/dc/elements/1.1/"
   xmlns:cc="http://web.resource.org/cc/"
   xmlns:rdf="http://www.w3.org/1999/02/22-rdf-syntax-ns#"
   xmlns:svg="http://www.w3.org/2000/svg"
   xmlns="http://www.w3.org/2000/svg"
   xmlns:xlink="http://www.w3.org/1999/xlink"
   xmlns:sodipodi="http://inkscape.sourceforge.net/DTD/sodipodi-0.dtd"
   xmlns:inkscape="http://www.inkscape.org/namespaces/inkscape"
   id="svg1"
   width="14.830774"
   height="15.125054"
  >
  <sodipodi:namedview
     id="base"
     showgrid="true"
     gridspacingy="1pt"
     gridspacingx="1pt"
     gridoriginy="0pt"
     gridoriginx="0pt"
  />
  <defs id="defs3">

  </defs>
<g id="object-tweak-attract" inkscape:label="#g5082" style="fill:#000000" transform="translate(-372.48857,-136.97346)">
  <use height="1250" id="use5124" inkscape:tiled-clone-of="#path5011" style="stroke:#ffffff;stroke-width:0.2773579" transform="translate(8.861385,11.02164)" width="1250" x="0" xlink:href="#path5084" y="0"/>
  <use height="1250" id="use5130" inkscape:tiled-clone-of="#path5011" style="stroke:#ffffff;stroke-width:0.2773579" transform="translate(2.953795,11.09914)" width="1250" x="0" xlink:href="#path5084" y="0"/>
  <use height="1250" id="use5088" inkscape:tiled-clone-of="#path5011" style="stroke:#ffffff;stroke-width:0.2773579" transform="translate(11.11579,3.027365)" width="1250" x="0" xlink:href="#path5084" y="0"/>
  <use height="1250" id="use5126" inkscape:tiled-clone-of="#path5011" style="stroke:#ffffff;stroke-width:0.2773579" transform="translate(11.0383,9.082095)" width="1250" x="0" xlink:href="#path5084" y="0"/>
  <use height="1250" id="use5090" inkscape:tiled-clone-of="#path5011" style="stroke:#ffffff;stroke-width:0.2773579" transform="translate(10.38143,6.05473)" width="1250" x="0" xlink:href="#path5084" y="0"/>
  <use height="1250" id="use5132" inkscape:tiled-clone-of="#path5011" style="stroke:#ffffff;stroke-width:0.2773579" transform="translate(5.90759,10.40446)" width="1250" x="0" xlink:href="#path5084" y="0"/>
  <circle cx="375.0941" cy="137.9821" id="path5084" inkscape:tile-cx="375.0941" inkscape:tile-cy="137.9821" inkscape:tile-h="2.223736" inkscape:tile-w="2.223736" inkscape:tile-x0="373.9822" inkscape:tile-y0="136.8702" r="1.111868" style="color:#000000;stroke:#ffffff;stroke-width:0.2773579" transform="matrix(1.20571,0,0,1.20571,-78.25832,-27.88514)"/>
  <use height="1250" id="use5086" inkscape:tiled-clone-of="#path5011" style="stroke:#ffffff;stroke-width:0.2773579" transform="translate(8.706381,0.9318868)" width="1250" x="0" xlink:href="#path5084" y="0"/>
  <use height="1250" id="use5092" inkscape:tiled-clone-of="#path5011" style="stroke:#ffffff;stroke-width:0.2773579" transform="translate(2.953795,0.8543842)" width="1250" x="0" xlink:href="#path5084" y="0"/>
  <use height="1250" id="use5094" inkscape:tiled-clone-of="#path5011" style="stroke:#ffffff;stroke-width:0.2773579" transform="translate(11.81518)" width="1250" x="0" xlink:href="#path5084" y="0"/>
  <use height="1250" id="use5096" inkscape:tiled-clone-of="#path5011" style="stroke:#ffffff;stroke-width:0.2773579" transform="translate(1.317544,6.05473)" width="1250" x="0" xlink:href="#path5084" y="0"/>
  <use height="1250" id="use5098" inkscape:tiled-clone-of="#path5011" style="stroke:#ffffff;stroke-width:0.2773579" transform="translate(0.7764177,9.082095)" width="1250" x="0" xlink:href="#path5084" y="0"/>
  <use height="1250" id="use5100" inkscape:tiled-clone-of="#path5011" style="stroke:#ffffff;stroke-width:0.2773579" transform="translate(5.90759,1.588803)" width="1250" x="0" xlink:href="#path5084" y="0"/>
  <use height="1250" id="use5103" inkscape:tiled-clone-of="#path5011" style="stroke:#ffffff;stroke-width:0.2773579" transform="translate(0.6601638,3.027365)" width="1250" x="0" xlink:href="#path5084" y="0"/>
  <use height="1250" id="use5106" inkscape:tiled-clone-of="#path5011" style="stroke:#ffffff;stroke-width:0.2773579" transform="translate(3.225052,3.298622)" width="1250" x="0" xlink:href="#path5084" y="0"/>
  <use height="1250" id="use5108" inkscape:tiled-clone-of="#path5011" style="stroke:#ffffff;stroke-width:0.2773579" transform="translate(3.147551,8.733335)" width="1250" x="0" xlink:href="#path5084" y="0"/>
  <use height="1250" id="use5110" inkscape:tiled-clone-of="#path5011" style="stroke:#ffffff;stroke-width:0.2773579" transform="translate(5.90759,4.189904)" width="1250" x="0" xlink:href="#path5084" y="0"/>
  <use height="1250" id="use5112" inkscape:tiled-clone-of="#path5011" style="stroke:#ffffff;stroke-width:0.2773579" transform="translate(8.706381,3.376124)" width="1250" x="0" xlink:href="#path5084" y="0"/>
  <use height="1250" id="use5114" inkscape:tiled-clone-of="#path5011" style="stroke:#ffffff;stroke-width:0.2773579" transform="translate(3.961329,6.05473)" width="1250" x="0" xlink:href="#path5084" y="0"/>
  <use height="1250" id="use5116" inkscape:tiled-clone-of="#path5011" style="stroke:#ffffff;stroke-width:0.2773579" transform="translate(5.90759,7.764549)" width="1250" x="0" xlink:href="#path5084" y="0"/>
  <use height="1250" id="use5120" inkscape:tiled-clone-of="#path5011" style="stroke:#ffffff;stroke-width:0.2773579" transform="translate(7.698848,6.05473)" width="1250" x="0" xlink:href="#path5084" y="0"/>
  <use height="1250" id="use5118" inkscape:tiled-clone-of="#path5011" style="stroke:#ffffff;stroke-width:0.2773579" transform="translate(5.90759,6.05473)" width="1250" x="0" xlink:href="#path5084" y="0"/>
  <use height="1250" id="use5122" inkscape:tiled-clone-of="#path5011" style="stroke:#ffffff;stroke-width:0.2773579" transform="translate(8.628879,8.772087)" width="1250" x="0" xlink:href="#path5084" y="0"/>
  <use height="1250" id="use5128" inkscape:tiled-clone-of="#path5011" style="stroke:#ffffff;stroke-width:0.2773579" transform="translate(0,12.10946)" width="1250" x="0" xlink:href="#path5084" y="0"/>
  <use height="1250" id="use5134" inkscape:tiled-clone-of="#path5011" style="stroke:#ffffff;stroke-width:0.2773579" transform="translate(11.81518,12.10946)" width="1250" x="0" xlink:href="#path5084" y="0"/>
</g>

</svg>
