<?xml version="1.0" encoding="UTF-8" standalone="no"?>
<svg
   xmlns:dc="http://purl.org/dc/elements/1.1/"
   xmlns:cc="http://web.resource.org/cc/"
   xmlns:rdf="http://www.w3.org/1999/02/22-rdf-syntax-ns#"
   xmlns:svg="http://www.w3.org/2000/svg"
   xmlns="http://www.w3.org/2000/svg"
   xmlns:xlink="http://www.w3.org/1999/xlink"
   xmlns:sodipodi="http://inkscape.sourceforge.net/DTD/sodipodi-0.dtd"
   xmlns:inkscape="http://www.inkscape.org/namespaces/inkscape"
   id="svg1"
   width="15.016734"
   height="15.125054"
  >
  <sodipodi:namedview
     id="base"
     showgrid="true"
     gridspacingy="1pt"
     gridspacingx="1pt"
     gridoriginy="0pt"
     gridoriginx="0pt"
  />
  <defs id="defs3">

    <radialGradient cx="375.0941" cy="137.9821" fx="375.0941" fy="137.9821" gradientUnits="userSpaceOnUse" id="radialBlackTransparent" inkscape:collect="always" r="1.111868" xlink:href="#BlackTransparent"/>
    <linearGradient gradientUnits="userSpaceOnUse" id="BlackTransparent">
      <stop id="stop12" offset="0" style="stop-color:black;stop-opacity:1"/>
      <stop id="stop14" offset="1" style="stop-color:black;stop-opacity:0"/>
    </linearGradient>
  </defs>
<g id="object-tweak-blur" inkscape:label="#g7655" style="fill:#000000" transform="translate(-372.39474,-136.97346)">
  <circle cx="375.0941" cy="137.9821" id="path7657" inkscape:tile-cx="375.0941" inkscape:tile-cy="137.9821" inkscape:tile-h="2.223736" inkscape:tile-w="2.223736" inkscape:tile-x0="373.9822" inkscape:tile-y0="136.8702" r="1.111868" style="color:#000000;stroke:#ffffff;stroke-width:0.2773579" transform="matrix(1.20571,0,0,1.20571,-78.25832,-27.88514)"/>
  <circle cx="375.0941" cy="137.9821" id="use7660" inkscape:tile-x0="373.9822" inkscape:tile-y0="136.8702" r="1.111868" style="color:#000000;stroke:#ffffff;stroke-width:0.2773579" transform="matrix(1.188922,0,0,1.188922,-63.09951,-25.56857)"/>
  <circle cx="375.0941" cy="137.9821" id="use7662" inkscape:tile-x0="373.9822" inkscape:tile-y0="136.8702" r="1.111868" style="color:#000000;stroke:#ffffff;stroke-width:0.2773579" transform="matrix(1.180543,0,0,1.180543,-57.00309,-21.38516)"/>
  <circle cx="375.0941" cy="137.9821" id="use7664" inkscape:tile-x0="373.9822" inkscape:tile-y0="136.8702" r="1.111868" style="color:#000000;stroke:#ffffff;stroke-width:0.2773579" transform="matrix(1.088184,0,0,1.088184,-22.35986,-5.61394)"/>
  <circle cx="375.0941" cy="137.9821" id="use7666" inkscape:tile-x0="373.9822" inkscape:tile-y0="136.8702" r="1.111868" style="color:#000000;stroke:#ffffff;stroke-width:0.2773579" transform="matrix(1.188915,0,0,1.188915,-69.00487,-25.56775)"/>
  <circle cx="375.0941" cy="137.9821" id="use7668" inkscape:tile-x0="373.9822" inkscape:tile-y0="136.8702" r="1.111868" style="color:#000000;stroke:#ffffff;stroke-width:0.2773579" transform="matrix(1.20571,0,0,1.20571,-66.44314,-27.88514)"/>
  <circle cx="375.0941" cy="137.9821" id="use7670" inkscape:tile-x0="373.9822" inkscape:tile-y0="136.8702" r="1.111868" style="color:#000000;stroke:#ffffff;stroke-width:0.2773579" transform="matrix(1.093412,0,0,1.093412,-36.13602,-6.3353)"/>
  <circle cx="375.0941" cy="137.9821" id="use7672" inkscape:tile-x0="373.9822" inkscape:tile-y0="136.8702" r="1.111868" style="color:#000000;stroke:#ffffff;stroke-width:0.2773579" transform="matrix(1.184974,0,0,1.184974,-70.48049,-15.94187)"/>
  <circle cx="375.0941" cy="137.9821" id="use7674" inkscape:tile-x0="373.9822" inkscape:tile-y0="136.8702" r="1.111868" style="color:#000000;stroke:#ffffff;stroke-width:0.2773579" transform="matrix(1.111722,0,0,1.111722,-37.0964,-14.9165)"/>
  <circle cx="375.0941" cy="137.9821" id="use7676" inkscape:tile-x0="373.9822" inkscape:tile-y0="136.8702" r="1.111868" style="color:#000000;stroke:#ffffff;stroke-width:0.2773579" transform="matrix(1.181829,0,0,1.181829,-69.30058,-21.56258)"/>
  <circle cx="375.0941" cy="137.9821" id="use7678" inkscape:tile-x0="373.9822" inkscape:tile-y0="136.8702" r="1.111868" style="color:#000000;fill:url(#radialBlackTransparent);stroke-width:0.2773579" transform="matrix(1.485788,0,0,1.485788,-180.3604,-63.50353)"/>
  <circle cx="375.0941" cy="137.9821" id="use7680" inkscape:tile-x0="373.9822" inkscape:tile-y0="136.8702" r="1.111868" style="color:#000000;fill:url(#radialBlackTransparent);stroke-width:0.2773579" transform="matrix(1.485788,0,0,1.485788,-180.3597,-57.44874)"/>
  <circle cx="375.0941" cy="137.9821" id="use7682" inkscape:tile-x0="373.9822" inkscape:tile-y0="136.8702" r="1.111868" style="color:#000000;fill:url(#radialBlackTransparent);stroke-width:0.2773579" transform="matrix(1.485788,0,0,1.485788,-177.4064,-63.50356)"/>
  <circle cx="375.0941" cy="137.9821" id="use7684" inkscape:tile-x0="373.9822" inkscape:tile-y0="136.8702" r="1.111868" style="color:#000000;fill:url(#radialBlackTransparent);stroke-width:0.2773579" transform="matrix(1.485788,0,0,1.485788,-174.4526,-63.50354)"/>
  <circle cx="375.0941" cy="137.9821" id="use7686" inkscape:tile-x0="373.9822" inkscape:tile-y0="136.8702" r="1.111868" style="color:#000000;fill:url(#radialBlackTransparent);stroke-width:0.2773579" transform="matrix(1.485788,0,0,1.485788,-180.3605,-60.47619)"/>
  <circle cx="375.0941" cy="137.9821" id="use7688" inkscape:tile-x0="373.9822" inkscape:tile-y0="136.8702" r="1.111868" style="color:#000000;fill:url(#radialBlackTransparent);stroke-width:0.2773579" transform="matrix(1.4858,0,0,1.4858,-177.4101,-57.45014)"/>
  <circle cx="375.0941" cy="137.9821" id="use7692" inkscape:tile-x0="373.9822" inkscape:tile-y0="136.8702" r="1.111868" style="color:#000000;fill:url(#radialBlackTransparent);stroke-width:0.2773579" transform="matrix(1.485788,0,0,1.485788,-174.4524,-60.47613)"/>
  <circle cx="375.0941" cy="137.9821" id="use7694" inkscape:tile-x0="373.9822" inkscape:tile-y0="136.8702" r="1.111868" style="color:#000000;fill:url(#radialBlackTransparent);stroke-width:0.2773579" transform="matrix(1.492675,0,0,1.492675,-177.0357,-58.39903)"/>
  <circle cx="375.0941" cy="137.9821" id="use7696" inkscape:tile-x0="373.9822" inkscape:tile-y0="136.8702" r="1.111868" style="color:#000000;stroke:#ffffff;stroke-width:0.2773579" transform="matrix(1.191739,0,0,1.191739,-64.1566,-13.84799)"/>
  <circle cx="375.0941" cy="137.9821" id="use7698" inkscape:tile-x0="373.9822" inkscape:tile-y0="136.8702" r="1.111868" style="color:#000000;stroke:#ffffff;stroke-width:0.2773579" transform="matrix(1.181973,0,0,1.181973,-57.53942,-15.52772)"/>
  <circle cx="375.0941" cy="137.9821" id="use7700" inkscape:tile-x0="373.9822" inkscape:tile-y0="136.8702" r="1.111868" style="color:#000000;stroke:#ffffff;stroke-width:0.2773579" transform="matrix(1.20571,0,0,1.20571,-78.25832,-15.77568)"/>
  <circle cx="375.0941" cy="137.9821" id="use7702" inkscape:tile-x0="373.9822" inkscape:tile-y0="136.8702" r="1.111868" style="color:#000000;stroke:#ffffff;stroke-width:0.2773579" transform="matrix(1.193386,0,0,1.193386,-70.68201,-14.07527)"/>
  <circle cx="375.0941" cy="137.9821" id="use7704" inkscape:tile-x0="373.9822" inkscape:tile-y0="136.8702" r="1.111868" style="color:#000000;stroke:#ffffff;stroke-width:0.2773579" transform="matrix(1.121575,0,0,1.121575,-40.79199,-4.166495)"/>
  <circle cx="375.0941" cy="137.9821" id="use7706" inkscape:tile-x0="373.9822" inkscape:tile-y0="136.8702" r="1.111868" style="color:#000000;stroke:#ffffff;stroke-width:0.2773579" transform="matrix(1.20571,0,0,1.20571,-66.44314,-15.77568)"/>
  <circle cx="375.0941" cy="137.9821" id="use7690" inkscape:tile-x0="373.9822" inkscape:tile-y0="136.8702" r="1.111868" style="color:#000000;fill:url(#radialBlackTransparent);stroke-width:0.2773579" transform="matrix(6.75293,0,0,6.75293,-2153.081,-787.2478)"/>
</g>

</svg>
