<?xml version="1.0" encoding="UTF-8" standalone="no"?>
<svg
   xmlns:dc="http://purl.org/dc/elements/1.1/"
   xmlns:cc="http://web.resource.org/cc/"
   xmlns:rdf="http://www.w3.org/1999/02/22-rdf-syntax-ns#"
   xmlns:svg="http://www.w3.org/2000/svg"
   xmlns="http://www.w3.org/2000/svg"
   xmlns:xlink="http://www.w3.org/1999/xlink"
   xmlns:sodipodi="http://inkscape.sourceforge.net/DTD/sodipodi-0.dtd"
   xmlns:inkscape="http://www.inkscape.org/namespaces/inkscape"
   id="svg1"
   width="11.98896"
   height="11.88748"
  >
  <sodipodi:namedview
     id="base"
     showgrid="true"
     gridspacingy="1pt"
     gridspacingx="1pt"
     gridoriginy="0pt"
     gridoriginx="0pt"
  />
  <defs id="defs3">

  </defs>
<g clip-path="url(#clipPath5905)" id="object-tweak-duplicate" inkscape:label="#g5678" style="fill:#000000" transform="translate(-375.8356,-138.7635)">
  <circle cx="375.0941" cy="137.9821" id="use5685" inkscape:tile-x0="373.9822" inkscape:tile-y0="136.8702" r="1.111868" style="color:#000000;stroke:#ffffff;stroke-width:0.138679" transform="matrix(2.361086,0,0,2.361086,-503.8152,-187.3038)"/>
  <circle cx="375.0941" cy="137.9821" id="use5687" inkscape:tile-x0="373.9822" inkscape:tile-y0="136.8702" r="1.111868" style="color:#000000;stroke:#ffffff;stroke-width:0.138679" transform="matrix(2.176368,0,0,2.176368,-434.5286,-155.763)"/>
  <circle cx="375.0941" cy="137.9821" id="use5828" inkscape:tile-x0="373.9822" inkscape:tile-y0="136.8702" r="1.111868" style="color:#000000;stroke:#ffffff;stroke-width:0.138679" transform="matrix(2.363946,0,0,2.363946,-504.888,-175.5924)"/>
  <circle cx="375.0941" cy="137.9821" id="path5885" inkscape:tile-x0="373.9822" inkscape:tile-y0="136.8702" r="1.111868" style="color:#000000;stroke:#ffffff;stroke-width:0.138679" transform="matrix(0,2.361086,-2.361086,0,713.6548,-741.0926)"/>
  <circle cx="375.0941" cy="137.9821" id="path5889" inkscape:tile-x0="373.9822" inkscape:tile-y0="136.8702" r="1.111868" style="color:#000000;stroke:#ffffff;stroke-width:0.138679" transform="matrix(0,2.363946,-2.363946,0,701.94,-742.1654)"/>
  <circle cx="375.0941" cy="137.9821" id="path5893" inkscape:tile-x0="373.9822" inkscape:tile-y0="136.8702" r="1.111868" style="color:#000000;stroke:#ffffff;stroke-width:0.138679" transform="matrix(0,2.361086,-2.361086,0,713.6548,-747.1456)"/>
  <circle cx="375.0941" cy="137.9821" id="path5895" inkscape:tile-x0="373.9822" inkscape:tile-y0="136.8702" r="1.111868" style="color:#000000;stroke:#ffffff;stroke-width:0.138679" transform="matrix(0,2.363946,-2.363946,0,701.94,-748.2184)"/>
  <circle cx="375.0941" cy="137.9821" id="path5897" inkscape:tile-x0="373.9822" inkscape:tile-y0="136.8702" r="1.111868" style="color:#000000;stroke:#ffffff;stroke-width:0.138679" transform="matrix(0,2.361086,-2.361086,0,713.6548,-735.0396)"/>
  <circle cx="375.0941" cy="137.9821" id="path5899" inkscape:tile-x0="373.9822" inkscape:tile-y0="136.8702" r="1.111868" style="color:#000000;stroke:#ffffff;stroke-width:0.138679" transform="matrix(0,2.363946,-2.363946,0,701.94,-736.1123)"/>
  <circle cx="375.0941" cy="137.9821" id="path5909" inkscape:tile-x0="373.9822" inkscape:tile-y0="136.8702" r="1.111868" style="color:#000000;stroke:#ffffff;stroke-width:0.138679" transform="matrix(2.176368,0,0,2.176368,-433.9294,-155.2869)"/>
  <circle cx="375.0941" cy="137.9821" id="path5911" inkscape:tile-x0="373.9822" inkscape:tile-y0="136.8702" r="1.111868" style="color:#000000;stroke:#ffffff;stroke-width:0.138679" transform="matrix(2.176368,0,0,2.176368,-433.3154,-154.7343)"/>
</g>

</svg>
