<?xml version="1.0" encoding="UTF-8" standalone="no"?>
<svg
   xmlns:dc="http://purl.org/dc/elements/1.1/"
   xmlns:cc="http://web.resource.org/cc/"
   xmlns:rdf="http://www.w3.org/1999/02/22-rdf-syntax-ns#"
   xmlns:svg="http://www.w3.org/2000/svg"
   xmlns="http://www.w3.org/2000/svg"
   xmlns:xlink="http://www.w3.org/1999/xlink"
   xmlns:sodipodi="http://inkscape.sourceforge.net/DTD/sodipodi-0.dtd"
   xmlns:inkscape="http://www.inkscape.org/namespaces/inkscape"
   id="svg1"
   width="16"
   height="16"
  >
  <sodipodi:namedview
     id="base"
     showgrid="true"
     gridspacingy="1pt"
     gridspacingx="1pt"
     gridoriginy="0pt"
     gridoriginx="0pt"
  />
  <defs id="defs3">

  </defs>
<g id="object-tweak-push" inkscape:label="#g4416" transform="translate(45,-175)">
  <rect height="16" id="rect4991" style="fill:none" width="16" x="-45" y="175"/>
  <g id="g5135" style="fill:#000000" transform="translate(-416.8263,39.0012)">
    <circle cx="375.0941" cy="137.9821" id="path5011" inkscape:tile-cx="375.0941" inkscape:tile-cy="137.9821" inkscape:tile-h="2.223736" inkscape:tile-w="2.223736" inkscape:tile-x0="373.9822" inkscape:tile-y0="136.8702" r="1.111868" style="color:#000000;stroke:#ffffff;stroke-width:0.2773579" transform="matrix(1.20571,0,0,1.20571,-78.25832,-27.17581)"/>
    <use height="1250" id="use5085" inkscape:tiled-clone-of="#path5011" style="stroke:#ffffff;stroke-width:0.2773579" transform="translate(4.825002e-8,2.41142)" width="1250" x="0" xlink:href="#path5011" y="0"/>
    <use height="1250" id="use5087" inkscape:tiled-clone-of="#path5011" style="stroke:#ffffff;stroke-width:0.2773579" transform="translate(0.0067742,5.089253)" width="1250" x="0" xlink:href="#path5011" y="0"/>
    <use height="1250" id="use5091" inkscape:tiled-clone-of="#path5011" style="stroke:#ffffff;stroke-width:0.2773579" transform="translate(0.0027824,7.946541)" width="1250" x="0" xlink:href="#path5011" y="0"/>
    <use height="1250" id="use5095" inkscape:tiled-clone-of="#path5011" style="stroke:#ffffff;stroke-width:0.2773579" transform="translate(2.959973,-0.63416)" width="1250" x="0" xlink:href="#path5011" y="0"/>
    <use height="1250" id="use5097" inkscape:tiled-clone-of="#path5011" style="stroke:#ffffff;stroke-width:0.2773579" transform="translate(3.006247,0.88896)" width="1250" x="0" xlink:href="#path5011" y="0"/>
    <use height="1250" id="use5099" inkscape:tiled-clone-of="#path5011" style="stroke:#ffffff;stroke-width:0.2773579" transform="translate(3.034311,2.716243)" width="1250" x="0" xlink:href="#path5011" y="0"/>
    <use height="1250" id="use5101" inkscape:tiled-clone-of="#path5011" style="stroke:#ffffff;stroke-width:0.2773579" transform="translate(2.998324,5.976212)" width="1250" x="0" xlink:href="#path5011" y="0"/>
    <use height="1250" id="use5105" inkscape:tiled-clone-of="#path5011" style="stroke:#ffffff;stroke-width:0.2773579" transform="translate(5.922205,-0.70933)" width="1250" x="0" xlink:href="#path5011" y="0"/>
    <use height="1250" id="use5107" inkscape:tiled-clone-of="#path5011" style="stroke:#ffffff;stroke-width:0.2773579" transform="translate(5.986644,0.3787152)" width="1250" x="0" xlink:href="#path5011" y="0"/>
    <use height="1250" id="use5109" inkscape:tiled-clone-of="#path5011" style="stroke:#ffffff;stroke-width:0.2773579" transform="translate(6.028303,2.049693)" width="1250" x="0" xlink:href="#path5011" y="0"/>
    <use height="1250" id="use5111" inkscape:tiled-clone-of="#path5011" style="stroke:#ffffff;stroke-width:0.2773579" transform="translate(5.985226,4.82628)" width="1250" x="0" xlink:href="#path5011" y="0"/>
    <use height="1250" id="use5115" inkscape:tiled-clone-of="#path5011" style="stroke:#ffffff;stroke-width:0.2773579" transform="translate(8.86036,-0.67653)" width="1250" x="0" xlink:href="#path5011" y="0"/>
    <use height="1250" id="use5117" inkscape:tiled-clone-of="#path5011" style="stroke:#ffffff;stroke-width:0.2773579" transform="translate(8.908855,0.84335)" width="1250" x="0" xlink:href="#path5011" y="0"/>
    <use height="1250" id="use5119" inkscape:tiled-clone-of="#path5011" style="stroke:#ffffff;stroke-width:0.2773579" transform="translate(8.937926,2.560875)" width="1250" x="0" xlink:href="#path5011" y="0"/>
    <use height="1250" id="use5121" inkscape:tiled-clone-of="#path5011" style="stroke:#ffffff;stroke-width:0.2773579" transform="translate(8.901517,5.920781)" width="1250" x="0" xlink:href="#path5011" y="0"/>
    <use height="1250" id="use5125" inkscape:tiled-clone-of="#path5011" style="stroke:#ffffff;stroke-width:0.2773579" transform="translate(11.79723,-0.00985)" width="1250" x="0" xlink:href="#path5011" y="0"/>
    <use height="1250" id="use5127" inkscape:tiled-clone-of="#path5011" style="stroke:#ffffff;stroke-width:0.2773579" transform="translate(11.80716,2.53059)" width="1250" x="0" xlink:href="#path5011" y="0"/>
    <use height="1250" id="use5129" inkscape:tiled-clone-of="#path5011" style="stroke:#ffffff;stroke-width:0.2773579" transform="translate(11.81518,5.183143)" width="1250" x="0" xlink:href="#path5011" y="0"/>
    <use height="1250" id="use5131" inkscape:tiled-clone-of="#path5011" style="stroke:#ffffff;stroke-width:0.2773579" transform="translate(11.80214,7.912301)" width="1250" x="0" xlink:href="#path5011" y="0"/>
    <use height="1250" id="use5136" inkscape:tiled-clone-of="#path5011" style="stroke:#ffffff;stroke-width:0.2773579" transform="translate(0.0027824,10.71149)" width="1250" x="0" xlink:href="#path5011" y="0"/>
    <use height="1250" id="use5138" inkscape:tiled-clone-of="#path5011" style="stroke:#ffffff;stroke-width:0.2773579" transform="translate(2.998324,9.724665)" width="1250" x="0" xlink:href="#path5011" y="0"/>
    <use height="1250" id="use5140" inkscape:tiled-clone-of="#path5011" style="stroke:#ffffff;stroke-width:0.2773579" transform="translate(5.985226,9.503606)" width="1250" x="0" xlink:href="#path5011" y="0"/>
    <use height="1250" id="use5142" inkscape:tiled-clone-of="#path5011" style="stroke:#ffffff;stroke-width:0.2773579" transform="translate(8.901517,9.887791)" width="1250" x="0" xlink:href="#path5011" y="0"/>
    <use height="1250" id="use5144" inkscape:tiled-clone-of="#path5011" style="stroke:#ffffff;stroke-width:0.2773579" transform="translate(11.80214,10.67725)" width="1250" x="0" xlink:href="#path5011" y="0"/>
  </g>
</g>

</svg>
