<?xml version="1.0" encoding="UTF-8" standalone="no"?>
<svg
   xmlns:dc="http://purl.org/dc/elements/1.1/"
   xmlns:cc="http://web.resource.org/cc/"
   xmlns:rdf="http://www.w3.org/1999/02/22-rdf-syntax-ns#"
   xmlns:svg="http://www.w3.org/2000/svg"
   xmlns="http://www.w3.org/2000/svg"
   xmlns:xlink="http://www.w3.org/1999/xlink"
   xmlns:sodipodi="http://inkscape.sourceforge.net/DTD/sodipodi-0.dtd"
   xmlns:inkscape="http://www.inkscape.org/namespaces/inkscape"
   id="svg1"
   width="16.059534"
   height="16"
  >
  <sodipodi:namedview
     id="base"
     showgrid="true"
     gridspacingy="1pt"
     gridspacingx="1pt"
     gridoriginy="0pt"
     gridoriginx="0pt"
  />
  <defs id="defs3">

    <linearGradient gradientTransform="rotate(90,-37.4946,182.5022)" gradientUnits="userSpaceOnUse" id="linearGradient6731" inkscape:collect="always" x1="-37.33073" x2="-33.69472" xlink:href="#linearGradient5704" y1="187.863" y2="178.6575"/>
    <linearGradient gradientUnits="userSpaceOnUse" id="linearGradient6690" inkscape:collect="always" x1="-42.30934" x2="-40.58511" xlink:href="#linearGradient6684" y1="189.5493" y2="183.8145"/>
    <linearGradient id="linearGradient5704">
      <stop id="stop5706" offset="0" style="stop-color:#5a5a5a;stop-opacity:1"/>
      <stop id="stop5708" offset="1" style="stop-color:#000000;stop-opacity:1"/>
    </linearGradient>
    <linearGradient id="linearGradient6684">
      <stop id="stop6686" offset="0" style="stop-color:#ffbf00;stop-opacity:1"/>
      <stop id="stop6688" offset="1" style="stop-color:#ffffff;stop-opacity:1"/>
    </linearGradient>
  </defs>
<g id="object-rotate-left" inkscape:label="#object_rotate_90_CCW" transform="matrix(-1,0,0,1,-28.94047,-175)">
  <rect height="16" id="rect7457" style="color:#000000;fill:none" width="16" x="-45" y="175"/>
  <path d="M -37.5,175.5 -37.5,190.5 -43.5,190.5 -37.5,175.5 Z" id="path7459" inkscape:connector-curvature="0" sodipodi:nodetypes="cccc" style="color:#000000;fill:#000000;fill-rule:evenodd;stroke:#000000;stroke-width:1.0000002;stroke-linecap:round;stroke-linejoin:round;stroke-miterlimit:0"/>
  <path d="M -29.5,188.5 -44.5,188.5 -44.5,182.5 -29.5,188.5 Z" id="path7461" inkscape:connector-curvature="0" sodipodi:nodetypes="cccc" style="color:#000000;fill:url(#linearGradient6690);fill-rule:evenodd;stroke:url(#linearGradient6731);stroke-width:1.0000006;stroke-linecap:round;stroke-linejoin:round;stroke-miterlimit:0"/>
  <path d="M -36.03125,176.9687 -36.03125,177.9687 -33.03125,177.9687 -32.01635,178.9609 -31.01635,178.9609 -33.03125,176.9687 -36.03125,176.9687 -36.03125,176.9688 Z" id="use7610" inkscape:connector-curvature="0" sodipodi:nodetypes="cccccccc" style="color:#000000;-inkscape-font-specification:'Bitstream Vera Sans';fill:#000000;stroke-width:1px"/>
  <path d="M 199,207 199,208 202,208 203.0312,209 203.0312,212.0312 201.0312,212.0312 203.5312,215.0312 206.0312,212.0312 204.0312,212.0312 204.0312,209 202,207 199,207 Z" id="use5439" inkscape:connector-curvature="0" style="fill:#000000;fill-rule:evenodd" transform="matrix(1,0,0,1,-234.971666,-30.0386631345)"/>
</g>

</svg>
