<?xml version="1.0" encoding="UTF-8" standalone="no"?>
<svg
   xmlns:dc="http://purl.org/dc/elements/1.1/"
   xmlns:cc="http://web.resource.org/cc/"
   xmlns:rdf="http://www.w3.org/1999/02/22-rdf-syntax-ns#"
   xmlns:svg="http://www.w3.org/2000/svg"
   xmlns="http://www.w3.org/2000/svg"
   xmlns:xlink="http://www.w3.org/1999/xlink"
   xmlns:sodipodi="http://inkscape.sourceforge.net/DTD/sodipodi-0.dtd"
   xmlns:inkscape="http://www.inkscape.org/namespaces/inkscape"
   id="svg1"
   width="20"
   height="20"
  >
  <sodipodi:namedview
     id="base"
     showgrid="true"
     gridspacingy="1pt"
     gridspacingx="1pt"
     gridoriginy="0pt"
     gridoriginx="0pt"
  />
  <defs id="defs3">

  </defs>
<g id="paint-pattern" inkscape:label="#fill_pattern" transform="translate(-669.9994,-65)">
  <rect height="18" id="rect4541" inkscape:label="#ccc" style="color:#000000;fill:#99b6d4;fill-rule:evenodd;stroke-width:1.0000004" width="18" x="671" y="66"/>
  <path d="M 676.7274,66.00001 673.4547,69.42858 677.5456,73.7143 681.6365,69.42858 678.3638,66.00001 676.7274,66.00001 Z M 681.6365,69.42858 685.7274,73.7143 689.0001,70.28572 689.0001,68.57144 686.5456,66.00001 684.9092,66.00001 681.6365,69.42858 Z M 685.7274,73.7143 681.6365,78.00001 685.7274,82.28573 689.0001,78.85715 689.0001,77.14287 685.7274,73.7143 Z M 685.7274,82.28573 684.091,84.00001 687.3638,84.00001 685.7274,82.28573 Z M 681.6365,78.00001 677.5456,73.7143 673.4547,78.00001 677.5456,82.28573 681.6365,78.00001 Z M 677.5456,82.28573 675.9092,84.00001 679.1819,84.00001 677.5456,82.28573 Z M 673.4547,78.00001 671.0001,75.42858 671.0001,80.57144 673.4547,78.00001 Z M 673.4547,69.42858 671.0001,66.85715 671.0001,72.00001 673.4547,69.42858 Z" id="rect4545" inkscape:connector-curvature="0" style="fill:#ffffff;stroke:#000000;stroke-width:0;stroke-linejoin:round"/>
  <rect height="19" id="rect4381" style="color:#000000;fill:none;stroke:#000000;stroke-width:1px;stroke-linecap:round;stroke-linejoin:round" width="19" x="670.4994" y="65.5"/>
</g>

</svg>
