<?xml version="1.0" encoding="UTF-8" standalone="no"?>
<svg
   xmlns:dc="http://purl.org/dc/elements/1.1/"
   xmlns:cc="http://web.resource.org/cc/"
   xmlns:rdf="http://www.w3.org/1999/02/22-rdf-syntax-ns#"
   xmlns:svg="http://www.w3.org/2000/svg"
   xmlns="http://www.w3.org/2000/svg"
   xmlns:xlink="http://www.w3.org/1999/xlink"
   xmlns:sodipodi="http://inkscape.sourceforge.net/DTD/sodipodi-0.dtd"
   xmlns:inkscape="http://www.inkscape.org/namespaces/inkscape"
   id="svg1"
   width="18.99992"
   height="20.028918"
  >
  <sodipodi:namedview
     id="base"
     showgrid="true"
     gridspacingy="1pt"
     gridspacingx="1pt"
     gridoriginy="0pt"
     gridoriginx="0pt"
  />
  <defs id="defs3">

  </defs>
<g id="paint-unknown" inkscape:label="#fill_unset" transform="matrix(0.791665,0,0,0.833336,-726.6623,-13.48484)">
  <g id="g2496" transform="matrix(0.959998,0,0,0.96,344.8925,1.216355)">
    <rect height="24.99999" id="rect2499" style="fill:none;stroke-width:0.0520834" width="25" x="596.8749" y="15.62504"/>
  </g>
  <path d="M 930.6839,16.18176 C 932.6605,16.18178 934.4131,16.63394 935.9414,17.53823 937.6736,18.57445 938.5397,19.9686 938.5397,21.72069 938.5397,23.19022 938.0098,24.34887 936.9502,25.19666 L 934.0463,27.42465 C 933.0885,28.00869 933.0885,28.63983 933.0885,29.69486 L 926.7203,29.69486 C 926.371,27.11114 927.5253,26.39788 928.4219,25.58776 928.6664,25.36169 929.6965,24.61431 930.8978,23.64236 931.6467,23.03653 932.2428,22.70038 932.2428,22.00329 932.2428,21.51347 932.0288,21.11783 931.6009,20.81638 931.1933,20.51495 930.7042,20.36424 930.1337,20.36422 929.5019,20.36424 928.4154,20.5903 928.3849,22.4837 L 928.4154,23.41628 922.1186,23.41628 C 922.1186,22.2859 922.3631,20.79755 922.8522,19.96858 923.3209,19.1208 924.0239,18.40488 924.9613,17.82082 926.5101,16.84117 928.1366,16.18178 930.6839,16.18176 M 926.8066,31.89421 933.0424,31.89421 933.0424,37.78169 926.8066,37.78169 926.8066,31.89421" id="text2490" inkscape:connector-curvature="0" sodipodi:nodetypes="ccsccccsssssccccscccccc" style="fill:#000000"/>
</g>

</svg>
