<?xml version="1.0" encoding="UTF-8" standalone="no"?>
<svg
   xmlns:dc="http://purl.org/dc/elements/1.1/"
   xmlns:cc="http://web.resource.org/cc/"
   xmlns:rdf="http://www.w3.org/1999/02/22-rdf-syntax-ns#"
   xmlns:svg="http://www.w3.org/2000/svg"
   xmlns="http://www.w3.org/2000/svg"
   xmlns:xlink="http://www.w3.org/1999/xlink"
   xmlns:sodipodi="http://inkscape.sourceforge.net/DTD/sodipodi-0.dtd"
   xmlns:inkscape="http://www.inkscape.org/namespaces/inkscape"
   id="svg1"
   width="16.00967"
   height="15.96088"
  >
  <sodipodi:namedview
     id="base"
     showgrid="true"
     gridspacingy="1pt"
     gridspacingx="1pt"
     gridoriginy="0pt"
     gridoriginx="0pt"
  />
  <defs id="defs3">

  </defs>
<g id="path-division" inkscape:label="#division" transform="translate(-314.90643,-209)">
  <path d="M 235.5312,170.5312 235.5312,180.5 245.625,180.5 245.5312,176.4375 C 245.3576,176.454 245.2092,176.5312 245.0312,176.5312 241.9952,176.5312 239.5313,174.0673 239.5312,171.0312 239.5312,170.8533 239.6085,170.7049 239.625,170.5312 L 235.5312,170.5312 Z" id="rect10930" inkscape:connector-curvature="0" sodipodi:nodetypes="ccccsscc" style="color:#000000;fill:#99b7d6;fill-opacity:0.7019608;fill-rule:evenodd;stroke:#000000;stroke-width:1.0000002;stroke-linejoin:round;stroke-miterlimit:0" transform="translate(79.87523,43.96088)"/>
  <path d="M 224,155.5 C 224,152.464 226.464,150 229.5,150 232.536,150 235,152.464 235,155.5 235,158.536 232.536,161 229.5,161" id="path10924" inkscape:connector-curvature="0" sodipodi:nodetypes="cscs" style="color:#000000;fill:none;stroke:#c80000;stroke-linejoin:round;stroke-miterlimit:0;stroke-dasharray:1, 1" transform="translate(95.4161,59.5)"/>
  <path d="M 319.469,214.4609 C 319.4524,214.6345 319.3752,214.7829 319.3752,214.9609 319.3752,217.9969 321.8392,220.4609 324.8752,220.4609 325.0532,220.4609 325.2016,220.3837 325.3752,220.3671 L 325.3752,214.4609 319.469,214.4609 Z" id="path5727" inkscape:connector-curvature="0" style="color:#000000;fill:#99b7d6;fill-opacity:0.7019608;fill-rule:evenodd;stroke:#000000;stroke-width:1.0000002;stroke-linejoin:round;stroke-miterlimit:0"/>
</g>

</svg>
