<?xml version="1.0" encoding="UTF-8" standalone="no"?>
<svg
   xmlns:dc="http://purl.org/dc/elements/1.1/"
   xmlns:cc="http://web.resource.org/cc/"
   xmlns:rdf="http://www.w3.org/1999/02/22-rdf-syntax-ns#"
   xmlns:svg="http://www.w3.org/2000/svg"
   xmlns="http://www.w3.org/2000/svg"
   xmlns:xlink="http://www.w3.org/1999/xlink"
   xmlns:sodipodi="http://inkscape.sourceforge.net/DTD/sodipodi-0.dtd"
   xmlns:inkscape="http://www.inkscape.org/namespaces/inkscape"
   id="svg1"
   width="16"
   height="16.039"
  >
  <sodipodi:namedview
     id="base"
     showgrid="true"
     gridspacingy="1pt"
     gridspacingx="1pt"
     gridoriginy="0pt"
     gridoriginx="0pt"
  />
  <defs id="defs3">

  </defs>
<g id="path-offset-dynamic" inkscape:label="#dynamic_offset" transform="translate(-289.95913,-154.961)">
  <path d="M 290.5,155.5 290.5,163.5 C 293.5,163.5 297.5,167.5 297.5,170.5 L 305.5,170.5 C 305.5,162.5 298.5,155.5 290.5,155.5 Z" id="path10779" inkscape:connector-curvature="0" sodipodi:nodetypes="ccccc" style="fill:#8ab3de;fill-rule:evenodd"/>
  <path d="M 290.7799,163.2201 C 293.7799,163.2201 297.7799,167.2201 297.7799,170.2201" id="path10783" inkscape:connector-curvature="0" sodipodi:nodetypes="cc" style="fill:none;stroke:#000000;stroke-linecap:round;stroke-dasharray:1, 2"/>
  <path d="M 290.5,159.5 C 295.5,159.5 301.5,164.5 301.5,170.5" id="path10787" inkscape:connector-curvature="0" sodipodi:nodetypes="cc" style="color:#000000;fill:none;stroke:#000000;stroke-linecap:round"/>
  <rect height="3.023564" id="use5699" style="color:#000000;fill:#6464ff;fill-opacity:0.3921569;fill-rule:evenodd;stroke:#0000ff;stroke-width:1.0000025;stroke-linecap:round;stroke-linejoin:round;stroke-miterlimit:0" transform="matrix(1,0,0,1,335.9487,-14.03415)" width="3.009614" x="-178.495" y="-39.5126"/>
  <path d="M 290.5,155.5 C 298.5,155.5 305.5,162.5 305.5,170.5" id="use5710" inkscape:connector-curvature="0" sodipodi:nodetypes="cc" style="color:#000000;fill:none;stroke:#000000;stroke-linecap:round;stroke-dasharray:1, 2" transform="matrix(1,0,0,1,-0.04087,-0.039)"/>
  <path d="M 290.5,170.5 290.5,162.5 C 294.5,162.5 298.5,166.5 298.5,170.5 L 290.5,170.5 Z" id="use5695" inkscape:connector-curvature="0" sodipodi:nodetypes="cccc" style="color:#000000;fill:#99b6d4;fill-opacity:0.59;fill-rule:evenodd;stroke-width:1px" transform="matrix(1,0,0,1,-0.04087,-0.039)"/>
</g>

</svg>
