<?xml version="1.0" encoding="UTF-8" standalone="no"?>
<svg
   xmlns:dc="http://purl.org/dc/elements/1.1/"
   xmlns:cc="http://web.resource.org/cc/"
   xmlns:rdf="http://www.w3.org/1999/02/22-rdf-syntax-ns#"
   xmlns:svg="http://www.w3.org/2000/svg"
   xmlns="http://www.w3.org/2000/svg"
   xmlns:xlink="http://www.w3.org/1999/xlink"
   xmlns:sodipodi="http://inkscape.sourceforge.net/DTD/sodipodi-0.dtd"
   xmlns:inkscape="http://www.inkscape.org/namespaces/inkscape"
   id="svg1"
   width="16"
   height="16"
  >
  <sodipodi:namedview
     id="base"
     showgrid="true"
     gridspacingy="1pt"
     gridspacingx="1pt"
     gridoriginy="0pt"
     gridoriginx="0pt"
  />
  <defs id="defs3">

    <linearGradient gradientTransform="matrix(0.6644326,0,0,0.6364719,-764.818,59.2438)" gradientUnits="userSpaceOnUse" id="linearGradient4453" inkscape:collect="always" x1="1096.518" x2="1096.518" xlink:href="#linearGradient1610" y1="181.3308" y2="209.1681"/>
    <linearGradient id="linearGradient1610">
      <stop id="stop1611" offset="0" style="stop-color:#000000;stop-opacity:1"/>
      <stop id="stop3053" offset="0.35076979" style="stop-color:#7f7f7f;stop-opacity:1"/>
      <stop id="stop3054" offset="0.59668732" style="stop-color:#bfbfbf;stop-opacity:1"/>
      <stop id="stop3055" offset="0.78382427" style="stop-color:#dfdfdf;stop-opacity:1"/>
      <stop id="stop1612" offset="1" style="stop-color:#ffffff;stop-opacity:1"/>
    </linearGradient>
  </defs>
<g id="path-tweak-roughen" inkscape:label="#g4416" transform="translate(45,-175)">
  <rect height="16" id="rect4446" style="color:#000000;fill:none" width="16" x="-45" y="175"/>
  <path d="M -44.25871,180.0349 -42.17829,181.5673 -41.23529,179.6783 -40.30299,181.2751 -37.44512,178.1377 -35.9,180.3197 -34.80075,179.1774 -32.13533,181.6011 -29.84463,179.9331 -29.84463,183.0536 -29.84463,184.0723 -29.84463,185.091 -29.84463,186.1097 -32.07052,187.013 -34.08315,186.3631 -32.00367,188.7335 -37.10857,186.5805 -40.25586,187.5167 -39.27382,184.4013 -42.11409,187.2305 -44.25871,186.1097 -44.25871,185.091 -44.25871,184.0723 -44.25871,183.0536 -44.25871,180.0349 Z" id="path4448" inkscape:connector-curvature="0" sodipodi:nodetypes="ccccccccccccccccccccccccc" style="color:#000000;fill:url(#linearGradient4453);stroke-width:0.6138721"/>
  <path d="M -29.84463,186.1097 -32.07052,187.013 -34.08315,186.3631 -32.00367,188.7335 -37.10857,186.5805 -40.25586,187.5167 -39.27382,184.4013 -42.11409,187.2305 -44.25871,186.1097 M -44.25871,180.0349 -42.17829,181.5673 -41.23529,179.6783 -40.30299,181.2751 -37.44512,178.1377 -35.9,180.3197 -34.80075,179.1774 -32.13533,181.6011 -29.84463,179.9331" id="path4576" inkscape:connector-curvature="0" sodipodi:nodetypes="cccccccccccccccccc" style="color:#000000;fill:none;stroke:#000000;stroke-width:0.6138721"/>
</g>

</svg>
