<?xml version="1.0" encoding="UTF-8" standalone="no"?>
<svg
   xmlns="http://www.w3.org/2000/svg"
   xmlns:xlink="http://www.w3.org/1999/xlink"
   xmlns:inkscape="http://www.inkscape.org/namespaces/inkscape"
   width="16"
   height="16"
  >

  <g id="path-effect-parameter-next" inkscape:label="#path_effect_parameter_next">
    <path d="m 2,5.2 c -1.3,4.6 0.6,6.6 0.9,6.6 0.6,0.1 3.7,-0.8 4.3,-1.5 -0.7,-0.8 -1.5,-1.2 -2.6,-2 -1,-0.7 -2.3,-1.5 -2.6,-3.1 z m 2.5,-1.2 c -0.3,0.8 -0.2,1.6 0.2,2.3 0.3,0.6 0.9,1 1.5,1.3 0.5,0.2 1.1,0.4 1.8,0.4 -1.5,-0.9 -2.3,-1.6 -2.9,-2.4 -0.5,-0.8 -0.6,-1.5 -0.6,-1.6 z m 2.8,-1 c -1,2 0.4,2.8 1.8,3.1 -1.3,-1 -1.9,-2.7 -1.8,-3.1 z m 3.5,-2.5 c -0.6,0.3 -0.5,1.1 -0.8,1.5 -0.5,0.7 -1,0.9 -0.8,1.4 0.4,0.8 0.5,0.4 1.5,0.5 0.3,0 1.3,1 1.6,0.9 -1,-1.5 -1.5,-2.7 -1.5,-4.3 z" style="fill:white;stroke:#4d4d4d;stroke-linejoin:round"/>
    <path d="m 2,13 c 1,-5 6,-10 11,-11"       style="fill:none;stroke:green"/>

    <circle cx="2" cy="14" r="1" style="fill:none;stroke:blue"/>
    <circle cx="14" cy="2" r="1" style="fill:none;stroke:blue"/>

    <!-- Triangle Arrow -->
    <path d="m 15.5,7.5 v 0 8 0 -4 l -6,4 v -8 l 6,4 z" style="fill:#ffd400;stroke:#222222;stroke-linecap:round;stroke-linejoin:round"/>
    <path d="m 10.5,13.6 3.2,-2.125" style="fill:none;stroke:white;stroke-linecap:round"/>
  </g>

</svg>
