<?xml version="1.0" encoding="UTF-8" standalone="no"?>
<svg
   xmlns:dc="http://purl.org/dc/elements/1.1/"
   xmlns:cc="http://web.resource.org/cc/"
   xmlns:rdf="http://www.w3.org/1999/02/22-rdf-syntax-ns#"
   xmlns:svg="http://www.w3.org/2000/svg"
   xmlns="http://www.w3.org/2000/svg"
   xmlns:xlink="http://www.w3.org/1999/xlink"
   xmlns:sodipodi="http://inkscape.sourceforge.net/DTD/sodipodi-0.dtd"
   xmlns:inkscape="http://www.inkscape.org/namespaces/inkscape"
   id="svg1"
   width="16"
   height="16"
  >
  <sodipodi:namedview
     id="base"
     showgrid="true"
     gridspacingy="1pt"
     gridspacingx="1pt"
     gridoriginy="0pt"
     gridoriginx="0pt"
  />
  <defs id="defs3">

    <linearGradient gradientTransform="matrix(0.6644326,0,0,0.6364719,-764.818,59.51422)" gradientUnits="userSpaceOnUse" id="linearGradient4428" inkscape:collect="always" x1="1095.32" x2="1095.32" xlink:href="#linearGradient1610" y1="178.1412" y2="206.9573"/>
    <linearGradient id="linearGradient1610">
      <stop id="stop1611" offset="0" style="stop-color:#000000;stop-opacity:1"/>
      <stop id="stop3053" offset="0.35076979" style="stop-color:#7f7f7f;stop-opacity:1"/>
      <stop id="stop3054" offset="0.59668732" style="stop-color:#bfbfbf;stop-opacity:1"/>
      <stop id="stop3055" offset="0.78382427" style="stop-color:#dfdfdf;stop-opacity:1"/>
      <stop id="stop1612" offset="1" style="stop-color:#ffffff;stop-opacity:1"/>
    </linearGradient>
  </defs>
<g id="path-tweak-push" inkscape:label="#g4416" transform="translate(45,-175)">
  <rect height="16" id="rect4418" style="color:#000000;fill:none" width="16" x="-45" y="175"/>
  <path d="M -44.25871,182.3053 C -41.14192,182.3454 -41.65281,178.8302 -37.00556,178.8744 -32.35831,178.9187 -33.7846,182.4061 -29.84463,182.3053 L -29.84463,186.3802 C -33.3901,186.3802 -34.1418,182.6887 -37.01137,182.6849 -40.19964,182.6809 -40.7966,186.3802 -44.25871,186.3802 L -44.25871,182.3053 Z" id="path4426" inkscape:connector-curvature="0" sodipodi:nodetypes="czccscc" style="color:#000000;fill:url(#linearGradient4428);stroke-width:0.6138721"/>
  <path d="M -29.84463,186.3802 C -33.3901,186.3802 -34.1418,182.6887 -37.01137,182.6849 -40.19964,182.6809 -40.7966,186.3802 -44.25871,186.3802 M -44.25871,182.3053 C -41.14192,182.3454 -41.65281,178.8302 -37.00556,178.8744 -32.35831,178.9187 -33.7846,182.4061 -29.84463,182.3053" id="path4444" inkscape:connector-curvature="0" sodipodi:nodetypes="cscczc" style="color:#000000;fill:none;stroke:#000000;stroke-width:0.6138721"/>
</g>

</svg>
