<?xml version="1.0" encoding="UTF-8" standalone="no"?>
<svg
   xmlns:dc="http://purl.org/dc/elements/1.1/"
   xmlns:cc="http://web.resource.org/cc/"
   xmlns:rdf="http://www.w3.org/1999/02/22-rdf-syntax-ns#"
   xmlns:svg="http://www.w3.org/2000/svg"
   xmlns="http://www.w3.org/2000/svg"
   xmlns:xlink="http://www.w3.org/1999/xlink"
   xmlns:sodipodi="http://inkscape.sourceforge.net/DTD/sodipodi-0.dtd"
   xmlns:inkscape="http://www.inkscape.org/namespaces/inkscape"
   id="svg1"
   width="16.000015"
   height="16"
  >
  <sodipodi:namedview
     id="base"
     showgrid="true"
     gridspacingy="1pt"
     gridspacingx="1pt"
     gridoriginy="0pt"
     gridoriginx="0pt"
  />
  <defs id="defs3">

    <linearGradient gradientUnits="userSpaceOnUse" id="linearGradient10399" inkscape:collect="always" x1="255.513" x2="264.6582" xlink:href="#linearGradient1610" y1="92.579" y2="83.39406"/>
    <linearGradient id="linearGradient1610">
      <stop id="stop1611" offset="0" style="stop-color:#000000;stop-opacity:1"/>
      <stop id="stop3053" offset="0.35076979" style="stop-color:#7f7f7f;stop-opacity:1"/>
      <stop id="stop3054" offset="0.59668732" style="stop-color:#bfbfbf;stop-opacity:1"/>
      <stop id="stop3055" offset="0.78382427" style="stop-color:#dfdfdf;stop-opacity:1"/>
      <stop id="stop1612" offset="1" style="stop-color:#ffffff;stop-opacity:1"/>
    </linearGradient>
  </defs>
<g id="pixelart-trace" inkscape:label="#g10374" transform="translate(-253.43819,-81.171336)">
  <g id="g10366" transform="translate(4.748695,-1.046956)">
    <rect height="8" id="rect10358" style="fill:#ff0000" width="8" x="248.6895" y="82.21829"/>
    <rect height="8" id="rect10364" style="fill:#00ff00" width="8" x="248.6895" y="90.21829"/>
    <rect height="8" id="rect10362" style="fill:#ffff00" width="8" x="256.6895" y="90.21829"/>
    <rect height="8" id="rect10360" style="fill:#0000ff" width="8" x="256.6895" y="82.21829"/>
  </g>
  <g id="g10339" transform="translate(2.35278,0.184832)">
    <path d="M 256.013,84.079 C 256.013,84.079 260.1779,83.14391 262.513,85.479 264.8481,87.81409 264.013,92.079 264.013,92.079" id="path9547" inkscape:connector-curvature="0" sodipodi:nodetypes="czc" style="fill:none;stroke:url(#linearGradient10399);stroke-width:1px"/>
    <rect height="1" id="rect9507" style="fill:#000000" width="1" x="255.5127" y="90.57895"/>
    <rect height="1" id="rect9509" style="fill:#cccccc" width="1" x="255.5127" y="83.57895"/>
    <rect height="1" id="rect9513" style="fill:#4d4d4d" width="1" x="254.5127" y="89.57895"/>
    <rect height="1" id="rect9515" style="fill:#4d4d4d" width="1" x="254.5127" y="88.57895"/>
    <rect height="1" id="rect9517" style="fill:#808080" width="1" x="253.5127" y="87.57895"/>
    <rect height="1" id="rect9519" style="fill:#808080" width="1" x="253.5127" y="86.57895"/>
    <rect height="1" id="rect9521" style="fill:#b3b3b3" width="1" x="254.5127" y="85.57895"/>
    <rect height="1" id="rect9523" style="fill:#b3b3b3" width="1" x="254.5127" y="84.57895"/>
    <rect height="1" id="rect9525" style="fill:#000000" width="1" x="256.5127" y="91.57895"/>
    <rect height="1" id="rect9527" style="fill:#4d4d4d" width="1" x="257.5127" y="92.57895"/>
    <rect height="1" id="rect9531" style="fill:#4d4d4d" width="1" x="258.5127" y="92.57895"/>
    <rect height="1" id="rect9533" style="fill:#808080" width="1" x="259.5127" y="93.57895"/>
    <rect height="1" id="rect9535" style="fill:#808080" width="1" x="260.5127" y="93.57895"/>
    <rect height="1" id="rect9537" style="fill:#b3b3b3" width="1" x="261.5127" y="92.57895"/>
    <rect height="1" id="rect9539" style="fill:#b3b3b3" width="1" x="262.5127" y="92.57895"/>
    <rect height="1" id="rect9541" style="fill:#cccccc" width="1" x="263.5127" y="91.57895"/>
  </g>
</g>

</svg>
