<?xml version="1.0" encoding="UTF-8" standalone="no"?>
<svg
   xmlns:dc="http://purl.org/dc/elements/1.1/"
   xmlns:cc="http://web.resource.org/cc/"
   xmlns:rdf="http://www.w3.org/1999/02/22-rdf-syntax-ns#"
   xmlns:svg="http://www.w3.org/2000/svg"
   xmlns="http://www.w3.org/2000/svg"
   xmlns:xlink="http://www.w3.org/1999/xlink"
   xmlns:sodipodi="http://inkscape.sourceforge.net/DTD/sodipodi-0.dtd"
   xmlns:inkscape="http://www.inkscape.org/namespaces/inkscape"
   id="svg1"
   width="16.041"
   height="16.0391"
  >
  <sodipodi:namedview
     id="base"
     showgrid="true"
     gridspacingy="1pt"
     gridspacingx="1pt"
     gridoriginy="0pt"
     gridoriginx="0pt"
  />
  <defs id="defs3">

  </defs>
<g id="show-guides" inkscape:label="#guides" transform="translate(-404.959,-219.9609)">
  <rect height="16" id="rect13315" style="color:#000000;fill:none;stroke-width:0.7" width="16" x="405" y="220"/>
  <path d="M 105.5,258.5 106.5,258.5" id="path5974" inkscape:connector-curvature="0" style="fill:none;stroke:#000000;stroke-width:1px;stroke-linecap:square" transform="translate(304.959,-25.03912)"/>
  <path d="M 105.5,258.5 106.5,258.5" id="use5976" inkscape:connector-curvature="0" style="fill:none;stroke:#000000;stroke-width:1px;stroke-linecap:square" transform="matrix(1,0,0,1,304.959,-25.03912)"/>
  <path d="M 105.5,258.5 106.5,258.5" id="use5978" inkscape:connector-curvature="0" style="fill:none;stroke:#000000;stroke-width:1px;stroke-linecap:square" transform="matrix(1,0,0,1,304.959,-25.03912)"/>
  <path d="M 105.5,258.5 106.5,258.5" id="use5980" inkscape:connector-curvature="0" style="fill:none;stroke:#000000;stroke-width:1px;stroke-linecap:square" transform="matrix(1,0,0,1,304.959,-25.03912)"/>
  <path d="M 407.459,230.4609 407.459,229.4609" id="path5982" inkscape:connector-curvature="0" style="fill:none;stroke:#000000;stroke-width:1px;stroke-linecap:square"/>
  <path d="M 407.459,230.4609 407.459,229.4609" id="use5984" inkscape:connector-curvature="0" style="fill:none;stroke:#000000;stroke-width:1px;stroke-linecap:square" transform="matrix(1,0,0,1,0,-3)"/>
  <path d="M 407.459,230.4609 407.459,229.4609" id="use5986" inkscape:connector-curvature="0" style="fill:none;stroke:#000000;stroke-width:1px;stroke-linecap:square" transform="matrix(1,0,0,1,0,-6)"/>
  <path d="M 407.459,230.4609 407.459,229.4609" id="use5988" inkscape:connector-curvature="0" style="fill:none;stroke:#000000;stroke-width:1px;stroke-linecap:square" transform="matrix(1,0,0,1,0,-9)"/>
  <path d="M 405.459,233.4609 408.459,233.4609" id="path5990" inkscape:connector-curvature="0" sodipodi:nodetypes="cc" style="fill:none;stroke:#000000;stroke-width:1px;stroke-linecap:square"/>
  <path d="M 407.459,235.4609 407.459,232.4609" id="path5992" inkscape:connector-curvature="0" sodipodi:nodetypes="cc" style="fill:none;stroke:#000000;stroke-width:1px;stroke-linecap:square"/>
</g>

</svg>
