<?xml version="1.0" encoding="UTF-8" standalone="no"?>
<svg
   xmlns:dc="http://purl.org/dc/elements/1.1/"
   xmlns:cc="http://web.resource.org/cc/"
   xmlns:rdf="http://www.w3.org/1999/02/22-rdf-syntax-ns#"
   xmlns:svg="http://www.w3.org/2000/svg"
   xmlns="http://www.w3.org/2000/svg"
   xmlns:xlink="http://www.w3.org/1999/xlink"
   xmlns:sodipodi="http://inkscape.sourceforge.net/DTD/sodipodi-0.dtd"
   xmlns:inkscape="http://www.inkscape.org/namespaces/inkscape"
   id="svg1"
   width="16.041"
   height="16.039128"
  >
  <sodipodi:namedview
     id="base"
     showgrid="true"
     gridspacingy="1pt"
     gridspacingx="1pt"
     gridoriginy="0pt"
     gridoriginx="0pt"
  />
  <defs id="defs3">

  </defs>
<g id="show-grid" inkscape:label="#grid" transform="translate(-404.959,-219.960871)">
  <rect height="16" id="rect13175" style="color:#000000;fill:none;stroke-width:0.7" width="16" x="405" y="220"/>
  <rect height="1" id="rect13046" style="color:#000000;fill:#000000;fill-rule:evenodd;stroke-width:0.7" width="1" x="405" y="220"/>
  <rect height="1" id="use5896" style="color:#000000;fill:#000000;fill-rule:evenodd;stroke-width:0.7" transform="matrix(1,0,0,1,2.959,-0.039128)" width="1" x="405" y="220"/>
  <rect height="1" id="use5898" style="color:#000000;fill:#000000;fill-rule:evenodd;stroke-width:0.7" transform="matrix(1,0,0,1,5.959,-0.039128)" width="1" x="405" y="220"/>
  <rect height="1" id="use5900" style="color:#000000;fill:#000000;fill-rule:evenodd;stroke-width:0.7" transform="matrix(1,0,0,1,8.959,-0.039128)" width="1" x="405" y="220"/>
  <rect height="1" id="use5902" style="color:#000000;fill:#000000;fill-rule:evenodd;stroke-width:0.7" transform="matrix(1,0,0,1,11.959,-0.039128)" width="1" x="405" y="220"/>
  <rect height="1" id="use5904" style="color:#000000;fill:#000000;fill-rule:evenodd;stroke-width:0.7" transform="matrix(1,0,0,1,14.959,-0.039128)" width="1" x="405" y="220"/>
  <rect height="1" id="use5906" style="color:#000000;fill:#000000;fill-rule:evenodd;stroke-width:0.7" transform="matrix(1,0,0,1,-0.041,2.960872)" width="1" x="405" y="220"/>
  <rect height="1" id="use5908" style="color:#000000;fill:#000000;fill-rule:evenodd;stroke-width:0.7" transform="matrix(1,0,0,1,2.959,2.960872)" width="1" x="405" y="220"/>
  <rect height="1" id="use5910" style="color:#000000;fill:#000000;fill-rule:evenodd;stroke-width:0.7" transform="matrix(1,0,0,1,5.959,2.960872)" width="1" x="405" y="220"/>
  <rect height="1" id="use5912" style="color:#000000;fill:#000000;fill-rule:evenodd;stroke-width:0.7" transform="matrix(1,0,0,1,8.959,2.960872)" width="1" x="405" y="220"/>
  <rect height="1" id="use5914" style="color:#000000;fill:#000000;fill-rule:evenodd;stroke-width:0.7" transform="matrix(1,0,0,1,11.959,2.960872)" width="1" x="405" y="220"/>
  <rect height="1" id="use5916" style="color:#000000;fill:#000000;fill-rule:evenodd;stroke-width:0.7" transform="matrix(1,0,0,1,14.959,2.960872)" width="1" x="405" y="220"/>
  <rect height="1" id="use5918" style="color:#000000;fill:#000000;fill-rule:evenodd;stroke-width:0.7" transform="matrix(1,0,0,1,-0.041,5.960872)" width="1" x="405" y="220"/>
  <rect height="1" id="use5920" style="color:#000000;fill:#000000;fill-rule:evenodd;stroke-width:0.7" transform="matrix(1,0,0,1,2.959,5.960872)" width="1" x="405" y="220"/>
  <rect height="1" id="use5922" style="color:#000000;fill:#000000;fill-rule:evenodd;stroke-width:0.7" transform="matrix(1,0,0,1,5.959,5.960872)" width="1" x="405" y="220"/>
  <rect height="1" id="use5924" style="color:#000000;fill:#000000;fill-rule:evenodd;stroke-width:0.7" transform="matrix(1,0,0,1,8.959,5.960872)" width="1" x="405" y="220"/>
  <rect height="1" id="use5926" style="color:#000000;fill:#000000;fill-rule:evenodd;stroke-width:0.7" transform="matrix(1,0,0,1,11.959,5.960872)" width="1" x="405" y="220"/>
  <rect height="1" id="use5928" style="color:#000000;fill:#000000;fill-rule:evenodd;stroke-width:0.7" transform="matrix(1,0,0,1,14.959,5.960872)" width="1" x="405" y="220"/>
  <rect height="1" id="use5930" style="color:#000000;fill:#000000;fill-rule:evenodd;stroke-width:0.7" transform="matrix(1,0,0,1,-0.041,8.960872)" width="1" x="405" y="220"/>
  <rect height="1" id="use5932" style="color:#000000;fill:#000000;fill-rule:evenodd;stroke-width:0.7" transform="matrix(1,0,0,1,2.959,8.960872)" width="1" x="405" y="220"/>
  <rect height="1" id="use5934" style="color:#000000;fill:#000000;fill-rule:evenodd;stroke-width:0.7" transform="matrix(1,0,0,1,5.959,8.960872)" width="1" x="405" y="220"/>
  <rect height="1" id="use5936" style="color:#000000;fill:#000000;fill-rule:evenodd;stroke-width:0.7" transform="matrix(1,0,0,1,8.959,8.960872)" width="1" x="405" y="220"/>
  <rect height="1" id="use5938" style="color:#000000;fill:#000000;fill-rule:evenodd;stroke-width:0.7" transform="matrix(1,0,0,1,11.959,8.960872)" width="1" x="405" y="220"/>
  <rect height="1" id="use5940" style="color:#000000;fill:#000000;fill-rule:evenodd;stroke-width:0.7" transform="matrix(1,0,0,1,14.959,8.960872)" width="1" x="405" y="220"/>
  <rect height="1" id="use5942" style="color:#000000;fill:#000000;fill-rule:evenodd;stroke-width:0.7" transform="matrix(1,0,0,1,-0.041,11.96087)" width="1" x="405" y="220"/>
  <rect height="1" id="use5944" style="color:#000000;fill:#000000;fill-rule:evenodd;stroke-width:0.7" transform="matrix(1,0,0,1,2.959,11.96087)" width="1" x="405" y="220"/>
  <rect height="1" id="use5946" style="color:#000000;fill:#000000;fill-rule:evenodd;stroke-width:0.7" transform="matrix(1,0,0,1,5.959,11.96087)" width="1" x="405" y="220"/>
  <rect height="1" id="use5948" style="color:#000000;fill:#000000;fill-rule:evenodd;stroke-width:0.7" transform="matrix(1,0,0,1,8.959,11.96087)" width="1" x="405" y="220"/>
  <rect height="1" id="use5950" style="color:#000000;fill:#000000;fill-rule:evenodd;stroke-width:0.7" transform="matrix(1,0,0,1,11.959,11.96087)" width="1" x="405" y="220"/>
  <rect height="1" id="use5952" style="color:#000000;fill:#000000;fill-rule:evenodd;stroke-width:0.7" transform="matrix(1,0,0,1,14.959,11.96087)" width="1" x="405" y="220"/>
  <rect height="1" id="use5954" style="color:#000000;fill:#000000;fill-rule:evenodd;stroke-width:0.7" transform="matrix(1,0,0,1,-0.041,14.96087)" width="1" x="405" y="220"/>
  <rect height="1" id="use5956" style="color:#000000;fill:#000000;fill-rule:evenodd;stroke-width:0.7" transform="matrix(1,0,0,1,2.959,14.96087)" width="1" x="405" y="220"/>
  <rect height="1" id="use5958" style="color:#000000;fill:#000000;fill-rule:evenodd;stroke-width:0.7" transform="matrix(1,0,0,1,5.959,14.96087)" width="1" x="405" y="220"/>
  <rect height="1" id="use5960" style="color:#000000;fill:#000000;fill-rule:evenodd;stroke-width:0.7" transform="matrix(1,0,0,1,8.959,14.96087)" width="1" x="405" y="220"/>
  <rect height="1" id="use5962" style="color:#000000;fill:#000000;fill-rule:evenodd;stroke-width:0.7" transform="matrix(1,0,0,1,11.959,14.96087)" width="1" x="405" y="220"/>
  <rect height="1" id="use5964" style="color:#000000;fill:#000000;fill-rule:evenodd;stroke-width:0.7" transform="matrix(1,0,0,1,14.959,14.96087)" width="1" x="405" y="220"/>
</g>

</svg>
