<?xml version="1.0" encoding="UTF-8" standalone="no"?>
<svg
   xmlns:dc="http://purl.org/dc/elements/1.1/"
   xmlns:cc="http://web.resource.org/cc/"
   xmlns:rdf="http://www.w3.org/1999/02/22-rdf-syntax-ns#"
   xmlns:svg="http://www.w3.org/2000/svg"
   xmlns="http://www.w3.org/2000/svg"
   xmlns:xlink="http://www.w3.org/1999/xlink"
   xmlns:sodipodi="http://inkscape.sourceforge.net/DTD/sodipodi-0.dtd"
   xmlns:inkscape="http://www.inkscape.org/namespaces/inkscape"
   id="svg1"
   width="29.631635"
   height="26.445578"
  >
  <sodipodi:namedview
     id="base"
     showgrid="true"
     gridspacingy="1pt"
     gridspacingx="1pt"
     gridoriginy="0pt"
     gridoriginx="0pt"
  />
  <defs id="defs3">

    <linearGradient id="linearGradient6618">
      <stop id="stop6620" offset="0" style="stop-color:#1caf19;stop-opacity:1"/>
      <stop id="stop6622" offset="1" style="stop-color:#6df668;stop-opacity:1"/>
    </linearGradient>
    <linearGradient gradientTransform="translate(0.3379059,-0.1655273)" gradientUnits="userSpaceOnUse" id="linearGradient6583-7" inkscape:collect="always" x1="371.2368" x2="395.2692" xlink:href="#linearGradient6618" y1="322.8861" y2="322.8861"/>
    <linearGradient gradientTransform="matrix(0.8269532,0,0,0.8236011,90.7184,44.23329)" gradientUnits="userSpaceOnUse" id="linearGradient5783-6-3" inkscape:collect="always" x1="348.6006" x2="375.3615" xlink:href="#linearGradient6618" y1="338.0772" y2="318.0103"/>
  </defs>
<g id="spray-mode-clone" inkscape:label="#g5793" transform="translate(-371.57471,-306.05262)">
  <path d="M 373.3679,331.8837 C 372.7742,331.8837 372.2742,332.3836 372.2742,332.9774 L 372.2742,341.1649 365.6492,341.1649 C 365.0554,341.1649 364.5554,341.6336 364.5554,342.2274 L 364.5554,361.1962 C 364.5554,361.6101 364.8073,361.955 365.1492,362.1337 365.1752,362.1473 365.1845,362.1847 365.2117,362.1962 365.39,362.5393 365.7343,362.7899 366.1492,362.7899 L 390.7742,362.7899 C 391.368,362.7899 391.868,362.3212 391.8679,361.7274 L 391.8679,353.0087 397.9929,353.0087 C 398.5867,353.0087 399.0555,352.54 399.0554,351.9462 L 399.0554,332.9774 C 399.0554,332.3836 398.5867,331.8837 397.9929,331.8837 L 373.3679,331.8837 Z" id="path6442" inkscape:connector-curvature="0" style="fill:#000000;stroke:#000000;stroke-width:1.2" transform="matrix(0.8269532,0,0,0.8236011,70.70512,33.207)"/>
  <g id="g5785">
    <g id="g5780">
      <rect height="17.38762" id="rect6446" ry="0.8827677" style="fill:url(#linearGradient5783-6-3);stroke:#000000;stroke-width:0.99" width="22.14235" x="378.569" y="306.5587"/>
    </g>
    <g id="g5775">
      <rect height="21.11171" id="rect6450" ry="1.071839" style="fill:#000000;stroke:#000000;stroke-width:1.2" transform="matrix(0.8269532,0,0,0.8236011,80.49886,-10.47411)" width="26.77582" x="353.2349" y="394.7184"/>
      <rect height="17.38762" id="rect6452" ry="0.8827677" style="fill:url(#linearGradient6583-7);stroke:#c2c2c2;stroke-width:1.89;stroke-miterlimit:4.1999998" width="22.14235" x="372.5197" y="314.0268"/>
      <rect height="17.38762" id="rect6585" ry="0.8827677" style="fill:none;stroke:#000000;stroke-width:1.89;stroke-miterlimit:4.1999998;stroke-dasharray:3.78, 3.78" width="22.14235" x="372.5197" y="314.0268"/>
    </g>
  </g>
</g>

</svg>
