<?xml version="1.0" encoding="UTF-8" standalone="no"?>
<svg
   xmlns:dc="http://purl.org/dc/elements/1.1/"
   xmlns:cc="http://web.resource.org/cc/"
   xmlns:rdf="http://www.w3.org/1999/02/22-rdf-syntax-ns#"
   xmlns:svg="http://www.w3.org/2000/svg"
   xmlns="http://www.w3.org/2000/svg"
   xmlns:xlink="http://www.w3.org/1999/xlink"
   xmlns:sodipodi="http://inkscape.sourceforge.net/DTD/sodipodi-0.dtd"
   xmlns:inkscape="http://www.inkscape.org/namespaces/inkscape"
   id="svg1"
   width="30.558198"
   height="26.445583"
  >
  <sodipodi:namedview
     id="base"
     showgrid="true"
     gridspacingy="1pt"
     gridspacingx="1pt"
     gridoriginy="0pt"
     gridoriginx="0pt"
  />
  <defs id="defs3">

    <linearGradient gradientTransform="translate(19.05203,-3.089519)" gradientUnits="userSpaceOnUse" id="linearGradient6466-2" x1="348.6006" x2="375.3615" xlink:href="#linearGradient6618" y1="338.0772" y2="318.0103"/>
    <linearGradient id="linearGradient6618">
      <stop id="stop6620" offset="0" style="stop-color:#1caf19;stop-opacity:1"/>
      <stop id="stop6622" offset="1" style="stop-color:#6df668;stop-opacity:1"/>
    </linearGradient>
    <linearGradient gradientTransform="translate(4.119358,37.58914)" gradientUnits="userSpaceOnUse" id="linearGradient6468-0" x1="348.6006" x2="375.3615" xlink:href="#linearGradient6618" y1="338.0772" y2="318.0103"/>
  </defs>
<g id="spray-mode-copy" transform="matrix(0.8557944,0,0,0.8106021,-307.06434,-255.18257)">
  <path d="M 368.2187,315.4062 C 367.625,315.4062 367.125,315.9062 367.125,316.5 L 367.125,324.6875 360.5,324.6875 C 359.9062,324.6875 359.4062,325.1562 359.4062,325.75 L 359.4062,344.7187 C 359.4062,345.1327 359.6581,345.4775 360,345.6562 360.026,345.6698 360.0353,345.7072 360.0625,345.7187 360.2408,346.0619 360.5851,346.3125 361,346.3125 L 385.625,346.3125 C 386.2188,346.3125 386.7188,345.8438 386.7187,345.25 L 386.7187,336.5312 392.8437,336.5312 C 393.4375,336.5312 393.9063,336.0626 393.9062,335.4687 L 393.9062,316.5 C 393.9062,315.9062 393.4375,315.4062 392.8437,315.4062 L 368.2187,315.4062 Z" id="rect6196" inkscape:connector-curvature="0" style="fill:#000000;stroke:#000000;stroke-width:1.2"/>
  <g id="g6335" transform="translate(-3.545057e-7,0.5149192)">
    <rect height="21.11171" id="rect6337" ry="1.071839" style="fill:url(#linearGradient6466-2);stroke:#000000;stroke-width:1.2" width="26.77582" x="367.1378" y="315.4208"/>
    <g id="g6339" transform="translate(7.208876,-31.4101)">
      <rect height="21.11171" id="rect6341" ry="1.071839" style="fill:#000000;stroke:#000000;stroke-width:1.2" width="26.77582" x="352.72" y="356.6143"/>
      <rect height="21.11171" id="rect6343" ry="1.071839" style="fill:url(#linearGradient6468-0);stroke:#000000;stroke-width:1.2" width="26.77582" x="352.2051" y="356.0994"/>
    </g>
  </g>
</g>

</svg>
