<?xml version="1.0" encoding="UTF-8" standalone="no"?>
<svg
   xmlns:dc="http://purl.org/dc/elements/1.1/"
   xmlns:cc="http://web.resource.org/cc/"
   xmlns:rdf="http://www.w3.org/1999/02/22-rdf-syntax-ns#"
   xmlns:svg="http://www.w3.org/2000/svg"
   xmlns="http://www.w3.org/2000/svg"
   xmlns:xlink="http://www.w3.org/1999/xlink"
   xmlns:sodipodi="http://inkscape.sourceforge.net/DTD/sodipodi-0.dtd"
   xmlns:inkscape="http://www.inkscape.org/namespaces/inkscape"
   id="svg1"
   width="16"
   height="16"
  >
  <sodipodi:namedview
     id="base"
     showgrid="true"
     gridspacingy="1pt"
     gridspacingx="1pt"
     gridoriginy="0pt"
     gridoriginx="0pt"
  />
  <defs id="defs3">

    <linearGradient id="linearGradient5740">
      <stop id="stop5742" offset="0" style="stop-color:#ffffff;stop-opacity:1"/>
      <stop id="stop5744" offset="1" style="stop-color:#98b6d3;stop-opacity:1"/>
    </linearGradient>
    <linearGradient gradientTransform="matrix(2.499161,0,0,1.671823,-82.24308,-178.7565)" gradientUnits="userSpaceOnUse" id="linearGradient5545-0-70" inkscape:collect="always" x1="161.736" x2="164.3598" xlink:href="#linearGradient5740" y1="172.2059" y2="180.6826"/>
    <linearGradient id="linearGradient5704">
      <stop id="stop5706" offset="0" style="stop-color:#5a5a5a;stop-opacity:1"/>
      <stop id="stop5708" offset="1" style="stop-color:#000000;stop-opacity:1"/>
    </linearGradient>
    <linearGradient gradientTransform="matrix(1,0,0,0.997925,315.4232,-138.2771)" gradientUnits="userSpaceOnUse" id="linearGradient15270-5" inkscape:collect="always" x1="-815.2852" x2="-557.8917" xlink:href="#linearGradient5704" y1="115.2545" y2="376.4393"/>
  </defs>
<g id="symbols" inkscape:label="#symbols" transform="translate(-319.423,-108.194)">
  <rect height="16" id="rect14677" style="color:#000000;fill:#ff07f5;fill-opacity:0;fill-rule:evenodd;stroke-width:0.9868108" width="16" x="319.423" y="108.194"/>
  <path d="M 321.4694,109.627 C 325.4824,108.4924 329.457,108.3482 333.3766,109.627 332.4143,112.6883 333.2424,115.5915 332.8513,118.5393 332.529,120.9684 330.1322,122.4298 327.4581,123.6656 325.2231,122.4245 322.5151,121.4377 322.0298,118.5393 321.5371,115.5973 322.3342,111.8965 321.4694,109.627 Z" id="path13801" inkscape:connector-curvature="0" sodipodi:nodetypes="ccscsc" style="color:#000000;fill:url(#linearGradient5545-0-70);fill-rule:evenodd;stroke:#000000;stroke-width:1.0000007;stroke-linejoin:round;stroke-miterlimit:0"/>
  <g id="g14615" style="color:#000000;fill:url(#linearGradient15270-5);fill-rule:evenodd" transform="matrix(0.0362255,0,0,0.0374743,341.0312,112.2468)">
    <path d="M -477.8634,129.033 C -525.6256,93.68458 -437.3889,30.32002 -406.5889,99.87521 -375.7888,169.4304 -429.5858,207.6033 -446.2757,164.6702 -428.8608,164.5632 -412.1147,145.3545 -432.5068,116.074 -452.899,86.79346 -476.4068,97.43427 -477.8634,129.033 Z" id="path13803" inkscape:connector-curvature="0" sodipodi:nodetypes="czczc"/>
    <path d="M -406.5888,201.5225 C -363.777,163.166 -382.1057,79.29995 -426.0273,42.77461 -416.9104,15.273 -401.3604,-9.214447 -375.0013,-28.09496 -353.5282,-11.39881 -334.7341,8.935762 -323.9752,42.77461 -370.9234,76.33181 -386.2968,164.4648 -343.4137,201.5225 -351.1706,216.0243 -356.7218,232.671 -375.0012,238.7548 -389.3257,233.7161 -400.9014,219.5169 -406.5888,201.5225 Z" id="path13805" inkscape:connector-curvature="0" sodipodi:nodetypes="ccccccc"/>
    <path d="M -273.4425,129.033 C -225.6803,93.68458 -313.917,30.32002 -344.717,99.87521 -375.5171,169.4304 -321.7201,207.6033 -305.0302,164.6702 -322.4451,164.5632 -339.1912,145.3545 -318.7991,116.074 -298.4069,86.79346 -274.8991,97.43427 -273.4425,129.033 Z" id="path13807" inkscape:connector-curvature="0" inkscape:transform-center-x="-68.84826" inkscape:transform-center-y="-7.288905" sodipodi:nodetypes="czczc"/>
    <path d="M -443.0312,121.4688 A 10.001,10.001 0 1 0 -443.0312,141.4688 L -307.7812,141.4688 A 10.001,10.001 0 1 0 -307.7812,121.4688 L -443.0312,121.4688 Z" id="path13809" inkscape:connector-curvature="0" style="-inkscape-font-specification:sans-serif;stroke-width:20"/>
  </g>
</g>

</svg>
