<?xml version="1.0" encoding="UTF-8" standalone="no"?>
<svg
   xmlns:dc="http://purl.org/dc/elements/1.1/"
   xmlns:cc="http://web.resource.org/cc/"
   xmlns:rdf="http://www.w3.org/1999/02/22-rdf-syntax-ns#"
   xmlns:svg="http://www.w3.org/2000/svg"
   xmlns="http://www.w3.org/2000/svg"
   xmlns:xlink="http://www.w3.org/1999/xlink"
   xmlns:sodipodi="http://inkscape.sourceforge.net/DTD/sodipodi-0.dtd"
   xmlns:inkscape="http://www.inkscape.org/namespaces/inkscape"
   id="svg1"
   width="16.006859"
   height="16.006948"
  >
  <sodipodi:namedview
     id="base"
     showgrid="true"
     gridspacingy="1pt"
     gridspacingx="1pt"
     gridoriginy="0pt"
     gridoriginx="0pt"
  />
  <defs id="defs3">

    <linearGradient gradientTransform="matrix(0.533827,0,0,0.532126,226.8053,-40.17395)" gradientUnits="userSpaceOnUse" id="linearGradient15141" inkscape:collect="always" x1="121.1177" x2="130.3522" xlink:href="#linearGradient1887" y1="343.258" y2="350.1636"/>
    <linearGradient id="linearGradient1887">
      <stop id="stop1888" offset="0" style="stop-color:#fffdf8;stop-opacity:1"/>
      <stop id="stop1889" offset="1" style="stop-color:#cdccc7;stop-opacity:1"/>
    </linearGradient>
    <linearGradient gradientTransform="translate(158,-105)" gradientUnits="userSpaceOnUse" id="linearGradient15121" inkscape:collect="always" x1="148" x2="143.2251" xlink:href="#linearGradient1610" y1="214.8174" y2="215.9465"/>
    <linearGradient gradientTransform="matrix(0.735355,0,0,0.733012,215.5241,-110.6465)" gradientUnits="userSpaceOnUse" id="linearGradient15119" inkscape:collect="always" x1="121.1177" x2="130.3522" xlink:href="#linearGradient1887" y1="343.258" y2="350.1636"/>
    <linearGradient gradientTransform="translate(158,-105)" gradientUnits="userSpaceOnUse" id="linearGradient15135" inkscape:collect="always" x1="148" x2="143.2251" xlink:href="#linearGradient1610" y1="214.8174" y2="215.9465"/>
    <linearGradient id="linearGradient1610">
      <stop id="stop1611" offset="0" style="stop-color:#000000;stop-opacity:1"/>
      <stop id="stop3053" offset="0.35076979" style="stop-color:#7f7f7f;stop-opacity:1"/>
      <stop id="stop3054" offset="0.59668732" style="stop-color:#bfbfbf;stop-opacity:1"/>
      <stop id="stop3055" offset="0.78382427" style="stop-color:#dfdfdf;stop-opacity:1"/>
      <stop id="stop1612" offset="1" style="stop-color:#ffffff;stop-opacity:1"/>
    </linearGradient>
  </defs>
<g id="text-convert-to-regular" inkscape:label="#convert_to_text" transform="translate(-280.99312,-130.99301)">
  <g id="g15109" transform="matrix(0.725945,0,0,0.725944,63.34671,33.14915)">
    <rect height="11.02972" id="rect15111" style="color:#000000;fill:url(#linearGradient15119);fill-rule:evenodd;stroke:#000000;stroke-width:1.3775157;stroke-linecap:round;stroke-linejoin:round" width="11.02971" x="300.4999" y="135.4703"/>
    <g id="g15113" transform="matrix(0.5,0,0,0.5,153,87)">
      <path d="M 302,115 304,113 304,102 301,102 299,104 298,104 298,100 314,100 314,104 313,104 311,102 308,102 308,113 310,115 310,116 302,116 302,115 Z" id="path15115" inkscape:connector-curvature="0" sodipodi:nodetypes="ccccccccccccccccc" style="fill:#000000;fill-rule:evenodd"/>
      <path d="M 304,115 305,114 305,102 307,102 307,114 308,115 304,115 Z" id="path15117" inkscape:connector-curvature="0" inkscape:label="#object_font" style="fill:url(#linearGradient15121);fill-rule:evenodd"/>
    </g>
  </g>
  <rect height="8.006958" id="rect15125" ry="0" style="color:#000000;fill:url(#linearGradient15141);fill-rule:evenodd;stroke:#3465a4;stroke-linecap:square;stroke-dasharray:1, 2" width="8.006964" x="288.493" y="138.493"/>
  <g id="g15127" transform="matrix(0.362972,0,0,0.362972,181.4162,103.3063)">
    <path d="M 302,115 304,113 304,102 301,102 299,104 298,104 298,100 314,100 314,104 313,104 311,102 308,102 308,113 310,115 310,116 302,116 302,115 Z" id="path15129" inkscape:connector-curvature="0" sodipodi:nodetypes="ccccccccccccccccc" style="fill:#000000;fill-rule:evenodd"/>
    <path d="M 304,115 305,114 305,102 307,102 307,114 308,115 304,115 Z" id="path15131" inkscape:connector-curvature="0" inkscape:label="#object_font" style="fill:url(#linearGradient15135);fill-rule:evenodd"/>
  </g>
</g>

</svg>
