<?xml version="1.0" encoding="UTF-8" standalone="no"?>
<svg
   xmlns:dc="http://purl.org/dc/elements/1.1/"
   xmlns:cc="http://web.resource.org/cc/"
   xmlns:rdf="http://www.w3.org/1999/02/22-rdf-syntax-ns#"
   xmlns:svg="http://www.w3.org/2000/svg"
   xmlns="http://www.w3.org/2000/svg"
   xmlns:xlink="http://www.w3.org/1999/xlink"
   xmlns:sodipodi="http://inkscape.sourceforge.net/DTD/sodipodi-0.dtd"
   xmlns:inkscape="http://www.inkscape.org/namespaces/inkscape"
   id="svg1"
   width="15.99917"
   height="16.00001"
  >
  <sodipodi:namedview
     id="base"
     showgrid="true"
     gridspacingy="1pt"
     gridspacingx="1pt"
     gridoriginy="0pt"
     gridoriginx="0pt"
  />
  <defs id="defs3">

    <linearGradient id="linearGradient1887">
      <stop id="stop1888" offset="0" style="stop-color:#fffdf8;stop-opacity:1"/>
      <stop id="stop1889" offset="1" style="stop-color:#cdccc7;stop-opacity:1"/>
    </linearGradient>
    <linearGradient gradientTransform="translate(158,-105)" gradientUnits="userSpaceOnUse" id="linearGradient6371" inkscape:collect="always" x1="148" x2="143.2251" xlink:href="#linearGradient1610" y1="214.8174" y2="215.9465"/>
    <linearGradient id="linearGradient1610">
      <stop id="stop1611" offset="0" style="stop-color:#000000;stop-opacity:1"/>
      <stop id="stop3053" offset="0.35076979" style="stop-color:#7f7f7f;stop-opacity:1"/>
      <stop id="stop3054" offset="0.59668732" style="stop-color:#bfbfbf;stop-opacity:1"/>
      <stop id="stop3055" offset="0.78382427" style="stop-color:#dfdfdf;stop-opacity:1"/>
      <stop id="stop1612" offset="1" style="stop-color:#ffffff;stop-opacity:1"/>
    </linearGradient>
    <linearGradient gradientTransform="matrix(1,0,0,0.996869,180.9431,-216.2098)" gradientUnits="userSpaceOnUse" id="linearGradient6369" inkscape:collect="always" x1="121.1177" x2="130.3522" xlink:href="#linearGradient1887" y1="343.258" y2="350.1636"/>
  </defs>
<g id="text-flow-into-frame" inkscape:label="#flow_into_frame" transform="translate(-296.00079,-118)">
  <rect height="15.00001" id="rect6267" style="color:#000000;fill:url(#linearGradient6369);fill-rule:evenodd;stroke:#000000;stroke-width:1.0000001;stroke-linecap:round;stroke-linejoin:round" width="14.99917" x="296.5008" y="118.5"/>
  <g id="g6352" transform="matrix(0.5,0,0,0.5,149,70)">
    <path d="M 302,115 304,113 304,102 301,102 299,104 298,104 298,100 314,100 314,104 313,104 311,102 308,102 308,113 310,115 310,116 302,116 302,115 Z" id="path6342" inkscape:connector-curvature="0" sodipodi:nodetypes="ccccccccccccccccc" style="fill:#000000;fill-rule:evenodd"/>
    <path d="M 304,115 305,114 305,102 307,102 307,114 308,115 304,115 Z" id="path6344" inkscape:connector-curvature="0" inkscape:label="#object_font" style="fill:url(#linearGradient6371);fill-rule:evenodd"/>
  </g>
  <path d="M 308,126 308,129 310,129 310,130 309,130 309,131 308,131 308,132 307,132 307,131 306,131 306,130 305,130 305,129 307,129 307,126 308,126 Z" id="path6358" inkscape:connector-curvature="0" sodipodi:nodetypes="ccccccccccccccccc" style="fill:#000000;fill-rule:evenodd"/>
</g>

</svg>
