<?xml version="1.0" encoding="UTF-8" standalone="no"?>
<svg
   xmlns="http://www.w3.org/2000/svg"
   xmlns:xlink="http://www.w3.org/1999/xlink"
   xmlns:inkscape="http://www.inkscape.org/namespaces/inkscape"
   width="24"
   height="24"
  >
  <defs>
    <linearGradient id="linearGradientA"
		    xlink:href="#linearGradientVector"
		    gradientUnits="userSpaceOnUse"
		    x1="30" x2="4" y1="25" y2="4" />
    <linearGradient id="linearGradientVector">
      <stop offset="0" style="stop-color:#ffffff"/>
      <stop offset="1" style="stop-color:#e2e1e1"/>
    </linearGradient>
  </defs>

  <!-- Note "frmt-text-direction-rtl" is the GTK icon name but we want to use our own. -->
  <g id="frmt-text-direction-r2l" inkscape:label="#writing_mode_rl">

    <!-- Background -->
    <path d="m 1,1 h 22 l 1,1 v 20 l -2,2 h -20 l -1,-1 z" style="fill:black;fill-opacity:0.0667" />
    <rect x="0.5" y="0.5" width="21" height="21"  style="fill:url(#linearGradientA);stroke:black;stroke-linejoin:round" />
    <path d="m 2,21 h -1 v -20 h 20 v 1 h -19 z" style="fill:white" />

    <!-- Glyphs -->
    <path d="m 11.3,19.1 h 4 c 3,0 3,-5 0,-5 h -4" style="fill:none;stroke:#383838;stroke-linecap:round"/>
    <path d="m 14.1,19.3 v -5.2" style="fill:none;stroke:#383838"/>
    <path d="m 13.5,3.5 -0.1,7.5 m 2.6,-6 v 4.2 l -1.5,-1.7 h -3 c -0.5,0 -1,-0.5 -1,-1 v -1 m 7.7,2 0.8,-0.5 m -2,-3.5 h 1 v 7.5 h -1"
	  style="fill:none;stroke:#383838;stroke-linecap:round;stroke-linejoin:round" />

    <!-- Arrow -->
    <path d="m 6.5,20 -2.5,-3 h 2 v -15 h 1 v 15 h 2 z" style="fill:#5a5a5a"/>
  </g>
</svg>
