<?xml version="1.0" encoding="UTF-8" standalone="no"?>
<svg
   xmlns:dc="http://purl.org/dc/elements/1.1/"
   xmlns:cc="http://web.resource.org/cc/"
   xmlns:rdf="http://www.w3.org/1999/02/22-rdf-syntax-ns#"
   xmlns:svg="http://www.w3.org/2000/svg"
   xmlns="http://www.w3.org/2000/svg"
   xmlns:xlink="http://www.w3.org/1999/xlink"
   xmlns:sodipodi="http://inkscape.sourceforge.net/DTD/sodipodi-0.dtd"
   xmlns:inkscape="http://www.inkscape.org/namespaces/inkscape"
   id="svg1"
   width="15.99917"
   height="16.00001"
  >
  <sodipodi:namedview
     id="base"
     showgrid="true"
     gridspacingy="1pt"
     gridspacingx="1pt"
     gridoriginy="0pt"
     gridoriginx="0pt"
  />
  <defs id="defs3">

    <linearGradient id="linearGradient1610">
      <stop id="stop1611" offset="0" style="stop-color:#000000;stop-opacity:1"/>
      <stop id="stop3053" offset="0.35076979" style="stop-color:#7f7f7f;stop-opacity:1"/>
      <stop id="stop3054" offset="0.59668732" style="stop-color:#bfbfbf;stop-opacity:1"/>
      <stop id="stop3055" offset="0.78382427" style="stop-color:#dfdfdf;stop-opacity:1"/>
      <stop id="stop1612" offset="1" style="stop-color:#ffffff;stop-opacity:1"/>
    </linearGradient>
    <linearGradient gradientTransform="translate(158,-105)" gradientUnits="userSpaceOnUse" id="linearGradient6436" inkscape:collect="always" x1="148" x2="143.2251" xlink:href="#linearGradient1610" y1="214.8174" y2="215.9465"/>
  </defs>
<g id="text-unflow" inkscape:label="#unflow" transform="translate(-281,-110)">
  <rect height="15.00001" id="rect6375" style="color:#000000;fill:none;stroke:#cc0000;stroke-width:1.0000001;stroke-linecap:square;stroke-linejoin:round;stroke-dasharray:1.0000001, 2.0000002" width="14.99917" x="281.5" y="110.5"/>
  <g id="g6377" transform="matrix(0.5,0,0,0.5,133.9992,61.99999)">
    <path d="M 302,115 304,113 304,102 301,102 299,104 298,104 298,100 314,100 314,104 313,104 311,102 308,102 308,113 310,115 310,116 302,116 302,115 Z" id="path6379" inkscape:connector-curvature="0" sodipodi:nodetypes="ccccccccccccccccc" style="fill:#000000;fill-rule:evenodd"/>
    <path d="M 304,115 305,114 305,102 307,102 307,114 308,115 304,115 Z" id="path6381" inkscape:connector-curvature="0" inkscape:label="#object_font" style="fill:url(#linearGradient6436);fill-rule:evenodd"/>
  </g>
  <path d="M 290,119 291,119 292.5,120.5 294,119 295,119 295,120 293.5,121.5 295,123 295,124 294,124 292.5,122.5 291,124 290,124 290,123 291.5,121.5 290,120 290,119 Z" id="path6428" inkscape:connector-curvature="0" sodipodi:nodetypes="ccccccccccccccccc" style="fill:#c80000;fill-rule:evenodd"/>
</g>

</svg>
