<?xml version="1.0" encoding="UTF-8" standalone="no"?>
<svg
   xmlns:dc="http://purl.org/dc/elements/1.1/"
   xmlns:cc="http://web.resource.org/cc/"
   xmlns:rdf="http://www.w3.org/1999/02/22-rdf-syntax-ns#"
   xmlns:svg="http://www.w3.org/2000/svg"
   xmlns="http://www.w3.org/2000/svg"
   xmlns:xlink="http://www.w3.org/1999/xlink"
   xmlns:sodipodi="http://inkscape.sourceforge.net/DTD/sodipodi-0.dtd"
   xmlns:inkscape="http://www.inkscape.org/namespaces/inkscape"
   id="svg1"
   width="28.00001"
   height="28"
  >
  <sodipodi:namedview
     id="base"
     showgrid="true"
     gridspacingy="1pt"
     gridspacingx="1pt"
     gridoriginy="0pt"
     gridoriginx="0pt"
  />
  <defs id="defs3">

    <linearGradient id="linearGradient5926" inkscape:collect="always">
      <stop id="stop5928" offset="0" style="stop-color:#004c91;stop-opacity:1"/>
      <stop id="stop5930" offset="1" style="stop-color:#91c5f3;stop-opacity:1"/>
    </linearGradient>
    <linearGradient id="linearGradient5912" inkscape:collect="always">
      <stop id="stop5914" offset="0" style="stop-color:#000000;stop-opacity:1"/>
      <stop id="stop5916" offset="1" style="stop-color:#808080;stop-opacity:1"/>
    </linearGradient>
    <linearGradient gradientUnits="userSpaceOnUse" id="linearGradient5932" inkscape:collect="always" x1="656.1874" x2="647" xlink:href="#linearGradient5926" y1="305.6875" y2="293.5"/>
    <linearGradient gradientUnits="userSpaceOnUse" id="linearGradient5918" inkscape:collect="always" x1="643.5" x2="634.5" xlink:href="#linearGradient5912" y1="311" y2="299.5"/>
  </defs>
<g id="text_superscript" transform="translate(-629.99957,-292)">
  <rect height="28" id="rect5896" style="fill:none" width="28.00001" x="629.9996" y="292"/>
  <g id="text5926" style="font-style:italic;font-weight:bold;font-size:24px;font-family:Arial;-inkscape-font-specification:'Arial Bold Italic';letter-spacing:0;word-spacing:0;stroke:#000000;stroke-width:0.75">
    <path d="M 639.6914,308.5078 636.5977,312 632.4727,312 638.2266,305.625 635.0625,299.5547 638.6367,299.5547 640.4531,303.1055 643.6055,299.5547 647.6953,299.5547 641.918,306.0117 645.0586,312 641.4844,312 639.6914,308.5078" id="path5908" inkscape:connector-curvature="0" style="fill:url(#linearGradient5918)"/>
    <path d="M 647.6619,294.3104 649.8405,294.3104 650.3889,298.34 C 650.526,299.3759 650.6022,300.1021 650.6174,300.5185 650.9018,299.6908 651.2928,298.8173 651.7905,297.8982 L 653.7253,294.3104 656.041,294.3104 651.044,303.1922 C 650.6327,303.9285 650.3077,304.444 650.069,304.7385 649.8354,305.033 649.551,305.2641 649.2159,305.4317 648.8858,305.5993 648.4871,305.683 648.0199,305.683 647.5578,305.683 647.0373,305.6018 646.4584,305.4393 L 646.6488,303.8092 C 646.9129,303.8854 647.1693,303.9235 647.4182,303.9235 648.0885,303.9235 648.6395,303.4156 649.0711,302.4 L 647.6619,294.3104" id="path5910" inkscape:connector-curvature="0" style="fill:url(#linearGradient5932)"/>
    <path d="M 633.8112,311.4529 638.6803,306.0707 M 640.6756,303.8172 643.8077,300.2111" id="path6006" inkscape:connector-curvature="0" sodipodi:nodetypes="cccc" style="fill:none;stroke:#808080;stroke-width:0.5;stroke-linecap:round"/>
    <path d="M 647.196,304.4839 C 648.1015,304.4839 648.6777,304.1958 649.4598,302.8786 M 651.1062,300.4502 654.0491,294.9348" id="path6790" inkscape:connector-curvature="0" sodipodi:nodetypes="cccc" style="fill:none;stroke:#82c2fe;stroke-width:0.5;stroke-linecap:round"/>
  </g>
</g>

</svg>
