<?xml version="1.0" encoding="UTF-8" standalone="no"?>
<svg
   xmlns:dc="http://purl.org/dc/elements/1.1/"
   xmlns:cc="http://web.resource.org/cc/"
   xmlns:rdf="http://www.w3.org/1999/02/22-rdf-syntax-ns#"
   xmlns:svg="http://www.w3.org/2000/svg"
   xmlns="http://www.w3.org/2000/svg"
   xmlns:xlink="http://www.w3.org/1999/xlink"
   xmlns:sodipodi="http://inkscape.sourceforge.net/DTD/sodipodi-0.dtd"
   xmlns:inkscape="http://www.inkscape.org/namespaces/inkscape"
   id="svg1"
   width="15.9992"
   height="16"
  >
  <sodipodi:namedview
     id="base"
     showgrid="true"
     gridspacingy="1pt"
     gridspacingx="1pt"
     gridoriginy="0pt"
     gridoriginx="0pt"
  />
  <defs id="defs3">

    <linearGradient gradientTransform="matrix(1,0,0,0.996869,165.9423,-181.2098)" gradientUnits="userSpaceOnUse" id="linearGradient15175" inkscape:collect="always" x1="121.1177" x2="130.3522" xlink:href="#linearGradient1887" y1="343.258" y2="350.1636"/>
    <linearGradient id="linearGradient1887">
      <stop id="stop1888" offset="0" style="stop-color:#fffdf8;stop-opacity:1"/>
      <stop id="stop1889" offset="1" style="stop-color:#cdccc7;stop-opacity:1"/>
    </linearGradient>
    <linearGradient id="linearGradient1610">
      <stop id="stop1611" offset="0" style="stop-color:#000000;stop-opacity:1"/>
      <stop id="stop3053" offset="0.35076979" style="stop-color:#7f7f7f;stop-opacity:1"/>
      <stop id="stop3054" offset="0.59668732" style="stop-color:#bfbfbf;stop-opacity:1"/>
      <stop id="stop3055" offset="0.78382427" style="stop-color:#dfdfdf;stop-opacity:1"/>
      <stop id="stop1612" offset="1" style="stop-color:#ffffff;stop-opacity:1"/>
    </linearGradient>
    <linearGradient gradientTransform="translate(158,-105)" gradientUnits="userSpaceOnUse" id="linearGradient15213" inkscape:collect="always" x1="148" x2="143.2251" xlink:href="#linearGradient1610" y1="214.8174" y2="215.9465"/>
  </defs>
<g id="text-unkern" inkscape:label="#remove_manual_kerns" transform="translate(-281,-153)">
  <path d="M 281.5,153.5 296.4992,153.5 296.4992,168.5 281.5,168.5 281.5,153.5 Z" id="rect15156" inkscape:connector-curvature="0" style="color:#000000;fill:url(#linearGradient15175);fill-rule:evenodd;stroke:#3465a4;stroke-width:1.0000001;stroke-linecap:square;stroke-dasharray:1.0000001, 2.0000002"/>
  <path d="M 283.5,153.9828 283.5,168 283.5,153.9828 Z" id="path15185" inkscape:connector-curvature="0" sodipodi:nodetypes="ccc" style="color:#000000;fill:none;stroke:#73d216;stroke-width:1.0000001;stroke-linecap:square"/>
  <path d="M 290.5,153.9828 290.5,168 290.5,153.9828 Z" id="path15187" inkscape:connector-curvature="0" sodipodi:nodetypes="ccc" style="color:#000000;fill:none;stroke:#73d216;stroke-width:1.0000001;stroke-linecap:square"/>
  <path d="M 294.461,153.9828 294.461,168 294.461,153.9828 Z" id="path15189" inkscape:connector-curvature="0" sodipodi:nodetypes="ccc" style="color:#000000;fill:none;stroke:#73d216;stroke-width:1.0000001;stroke-linecap:square"/>
  <g id="g15195" transform="matrix(0.5,0,0,0.5,133.9992,105)">
    <path d="M 302,115 304,113 304,102 301,102 299,104 298,104 298,100 314,100 314,104 313,104 311,102 308,102 308,113 310,115 310,116 302,116 302,115 Z" id="path15197" inkscape:connector-curvature="0" sodipodi:nodetypes="ccccccccccccccccc" style="fill:#000000;fill-rule:evenodd"/>
    <path d="M 304,115 305,114 305,102 307,102 307,114 308,115 304,115 Z" id="path15199" inkscape:connector-curvature="0" inkscape:label="#object_font" style="fill:url(#linearGradient15213);fill-rule:evenodd"/>
  </g>
  <path d="M 290,162 291,162 292.5,163.5 294,162 295,162 295,163 293.5,164.5 295,166 295,167 294,167 292.5,165.5 291,167 290,167 290,166 291.5,164.5 290,163 290,162 Z" id="path15201" inkscape:connector-curvature="0" sodipodi:nodetypes="ccccccccccccccccc" style="fill:#c80000;fill-rule:evenodd"/>
</g>

</svg>
