<?xml version="1.0" encoding="UTF-8" standalone="no"?>
<svg
   xmlns:dc="http://purl.org/dc/elements/1.1/"
   xmlns:cc="http://web.resource.org/cc/"
   xmlns:rdf="http://www.w3.org/1999/02/22-rdf-syntax-ns#"
   xmlns:svg="http://www.w3.org/2000/svg"
   xmlns="http://www.w3.org/2000/svg"
   xmlns:xlink="http://www.w3.org/1999/xlink"
   xmlns:sodipodi="http://inkscape.sourceforge.net/DTD/sodipodi-0.dtd"
   xmlns:inkscape="http://www.inkscape.org/namespaces/inkscape"
   id="svg1"
   width="12.000501"
   height="12.000007"
  >
  <sodipodi:namedview
     id="base"
     showgrid="true"
     gridspacingy="1pt"
     gridspacingx="1pt"
     gridoriginy="0pt"
     gridoriginx="0pt"
  />
  <defs id="defs3">

  </defs>
<g id="transform-affect-pattern" inkscape:label="#transform_pattern" transform="translate(-674.9995,-244.961)">
  <rect height="4.999897" id="rect4538" style="fill:#000000;stroke:#000000;stroke-width:0;stroke-linejoin:round" width="11.00024" x="674.9997" y="245.9612"/>
  <path d="M 683.8361,245.8988 681.6098,247.592 679.4293,245.9337 677.2029,247.627 679.4063,249.3028 677.2259,250.9612 681.6327,250.9612 679.4523,249.3028 681.6557,247.627 683.8361,249.2853 686.0625,247.592 683.8361,245.8988 Z M 683.8361,249.2853 681.6327,250.9612 686.0395,250.9612 683.8361,249.2853 Z M 674.9995,245.9162 674.9995,249.2679 677.2029,247.592 674.9995,245.9162 Z M 674.9995,249.3028 674.9995,250.9612 677.18,250.9612 674.9995,249.3028 Z" id="rect4540" inkscape:connector-curvature="0" style="opacity:0.9;fill:#ffffff;stroke:#000000;stroke-width:0;stroke-linejoin:round"/>
  <path d="M 675.5,246.461 686.5,246.461 686.5,251.461" id="use5102" inkscape:connector-curvature="0" sodipodi:nodetypes="ccc" style="fill:none;stroke:#000000;stroke-width:1px;stroke-linecap:square" transform="matrix(1,0,0,1,0,-1)"/>
  <g id="use4592" transform="matrix(0.695835,0,0,0.741921,209.1801,63.671)">
    <path d="M 682.3742,253.7871 682.3742,256.4828 679.5,256.4828 679.5,257.8307 682.3742,257.8307 682.3742,260.5264 686.6856,257.1568 682.3742,253.7871 Z" id="path12910" inkscape:connector-curvature="0" sodipodi:nodetypes="cccccccc" style="fill:#000000;fill-rule:evenodd"/>
    <path d="M 505.9072,37.19576 507.3443,37.19576" id="path5764" inkscape:connector-curvature="0" sodipodi:nodetypes="cc" style="fill:none;stroke:#000000;stroke-width:1.391772px;stroke-linecap:square" transform="translate(170,219.961)"/>
    <path d="M 672.3144,257.1568 673.7515,257.1568" id="path5770" inkscape:connector-curvature="0" sodipodi:nodetypes="cc" style="fill:none;stroke:#000000;stroke-width:1.391772px"/>
  </g>
</g>

</svg>
