<?xml version="1.0" encoding="UTF-8" standalone="no"?>
<svg
   xmlns:dc="http://purl.org/dc/elements/1.1/"
   xmlns:cc="http://web.resource.org/cc/"
   xmlns:rdf="http://www.w3.org/1999/02/22-rdf-syntax-ns#"
   xmlns:svg="http://www.w3.org/2000/svg"
   xmlns="http://www.w3.org/2000/svg"
   xmlns:xlink="http://www.w3.org/1999/xlink"
   xmlns:sodipodi="http://inkscape.sourceforge.net/DTD/sodipodi-0.dtd"
   xmlns:inkscape="http://www.inkscape.org/namespaces/inkscape"
   id="svg1"
   width="24.017883"
   height="24.015197"
  >
  <sodipodi:namedview
     id="base"
     showgrid="true"
     gridspacingy="1pt"
     gridspacingx="1pt"
     gridoriginy="0pt"
     gridoriginx="0pt"
  />
  <defs id="defs3">

    <linearGradient id="linearGradient2485">
      <stop id="stop2486" offset="0" style="stop-color:#ffffff;stop-opacity:1"/>
      <stop id="stop2487" offset="1" style="stop-color:#aaaaaa;stop-opacity:1"/>
    </linearGradient>
    <linearGradient gradientTransform="matrix(1.159934,0,0,1.224222,-143.4594,-12.87852)" gradientUnits="userSpaceOnUse" id="linearGradient5826" inkscape:collect="always" x1="905.4675" x2="917.3691" xlink:href="#linearGradient2485" y1="19.1921" y2="30.79385"/>
  </defs>
<g id="xml-attribute-delete" inkscape:label="#delete_xml_attribute" transform="translate(-899.9888,-4.968703)">
  <g id="use5739" transform="matrix(1,0,0,1,0.0067,-0.0161)">
    <path d="M 923,6 924,6 924,27 922,29 901,29 901,28 923,28 923,6 Z" id="path5401" inkscape:connector-curvature="0" sodipodi:nodetypes="cccccccc" style="fill:#000000;fill-opacity:0.1786744;fill-rule:evenodd"/>
    <rect height="22.03599" id="rect5403" style="color:#000000;fill:url(#linearGradient5826);fill-rule:evenodd;stroke:#000000;stroke-width:0.9999998;stroke-linecap:round;stroke-linejoin:round" width="22.03876" x="900.4821" y="5.484803"/>
  </g>
  <rect height="2.109722" id="rect5560" style="color:#000000;opacity:0.3167155;fill:#ffffff;fill-rule:evenodd;stroke:#000000;stroke-width:0.9999999;stroke-linecap:square" width="6.985046" x="910.5713" y="20.50245"/>
  <path d="M 904.5,21.50244 909.6429,21.50244" id="path5554" inkscape:connector-curvature="0" style="opacity:0.3167155;fill:none;stroke:#000000;stroke-width:1.0000001px;stroke-linecap:square"/>
  <path d="M 904.5,18.43078 904.5,20.57811" id="path5562" inkscape:connector-curvature="0" sodipodi:nodetypes="cc" style="opacity:0.3167155;fill:none;stroke:#000000;stroke-width:1.0000001px;stroke-linecap:square"/>
  <g id="use5783" transform="matrix(1,0,0,1,-57.4933,-150.51612)">
    <path d="M 972,171 973,170 980,170 981,171 981,178 980,179 973,179 972,178 972,171 Z" id="path8011" inkscape:connector-curvature="0" sodipodi:nodetypes="ccccccccc" style="fill:#aa0000;fill-rule:evenodd;stroke:#aa0000;stroke-width:1px"/>
    <path d="M 974,171.85 979,176.85" id="path8023" inkscape:connector-curvature="0" sodipodi:nodetypes="cc" style="fill:none;stroke:#ffffff;stroke-width:1.7"/>
    <path d="M 979,171.85 974,176.85" id="path8025" inkscape:connector-curvature="0" sodipodi:nodetypes="cc" style="fill:none;stroke:#ffffff;stroke-width:1.8;stroke-linejoin:round"/>
  </g>
  <path d="M 903.4995,7.482439 905.4839,7.482439 905.4839,9.494854 903.4995,9.494854 903.4995,7.482439 Z M 904.5713,9.984805 904.5713,17.39985 M 904.5713,13.50244 910.5713,13.50244 M 910.5862,12.4848 917.5713,12.4848 917.5713,14.52008 910.5862,14.52008 910.5862,12.4848 Z M 904.5067,17.4839 910.5067,17.4839 M 910.5067,16.44862 917.4918,16.44862 917.4918,18.4839 910.5067,18.4839 910.5067,16.44862 Z" id="rect5540" inkscape:connector-curvature="0" style="color:#000000;fill:#ffffff;fill-rule:evenodd;stroke:#000000;stroke-width:0.9999982;stroke-linecap:square"/>
</g>

</svg>
