<?xml version="1.0" encoding="UTF-8" standalone="no"?>
<svg
   xmlns:dc="http://purl.org/dc/elements/1.1/"
   xmlns:cc="http://web.resource.org/cc/"
   xmlns:rdf="http://www.w3.org/1999/02/22-rdf-syntax-ns#"
   xmlns:svg="http://www.w3.org/2000/svg"
   xmlns="http://www.w3.org/2000/svg"
   xmlns:xlink="http://www.w3.org/1999/xlink"
   xmlns:sodipodi="http://inkscape.sourceforge.net/DTD/sodipodi-0.dtd"
   xmlns:inkscape="http://www.inkscape.org/namespaces/inkscape"
   id="svg1"
   width="24.017883"
   height="24.015197"
  >
  <sodipodi:namedview
     id="base"
     showgrid="true"
     gridspacingy="1pt"
     gridspacingx="1pt"
     gridoriginy="0pt"
     gridoriginx="0pt"
  />
  <defs id="defs3">

    <linearGradient gradientTransform="matrix(1.159934,0,0,1.224222,-143.4594,-12.87852)" gradientUnits="userSpaceOnUse" id="linearGradient5826" inkscape:collect="always" x1="905.4675" x2="917.3691" xlink:href="#linearGradient2485" y1="19.1921" y2="30.79385"/>
    <linearGradient id="linearGradient2485">
      <stop id="stop2486" offset="0" style="stop-color:#ffffff;stop-opacity:1"/>
      <stop id="stop2487" offset="1" style="stop-color:#aaaaaa;stop-opacity:1"/>
    </linearGradient>
  </defs>
<g id="xml-node-delete" inkscape:label="#delete_xml_node" transform="translate(-899.9888,-4.968703)">
  <g id="use5729" transform="matrix(1,0,0,1,0.0067,-0.0161)">
    <path d="M 923,6 924,6 924,27 922,29 901,29 901,28 923,28 923,6 Z" id="path5401" inkscape:connector-curvature="0" sodipodi:nodetypes="cccccccc" style="fill:#000000;fill-opacity:0.1786744;fill-rule:evenodd"/>
    <rect height="22.03599" id="rect5403" style="color:#000000;fill:url(#linearGradient5826);fill-rule:evenodd;stroke:#000000;stroke-width:0.9999998;stroke-linecap:round;stroke-linejoin:round" width="22.03876" x="900.4821" y="5.484803"/>
  </g>
  <g id="use5744" transform="matrix(1,0,0,1,0.0067,-0.0161)">
    <path d="M 909.5,11 909.5,16" id="path5405" inkscape:connector-curvature="0" style="fill:none;stroke:#000000;stroke-width:1px"/>
    <path d="M 912.5,11.97746 C 913.5,11.47746 915.5,10.97746 915.5,12.97746 915.5,13.97746 915.5,14.97746 915.5,15.97746" id="path5407" inkscape:connector-curvature="0" sodipodi:nodetypes="csc" style="fill:none;stroke:#000000;stroke-width:1px"/>
    <path d="M 917.5,7.470786 C 917.5,10.97079 917.5,13.47079 917.5,14.47079 917.5,15.62323 918.5,15.47079 919.5,15.47079" id="path5410" inkscape:connector-curvature="0" sodipodi:nodetypes="csc" style="fill:none;stroke:#000000;stroke-width:1px"/>
    <path d="M 909.5,11.97746 C 910.5,11.47746 912.5,10.97746 912.5,12.97746 912.5,13.97746 912.5,14.97746 912.5,15.97746" id="path5412" inkscape:connector-curvature="0" sodipodi:nodetypes="csc" style="fill:none;stroke:#000000;stroke-width:1px"/>
    <path d="M 903,10.97079 908,15.97079" id="path5414" inkscape:connector-curvature="0" sodipodi:nodetypes="cc" style="fill:none;stroke:#000000;stroke-width:1px"/>
    <path d="M 908,10.97079 903,15.97079" id="path5416" inkscape:connector-curvature="0" style="fill:none;stroke:#000000;stroke-width:1px"/>
  </g>
  <g id="use5763" transform="matrix(1,0,0,1,0.0067,-0.0161)">
    <path d="M 906.5,24.5 903.5,21.5 906.5,18.5 M 909.5,24.5 912.5,21.5 909.5,18.5" id="path5418" inkscape:connector-curvature="0" style="fill:none;stroke:#000000;stroke-width:1px;stroke-linecap:square"/>
  </g>
  <g id="use7401" transform="matrix(1,0,0,1,-57.4933,-150.51612)">
    <path d="M 972,171 973,170 980,170 981,171 981,178 980,179 973,179 972,178 972,171 Z" id="path8011" inkscape:connector-curvature="0" sodipodi:nodetypes="ccccccccc" style="fill:#aa0000;fill-rule:evenodd;stroke:#aa0000;stroke-width:1px"/>
    <path d="M 974,171.85 979,176.85" id="path8023" inkscape:connector-curvature="0" sodipodi:nodetypes="cc" style="fill:none;stroke:#ffffff;stroke-width:1.7"/>
    <path d="M 979,171.85 974,176.85" id="path8025" inkscape:connector-curvature="0" sodipodi:nodetypes="cc" style="fill:none;stroke:#ffffff;stroke-width:1.8;stroke-linejoin:round"/>
  </g>
</g>

</svg>
