<?xml version="1.0" encoding="UTF-8" standalone="no"?>
<svg
   xmlns:dc="http://purl.org/dc/elements/1.1/"
   xmlns:cc="http://web.resource.org/cc/"
   xmlns:rdf="http://www.w3.org/1999/02/22-rdf-syntax-ns#"
   xmlns:svg="http://www.w3.org/2000/svg"
   xmlns="http://www.w3.org/2000/svg"
   xmlns:xlink="http://www.w3.org/1999/xlink"
   xmlns:sodipodi="http://inkscape.sourceforge.net/DTD/sodipodi-0.dtd"
   xmlns:inkscape="http://www.inkscape.org/namespaces/inkscape"
   id="svg1"
   width="24.017883"
   height="24.015197"
  >
  <sodipodi:namedview
     id="base"
     showgrid="true"
     gridspacingy="1pt"
     gridspacingx="1pt"
     gridoriginy="0pt"
     gridoriginx="0pt"
  />
  <defs id="defs3">

    <linearGradient id="linearGradient2485">
      <stop id="stop2486" offset="0" style="stop-color:#ffffff;stop-opacity:1"/>
      <stop id="stop2487" offset="1" style="stop-color:#aaaaaa;stop-opacity:1"/>
    </linearGradient>
    <linearGradient gradientUnits="userSpaceOnUse" id="linearGradient5828" inkscape:collect="always" x1="915.0701" x2="922.5571" xlink:href="#linearGradient5704" y1="20.45271" y2="27.32372"/>
    <linearGradient gradientTransform="matrix(1.159934,0,0,1.224222,-143.4594,-12.87852)" gradientUnits="userSpaceOnUse" id="linearGradient5826" inkscape:collect="always" x1="905.4675" x2="917.3691" xlink:href="#linearGradient2485" y1="19.1921" y2="30.79385"/>
    <linearGradient id="linearGradient5704">
      <stop id="stop5706" offset="0" style="stop-color:#5a5a5a;stop-opacity:1"/>
      <stop id="stop5708" offset="1" style="stop-color:#000000;stop-opacity:1"/>
    </linearGradient>
  </defs>
<g id="xml-text-new" inkscape:label="#add_xml_text_node" transform="translate(-900.0068,-4.9991)">
  <g id="use5723" transform="matrix(1,0,0,1,0.0246443,0.0142967)">
    <path d="M 923,6 924,6 924,27 922,29 901,29 901,28 923,28 923,6 Z" id="path5401" inkscape:connector-curvature="0" sodipodi:nodetypes="cccccccc" style="fill:#000000;fill-opacity:0.1786744;fill-rule:evenodd"/>
    <rect height="22.03599" id="rect5403" style="color:#000000;fill:url(#linearGradient5826);fill-rule:evenodd;stroke:#000000;stroke-width:0.9999998;stroke-linecap:round;stroke-linejoin:round" width="22.03876" x="900.4821" y="5.484803"/>
  </g>
  <path d="M 906.4821,10.47669 C 906.4741,12.49287 906.4821,13.4848 906.4821,13.9848 906.4821,14.49972 906.9821,14.48886 907.4821,14.49292" id="path5438" inkscape:connector-curvature="0" sodipodi:nodetypes="csc" style="fill:none;stroke:#000000;stroke-width:1.0000001px;stroke-linecap:square"/>
  <path d="M 909.4821,7.484803 C 909.4821,10.9848 909.4821,12.4848 909.4821,13.4848 909.4821,13.9848 909.4821,14.4848 909.9821,14.4848 910.8248,14.4848 911.9821,14.4848 912.4821,14.4848 912.9821,14.4848 913.4821,14.4848 913.4821,12.4848 913.4821,10.4848 912.9821,10.4848 912.4821,10.4848 911.9821,10.4848 911.4821,10.4848 909.4821,10.4848" id="path5442" inkscape:connector-curvature="0" sodipodi:nodetypes="csssssc" style="fill:none;stroke:#000000;stroke-width:1px;stroke-linecap:square"/>
  <path d="M 919.5148,11.45983 C 919.4821,10.4848 918.9821,10.4848 918.4821,10.4848 918.03,10.4848 916.9821,10.4848 916.4821,10.4848 915.9821,10.4848 915.4821,10.4848 915.4821,12.4848 915.4821,14.4848 915.9821,14.4848 916.4821,14.4848 916.9821,14.4848 918.4821,14.4848 919.4821,14.4779" id="path5464" inkscape:connector-curvature="0" sodipodi:nodetypes="cssssc" style="fill:none;stroke:#000000;stroke-linecap:square"/>
  <path d="M 906.4821,10.4848 C 905.9821,10.4848 903.4821,10.4848 903.4821,10.4848 902.9821,10.4848 902.4821,10.4848 902.4821,12.4848 902.4821,14.4848 902.9705,14.50294 903.4821,14.4848 903.9705,14.46749 905.4821,14.4848 906.4821,14.4946" id="path5466" inkscape:connector-curvature="0" sodipodi:nodetypes="csssc" style="fill:none;stroke:#000000;stroke-width:0.9999998;stroke-linecap:square"/>
  <g id="use5694" transform="matrix(1,0,0,1,0,0)">
    <path d="M 914.5068,19.4991 923.4477,19.4991 923.4477,28.44092 914.5068,28.44092 914.5068,19.4991 Z" id="path5430" inkscape:connector-curvature="0" sodipodi:nodetypes="ccccc" style="fill:#ffffff;fill-rule:evenodd;stroke:url(#linearGradient5828);stroke-width:0.9999998px"/>
    <path d="M 919.0067,20.9991 919.0067,26.9991" id="path5424" inkscape:connector-curvature="0" sodipodi:nodetypes="cc" style="fill:none;stroke:#000000;stroke-width:2"/>
    <path d="M 922.0067,23.9991 916.0067,23.9991" id="path5426" inkscape:connector-curvature="0" sodipodi:nodetypes="cc" style="fill:none;stroke:#000000;stroke-width:2;stroke-linejoin:round"/>
  </g>
  <g id="use5760" transform="matrix(1,0,0,1,0.0067,-0.0009)">
    <path d="M 906.5,24.5 903.5,21.5 906.5,18.5 M 909.5,24.5 912.5,21.5 909.5,18.5" id="path5418" inkscape:connector-curvature="0" style="fill:none;stroke:#000000;stroke-width:1px;stroke-linecap:square"/>
  </g>
</g>

</svg>
