<?xml version="1.0" encoding="UTF-8" standalone="no"?>
<svg
   xmlns:dc="http://purl.org/dc/elements/1.1/"
   xmlns:cc="http://web.resource.org/cc/"
   xmlns:rdf="http://www.w3.org/1999/02/22-rdf-syntax-ns#"
   xmlns:svg="http://www.w3.org/2000/svg"
   xmlns="http://www.w3.org/2000/svg"
   xmlns:xlink="http://www.w3.org/1999/xlink"
   xmlns:sodipodi="http://inkscape.sourceforge.net/DTD/sodipodi-0.dtd"
   xmlns:inkscape="http://www.inkscape.org/namespaces/inkscape"
   id="svg1"
   width="16.000493"
   height="15.999457"
  >
  <sodipodi:namedview
     id="base"
     showgrid="true"
     gridspacingy="1pt"
     gridspacingx="1pt"
     gridoriginy="0pt"
     gridoriginx="0pt"
  />
  <defs id="defs3">

    <linearGradient id="linearGradient5740">
      <stop id="stop5742" offset="0" style="stop-color:#ffffff;stop-opacity:1"/>
      <stop id="stop5744" offset="1" style="stop-color:#98b6d3;stop-opacity:1"/>
    </linearGradient>
    <radialGradient cx="171.7755" cy="153.063" fx="171.7755" fy="153.063" gradientTransform="matrix(1.122233,1.252981,-2.05495,1.830229,297.3402,-339.2527)" gradientUnits="userSpaceOnUse" id="radialGradient5855" inkscape:collect="always" r="7.469679" xlink:href="#linearGradient5740"/>
  </defs>
<g id="zoom-fit-selection" inkscape:label="#zoom_select" transform="matrix(0.996399,0,0,0.998404,-4.883163,-247.540212)">
  <g id="use5822" transform="matrix(1,0,0,0.997925,-0.07212,0.477615)">
    <circle cx="179" cy="159" id="path4220" r="7" style="color:#000000;fill:none;stroke:#000000;stroke-width:0.9403349;stroke-linecap:round;stroke-linejoin:round;stroke-miterlimit:0;stroke-opacity:0.2651297" transform="matrix(1.00786,0,0,1.007983,-167.1731,96.0569)"/>
    <rect height="16" id="rect10601" style="color:#000000;fill:none" width="16" x="5.0273" y="248.029"/>
    <path d="M 18.03125,259 16,261.0312 19,264.0312 21.03125,262 18.03125,259 Z" id="path10605" inkscape:connector-curvature="0" style="fill:#000000;fill-rule:evenodd"/>
    <circle cx="179" cy="159" id="path10607" r="7" style="color:#000000;fill:url(#radialGradient5855);fill-rule:evenodd;stroke:#000000;stroke-width:0.9931717;stroke-linecap:round;stroke-linejoin:round;stroke-miterlimit:0" transform="matrix(1.00786,0,0,1.007983,-167.8785,95.25998)"/>
  </g>
  <rect height="7" id="rect3901" style="color:#000000;fill:#ffffff;fill-rule:evenodd" transform="translate(-9.99998,20)" width="9" x="18" y="232"/>
  <rect height="1" id="rect3873" style="color:#000000;fill:#000000;fill-rule:evenodd" transform="translate(-9.99998,20)" width="1" x="18" y="232"/>
  <rect height="1" id="rect3875" style="color:#000000;fill:#000000;fill-rule:evenodd" width="1" x="10.00002" y="252"/>
  <rect height="1" id="rect3877" style="color:#000000;fill:#000000;fill-rule:evenodd" width="1" x="12.00002" y="252"/>
  <rect height="1" id="rect3879" style="color:#000000;fill:#000000;fill-rule:evenodd" width="1" x="14.00002" y="252"/>
  <rect height="1" id="rect3881" style="color:#000000;fill:#000000;fill-rule:evenodd" width="1" x="16.00002" y="252"/>
  <rect height="1" id="rect3883" style="color:#000000;fill:#000000;fill-rule:evenodd" width="1" x="16.00002" y="254"/>
  <rect height="1" id="rect3885" style="color:#000000;fill:#000000;fill-rule:evenodd" width="1" x="16.00002" y="256"/>
  <rect height="1" id="rect3887" style="color:#000000;fill:#000000;fill-rule:evenodd" width="1" x="16.00002" y="258"/>
  <rect height="1" id="rect3889" style="color:#000000;fill:#000000;fill-rule:evenodd" width="1" x="14.00002" y="258"/>
  <rect height="1" id="rect3891" style="color:#000000;fill:#000000;fill-rule:evenodd" width="1" x="12.00002" y="258"/>
  <rect height="1" id="rect3893" style="color:#000000;fill:#000000;fill-rule:evenodd" width="1" x="10.00002" y="258"/>
  <rect height="1" id="rect3895" style="color:#000000;fill:#000000;fill-rule:evenodd" width="1" x="8.00002" y="258"/>
  <rect height="1" id="rect3897" style="color:#000000;fill:#000000;fill-rule:evenodd" width="1" x="8.00002" y="256"/>
  <rect height="1" id="rect3899" style="color:#000000;fill:#000000;fill-rule:evenodd" width="1" x="8.00002" y="254"/>
</g>

</svg>
